<?xml version="1.0" standalone="no"?>
<!DOCTYPE svg PUBLIC "-//W3C//DTD SVG 1.1//EN" "http://www.w3.org/Graphics/SVG/1.1/DTD/svg11.dtd" >
<svg xmlns="http://www.w3.org/2000/svg">
<metadata></metadata>
<defs>
<font id="century_751_blackitalic" horiz-adv-x="1345" >
<font-face units-per-em="2048" ascent="1638" descent="-410" />
<missing-glyph horiz-adv-x="673" />
<glyph horiz-adv-x="2048" />
<glyph horiz-adv-x="2048" />
<glyph unicode="&#xd;" horiz-adv-x="2048" />
<glyph unicode=" "  horiz-adv-x="673" />
<glyph unicode="&#x09;" horiz-adv-x="673" />
<glyph unicode="&#xa0;" horiz-adv-x="673" />
<glyph unicode="!" horiz-adv-x="749" d="M106 182q0 79 56 137t137 58t138 -57.5t57 -137.5q0 -81 -58 -137.5t-137 -56.5q-78 0 -135.5 57.5t-57.5 136.5zM268 1087q0 195 52 288.5t186 113.5q145 -71 145 -227q0 -67 -30 -164.5t-107.5 -302t-122.5 -334.5l-110 20q-1 190 -7 388.5t-6 217.5z" />
<glyph unicode="&#x22;" horiz-adv-x="716" d="M74 1346q0 55 29.5 86.5t80.5 31.5t82 -31t31 -85q0 -15 -4 -39l-86 -463h-43l-86 463q-4 24 -4 37zM420 1346q0 55 29.5 86.5t80.5 31.5t81 -31t30 -85q0 -27 -2 -39l-86 -463h-45l-84 463q-4 24 -4 37z" />
<glyph unicode="#" horiz-adv-x="1574" d="M23 381l86 229h272l82 234h-285l86 229h281l139 393h248l-139 -393h241l140 393h247l-139 -393h270l-86 -229h-266l-82 -234h277l-84 -229h-275l-141 -393h-248l141 393h-241l-141 -393h-248l141 393h-276zM621 610h253l84 234h-253z" />
<glyph unicode="$" d="M74 332q0 94 52 154.5t128 60.5q67 0 111.5 -46.5t44.5 -119.5q0 -120 -109 -188q60 -92 225 -95l70 451q-221 82 -320.5 186t-99.5 269q0 207 147.5 327t415.5 121l31 193h109l-31 -195q192 -20 304 -116.5t112 -225.5q0 -82 -44.5 -133t-115.5 -51q-73 0 -117.5 43.5 t-44.5 117.5q0 88 70 183q-63 66 -181 75l-69 -436q440 -132 440 -473q0 -201 -156.5 -325t-431.5 -127l-36 -234h-107l37 238q-199 12 -316.5 109.5t-117.5 236.5zM506 1141q0 -135 153 -191l64 391q-99 -3 -158 -58.5t-59 -141.5zM635 102q106 13 164.5 72t58.5 148 q0 130 -158 188z" />
<glyph unicode="%" horiz-adv-x="1914" d="M57 1010q0 198 113.5 319t284.5 121q172 0 284.5 -121t112.5 -319q0 -197 -113 -319t-284 -122q-169 0 -283.5 122t-114.5 319zM319 1010q0 -355 136 -355q68 0 100.5 87.5t32.5 267.5q0 182 -31.5 268t-101.5 86q-136 0 -136 -354zM424 -18l926 1468h141l-926 -1468 h-141zM1063 422q0 198 113.5 320t283.5 122q169 0 283.5 -122.5t114.5 -319.5q0 -198 -113 -319t-285 -121t-284.5 120.5t-112.5 319.5zM1325 422q0 -181 32.5 -267.5t102.5 -86.5q135 0 135 354t-135 354q-70 0 -102.5 -87t-32.5 -267z" />
<glyph unicode="&#x26;" horiz-adv-x="1622" d="M63 410q0 166 117 282.5t320 145.5q-151 17 -229 86.5t-78 187.5q0 164 142 270.5t376 106.5q207 0 339 -92.5t132 -216.5q0 -62 -42.5 -103t-109.5 -41q-73 0 -113 45.5t-40 132.5q0 29 1 59l1 30q0 35 -31.5 54t-87.5 19q-95 0 -149 -78t-54 -211q0 -155 176 -229 l-37 -98h-10q-36 0 -78 22q-78 -35 -128 -124.5t-50 -196.5q0 -151 100.5 -249.5t260.5 -98.5q169 0 284 106.5t115 261.5q0 85 -39 162q-108 19 -150 19q-78 0 -120 -54q96 -56 96 -166q0 -73 -38.5 -115t-104.5 -42q-68 0 -111 51.5t-43 136.5q0 145 113.5 231.5 t320.5 86.5q72 0 169.5 -7.5t123.5 -7.5q47 0 72.5 14.5t54.5 59.5l70 -27q-33 -112 -73 -155t-114 -43q-37 0 -104 6q16 -85 16 -150q0 -226 -171 -362.5t-480 -136.5q-295 0 -455 113.5t-160 314.5z" />
<glyph unicode="'" horiz-adv-x="370" d="M74 1346q0 54 30.5 86t81.5 32t81 -31t30 -85q0 -15 -4 -39l-86 -463h-43l-86 463q-4 24 -4 37z" />
<glyph unicode="(" horiz-adv-x="901" d="M160 487q0 355 177.5 628t514.5 431l57 -88q-233 -128 -359 -398t-126 -650q0 -212 67.5 -420.5t194.5 -384.5l-76 -74q-450 474 -450 956z" />
<glyph unicode=")" horiz-adv-x="901" d="M-88 -381q233 128 359 398.5t126 650.5q0 211 -68.5 419.5t-195.5 385.5l78 73q448 -475 448 -958q0 -354 -177.5 -626t-514.5 -431z" />
<glyph unicode="*" horiz-adv-x="1024" d="M195 932q0 73 62 101t222 44l21 -35q-14 -18 -41 -53.5t-38 -49t-31 -35.5t-33 -30t-31 -15t-37 -7q-45 0 -90 39q-4 16 -4 41zM195 1257q0 17 2 33q51 39 92 39q32 0 65.5 -24t56 -51t73.5 -94q11 -14 16 -21l-21 -35q-158 22 -197 34q-67 22 -82 74q-5 19 -5 45z M449 811q0 12 3 27.5t11 38t15 40.5t21 53t23 58h41q10 -26 28 -70.5t25.5 -64t14 -43.5t6.5 -39q0 -85 -94 -119q-94 34 -94 119zM449 1370q0 85 94 119q94 -34 94 -119q0 -8 -1.5 -17.5t-3.5 -18.5t-7 -23.5t-8.5 -24.5t-11.5 -29t-12.5 -30.5t-14.5 -36t-15 -37.5h-41 q-5 12 -14 33.5t-13 32t-11 28t-10.5 27t-8 23t-7 22t-5 18.5t-3.5 18t-1 15zM586 1042l20 35q60 -7 91 -11.5t69.5 -12.5t56.5 -17.5t36 -25t24 -36.5t6 -50q0 -1 -0.5 -4.5t-1.5 -11t-2 -15.5q-47 -41 -88 -41q-12 0 -23.5 2t-23 8.5t-20.5 12t-21.5 18t-20.5 21t-23 27 t-23.5 29t-27 35t-28.5 37.5zM586 1141q11 14 32 41.5t29.5 38.5t25 31t25.5 28t23.5 20t25.5 16.5t25.5 8.5t30.5 4q39 0 84 -39q4 -28 4 -41q0 -32 -12 -54t-31 -36t-59 -24.5t-77.5 -16.5t-105.5 -14z" />
<glyph unicode="+" horiz-adv-x="1705" d="M254 496v231h481v494h238v-494h479v-231h-479v-496h-238v496h-481z" />
<glyph unicode="," horiz-adv-x="673" d="M16 -281q137 40 214 109t77 127q0 6 -1 10t-3.5 6.5t-5 4t-9 3t-11.5 2l-15 1.5t-18 2q-156 21 -156 176q0 93 57 155t146 62q100 0 159.5 -66.5t59.5 -181.5q0 -177 -122.5 -309t-336.5 -176z" />
<glyph unicode="-" horiz-adv-x="612" d="M8 381l53 266h498l-51 -266h-500z" />
<glyph unicode="." horiz-adv-x="673" d="M106 182q0 79 56 137t137 58t138 -57.5t57 -137.5q0 -81 -58 -137.5t-137 -56.5q-78 0 -135.5 57.5t-57.5 136.5z" />
<glyph unicode="/" horiz-adv-x="749" d="M-123 -190l748 1679h170l-748 -1679h-170z" />
<glyph unicode="0" d="M57 606q0 338 191 576q105 131 237.5 199.5t276.5 68.5q243 0 385.5 -156.5t142.5 -425.5q0 -302 -145 -540q-102 -167 -249 -256.5t-314 -89.5q-228 0 -376.5 173.5t-148.5 450.5zM434 438q0 -173 38 -255.5t122 -82.5q72 0 123.5 66.5t93.5 206.5q100 329 100 651 q0 170 -30.5 238.5t-118.5 68.5q-58 0 -116.5 -66t-105.5 -180.5t-76.5 -285t-29.5 -361.5z" />
<glyph unicode="1" d="M166 0l20 109h25q70 0 108 9t61.5 44t33.5 75.5t26 131.5v2l119 678q12 73 12 110q0 31 -12 45.5t-39 14.5q-18 0 -69 -9l-132 -24l-22 94q397 72 719 164l-201 -1094q-16 -88 -16 -137q0 -59 30 -81.5t107 -22.5h39l-19 -109q-290 10 -403 10q-90 0 -387 -10z" />
<glyph unicode="2" d="M-6 104q238 289 461 453q173 127 234 186q125 119 145 251q4 29 4 61q0 119 -74.5 188.5t-198.5 69.5q-128 0 -221.5 -71.5t-93.5 -166.5q12 1 31.5 3.5t25.5 2.5q85 0 141 -56.5t56 -137.5q0 -75 -49 -122.5t-127 -47.5q-98 0 -162 79t-64 205q0 194 152 321.5 t395 127.5q275 0 431.5 -119t156.5 -321q0 -132 -66.5 -229t-209.5 -177q-64 -35 -219 -102t-234 -105q-123 -59 -293 -209q114 72 199 107t166 35q74 0 199 -19.5t175 -19.5q81 0 123 45.5t68 148.5l90 -24q-12 -116 -27 -192.5t-39 -135.5t-61 -90.5t-87 -47t-122 -15.5 q-107 0 -310.5 34.5t-291.5 34.5q-45 0 -96 -16t-138 -51z" />
<glyph unicode="3" d="M29 356q0 83 53 143t129 60q72 0 123 -51.5t51 -124.5q0 -65 -38.5 -112t-108.5 -66q40 -48 105 -74.5t144 -26.5q144 0 232 90.5t88 235.5q0 102 -65.5 154.5t-194.5 52.5q-48 0 -109 -4l37 123q170 3 277.5 97.5t107.5 231.5q0 110 -69.5 175t-182.5 65q-72 0 -135 -32 t-100 -87q85 -9 131.5 -55.5t46.5 -118.5q0 -74 -48.5 -121t-127.5 -47q-90 0 -149.5 65.5t-59.5 164.5q0 151 148.5 253.5t392.5 102.5q239 0 380.5 -98t141.5 -254q0 -150 -134.5 -249.5t-392.5 -137.5q264 -8 385 -82t121 -236q0 -185 -167 -298t-457 -113 q-262 0 -408.5 103.5t-146.5 270.5z" />
<glyph unicode="4" d="M2 350l21 248q280 293 498 501.5t444 381.5l86 -99q-581 -450 -861 -770h486l84 469q185 11 389 97l-100 -566h196l-86 -262h-155l-13 -90q-4 -28 -4 -43q0 -59 25.5 -83.5t105.5 -24.5h8l-20 -109q-277 10 -356 10q-104 0 -377 -10l20 109q113 0 160 27.5t61 115.5 l17 98h-629z" />
<glyph unicode="5" d="M61 338q0 92 49 148.5t126 56.5q75 0 123.5 -48t48.5 -124q0 -117 -136 -189q87 -65 207 -65q137 0 235.5 118t98.5 293q0 116 -62.5 186t-166.5 70q-55 0 -119 -25t-154 -75l-106 70l121 716q532 -86 704 -86q55 0 88 18.5t66 70.5l73 -66q-92 -176 -177 -250t-210 -74 q-122 0 -469 68l-59 -334q180 119 387 119q205 0 337 -118t132 -306q0 -233 -179.5 -382.5t-457.5 -149.5q-225 0 -362.5 103.5t-137.5 254.5z" />
<glyph unicode="6" d="M57 600q0 248 98.5 442t274 301t397.5 107q202 0 329.5 -92t127.5 -228q0 -83 -49.5 -133.5t-128.5 -50.5q-72 0 -118 49t-46 125q0 50 22 88t70 72q-78 55 -178 55q-341 0 -393 -590q87 84 165 122t173 38q196 0 321 -115t125 -294q0 -233 -168 -373.5t-442 -140.5 q-279 0 -429.5 159.5t-150.5 458.5zM440 401q0 -154 45 -228.5t140 -74.5q105 0 168 107.5t63 288.5q0 115 -45.5 176t-126.5 61q-54 0 -107.5 -30.5t-123.5 -96.5q-13 -114 -13 -203z" />
<glyph unicode="7" d="M160 952q76 265 135 506l90 -12l-37 -180q50 107 72 134q36 44 106 48h19q90 0 282.5 -28.5t290.5 -28.5q58 0 95.5 14t62.5 49l94 -41q-44 -102 -107.5 -217t-122 -212t-116 -199t-105 -213.5t-73.5 -219.5q-15 -63 -24.5 -132t-13 -110.5t-9.5 -78t-20 -52.5t-40 -16 q-24 0 -75 35l-154 108q-61 43 -61 99q0 171 368 581q124 137 197 233.5t116 199.5q-48 -56 -68 -76t-52 -35.5t-74 -15.5q-59 0 -203 19t-225 19q-91 0 -143.5 -48.5t-110.5 -180.5z" />
<glyph unicode="8" d="M39 358q0 142 96.5 231.5t286.5 121.5q-114 34 -175 112t-61 191q0 195 148.5 315.5t406.5 120.5q238 0 374 -97t136 -249q0 -123 -74 -199.5t-233 -122.5q136 -59 199 -144t63 -210q0 -202 -168.5 -325t-462.5 -123q-252 0 -394 103t-142 275zM385 356q0 -117 62 -187.5 t161 -70.5q92 0 153.5 64.5t61.5 161.5q0 208 -268 299q-84 -52 -127 -120.5t-43 -146.5zM539 1116q0 -93 69.5 -159t206.5 -99q119 131 119 272q0 93 -48.5 148t-133.5 55q-95 0 -154 -60t-59 -157z" />
<glyph unicode="9" d="M39 301q0 83 49.5 133.5t128.5 50.5q73 0 118.5 -48.5t45.5 -123.5q0 -92 -90 -155q79 -58 178 -58q170 0 262 139.5t133 440.5q-126 -172 -336 -172q-184 0 -298.5 110.5t-114.5 299.5q0 236 166.5 384t439.5 148q257 0 403 -157t146 -429q0 -188 -57.5 -352.5 t-158 -280.5t-242 -182.5t-304.5 -66.5q-212 0 -340.5 91t-128.5 228zM481 926q0 -226 176 -226q96 0 217 127q17 150 17 236q0 139 -42.5 203.5t-135.5 64.5q-107 0 -169.5 -107.5t-62.5 -297.5z" />
<glyph unicode=":" horiz-adv-x="724" d="M106 182q0 79 56 137t137 58t138 -57.5t57 -137.5q0 -81 -58 -137.5t-137 -56.5q-78 0 -135.5 57.5t-57.5 136.5zM193 772q0 79 56.5 137t137.5 58t138 -57.5t57 -137.5q0 -81 -58 -136.5t-137 -55.5q-80 0 -137 56.5t-57 135.5z" />
<glyph unicode=";" horiz-adv-x="724" d="M16 -281q137 40 214 109t77 127q0 6 -1 10t-3.5 6.5t-5 4t-9 3t-11.5 2l-15 1.5t-18 2q-156 21 -156 176q0 93 57 155t146 62q100 0 159.5 -66.5t59.5 -181.5q0 -177 -122.5 -309t-336.5 -176zM193 772q0 79 56.5 137t137.5 58t138 -57.5t57 -137.5q0 -81 -58 -136.5 t-137 -55.5q-80 0 -137 56.5t-57 135.5z" />
<glyph unicode="&#x3c;" horiz-adv-x="1705" d="M264 494v233l1178 487v-253l-854 -351l854 -348v-254z" />
<glyph unicode="=" horiz-adv-x="1705" d="M254 272v230h1198v-230h-1198zM254 719v231h1198v-231h-1198z" />
<glyph unicode="&#x3e;" horiz-adv-x="1705" d="M264 8v254l854 348l-854 351v253l1178 -487v-233z" />
<glyph unicode="?" horiz-adv-x="1071" d="M104 1118q0 157 131 264t351 107q200 0 317 -100.5t117 -272.5q0 -65 -16 -120t-39 -94t-67 -81.5t-81.5 -70.5t-101.5 -72q-69 -46 -107.5 -89.5t-60.5 -121.5l-115 22q3 51 12 93.5t28.5 86t28.5 61t36 63.5q36 62 54.5 98.5t36 100t17.5 130.5q0 120 -46 182t-134 62 q-58 0 -103.5 -34t-50.5 -79q133 -49 133 -166q0 -73 -48 -121t-120 -48q-79 0 -125.5 53.5t-46.5 146.5zM256 182q0 79 56 137t137 58t137.5 -57.5t56.5 -137.5q0 -81 -57.5 -137.5t-136.5 -56.5q-78 0 -135.5 57.5t-57.5 136.5z" />
<glyph unicode="@" horiz-adv-x="2019" d="M129 539q0 202 87.5 380.5t252.5 313.5q275 227 653 227q350 0 560 -190t210 -504q0 -336 -231 -541q-120 -108 -268 -108q-97 0 -156.5 52t-65.5 144q-122 -192 -278 -192t-241 90.5t-85 255.5q0 238 197 420q141 129 317 129q190 0 217 -176l48 157h208l-174 -624 q-14 -58 -14 -88q0 -45 19.5 -72t50.5 -27q28 0 82 26.5t104 70.5q97 88 148 212t51 273q0 244 -135 391q-98 109 -235 166t-300 57q-282 0 -498 -157q-166 -120 -255 -303t-89 -404q0 -336 205 -531.5t557 -195.5q167 0 319 51t312 156l41 -57q-306 -228 -672 -228 q-288 0 -502 103t-327 289.5t-113 433.5zM801 352q0 -72 33 -113.5t86 -41.5q119 0 223 241q46 106 69 204.5t23 160.5q0 67 -28 103t-79 36q-62 0 -111.5 -45t-96.5 -139q-119 -235 -119 -406z" />
<glyph unicode="A" horiz-adv-x="1355" d="M-141 0v109q45 0 76.5 12t59.5 44t46.5 64t50.5 97l455 927q83 89 141 211l289 33l197 -1190q5 -31 7 -43.5t7 -35.5t8 -31l9 -24t12 -21t16 -14.5t21 -12.5t27 -7.5t34 -6t41 -2.5v-109q-283 10 -355 10q-122 0 -389 -10v109q93 5 122.5 24t29.5 82q0 29 -8 78l-29 201 h-420l-106 -220q-29 -60 -29 -94q0 -44 26.5 -56.5t108.5 -14.5v-109q-167 10 -225 10q-60 0 -223 -10zM362 612h351l-78 568z" />
<glyph unicode="B" horiz-adv-x="1517" d="M4 0v109q84 3 111.5 29.5t38.5 101.5l151 952q12 86 12 100q0 38 -29.5 52t-101.5 16v110q242 -4 303 -4q116 0 262.5 4t174.5 5q473 0 473 -338q0 -175 -119.5 -281t-331.5 -115q197 -13 304.5 -108.5t107.5 -253.5q0 -188 -125 -287.5t-365 -99.5q-51 0 -222 5t-290 5 q-200 0 -354 -2zM543 115l52.5 -3.5t55.5 -2.5q154 0 221.5 76t67.5 272q0 115 -52.5 165t-170.5 50h-86zM653 807q70 -4 88 -4q129 0 191.5 87t62.5 269q0 103 -42.5 152t-131.5 49q-45 0 -82 -4z" />
<glyph unicode="C" horiz-adv-x="1507" d="M61 649q0 180 65 336.5t178 267t271 173.5t338 63q277 0 453 -176l37 86l104 -4q-33 -153 -82 -459h-112q2 33 2 84q0 153 -81.5 242.5t-215.5 89.5q-222 0 -355 -197t-133 -534q0 -243 94.5 -371.5t264.5 -128.5q123 0 228 78t173 225l101 -55q-94 -198 -251 -293.5 t-386 -95.5q-322 0 -507.5 179.5t-185.5 489.5z" />
<glyph unicode="D" horiz-adv-x="1716" d="M4 0v109q84 3 111.5 29.5t38.5 101.5l151 952q12 86 12 100q0 38 -29.5 52t-101.5 16v110q232 -10 322 -10q57 0 192 5t215 5q361 0 549.5 -167t188.5 -486q0 -176 -63 -338t-169 -268q-113 -113 -260.5 -162t-353.5 -49q-61 0 -223.5 5t-264.5 5q-130 0 -315 -10z M553 129q75 -10 145 -10q149 0 229.5 40t137.5 142q59 104 98 267t39 333q0 228 -87 339.5t-265 111.5q-40 0 -105 -6z" />
<glyph unicode="E" horiz-adv-x="1536" d="M-10 0v109q64 0 96.5 13t45.5 38.5t22 79.5l151 952q12 86 12 100q0 38 -29.5 52t-101.5 16v110h1213v-124q0 -120 4 -304h-119v58q0 77 -15 126.5t-49 77t-81 38t-121 10.5h-273l-83 -533h77q64 0 102 7t68 29t46 61.5t28 107.5h109q-57 -287 -80 -563h-109q8 63 8 110 q0 82 -34.5 106.5t-143.5 24.5h-90l-92 -583h252q66 0 96.5 0.5t79.5 4.5t71.5 12.5t56.5 24.5t51.5 40t40 59.5t39 83.5t32.5 111h119q-60 -251 -97 -455h-1302z" />
<glyph unicode="F" horiz-adv-x="1374" d="M-10 0v109q64 0 96.5 13t45.5 38.5t22 79.5l151 952q12 86 12 100q0 38 -29.5 52t-101.5 16v110h1166v-124q0 -120 4 -304h-119v58q0 77 -15 126.5t-49 77t-81 38t-121 10.5h-226l-83 -541h77q65 0 102 6.5t67.5 28.5t46.5 61t28 107h109q-57 -287 -80 -563h-109 q8 63 8 112q0 82 -34.5 105.5t-143.5 23.5h-90l-68 -416q-10 -71 -10 -98q0 -41 33.5 -55t118.5 -14h26v-109q-270 10 -393 10q-73 0 -360 -10z" />
<glyph unicode="G" horiz-adv-x="1611" d="M61 645q0 181 63.5 338t175.5 268t269.5 174.5t339.5 63.5q281 0 451 -176l37 86l106 -4q-33 -153 -82 -459h-114q4 66 4 84q0 151 -82.5 241.5t-216.5 90.5q-223 0 -359.5 -211t-136.5 -566q0 -242 70.5 -361.5t214.5 -119.5q109 0 209 86l24 156q6 43 6 67 q0 47 -30.5 58.5t-128.5 11.5v111q259 -11 356 -11q67 0 336 11v-111q-51 -2 -78 -8t-44.5 -26t-23.5 -45.5t-14 -80.5l-43 -313h-110l-15 104q-210 -122 -475 -122q-341 0 -525 174.5t-184 488.5z" />
<glyph unicode="H" horiz-adv-x="1763" d="M4 0v109q84 3 111.5 29.5t38.5 101.5l151 952q12 86 12 100q0 38 -29.5 52t-101.5 16v110q242 -10 361 -10q120 0 362 10v-110q-56 -2 -86.5 -7t-51 -22t-29 -41t-15.5 -71l-63 -396h464l60 369q10 71 10 100q0 38 -28.5 52t-100.5 16v110q232 -10 346 -10q112 0 344 10 v-110q-85 -3 -111.5 -29t-37.5 -102l-152 -953q-12 -86 -12 -98q0 -38 29.5 -52.5t101.5 -16.5v-109q-267 10 -360 10q-96 0 -363 -10v109q56 2 86.5 7.5t51 23t29 41.5t15.5 71l72 453h-465l-68 -429q-10 -71 -10 -98q0 -39 29 -53t100 -16v-109q-257 10 -344 10 q-93 0 -346 -10z" />
<glyph unicode="I" horiz-adv-x="882" d="M-27 0v109q73 2 108 14.5t50 40t25 88.5l149 940q12 86 12 100q0 41 -31.5 53.5t-113.5 14.5v110q257 -10 375 -10q120 0 362 10v-110q-56 -2 -86.5 -7t-51 -22t-29 -41t-15.5 -71l-152 -943q-10 -62 -10 -98q0 -42 33 -54t127 -15v-109q-277 10 -375 10q-97 0 -377 -10z " />
<glyph unicode="J" horiz-adv-x="1185" d="M-166 43q0 85 52.5 137.5t133.5 52.5q89 0 149 -67t60 -170q0 -45 -18 -119q30 -10 51 -10q79 0 121 81.5t70 258.5l155 985q13 93 13 100q0 36 -23 49q-35 21 -133 21q-7 0 -23 -1t-24 -1v110q297 -10 409 -10q99 0 396 10v-110q-80 -2 -115.5 -13t-52 -38t-25.5 -90 l-141 -897q-44 -284 -215 -434t-438 -150q-181 0 -291.5 87.5t-110.5 217.5z" />
<glyph unicode="K" horiz-adv-x="1583" d="M-27 0v109q73 2 108 14.5t50 40t25 88.5l149 940q12 86 12 100q0 38 -29.5 52t-101.5 16v110q242 -10 357 -10q108 0 346 10v-110q-97 -6 -125.5 -31t-42.5 -110l-78 -492q508 499 508 582q0 48 -104 51v110q184 -8 243 -8q48 0 240 8v-110q-6 2 -19 2q-24 0 -49.5 -9 t-56.5 -32.5t-58 -47.5t-70.5 -70t-76.5 -82t-92.5 -102.5t-103.5 -113.5q63 -87 121.5 -173t98.5 -148.5t80.5 -130t60.5 -103t46.5 -82.5t30.5 -55q36 -61 75.5 -82.5t116.5 -21.5v-109q-267 6 -385 6q-120 0 -372 -6v109q70 0 96 10t26 45q0 62 -186 354q-4 7 -7 11.5 t-7 11t-8 12.5l-58 94l-119 -102l-43 -269q-12 -66 -12 -98q0 -42 33 -54t127 -15v-109q-283 10 -375 10q-98 0 -371 -10z" />
<glyph unicode="L" horiz-adv-x="1384" d="M-10 0v109q64 0 96.5 13t45.5 38.5t22 79.5l151 952q12 86 12 100q0 38 -29.5 52t-101.5 16v110q242 -10 361 -10q120 0 362 10v-110q-56 -2 -86.5 -7t-51 -22t-29 -41t-15.5 -71l-174 -1100h242q111 0 174 11t110 50q51 43 81.5 112.5t53.5 180.5h117q-17 -78 -94 -473 h-1247z" />
<glyph unicode="M" horiz-adv-x="1982" d="M-57 0v109q58 2 90.5 8t51 26.5t25 40.5t15.5 68l180 940q12 61 12 100q0 38 -29.5 52t-101.5 16v110q205 -10 308 -10q105 0 290 10l177 -909l460 909q160 -10 273 -10q87 0 315 10v-110q-56 -2 -86.5 -7t-51 -22t-29 -41t-15.5 -71l-150 -943q-12 -74 -12 -98 q0 -42 33 -54t127 -15v-109q-273 10 -371 10q-95 0 -375 -10v109q73 2 108 14.5t50 40t25 88.5l149 944l-567 -1139l-189 -34l-227 1165l-180 -912q-10 -51 -10 -98q0 -18 6.5 -30t16.5 -19.5t33 -11.5t43.5 -5.5t59.5 -2.5v-109q-170 10 -227 10q-60 0 -227 -10z" />
<glyph unicode="N" horiz-adv-x="1640" d="M-27 0v109q73 2 108 14.5t50 40t25 88.5l149 940q12 86 12 100q0 40 -34 54t-115 14h-31v110q177 -10 283 -10q61 0 231 10l602 -1030l117 752q12 90 12 94q0 47 -31.5 59t-127.5 15v110q150 -10 227 -10q70 0 227 10v-110q-56 -2 -86.5 -7t-51 -22t-29 -41t-15.5 -71 l-192 -1207l-269 -22l-628 1089l-127 -803q-11 -68 -11 -98q0 -42 33 -54t127 -15v-109q-170 10 -229 10t-226 -10z" />
<glyph unicode="O" horiz-adv-x="1658" d="M61 657q0 300 177 517q121 150 295.5 232.5t375.5 82.5q200 0 356.5 -85t244 -239t87.5 -352q0 -297 -178 -518q-121 -148 -295.5 -230.5t-373.5 -82.5q-151 0 -279.5 49.5t-218.5 137.5t-140.5 213.5t-50.5 274.5zM508 498q0 -202 56 -300t175 -98q163 0 269 195 q62 113 103.5 301.5t41.5 404.5q0 369 -231 369q-164 0 -269 -194q-61 -111 -103 -296.5t-42 -381.5z" />
<glyph unicode="P" horiz-adv-x="1488" d="M-10 0v109q64 0 96.5 13t45.5 38.5t22 79.5l151 952q12 86 12 100q0 38 -29.5 52t-101.5 16v110q238 -4 299 -4q53 0 185 3.5t211 3.5q288 0 432.5 -106t144.5 -314q0 -223 -158.5 -337t-474.5 -114q-95 0 -194 8l-56 -334q-10 -59 -10 -98q0 -41 33.5 -55t118.5 -14h26 v-109q-270 10 -393 10q-73 0 -360 -10zM651 737q70 -4 80 -4q149 0 220 91t71 290q0 132 -54 193t-171 61q-7 0 -23 1t-24 1z" />
<glyph unicode="Q" horiz-adv-x="1658" d="M63 657q0 160 54.5 304t158.5 258q120 131 282.5 200.5t350.5 69.5q200 0 356 -83.5t243 -238.5t87 -358q0 -224 -96.5 -403.5t-273.5 -288.5q25 -98 72 -142.5t128 -44.5q74 0 168 56v-103q-81 -69 -173 -105t-177 -36q-126 0 -216 69t-118 189q-99 -18 -182 -18 q-189 0 -340 84.5t-237.5 239t-86.5 351.5zM500 520q0 -80 18 -151q159 116 301 116q147 0 238 -102q108 252 108 596q0 198 -59 294.5t-180 96.5q-217 0 -336 -330q-90 -249 -90 -520zM565 256q23 -73 75 -112.5t120 -39.5q64 0 131 27q-12 80 -57 125t-109 45 q-77 0 -160 -45z" />
<glyph unicode="R" horiz-adv-x="1583" d="M-6 0v109q64 0 96.5 13t45.5 38.5t22 79.5l151 952q10 71 10 100q0 38 -28.5 52t-100.5 16v110q209 -6 324 -6q106 0 265.5 6t213.5 7q238 0 360 -92.5t122 -266.5q0 -177 -127.5 -272.5t-376.5 -102.5q168 -38 253 -113t85 -198q0 -41 -8.5 -102t-8.5 -82 q0 -42 16.5 -65t45.5 -23q70 0 143 129l90 -62q-67 -121 -175 -185.5t-243 -64.5q-132 0 -207 68.5t-75 183.5q0 37 14 129t14 144q0 107 -57 146.5t-207 39.5h-14l-66 -412q-12 -71 -12 -98q0 -40 31 -53.5t110 -15.5v-109q-267 10 -356 10q-93 0 -350 -10zM653 809 q55 -6 90 -6q141 0 219 86t78 237q0 123 -59 182.5t-180 59.5h-56z" />
<glyph unicode="S" horiz-adv-x="1290" d="M33 23q58 266 73 532h119q-6 -59 -6 -100q0 -157 92.5 -257t231.5 -100q104 0 166.5 56.5t62.5 152.5q0 37 -12 68.5t-31 56t-54 51t-68.5 47.5t-86.5 52q-27 16 -41 24q-177 106 -259.5 199t-82.5 215q0 205 147 337t384 132q230 0 424 -141l36 79h107 q-49 -221 -70 -450h-118v6q0 185 -85.5 287t-230.5 102q-95 0 -155 -51t-60 -133q0 -28 6 -51t23 -45t31.5 -37.5t48 -37.5t54.5 -35t69 -41t75 -44q183 -109 267 -211t84 -240q0 -213 -154 -338.5t-428 -125.5q-233 0 -420 131l-22 -90h-117z" />
<glyph unicode="T" horiz-adv-x="1507" d="M61 1071q52 188 107 408q175 -9 262 -9h911q101 0 215 9q-4 -160 -4 -451h-100v31q0 163 -57.5 232t-200.5 69h-139l-168 -1061q-15 -89 -15 -113q0 -77 150 -77h37v-109q-297 10 -434 10q-54 0 -371 -10v109h31q97 0 131 29.5t45 105.5l178 1116h-115q-160 0 -241 -62 t-123 -227h-99z" />
<glyph unicode="U" horiz-adv-x="1640" d="M184 389q0 31 4.5 67.5t14.5 93t14 83.5l88 559q12 82 12 100q0 38 -29.5 52t-101.5 16v110q242 -10 361 -10q120 0 362 10v-110q-56 -2 -86.5 -7t-51 -22t-29 -41t-15.5 -71l-96 -598q-27 -179 -27 -236q0 -268 270 -268q214 0 316 172q13 21 23.5 44.5t19.5 55t15 53 t14 66t11.5 65t12.5 78t12 78.5l72 463q12 90 12 94q0 47 -31.5 59t-127.5 15v110q150 -10 227 -10q70 0 227 10v-110q-56 -2 -86.5 -7t-51 -22t-29 -41t-15.5 -71l-113 -701q-45 -284 -197.5 -410t-461.5 -126q-539 0 -539 407z" />
<glyph unicode="V" horiz-adv-x="1421" d="M27 1360v110q253 -10 366 -10q116 0 369 10v-110q-77 0 -109 -18t-32 -64q0 -18 12 -84l164 -848l360 780q53 111 53 164q0 43 -27 54t-110 16h-6v110q157 -10 217 -10q62 0 225 10v-110q-74 -4 -108.5 -41t-83.5 -143l-557 -1170l-279 -24l-276 1228q-11 50 -18 70.5 t-25.5 41.5t-49 28t-85.5 10z" />
<glyph unicode="W" horiz-adv-x="2332" d="M27 1360v110q253 -10 366 -10q116 0 369 10v-110q-77 0 -109 -18t-32 -64q0 -18 12 -84l164 -848l362 791l-16 73q-7 32 -11 48t-12.5 36t-19 29t-28 18.5t-42 13t-59.5 5.5v110q253 -10 364 -10q116 0 369 10v-110q-75 0 -107 -17t-32 -65v-10q0 -6 10 -74l131 -848 l362 780q54 114 54 164q0 43 -28 54t-111 16h-7v110q157 -10 217 -10q63 0 226 10v-110q-74 -4 -109 -41t-84 -143l-557 -1170l-276 -24l-197 956l-436 -932l-279 -24l-276 1228q-11 50 -18 70.5t-25.5 41.5t-49 28t-85.5 10z" />
<glyph unicode="X" horiz-adv-x="1470" d="M-37 0v109q19 1 35 3t32 9t27 10.5t27 16.5t23 17.5t24 22.5t22 23t25 28.5t25 28.5l352 391l-219 498q-50 113 -96.5 158t-135.5 45v110q287 -10 379 -10q106 0 389 10v-110h-20q-69 0 -100 -12.5t-31 -42.5t24 -86l115 -246l230 254q24 28 34.5 45t10.5 37 q0 26 -24.5 40.5t-68.5 14.5q-4 0 -13 -1t-13 -1v108q150 -10 225 -10q70 0 227 10v-110q-36 -1 -66 -11.5t-64 -37.5t-56.5 -49t-67.5 -70l-301 -326l263 -553q9 -20 24.5 -54t22.5 -47.5t20.5 -35.5t25 -30.5t31 -19t43.5 -14t56 -3.5v-109q-293 10 -367 10 q-128 0 -405 -10v109q68 0 99.5 12.5t31.5 42.5t-25 88l-131 299l-252 -309q-12 -15 -17 -22t-9.5 -19.5t-4.5 -26.5q0 -56 109 -65v-109q-177 10 -233 10q-62 0 -232 -10z" />
<glyph unicode="Y" horiz-adv-x="1327" d="M-37 1360v110q263 -10 359 -10q131 0 391 10v-110q-64 -5 -90.5 -16.5t-26.5 -40.5q0 -24 25 -82l202 -449l264 453q27 49 27 80t-29.5 42t-99.5 13v110q153 -10 209 -10q77 0 227 10l4 -110q-38 -3 -64 -12t-49.5 -33t-36 -41t-40.5 -62l-344 -542l-62 -394 q-12 -74 -12 -98q0 -42 33 -54t127 -15v-109q-277 10 -375 10q-97 0 -377 -10v109q73 2 108 14.5t50 40t25 88.5l55 352l-281 592q-27 57 -49.5 86.5t-63.5 50.5t-106 27z" />
<glyph unicode="Z" horiz-adv-x="1478" d="M-14 0l888 1352h-198q-46 0 -73 -0.5t-64 -2.5t-58.5 -6t-50.5 -11t-45.5 -18t-37.5 -27t-34 -37t-26.5 -48.5t-23 -62t-17.5 -76.5h-109q35 232 41 426q162 -19 352 -19h895l-888 -1351h315q104 0 171.5 14.5t117.5 53.5t79 103.5t48 168.5h108q-32 -159 -78 -473 q-246 14 -368 14h-944z" />
<glyph unicode="[" horiz-adv-x="901" d="M111 -432l333 1939q93 -24 197 -24q145 0 283 30l-21 -110q-92 -27 -209 -27h-30l-293 -1677h14q71 0 203 -27l-19 -110q-126 30 -260 30q-99 0 -198 -24z" />
<glyph unicode="\" horiz-adv-x="749" d="M84 1489h172l453 -1679h-170z" />
<glyph unicode="]" horiz-adv-x="901" d="M-109 -438l21 110q94 27 201 27h41l290 1677h-14q-71 0 -203 27l19 110q123 -30 260 -30q103 0 199 24l-334 -1939q-91 24 -197 24q-145 0 -283 -30z" />
<glyph unicode="^" horiz-adv-x="2048" d="M412 897l481 565h260l479 -565h-121l-489 348l-490 -348h-120z" />
<glyph unicode="_" horiz-adv-x="1024" d="M0 -244h1024v-239h-1024v239z" />
<glyph unicode="`" horiz-adv-x="1024" d="M352 1417q0 47 29 77t74 30q65 0 123 -76l247 -318h-120l-275 179q-78 54 -78 108z" />
<glyph unicode="a" horiz-adv-x="1331" d="M6 303q0 122 47 248t135 233q92 113 205.5 174.5t218.5 61.5q169 0 230 -125l45 125h332l-181 -746q-14 -58 -14 -63q0 -59 47 -59q35 0 73.5 39t72.5 114l71 -37q-74 -150 -167.5 -218t-227.5 -68q-101 0 -154 44.5t-53 127.5q0 34 10 96q-82 -130 -193 -199t-229 -69 q-121 0 -194.5 86t-73.5 235zM397 338q0 -75 21.5 -110t68.5 -35q56 0 131.5 85t108.5 214l68 270q-9 147 -115 147q-55 0 -99.5 -44.5t-86.5 -137.5q-47 -104 -72 -208.5t-25 -180.5z" />
<glyph unicode="b" horiz-adv-x="1261" d="M-37 27q71 102 98 247l185 955q14 69 14 114q0 47 -21.5 58.5t-94.5 14.5q-19 0 -29 1l20 94q184 -4 217 -4q79 0 310 15l-156 -774q67 132 168 204t211 72q149 0 230 -90t81 -256q0 -262 -170 -463q-101 -120 -220 -176.5t-267 -56.5q-132 0 -267 69l-229 -57zM401 166 q0 -38 25 -59t68 -21q70 0 121 55.5t108 182.5q52 113 78 218t26 177q0 62 -18 90.5t-59 28.5q-68 0 -142.5 -96.5t-148.5 -286.5l-53 -252q-5 -20 -5 -37z" />
<glyph unicode="c" horiz-adv-x="1157" d="M29 401q0 125 51 238.5t140 197.5t217 133.5t274 49.5q179 0 287 -81t108 -198q0 -87 -45 -138.5t-117 -51.5q-69 0 -111 43.5t-42 112.5q0 39 9 87t9 58q0 26 -26 42.5t-70 16.5q-119 0 -204 -145.5t-85 -370.5q0 -145 64.5 -222t179.5 -77q89 0 175 59t142 162l74 -53 q-72 -136 -202 -209t-302 -73q-257 0 -391.5 108.5t-134.5 310.5z" />
<glyph unicode="d" horiz-adv-x="1331" d="M6 299q0 118 43 241t125 228q176 231 395 231q92 0 149.5 -35t98.5 -118l86 383q17 72 17 112q0 49 -21.5 60.5t-94.5 14.5q-18 0 -28 1l19 94q184 -4 219 -4q102 0 321 15l-278 -1248q-3 -17 -7 -32t-6 -22t-2 -9q0 -59 48 -59q35 0 73 39t72 114l72 -37 q-74 -150 -167.5 -218t-228.5 -68q-101 0 -153.5 44t-52.5 128q0 34 10 96q-83 -130 -194 -199t-228 -69q-135 0 -211 83.5t-76 233.5zM391 328q0 -68 25 -106t71 -38q64 0 140 82.5t104 202.5l55 244q-10 59 -43 92t-77 33q-110 0 -183 -140q-41 -78 -66.5 -179.5 t-25.5 -190.5z" />
<glyph unicode="e" horiz-adv-x="1132" d="M27 399q0 126 50.5 239.5t140 198t222.5 134t289 49.5q169 0 260.5 -59.5t91.5 -161.5q0 -151 -159.5 -235.5t-462.5 -84.5h-21q-16 -99 -16 -174q0 -194 158 -194q94 0 181 59t148 166l74 -51q-82 -148 -211.5 -226.5t-290.5 -78.5q-203 0 -328.5 115.5t-125.5 303.5z M455 578q295 12 295 229q0 47 -25 74.5t-66 27.5q-77 0 -125.5 -80.5t-78.5 -250.5z" />
<glyph unicode="f" horiz-adv-x="833" d="M-49 -436q82 202 129.5 413.5t93.5 503.5l49 318h-198l18 110h197q23 291 180.5 454t400.5 163q151 0 237.5 -68t86.5 -178q0 -76 -45 -124t-117 -48t-116 44.5t-44 119.5q0 33 11.5 69t11.5 41q0 16 -14.5 26.5t-38.5 10.5q-21 0 -38.5 -7t-32 -24.5t-26 -38 t-22.5 -56.5t-19 -70t-17 -88.5t-15.5 -103.5t-16.5 -122h262l-20 -110h-260l-56 -350q-43 -272 -80.5 -452t-93.5 -333z" />
<glyph unicode="g" horiz-adv-x="1222" d="M-78 -217q0 71 47.5 119.5t116.5 48.5q63 0 102 -41.5t39 -106.5q0 -29 -14 -72t-14 -57q0 -57 114 -57q127 0 203.5 143t134.5 455q-149 -192 -358 -192q-134 0 -207.5 87.5t-73.5 245.5q0 115 41.5 240t110.5 219q72 99 169.5 152t207.5 53q142 0 225 -117l29 96h354 q-45 -221 -87.5 -482t-69 -404.5t-56.5 -216.5q-70 -173 -234 -276t-385 -103q-183 0 -289 76.5t-106 189.5zM389 381q0 -164 90 -164q67 0 127.5 74.5t87.5 222.5l45 246q-18 119 -112 119q-59 0 -114 -67.5t-89.5 -184t-34.5 -246.5z" />
<glyph unicode="h" horiz-adv-x="1341" d="M25 0l249 1229q15 66 15 110q0 27 -4 42t-25 23t-35 9t-62 3q-13 1 -20 1l19 94q184 -4 219 -4q78 0 309 15l-178 -832q103 156 211 232.5t227 76.5q104 0 166 -59.5t62 -159.5q0 -60 -23 -139l-111 -367q-16 -56 -16 -86q0 -24 14.5 -39.5t36.5 -15.5q34 0 78 45.5 t82 126.5l72 -37q-75 -151 -168 -218.5t-228 -67.5q-118 0 -188 56.5t-70 154.5q0 34 19 102l112 381q21 70 21 102q0 45 -35 45q-27 0 -72 -35.5t-91.5 -93t-89 -142.5t-62.5 -173l-84 -379h-350z" />
<glyph unicode="i" horiz-adv-x="792" d="M-23 743q148 256 390 256q127 0 195.5 -56.5t68.5 -162.5q0 -60 -23 -139l-108 -367q-19 -67 -19 -86q0 -24 14.5 -39.5t36.5 -15.5q34 0 78 45.5t82 126.5l72 -37q-75 -152 -167 -219t-226 -67q-118 0 -189 57t-71 154q0 37 18 102l129 434q6 18 6 55q0 32 -14.5 51 t-36.5 19q-71 0 -170 -156zM283 1313q0 94 57.5 157.5t144.5 63.5q83 0 137 -47.5t54 -122.5q0 -93 -76 -162t-170 -69q-62 0 -104.5 52t-42.5 128z" />
<glyph unicode="j" horiz-adv-x="786" d="M-391 -248q0 70 47 118t115 48t111.5 -51.5t43.5 -132.5q0 -36 -12 -92q22 -19 49 -19q54 0 80.5 66.5t70.5 265.5l9 39l168 743q4 12 4 47q0 68 -53 68q-76 0 -166 -154l-68 45q148 256 391 256q121 0 188.5 -57t67.5 -160q0 -47 -20 -141l-133 -604q-23 -107 -56 -182 t-100 -144q-89 -92 -204 -144t-224 -52q-133 0 -221 70.5t-88 166.5zM279 1307q0 100 57.5 163.5t146.5 63.5q83 0 137 -47.5t54 -122.5q0 -93 -76 -162t-170 -69q-61 0 -105 52t-44 122z" />
<glyph unicode="k" horiz-adv-x="1331" d="M14 0l252 1229q13 57 13 110q0 28 -4 42.5t-24.5 22.5t-34 9t-61.5 3q-5 0 -7 0.5t-6 0.5h-7l19 94q184 -4 217 -4q78 0 309 15l-184 -920q122 215 247.5 316.5t280.5 101.5q80 0 125 -42t45 -112q0 -112 -121.5 -218.5t-339.5 -168.5q142 -11 198.5 -37.5t82.5 -107.5 q9 -28 14 -70t8 -68.5t18 -46.5t44 -20q37 0 68.5 39.5t66.5 122.5l72 -37q-60 -141 -145 -207.5t-208 -66.5q-272 0 -272 262q0 24 3 66t3 61q0 40 -19.5 64t-56.5 28l23 69q123 27 189.5 87t66.5 135q0 71 -64 71q-63 0 -155 -108q-91 -108 -159.5 -244.5t-84.5 -212.5 l-53 -258h-359z" />
<glyph unicode="l" horiz-adv-x="753" d="M84 193q0 48 12 102l199 934q14 61 14 110q0 52 -22 63t-102 14q-12 1 -19 1l18 94q113 -4 219 -4q86 0 320 15l-266 -1248q-15 -69 -15 -86q0 -26 15 -40.5t37 -14.5q34 0 78.5 45.5t82.5 126.5l72 -37q-74 -149 -165.5 -217.5t-219.5 -68.5q-118 0 -188 56.5t-70 154.5 z" />
<glyph unicode="m" horiz-adv-x="2023" d="M-23 743q77 131 175.5 193.5t228.5 62.5q102 0 159.5 -43.5t57.5 -117.5q0 -14 -1.5 -29.5t-5.5 -36.5t-7.5 -36t-10.5 -45.5t-10 -45.5q216 354 467 354q92 0 143.5 -42t51.5 -117q0 -54 -29 -152q108 160 214 235.5t226 75.5q104 0 166 -59.5t62 -159.5q0 -60 -23 -139 l-108 -367q-19 -67 -19 -86q0 -24 14.5 -39.5t36.5 -15.5q34 0 78 45.5t82 126.5l72 -37q-75 -151 -167.5 -218.5t-227.5 -67.5q-118 0 -188.5 56.5t-70.5 154.5q0 34 19 102l113 381q20 66 20 102q0 45 -33 45q-28 0 -72.5 -35.5t-92 -93t-90 -142.5t-62.5 -173l-84 -379 h-369l176 676q21 82 21 102q0 45 -35 45q-27 0 -72 -35.5t-91.5 -93t-89 -142.5t-62.5 -173l-84 -379h-369l164 739q8 39 8 52q0 63 -45 63q-35 0 -80.5 -40.5t-89.5 -115.5z" />
<glyph unicode="n" horiz-adv-x="1417" d="M-23 743q77 131 175.5 193.5t228.5 62.5q102 0 159.5 -43.5t57.5 -117.5q0 -14 -1.5 -29.5t-5.5 -36.5t-7.5 -36t-10.5 -45.5t-10 -45.5q216 354 467 354q104 0 165.5 -59.5t61.5 -159.5q0 -63 -22 -139l-111 -367q-18 -63 -18 -86q0 -24 14.5 -39.5t36.5 -15.5 q34 0 79 45.5t83 126.5l72 -37q-75 -151 -168 -218.5t-228 -67.5q-118 0 -188 56.5t-70 154.5q0 34 19 102l112 381q21 70 21 102q0 45 -35 45q-27 0 -72 -35.5t-91.5 -93t-89 -142.5t-62.5 -173l-84 -379h-369l164 739q8 39 8 52q0 63 -45 63q-35 0 -80.5 -40.5 t-89.5 -115.5z" />
<glyph unicode="o" horiz-adv-x="1247" d="M33 432q0 158 83.5 292t235 215t338.5 81q214 0 347.5 -125.5t133.5 -323.5q0 -254 -185 -421.5t-474 -167.5q-211 0 -345 124.5t-134 325.5zM408 260q0 -174 118 -174q109 0 179 190q45 121 68.5 246.5t23.5 216.5q0 176 -109 176q-112 0 -186 -192q-48 -124 -71 -248 t-23 -215z" />
<glyph unicode="p" horiz-adv-x="1341" d="M-125 -483l19 94h28q68 0 87.5 25t34.5 104q2 9 3 14l195 994q8 37 8 69q0 28 -10 39.5t-35 11.5q-28 0 -73.5 -40t-98.5 -117l-64 51q176 258 418 258q205 0 205 -180q0 -30 -19 -123q67 138 168 211t222 73q142 0 223.5 -89t81.5 -244q0 -136 -46.5 -267t-129.5 -231 q-141 -170 -361 -170q-153 0 -244 119l-73 -373q-8 -41 -8 -63q0 -45 33 -57.5t132 -14.5l-18 -94q-278 4 -350 4q-66 0 -328 -4zM506 219q12 -37 43 -58.5t72 -21.5q97 0 165 148q43 94 70 208.5t27 192.5q0 127 -84 127q-115 0 -232 -276z" />
<glyph unicode="q" horiz-adv-x="1222" d="M12 336q0 115 42 242t110 221q149 205 387 205q107 0 187.5 -48t123.5 -137q112 49 205 180h115l-248 -1232q-10 -62 -10 -66q0 -46 25 -65.5t87 -24.5l-18 -94q-156 4 -418 4q-109 0 -254 -4l19 94q100 3 137.5 25.5t54.5 101.5l94 455q-150 -199 -358 -199 q-133 0 -207 90t-74 252zM389 371q0 -82 25.5 -125t72.5 -43q57 0 127 76q26 30 44.5 56.5t28.5 54t14.5 40t9.5 44t6 34.5l49 248q-24 121 -121 121q-63 0 -122 -69t-96.5 -187t-37.5 -250z" />
<glyph unicode="r" horiz-adv-x="1062" d="M-23 743q77 131 175.5 193.5t228.5 62.5q99 0 146.5 -39.5t47.5 -121.5q0 -56 -24 -152q65 151 156 231t188 80q93 0 144 -53t51 -143q0 -89 -50.5 -146t-128.5 -57q-65 0 -106 39t-41 104q0 9 4 28t4 28q0 6 -7.5 11t-16.5 5q-47 0 -105.5 -114.5t-103.5 -319.5 l-84 -379h-369l164 739q8 39 8 52q0 63 -45 63q-35 0 -80.5 -40.5t-89.5 -115.5z" />
<glyph unicode="s" horiz-adv-x="985" d="M-8 227q0 70 44.5 115t115.5 45q57 0 95 -37t38 -94q0 -32 -15.5 -69.5t-15.5 -43.5q0 -26 35.5 -41.5t101.5 -15.5q81 0 123.5 31t42.5 86q0 20 -4 36.5t-17 31t-21.5 23.5t-34 22t-36 18t-47 20t-49.5 21q-121 53 -178 124.5t-57 170.5q0 161 115 255.5t319 94.5 q178 0 281.5 -65.5t103.5 -170.5q0 -63 -41.5 -102t-110.5 -39q-63 0 -101 35.5t-38 89.5q0 46 23 113q-46 34 -113 34q-73 0 -113.5 -30t-40.5 -80q0 -16 4 -29.5t9 -24t18 -21t21.5 -17t29 -16t31 -14.5t37.5 -16t39 -16q142 -61 207 -135.5t65 -185.5q0 -162 -120 -255 t-335 -93q-191 0 -301 68.5t-110 176.5z" />
<glyph unicode="t" horiz-adv-x="843" d="M0 799l20 110h205l74 361h363l-72 -361h254l-19 -110h-260l-108 -525q-13 -63 -13 -81q0 -40 19 -57t63 -17q58 0 105 45t98 143l72 -39q-74 -154 -175 -222.5t-255 -68.5q-138 0 -212.5 56.5t-74.5 159.5q0 46 12 102l105 504h-201z" />
<glyph unicode="u" horiz-adv-x="1417" d="M-23 713q75 151 167.5 218.5t226.5 67.5q118 0 189 -57t71 -154q0 -31 -19 -102l-112 -381q-21 -76 -21 -102q0 -45 37 -45q25 0 69 35t91 92t90.5 143t62.5 174l84 379h369l-164 -739q-10 -42 -10 -58q0 -57 47 -57q34 0 80 40.5t90 115.5l66 -45 q-77 -131 -175.5 -193.5t-228.5 -62.5q-104 0 -160.5 44t-56.5 124q0 41 33 186q-109 -179 -223.5 -266.5t-241.5 -87.5q-104 0 -166.5 59.5t-62.5 159.5q0 53 24 139l109 367q18 63 18 86q0 26 -14.5 40.5t-36.5 14.5q-34 0 -78 -44.5t-82 -125.5z" />
<glyph unicode="v" horiz-adv-x="1165" d="M-61 766q71 115 142 170t150 55q47 0 144 -19.5t143 -19.5q73 0 121 62l80 -19q-88 -288 -129 -453t-41 -253q0 -71 24.5 -105t77.5 -34q67 0 137.5 61t122.5 172q32 70 49 139t17 107q0 11 -21.5 34.5t-47 48.5t-47 66.5t-21.5 85.5q0 56 36.5 93.5t90.5 37.5 q64 0 101.5 -52.5t37.5 -147.5q0 -106 -33.5 -238t-91.5 -244q-82 -157 -208 -244t-255 -87q-157 0 -250.5 83.5t-93.5 229.5q0 100 48.5 197t130.5 185t220 206q-184 -113 -282 -113q-29 0 -78 18.5t-74 18.5q-38 0 -70 -22.5t-69 -71.5z" />
<glyph unicode="w" horiz-adv-x="1734" d="M-61 766q71 115 142 170t150 55q47 0 144 -19.5t143 -19.5q73 0 121 62l80 -19q-172 -545 -172 -739q0 -45 18 -68.5t49 -23.5q81 0 162.5 172.5t155.5 507.5l31 137h317q-50 -212 -72 -309t-40.5 -199t-18.5 -151q0 -78 27.5 -118t78.5 -40q53 0 114 57t112 162 q32 68 48.5 137t16.5 109q0 11 -21.5 34.5t-47 48.5t-47 66.5t-21.5 85.5q0 56 36.5 93.5t90.5 37.5q64 0 100.5 -52t36.5 -148q0 -106 -33.5 -239t-91.5 -245q-83 -156 -208 -243.5t-253 -87.5q-99 0 -158 54t-59 136q0 93 45 262q-94 -239 -191 -345.5t-239 -106.5 q-135 0 -223 87.5t-88 227.5q0 145 95.5 278.5t303.5 309.5q-184 -113 -282 -113q-29 0 -78 18.5t-74 18.5q-38 0 -70 -22.5t-69 -71.5z" />
<glyph unicode="x" horiz-adv-x="1269" d="M-18 96q0 78 49 215h84q-39 -110 -39 -151q0 -18 11.5 -30.5t25.5 -12.5q36 0 126 79t197 224q-7 44 -14 96.5t-11.5 84.5t-10.5 70.5t-10.5 60.5t-11.5 46.5t-14.5 38t-18.5 25t-24 16t-30 4.5q-80 0 -170 -139l-66 47q75 117 188.5 179.5t250.5 62.5q128 0 187.5 -75.5 t80.5 -250.5q182 324 344 324q55 0 86 -35.5t31 -100.5q0 -8 -13 -145h-84q4 45 4 78q0 48 -14 69t-51 21q-52 0 -108 -70.5t-164 -251.5q39 -260 57 -325q27 -95 76 -108q10 -3 22 -3q79 0 168 170l62 -49q-75 -137 -181.5 -208.5t-236.5 -71.5q-122 0 -191 80t-106 259 q-117 -164 -218.5 -248.5t-172.5 -84.5q-43 0 -66.5 29.5t-23.5 80.5z" />
<glyph unicode="y" horiz-adv-x="1318" d="M-23 713q75 151 167.5 218.5t226.5 67.5q118 0 189 -57t71 -154q0 -31 -19 -102l-84 -293q-18 -62 -18 -98q0 -26 8 -37.5t27 -11.5q22 0 59 31t78.5 85t82.5 142t64 186l68 291h365l-164 -739q-75 -341 -180 -480q-184 -245 -539 -245q-180 0 -287.5 76t-107.5 182 q0 55 43 93t106 38q78 0 125 -46t47 -128q0 -22 -14 -80q51 -33 86 -33q48 0 87 18t72 60t59.5 94.5t53 137t48 172t48.5 214.5q-93 -147 -191 -218.5t-210 -71.5q-100 0 -158.5 59t-58.5 160q0 66 20 139l95 324q18 63 18 86q0 26 -14.5 40.5t-36.5 14.5q-34 0 -78 -44.5 t-82 -125.5z" />
<glyph unicode="z" horiz-adv-x="1052" d="M-12 49q62 112 157 224.5t175.5 186.5t213 192t205.5 188q-13 -7 -48 -27t-46.5 -26.5t-38.5 -20.5t-39 -19t-31.5 -12t-34 -9.5t-28.5 -2.5q-42 0 -122.5 14.5t-117.5 14.5q-91 0 -133 -101l-69 37q133 328 336 328q42 0 178 -23.5t225 -23.5q93 0 133 43l62 -45 q-76 -111 -182.5 -222t-196.5 -187.5t-195.5 -171.5t-169.5 -169q63 39 88.5 54t67 30.5t76.5 15.5q59 0 176 -32.5t176 -32.5q48 0 67 30.5t27 106.5l80 -14q-34 -398 -240 -398q-71 0 -262 53.5t-287 53.5q-46 0 -78.5 -21.5t-64.5 -68.5z" />
<glyph unicode="{" horiz-adv-x="1024" d="M178 596v80q157 15 209.5 79.5t52.5 227.5v186q0 134 36.5 207.5t122 106.5t241.5 33h12v-66q-62 -2 -99.5 -15.5t-58.5 -47t-28 -79t-7 -120.5v-131q0 -83 -4 -136.5t-17.5 -105t-39.5 -83.5t-68.5 -57t-105.5 -40q63 -15 105.5 -40t68.5 -56.5t39.5 -82.5t17.5 -104.5 t4 -136.5v-131q0 -75 7 -120.5t28 -79.5t58.5 -48t99.5 -16v-64h-12q-156 0 -241.5 32.5t-122 106t-36.5 207.5v187q0 163 -52.5 227.5t-209.5 79.5z" />
<glyph unicode="|" horiz-adv-x="1024" d="M393 -483v2048h240v-2048h-240z" />
<glyph unicode="}" horiz-adv-x="1024" d="M172 -180q62 2 99.5 16t58.5 48t28 79.5t7 120.5v131q0 83 4 136.5t17.5 104.5t39.5 82.5t68.5 56.5t105.5 40q-63 16 -105.5 41.5t-68.5 57t-39.5 83t-17.5 104.5t-4 136v131q0 75 -7 120.5t-28 79t-58.5 47t-99.5 15.5v66h12q156 0 241.5 -33t122 -106.5t36.5 -207.5 v-186q0 -163 52.5 -227.5t209.5 -79.5v-80q-157 -15 -209.5 -79.5t-52.5 -227.5v-187q0 -134 -36.5 -207.5t-122 -106t-241.5 -32.5h-12v64z" />
<glyph unicode="~" horiz-adv-x="1705" d="M178 401v254q222 144 387 144q119 0 295 -58q12 -4 56.5 -19.5t63 -21t54 -15.5t65.5 -13.5t60 -3.5q163 0 371 151v-254q-199 -137 -377 -137q-90 0 -172 29q-5 2 -47 16.5t-50.5 17.5t-45 15t-49 15t-43.5 12t-48 11.5t-43.5 7t-48.5 6t-45 1.5q-88 0 -179.5 -39 t-203.5 -119z" />
<glyph unicode="&#xa1;" horiz-adv-x="749" d="M104 211q0 68 30 166t108.5 303.5t122.5 333.5l110 -19q1 -179 6.5 -383.5t5.5 -238.5q0 -186 -53.5 -276.5t-183.5 -108.5q-146 70 -146 223zM262 1294q0 79 56 137t137 58t137.5 -57.5t56.5 -137.5q0 -81 -57.5 -137.5t-136.5 -56.5t-136 57t-57 137z" />
<glyph unicode="&#xa2;" d="M104 399q0 169 89 312t243.5 226t337.5 83q47 0 129 -10l141 252h115l-155 -287q79 -33 124.5 -98.5t45.5 -137.5q0 -85 -45.5 -137.5t-116.5 -52.5q-69 0 -110.5 44t-41.5 120v6l-291 -533q65 -86 185 -86q87 0 165.5 55.5t135.5 157.5l71 -51q-153 -285 -514 -285 q-80 0 -153 15l-148 -266h-116l163 292q-124 46 -189 144t-65 237zM481 420q0 -64 23 -131l340 610q-40 16 -70 16q-120 0 -206.5 -139.5t-86.5 -355.5z" />
<glyph unicode="&#xa3;" d="M-68 158q0 108 100 176t275 69q8 86 8 117q0 36 -14 119h-240l39 94h179q-23 115 -23 182q0 235 152 385t399 150q209 0 338 -102.5t129 -262.5q0 -106 -57 -172.5t-146 -66.5q-72 0 -117 44t-45 116q0 66 49.5 112.5t141.5 63.5q-14 62 -68.5 97.5t-138.5 35.5 q-119 0 -185.5 -68.5t-66.5 -191.5q0 -38 11.5 -144.5t13.5 -177.5h342l-37 -94h-303q-6 -165 -99 -272q347 -105 439 -105q59 0 104.5 29t89.5 92l92 -59q-79 -180 -178 -261t-246 -81q-220 0 -464 165q-155 -165 -297 -165q-79 0 -128 49.5t-49 126.5zM53 164 q0 -47 62 -47q43 0 83.5 26.5t67.5 75.5q-79 23 -104 23q-49 0 -79 -22t-30 -56z" />
<glyph unicode="&#xa4;" d="M-29 518l37 105h135q3 110 19 186h-150l37 104h141q90 254 265 395.5t389 141.5q231 0 356 -172l29 86l100 -4q-30 -210 -67 -391h-105q2 16 2 47q0 150 -69.5 233.5t-188.5 83.5q-122 0 -201 -104.5t-127 -315.5h496l-37 -104h-479q-15 -77 -27 -186h439l-37 -105h-406 v-39q0 -171 75 -275t196 -104q200 0 331 312l97 -54q-88 -198 -211.5 -288t-311.5 -90q-229 0 -373 140t-178 398h-176z" />
<glyph unicode="&#xa5;" d="M-16 1323v109q275 -11 358 -11q90 0 365 11v-109q-63 -5 -90 -17.5t-27 -41.5q0 -26 24 -82l203 -447l264 451q27 50 27 80q0 31 -30 43t-99 14v109q158 -11 209 -11q58 0 219 11l4 -109q-38 -3 -65 -12.5t-50 -32t-36.5 -41.5t-40.5 -61l-107 -170h225l-18 -105h-270 l-113 -184h350l-18 -105h-385l-54 -336q-12 -74 -12 -98q0 -42 33 -54t127 -15v-109q-270 10 -354 10q-95 0 -365 -10v109q96 2 135 29.5t56 113.5l53 295l-33 65h-442l18 105h371l-88 184h-250l18 105h178l-71 151q-40 86 -82.5 122t-136.5 44z" />
<glyph unicode="&#xa6;" horiz-adv-x="1024" d="M393 -350v758h240v-758h-240zM393 674v758h240v-758h-240z" />
<glyph unicode="&#xa7;" horiz-adv-x="1185" d="M119 -137q0 69 43 113t108 44q62 0 100 -33.5t38 -90.5q0 -75 -89 -152q45 -57 127 -57q67 0 111.5 39.5t44.5 97.5q0 28 -13 55.5t-23 39t-42 48.5l-262 312q-102 124 -102 296q0 214 194 365q-69 104 -69 205q0 150 114.5 248t290.5 98q151 0 252.5 -82t101.5 -184 q0 -74 -42 -119t-109 -45q-62 0 -99.5 34t-37.5 91q0 75 88 151q-44 56 -127 56q-68 0 -111 -39.5t-43 -100.5q0 -24 12.5 -50t23.5 -40t40 -49l262 -311q48 -58 76.5 -136.5t28.5 -162.5q0 -213 -195 -365q70 -101 70 -198q0 -153 -115 -252t-293 -99q-151 0 -252.5 82 t-101.5 191zM375 762q0 -117 119 -254l264 -307q37 56 37 125q0 119 -117 254l-266 307q-37 -61 -37 -125z" />
<glyph unicode="&#xa8;" horiz-adv-x="1024" d="M317 1317q0 56 42.5 98.5t99.5 42.5q59 0 100 -41t41 -100q0 -63 -39.5 -103t-101.5 -40q-60 0 -101 41.5t-41 101.5zM705 1317q0 56 43 98.5t100 42.5q58 0 99.5 -41t41.5 -100q0 -63 -39.5 -103t-101.5 -40q-60 0 -101.5 41.5t-41.5 101.5z" />
<glyph unicode="&#xa9;" horiz-adv-x="1683" d="M98 678q0 304 217 524q104 106 242 163.5t287 57.5q144 0 280.5 -57t241.5 -160q103 -103 161 -241.5t58 -286.5q0 -146 -56.5 -281.5t-162.5 -242.5q-105 -105 -239.5 -161t-284.5 -56q-305 0 -525 217q-106 105 -162.5 239.5t-56.5 284.5zM213 678q0 -266 184 -447 q187 -184 445 -184q261 0 442 184q89 91 137.5 207.5t48.5 239.5q0 126 -48 244t-136 204q-89 88 -205 136.5t-237 48.5q-126 0 -242.5 -49t-204.5 -138q-89 -91 -136.5 -205.5t-47.5 -240.5zM403 664q0 195 123 319.5t312 124.5q61 0 112 -16.5t82 -33t43 -16.5 q22 0 33.5 14t19.5 48h50v-330h-52q-30 132 -99 202.5t-163 70.5q-223 0 -223 -363q0 -183 61.5 -279t176.5 -96q154 0 268 176l51 -32q-129 -217 -350 -217q-193 0 -319 123t-126 305z" />
<glyph unicode="&#xaa;" horiz-adv-x="999" d="M4 975q0 84 35.5 172t101.5 164q69 80 154 123t164 43q126 0 172 -88l35 88h247l-135 -523q-10 -38 -10 -45q0 -20 9.5 -30.5t25.5 -10.5q55 0 110 107l54 -25q-56 -105 -126 -152.5t-171 -47.5q-75 0 -115.5 30.5t-40.5 87.5q0 18 8 68q-60 -90 -143.5 -138t-171.5 -48 q-92 0 -147.5 60t-55.5 165zM299 997q0 -53 16 -76.5t52 -23.5q42 0 98 59t80 150l51 188q-6 105 -86 105q-78 0 -139 -129q-72 -147 -72 -273z" />
<glyph unicode="&#xab;" horiz-adv-x="995" d="M47 508q135 84 261 172.5t180 127t69 38.5q10 0 17.5 -7t7.5 -16q0 -14 -10 -33.5t-36.5 -51.5t-51.5 -60.5t-76 -85t-89 -100.5q31 -72 67.5 -142t53.5 -103.5t17 -45.5q0 -8 -6.5 -13.5t-16.5 -5.5q-14 0 -40 17.5t-86.5 70.5t-105 94t-155.5 144zM426 508 q135 84 261.5 172.5t181 127t69.5 38.5q10 0 16.5 -7t6.5 -16q0 -14 -10 -33.5t-36.5 -51.5t-51.5 -60.5t-76 -85t-89 -100.5q31 -72 67.5 -142t53.5 -103.5t17 -45.5q0 -8 -6.5 -13.5t-16.5 -5.5q-14 0 -40 17.5t-86.5 70.5t-105 94t-155.5 144z" />
<glyph unicode="&#xac;" horiz-adv-x="1705" d="M254 639v227h1198v-501h-229v274h-969z" />
<glyph unicode="&#xad;" horiz-adv-x="612" d="M8 381l53 266h498l-51 -266h-500z" />
<glyph unicode="&#xae;" horiz-adv-x="1683" d="M98 678q0 148 56 283.5t161 240.5q104 106 242 163.5t287 57.5q151 0 291.5 -60t244.5 -169q98 -101 151.5 -239t53.5 -293q0 -140 -62.5 -280t-176.5 -247q-101 -97 -231.5 -149t-272.5 -52q-221 0 -410 123q-159 106 -246.5 268.5t-87.5 352.5zM213 678 q0 -266 184 -447q187 -184 445 -184q261 0 442 184q89 91 137.5 207.5t48.5 239.5q0 126 -49 244t-137 204q-90 88 -204.5 136.5t-235.5 48.5q-126 0 -243.5 -49t-205.5 -138q-182 -185 -182 -446zM463 281v57q56 5 77 24t21 66v524q0 49 -20 66.5t-78 25.5v56h405 q151 0 238.5 -57.5t87.5 -143.5q0 -88 -65.5 -137t-210.5 -74q229 -46 229 -260q0 -46 9.5 -67t33.5 -21q53 0 53 119v12h55q0 -5 1 -15t1 -14q0 -180 -188 -180q-92 0 -135 49q-20 23 -27.5 52t-9 78t-4.5 69q-12 85 -46.5 123.5t-101.5 38.5h-16v-244q0 -45 18.5 -63.5 t69.5 -26.5v-57h-397zM772 727q14 -2 39 -2q170 0 170 174q0 60 -38 102.5t-99 42.5q-72 0 -72 -63v-254z" />
<glyph unicode="&#xaf;" horiz-adv-x="1024" d="M328 1231l37 168h612l-35 -168h-614z" />
<glyph unicode="&#xb0;" horiz-adv-x="673" d="M27 1155q0 131 90.5 221t220.5 90q128 0 219.5 -90.5t91.5 -220.5q0 -128 -91.5 -219.5t-221.5 -91.5q-129 0 -219 90.5t-90 220.5zM172 1157q0 -69 48 -117.5t118 -48.5q68 0 116 49t48 117t-47.5 116t-116.5 48q-68 0 -117 -48t-49 -116z" />
<glyph unicode="&#xb1;" horiz-adv-x="1705" d="M254 -18v231h1198v-231h-1198zM254 690v232h481v319h238v-319h479v-232h-479v-319h-238v319h-481z" />
<glyph unicode="&#xb2;" horiz-adv-x="888" d="M-4 635q164 178 305 270q44 29 61 41t51.5 37.5t48.5 39.5t36.5 38.5t31 44t16 45t7.5 53.5q0 72 -49 114t-131 42q-84 0 -145.5 -43t-61.5 -100q28 4 37 4q56 0 92.5 -34.5t36.5 -82.5q0 -46 -32 -74.5t-83 -28.5q-65 0 -107 47.5t-42 122.5q0 117 100.5 194t259.5 77 q182 0 285.5 -71.5t103.5 -192.5q0 -79 -44.5 -137.5t-137.5 -106.5q-40 -19 -140.5 -58.5t-158.5 -66.5q-82 -33 -195 -125q149 86 242 86q49 0 132 -12.5t116 -12.5q52 0 79.5 27t45.5 90l59 -14q-19 -170 -62.5 -229.5t-158.5 -59.5q-71 0 -205.5 20.5t-191.5 20.5 q-49 0 -156 -39z" />
<glyph unicode="&#xb3;" horiz-adv-x="888" d="M18 784q0 50 35.5 86.5t85.5 36.5q47 0 81 -31t34 -75q0 -39 -25.5 -68t-70.5 -39q53 -59 164 -59q95 0 152.5 53.5t57.5 140.5q0 125 -172 125q-30 0 -71 -4l24 74q114 3 184 59.5t70 139.5q0 65 -46 104t-120 39q-47 0 -88.5 -19t-66.5 -53q56 -4 87.5 -32.5 t31.5 -71.5t-32.5 -71.5t-84.5 -28.5q-60 0 -99.5 39t-39.5 98q0 91 98.5 153t259.5 62q158 0 251 -58.5t93 -152.5q0 -91 -88.5 -151t-259.5 -83q175 -5 254.5 -49t79.5 -141q0 -110 -110.5 -178t-301.5 -68q-173 0 -270 62t-97 161z" />
<glyph unicode="&#xb4;" horiz-adv-x="1024" d="M422 1130l307 320q71 74 135 74q39 0 70 -32.5t31 -74.5q0 -65 -82 -110l-340 -177h-121z" />
<glyph unicode="&#xb5;" horiz-adv-x="1232" d="M-98 -303q0 48 26.5 138.5t71.5 243t76 296.5l108 510h293l-106 -498q-21 -92 -21 -125q0 -55 28.5 -87t74.5 -32q64 0 105.5 56t66.5 170l110 516h291l-111 -525q-12 -53 -12 -92q0 -44 20 -68t54 -24q54 0 90 51q9 13 27.5 46.5t31 46t31.5 12.5q10 0 19.5 -11.5 t9.5 -27.5q0 -27 -19.5 -83.5t-54.5 -107.5q-80 -122 -221 -122q-90 0 -137 47.5t-54 146.5q-73 -194 -249 -194q-101 0 -161.5 54t-70.5 156q-8 -61 -15.5 -130t-12.5 -116t-10.5 -98t-11 -84.5t-14 -67t-19 -53.5t-26 -36.5t-35.5 -23.5t-46 -7q-57 0 -92 34.5t-35 88.5z " />
<glyph unicode="&#xb6;" horiz-adv-x="1024" d="M29 1130q0 156 105 252.5t284 96.5h579v-123h-106v-1356h-174v1356h-152v-1356h-174v784q-166 6 -264 101.5t-98 244.5z" />
<glyph unicode="&#xb7;" horiz-adv-x="673" d="M131 717q0 82 60.5 141.5t144.5 59.5q86 0 142.5 -57.5t56.5 -143.5q0 -88 -56.5 -145.5t-142.5 -57.5t-145.5 58.5t-59.5 144.5z" />
<glyph unicode="&#xb8;" horiz-adv-x="1024" d="M145 -377l48 101q129 -76 239 -76q39 0 62.5 20t23.5 56q0 81 -94 81q-26 0 -94 -14l67 209h88l-36 -115q74 9 77 9q78 0 127 -48t49 -125q0 -87 -60 -137.5t-165 -50.5q-69 0 -146.5 22.5t-185.5 67.5z" />
<glyph unicode="&#xb9;" horiz-adv-x="888" d="M111 571l12 66h16q19 0 33.5 0.5t27 4t21.5 5t17.5 9.5t13.5 11.5t10.5 17t8 19.5t7 25.5t6.5 29t7 36.5l80 405q8 62 8 68q0 19 -8 27t-27 8q-9 0 -45 -5l-88 -16l-14 57q240 40 475 99l-133 -656q-11 -56 -11 -84q0 -35 19.5 -48t70.5 -13h27l-12 -66q-205 7 -266 7 q-51 0 -256 -7z" />
<glyph unicode="&#xba;" horiz-adv-x="935" d="M25 1065q0 169 141 290.5t352 121.5q160 0 260.5 -88.5t100.5 -227.5q0 -178 -138.5 -294.5t-355.5 -116.5q-158 0 -259 87t-101 228zM305 944q0 -60 23.5 -91.5t66.5 -31.5q80 0 133 133q70 180 70 326q0 123 -82 123t-139 -135q-72 -176 -72 -324z" />
<glyph unicode="&#xbb;" horiz-adv-x="995" d="M-4 205q0 14 10.5 33.5t37 52t51.5 61t76 85t89 100.5q-32 71 -69 142t-53.5 104.5t-16.5 45.5q0 17 22 17q25 0 102.5 -65.5t256.5 -230.5q20 -19 30 -28q-135 -84 -261 -173t-181 -128t-70 -39q-10 0 -17 7t-7 16zM375 205q0 14 10.5 33.5t37 52t51.5 61t76 85 t89 100.5q-32 70 -68.5 142t-52.5 104.5t-16 45.5q0 17 20 17q25 0 102.5 -65.5t256.5 -230.5q20 -19 30 -28q-135 -84 -261 -173t-181 -128t-70 -39q-10 0 -17 7t-7 16z" />
<glyph unicode="&#xbc;" horiz-adv-x="2037" d="M104 629l13 61h14q23 0 39 1t30 5.5t22.5 8t16.5 14.5t12 18t9 26.5t7.5 32t8.5 40.5l74 381q8 36 8 61q0 18 -7 25.5t-25 7.5q-14 0 -43 -4l-82 -15l-15 54q249 40 453 92l-127 -613q-10 -46 -10 -77q0 -33 19 -45.5t67 -12.5h24l-10 -61q-166 6 -254 6q-78 0 -244 -6z M506 -18l870 1450h154l-868 -1450h-156zM1192 197l12 139q361 334 594 493l53 -55q-369 -255 -540 -432h305l53 264q119 6 244 53l-62 -317h123l-53 -145h-98l-8 -52q-3 -12 -3 -24q0 -32 15.5 -46t66.5 -14h4l-12 -61q-156 6 -223 6q-85 0 -238 -6l13 61q72 0 101 15t38 65 l10 56h-395z" />
<glyph unicode="&#xbd;" horiz-adv-x="2037" d="M104 629l13 61h14q23 0 39 1t30 5.5t22.5 8t16.5 14.5t12 18t9 26.5t7.5 32t8.5 40.5l74 381q8 36 8 61q0 18 -7 25.5t-25 7.5q-14 0 -43 -4l-82 -15l-15 54q249 40 453 92l-127 -613q-10 -46 -10 -77q0 -33 19 -45.5t67 -12.5h24l-10 -61q-166 6 -254 6q-78 0 -244 -6z M506 -18l870 1450h154l-868 -1450h-156zM1186 59q148 157 291 252q56 37 81 54t63 47.5t54.5 53.5t29.5 55.5t13 68.5q0 67 -47.5 106t-124.5 39q-81 0 -139.5 -40t-58.5 -93q28 4 34 4q55 0 90 -32t35 -78q0 -42 -30.5 -68.5t-79.5 -26.5q-62 0 -103 44.5t-41 115.5 q0 108 96 179t250 71q172 0 271.5 -66.5t99.5 -179.5q0 -74 -42.5 -128t-133.5 -99q-41 -21 -141 -58.5t-144 -56.5q-65 -29 -184 -117q140 78 229 78q48 0 127 -10t111 -10q51 0 77.5 24.5t41.5 83.5l57 -14q-18 -158 -60 -214t-151 -56q-67 0 -196 19.5t-185 19.5 q-50 0 -145 -37z" />
<glyph unicode="&#xbe;" horiz-adv-x="2037" d="M18 827q0 47 33 81t82 34q45 0 77 -28.5t32 -69.5q0 -37 -24 -64t-68 -37q52 -55 157 -55q91 0 146 50t55 132q0 115 -164 115q-29 0 -68 -2l23 70q107 1 175.5 54.5t68.5 129.5q0 61 -44.5 97t-115.5 36q-98 0 -147 -65q53 -6 81.5 -32.5t28.5 -66.5q0 -42 -30 -68 t-80 -26q-57 0 -94.5 36.5t-37.5 92.5q0 84 93.5 141.5t246.5 57.5q152 0 241 -54.5t89 -142.5q0 -84 -84.5 -139.5t-247.5 -77.5q166 -3 243 -44.5t77 -131.5q0 -104 -105.5 -168t-287.5 -64q-166 0 -258.5 58t-92.5 151zM506 -18l870 1450h154l-868 -1450h-156zM1192 197 l12 139q361 334 594 493l53 -55q-369 -255 -540 -432h305l53 264q119 6 244 53l-62 -317h123l-53 -145h-98l-8 -52q-3 -12 -3 -24q0 -32 15.5 -46t66.5 -14h4l-12 -61q-156 6 -223 6q-85 0 -238 -6l13 61q72 0 101 15t38 65l10 56h-395z" />
<glyph unicode="&#xbf;" horiz-adv-x="1071" d="M57 360q0 54 9 100t30.5 85.5t44.5 70t63 64.5t72 58t86 61q68 46 106.5 90t61.5 123l115 -25q-4 -67 -23.5 -130.5t-33.5 -89.5t-47 -83q-37 -63 -55 -98t-36 -99.5t-18 -132.5q0 -119 46 -180t134 -61q60 0 104.5 32t49.5 78q-133 49 -133 166q0 72 47 121t113 49 q85 0 133.5 -53.5t48.5 -147.5q0 -156 -131.5 -263t-351.5 -107q-200 0 -317.5 100.5t-117.5 271.5zM434 1294q0 81 58 138t137 57t135.5 -58t56.5 -137t-55.5 -136.5t-136.5 -57.5q-82 0 -138.5 56t-56.5 138z" />
<glyph unicode="&#xc0;" horiz-adv-x="1355" d="M-141 0v109q45 0 76.5 12t59.5 44t46.5 64t50.5 97l455 927q83 89 141 211l289 33l197 -1190q5 -31 7 -43.5t7 -35.5t8 -31l9 -24t12 -21t16 -14.5t21 -12.5t27 -7.5t34 -6t41 -2.5v-109q-283 10 -355 10q-122 0 -389 -10v109q93 5 122.5 24t29.5 82q0 29 -8 78l-29 201 h-420l-106 -220q-29 -60 -29 -94q0 -44 26.5 -56.5t108.5 -14.5v-109q-167 10 -225 10q-60 0 -223 -10zM362 612h351l-78 568zM504 1886q0 47 29 77t73 30q65 0 123 -76l248 -318h-121l-274 179q-78 54 -78 108z" />
<glyph unicode="&#xc1;" horiz-adv-x="1355" d="M-141 0v109q45 0 76.5 12t59.5 44t46.5 64t50.5 97l455 927q83 89 141 211l289 33l197 -1190q5 -31 7 -43.5t7 -35.5t8 -31l9 -24t12 -21t16 -14.5t21 -12.5t27 -7.5t34 -6t41 -2.5v-109q-283 10 -355 10q-122 0 -389 -10v109q93 5 122.5 24t29.5 82q0 29 -8 78l-29 201 h-420l-106 -220q-29 -60 -29 -94q0 -44 26.5 -56.5t108.5 -14.5v-109q-167 10 -225 10q-60 0 -223 -10zM362 612h351l-78 568zM573 1599l308 320q71 74 135 74q39 0 69.5 -32.5t30.5 -74.5q0 -65 -82 -110l-340 -177h-121z" />
<glyph unicode="&#xc2;" horiz-adv-x="1355" d="M-141 0v109q45 0 76.5 12t59.5 44t46.5 64t50.5 97l455 927q83 89 141 211l289 33l197 -1190q5 -31 7 -43.5t7 -35.5t8 -31l9 -24t12 -21t16 -14.5t21 -12.5t27 -7.5t34 -6t41 -2.5v-109q-283 10 -355 10q-122 0 -389 -10v109q93 5 122.5 24t29.5 82q0 29 -8 78l-29 201 h-420l-106 -220q-29 -60 -29 -94q0 -44 26.5 -56.5t108.5 -14.5v-109q-167 10 -225 10q-60 0 -223 -10zM362 612h351l-78 568zM430 1599l311 371h172l160 -371h-96l-174 173l-258 -173h-115z" />
<glyph unicode="&#xc3;" horiz-adv-x="1355" d="M-141 0v109q45 0 76.5 12t59.5 44t46.5 64t50.5 97l455 927q83 89 141 211l289 33l197 -1190q5 -31 7 -43.5t7 -35.5t8 -31l9 -24t12 -21t16 -14.5t21 -12.5t27 -7.5t34 -6t41 -2.5v-109q-283 10 -355 10q-122 0 -389 -10v109q93 5 122.5 24t29.5 82q0 29 -8 78l-29 201 h-420l-106 -220q-29 -60 -29 -94q0 -44 26.5 -56.5t108.5 -14.5v-109q-167 10 -225 10q-60 0 -223 -10zM362 612h351l-78 568zM473 1630q34 136 84 200t127 64q38 0 90 -12l123 -29q24 -6 47 -6q85 0 119 90h72q-33 -136 -82.5 -198t-132.5 -62q-28 0 -66 9l-109 26 q-49 12 -73 12q-47 0 -75 -21.5t-48 -72.5h-76z" />
<glyph unicode="&#xc4;" horiz-adv-x="1355" d="M-141 0v109q45 0 76.5 12t59.5 44t46.5 64t50.5 97l455 927q83 89 141 211l289 33l197 -1190q5 -31 7 -43.5t7 -35.5t8 -31l9 -24t12 -21t16 -14.5t21 -12.5t27 -7.5t34 -6t41 -2.5v-109q-283 10 -355 10q-122 0 -389 -10v109q93 5 122.5 24t29.5 82q0 29 -8 78l-29 201 h-420l-106 -220q-29 -60 -29 -94q0 -44 26.5 -56.5t108.5 -14.5v-109q-167 10 -225 10q-60 0 -223 -10zM362 612h351l-78 568zM469 1786q0 56 42 98.5t99 42.5q59 0 100.5 -41.5t41.5 -99.5q0 -63 -40 -103.5t-102 -40.5q-60 0 -100.5 42t-40.5 102zM856 1786q0 56 43 98.5 t100 42.5q59 0 100.5 -41.5t41.5 -99.5q0 -63 -40 -103.5t-102 -40.5q-60 0 -101.5 42t-41.5 102z" />
<glyph unicode="&#xc5;" horiz-adv-x="1355" d="M-141 0v109q45 0 76.5 12t59.5 44t46.5 64t50.5 97l455 927q82 88 131 189l301 37l195 -1172q5 -31 7 -43.5t7 -35.5t8 -31l9 -24t12 -21t16 -14.5t21 -12.5t27 -7.5t34 -6t41 -2.5v-109q-283 10 -355 10q-122 0 -389 -10v109q93 5 122.5 24t29.5 82q0 29 -8 78l-29 201 h-420l-106 -220q-29 -60 -29 -94q0 -44 26.5 -56.5t108.5 -14.5v-109q-167 10 -225 10q-60 0 -223 -10zM362 612h351l-78 568zM596 1749q0 94 66 158.5t161 64.5q94 0 160 -65.5t66 -157.5q0 -93 -65.5 -158t-160.5 -65t-161 64.5t-66 158.5zM719 1749q0 -43 29.5 -72.5 t72.5 -29.5t74 30t31 72q0 41 -31 71.5t-74 30.5t-72.5 -29.5t-29.5 -72.5z" />
<glyph unicode="&#xc6;" horiz-adv-x="2152" d="M-238 0v109h11q46 0 82.5 13t67.5 40t58 60t63 81l15 21l646 874q3 3 10 12t9.5 12.5t8 11t7.5 11.5l5.5 11t5 12t2.5 11.5t1 12.5q0 39 -37.5 52.5t-128.5 15.5v110h1427v-124q0 -120 4 -304h-118v58q0 77 -15 126.5t-49.5 77t-81.5 38t-121 10.5h-272l-84 -533h78 q64 0 101.5 7t67.5 29t46 61.5t28 107.5h109q-57 -287 -80 -563h-108q8 63 8 110q0 82 -34.5 106.5t-143.5 24.5h-90l-93 -583h252q66 0 96.5 0.5t79.5 4.5t71.5 12.5t56.5 24.5t51.5 40t40 59.5t39 83.5t32.5 111h119q-56 -234 -96 -455h-1303v109q64 0 96.5 13t45.5 38.5 t22 79.5l45 297h-461l-192 -263q-35 -47 -35 -92t27.5 -58t109.5 -15v-109q-195 10 -260 10q-57 0 -242 -10zM444 655h392l114 697z" />
<glyph unicode="&#xc7;" horiz-adv-x="1507" d="M61 649q0 180 65 336.5t178 267t271 173.5t338 63q277 0 453 -176l37 86l104 -4q-33 -153 -82 -459h-112q2 33 2 84q0 153 -81.5 242.5t-215.5 89.5q-222 0 -355 -197t-133 -534q0 -243 94.5 -371.5t264.5 -128.5q123 0 228 78t173 225l101 -55q-94 -198 -251 -293.5 t-386 -95.5q-322 0 -507.5 179.5t-185.5 489.5zM444 -377l48 101q129 -76 239 -76q39 0 62.5 20t23.5 56q0 81 -94 81q-26 0 -94 -14l67 209h88l-36 -115q74 9 77 9q78 0 127 -48t49 -125q0 -87 -60 -137.5t-165 -50.5q-69 0 -146.5 22.5t-185.5 67.5z" />
<glyph unicode="&#xc8;" horiz-adv-x="1536" d="M-10 0v109q64 0 96.5 13t45.5 38.5t22 79.5l151 952q12 86 12 100q0 38 -29.5 52t-101.5 16v110h1213v-124q0 -120 4 -304h-119v58q0 77 -15 126.5t-49 77t-81 38t-121 10.5h-273l-83 -533h77q64 0 102 7t68 29t46 61.5t28 107.5h109q-57 -287 -80 -563h-109q8 63 8 110 q0 82 -34.5 106.5t-143.5 24.5h-90l-92 -583h252q66 0 96.5 0.5t79.5 4.5t71.5 12.5t56.5 24.5t51.5 40t40 59.5t39 83.5t32.5 111h119q-60 -251 -97 -455h-1302zM594 1886q0 47 29 77t73 30q65 0 123 -76l248 -318h-121l-274 179q-78 54 -78 108z" />
<glyph unicode="&#xc9;" horiz-adv-x="1536" d="M-10 0v109q64 0 96.5 13t45.5 38.5t22 79.5l151 952q12 86 12 100q0 38 -29.5 52t-101.5 16v110h1213v-124q0 -120 4 -304h-119v58q0 77 -15 126.5t-49 77t-81 38t-121 10.5h-273l-83 -533h77q64 0 102 7t68 29t46 61.5t28 107.5h109q-57 -287 -80 -563h-109q8 63 8 110 q0 82 -34.5 106.5t-143.5 24.5h-90l-92 -583h252q66 0 96.5 0.5t79.5 4.5t71.5 12.5t56.5 24.5t51.5 40t40 59.5t39 83.5t32.5 111h119q-60 -251 -97 -455h-1302zM664 1599l307 320q71 74 135 74q39 0 69.5 -32.5t30.5 -74.5q0 -65 -82 -110l-340 -177h-120z" />
<glyph unicode="&#xca;" horiz-adv-x="1536" d="M-10 0v109q64 0 96.5 13t45.5 38.5t22 79.5l151 952q12 86 12 100q0 38 -29.5 52t-101.5 16v110h1213v-124q0 -120 4 -304h-119v58q0 77 -15 126.5t-49 77t-81 38t-121 10.5h-273l-83 -533h77q64 0 102 7t68 29t46 61.5t28 107.5h109q-57 -287 -80 -563h-109q8 63 8 110 q0 82 -34.5 106.5t-143.5 24.5h-90l-92 -583h252q66 0 96.5 0.5t79.5 4.5t71.5 12.5t56.5 24.5t51.5 40t40 59.5t39 83.5t32.5 111h119q-60 -251 -97 -455h-1302zM520 1599l311 371h173l159 -371h-96l-174 173l-258 -173h-115z" />
<glyph unicode="&#xcb;" horiz-adv-x="1536" d="M-10 0v109q64 0 96.5 13t45.5 38.5t22 79.5l151 952q12 86 12 100q0 38 -29.5 52t-101.5 16v110h1213v-124q0 -120 4 -304h-119v58q0 77 -15 126.5t-49 77t-81 38t-121 10.5h-273l-83 -533h77q64 0 102 7t68 29t46 61.5t28 107.5h109q-57 -287 -80 -563h-109q8 63 8 110 q0 82 -34.5 106.5t-143.5 24.5h-90l-92 -583h252q66 0 96.5 0.5t79.5 4.5t71.5 12.5t56.5 24.5t51.5 40t40 59.5t39 83.5t32.5 111h119q-60 -251 -97 -455h-1302zM559 1786q0 56 42 98.5t99 42.5q59 0 100.5 -41.5t41.5 -99.5q0 -63 -40 -103.5t-102 -40.5q-60 0 -100.5 42 t-40.5 102zM946 1786q0 56 43.5 98.5t100.5 42.5q58 0 99.5 -41.5t41.5 -99.5q0 -63 -39.5 -103.5t-101.5 -40.5q-60 0 -102 42t-42 102z" />
<glyph unicode="&#xcc;" horiz-adv-x="882" d="M-27 0v109q73 2 108 14.5t50 40t25 88.5l149 940q12 86 12 100q0 41 -31.5 53.5t-113.5 14.5v110q257 -10 375 -10q120 0 362 10v-110q-56 -2 -86.5 -7t-51 -22t-29 -41t-15.5 -71l-152 -943q-10 -62 -10 -98q0 -42 33 -54t127 -15v-109q-277 10 -375 10q-97 0 -377 -10z M268 1886q0 47 29 77t74 30q65 0 123 -76l247 -318h-120l-275 179q-78 54 -78 108z" />
<glyph unicode="&#xcd;" horiz-adv-x="882" d="M-27 0v109q73 2 108 14.5t50 40t25 88.5l149 940q12 86 12 100q0 41 -31.5 53.5t-113.5 14.5v110q257 -10 375 -10q120 0 362 10v-110q-56 -2 -86.5 -7t-51 -22t-29 -41t-15.5 -71l-152 -943q-10 -62 -10 -98q0 -42 33 -54t127 -15v-109q-277 10 -375 10q-97 0 -377 -10z M338 1599l307 320q71 74 135 74q39 0 70 -32.5t31 -74.5q0 -65 -82 -110l-340 -177h-121z" />
<glyph unicode="&#xce;" horiz-adv-x="882" d="M-27 0v109q73 2 108 14.5t50 40t25 88.5l149 940q12 86 12 100q0 41 -31.5 53.5t-113.5 14.5v110q257 -10 375 -10q120 0 362 10v-110q-56 -2 -86.5 -7t-51 -22t-29 -41t-15.5 -71l-152 -943q-10 -62 -10 -98q0 -42 33 -54t127 -15v-109q-277 10 -375 10q-97 0 -377 -10z M195 1599l311 371h172l160 -371h-97l-174 173l-258 -173h-114z" />
<glyph unicode="&#xcf;" horiz-adv-x="882" d="M-27 0v109q73 2 108 14.5t50 40t25 88.5l149 940q12 86 12 100q0 41 -31.5 53.5t-113.5 14.5v110q257 -10 375 -10q120 0 362 10v-110q-56 -2 -86.5 -7t-51 -22t-29 -41t-15.5 -71l-152 -943q-10 -62 -10 -98q0 -42 33 -54t127 -15v-109q-277 10 -375 10q-97 0 -377 -10z M233 1786q0 56 42.5 98.5t99.5 42.5q59 0 100 -41.5t41 -99.5q0 -63 -39.5 -103.5t-101.5 -40.5q-60 0 -101 42t-41 102zM621 1786q0 56 43 98.5t100 42.5q58 0 99.5 -41.5t41.5 -99.5q0 -63 -39.5 -103.5t-101.5 -40.5q-60 0 -101.5 42t-41.5 102z" />
<glyph unicode="&#xd0;" horiz-adv-x="1716" d="M4 0v109q85 3 111 29t39 102l75 467h-221l21 118h219l57 367q12 80 12 100q0 38 -29.5 52t-101.5 16v110q235 -10 322 -10q57 0 192 5t215 5q361 0 549.5 -167t188.5 -486q0 -177 -62.5 -338t-169.5 -268q-115 -115 -261 -163t-353 -48q-61 0 -223.5 5t-264.5 5 q-130 0 -315 -10zM553 129q75 -10 145 -10q149 0 229.5 40t137.5 142q59 104 98 267t39 333q0 228 -87 339.5t-265 111.5q-40 0 -105 -6l-81 -521h254l-19 -118h-254z" />
<glyph unicode="&#xd1;" horiz-adv-x="1640" d="M-27 0v109q73 2 108 14.5t50 40t25 88.5l149 940q12 86 12 100q0 40 -34 54t-115 14h-31v110q177 -10 283 -10q61 0 231 10l602 -1030l117 752q12 90 12 94q0 47 -31.5 59t-127.5 15v110q150 -10 227 -10q70 0 227 10v-110q-56 -2 -86.5 -7t-51 -22t-29 -41t-15.5 -71 l-192 -1207l-269 -22l-628 1089l-127 -803q-11 -68 -11 -98q0 -42 33 -54t127 -15v-109q-170 10 -229 10t-226 -10zM616 1630q34 136 84 200t127 64q39 0 91 -12l122 -29q24 -6 47 -6q85 0 119 90h72q-33 -136 -82.5 -198t-132.5 -62q-29 0 -66 9l-108 26q-49 12 -74 12 q-47 0 -75 -21.5t-48 -72.5h-76z" />
<glyph unicode="&#xd2;" horiz-adv-x="1658" d="M61 657q0 300 177 517q121 150 295.5 232.5t375.5 82.5q200 0 356.5 -85t244 -239t87.5 -352q0 -297 -178 -518q-121 -148 -295.5 -230.5t-373.5 -82.5q-151 0 -279.5 49.5t-218.5 137.5t-140.5 213.5t-50.5 274.5zM508 498q0 -202 56 -300t175 -98q163 0 269 195 q62 113 103.5 301.5t41.5 404.5q0 369 -231 369q-164 0 -269 -194q-61 -111 -103 -296.5t-42 -381.5zM655 1886q0 47 29 77t74 30q65 0 123 -76l247 -318h-120l-275 179q-78 54 -78 108z" />
<glyph unicode="&#xd3;" horiz-adv-x="1658" d="M61 657q0 300 177 517q121 150 295.5 232.5t375.5 82.5q200 0 356.5 -85t244 -239t87.5 -352q0 -297 -178 -518q-121 -148 -295.5 -230.5t-373.5 -82.5q-151 0 -279.5 49.5t-218.5 137.5t-140.5 213.5t-50.5 274.5zM508 498q0 -202 56 -300t175 -98q163 0 269 195 q62 113 103.5 301.5t41.5 404.5q0 369 -231 369q-164 0 -269 -194q-61 -111 -103 -296.5t-42 -381.5zM725 1599l307 320q71 74 135 74q39 0 70 -32.5t31 -74.5q0 -65 -82 -110l-340 -177h-121z" />
<glyph unicode="&#xd4;" horiz-adv-x="1658" d="M61 657q0 300 177 517q121 150 295.5 232.5t375.5 82.5q200 0 356.5 -85t244 -239t87.5 -352q0 -297 -178 -518q-121 -148 -295.5 -230.5t-373.5 -82.5q-151 0 -279.5 49.5t-218.5 137.5t-140.5 213.5t-50.5 274.5zM508 498q0 -202 56 -300t175 -98q163 0 269 195 q62 113 103.5 301.5t41.5 404.5q0 369 -231 369q-164 0 -269 -194q-61 -111 -103 -296.5t-42 -381.5zM582 1599l311 371h172l160 -371h-97l-174 173l-258 -173h-114z" />
<glyph unicode="&#xd5;" horiz-adv-x="1658" d="M61 657q0 300 177 517q121 150 295.5 232.5t375.5 82.5q200 0 356.5 -85t244 -239t87.5 -352q0 -297 -178 -518q-121 -148 -295.5 -230.5t-373.5 -82.5q-151 0 -279.5 49.5t-218.5 137.5t-140.5 213.5t-50.5 274.5zM508 498q0 -202 56 -300t175 -98q163 0 269 195 q62 113 103.5 301.5t41.5 404.5q0 369 -231 369q-164 0 -269 -194q-61 -111 -103 -296.5t-42 -381.5zM625 1630q34 136 84 200t127 64q38 0 90 -12l123 -29q24 -6 47 -6q84 0 118 90h72q-33 -136 -82.5 -198t-132.5 -62q-27 0 -65 9l-109 26q-49 12 -74 12q-47 0 -75 -21.5 t-48 -72.5h-75z" />
<glyph unicode="&#xd6;" horiz-adv-x="1658" d="M61 657q0 300 177 517q121 150 295.5 232.5t375.5 82.5q200 0 356.5 -85t244 -239t87.5 -352q0 -297 -178 -518q-121 -148 -295.5 -230.5t-373.5 -82.5q-151 0 -279.5 49.5t-218.5 137.5t-140.5 213.5t-50.5 274.5zM508 498q0 -202 56 -300t175 -98q163 0 269 195 q62 113 103.5 301.5t41.5 404.5q0 369 -231 369q-164 0 -269 -194q-61 -111 -103 -296.5t-42 -381.5zM621 1786q0 56 42 98.5t99 42.5q58 0 99.5 -41.5t41.5 -99.5q0 -63 -39.5 -103.5t-101.5 -40.5q-60 0 -100.5 42t-40.5 102zM1008 1786q0 56 43 98.5t100 42.5 q59 0 100 -41.5t41 -99.5q0 -63 -39.5 -103.5t-101.5 -40.5q-60 0 -101.5 42t-41.5 102z" />
<glyph unicode="&#xd7;" horiz-adv-x="1705" d="M268 170l441 440l-441 443l162 161l440 -440l441 440l162 -161l-441 -443l441 -440l-162 -162l-441 441l-440 -441z" />
<glyph unicode="&#xd8;" horiz-adv-x="1658" d="M61 657q0 300 177 517q120 150 295.5 232.5t375.5 82.5q138 0 303 -59l125 192h148l-168 -250q134 -86 206 -233t72 -336q0 -291 -176 -510q-121 -150 -293.5 -230.5t-377.5 -80.5q-181 0 -322 69l-152 -221h-145l195 285q-263 186 -263 542zM508 498q0 -31 4 -101 l590 871q-62 102 -180 102q-164 0 -269 -194q-62 -116 -103.5 -298.5t-41.5 -379.5zM549 231q49 -131 190 -131q160 0 269 195q62 112 103.5 296t41.5 386q0 43 -8 137z" />
<glyph unicode="&#xd9;" horiz-adv-x="1640" d="M184 389q0 31 4.5 67.5t14.5 93t14 83.5l88 559q12 82 12 100q0 38 -29.5 52t-101.5 16v110q242 -10 361 -10q120 0 362 10v-110q-56 -2 -86.5 -7t-51 -22t-29 -41t-15.5 -71l-96 -598q-27 -179 -27 -236q0 -268 270 -268q214 0 316 172q13 21 23.5 44.5t19.5 55t15 53 t14 66t11.5 65t12.5 78t12 78.5l72 463q12 90 12 94q0 47 -31.5 59t-127.5 15v110q150 -10 227 -10q70 0 227 10v-110q-56 -2 -86.5 -7t-51 -22t-29 -41t-15.5 -71l-113 -701q-45 -284 -197.5 -410t-461.5 -126q-539 0 -539 407zM709 1886q0 47 29 77t73 30q65 0 123 -76 l248 -318h-121l-275 179q-77 53 -77 108z" />
<glyph unicode="&#xda;" horiz-adv-x="1640" d="M184 389q0 31 4.5 67.5t14.5 93t14 83.5l88 559q12 82 12 100q0 38 -29.5 52t-101.5 16v110q242 -10 361 -10q120 0 362 10v-110q-56 -2 -86.5 -7t-51 -22t-29 -41t-15.5 -71l-96 -598q-27 -179 -27 -236q0 -268 270 -268q214 0 316 172q13 21 23.5 44.5t19.5 55t15 53 t14 66t11.5 65t12.5 78t12 78.5l72 463q12 90 12 94q0 47 -31.5 59t-127.5 15v110q150 -10 227 -10q70 0 227 10v-110q-56 -2 -86.5 -7t-51 -22t-29 -41t-15.5 -71l-113 -701q-45 -284 -197.5 -410t-461.5 -126q-539 0 -539 407zM778 1599l307 320q71 74 136 74 q39 0 69.5 -32.5t30.5 -74.5q0 -65 -82 -110l-340 -177h-121z" />
<glyph unicode="&#xdb;" horiz-adv-x="1640" d="M184 389q0 31 4.5 67.5t14.5 93t14 83.5l88 559q12 82 12 100q0 38 -29.5 52t-101.5 16v110q242 -10 361 -10q120 0 362 10v-110q-56 -2 -86.5 -7t-51 -22t-29 -41t-15.5 -71l-96 -598q-27 -179 -27 -236q0 -268 270 -268q214 0 316 172q13 21 23.5 44.5t19.5 55t15 53 t14 66t11.5 65t12.5 78t12 78.5l72 463q12 90 12 94q0 47 -31.5 59t-127.5 15v110q150 -10 227 -10q70 0 227 10v-110q-56 -2 -86.5 -7t-51 -22t-29 -41t-15.5 -71l-113 -701q-45 -284 -197.5 -410t-461.5 -126q-539 0 -539 407zM635 1599l311 371h172l160 -371h-96 l-174 173l-258 -173h-115z" />
<glyph unicode="&#xdc;" horiz-adv-x="1640" d="M184 389q0 31 4.5 67.5t14.5 93t14 83.5l88 559q12 82 12 100q0 38 -29.5 52t-101.5 16v110q242 -10 361 -10q120 0 362 10v-110q-56 -2 -86.5 -7t-51 -22t-29 -41t-15.5 -71l-96 -598q-27 -179 -27 -236q0 -268 270 -268q214 0 316 172q13 21 23.5 44.5t19.5 55t15 53 t14 66t11.5 65t12.5 78t12 78.5l72 463q12 90 12 94q0 47 -31.5 59t-127.5 15v110q150 -10 227 -10q70 0 227 10v-110q-56 -2 -86.5 -7t-51 -22t-29 -41t-15.5 -71l-113 -701q-45 -284 -197.5 -410t-461.5 -126q-539 0 -539 407zM674 1786q0 56 42 98.5t99 42.5 q59 0 100 -41.5t41 -99.5q0 -63 -39.5 -103.5t-101.5 -40.5q-60 0 -100.5 42t-40.5 102zM1061 1786q0 56 43 98.5t100 42.5q59 0 100.5 -41.5t41.5 -99.5q0 -63 -40 -103.5t-102 -40.5q-60 0 -101.5 42t-41.5 102z" />
<glyph unicode="&#xdd;" horiz-adv-x="1327" d="M-37 1360v110q263 -10 359 -10q131 0 391 10v-110q-64 -5 -90.5 -16.5t-26.5 -40.5q0 -24 25 -82l202 -449l264 453q27 49 27 80t-29.5 42t-99.5 13v110q153 -10 209 -10q77 0 227 10l4 -110q-38 -3 -64 -12t-49.5 -33t-36 -41t-40.5 -62l-344 -542l-62 -394 q-12 -74 -12 -98q0 -42 33 -54t127 -15v-109q-277 10 -375 10q-97 0 -377 -10v109q73 2 108 14.5t50 40t25 88.5l55 352l-281 592q-27 57 -49.5 86.5t-63.5 50.5t-106 27zM559 1599l307 320q71 74 135 74q39 0 70 -32.5t31 -74.5q0 -65 -82 -110l-340 -177h-121z" />
<glyph unicode="&#xde;" horiz-adv-x="1507" d="M-10 0v109q64 0 96.5 13t45.5 38.5t22 79.5l151 952q12 86 12 100q0 38 -29.5 52t-101.5 16v110q242 -10 361 -10q120 0 362 10v-110q-74 -2 -108.5 -14.5t-49 -39t-24.5 -87.5l-12 -66q68 2 127 2q288 0 433.5 -95t145.5 -282q0 -405 -641 -405q-44 0 -188 8l-17 -105 q-10 -71 -10 -98q0 -41 33.5 -55t118.5 -14h26v-109q-270 10 -393 10q-73 0 -360 -10zM614 498q45 -2 80 -2q147 0 219 77.5t72 245.5q0 116 -58 167.5t-186 51.5q-6 0 -20 -1t-21 -1z" />
<glyph unicode="&#xdf;" horiz-adv-x="1280" d="M-96 -436q81 201 130 415.5t93 501.5l66 428q23 159 43 224q25 79 67 143q160 250 504 250q205 0 320.5 -83t115.5 -224q0 -129 -109.5 -226.5t-310.5 -136.5q187 -22 282 -106t95 -224q0 -113 -42 -215.5t-110 -174t-157.5 -114t-183.5 -42.5q-107 0 -213 71l18 105 q45 -31 92 -31q37 0 69 22t52 60q38 76 65 185.5t27 195.5q0 108 -47.5 160.5t-153.5 66.5l15 96h14q119 0 178 103q35 63 55.5 140.5t20.5 135.5q0 131 -111 131q-26 0 -47.5 -8.5t-40 -29t-33.5 -45t-29 -68t-25.5 -85t-24 -108.5t-23 -127t-24.5 -151l-56 -350 q-42 -264 -81 -447.5t-95 -337.5z" />
<glyph unicode="&#xe0;" horiz-adv-x="1331" d="M6 303q0 122 47 248t135 233q92 113 205.5 174.5t218.5 61.5q169 0 230 -125l45 125h332l-181 -746q-14 -58 -14 -63q0 -59 47 -59q35 0 73.5 39t72.5 114l71 -37q-74 -150 -167.5 -218t-227.5 -68q-101 0 -154 44.5t-53 127.5q0 34 10 96q-82 -130 -193 -199t-229 -69 q-121 0 -194.5 86t-73.5 235zM397 338q0 -75 21.5 -110t68.5 -35q56 0 131.5 85t108.5 214l68 270q-9 147 -115 147q-55 0 -99.5 -44.5t-86.5 -137.5q-47 -104 -72 -208.5t-25 -180.5zM506 1417q0 47 29 77t73 30q65 0 123 -76l248 -318h-121l-274 179q-78 54 -78 108z" />
<glyph unicode="&#xe1;" horiz-adv-x="1331" d="M6 303q0 122 47 248t135 233q92 113 205.5 174.5t218.5 61.5q169 0 230 -125l45 125h332l-181 -746q-14 -58 -14 -63q0 -59 47 -59q35 0 73.5 39t72.5 114l71 -37q-74 -150 -167.5 -218t-227.5 -68q-101 0 -154 44.5t-53 127.5q0 34 10 96q-82 -130 -193 -199t-229 -69 q-121 0 -194.5 86t-73.5 235zM397 338q0 -75 21.5 -110t68.5 -35q56 0 131.5 85t108.5 214l68 270q-9 147 -115 147q-55 0 -99.5 -44.5t-86.5 -137.5q-47 -104 -72 -208.5t-25 -180.5zM575 1130l308 320q71 74 135 74q39 0 69.5 -32.5t30.5 -74.5q0 -65 -82 -110l-340 -177 h-121z" />
<glyph unicode="&#xe2;" horiz-adv-x="1331" d="M6 303q0 122 47 248t135 233q92 113 205.5 174.5t218.5 61.5q169 0 230 -125l45 125h332l-181 -746q-14 -58 -14 -63q0 -59 47 -59q35 0 73.5 39t72.5 114l71 -37q-74 -150 -167.5 -218t-227.5 -68q-101 0 -154 44.5t-53 127.5q0 34 10 96q-82 -130 -193 -199t-229 -69 q-121 0 -194.5 86t-73.5 235zM397 338q0 -75 21.5 -110t68.5 -35q56 0 131.5 85t108.5 214l68 270q-9 147 -115 147q-55 0 -99.5 -44.5t-86.5 -137.5q-47 -104 -72 -208.5t-25 -180.5zM432 1130l311 371h172l160 -371h-96l-174 173l-258 -173h-115z" />
<glyph unicode="&#xe3;" horiz-adv-x="1331" d="M6 303q0 122 47 248t135 233q92 113 205.5 174.5t218.5 61.5q169 0 230 -125l45 125h332l-181 -746q-14 -58 -14 -63q0 -59 47 -59q35 0 73.5 39t72.5 114l71 -37q-74 -150 -167.5 -218t-227.5 -68q-101 0 -154 44.5t-53 127.5q0 34 10 96q-82 -130 -193 -199t-229 -69 q-121 0 -194.5 86t-73.5 235zM397 338q0 -75 21.5 -110t68.5 -35q56 0 131.5 85t108.5 214l68 270q-9 147 -115 147q-55 0 -99.5 -44.5t-86.5 -137.5q-47 -104 -72 -208.5t-25 -180.5zM475 1161q34 136 84 200t127 64q38 0 90 -12l123 -29q24 -6 47 -6q85 0 119 90h72 q-33 -136 -82.5 -198t-132.5 -62q-28 0 -66 9l-108 26q-49 12 -74 12q-47 0 -75 -21.5t-48 -72.5h-76z" />
<glyph unicode="&#xe4;" horiz-adv-x="1331" d="M6 303q0 122 47 248t135 233q92 113 205.5 174.5t218.5 61.5q169 0 230 -125l45 125h332l-181 -746q-14 -58 -14 -63q0 -59 47 -59q35 0 73.5 39t72.5 114l71 -37q-74 -150 -167.5 -218t-227.5 -68q-101 0 -154 44.5t-53 127.5q0 34 10 96q-82 -130 -193 -199t-229 -69 q-121 0 -194.5 86t-73.5 235zM397 338q0 -75 21.5 -110t68.5 -35q56 0 131.5 85t108.5 214l68 270q-9 147 -115 147q-55 0 -99.5 -44.5t-86.5 -137.5q-47 -104 -72 -208.5t-25 -180.5zM471 1317q0 56 42 98.5t99 42.5q59 0 100.5 -41.5t41.5 -99.5q0 -63 -40 -103t-102 -40 q-60 0 -100.5 41.5t-40.5 101.5zM858 1317q0 56 43 98.5t100 42.5q59 0 100.5 -41.5t41.5 -99.5q0 -63 -40 -103t-102 -40q-60 0 -101.5 41.5t-41.5 101.5z" />
<glyph unicode="&#xe5;" horiz-adv-x="1331" d="M6 303q0 122 47 248t135 233q92 113 205.5 174.5t218.5 61.5q169 0 230 -125l45 125h332l-181 -746q-14 -58 -14 -63q0 -59 47 -59q35 0 73.5 39t72.5 114l71 -37q-74 -150 -167.5 -218t-227.5 -68q-101 0 -154 44.5t-53 127.5q0 34 10 96q-82 -130 -193 -199t-229 -69 q-121 0 -194.5 86t-73.5 235zM397 338q0 -75 21.5 -110t68.5 -35q56 0 131.5 85t108.5 214l68 270q-9 147 -115 147q-55 0 -99.5 -44.5t-86.5 -137.5q-47 -104 -72 -208.5t-25 -180.5zM557 1309q0 94 65 158.5t160 64.5q94 0 160 -65.5t66 -157.5q0 -93 -65.5 -158.5 t-160.5 -65.5t-160 65t-65 159zM680 1309q0 -43 29.5 -73t72.5 -30t73 30t30 73q0 41 -30.5 71.5t-72.5 30.5q-43 0 -72.5 -29.5t-29.5 -72.5z" />
<glyph unicode="&#xe6;" horiz-adv-x="1767" d="M-4 219q0 167 179 253t548 101l18 93q17 80 17 116q0 64 -38.5 98.5t-111.5 34.5q-70 0 -141 -41q4 -31 4 -63q0 -81 -46.5 -130.5t-119.5 -49.5q-65 0 -104 38.5t-39 100.5q0 109 117 179.5t321 70.5q260 0 352 -162q165 162 422 162q164 0 254 -60t90 -161 q0 -151 -159.5 -235.5t-462.5 -84.5h-21q-18 -111 -18 -174q0 -194 157 -194q94 0 181.5 59t148.5 166l74 -51q-77 -143 -207 -224t-278 -81q-247 0 -363 225q-210 -223 -483 -223q-134 0 -212.5 65.5t-78.5 171.5zM369 252q0 -59 27 -92t75 -33q89 0 195 115l41 233 q-174 0 -256 -53t-82 -170zM1090 578q323 12 323 231q0 51 -23.5 78.5t-66.5 27.5q-85 0 -144.5 -85t-88.5 -252z" />
<glyph unicode="&#xe7;" horiz-adv-x="1157" d="M29 401q0 125 51 238.5t140 197.5t217 133.5t274 49.5q179 0 287 -81t108 -198q0 -87 -45 -138.5t-117 -51.5q-69 0 -111 43.5t-42 112.5q0 39 9 87t9 58q0 26 -26 42.5t-70 16.5q-119 0 -204 -145.5t-85 -370.5q0 -145 64.5 -222t179.5 -77q89 0 175 59t142 162l74 -53 q-72 -136 -202 -209t-302 -73q-257 0 -391.5 108.5t-134.5 310.5zM279 -377l47 101q129 -76 239 -76q39 0 62.5 20t23.5 56q0 81 -94 81q-26 0 -94 -14l67 209h88l-36 -115q74 9 77 9q78 0 127.5 -48.5t49.5 -124.5q0 -87 -60.5 -137.5t-165.5 -50.5q-69 0 -146 22.5 t-185 67.5z" />
<glyph unicode="&#xe8;" horiz-adv-x="1132" d="M27 399q0 126 50.5 239.5t140 198t222.5 134t289 49.5q169 0 260.5 -59.5t91.5 -161.5q0 -151 -159.5 -235.5t-462.5 -84.5h-21q-16 -99 -16 -174q0 -194 158 -194q94 0 181 59t148 166l74 -51q-82 -148 -211.5 -226.5t-290.5 -78.5q-203 0 -328.5 115.5t-125.5 303.5z M408 1417q0 47 29 77t73 30q65 0 123 -76l248 -318h-121l-275 179q-77 53 -77 108zM455 578q295 12 295 229q0 47 -25 74.5t-66 27.5q-77 0 -125.5 -80.5t-78.5 -250.5z" />
<glyph unicode="&#xe9;" horiz-adv-x="1132" d="M27 399q0 126 50.5 239.5t140 198t222.5 134t289 49.5q169 0 260.5 -59.5t91.5 -161.5q0 -151 -159.5 -235.5t-462.5 -84.5h-21q-16 -99 -16 -174q0 -194 158 -194q94 0 181 59t148 166l74 -51q-82 -148 -211.5 -226.5t-290.5 -78.5q-203 0 -328.5 115.5t-125.5 303.5z M455 578q295 12 295 229q0 47 -25 74.5t-66 27.5q-77 0 -125.5 -80.5t-78.5 -250.5zM477 1130l307 320q71 74 136 74q39 0 69.5 -32.5t30.5 -74.5q0 -65 -82 -110l-340 -177h-121z" />
<glyph unicode="&#xea;" horiz-adv-x="1132" d="M27 399q0 126 50.5 239.5t140 198t222.5 134t289 49.5q169 0 260.5 -59.5t91.5 -161.5q0 -151 -159.5 -235.5t-462.5 -84.5h-21q-16 -99 -16 -174q0 -194 158 -194q94 0 181 59t148 166l74 -51q-82 -148 -211.5 -226.5t-290.5 -78.5q-203 0 -328.5 115.5t-125.5 303.5z M334 1130l311 371h172l160 -371h-96l-174 173l-258 -173h-115zM455 578q295 12 295 229q0 47 -25 74.5t-66 27.5q-77 0 -125.5 -80.5t-78.5 -250.5z" />
<glyph unicode="&#xeb;" horiz-adv-x="1132" d="M27 399q0 126 50.5 239.5t140 198t222.5 134t289 49.5q169 0 260.5 -59.5t91.5 -161.5q0 -151 -159.5 -235.5t-462.5 -84.5h-21q-16 -99 -16 -174q0 -194 158 -194q94 0 181 59t148 166l74 -51q-82 -148 -211.5 -226.5t-290.5 -78.5q-203 0 -328.5 115.5t-125.5 303.5z M373 1317q0 56 42 98.5t99 42.5q58 0 99.5 -41t41.5 -100q0 -63 -39.5 -103t-101.5 -40q-60 0 -100.5 41.5t-40.5 101.5zM455 578q295 12 295 229q0 47 -25 74.5t-66 27.5q-77 0 -125.5 -80.5t-78.5 -250.5zM760 1317q0 56 43 98.5t100 42.5q59 0 100 -41t41 -100 q0 -63 -39.5 -103t-101.5 -40q-60 0 -101.5 41.5t-41.5 101.5z" />
<glyph unicode="&#xec;" horiz-adv-x="792" d="M-23 743q148 256 390 256q127 0 195.5 -56.5t68.5 -162.5q0 -60 -23 -139l-108 -367q-19 -67 -19 -86q0 -24 14.5 -39.5t36.5 -15.5q34 0 78 45.5t82 126.5l72 -37q-75 -152 -167 -219t-226 -67q-118 0 -189 57t-71 154q0 37 18 102l129 434q6 18 6 55q0 32 -14.5 51 t-36.5 19q-71 0 -170 -156zM199 1417q0 47 29 77t73 30q65 0 123 -76l248 -318h-121l-275 179q-77 53 -77 108z" />
<glyph unicode="&#xed;" horiz-adv-x="792" d="M-23 743q148 256 390 256q127 0 195.5 -56.5t68.5 -162.5q0 -60 -23 -139l-108 -367q-19 -67 -19 -86q0 -24 14.5 -39.5t36.5 -15.5q34 0 78 45.5t82 126.5l72 -37q-75 -152 -167 -219t-226 -67q-118 0 -189 57t-71 154q0 37 18 102l129 434q6 18 6 55q0 32 -14.5 51 t-36.5 19q-71 0 -170 -156zM268 1130l307 320q71 74 136 74q39 0 69.5 -32.5t30.5 -74.5q0 -65 -82 -110l-340 -177h-121z" />
<glyph unicode="&#xee;" horiz-adv-x="792" d="M-23 743q148 256 390 256q127 0 195.5 -56.5t68.5 -162.5q0 -60 -23 -139l-108 -367q-19 -67 -19 -86q0 -24 14.5 -39.5t36.5 -15.5q34 0 78 45.5t82 126.5l72 -37q-75 -152 -167 -219t-226 -67q-118 0 -189 57t-71 154q0 37 18 102l129 434q6 18 6 55q0 32 -14.5 51 t-36.5 19q-71 0 -170 -156zM125 1130l311 371h172l160 -371h-96l-174 173l-258 -173h-115z" />
<glyph unicode="&#xef;" horiz-adv-x="792" d="M-23 743q148 256 390 256q127 0 195.5 -56.5t68.5 -162.5q0 -60 -23 -139l-108 -367q-19 -67 -19 -86q0 -24 14.5 -39.5t36.5 -15.5q34 0 78 45.5t82 126.5l72 -37q-75 -152 -167 -219t-226 -67q-118 0 -189 57t-71 154q0 37 18 102l129 434q6 18 6 55q0 32 -14.5 51 t-36.5 19q-71 0 -170 -156zM164 1317q0 56 42 98.5t99 42.5q59 0 100 -41t41 -100q0 -63 -39.5 -103t-101.5 -40q-60 0 -100.5 41.5t-40.5 101.5zM551 1317q0 56 43 98.5t100 42.5q59 0 100.5 -41.5t41.5 -99.5q0 -63 -40 -103t-102 -40q-60 0 -101.5 41.5t-41.5 101.5z" />
<glyph unicode="&#xf0;" horiz-adv-x="1208" d="M33 418q0 205 151 370q88 95 204.5 148t232.5 53q56 0 131 -16q-41 154 -95 239l-290 -110l-35 98l274 105q-48 79 -108 170l143 86q84 -93 152 -181l270 101l45 -95l-246 -94q279 -378 279 -714q0 -267 -179.5 -431.5t-463.5 -164.5q-204 0 -334.5 120.5t-130.5 315.5z M395 252q0 -82 30.5 -125t86.5 -43q55 0 96.5 45t75.5 139q44 118 67 240t23 209q0 170 -106 170q-110 0 -181 -187q-46 -120 -69 -240.5t-23 -207.5z" />
<glyph unicode="&#xf1;" horiz-adv-x="1417" d="M-23 743q77 131 175.5 193.5t228.5 62.5q102 0 159.5 -43.5t57.5 -117.5q0 -14 -1.5 -29.5t-5.5 -36.5t-7.5 -36t-10.5 -45.5t-10 -45.5q216 354 467 354q104 0 165.5 -59.5t61.5 -159.5q0 -63 -22 -139l-111 -367q-18 -63 -18 -86q0 -24 14.5 -39.5t36.5 -15.5 q34 0 79 45.5t83 126.5l72 -37q-75 -151 -168 -218.5t-228 -67.5q-118 0 -188 56.5t-70 154.5q0 34 19 102l112 381q21 70 21 102q0 45 -35 45q-27 0 -72 -35.5t-91.5 -93t-89 -142.5t-62.5 -173l-84 -379h-369l164 739q8 39 8 52q0 63 -45 63q-35 0 -80.5 -40.5 t-89.5 -115.5zM518 1161q34 136 84 200t127 64q37 0 90 -12l123 -29q24 -6 47 -6q85 0 119 90h72q-33 -136 -82.5 -198t-132.5 -62q-29 0 -66 9l-108 26q-49 12 -74 12q-47 0 -75 -21.5t-48 -72.5h-76z" />
<glyph unicode="&#xf2;" horiz-adv-x="1247" d="M33 432q0 158 83.5 292t235 215t338.5 81q214 0 347.5 -125.5t133.5 -323.5q0 -254 -185 -421.5t-474 -167.5q-211 0 -345 124.5t-134 325.5zM408 260q0 -174 118 -174q109 0 179 190q45 121 68.5 246.5t23.5 216.5q0 176 -109 176q-112 0 -186 -192q-48 -124 -71 -248 t-23 -215zM455 1417q0 47 29 77t73 30q65 0 123 -76l248 -318h-121l-275 179q-77 53 -77 108z" />
<glyph unicode="&#xf3;" horiz-adv-x="1247" d="M33 432q0 158 83.5 292t235 215t338.5 81q214 0 347.5 -125.5t133.5 -323.5q0 -254 -185 -421.5t-474 -167.5q-211 0 -345 124.5t-134 325.5zM408 260q0 -174 118 -174q109 0 179 190q45 121 68.5 246.5t23.5 216.5q0 176 -109 176q-112 0 -186 -192q-48 -124 -71 -248 t-23 -215zM524 1130l307 320q71 74 136 74q39 0 69.5 -32.5t30.5 -74.5q0 -65 -82 -110l-340 -177h-121z" />
<glyph unicode="&#xf4;" horiz-adv-x="1247" d="M33 432q0 158 83.5 292t235 215t338.5 81q214 0 347.5 -125.5t133.5 -323.5q0 -254 -185 -421.5t-474 -167.5q-211 0 -345 124.5t-134 325.5zM381 1130l311 371h172l160 -371h-96l-174 173l-258 -173h-115zM408 260q0 -174 118 -174q109 0 179 190q45 121 68.5 246.5 t23.5 216.5q0 176 -109 176q-112 0 -186 -192q-48 -124 -71 -248t-23 -215z" />
<glyph unicode="&#xf5;" horiz-adv-x="1247" d="M33 432q0 158 83.5 292t235 215t338.5 81q214 0 347.5 -125.5t133.5 -323.5q0 -254 -185 -421.5t-474 -167.5q-211 0 -345 124.5t-134 325.5zM408 260q0 -174 118 -174q109 0 179 190q45 121 68.5 246.5t23.5 216.5q0 176 -109 176q-112 0 -186 -192q-48 -124 -71 -248 t-23 -215zM424 1161q34 136 84 200t127 64q37 0 90 -12l123 -29q24 -6 47 -6q85 0 119 90h71q-33 -136 -82.5 -198t-132.5 -62q-28 0 -65 9l-109 26q-49 12 -73 12q-47 0 -75 -21.5t-48 -72.5h-76z" />
<glyph unicode="&#xf6;" horiz-adv-x="1247" d="M33 432q0 158 83.5 292t235 215t338.5 81q214 0 347.5 -125.5t133.5 -323.5q0 -254 -185 -421.5t-474 -167.5q-211 0 -345 124.5t-134 325.5zM408 260q0 -174 118 -174q109 0 179 190q45 121 68.5 246.5t23.5 216.5q0 176 -109 176q-112 0 -186 -192q-48 -124 -71 -248 t-23 -215zM420 1317q0 56 42 98.5t99 42.5q59 0 100 -41t41 -100q0 -63 -39.5 -103t-101.5 -40q-60 0 -100.5 41.5t-40.5 101.5zM807 1317q0 56 43 98.5t100 42.5q59 0 100.5 -41.5t41.5 -99.5q0 -63 -40 -103t-102 -40q-60 0 -101.5 41.5t-41.5 101.5z" />
<glyph unicode="&#xf7;" horiz-adv-x="1705" d="M254 496v231h1198v-231h-1198zM688 205q0 69 49 117.5t117 48.5t116 -48.5t48 -117.5q0 -67 -47.5 -115.5t-116.5 -48.5q-68 0 -117 48t-49 116zM688 1016q0 69 49 117.5t117 48.5q66 0 115 -49t49 -117q0 -67 -48 -115.5t-118 -48.5q-69 0 -116.5 48t-47.5 116z" />
<glyph unicode="&#xf8;" horiz-adv-x="1247" d="M33 432q0 158 83.5 292t235 215t338.5 81q101 0 184 -29l123 189h107l-150 -224q106 -65 161.5 -163t55.5 -222q0 -254 -185 -421.5t-474 -167.5q-111 0 -190 32l-138 -200h-106l162 239q-100 56 -153.5 154t-53.5 225zM410 301l368 551q-25 61 -90 61 q-101 0 -173 -155.5t-105 -456.5zM422 164q31 -78 106 -78q97 0 168 163t101 470z" />
<glyph unicode="&#xf9;" horiz-adv-x="1417" d="M-23 713q75 151 167.5 218.5t226.5 67.5q118 0 189 -57t71 -154q0 -31 -19 -102l-112 -381q-21 -76 -21 -102q0 -45 37 -45q25 0 69 35t91 92t90.5 143t62.5 174l84 379h369l-164 -739q-10 -42 -10 -58q0 -57 47 -57q34 0 80 40.5t90 115.5l66 -45 q-77 -131 -175.5 -193.5t-228.5 -62.5q-104 0 -160.5 44t-56.5 124q0 41 33 186q-109 -179 -223.5 -266.5t-241.5 -87.5q-104 0 -166.5 59.5t-62.5 159.5q0 53 24 139l109 367q18 63 18 86q0 26 -14.5 40.5t-36.5 14.5q-34 0 -78 -44.5t-82 -125.5zM530 1417q0 47 29 77 t74 30q65 0 123 -76l248 -318h-121l-275 179q-78 54 -78 108z" />
<glyph unicode="&#xfa;" horiz-adv-x="1417" d="M-23 713q75 151 167.5 218.5t226.5 67.5q118 0 189 -57t71 -154q0 -31 -19 -102l-112 -381q-21 -76 -21 -102q0 -45 37 -45q25 0 69 35t91 92t90.5 143t62.5 174l84 379h369l-164 -739q-10 -42 -10 -58q0 -57 47 -57q34 0 80 40.5t90 115.5l66 -45 q-77 -131 -175.5 -193.5t-228.5 -62.5q-104 0 -160.5 44t-56.5 124q0 41 33 186q-109 -179 -223.5 -266.5t-241.5 -87.5q-104 0 -166.5 59.5t-62.5 159.5q0 53 24 139l109 367q18 63 18 86q0 26 -14.5 40.5t-36.5 14.5q-34 0 -78 -44.5t-82 -125.5zM600 1130l307 320 q71 74 135 74q39 0 70 -32.5t31 -74.5q0 -65 -82 -110l-340 -177h-121z" />
<glyph unicode="&#xfb;" horiz-adv-x="1417" d="M-23 713q75 151 167.5 218.5t226.5 67.5q118 0 189 -57t71 -154q0 -31 -19 -102l-112 -381q-21 -76 -21 -102q0 -45 37 -45q25 0 69 35t91 92t90.5 143t62.5 174l84 379h369l-164 -739q-10 -42 -10 -58q0 -57 47 -57q34 0 80 40.5t90 115.5l66 -45 q-77 -131 -175.5 -193.5t-228.5 -62.5q-104 0 -160.5 44t-56.5 124q0 41 33 186q-109 -179 -223.5 -266.5t-241.5 -87.5q-104 0 -166.5 59.5t-62.5 159.5q0 53 24 139l109 367q18 63 18 86q0 26 -14.5 40.5t-36.5 14.5q-34 0 -78 -44.5t-82 -125.5zM457 1130l311 371h172 l160 -371h-96l-175 173l-258 -173h-114z" />
<glyph unicode="&#xfc;" horiz-adv-x="1417" d="M-23 713q75 151 167.5 218.5t226.5 67.5q118 0 189 -57t71 -154q0 -31 -19 -102l-112 -381q-21 -76 -21 -102q0 -45 37 -45q25 0 69 35t91 92t90.5 143t62.5 174l84 379h369l-164 -739q-10 -42 -10 -58q0 -57 47 -57q34 0 80 40.5t90 115.5l66 -45 q-77 -131 -175.5 -193.5t-228.5 -62.5q-104 0 -160.5 44t-56.5 124q0 41 33 186q-109 -179 -223.5 -266.5t-241.5 -87.5q-104 0 -166.5 59.5t-62.5 159.5q0 53 24 139l109 367q18 63 18 86q0 26 -14.5 40.5t-36.5 14.5q-34 0 -78 -44.5t-82 -125.5zM496 1317q0 56 42 98.5 t99 42.5q59 0 100 -41t41 -100q0 -63 -39.5 -103t-101.5 -40q-60 0 -100.5 41.5t-40.5 101.5zM883 1317q0 56 43 98.5t100 42.5q58 0 99.5 -41t41.5 -100q0 -63 -39.5 -103t-101.5 -40q-60 0 -101.5 41.5t-41.5 101.5z" />
<glyph unicode="&#xfd;" horiz-adv-x="1318" d="M-23 713q75 151 167.5 218.5t226.5 67.5q118 0 189 -57t71 -154q0 -31 -19 -102l-84 -293q-18 -62 -18 -98q0 -26 8 -37.5t27 -11.5q22 0 59 31t78.5 85t82.5 142t64 186l68 291h365l-164 -739q-75 -341 -180 -480q-184 -245 -539 -245q-180 0 -287.5 76t-107.5 182 q0 55 43 93t106 38q78 0 125 -46t47 -128q0 -22 -14 -80q51 -33 86 -33q48 0 87 18t72 60t59.5 94.5t53 137t48 172t48.5 214.5q-93 -147 -191 -218.5t-210 -71.5q-100 0 -158.5 59t-58.5 160q0 66 20 139l95 324q18 63 18 86q0 26 -14.5 40.5t-36.5 14.5q-34 0 -78 -44.5 t-82 -125.5zM569 1130l308 320q71 74 135 74q39 0 69.5 -32.5t30.5 -74.5q0 -65 -82 -110l-340 -177h-121z" />
<glyph unicode="&#xfe;" horiz-adv-x="1341" d="M-135 -483l18 94h31q35 0 56 5t34 26t17 35t12 58q3 13 4 19l295 1475q14 82 14 110t-4 42.5t-25 22.5t-34.5 9t-61.5 3q-5 0 -7 0.5t-6 0.5h-7l18 94q113 -4 219 -4q86 0 320 15l-152 -725q139 204 346 204q142 0 222.5 -88.5t80.5 -244.5q0 -136 -46.5 -267 t-129.5 -231q-141 -170 -360 -170q-153 0 -244 119l-72 -373q-10 -52 -10 -63q0 -47 32.5 -58.5t133.5 -13.5l-18 -94q-278 4 -351 4q-63 0 -325 -4zM496 219q12 -37 41.5 -58.5t70.5 -21.5q110 0 180 180q82 213 82 367q0 129 -84 129q-112 0 -229 -276z" />
<glyph unicode="&#xff;" horiz-adv-x="1318" d="M-23 713q75 151 167.5 218.5t226.5 67.5q118 0 189 -57t71 -154q0 -31 -19 -102l-84 -293q-18 -62 -18 -98q0 -26 8 -37.5t27 -11.5q22 0 59 31t78.5 85t82.5 142t64 186l68 291h365l-164 -739q-75 -341 -180 -480q-184 -245 -539 -245q-180 0 -287.5 76t-107.5 182 q0 55 43 93t106 38q78 0 125 -46t47 -128q0 -22 -14 -80q51 -33 86 -33q48 0 87 18t72 60t59.5 94.5t53 137t48 172t48.5 214.5q-93 -147 -191 -218.5t-210 -71.5q-100 0 -158.5 59t-58.5 160q0 66 20 139l95 324q18 63 18 86q0 26 -14.5 40.5t-36.5 14.5q-34 0 -78 -44.5 t-82 -125.5zM465 1317q0 56 42 98.5t99 42.5q59 0 100.5 -41.5t41.5 -99.5q0 -63 -40 -103t-102 -40q-60 0 -100.5 41.5t-40.5 101.5zM852 1317q0 56 43 98.5t100 42.5q59 0 100.5 -41.5t41.5 -99.5q0 -63 -40 -103t-102 -40q-60 0 -101.5 41.5t-41.5 101.5z" />
<glyph unicode="&#x152;" horiz-adv-x="2418" d="M61 641q0 182 63.5 342.5t182.5 280.5q214 217 592 217q76 0 220 -5.5t212 -5.5h950v-114q0 -54 5 -314h-119v58q0 77 -15 126.5t-50 77t-82.5 38t-121.5 10.5h-270l-86 -533h78q64 0 102 7t68.5 29t47 61.5t28.5 107.5h108q-57 -287 -80 -563h-108q8 63 8 110 q0 82 -35.5 106.5t-144.5 24.5h-90l-92 -583h251q66 0 96.5 0.5t80 4.5t71.5 12.5t56.5 24.5t52 40t40.5 59.5t39.5 83.5t32.5 111h119q-56 -234 -96 -455h-995q-36 0 -187.5 -7t-267.5 -7q-325 0 -494.5 168.5t-169.5 486.5zM518 557q0 -234 85 -348.5t259 -114.5 q91 0 127 34.5t51 131.5l142 897q12 85 12 117q0 51 -37 73.5t-115 22.5q-241 0 -382.5 -219.5t-141.5 -593.5z" />
<glyph unicode="&#x153;" horiz-adv-x="1816" d="M33 432q0 158 83.5 292t235 215t338.5 81q215 0 334 -143q71 68 173.5 105.5t213.5 37.5q171 0 262.5 -59.5t91.5 -161.5q0 -151 -159.5 -235.5t-462.5 -84.5h-21q-18 -111 -18 -174q0 -194 160 -194q94 0 181 59t148 166l72 -51q-77 -145 -208 -225t-286 -80 q-191 0 -294 133q-128 -131 -365 -131q-211 0 -345 124.5t-134 325.5zM408 260q0 -174 118 -174q109 0 179 190q45 121 68.5 246.5t23.5 216.5q0 176 -109 176q-112 0 -186 -192q-48 -124 -71 -248t-23 -215zM1149 578q162 8 239.5 63.5t77.5 167.5q0 51 -22 80t-62 29 q-174 0 -233 -340z" />
<glyph unicode="&#x178;" horiz-adv-x="1327" d="M-37 1360v110q263 -10 359 -10q131 0 391 10v-110q-64 -5 -90.5 -16.5t-26.5 -40.5q0 -24 25 -82l202 -449l264 453q27 49 27 80t-29.5 42t-99.5 13v110q153 -10 209 -10q77 0 227 10l4 -110q-38 -3 -64 -12t-49.5 -33t-36 -41t-40.5 -62l-344 -542l-62 -394 q-12 -74 -12 -98q0 -42 33 -54t127 -15v-109q-277 10 -375 10q-97 0 -377 -10v109q73 2 108 14.5t50 40t25 88.5l55 352l-281 592q-27 57 -49.5 86.5t-63.5 50.5t-106 27zM455 1786q0 56 42 98.5t99 42.5q58 0 99.5 -41.5t41.5 -99.5q0 -63 -39.5 -103.5t-101.5 -40.5 q-60 0 -100.5 42t-40.5 102zM842 1786q0 56 43 98.5t100 42.5q59 0 100 -41.5t41 -99.5q0 -63 -39.5 -103.5t-101.5 -40.5q-60 0 -101.5 42t-41.5 102z" />
<glyph unicode="&#x2c6;" horiz-adv-x="1024" d="M279 1130l311 371h172l160 -371h-97l-174 173l-258 -173h-114z" />
<glyph unicode="&#x2dc;" horiz-adv-x="1024" d="M322 1161q34 136 83.5 200t126.5 64q38 0 91 -12l122 -29q24 -6 48 -6q84 0 118 90h72q-33 -136 -82.5 -198t-132.5 -62q-28 0 -66 9l-108 26q-49 12 -74 12q-47 0 -75 -21.5t-48 -72.5h-75z" />
<glyph unicode="&#x2000;" horiz-adv-x="996" />
<glyph unicode="&#x2001;" horiz-adv-x="1993" />
<glyph unicode="&#x2002;" horiz-adv-x="996" />
<glyph unicode="&#x2003;" horiz-adv-x="1993" />
<glyph unicode="&#x2004;" horiz-adv-x="664" />
<glyph unicode="&#x2005;" horiz-adv-x="498" />
<glyph unicode="&#x2006;" horiz-adv-x="332" />
<glyph unicode="&#x2007;" horiz-adv-x="332" />
<glyph unicode="&#x2008;" horiz-adv-x="249" />
<glyph unicode="&#x2009;" horiz-adv-x="398" />
<glyph unicode="&#x200a;" horiz-adv-x="110" />
<glyph unicode="&#x2010;" horiz-adv-x="612" d="M8 381l53 266h498l-51 -266h-500z" />
<glyph unicode="&#x2011;" horiz-adv-x="612" d="M8 381l53 266h498l-51 -266h-500z" />
<glyph unicode="&#x2012;" horiz-adv-x="612" d="M8 381l53 266h498l-51 -266h-500z" />
<glyph unicode="&#x2013;" horiz-adv-x="1024" d="M-53 406l43 217h1048l-43 -217h-1048z" />
<glyph unicode="&#x2014;" horiz-adv-x="2048" d="M-53 406l43 217h2097l-43 -217h-2097z" />
<glyph unicode="&#x2018;" horiz-adv-x="626" d="M115 1004q0 177 122 309t336 176l35 -78q-137 -40 -214 -108t-77 -125q0 -4 0.5 -7.5t2 -6t3.5 -4t5.5 -3t6.5 -2l9 -1.5t10 -1.5t12.5 -1.5t14.5 -2q76 -9 116 -55t40 -123q0 -93 -57 -155t-146 -62q-99 0 -159 67.5t-60 182.5z" />
<glyph unicode="&#x2019;" horiz-adv-x="626" d="M111 831q137 40 213.5 109t76.5 127q0 6 -1 10t-3.5 6.5t-5 4t-9 3t-11.5 2l-15 1.5t-18 2q-156 21 -156 176q0 93 57 155t146 62q100 0 159.5 -66.5t59.5 -181.5q0 -177 -122.5 -309t-336.5 -176z" />
<glyph unicode="&#x201a;" horiz-adv-x="626" d="M16 -281q137 40 214 109t77 127q0 6 -1 10t-3.5 6.5t-5 4t-9 3t-11.5 2l-15 1.5t-18 2q-156 21 -156 176q0 93 57 155t146 62q100 0 159.5 -66.5t59.5 -181.5q0 -177 -122.5 -309t-336.5 -176z" />
<glyph unicode="&#x201c;" horiz-adv-x="1165" d="M115 1004q0 177 122 309t336 176l35 -78q-137 -40 -214 -108t-77 -125q0 -4 0.5 -7.5t2 -6t3.5 -4t5.5 -3t6.5 -2l9 -1.5t10 -1.5t12.5 -1.5t14.5 -2q76 -9 116 -55t40 -123q0 -93 -57 -155t-146 -62q-99 0 -159 67.5t-60 182.5zM657 1004q0 177 121.5 309t335.5 176 l35 -78q-137 -40 -213 -108t-76 -125q0 -4 0.5 -7.5t2 -6t3 -4t5 -3t6 -2t8.5 -1.5t10 -1.5t12.5 -1.5t14.5 -2q76 -9 116.5 -55t40.5 -123q0 -93 -57 -155t-145 -62q-99 0 -159.5 67.5t-60.5 182.5z" />
<glyph unicode="&#x201d;" horiz-adv-x="1165" d="M111 834q137 40 213.5 108t76.5 125q0 6 -1 10t-3.5 6.5t-5 4t-9 3t-11.5 2l-15 1.5t-18 2q-76 10 -116 55.5t-40 122.5q0 93 57 155t146 62q100 0 159.5 -67.5t59.5 -182.5q0 -177 -122.5 -309t-336.5 -176zM651 831q137 40 214 109t77 127q0 6 -1 10t-3.5 6.5t-5 4 t-9 3t-11.5 2l-15 1.5t-18 2q-156 21 -156 176q0 93 57 155t146 62q100 0 159.5 -67.5t59.5 -182.5q0 -177 -122.5 -308t-336.5 -175z" />
<glyph unicode="&#x201e;" horiz-adv-x="1165" d="M16 -281q137 40 214 109t77 127q0 6 -1 10t-3.5 6.5t-5 4t-9 3t-11.5 2l-15 1.5t-18 2q-156 21 -156 176q0 93 57 155t146 62q100 0 159.5 -66.5t59.5 -181.5q0 -177 -122.5 -309t-336.5 -176zM559 -281q137 40 214 109t77 127q0 6 -1 10t-4 6.5t-5.5 4t-9 3t-11 2 t-15 1.5t-18.5 2q-155 21 -155 176q0 93 57 155t146 62q100 0 159.5 -66.5t59.5 -181.5q0 -177 -122.5 -309t-336.5 -176z" />
<glyph unicode="&#x2022;" horiz-adv-x="1208" d="M307 762q0 123 87 209t210 86q122 0 208.5 -86t86.5 -209q0 -122 -87 -209.5t-210 -87.5t-209 87t-86 210z" />
<glyph unicode="&#x2026;" horiz-adv-x="2048" d="M111 182q0 79 55.5 137t136.5 58t138 -57.5t57 -137.5q0 -81 -58 -137.5t-137 -56.5q-78 0 -135 57.5t-57 136.5zM793 182q0 79 55.5 137t136.5 58t138 -57.5t57 -137.5q0 -81 -58 -137.5t-137 -56.5q-78 0 -135 57.5t-57 136.5zM1477 182q0 79 55.5 137t136.5 58 t138 -57.5t57 -137.5q0 -81 -58 -137.5t-137 -56.5q-78 0 -135 57.5t-57 136.5z" />
<glyph unicode="&#x202f;" horiz-adv-x="398" />
<glyph unicode="&#x2039;" horiz-adv-x="616" d="M47 508q135 84 261 172.5t180 127t69 38.5q10 0 17.5 -7t7.5 -16q0 -14 -10 -33.5t-36.5 -51.5t-51.5 -60.5t-76 -85t-89 -100.5q31 -72 67.5 -142t53.5 -103.5t17 -45.5q0 -8 -6.5 -13.5t-16.5 -5.5q-14 0 -40 17.5t-86.5 70.5t-105 94t-155.5 144z" />
<glyph unicode="&#x203a;" horiz-adv-x="616" d="M-4 205q0 14 10.5 33.5t37 52t51.5 61t76 85t89 100.5q-32 71 -69 142t-53.5 104.5t-16.5 45.5q0 17 22 17q25 0 102.5 -65.5t256.5 -230.5q20 -19 30 -28q-135 -84 -261 -173t-181 -128t-70 -39q-10 0 -17 7t-7 16z" />
<glyph unicode="&#x205f;" horiz-adv-x="498" />
<glyph unicode="&#x20ac;" d="M-29 518l37 105h135q3 110 19 186h-150l37 104h141q90 254 265 395.5t389 141.5q231 0 356 -172l29 86l100 -4q-30 -210 -67 -391h-105q2 16 2 47q0 150 -69.5 233.5t-188.5 83.5q-122 0 -201 -104.5t-127 -315.5h496l-37 -104h-479q-15 -77 -27 -186h439l-37 -105h-406 v-39q0 -171 75 -275t196 -104q200 0 331 312l97 -54q-88 -198 -211.5 -288t-311.5 -90q-229 0 -373 140t-178 398h-176z" />
<glyph unicode="&#x2122;" horiz-adv-x="1683" d="M217 1262l12 198h457l12 -198h-36q-6 78 -37.5 115.5t-92.5 37.5v-420q0 -43 31 -49l31 -6v-33h-272v33l30 6q31 6 31 49v420h-4q-115 0 -127 -153h-35zM745 907v33l35 6q35 6 35 49v375q0 43 -35 49l-35 6v35h222l127 -356l123 356h206v-26l-22 -7q-20 -4 -27.5 -15.5 t-7.5 -33.5v-383q0 -22 7.5 -33.5t27.5 -15.5l22 -6v-33h-260v33l31 6q35 6 35 49v355l-148 -445h-43l-166 457v-367q0 -43 35 -49l35 -6v-33h-197z" />
<glyph unicode="&#xe000;" horiz-adv-x="1013" d="M0 0v1014h1014v-1014h-1014z" />
<glyph unicode="&#xfb01;" horiz-adv-x="1474" d="M-49 -436q82 202 129.5 413.5t93.5 503.5l49 318h-198l18 110h197q25 298 187 457.5t435 159.5q204 0 319 -70.5t115 -183.5q0 -71 -45 -117.5t-116 -46.5q-73 0 -118.5 43.5t-45.5 114.5q0 35 12 69t12 37q0 24 -25.5 38.5t-70.5 14.5q-59 0 -102.5 -20.5t-74.5 -58.5 t-53 -103.5t-36.5 -143t-26.5 -190.5h240q112 0 217 21t169 42t79 21q61 0 61 -63q0 -24 -10 -58l-180 -598q-19 -70 -19 -86q0 -24 14.5 -39.5t36.5 -15.5q34 0 79 45.5t83 126.5l72 -37q-75 -151 -167.5 -218.5t-227.5 -67.5q-118 0 -188 56.5t-70 154.5q0 41 18 102 l94 321q21 75 21 111q0 49 -29 60.5t-119 11.5h-192l-56 -350q-43 -272 -80.5 -452t-93.5 -333z" />
<glyph unicode="&#xfb02;" horiz-adv-x="1474" d="M-49 -436q82 202 129.5 413.5t93.5 503.5l49 318h-198l18 110h197q25 298 187 457.5t435 159.5q146 0 287 -72q120 10 281 41l-252 -1221q-15 -73 -15 -86q0 -26 14.5 -40.5t36.5 -14.5q34 0 79 45.5t83 126.5l72 -37q-74 -149 -165.5 -217.5t-219.5 -68.5 q-118 0 -189 57t-71 154q0 30 14 102l107 504h-336l-56 -350q-43 -272 -80.5 -452t-93.5 -333zM604 909h344l74 363v8q0 42 -45.5 97t-112.5 55q-110 0 -170 -125.5t-90 -397.5z" />
</font>
</defs>
</svg>
