<?xml version="1.0" standalone="no"?>
<!DOCTYPE svg PUBLIC "-//W3C//DTD SVG 1.1//EN" "http://www.w3.org/Graphics/SVG/1.1/DTD/svg11.dtd" >
<svg xmlns="http://www.w3.org/2000/svg">
<metadata></metadata>
<defs>
<font id="century751_no2_btbold_italic" horiz-adv-x="1266" >
<font-face units-per-em="2048" ascent="1556" descent="-492" />
<missing-glyph horiz-adv-x="633" />
<glyph horiz-adv-x="2048" />
<glyph horiz-adv-x="2048" />
<glyph unicode="&#xd;" horiz-adv-x="633" />
<glyph unicode=" "  horiz-adv-x="633" />
<glyph unicode="&#x09;" horiz-adv-x="633" />
<glyph unicode="&#xa0;" horiz-adv-x="633" />
<glyph unicode="!" horiz-adv-x="731" d="M119 150q0 64 47.5 111.5t112.5 47.5t112 -47t47 -112q0 -68 -47 -114t-117 -46q-62 0 -108.5 47.5t-46.5 112.5zM266 426q8 152 14 404q11 435 56 530q25 51 68.5 87t89.5 42q51 -25 80.5 -82t29.5 -131q0 -80 -110 -421q-87 -270 -138 -443z" />
<glyph unicode="&#x22;" horiz-adv-x="707" d="M80 1350q0 52 28 83t74 31q48 0 75.5 -29t27.5 -81q0 -16 -0.5 -24.5t-1.5 -16.5l-80 -461h-41l-80 461q-1 7 -1.5 14.5t-0.5 22.5zM418 1350q0 53 28 83.5t76 30.5q49 0 77 -29.5t28 -80.5q0 -6 -1 -15t-3 -26l-80 -461h-41l-80 461q-2 12 -3 21t-1 16z" />
<glyph unicode="#" horiz-adv-x="1575" d="M45 406l74 196h287l88 248h-304l74 199h299l148 415h215l-148 -415h254l150 415h213l-148 -415h283l-74 -199h-278l-88 -248h292l-71 -196h-291l-148 -416h-215l148 416h-254l-150 -416h-215l148 416h-289zM614 600h265l88 252h-262z" />
<glyph unicode="$" d="M78 315q0 81 45 139t104 58q53 0 87 -35t34 -90q0 -48 -24 -92t-74 -86q22 -55 84.5 -90t146.5 -39l84 506q-201 72 -294 174t-93 250q0 201 141.5 318.5t386.5 119.5l31 178h92l-30 -182q167 -21 267.5 -109t100.5 -211q0 -72 -38.5 -119t-96.5 -47q-51 0 -81.5 35 t-30.5 92q0 39 14 79t45 89q-29 45 -75.5 70t-116.5 35l-82 -494q199 -64 302 -173.5t103 -258.5q0 -199 -149.5 -324.5t-391.5 -125.5h-10l-37 -215h-92l37 221q-177 19 -283 109t-106 218zM438 1128q0 -83 41.5 -136t134.5 -89l78 454q-116 -1 -185 -63.5t-69 -165.5z M576 82q116 3 189 74t73 180q0 70 -46.5 125t-138.5 92z" />
<glyph unicode="%" horiz-adv-x="1810" d="M76 1010q0 198 100.5 319t263.5 121q165 0 266 -121t101 -319q0 -199 -101 -320t-266 -121q-163 0 -263.5 121t-100.5 320zM291 1010q0 -187 36.5 -277t112.5 -90t113 90t37 277q0 186 -37 276t-113 90t-112.5 -90t-36.5 -276zM381 -18l926 1468h123l-926 -1468h-123z M1006 422q0 198 100.5 319t263.5 121q165 0 265 -120.5t100 -319.5t-100 -319.5t-265 -120.5q-163 0 -263.5 120.5t-100.5 319.5zM1221 422q0 -187 36.5 -277t112.5 -90t113 90t37 277q0 186 -37 276t-113 90t-112.5 -90t-36.5 -276z" />
<glyph unicode="&#x26;" horiz-adv-x="1567" d="M68 412q0 161 107.5 275.5t295.5 150.5q-134 29 -202 99.5t-68 180.5q0 161 133.5 266t343.5 105q180 0 303 -85t123 -202q0 -53 -31.5 -85t-85.5 -32q-62 0 -92.5 48t-30.5 145q0 4 1 17.5t1 23.5q0 34 -39 55t-102 21q-108 0 -170.5 -78.5t-62.5 -212.5 q0 -95 46.5 -158.5t141.5 -97.5l-33 -82q-24 2 -46 8t-42 17q-89 -37 -143 -130t-54 -208q0 -156 101.5 -257.5t259.5 -101.5q181 0 294 105.5t113 271.5q0 48 -11 93.5t-34 90.5q-43 7 -78 10t-63 3q-46 0 -79.5 -18.5t-53.5 -55.5q41 -26 62.5 -64t21.5 -86 q0 -56 -31 -90.5t-82 -34.5q-55 0 -90 44.5t-35 115.5q0 136 108 215.5t294 79.5q63 0 164.5 -7t140.5 -7q58 0 85 16.5t50 61.5l55 -23q-33 -111 -68.5 -146.5t-121.5 -35.5q-23 0 -60 2t-83 6q13 -52 18.5 -88.5t5.5 -71.5q0 -227 -169.5 -363t-459.5 -136 q-250 0 -399 117t-149 313z" />
<glyph unicode="'" horiz-adv-x="365" d="M78 1350q0 53 28 83.5t76 30.5t75.5 -29t27.5 -81q0 -16 -0.5 -24.5t-1.5 -16.5l-80 -461h-41l-80 461q-2 12 -3 21t-1 16z" />
<glyph unicode="(" horiz-adv-x="862" d="M168 485q0 345 178.5 619t507.5 432l41 -68q-237 -131 -375.5 -412t-138.5 -634q0 -215 69 -426t201 -402l-59 -55q-210 229 -317 468.5t-107 477.5z" />
<glyph unicode=")" horiz-adv-x="862" d="M-94 -393q238 133 375 412.5t137 635.5q0 215 -68 425t-200 401l57 55q209 -228 316.5 -468.5t107.5 -477.5q0 -346 -177.5 -619t-506.5 -432z" />
<glyph unicode="*" horiz-adv-x="989" d="M195 954q0 52 42.5 80.5t221.5 65.5l22 -41q-20 -22 -55 -60q-100 -110 -154 -110q-19 0 -38.5 8.5t-36.5 23.5q-1 8 -1.5 15t-0.5 18zM195 1268q0 8 0.5 15.5t1.5 14.5q20 18 38 26.5t33 8.5q58 0 162 -116q32 -36 51 -56l-22 -39q-19 5 -54 13q-210 47 -210 133z M444 838q0 28 33 134q15 47 23 75h47q9 -30 25 -80q32 -102 32 -129q0 -40 -19.5 -65.5t-60.5 -39.5q-41 14 -60.5 39t-19.5 66zM444 1384q0 41 19 66t61 39q41 -14 60.5 -39t19.5 -66q0 -23 -29 -115q-18 -58 -28 -93h-47q-8 26 -22 72q-34 109 -34 136zM567 1061l23 39 q11 -3 31 -7q233 -50 233 -143l-1.5 -10t-2.5 -18q-18 -17 -36.5 -25t-37.5 -8q-52 0 -160 119q-31 34 -49 53zM569 1163q20 21 54 59q99 111 157 111q16 0 35 -9t37 -26q1 -8 1.5 -14.5t0.5 -11.5q0 -94 -238 -144q-18 -4 -26 -6z" />
<glyph unicode="+" horiz-adv-x="1706" d="M254 512v199h498v510h202v-510h498v-199h-498v-512h-202v512h-498z" />
<glyph unicode="," horiz-adv-x="633" d="M4 -285q128 47 203.5 113t75.5 129q0 16 -4.5 21.5t-22.5 5.5h-16q-71 0 -110.5 39t-39.5 110q0 77 47 126.5t119 49.5q83 0 134.5 -57.5t51.5 -151.5q0 -163 -105 -279.5t-302 -170.5z" />
<glyph unicode="-" horiz-adv-x="647" d="M29 403l41 211h493l-41 -211h-493z" />
<glyph unicode="." horiz-adv-x="633" d="M104 154q0 62 48 108.5t112 46.5q66 0 113 -46.5t47 -112.5q0 -69 -47 -114.5t-117 -45.5q-63 0 -109.5 48t-46.5 116z" />
<glyph unicode="/" horiz-adv-x="696" d="M-135 -190l747 1679h144l-746 -1679h-145z" />
<glyph unicode="0" d="M63 582q0 374 191.5 621t474.5 247q216 0 343.5 -153t127.5 -414q0 -388 -193 -644.5t-475 -256.5q-207 0 -338 166t-131 434zM365 451q0 -186 47 -279.5t141 -93.5q76 0 135.5 65.5t106.5 200.5q51 150 77.5 321t26.5 349q0 172 -44.5 256t-135.5 84q-145 0 -249.5 -259 t-104.5 -644z" />
<glyph unicode="1" horiz-adv-x="856" d="M-31 0l15 92h24q182 0 227 259l1 1l124 711q7 31 10 60.5t3 54.5q0 34 -12.5 48.5t-41.5 14.5q-8 0 -27.5 -3t-39.5 -7l-131 -29l-19 78q165 33 319 74t302 90l-201 -1110q-8 -51 -12 -84.5t-4 -54.5q0 -59 30 -81t111 -22h31l-14 -92q-145 6 -223.5 8t-131.5 2 q-42 0 -113 -2t-227 -8z" />
<glyph unicode="2" d="M4 80q86 108 191 210.5t233 205.5l22 17q379 306 379 525q0 137 -76 215t-208 78q-127 0 -219.5 -75t-92.5 -171q0 -17 1 -26.5t2 -16.5h22q85 0 138 -45.5t53 -117.5q0 -60 -38 -97t-100 -37q-85 0 -141.5 78t-56.5 197q0 190 141 310t371 120q241 0 379.5 -119.5 t138.5 -329.5q0 -136 -77.5 -246t-238.5 -200q-51 -29 -159 -83q-336 -169 -484 -325q109 65 185 93t141 28q61 0 185 -19.5t186 -19.5q70 0 111.5 42t74.5 153l74 -18q-40 -266 -99.5 -346t-203.5 -80q-106 0 -291 33.5t-258 33.5q-47 0 -100.5 -14.5t-129.5 -48.5z" />
<glyph unicode="3" d="M49 348q0 79 41.5 129.5t104.5 50.5q55 0 92 -38.5t37 -96.5q0 -57 -33 -101t-92 -67q40 -69 109 -105t161 -36q150 0 242 94.5t92 247.5q0 113 -69 169t-208 56q-3 0 -32.5 -1.5t-56.5 -2.5l32 104q172 10 276.5 105t104.5 238q0 113 -73 183.5t-189 70.5 q-94 0 -162.5 -49t-85.5 -128q77 -6 119.5 -44t42.5 -101q0 -59 -38 -96t-99 -37q-80 0 -131.5 58t-51.5 149q0 145 139.5 247.5t348.5 102.5q212 0 340.5 -96t128.5 -252q0 -149 -123 -248.5t-357 -138.5q239 -8 348 -87.5t109 -244.5q0 -180 -151.5 -294t-395.5 -114 q-230 0 -375 106t-145 267z" />
<glyph unicode="4" d="M23 377l12 174q276 310 490 526t421 396l76 -84q-273 -226 -485 -431t-349 -374h496l90 524l295 70l-100 -594l182 2l-74 -209h-143l-19 -126q-2 -20 -3 -34t-1 -27q0 -52 27.5 -75t91.5 -23h19l-15 -92q-136 6 -209.5 8t-122.5 2q-38 0 -104 -2t-209 -8l14 92h13 q114 0 158 38t61 149l14 98h-626z" />
<glyph unicode="5" d="M72 322q0 77 37 124.5t98 47.5q58 0 94.5 -37t36.5 -97q0 -52 -26.5 -94t-80.5 -76q38 -46 95 -71t127 -25q150 0 249 118.5t99 299.5q0 127 -67 201.5t-181 74.5q-57 0 -119.5 -22.5t-138.5 -71.5l-86 58l121 708q231 -41 395 -63.5t236 -22.5q50 0 80 17t63 61l59 -51 q-88 -152 -161 -206t-183 -54q-56 0 -170.5 15.5t-253.5 43.5l-73 -395q81 52 167 78t177 26q194 0 317 -113t123 -294q0 -223 -163 -368.5t-411 -145.5q-201 0 -330.5 95.5t-129.5 238.5z" />
<glyph unicode="6" d="M74 584q0 172 51 327t147 273q101 124 236 192t283 68q158 0 271.5 -93.5t113.5 -220.5q0 -67 -37.5 -109t-96.5 -42q-53 0 -85.5 32.5t-32.5 86.5q0 48 23 90.5t63 64.5q-45 53 -92 76t-109 23q-173 0 -279.5 -160t-138.5 -469q84 93 168.5 136.5t181.5 43.5 q180 0 297 -114t117 -287q0 -213 -168.5 -365.5t-404.5 -152.5q-237 0 -372.5 159t-135.5 441zM375 453q0 -177 57 -276t158 -99q113 0 186.5 117.5t73.5 306.5q0 124 -53 193t-148 69q-63 0 -125.5 -38t-138.5 -124q-5 -53 -7.5 -89t-2.5 -60z" />
<glyph unicode="7" d="M152 1004q35 112 67.5 225.5t63.5 228.5l71 -12l-41 -174q59 114 98 144t105 30q87 0 259.5 -26.5t254.5 -26.5q64 0 102.5 14t63.5 47l74 -39q-72 -155 -272.5 -493t-254.5 -539q-28 -107 -48 -266q-20 -154 -64 -154q-10 0 -22.5 5.5t-41.5 25.5l-112 86 q-27 19 -37 39.5t-10 54.5q0 85 88.5 244t248.5 356q132 160 209.5 277t114.5 209q-46 -51 -92 -76t-94 -25q-61 0 -192 16.5t-202 16.5q-95 0 -146.5 -44t-115.5 -183z" />
<glyph unicode="8" d="M51 356q0 141 97 235t280 132q-120 50 -176.5 126.5t-56.5 188.5q0 182 136 297t357 115q216 0 342.5 -97.5t126.5 -258.5q0 -115 -73 -193.5t-228 -130.5q131 -54 195.5 -139.5t64.5 -204.5q0 -196 -158.5 -321t-408.5 -125q-228 0 -363 103t-135 273zM322 354 q0 -126 65.5 -201t175.5 -75q109 0 181.5 74.5t72.5 185.5q0 110 -67 185t-215 130q-110 -52 -161.5 -125t-51.5 -174zM469 1122q0 -102 69 -173t214 -118q81 53 121 128.5t40 175.5q0 98 -57.5 158.5t-150.5 60.5q-102 0 -169 -66t-67 -166z" />
<glyph unicode="9" d="M74 293q0 66 37.5 108.5t95.5 42.5q54 0 85.5 -31.5t31.5 -84.5q0 -47 -23 -87t-65 -67q32 -43 86.5 -66.5t121.5 -23.5q161 0 262.5 148t147.5 452q-65 -88 -153 -133t-195 -45q-171 0 -276 109t-105 286q0 225 168.5 386t406.5 161q214 0 345 -155t131 -414 q0 -177 -56.5 -346t-154.5 -287q-101 -120 -237 -187t-279 -67q-162 0 -268.5 87t-106.5 214zM414 926q0 -124 52 -194t142 -70q67 0 131 41.5t133 132.5q7 47 10 93t3 91q0 157 -52.5 243.5t-146.5 86.5q-117 0 -194.5 -119.5t-77.5 -304.5z" />
<glyph unicode=":" horiz-adv-x="686" d="M102 154q0 62 48 108.5t112 46.5q66 0 113 -46.5t47 -112.5q0 -68 -47 -114t-117 -46q-64 0 -110 47.5t-46 116.5zM205 772q0 65 47 111.5t113 46.5q67 0 113 -47t46 -117q0 -62 -47.5 -109t-111.5 -47q-66 0 -113 48.5t-47 113.5z" />
<glyph unicode=";" horiz-adv-x="686" d="M4 -285q128 47 203.5 113t75.5 129q0 16 -4.5 21.5t-22.5 5.5h-16q-71 0 -110.5 39t-39.5 110q0 77 47 126.5t119 49.5q83 0 134.5 -57.5t51.5 -151.5q0 -163 -105 -279.5t-302 -170.5zM205 772q0 65 47 111.5t113 46.5q67 0 113 -47t46 -117q0 -62 -47.5 -109 t-111.5 -47q-66 0 -113 48.5t-47 113.5z" />
<glyph unicode="&#x3c;" horiz-adv-x="1706" d="M264 512v199l1178 483v-219l-893 -365l893 -364v-219z" />
<glyph unicode="=" horiz-adv-x="1706" d="M254 297v199h1198v-199h-1198zM254 727v199h1198v-199h-1198z" />
<glyph unicode="&#x3e;" horiz-adv-x="1706" d="M264 27v219l895 364l-895 365v219l1178 -483v-199z" />
<glyph unicode="?" horiz-adv-x="1030" d="M143 1149q0 133 113.5 231.5t271.5 98.5q176 0 291 -105.5t115 -267.5q0 -112 -49.5 -204t-210.5 -240q-84 -77 -118 -130t-50 -116l-92 16q18 166 107 316l3 5q6 10 16 26q122 200 122 341q0 124 -50.5 191t-144.5 67q-71 0 -123 -42t-59 -107q50 -18 80 -58t30 -90 q0 -49 -29 -79.5t-75 -30.5q-63 0 -105.5 50.5t-42.5 127.5zM266 150q0 64 47.5 111.5t112.5 47.5t112.5 -47t47.5 -112q0 -68 -47.5 -114t-116.5 -46q-63 0 -109.5 47.5t-46.5 112.5z" />
<glyph unicode="@" horiz-adv-x="2019" d="M133 535q0 155 52 298.5t153 264.5q145 174 346.5 267t435.5 93q349 0 558.5 -189t209.5 -503q0 -161 -59 -299.5t-170 -239.5q-59 -53 -126.5 -80.5t-137.5 -27.5q-98 0 -155 52t-64 148q-62 -100 -134.5 -148t-160.5 -48q-142 0 -222.5 91t-80.5 251q0 114 50 221.5 t144 196.5q69 64 148 97.5t161 33.5q96 0 150.5 -45t71.5 -138l49 164h190l-174 -618l-2 -7q-14 -58 -14 -87q0 -47 20.5 -74t54.5 -27q33 0 85 25t98 63q103 88 158 217t55 285q0 275 -188.5 446t-489.5 171q-138 0 -262 -38t-228 -112q-173 -121 -266.5 -308.5 t-93.5 -416.5q0 -335 210.5 -532t565.5 -197q166 0 319.5 50.5t307.5 156.5l39 -51q-151 -113 -318 -169.5t-348 -56.5q-187 0 -347.5 46t-277.5 133q-151 112 -232 277.5t-81 363.5zM788 362q0 -79 34.5 -125.5t92.5 -46.5q64 0 124.5 62t115.5 182q40 92 63 185.5 t23 162.5q0 80 -32 123t-91 43q-62 0 -112.5 -44.5t-100.5 -143.5q-57 -114 -87 -215t-30 -183z" />
<glyph unicode="A" horiz-adv-x="1321" d="M-125 0v94q71 2 116 40t111 175l465 961q42 46 76 96t62 104l204 27l197 -1198l2 -13q31 -184 180 -192v-94q-146 6 -210.5 8t-98.5 2q-58 0 -138 -2.5t-204 -7.5v94q93 5 120 25.5t27 79.5q0 23 -1.5 41t-4.5 37l-37 241h-424l-124 -258q-15 -29 -22 -53.5t-7 -44.5 q0 -39 24.5 -52.5t108.5 -15.5v-94q-95 6 -140 8t-73 2q-30 0 -76 -2t-133 -8zM362 618h367l-82 601z" />
<glyph unicode="B" horiz-adv-x="1427" d="M10 90q78 4 108.5 28t45.5 107l158 976q5 32 8.5 61.5t3.5 44.5q0 35 -27 50.5t-106 20.5v94q77 -3 140 -4.5t112 -1.5q98 0 227.5 3.5t161.5 3.5q227 0 341.5 -85.5t114.5 -254.5q0 -175 -118 -278.5t-328 -113.5q193 -18 298 -111.5t105 -246.5q0 -191 -129.5 -292 t-375.5 -101q-71 0 -239.5 6t-266.5 6q-62 0 -118 -0.5t-115 -1.5zM457 97q39 -4 73.5 -5.5t65.5 -1.5q172 0 250 84t78 268q0 126 -64 184t-205 58h-104zM569 795l7 -1q66 -3 98 -3q153 0 225 87.5t72 274.5q0 117 -50.5 171t-158.5 54q-13 0 -37.5 -1.5t-60.5 -4.5z" />
<glyph unicode="C" horiz-adv-x="1430" d="M68 635q0 371 229 612.5t580 241.5q129 0 238 -44t192 -130l36 84l84 -4q-20 -102 -38.5 -212.5t-38.5 -246.5h-92q2 38 4 64.5t2 35.5q0 154 -86.5 247t-229.5 93q-233 0 -373.5 -208.5t-140.5 -553.5q0 -248 97.5 -379t281.5 -131q137 0 242.5 76.5t179.5 229.5l82 -41 q-89 -195 -239 -291t-365 -96q-298 0 -471.5 175.5t-173.5 477.5z" />
<glyph unicode="D" horiz-adv-x="1612" d="M10 96q79 0 109.5 22.5t44.5 106.5l158 975q5 33 8.5 61.5t3.5 45.5q0 36 -28.5 50.5t-104.5 14.5v98q111 -3 197 -4.5t147 -1.5q5 0 107.5 3t201.5 3q329 0 508.5 -167.5t179.5 -473.5q0 -186 -63.5 -350.5t-178.5 -275.5q-108 -106 -254 -154.5t-360 -48.5 q-52 0 -161.5 3t-166.5 3q-39 0 -125 -1.5t-222 -4.5zM469 107q18 -2 51 -5q74 -6 107 -6q137 0 215 27.5t141 93.5q90 94 145.5 277t55.5 397q0 244 -93 362.5t-284 118.5q-24 0 -95 -3q-24 0 -38 -1z" />
<glyph unicode="E" horiz-adv-x="1456" d="M0 0v98q86 0 118 22t46 105l158 975q5 33 8.5 61.5t3.5 45.5q0 36 -28.5 50.5t-104.5 14.5v98h1128v-415h-94v35q0 166 -53.5 224t-212.5 58h-295l-92 -563h84q149 0 200.5 43t69.5 168h88q-25 -125 -45 -261t-35 -292h-88q1 10 3 29q5 57 5 79q0 82 -33 109t-147 27 h-119l-98 -613h324q129 0 187.5 14t98.5 48q43 36 75 99t67 183h94q-26 -107 -49 -217.5t-43 -224.5h-1221z" />
<glyph unicode="F" horiz-adv-x="1305" d="M0 0v92q85 2 117.5 25t46.5 108l158 975q5 33 8.5 61.5t3.5 45.5q0 34 -25.5 48.5t-89.5 14.5h-18v100h1079l-2 -415h-94v35q0 165 -53 222.5t-213 57.5h-244l-92 -571h84q146 0 197.5 41.5t70.5 163.5h88q-24 -123 -43.5 -259.5t-34.5 -289.5h-88l3 30q5 59 5 82 q0 80 -33.5 106.5t-146.5 26.5h-119l-69 -432q-6 -39 -9.5 -66.5t-3.5 -41.5q0 -37 33 -51.5t147 -16.5v-92q-135 6 -219 8t-145 2q-43 0 -280 -9z" />
<glyph unicode="G" horiz-adv-x="1548" d="M63 627q0 371 232 616.5t579 245.5q146 0 259 -46.5t196 -139.5l35 86l84 -5q-20 -97 -38.5 -209.5t-39.5 -259.5l-90 1q3 30 3.5 44.5t0.5 26.5q0 181 -87.5 285t-238.5 104q-244 0 -389 -220t-145 -593q0 -237 85.5 -361t248.5 -124q64 0 121.5 21t117.5 67l29 180 q3 18 4.5 34t1.5 30q0 44 -28 58.5t-138 14.5v94q107 -5 181.5 -7.5t132.5 -2.5q46 0 118 2.5t193 7.5v-94q-90 -4 -118.5 -27.5t-45.5 -133.5l-49 -322h-88l-10 104q-104 -61 -217.5 -91.5t-237.5 -30.5q-314 0 -488 169t-174 476z" />
<glyph unicode="H" horiz-adv-x="1698" d="M10 0l1 92q76 3 107 26t46 107l158 976q5 32 8.5 61.5t3.5 44.5q0 36 -27.5 51t-105.5 18v94q115 -5 188 -7.5t123 -2.5q52 0 127 2.5t192 7.5v-94q-99 -4 -131 -26.5t-47 -112.5l-69 -424h559l61 387q7 38 11 67.5t4 39.5q0 36 -27.5 51t-105.5 18v94q112 -5 182 -7.5 t118 -2.5q54 0 126.5 2.5t179.5 7.5l-1 -94q-80 -3 -110.5 -26.5t-44.5 -104.5l-156 -977q-7 -39 -10.5 -65.5t-3.5 -36.5q0 -38 27.5 -54t105.5 -20v-92q-128 6 -197.5 8t-113.5 2q-45 0 -117.5 -2t-201.5 -8v92q102 5 133.5 28.5t46.5 110.5l77 482h-559l-71 -445 q-6 -40 -9.5 -66.5t-3.5 -35.5q0 -38 28 -54t105 -20v-92q-122 6 -190.5 8t-112.5 2q-41 0 -107.5 -2t-195.5 -8z" />
<glyph unicode="I" horiz-adv-x="817" d="M-10 0v92q92 2 126 26t48 113l158 969q6 44 9 68t3 35q0 38 -28 54t-113 19v94q117 -5 192 -7.5t127 -2.5q51 0 123.5 2.5t191.5 7.5v-94q-91 -1 -125.5 -25t-48.5 -114l-157 -969q-7 -34 -10 -57t-3 -37q0 -43 25.5 -59.5t126.5 -22.5l-1 -92q-130 6 -202.5 8t-118.5 2 q-44 0 -114.5 -2t-208.5 -8z" />
<glyph unicode="J" horiz-adv-x="1034" d="M-176 -12q0 66 40 107.5t103 41.5q72 0 121 -55t49 -137q0 -30 -11 -88l-1 -6q16 -6 29 -8.5t24 -2.5q77 0 122 76t75 264l162 1020q6 40 10 69t4 36q0 40 -34.5 55.5t-131.5 15.5h-33v94q139 -5 222 -7.5t137 -2.5q46 0 121 2.5l225 7.5v-93q-108 -4 -141.5 -28.5 t-47.5 -113.5l-137 -873q-32 -195 -71.5 -289t-106.5 -167q-76 -82 -178 -125t-219 -43q-146 0 -239 71t-93 179z" />
<glyph unicode="K" horiz-adv-x="1475" d="M-10 0v92q92 2 126 26t48 113l158 969q5 33 8.5 61.5t3.5 45.5q0 35 -28 50.5t-105 18.5v94q114 -5 186 -7.5t123 -2.5q49 0 119 2.5t186 7.5v-93q-87 -4 -119.5 -28t-46.5 -112l-86 -524q272 261 403.5 410.5t131.5 199.5q0 25 -23 37.5t-73 15.5v94q30 -1 86 -4 q103 -6 147 -6q24 0 95.5 4.5t113.5 5.5v-93q-3 0 -7 0.5t-14 0.5q-90 0 -353 -293q-122 -136 -198 -217q214 -297 394 -622q19 -35 26 -47q36 -63 76 -85t117 -22l-1 -92q-58 2 -165 6t-145 4q-40 0 -156 -4t-184 -6v92q69 0 93.5 11.5t24.5 39.5q0 41 -38 116t-171 278 l-84 129l-118 -99l-49 -299q-7 -42 -9 -60.5t-2 -31.5q0 -44 25 -61t125 -23v-92q-137 6 -207 8t-115 2t-115.5 -2t-203.5 -8z" />
<glyph unicode="L" horiz-adv-x="1323" d="M0 0v92q85 2 117.5 25t46.5 108l158 976q5 32 8.5 61.5t3.5 44.5q0 36 -27.5 51t-105.5 18v94q111 -5 184.5 -7.5t126.5 -2.5q54 0 130.5 2.5t195.5 7.5v-94q-105 -4 -137.5 -27.5t-47.5 -111.5l-184 -1139h270q131 0 189.5 14t97.5 48q47 40 80 109t61 192h95 q-26 -117 -69 -341q-16 -81 -24 -120h-1169z" />
<glyph unicode="M" horiz-adv-x="1892" d="M-41 0v92q91 2 126.5 31t57.5 141l185 940q6 33 10 62t4 43q0 34 -28.5 49t-112.5 18v94q92 -5 158.5 -7.5t119.5 -2.5q26 0 71 2t167 8l180 -993l506 993q10 0 31 -1q152 -7 215 -7q54 0 193 6q32 2 48 2v-94h-10q-77 0 -108.5 -27t-47.5 -120l-149 -963 q-6 -35 -9 -58.5t-3 -31.5q0 -48 28 -65t129 -19v-92q-130 6 -202.5 8t-118.5 2q-45 0 -116.5 -2t-213.5 -8v92q93 0 128.5 30.5t51.5 137.5l156 1000l-606 -1203l-137 -34l-224 1224l-192 -987q-7 -32 -11 -56t-4 -30q0 -45 31 -62.5t127 -19.5v-92q-81 5 -134 7.5t-91 2.5 q-23 0 -63 -2t-142 -8z" />
<glyph unicode="N" horiz-adv-x="1599" d="M-12 0v92q87 2 122 36t54 142l155 934q4 23 6.5 42t2.5 32q0 55 -40 76.5t-149 21.5v94q83 -5 136 -7.5t90 -2.5q36 0 86.5 3t130.5 7l632 -1083l127 778q7 37 11 67t4 42q0 56 -33.5 78t-126.5 25v93q72 -5 128 -7.5t101 -2.5q28 0 74 3t127 7v-93q-86 -2 -122 -36 t-54 -143l-197 -1186l-182 -22l-663 1145l-136 -832q-1 -11 -5 -33q-9 -63 -9 -73q0 -58 33.5 -80.5t123.5 -24.5l1 -92q-89 6 -139.5 8t-88.5 2q-25 0 -66.5 -2t-133.5 -8z" />
<glyph unicode="O" horiz-adv-x="1597" d="M68 651q0 149 43.5 283.5t128.5 243.5q116 150 281 229.5t362 79.5q285 0 466 -186.5t181 -483.5q0 -147 -44 -281.5t-128 -244.5q-115 -149 -279.5 -230t-351.5 -81q-293 0 -476 186t-183 485zM420 518q0 -213 75 -325.5t216 -112.5q92 0 170 51.5t139 153.5 q74 122 117 304.5t43 379.5q0 201 -78.5 310.5t-220.5 109.5q-94 0 -173.5 -56t-140.5 -164q-67 -122 -107 -297.5t-40 -353.5z" />
<glyph unicode="P" horiz-adv-x="1386" d="M0 0v92q85 2 117.5 25t46.5 108l158 976q5 32 8.5 61.5t3.5 44.5q0 35 -26 50.5t-107 23.5v91q84 -3 146 -4.5t104 -1.5q44 0 162 3.5t192 3.5q267 0 406 -106t139 -308q0 -221 -153.5 -333t-457.5 -112q-49 0 -165 7q-12 1 -19 2l-59 -355q-6 -33 -9.5 -60t-3.5 -42 q0 -43 35.5 -58.5t147.5 -15.5l-1 -92q-126 5 -209 7.5t-143 2.5q-40 0 -107 -2t-206 -8zM571 727q10 0 29 -1q48 -3 66 -3q179 0 260.5 91.5t81.5 291.5q0 142 -64.5 208t-202.5 66h-45h-20z" />
<glyph unicode="Q" horiz-adv-x="1597" d="M70 651q0 189 75.5 358.5t212.5 288.5q107 91 238 139t274 48q291 0 472.5 -193t181.5 -501q0 -224 -107 -410t-301 -301q25 -98 78 -143.5t143 -45.5q47 0 90.5 15t92.5 47v-86q-76 -60 -162 -92.5t-170 -32.5q-127 0 -215 67t-113 183q-46 -5 -85 -7.5t-73 -2.5 q-274 0 -453 189t-179 480zM414 539q0 -56 8.5 -108t26.5 -103q81 51 154 75.5t142 24.5q89 0 153 -37t116 -117q82 119 129 295t47 365q0 213 -78.5 332.5t-216.5 119.5q-110 0 -201.5 -70.5t-156.5 -207.5q-59 -123 -91 -270.5t-32 -298.5zM485 240q32 -77 93 -117.5 t143 -40.5q26 0 55.5 5t69.5 15q-16 94 -64 138.5t-135 44.5q-36 0 -76 -11t-86 -34z" />
<glyph unicode="R" horiz-adv-x="1501" d="M4 0v92q84 2 116 24.5t46 108.5l158 976q5 32 8.5 61.5t3.5 44.5q0 35 -25.5 50.5t-107.5 25.5v90q87 -4 160 -6.5t120 -2.5q90 0 222.5 4.5t175.5 4.5q245 0 367 -88.5t122 -266.5q0 -173 -123.5 -268.5t-361.5 -106.5q165 -37 240 -112.5t75 -204.5q0 -43 -8 -110 t-8 -91q0 -45 20 -70.5t56 -25.5q37 0 71.5 30t71.5 93l70 -45q-62 -112 -153 -169.5t-206 -57.5q-120 0 -187 63t-67 176q0 43 15.5 137t15.5 146q0 110 -61.5 153t-223.5 43h-43l-71 -429q-6 -36 -9.5 -67t-3.5 -38q0 -37 28.5 -52.5t112.5 -19.5v-92q-124 6 -195.5 8 t-115.5 2q-43 0 -109.5 -2t-195.5 -8zM578 799q9 -1 44.5 -3.5t59.5 -2.5q165 0 256.5 89.5t91.5 250.5q0 127 -65 188t-199 61h-55h-37z" />
<glyph unicode="S" horiz-adv-x="1247" d="M51 39q26 123 43 247.5t25 250.5h94q-2 -15 -3 -32t-1 -48q0 -175 89.5 -277t242.5 -102q111 0 180.5 62.5t69.5 162.5q0 159 -264 321q-38 23 -58 35q-184 115 -248.5 200t-64.5 194q0 188 139.5 312t357.5 124q109 0 206.5 -32.5t191.5 -100.5l32 71h82 q-21 -99 -36.5 -205.5t-26.5 -228.5h-92v6q0 191 -79.5 290.5t-232.5 99.5q-108 0 -173.5 -60t-65.5 -158q0 -123 249 -272q35 -21 53 -32q198 -120 273.5 -218.5t75.5 -224.5q0 -194 -146.5 -318t-377.5 -124q-123 0 -229 35t-193 106l-23 -84h-90z" />
<glyph unicode="T" horiz-adv-x="1442" d="M63 1079q9 34 28 105q51 188 77 295q68 -4 133.5 -6.5t128.5 -2.5h840q57 0 110.5 2.5t106.5 5.5q-3 -102 -4.5 -209.5t-1.5 -221.5h-82v30q0 165 -58.5 232t-199.5 67h-162l-176 -1093q-10 -57 -13.5 -81.5t-3.5 -31.5q0 -40 35.5 -59t110.5 -19h37l-1 -92 q-137 6 -222.5 8t-147.5 2q-43 0 -114 -2t-218 -8v92h31q85 0 121 25.5t49 109.5l188 1149h-155q-161 0 -239 -66.5t-114 -230.5h-84z" />
<glyph unicode="U" horiz-adv-x="1599" d="M193 369q0 63 25 220q5 29 7 43l95 569l3 21q11 71 11 85q0 36 -26.5 51t-106.5 18v94q115 -5 188 -7.5t123 -2.5q52 0 127 2.5t192 7.5v-94q-100 -4 -132.5 -27t-47.5 -112l-102 -629q-18 -115 -23.5 -162.5t-5.5 -80.5q0 -131 75 -199t218 -68q115 0 199.5 46.5 t134.5 136.5q57 100 105 413l3 22l76 484q5 28 7.5 53.5t2.5 44.5q0 43 -25 58.5t-132 19.5v94q93 -5 142.5 -7.5t82.5 -2.5q29 0 76 2.5t133 7.5v-93q-93 -2 -128 -28t-48 -112l-113 -698q-47 -291 -196.5 -424t-425.5 -133q-253 0 -383.5 98.5t-130.5 288.5z" />
<glyph unicode="V" horiz-adv-x="1356" d="M33 1377v93q130 -5 198 -7.5t111 -2.5q55 0 134 2.5t202 7.5v-94q-80 0 -110.5 -18t-30.5 -64q0 -16 8 -64q3 -13 4 -20l176 -891l379 824q25 56 39 98.5t14 63.5q0 63 -144 71h-1v94q75 -5 124 -7.5t85 -2.5q35 0 87 2.5t130 7.5l-1 -94q-64 -4 -100.5 -34.5 t-93.5 -151.5l-561 -1184l-195 -24l-276 1245q-22 100 -55 122t-123 28z" />
<glyph unicode="W" horiz-adv-x="2177" d="M37 1377v93q130 -5 198 -7.5t111 -2.5q55 0 132.5 2.5t201.5 7.5v-94q-79 0 -109 -18t-30 -64q0 -15 2.5 -35.5t7.5 -48.5l168 -891l373 842l-13 66q-15 92 -49 118t-124 31l-1 94q131 -5 198.5 -7.5t110.5 -2.5q56 0 135 2.5t201 7.5v-94q-79 0 -110 -18.5t-31 -65.5 q0 -12 2 -30t8 -52l129 -884l375 817q25 56 39 98.5t14 63.5q0 63 -143 71h-2v94q75 -5 124 -7.5t85 -2.5q35 0 85.5 2.5t129.5 7.5v-93q-62 -4 -98.5 -34t-94.5 -153l-563 -1184l-192 -24l-185 1009l-446 -985l-193 -24l-270 1245q-22 100 -54 122t-122 28z" />
<glyph unicode="X" horiz-adv-x="1407" d="M-37 0v92q107 4 233 156l7 8l356 430l-217 488q-57 125 -103.5 163.5t-121.5 38.5h-6v94q145 -6 215 -8t112 -2q50 0 126.5 2.5t213.5 7.5v-94h-18q-68 0 -96.5 -13t-28.5 -42q0 -17 6.5 -39.5t17.5 -46.5l140 -299l250 307q21 27 28.5 44t7.5 34q0 28 -26.5 42.5 t-77.5 14.5h-10v92q78 -5 127.5 -7.5t85.5 -2.5q34 0 84 2.5t129 7.5l-1 -94q-60 -2 -111.5 -34.5t-135.5 -133.5l-305 -362l258 -549q8 -17 22 -47q72 -158 203 -158v-92q-157 6 -221 8t-98 2q-60 0 -143 -2.5t-209 -7.5l-1 92q70 0 100.5 13t30.5 42q0 16 -6 39t-18 50 l-162 360l-283 -371q-16 -22 -22 -36.5t-6 -30.5q0 -28 26.5 -44t81.5 -22v-92q-92 6 -140.5 8t-78.5 2q-29 0 -74.5 -2t-140.5 -8z" />
<glyph unicode="Y" horiz-adv-x="1245" d="M-6 1377v93q141 -6 204 -8t101 -2q49 0 125 2.5t205 7.5v-94q-73 -7 -95 -19.5t-22 -39.5q0 -12 6 -32t19 -48l213 -485l282 489q12 22 19.5 44t7.5 36q0 28 -29 41t-100 15v93q77 -5 126 -7.5t83 -2.5q32 0 79 2.5t125 7.5l2 -94q-57 -3 -95.5 -29.5t-94.5 -117.5 l-358 -580l-62 -381q-5 -28 -7.5 -52t-2.5 -42q0 -43 25 -59.5t124 -22.5v-92q-130 6 -202.5 8t-118.5 2t-117.5 -2t-206.5 -8l1 92q92 2 126 27t47 112l64 383l-272 596q-44 94 -85.5 126.5t-115.5 40.5z" />
<glyph unicode="Z" horiz-adv-x="1432" d="M-2 0l917 1368h-249q-255 0 -326.5 -60t-99.5 -229h-88q17 128 26 226t11 180q85 -7 179 -11t195 -4h795l-918 -1368h371q210 0 293 70.5t121 269.5h88q-23 -115 -42 -228t-34 -226q-113 6 -210 9t-157 3h-872z" />
<glyph unicode="[" horiz-adv-x="801" d="M90 -406l328 1913q43 -13 86 -19.5t88 -6.5q57 0 117 6.5t129 19.5l-15 -88q-47 -13 -98 -19.5t-107 -6.5h-24l-293 -1688h18q41 0 87.5 -6t101.5 -18l-14 -87q-51 13 -107 19t-123 6q-54 0 -94.5 -6t-79.5 -19z" />
<glyph unicode="\" horiz-adv-x="696" d="M72 1489h137l453 -1679h-138z" />
<glyph unicode="]" horiz-adv-x="801" d="M-109 -410l17 91q43 13 89.5 19.5t98.5 6.5h39l293 1688h-14q-38 0 -83.5 6t-109.5 20l15 90q53 -15 110.5 -22.5t118.5 -7.5q51 0 92.5 7.5t81.5 22.5l-328 -1921q-42 15 -85 22t-89 7q-60 0 -120.5 -7t-125.5 -22z" />
<glyph unicode="^" horiz-adv-x="2048" d="M412 897l493 565h236l491 -565h-112l-498 373l-498 -373h-112z" />
<glyph unicode="_" horiz-adv-x="1024" d="M0 -279h1024v-204h-1024v204z" />
<glyph unicode="`" horiz-adv-x="1024" d="M360 1407q0 40 27.5 68t65.5 28q28 0 55 -16.5t53 -50.5l248 -314h-104l-273 185q-36 25 -54 49.5t-18 50.5z" />
<glyph unicode="a" horiz-adv-x="1253" d="M18 285q0 126 46 255.5t129 235.5q86 112 190.5 173t208.5 61q82 0 136 -30t83 -91l39 121h264l-176 -729q-9 -33 -12.5 -55t-3.5 -38q0 -29 14.5 -46t38.5 -17q38 0 77 41.5t76 122.5l64 -29q-63 -139 -151.5 -208.5t-202.5 -69.5q-91 0 -138 42.5t-47 125.5q0 19 3 47 t10 63q-82 -134 -186.5 -206t-215.5 -72q-115 0 -180.5 80t-65.5 223zM324 305q0 -81 24 -119.5t76 -38.5q66 0 158 106.5t118 217.5l70 291q-6 78 -39.5 120t-89.5 42q-58 0 -111.5 -50.5t-99.5 -148.5q-49 -103 -77.5 -217t-28.5 -203z" />
<glyph unicode="b" horiz-adv-x="1184" d="M-18 20q31 50 52 106.5t38 143.5l190 971q7 36 10.5 66.5t3.5 48.5q0 68 -118 74q-14 1 -23 2l15 79q15 0 43 -1q103 -3 141 -3q53 0 116.5 3.5t151.5 11.5l-170 -828q80 150 180.5 228.5t210.5 78.5q134 0 207.5 -86t73.5 -243q0 -127 -43 -245.5t-125 -217.5 q-95 -114 -210.5 -170.5t-250.5 -56.5q-65 0 -125 15.5t-121 47.5l-186 -55zM332 150q0 -37 27.5 -59.5t72.5 -22.5q84 0 147.5 56t125.5 185q51 111 80.5 224.5t29.5 193.5q0 70 -23 100.5t-75 30.5q-69 0 -155 -106.5t-169 -296.5l-55 -267q-3 -16 -4.5 -25t-1.5 -13z" />
<glyph unicode="c" horiz-adv-x="1067" d="M33 393q0 256 179 436.5t433 180.5q160 0 256 -71.5t96 -186.5q0 -66 -35.5 -107t-91.5 -41q-55 0 -87.5 37t-32.5 98q0 30 6 71.5t6 51.5q0 28 -27 44t-73 16q-132 0 -223 -156.5t-91 -386.5q0 -142 61.5 -219.5t172.5 -77.5q93 0 177 63.5t136 173.5l61 -40 q-67 -149 -185.5 -223t-289.5 -74q-211 0 -329.5 108.5t-118.5 302.5z" />
<glyph unicode="d" horiz-adv-x="1257" d="M18 289q0 117 43.5 240t120.5 227q83 110 182 168.5t201 58.5q84 0 138.5 -33t89.5 -104l90 395q8 33 12 63t4 52q0 71 -132 75q-14 0 -22 1l15 79q17 0 48 -1q106 -3 144 -3q47 0 110.5 3.5t168.5 11.5l-281 -1256q-5 -20 -7.5 -37.5t-2.5 -29.5q0 -37 15 -57.5 t40 -20.5q36 0 75 41.5t83 128.5l61 -31q-72 -147 -157.5 -212.5t-204.5 -65.5q-87 0 -133.5 43.5t-46.5 124.5q0 26 3.5 52.5t10.5 55.5q-85 -136 -187 -206t-214 -70q-125 0 -196 81.5t-71 225.5zM324 303q0 -79 28 -120.5t82 -41.5q70 0 156.5 99t111.5 211l62 266 q-11 67 -45.5 103t-89.5 36t-104 -37.5t-89 -109.5q-49 -88 -80.5 -203t-31.5 -203z" />
<glyph unicode="e" horiz-adv-x="1051" d="M31 377q0 263 188 449t465 186q142 0 220.5 -55.5t78.5 -153.5q0 -148 -161.5 -232t-448.5 -84h-11q-11 -54 -16.5 -104.5t-5.5 -93.5q0 -100 39 -148.5t121 -48.5q94 0 179 59.5t144 167.5l60 -40q-75 -146 -194.5 -222.5t-270.5 -76.5q-178 0 -282.5 107t-104.5 290z M377 570q173 4 260.5 65t87.5 178q0 50 -26.5 78.5t-73.5 28.5q-88 0 -148.5 -85.5t-99.5 -264.5z" />
<glyph unicode="f" horiz-adv-x="758" d="M-16 -436q50 144 96.5 360t99.5 557l56 346h-199l16 95h197q28 283 165.5 442.5t350.5 159.5q133 0 212 -61t79 -160q0 -65 -35.5 -105.5t-91.5 -40.5q-57 0 -92 36t-35 95q0 31 10 66t10 39q0 17 -18 30t-43 13q-85 0 -130 -90t-95 -424h247l-16 -95h-246l-61 -383 q-48 -305 -87 -481.5t-85 -310.5z" />
<glyph unicode="g" horiz-adv-x="1151" d="M-68 -229q0 60 38.5 101.5t92.5 41.5q50 0 80.5 -33t30.5 -86q0 -28 -14.5 -68t-14.5 -53q0 -25 38 -43t96 -18q137 0 217 133.5t149 503.5q-80 -116 -169 -173t-191 -57q-123 0 -192.5 85t-69.5 233q0 115 42 240t113 223q74 101 169 155t200 54q70 0 123 -28t92 -85 l24 94h281q-54 -251 -116.5 -604.5t-88.5 -441.5q-57 -198 -205 -308t-356 -110q-168 0 -268.5 67t-100.5 177zM324 332q0 -74 26.5 -114t75.5 -40q71 0 153 99t103 210l55 285q-10 60 -42.5 93.5t-80.5 33.5q-54 0 -103.5 -40.5t-88.5 -117.5q-44 -84 -71 -198t-27 -211z " />
<glyph unicode="h" horiz-adv-x="1268" d="M35 0l254 1241q8 40 11 65.5t3 47.5q0 70 -120 76q-15 1 -23 2l14 79q15 0 44 -1q103 -3 140 -3q51 0 112.5 3.5t156.5 11.5l-176 -830q108 161 209 233t217 72q95 0 150.5 -53t55.5 -143q0 -35 -8.5 -79.5t-25.5 -100.5l-115 -357q-11 -36 -16 -59.5t-5 -38.5 q0 -27 15 -42t41 -15q40 0 85.5 47t90.5 135l59 -31q-70 -145 -156 -211.5t-202 -66.5q-105 0 -165 50t-60 136q0 22 5.5 51t16.5 64l123 383q14 43 21.5 77.5t7.5 57.5q0 28 -13.5 42.5t-40.5 14.5q-76 0 -191.5 -148t-152.5 -317l-84 -393h-278z" />
<glyph unicode="i" horiz-adv-x="743" d="M-6 741q64 122 161 189t205 67q99 0 155 -47.5t56 -130.5q0 -26 -6 -61t-18 -78l-127 -428q-6 -20 -9 -38.5t-3 -35.5q0 -35 13.5 -52t41.5 -17q40 0 84 46t90 136l61 -31q-71 -144 -159.5 -211t-206.5 -67q-99 0 -158 51t-59 137q0 23 5 52t15 61l135 456q4 14 6.5 30 t2.5 34q0 35 -13.5 52t-40.5 17q-36 0 -80 -42.5t-92 -124.5zM295 1290q0 81 47.5 133t120.5 52q65 0 108 -39t43 -99q0 -76 -58.5 -132t-135.5 -56q-50 0 -87.5 42.5t-37.5 98.5z" />
<glyph unicode="j" horiz-adv-x="725" d="M-352 -266q0 52 36 89.5t89 37.5q57 0 94 -45.5t37 -116.5q0 -11 -5 -45q-2 -16 -3 -27q12 -9 22 -12.5t21 -3.5q104 0 193 394l3 13l168 746q2 10 3 20.5t1 20.5q0 37 -14.5 55.5t-44.5 18.5q-41 0 -87.5 -46.5t-88.5 -130.5l-60 37q66 129 158 193.5t209 64.5 q101 0 157 -49t56 -137q0 -38 -18 -119q-2 -9 -3 -12l-139 -639q-32 -142 -67 -215t-93 -133q-76 -80 -173 -124t-193 -44q-113 0 -185.5 59t-72.5 150zM295 1290q0 81 47.5 133t120.5 52q65 0 108 -39t43 -99q0 -76 -58.5 -132t-135.5 -56q-50 0 -87.5 42.5t-37.5 98.5z " />
<glyph unicode="k" horiz-adv-x="1255" d="M29 0l254 1241q8 40 11 65.5t3 47.5q0 72 -128 77q-9 0 -13 1l14 79q16 0 47 -1q99 -3 135 -3q51 0 112.5 3.5t156.5 11.5l-193 -947q111 212 236.5 323.5t253.5 111.5q80 0 131 -44t51 -114q0 -110 -122 -213.5t-323 -161.5q121 -10 170 -39.5t72 -101.5q10 -33 19 -98 q14 -121 77 -121q41 0 76.5 39t77.5 133l59 -31q-63 -146 -141.5 -212t-190.5 -66q-119 0 -178 68t-59 208q0 17 1 41.5t1 32.5q0 59 -20.5 88t-67.5 35l14 65q138 32 211.5 99t73.5 159q0 43 -15.5 62.5t-50.5 19.5q-37 0 -79 -29.5t-91 -91.5q-88 -109 -160.5 -249 t-86.5 -214l-56 -274h-282z" />
<glyph unicode="l" horiz-adv-x="696" d="M78 172q0 19 3.5 44t14.5 73l205 954q7 31 10.5 59.5t3.5 53.5q0 68 -114 74q-19 1 -29 2l16 81q32 0 95.5 -3t91.5 -3q45 0 105.5 3.5t166.5 11.5l-270 -1253l-2 -10q-13 -66 -13 -83q0 -29 16 -47t42 -18q38 0 82.5 47t89.5 135l61 -31q-73 -146 -157 -213t-193 -67 q-106 0 -165.5 50t-59.5 140z" />
<glyph unicode="m" horiz-adv-x="1915" d="M-23 748q74 127 165.5 188t207.5 61q92 0 140.5 -40.5t48.5 -118.5q0 -24 -7 -63.5t-24 -115.5q115 179 220.5 258.5t223.5 79.5q79 0 125.5 -40.5t46.5 -108.5q0 -29 -7 -67t-23 -95q116 168 216 239.5t216 71.5q95 0 151 -53t56 -143q0 -35 -8.5 -79.5t-26.5 -100.5 l-115 -357q-11 -37 -15.5 -59.5t-4.5 -38.5q0 -26 15.5 -41.5t41.5 -15.5q39 0 84 46.5t90 135.5l61 -31q-72 -145 -158 -211.5t-202 -66.5q-104 0 -163.5 49t-59.5 135q0 28 5 57t15 60l123 383q14 43 21.5 77.5t7.5 57.5q0 28 -13.5 42.5t-39.5 14.5q-77 0 -191.5 -146.5 t-152.5 -318.5l-86 -393h-289l168 689q9 38 13.5 64t4.5 42q0 32 -11 47.5t-34 15.5q-73 0 -185.5 -147t-150.5 -318l-88 -393h-289l162 727q5 23 7.5 43.5t2.5 38.5q0 32 -13 50t-36 18q-42 0 -89 -41.5t-99 -126.5z" />
<glyph unicode="n" horiz-adv-x="1341" d="M-23 748q74 127 165.5 188t207.5 61q92 0 140.5 -40.5t48.5 -118.5q0 -24 -7 -63.5t-24 -115.5q115 180 220.5 259t225.5 79q95 0 152 -53.5t57 -142.5q0 -33 -8.5 -75.5t-28.5 -104.5l-112 -356l-2 -7q-21 -69 -21 -92q0 -26 16 -41.5t42 -15.5q39 0 84 46.5t90 135.5 l61 -31q-73 -147 -157.5 -212.5t-200.5 -65.5q-105 0 -165.5 50t-60.5 136q0 25 5.5 54t15.5 61l123 383q17 52 23.5 83t6.5 52q0 28 -13 42.5t-40 14.5q-77 0 -191.5 -146.5t-152.5 -318.5l-88 -393h-289l162 727q5 23 7.5 43.5t2.5 38.5q0 32 -13 50t-36 18 q-42 0 -89 -41.5t-99 -126.5z" />
<glyph unicode="o" horiz-adv-x="1157" d="M33 416q0 238 177.5 416t420.5 178q200 0 318 -118.5t118 -316.5q0 -245 -174.5 -419t-423.5 -174q-196 0 -316 119.5t-120 314.5zM330 262q0 -92 37 -142t104 -50q57 0 108.5 49.5t92.5 142.5q44 102 71 232t27 237q0 96 -32.5 145.5t-96.5 49.5q-63 0 -115.5 -48 t-93.5 -145q-47 -109 -74.5 -236.5t-27.5 -234.5z" />
<glyph unicode="p" horiz-adv-x="1264" d="M-90 -467l14 82h23q97 0 120 123q2 10 3 14l190 979q6 31 9 55t3 37q0 32 -13 48t-38 16q-36 0 -85.5 -44.5t-102.5 -125.5l-53 41q82 129 177 190.5t212 61.5q86 0 129 -43t43 -129q0 -13 -4.5 -42t-14.5 -79q71 137 167.5 209.5t207.5 72.5q131 0 205 -88t74 -245 q0 -277 -149 -471.5t-361 -194.5q-75 0 -133 30.5t-103 92.5l-72 -367q-6 -34 -8 -47t-2 -20q0 -43 26 -57.5t135 -16.5l-13 -82q-20 1 -56 2q-181 6 -250 6q-56 0 -208 -5q-47 -2 -72 -3zM449 217q15 -45 51.5 -71.5t83.5 -26.5q53 0 99.5 37t82.5 108q47 91 77.5 213.5 t30.5 216.5q0 73 -26.5 113.5t-73.5 40.5q-65 0 -128.5 -73.5t-133.5 -231.5z" />
<glyph unicode="q" horiz-adv-x="1151" d="M25 326q0 116 40.5 240.5t110.5 221.5q75 104 171 157.5t206 53.5q97 0 166.5 -42t107.5 -123q52 28 94.5 69t79.5 96h86l-256 -1228q0 -2 -1 -7q-7 -43 -7 -61q0 -44 23 -63.5t79 -24.5l-16 -82q-19 1 -54 2q-170 6 -237 6q-69 0 -238 -6q-32 -1 -48 -2l17 82 q104 4 138.5 29t49.5 96l102 489q-80 -116 -167.5 -172.5t-186.5 -56.5q-122 0 -191 86.5t-69 239.5zM324 326q0 -74 28.5 -115t79.5 -41q73 0 155.5 97t106.5 214l58 279q-9 63 -44 100t-83 37q-57 0 -107.5 -41t-91.5 -119q-46 -87 -74 -200.5t-28 -210.5z" />
<glyph unicode="r" horiz-adv-x="977" d="M-23 748q74 126 165.5 187.5t207.5 61.5q90 0 133 -39t43 -120q0 -19 -7 -60t-19 -94q67 150 152.5 230.5t174.5 80.5q81 0 126.5 -45t45.5 -125q0 -73 -39 -119.5t-102 -46.5q-52 0 -86.5 33.5t-34.5 81.5q0 10 1 26.5t1 22.5q0 17 -3.5 22t-14.5 5q-59 0 -129.5 -128.5 t-114.5 -328.5l-88 -393h-289l162 727q5 23 7.5 43.5t2.5 38.5q0 32 -13 50t-36 18q-42 0 -89 -41.5t-99 -126.5z" />
<glyph unicode="s" horiz-adv-x="930" d="M2 225q0 62 34.5 102t88.5 40q49 0 80 -31.5t31 -81.5q0 -31 -16.5 -67.5t-16.5 -43.5q0 -30 47 -53.5t115 -23.5q80 0 128 38t48 103q0 92 -156 167q-26 13 -39 19q-129 63 -184.5 130t-55.5 159q0 149 108 239.5t288 90.5q155 0 252.5 -63.5t97.5 -162.5 q0 -55 -32 -88.5t-85 -33.5q-51 0 -82.5 30t-31.5 80q0 20 6.5 46t19.5 57q-27 24 -62.5 36.5t-78.5 12.5q-74 0 -116 -35.5t-42 -97.5q0 -87 146 -156q21 -10 31 -15q143 -69 200 -138.5t57 -170.5q0 -151 -111 -241t-298 -90q-167 0 -269 67.5t-102 175.5z" />
<glyph unicode="t" horiz-adv-x="797" d="M31 825l16 93h191l73 350h281l-70 -350h248l-14 -93h-254l-119 -581q-4 -19 -6 -35t-2 -27q0 -40 20.5 -62t59.5 -22q57 0 108.5 50t106.5 159l59 -35q-70 -153 -164 -224t-229 -71q-118 0 -182 53t-64 150q0 20 3.5 46.5t10.5 59.5l113 539h-186z" />
<glyph unicode="u" horiz-adv-x="1343" d="M-6 721q75 143 161.5 209.5t198.5 66.5q105 0 164.5 -49t59.5 -135q0 -25 -5.5 -54t-15.5 -61l-123 -385q-15 -49 -21.5 -80.5t-6.5 -54.5q0 -29 12.5 -43t38.5 -14q77 0 191.5 146.5t152.5 318.5l88 393h289l-160 -727q-6 -30 -9 -50t-3 -32q0 -30 13.5 -49t35.5 -19 q42 0 89 41.5t99 126.5l57 -39q-73 -127 -164.5 -188t-207.5 -61q-92 0 -140.5 40.5t-48.5 118.5q0 26 6.5 64.5t24.5 113.5q-113 -178 -219 -257.5t-227 -79.5q-94 0 -150.5 54t-56.5 144q0 35 8 76.5t27 101.5l112 358q2 6 4 14q19 61 19 83q0 26 -14.5 41.5t-39.5 15.5 q-38 0 -84.5 -48t-91.5 -134z" />
<glyph unicode="v" horiz-adv-x="1116" d="M-53 766q71 121 134.5 174t135.5 53q37 0 123 -20.5t133 -20.5q37 0 66.5 13.5t56.5 42.5l63 -17q-101 -275 -147.5 -447t-46.5 -272q0 -79 28 -116t89 -37q71 0 143.5 66.5t128.5 183.5q34 70 55 149t21 125q0 13 -54.5 92t-54.5 148q0 48 28.5 79t72.5 31q56 0 85 -52 t29 -153q0 -122 -42.5 -266.5t-114.5 -265.5q-78 -128 -187 -201t-221 -73q-137 0 -216 81t-79 224t82 283.5t281 330.5q-76 -47 -140.5 -70.5t-119.5 -23.5q-27 0 -73.5 13.5t-68.5 13.5q-37 0 -68.5 -25t-68.5 -84z" />
<glyph unicode="w" horiz-adv-x="1663" d="M-53 766q71 121 134.5 174t135.5 53q37 0 123 -20.5t133 -20.5q37 0 66.5 13.5t56.5 42.5l63 -17q-101 -275 -147.5 -452.5t-46.5 -288.5q0 -58 19.5 -85.5t60.5 -27.5q87 0 182.5 187t171.5 514l31 137h248q-75 -294 -105.5 -446.5t-30.5 -225.5q0 -84 27 -125t82 -41 q64 0 132.5 72t123.5 199q30 69 49 139t19 98q0 12 -51.5 90t-51.5 142q0 52 28 84t73 32q54 0 83 -45.5t29 -130.5q0 -112 -38 -254t-101 -262q-80 -150 -196 -235.5t-236 -85.5q-94 0 -146.5 54t-52.5 152q0 46 9 101.5t28 122.5q-93 -228 -192.5 -329t-225.5 -101 q-116 0 -187 81t-71 213q0 147 83.5 292.5t279.5 334.5q-76 -47 -140.5 -70.5t-119.5 -23.5q-27 0 -73.5 13.5t-68.5 13.5q-37 0 -68.5 -25t-68.5 -84z" />
<glyph unicode="x" horiz-adv-x="1223" d="M-12 90q0 36 11.5 87.5t35.5 121.5h67q-15 -54 -22.5 -94t-7.5 -62q0 -20 11.5 -33.5t31.5 -13.5q49 0 139 91.5t188 246.5q-4 31 -11 86q-46 359 -142 359q-41 0 -85 -36t-89 -106l-56 37q71 111 172 171.5t215 60.5q121 0 177.5 -79t70.5 -272q96 178 180.5 263.5 t163.5 85.5q55 0 84 -35t29 -99q0 -24 -6 -83q-3 -30 -4 -45h-70q3 24 4.5 44t1.5 33q0 45 -16.5 65.5t-52.5 20.5q-49 0 -105.5 -62.5t-181.5 -271.5l9 -54q64 -390 157 -390q42 0 84 42t86 128l51 -39q-68 -137 -162.5 -207.5t-208.5 -70.5q-113 0 -175 87.5t-91 292.5 q-110 -180 -211.5 -277t-181.5 -97q-42 0 -66 27.5t-24 76.5z" />
<glyph unicode="y" horiz-adv-x="1251" d="M-6 721q70 144 156 211t202 67q105 0 163 -48t58 -134q0 -20 -5 -48.5t-19 -80.5l-76 -262q-1 -5 -5 -17q-30 -106 -30 -151q0 -31 12 -45t37 -14q65 0 171 139.5t141 290.5l82 350h284l-164 -750q-87 -397 -230.5 -549.5t-405.5 -152.5q-155 0 -256 64t-101 157 q0 47 34.5 79t84.5 32q66 0 105.5 -42.5t39.5 -113.5q0 -11 -1.5 -24t-5.5 -38q21 -14 46 -21t54 -7q131 0 211 146.5t159 572.5q-96 -155 -198 -232t-209 -77q-90 0 -138.5 50t-48.5 144q0 31 8.5 77.5t24.5 102.5l92 315q9 34 14 59t5 40q0 28 -15.5 43.5t-42.5 15.5 q-39 0 -83 -45.5t-89 -134.5z" />
<glyph unicode="z" horiz-adv-x="1006" d="M-6 39q119 223 397 491.5t336 333.5q-82 -51 -138.5 -73.5t-101.5 -22.5q-46 0 -129 15.5t-116 15.5q-45 0 -76.5 -23.5t-69.5 -87.5l-53 31q64 145 140.5 218t164.5 73q38 0 165.5 -23.5t213.5 -23.5q50 0 79.5 10t49.5 33l47 -37q-130 -204 -389.5 -447.5 t-323.5 -331.5q62 43 107.5 61.5t87.5 18.5q61 0 184 -33.5t181 -33.5q48 0 71 31.5t29 109.5l61 -8q-11 -190 -61.5 -273t-153.5 -83q-67 0 -247 50t-275 50q-41 0 -72.5 -20.5t-60.5 -65.5z" />
<glyph unicode="{" horiz-adv-x="1024" d="M178 598v76q156 15 212 76.5t56 226.5v192q0 201 85.5 274t320.5 73v-61q-121 -3 -165 -55t-44 -210v-133q0 -225 -53.5 -307t-196.5 -115q143 -32 196.5 -113t53.5 -307v-135q0 -158 44 -210t165 -55v-59q-235 0 -320.5 72.5t-85.5 273.5v193q0 165 -56 226.5t-212 76.5 z" />
<glyph unicode="|" horiz-adv-x="1024" d="M410 -483v2048h206v-2048h-206z" />
<glyph unicode="}" horiz-adv-x="1024" d="M172 -185q119 2 164 55t45 210v135q0 226 53.5 307t196.5 113q-143 33 -196.5 115t-53.5 307v133q0 156 -45 209.5t-164 55.5v61q236 0 322 -73t86 -274v-192q0 -165 56 -226.5t212 -76.5v-76q-156 -15 -212 -76.5t-56 -226.5v-193q0 -198 -85 -272t-311 -74h-12v59z" />
<glyph unicode="~" horiz-adv-x="1706" d="M178 418v221q107 72 204 107.5t183 35.5q117 0 291 -58l4 -1q18 -6 55 -19q155 -55 240 -55t175 37t200 117v-221q-104 -71 -196.5 -104.5t-182.5 -33.5q-46 0 -92 8t-92 23q-24 8 -71 25q-219 75 -333 75q-85 0 -177.5 -37.5t-207.5 -119.5z" />
<glyph unicode="&#xa0;" />
<glyph unicode="&#xa1;" horiz-adv-x="731" d="M121 203q0 81 109 415q90 272 141 447l88 -14q-8 -151 -14 -400q-11 -433 -56 -532q-26 -53 -68.5 -88.5t-89.5 -42.5q-51 26 -80.5 83.5t-29.5 131.5zM287 1329q0 67 46.5 113.5t112.5 46.5q68 0 114 -47t46 -117q0 -62 -47.5 -109t-112.5 -47t-112 47.5t-47 112.5z" />
<glyph unicode="&#xa2;" d="M115 383q0 261 183 444t443 183q18 0 39 -2t43 -4l123 247h101l-134 -276q77 -34 121.5 -94.5t44.5 -128.5q0 -62 -36.5 -105t-88.5 -43q-45 0 -73.5 30t-28.5 79q0 27 14.5 64.5t14.5 47.5q0 13 -4.5 25t-12.5 22l-352 -722q33 -32 71.5 -47t88.5 -15q89 0 167 59.5 t134 169.5l61 -41q-76 -150 -193.5 -224.5t-277.5 -74.5q-37 1 -70.5 4.5t-64.5 10.5l-127 -260h-100l143 286q-109 50 -169 145.5t-60 219.5zM416 406q0 -66 8 -106t27 -69l327 682q-11 5 -23 7t-26 2q-129 0 -221 -150.5t-92 -365.5z" />
<glyph unicode="&#xa3;" d="M-47 127q0 97 86.5 156t230.5 59q6 0 19.5 -1t19.5 -1q5 36 7.5 67.5t2.5 61.5q0 33 -3 70.5t-11 89.5h-229l33 86h180q-12 50 -17.5 91t-5.5 75q0 254 142.5 409.5t369.5 155.5q172 0 280.5 -95.5t108.5 -242.5q0 -100 -52 -169t-126 -69q-49 0 -82 31.5t-33 77.5 q0 63 46 106.5t124 53.5q-7 90 -68 145t-153 55q-119 0 -187.5 -77t-68.5 -213q0 -42 11.5 -153t13.5 -181h328l-31 -86l-295 -1q-2 -93 -26 -169.5t-72 -145.5q57 -16 158 -49q191 -61 264 -61q69 0 117.5 26t97.5 90l67 -45q-76 -153 -167 -222.5t-214 -69.5 q-93 0 -204.5 38.5t-239.5 114.5q-77 -83 -140.5 -118t-134.5 -35q-65 0 -106 40.5t-41 104.5zM41 137q0 -22 18.5 -37.5t44.5 -15.5q48 0 91.5 27.5t76.5 78.5q-39 15 -66 21t-48 6q-49 0 -83 -24t-34 -56z" />
<glyph unicode="&#xa4;" d="M-33 520l33 88l135 1q2 55 8 108.5t17 105.5h-154l33 88h141q74 248 239 393.5t369 145.5q110 0 199.5 -43t157.5 -127l29 84l81 -4q-13 -88 -35.5 -220.5t-27.5 -164.5h-88q1 11 1.5 22.5t0.5 34.5q0 152 -71 237t-197 85q-129 0 -216 -109t-137 -334h519l-31 -88h-506 q-9 -43 -15.5 -95.5t-10.5 -119.5h452l-33 -88h-422v-20q0 -192 79.5 -305t213.5 -113q111 0 197.5 81t142.5 236l80 -41q-70 -189 -192 -282.5t-300 -93.5q-228 0 -370 145t-154 393h-168z" />
<glyph unicode="&#xa5;" d="M18 1431q107 -5 176.5 -7.5t120.5 -2.5q52 0 125.5 2.5t184.5 7.5v-92q-76 -7 -96.5 -19t-20.5 -38q0 -13 6.5 -34t17.5 -48l209 -479l279 483q13 23 20 44t7 36q-1 28 -26 40t-101 15v93q79 -6 126 -8.5t80 -2.5q31 0 77 2.5t120 7.5l2 -91q-61 -6 -98.5 -33t-89.5 -113 l-121 -197h241l-14 -88h-280l-129 -217h374l-16 -88h-404l-55 -338q-2 -12 -5 -32q-7 -44 -7 -58q0 -46 25.5 -63t123.5 -21v-92q-122 5 -200.5 7.5t-134.5 2.5q-27 0 -80 -2t-195 -8v92q90 0 127 28t51 109l58 316l-19 59h-452l14 88h401l-98 217h-266l16 88h207l-82 179 q-43 93 -84.5 125t-113.5 38z" />
<glyph unicode="&#xa6;" horiz-adv-x="1024" d="M410 -350v758h206v-758h-206zM410 674v758h206v-758h-206z" />
<glyph unicode="&#xa7;" horiz-adv-x="1100" d="M104 -158q0 64 37 106t92 42q47 0 77 -29t30 -74q0 -36 -20 -68.5t-66 -70.5q19 -35 55.5 -53.5t85.5 -18.5q75 0 120.5 41t45.5 109q0 40 -19 89t-55 97l-217 305q-44 62 -68 139.5t-24 159.5q0 94 49 184.5t135 157.5q-31 58 -46 109t-15 98q0 142 102.5 234t260.5 92 q128 0 215.5 -72t87.5 -176q0 -62 -37.5 -103.5t-91.5 -41.5q-47 0 -77 28t-30 72q0 38 21 72.5t65 68.5q-15 33 -51 51.5t-84 18.5q-70 0 -114 -41t-44 -106q0 -42 19 -92t53 -99l219 -307q43 -61 67.5 -137.5t24.5 -151.5q0 -101 -47.5 -192t-136.5 -160q31 -54 45 -101.5 t14 -95.5q0 -147 -100.5 -239.5t-261.5 -92.5q-134 0 -225 73t-91 175zM354 764q0 -63 25.5 -130t77.5 -140l225 -316q28 33 40.5 67t12.5 77q0 64 -26 134.5t-76 139.5l-227 315q-27 -30 -39.5 -66t-12.5 -81z" />
<glyph unicode="&#xa8;" horiz-adv-x="1024" d="M330 1296q0 51 40 91t91 40q53 0 90 -37.5t37 -91.5q0 -56 -36 -93.5t-91 -37.5q-54 0 -92.5 38.5t-38.5 90.5zM705 1298q0 50 40 89.5t91 39.5q53 0 91 -38t38 -91q0 -56 -37 -93.5t-92 -37.5t-93 38.5t-38 92.5z" />
<glyph unicode="&#xa9;" horiz-adv-x="1683" d="M111 678q0 148 54.5 281.5t158.5 236.5q103 104 239 160.5t281 56.5q141 0 275.5 -56t238.5 -159q102 -102 159.5 -239.5t57.5 -280.5t-56.5 -277.5t-160.5 -240.5q-102 -104 -235 -158.5t-281 -54.5t-279 54t-237 159q-105 104 -160 237t-55 281zM217 678 q0 -128 46.5 -242t135.5 -203q90 -89 202 -135.5t241 -46.5q127 0 240 47t200 135q89 91 136.5 206t47.5 239q0 127 -47.5 244t-134.5 202q-87 88 -203 136.5t-237 48.5q-127 0 -241.5 -48t-203.5 -139q-89 -90 -135.5 -204t-46.5 -240zM410 664q0 191 121 316.5t305 125.5 q79 0 153 -33t80 -33q24 0 37.5 15t19.5 47h45v-326h-47q-31 131 -100 202t-164 71q-118 0 -175.5 -90.5t-57.5 -274.5q0 -185 62.5 -281t182.5 -96q80 0 148.5 44t124.5 130l45 -28q-63 -107 -150.5 -161t-197.5 -54q-185 0 -308.5 122.5t-123.5 303.5z" />
<glyph unicode="&#xaa;" horiz-adv-x="940" d="M14 965q0 89 34.5 180t96.5 164q64 78 142.5 121t156.5 43q62 0 102.5 -21t61.5 -63l29 84h199l-131 -510q-7 -20 -10 -36.5t-3 -29.5q0 -20 10.5 -31.5t28.5 -11.5q29 0 58.5 29.5t56.5 85.5l49 -21q-47 -97 -114 -145.5t-152 -48.5q-69 0 -104.5 29.5t-35.5 86.5 q1 13 3 31t8 47q-61 -93 -139.5 -143.5t-161.5 -50.5q-87 0 -136 56t-49 155zM244 979q0 -57 18 -84t55 -27q49 0 118.5 75t90.5 153l51 202q-4 56 -29 85.5t-67 29.5q-44 0 -84 -35t-73 -104q-37 -73 -58.5 -153t-21.5 -142z" />
<glyph unicode="&#xab;" horiz-adv-x="922" d="M39 504q145 93 293 203t162 110q8 0 14 -5.5t6 -12.5q0 -34 -168 -219q-52 -57 -82 -91q31 -69 81 -169.5t50 -118.5q0 -8 -4.5 -11.5t-13.5 -3.5q-23 0 -176 156q-98 99 -162 162zM393 504q145 93 293 203t162 110q9 0 14.5 -5t5.5 -13q0 -35 -178 -232q-45 -50 -69 -78 q30 -66 78 -163q53 -108 53 -125q0 -7 -6 -11t-15 -4q-25 0 -170 149q-101 103 -168 169z" />
<glyph unicode="&#xac;" horiz-adv-x="1706" d="M254 668v196h1198v-502h-199v306h-999z" />
<glyph unicode="&#xad;" horiz-adv-x="647" d="M29 403l41 211h493l-41 -211h-493z" />
<glyph unicode="&#xae;" horiz-adv-x="1683" d="M111 678q0 146 55 280t158 238q102 104 237.5 160.5t282.5 56.5q145 0 284 -59.5t242 -165.5q98 -101 150.5 -236.5t52.5 -285.5q0 -139 -61 -277t-171 -244q-99 -96 -227.5 -147t-271.5 -51q-110 0 -211.5 30.5t-190.5 90.5q-157 104 -243 263.5t-86 346.5zM217 678 q0 -128 46.5 -242t135.5 -203q90 -89 202 -135.5t241 -46.5q127 0 240 47t200 135q89 91 136.5 206t47.5 239q0 125 -48.5 243t-135.5 203q-88 88 -202.5 136.5t-235.5 48.5q-126 0 -241.5 -48.5t-203.5 -138.5q-89 -90 -135.5 -204t-46.5 -240zM465 285v50q61 4 83.5 24 t22.5 69v522q0 49 -22.5 69.5t-83.5 25.5v53h403q146 0 234 -55.5t88 -143.5q0 -86 -64.5 -134.5t-214.5 -74.5q95 -22 149 -69.5t70 -124.5q6 -25 10 -74q5 -84 46 -84q28 0 42.5 29.5t14.5 87.5v12h51v-23q0 -88 -44 -134t-128 -46q-47 0 -82.5 14t-56.5 41 q-28 40 -33 134q-2 45 -6 67q-14 79 -54 116.5t-112 37.5h-18v-246q0 -46 20 -65t78 -27v-51h-393zM760 723q7 -1 16 -1.5t27 -0.5q96 0 144 45t48 135q0 60 -43 103t-106 43q-44 0 -65 -16.5t-21 -49.5v-258z" />
<glyph unicode="&#xaf;" horiz-adv-x="1024" d="M342 1217l33 155h579l-32 -155h-580z" />
<glyph unicode="&#xb0;" horiz-adv-x="674" d="M35 1159q0 127 88.5 216t214.5 89t214.5 -89.5t88.5 -215.5q0 -125 -89 -214t-216 -89q-126 0 -213.5 88t-87.5 215zM162 1161q0 -74 51 -125t125 -51q72 0 123 52t51 124t-51 123t-123 51q-73 0 -124.5 -51t-51.5 -123z" />
<glyph unicode="&#xb1;" horiz-adv-x="1706" d="M254 -2v199h1198v-199h-1198zM254 698v199h498v326h202v-326h498v-199h-498v-325h-202v325h-498z" />
<glyph unicode="&#xb2;" horiz-adv-x="836" d="M2 618q54 63 122.5 124t157.5 126l11 8q254 186 254 318q0 82 -50 129t-137 47q-85 0 -145.5 -44.5t-60.5 -102.5q0 -10 0.5 -16t1.5 -11h14q56 0 91.5 -27.5t35.5 -70.5q0 -36 -25.5 -58t-66.5 -22q-56 0 -93.5 47t-37.5 119q0 114 93.5 186t244.5 72q159 0 250.5 -72 t91.5 -199q0 -82 -51 -147.5t-156 -118.5q-36 -18 -110 -52q-219 -101 -316 -194q75 41 124.5 57.5t90.5 16.5t123 -12t123 -12q45 0 72.5 25t50.5 91l49 -10q-27 -159 -66.5 -207.5t-134.5 -48.5q-70 0 -192 20.5t-171 20.5q-31 0 -67 -9t-84 -30z" />
<glyph unicode="&#xb3;" horiz-adv-x="836" d="M33 780q0 48 27 78.5t69 30.5q36 0 60 -23.5t24 -58.5q0 -34 -21.5 -60.5t-60.5 -39.5q26 -41 71.5 -62.5t106.5 -21.5q99 0 160 56.5t61 147.5q0 68 -45.5 102t-136.5 34q-2 0 -9 -1q-25 -1 -50 -1l20 61q114 6 183 62.5t69 142.5q0 68 -48.5 110.5t-125.5 42.5 q-61 0 -106 -29.5t-55 -76.5q49 -3 77.5 -26t28.5 -60q0 -36 -25 -58t-67 -22q-52 0 -85.5 34.5t-33.5 88.5q0 88 91.5 149.5t229.5 61.5q141 0 225.5 -57.5t84.5 -151.5q0 -90 -81 -149.5t-234 -84.5q157 -4 228.5 -51.5t71.5 -146.5q0 -108 -100 -176t-262 -68 q-151 0 -246.5 63.5t-95.5 159.5z" />
<glyph unicode="&#xb4;" horiz-adv-x="1024" d="M426 1122l303 312q35 35 65 51t60 16q39 0 66.5 -28t27.5 -68q0 -29 -20 -55t-60 -47l-333 -181h-109z" />
<glyph unicode="&#xb5;" horiz-adv-x="1202" d="M-121 -309q0 47 68 274t106 408l109 512h256l-99 -459q-11 -53 -16.5 -89t-5.5 -58q0 -59 30.5 -92t84.5 -33q71 0 116 53t68 166l109 512h256l-115 -533q-9 -41 -13 -66.5t-4 -43.5q0 -47 17.5 -67.5t56.5 -20.5q40 0 66 18t45 59q8 19 21 50q27 69 55 69q15 0 23.5 -10 t8.5 -29q0 -34 -16.5 -88.5t-42.5 -101.5q-41 -74 -99 -110t-137 -36q-85 0 -129.5 48t-54.5 151q-40 -106 -98.5 -152.5t-149.5 -46.5q-93 0 -149.5 61t-67.5 173q-12 -95 -29 -252q-40 -381 -155 -381q-54 0 -84.5 30.5t-30.5 84.5z" />
<glyph unicode="&#xb6;" horiz-adv-x="1024" d="M41 1130q0 158 107 253.5t284 95.5h551v-111h-113v-1368h-151v1368h-158v-1368h-153v784q-167 6 -267 101t-100 245z" />
<glyph unicode="&#xb7;" horiz-adv-x="633" d="M152 717q0 65 49.5 114.5t115.5 49.5q69 0 115.5 -47.5t46.5 -116.5q0 -71 -45.5 -117.5t-116.5 -46.5q-69 0 -117 47.5t-48 116.5z" />
<glyph unicode="&#xb8;" horiz-adv-x="1024" d="M129 -371l41 90q60 -36 121 -55.5t112 -19.5q49 0 75 21t26 61q0 41 -26.5 63.5t-76.5 22.5q-17 0 -39.5 -3.5t-50.5 -9.5l66 201h72l-35 -114q9 0 25 2q40 5 53 6q80 0 127 -47t47 -128q0 -79 -60 -127.5t-160 -48.5q-67 0 -145 21.5t-172 64.5z" />
<glyph unicode="&#xb9;" horiz-adv-x="565" d="M-20 572l10 55h16q75 0 101.5 21.5t48.5 133.5l82 426q4 22 6 39.5t2 30.5q0 21 -8 30t-27 9q-3 0 -16 -2t-29 -4l-86 -19l-12 47q119 23 219 47t190 52l-133 -666q-6 -34 -8 -53t-2 -31q0 -35 20 -48t74 -13h18l-8 -55q-79 3 -136 4.5t-97 1.5q-35 0 -90 -1.5t-135 -4.5 z" />
<glyph unicode="&#xba;" horiz-adv-x="868" d="M25 1057q0 167 132.5 291.5t315.5 124.5q150 0 239 -82.5t89 -221.5q0 -171 -130.5 -293t-318.5 -122q-147 0 -237 83t-90 220zM248 950q0 -65 27.5 -100t78.5 -35q43 0 81.5 35t68.5 100q33 71 53.5 161.5t20.5 166.5q0 67 -24.5 101t-72.5 34q-47 0 -86 -32.5 t-71 -100.5q-35 -78 -55.5 -168t-20.5 -162z" />
<glyph unicode="&#xbb;" horiz-adv-x="922" d="M-2 205q0 34 178 232q45 49 70 77q-30 64 -76 159q-55 112 -55 128q0 6 5.5 11t12.5 5q25 0 171 -149q100 -103 167 -168q-145 -93 -292 -203.5t-161 -110.5q-9 1 -14.5 6t-5.5 13zM352 205q0 34 216 271l34 38q-33 73 -83 172.5t-50 114.5q0 7 5 11.5t13 4.5 q26 0 180 -156q97 -99 160 -161q-144 -93 -292 -203.5t-162 -110.5q-9 0 -15 5.5t-6 13.5z" />
<glyph unicode="&#xbc;" horiz-adv-x="1679" d="M-18 629l8 51h16q113 0 141 141v4l80 400q4 18 6.5 35t2.5 28q0 20 -8 27.5t-27 7.5q-10 0 -20.5 -1t-22.5 -3l-82 -16l-10 43q114 21 209 43.5t180 48.5l-125 -623q-7 -35 -9 -51t-2 -27q0 -33 18.5 -45t70.5 -12h20l-10 -51q-73 3 -128.5 4.5t-94.5 1.5q-32 0 -86 -1.5 t-127 -4.5zM197 -18l895 1450h129l-893 -1450h-131zM895 211l8 98q176 177 310.5 297t263.5 219l47 -47q-173 -128 -306.5 -242.5t-218.5 -207.5h312l57 293l186 38l-63 -331h115l-47 -117h-91l-10 -70q-2 -10 -3 -18.5t-1 -16.5q0 -29 17.5 -42t58.5 -13h12l-11 -51 q-68 3 -120 4.5t-88 1.5q-30 0 -80.5 -1.5t-115.5 -4.5l8 51h8q71 0 98.5 21t38.5 84l10 55h-395z" />
<glyph unicode="&#xbd;" horiz-adv-x="1679" d="M-18 629l8 51h16q113 0 141 141v4l80 400q4 18 6.5 35t2.5 28q0 20 -8 27.5t-27 7.5q-10 0 -20.5 -1t-22.5 -3l-82 -16l-10 43q114 21 209 43.5t180 48.5l-125 -623q-7 -35 -9 -51t-2 -27q0 -33 18.5 -45t70.5 -12h20l-10 -51q-73 3 -128.5 4.5t-94.5 1.5q-32 0 -86 -1.5 t-127 -4.5zM197 -18l895 1450h129l-893 -1450h-131zM883 45q52 58 118 115.5t150 118.5l5 3q247 174 247 300q0 76 -47.5 119.5t-130.5 43.5q-81 0 -139 -41.5t-58 -95.5v-24h14q55 0 88 -26t33 -66q0 -34 -23.5 -54t-62.5 -20q-53 0 -89 43.5t-36 109.5q0 107 88.5 173.5 t233.5 66.5q152 0 240 -66.5t88 -183.5q0 -76 -49 -137.5t-150 -112.5q-32 -15 -98 -45q-214 -95 -308 -184q68 36 116 52t89 16q39 0 117 -10.5t117 -10.5q44 0 70 23.5t46 85.5l47 -11q-24 -149 -61.5 -194t-128.5 -45q-67 0 -184 19.5t-162 19.5q-28 0 -60 -7.5 t-85 -27.5z" />
<glyph unicode="&#xbe;" horiz-adv-x="1937" d="M31 823q0 44 26 72.5t66 28.5q35 0 58.5 -21t23.5 -53q0 -33 -21 -57.5t-59 -36.5q24 -40 67.5 -60t102.5 -20q95 0 153 52.5t58 137.5q0 65 -43 96t-131 31q-13 0 -27 -0.5t-31 -1.5l21 59q107 5 173.5 58t66.5 133q0 63 -46 102t-118 39q-60 0 -102.5 -26.5 t-52.5 -71.5q47 -3 73 -24t26 -56q0 -34 -23 -55t-63 -21q-50 0 -82 33t-32 84q0 81 87.5 138t219.5 57q134 0 214.5 -53.5t80.5 -141.5q0 -83 -77.5 -138.5t-223.5 -78.5q149 -3 217.5 -47.5t68.5 -136.5q0 -102 -95 -166t-249 -64q-144 0 -235.5 60t-91.5 149zM455 -18 l895 1450h129l-893 -1450h-131zM1153 211l8 98q177 177 311 297t263 219l47 -47q-173 -128 -306.5 -242.5t-218.5 -207.5h312l57 293l186 38l-63 -331h115l-47 -117h-91l-10 -70q-2 -10 -3 -18.5t-1 -16.5q0 -29 17.5 -42t58.5 -13h12l-11 -51q-68 3 -120 4.5t-88 1.5 q-30 0 -80.5 -1.5t-115.5 -4.5l8 51h8q71 0 98.5 21t38.5 84l10 55h-395z" />
<glyph unicode="&#xbf;" horiz-adv-x="1030" d="M98 371q0 111 51 205t211 241l1 1q139 127 167 245l93 -19q-10 -89 -34 -161.5t-77 -157.5q-7 -11 -20 -33q-119 -194 -119 -334q0 -127 52 -193.5t152 -66.5q64 0 115.5 44t58.5 106q-52 19 -82 59t-30 90q0 48 30.5 79.5t75.5 31.5q63 0 105.5 -51.5t42.5 -128.5 q0 -133 -113.5 -230.5t-273.5 -97.5q-178 0 -292 104.5t-114 266.5zM449 1329q0 66 46.5 113t112.5 47t113 -48t47 -116q0 -62 -47.5 -109t-112.5 -47q-66 0 -112.5 47t-46.5 113z" />
<glyph unicode="&#xc0;" horiz-adv-x="1321" d="M-125 0v94q71 2 116 40t111 175l465 961q42 46 76 96t62 104l204 27l197 -1198l2 -13q31 -184 180 -192v-94q-146 6 -210.5 8t-98.5 2q-58 0 -138 -2.5t-204 -7.5v94q93 5 120 25.5t27 79.5q0 23 -1.5 41t-4.5 37l-37 241h-424l-124 -258q-15 -29 -22 -53.5t-7 -44.5 q0 -39 24.5 -52.5t108.5 -15.5v-94q-95 6 -140 8t-73 2q-30 0 -76 -2t-133 -8zM362 618h367l-82 601zM553 1888q0 40 27.5 68t65.5 28q28 0 55 -16.5t53 -50.5l248 -314h-104l-273 185q-36 25 -54 49.5t-18 50.5z" />
<glyph unicode="&#xc1;" horiz-adv-x="1321" d="M-125 0v94q71 2 116 40t111 175l465 961q42 46 76 96t62 104l204 27l197 -1198l2 -13q31 -184 180 -192v-94q-146 6 -210.5 8t-98.5 2q-58 0 -138 -2.5t-204 -7.5v94q93 5 120 25.5t27 79.5q0 23 -1.5 41t-4.5 37l-37 241h-424l-124 -258q-15 -29 -22 -53.5t-7 -44.5 q0 -39 24.5 -52.5t108.5 -15.5v-94q-95 6 -140 8t-73 2q-30 0 -76 -2t-133 -8zM362 618h367l-82 601zM619 1603l303 312q35 35 65 51t60 16q39 0 66.5 -28t27.5 -68q0 -29 -20 -55t-60 -47l-333 -181h-109z" />
<glyph unicode="&#xc2;" horiz-adv-x="1321" d="M-125 0v94q71 2 116 40t111 175l465 961q42 46 76 96t62 104l204 27l197 -1198l2 -13q31 -184 180 -192v-94q-146 6 -210.5 8t-98.5 2q-58 0 -138 -2.5t-204 -7.5v94q93 5 120 25.5t27 79.5q0 23 -1.5 41t-4.5 37l-37 241h-424l-124 -258q-15 -29 -22 -53.5t-7 -44.5 q0 -39 24.5 -52.5t108.5 -15.5v-94q-95 6 -140 8t-73 2q-30 0 -76 -2t-133 -8zM362 618h367l-82 601zM484 1601l307 359h145l160 -359h-80l-172 183l-258 -183h-102z" />
<glyph unicode="&#xc3;" horiz-adv-x="1321" d="M-125 0v94q71 2 116 40t111 175l465 961q42 46 76 96t62 104l204 27l197 -1198l2 -13q31 -184 180 -192v-94q-146 6 -210.5 8t-98.5 2q-58 0 -138 -2.5t-204 -7.5v94q93 5 120 25.5t27 79.5q0 23 -1.5 41t-4.5 37l-37 241h-424l-124 -258q-15 -29 -22 -53.5t-7 -44.5 q0 -39 24.5 -52.5t108.5 -15.5v-94q-95 6 -140 8t-73 2q-30 0 -76 -2t-133 -8zM362 618h367l-82 601zM525 1640q26 121 74 178.5t122 57.5q20 0 41.5 -3t41.5 -8l124 -30q11 -3 24 -4.5t36 -1.5q39 0 65.5 20.5t40.5 62.5l62 1q-27 -119 -76.5 -176.5t-124.5 -57.5 q-18 0 -36 2t-36 6l-117 29q-24 6 -42 9t-29 3q-41 0 -67 -21.5t-40 -66.5h-63z" />
<glyph unicode="&#xc4;" horiz-adv-x="1321" d="M-125 0v94q71 2 116 40t111 175l465 961q42 46 76 96t62 104l204 27l197 -1198l2 -13q31 -184 180 -192v-94q-146 6 -210.5 8t-98.5 2q-58 0 -138 -2.5t-204 -7.5v94q93 5 120 25.5t27 79.5q0 23 -1.5 41t-4.5 37l-37 241h-424l-124 -258q-15 -29 -22 -53.5t-7 -44.5 q0 -39 24.5 -52.5t108.5 -15.5v-94q-95 6 -140 8t-73 2q-30 0 -76 -2t-133 -8zM362 618h367l-82 601zM523 1777q0 51 40 91t91 40q53 0 90 -37.5t37 -91.5q0 -56 -36 -93.5t-91 -37.5q-54 0 -92.5 38.5t-38.5 90.5zM898 1779q0 50 40 89.5t91 39.5q53 0 91 -38t38 -91 q0 -56 -37 -93.5t-92 -37.5t-93 38.5t-38 92.5z" />
<glyph unicode="&#xc5;" horiz-adv-x="1321" d="M-125 0v94q71 2 116 40t111 175l465 961q38 43 69 87t56 89l221 29l193 -1176l2 -13q31 -184 180 -192v-94q-146 6 -210.5 8t-98.5 2q-58 0 -138 -2.5t-204 -7.5v94q93 5 120 25.5t27 79.5q0 23 -1.5 41t-4.5 37l-37 241h-424l-124 -258q-15 -29 -22 -53.5t-7 -44.5 q0 -39 24.5 -52.5t108.5 -15.5v-94q-95 6 -140 8t-73 2q-30 0 -76 -2t-133 -8zM362 618h367l-82 601zM578 1749q0 93 65.5 158t159.5 65q93 0 159 -65.5t66 -157.5t-66 -157.5t-159 -65.5q-95 0 -160 64.5t-65 158.5zM690 1749q0 -47 32.5 -79t80.5 -32q47 0 79.5 32.5 t32.5 78.5q0 47 -32.5 80t-79.5 33q-46 0 -79.5 -33.5t-33.5 -79.5z" />
<glyph unicode="&#xc6;" horiz-adv-x="2058" d="M-213 0v98q67 0 120.5 36.5t149.5 168.5l666 911l5 7q40 57 40 88q0 34 -29.5 47.5t-120.5 13.5v100h1313v-415h-94v26q0 172 -52 230.5t-214 58.5h-295l-92 -561h84q149 0 200.5 43t69.5 168h88q-25 -123 -44.5 -259t-35.5 -294h-88l3 30q5 60 5 83q0 78 -32.5 104.5 t-147.5 26.5h-117l-100 -613h324q129 0 187.5 14t98.5 48q43 36 75 99t67 183h94q-26 -107 -49 -217.5t-43 -224.5h-1219v98q85 0 116.5 21.5t45.5 105.5l51 320h-465l-207 -287q-19 -25 -29 -50.5t-10 -49.5q0 -35 24 -47.5t99 -12.5v-98q-89 6 -144.5 8t-96.5 2 q-34 0 -190 -9zM424 643h410l118 723z" />
<glyph unicode="&#xc7;" horiz-adv-x="1430" d="M68 635q0 371 229 612.5t580 241.5q129 0 238 -44t192 -130l36 84l84 -4q-20 -102 -38.5 -212.5t-38.5 -246.5h-92q2 38 4 64.5t2 35.5q0 154 -86.5 247t-229.5 93q-233 0 -373.5 -208.5t-140.5 -553.5q0 -248 97.5 -379t281.5 -131q137 0 242.5 76.5t179.5 229.5l82 -41 q-89 -195 -239 -291t-365 -96q-298 0 -471.5 175.5t-173.5 477.5zM416 -371l41 90q60 -36 121 -55.5t112 -19.5q49 0 75 21t26 61q0 41 -26.5 63.5t-76.5 22.5q-17 0 -39.5 -3.5t-50.5 -9.5l66 201h72l-35 -114q9 0 25 2q40 5 53 6q80 0 127 -47t47 -128q0 -79 -60 -127.5 t-160 -48.5q-67 0 -145 21.5t-172 64.5z" />
<glyph unicode="&#xc8;" horiz-adv-x="1456" d="M0 0v98q86 0 118 22t46 105l158 975q5 33 8.5 61.5t3.5 45.5q0 36 -28.5 50.5t-104.5 14.5v98h1128v-415h-94v35q0 166 -53.5 224t-212.5 58h-295l-92 -563h84q149 0 200.5 43t69.5 168h88q-25 -125 -45 -261t-35 -292h-88q1 10 3 29q5 57 5 79q0 82 -33 109t-147 27 h-119l-98 -613h324q129 0 187.5 14t98.5 48q43 36 75 99t67 183h94q-26 -107 -49 -217.5t-43 -224.5h-1221zM620 1888q0 40 27.5 68t65.5 28q28 0 55 -16.5t53 -50.5l248 -314h-104l-273 185q-36 25 -54 49.5t-18 50.5z" />
<glyph unicode="&#xc9;" horiz-adv-x="1456" d="M0 0v98q86 0 118 22t46 105l158 975q5 33 8.5 61.5t3.5 45.5q0 36 -28.5 50.5t-104.5 14.5v98h1128v-415h-94v35q0 166 -53.5 224t-212.5 58h-295l-92 -563h84q149 0 200.5 43t69.5 168h88q-25 -125 -45 -261t-35 -292h-88q1 10 3 29q5 57 5 79q0 82 -33 109t-147 27 h-119l-98 -613h324q129 0 187.5 14t98.5 48q43 36 75 99t67 183h94q-26 -107 -49 -217.5t-43 -224.5h-1221zM686 1603l303 312q35 35 65 51t60 16q39 0 66.5 -28t27.5 -68q0 -29 -20 -55t-60 -47l-333 -181h-109z" />
<glyph unicode="&#xca;" horiz-adv-x="1456" d="M0 0v98q86 0 118 22t46 105l158 975q5 33 8.5 61.5t3.5 45.5q0 36 -28.5 50.5t-104.5 14.5v98h1128v-415h-94v35q0 166 -53.5 224t-212.5 58h-295l-92 -563h84q149 0 200.5 43t69.5 168h88q-25 -125 -45 -261t-35 -292h-88q1 10 3 29q5 57 5 79q0 82 -33 109t-147 27 h-119l-98 -613h324q129 0 187.5 14t98.5 48q43 36 75 99t67 183h94q-26 -107 -49 -217.5t-43 -224.5h-1221zM551 1601l307 359h145l160 -359h-80l-172 183l-258 -183h-102z" />
<glyph unicode="&#xcb;" horiz-adv-x="1456" d="M0 0v98q86 0 118 22t46 105l158 975q5 33 8.5 61.5t3.5 45.5q0 36 -28.5 50.5t-104.5 14.5v98h1128v-415h-94v35q0 166 -53.5 224t-212.5 58h-295l-92 -563h84q149 0 200.5 43t69.5 168h88q-25 -125 -45 -261t-35 -292h-88q1 10 3 29q5 57 5 79q0 82 -33 109t-147 27 h-119l-98 -613h324q129 0 187.5 14t98.5 48q43 36 75 99t67 183h94q-26 -107 -49 -217.5t-43 -224.5h-1221zM590 1777q0 51 40 91t91 40q53 0 90 -37.5t37 -91.5q0 -56 -36 -93.5t-91 -37.5q-54 0 -92.5 38.5t-38.5 90.5zM965 1779q0 50 40 89.5t91 39.5q53 0 91 -38t38 -91 q0 -56 -37 -93.5t-92 -37.5t-93 38.5t-38 92.5z" />
<glyph unicode="&#xcc;" horiz-adv-x="817" d="M-10 0v92q92 2 126 26t48 113l158 969q6 44 9 68t3 35q0 38 -28 54t-113 19v94q117 -5 192 -7.5t127 -2.5q51 0 123.5 2.5t191.5 7.5v-94q-91 -1 -125.5 -25t-48.5 -114l-157 -969q-7 -34 -10 -57t-3 -37q0 -43 25.5 -59.5t126.5 -22.5l-1 -92q-130 6 -202.5 8t-118.5 2 q-44 0 -114.5 -2t-208.5 -8zM301 1888q0 40 27.5 68t65.5 28q28 0 55 -16.5t53 -50.5l248 -314h-104l-273 185q-36 25 -54 49.5t-18 50.5z" />
<glyph unicode="&#xcd;" horiz-adv-x="817" d="M-10 0v92q92 2 126 26t48 113l158 969q6 44 9 68t3 35q0 38 -28 54t-113 19v94q117 -5 192 -7.5t127 -2.5q51 0 123.5 2.5t191.5 7.5v-94q-91 -1 -125.5 -25t-48.5 -114l-157 -969q-7 -34 -10 -57t-3 -37q0 -43 25.5 -59.5t126.5 -22.5l-1 -92q-130 6 -202.5 8t-118.5 2 q-44 0 -114.5 -2t-208.5 -8zM367 1603l303 312q35 35 65 51t60 16q39 0 66.5 -28t27.5 -68q0 -29 -20 -55t-60 -47l-333 -181h-109z" />
<glyph unicode="&#xce;" horiz-adv-x="817" d="M-10 0v92q92 2 126 26t48 113l158 969q6 44 9 68t3 35q0 38 -28 54t-113 19v94q117 -5 192 -7.5t127 -2.5q51 0 123.5 2.5t191.5 7.5v-94q-91 -1 -125.5 -25t-48.5 -114l-157 -969q-7 -34 -10 -57t-3 -37q0 -43 25.5 -59.5t126.5 -22.5l-1 -92q-130 6 -202.5 8t-118.5 2 q-44 0 -114.5 -2t-208.5 -8zM232 1601l307 359h145l160 -359h-80l-172 183l-258 -183h-102z" />
<glyph unicode="&#xcf;" horiz-adv-x="817" d="M-10 0v92q92 2 126 26t48 113l158 969q6 44 9 68t3 35q0 38 -28 54t-113 19v94q117 -5 192 -7.5t127 -2.5q51 0 123.5 2.5t191.5 7.5v-94q-91 -1 -125.5 -25t-48.5 -114l-157 -969q-7 -34 -10 -57t-3 -37q0 -43 25.5 -59.5t126.5 -22.5l-1 -92q-130 6 -202.5 8t-118.5 2 q-44 0 -114.5 -2t-208.5 -8zM271 1777q0 51 40 91t91 40q53 0 90 -37.5t37 -91.5q0 -56 -36 -93.5t-91 -37.5q-54 0 -92.5 38.5t-38.5 90.5zM646 1779q0 50 40 89.5t91 39.5q53 0 91 -38t38 -91q0 -56 -37 -93.5t-92 -37.5t-93 38.5t-38 92.5z" />
<glyph unicode="&#xd0;" horiz-adv-x="1616" d="M12 715l17 100h233l62 386q2 16 6 42q8 55 8 64q0 35 -27.5 50.5t-105.5 19.5v93q111 -3 197 -4.5t147 -1.5q5 0 108 1t201 1q330 0 509 -166t179 -471q0 -187 -63 -350.5t-178 -275.5q-110 -107 -255.5 -155t-361.5 -48q-51 0 -159.5 3t-166.5 3q-40 0 -127.5 -1.5 t-221.5 -4.5v92q78 3 108.5 26t44.5 107l80 490h-234zM473 106h7q104 -8 149 -8q140 0 217 27t139 92q92 95 147.5 277.5t55.5 396.5q0 243 -93.5 361t-285.5 118q-43 0 -72.5 -0.5t-58.5 -1.5l-90 -553h280l-16 -100h-281z" />
<glyph unicode="&#xd1;" horiz-adv-x="1599" d="M-12 0v92q87 2 122 36t54 142l155 934q4 23 6.5 42t2.5 32q0 55 -40 76.5t-149 21.5v94q83 -5 136 -7.5t90 -2.5q36 0 86.5 2.5t130.5 7.5l632 -1083l127 778q7 37 11 67t4 42q0 56 -33.5 78t-126.5 25v93q72 -5 128 -7.5t101 -2.5q28 0 74 2.5t127 7.5v-93 q-86 -2 -122 -36t-54 -143l-197 -1186l-182 -22l-663 1145l-136 -832q-1 -11 -5 -33q-9 -63 -9 -73q0 -58 33.5 -80.5t123.5 -24.5l1 -92q-89 6 -139.5 8t-88.5 2q-25 0 -66.5 -2t-133.5 -8zM664 1640q26 121 74 178.5t122 57.5q20 0 41.5 -3t41.5 -8l124 -30q11 -3 24 -4.5 t36 -1.5q39 0 65.5 20.5t40.5 62.5l62 1q-27 -119 -76.5 -176.5t-124.5 -57.5q-18 0 -36 2t-36 6l-117 29q-24 6 -42 9t-29 3q-41 0 -67 -21.5t-40 -66.5h-63z" />
<glyph unicode="&#xd2;" horiz-adv-x="1597" d="M68 651q0 149 43.5 283.5t128.5 243.5q116 150 281 229.5t362 79.5q285 0 466 -186.5t181 -483.5q0 -147 -44 -281.5t-128 -244.5q-115 -149 -279.5 -230t-351.5 -81q-293 0 -476 186t-183 485zM420 518q0 -213 75 -325.5t216 -112.5q92 0 170 51.5t139 153.5 q74 122 117 304.5t43 379.5q0 201 -78.5 310.5t-220.5 109.5q-94 0 -173.5 -56t-140.5 -164q-67 -122 -107 -297.5t-40 -353.5zM690 1888q0 40 27.5 68t65.5 28q28 0 55 -16.5t53 -50.5l248 -314h-104l-273 185q-36 25 -54 49.5t-18 50.5z" />
<glyph unicode="&#xd3;" horiz-adv-x="1597" d="M68 651q0 149 43.5 283.5t128.5 243.5q116 150 281 229.5t362 79.5q285 0 466 -186.5t181 -483.5q0 -147 -44 -281.5t-128 -244.5q-115 -149 -279.5 -230t-351.5 -81q-293 0 -476 186t-183 485zM420 518q0 -213 75 -325.5t216 -112.5q92 0 170 51.5t139 153.5 q74 122 117 304.5t43 379.5q0 201 -78.5 310.5t-220.5 109.5q-94 0 -173.5 -56t-140.5 -164q-67 -122 -107 -297.5t-40 -353.5zM756 1603l303 312q35 35 65 51t60 16q39 0 66.5 -28t27.5 -68q0 -29 -20 -55t-60 -47l-333 -181h-109z" />
<glyph unicode="&#xd4;" horiz-adv-x="1597" d="M68 651q0 149 43.5 283.5t128.5 243.5q116 150 281 229.5t362 79.5q285 0 466 -186.5t181 -483.5q0 -147 -44 -281.5t-128 -244.5q-115 -149 -279.5 -230t-351.5 -81q-293 0 -476 186t-183 485zM420 518q0 -213 75 -325.5t216 -112.5q92 0 170 51.5t139 153.5 q74 122 117 304.5t43 379.5q0 201 -78.5 310.5t-220.5 109.5q-94 0 -173.5 -56t-140.5 -164q-67 -122 -107 -297.5t-40 -353.5zM621 1601l307 359h145l160 -359h-80l-172 183l-258 -183h-102z" />
<glyph unicode="&#xd5;" horiz-adv-x="1597" d="M68 651q0 149 43.5 283.5t128.5 243.5q116 150 281 229.5t362 79.5q285 0 466 -186.5t181 -483.5q0 -147 -44 -281.5t-128 -244.5q-115 -149 -279.5 -230t-351.5 -81q-293 0 -476 186t-183 485zM420 518q0 -213 75 -325.5t216 -112.5q92 0 170 51.5t139 153.5 q74 122 117 304.5t43 379.5q0 201 -78.5 310.5t-220.5 109.5q-94 0 -173.5 -56t-140.5 -164q-67 -122 -107 -297.5t-40 -353.5zM662 1640q26 121 74 178.5t122 57.5q20 0 41.5 -3t41.5 -8l124 -30q11 -3 24 -4.5t36 -1.5q39 0 65.5 20.5t40.5 62.5l62 1 q-27 -119 -76.5 -176.5t-124.5 -57.5q-18 0 -36 2t-36 6l-117 29q-24 6 -42 9t-29 3q-41 0 -67 -21.5t-40 -66.5h-63z" />
<glyph unicode="&#xd6;" horiz-adv-x="1597" d="M68 651q0 149 43.5 283.5t128.5 243.5q116 150 281 229.5t362 79.5q285 0 466 -186.5t181 -483.5q0 -147 -44 -281.5t-128 -244.5q-115 -149 -279.5 -230t-351.5 -81q-293 0 -476 186t-183 485zM420 518q0 -213 75 -325.5t216 -112.5q92 0 170 51.5t139 153.5 q74 122 117 304.5t43 379.5q0 201 -78.5 310.5t-220.5 109.5q-94 0 -173.5 -56t-140.5 -164q-67 -122 -107 -297.5t-40 -353.5zM660 1777q0 51 40 91t91 40q53 0 90 -37.5t37 -91.5q0 -56 -36 -93.5t-91 -37.5q-54 0 -92.5 38.5t-38.5 90.5zM1035 1779q0 50 40 89.5t91 39.5 q53 0 91 -38t38 -91q0 -56 -37 -93.5t-92 -37.5t-93 38.5t-38 92.5z" />
<glyph unicode="&#xd7;" horiz-adv-x="1706" d="M276 160l451 450l-451 453l140 139l450 -450l451 450l141 -139l-450 -453l450 -450l-141 -140l-451 451l-450 -451z" />
<glyph unicode="&#xd8;" horiz-adv-x="1597" d="M68 647q0 188 69.5 351t200.5 282q109 100 245.5 152.5t286.5 52.5q83 0 160 -17t152 -51l135 205h131l-174 -260q123 -89 188.5 -232t65.5 -323q0 -177 -66 -335t-190 -277q-109 -106 -248.5 -159.5t-304.5 -53.5q-92 0 -171.5 18.5t-152.5 56.5l-155 -227h-131l194 289 q-120 100 -177.5 229t-57.5 299zM422 539q0 -69 6 -119t18 -96l652 962q-37 51 -88.5 75.5t-118.5 24.5q-111 0 -197.5 -65.5t-150.5 -198.5q-57 -116 -89 -270.5t-32 -312.5zM489 203q33 -62 87 -92.5t131 -30.5q111 0 198 67.5t154 204.5q57 119 89 269t32 301 q0 67 -9.5 129t-27.5 120z" />
<glyph unicode="&#xd9;" horiz-adv-x="1599" d="M193 369q0 63 25 220q5 29 7 43l95 569l3 21q11 71 11 85q0 36 -26.5 51t-106.5 18v94q115 -5 188 -7.5t123 -2.5q52 0 127 2.5t192 7.5v-94q-100 -4 -132.5 -27t-47.5 -112l-102 -629q-18 -115 -23.5 -162.5t-5.5 -80.5q0 -131 75 -199t218 -68q115 0 199.5 46.5 t134.5 136.5q57 100 105 413l3 22l76 484q5 28 7.5 53.5t2.5 44.5q0 43 -25 58.5t-132 19.5v94q93 -5 142.5 -7.5t82.5 -2.5q29 0 76 2.5t133 7.5v-93q-93 -2 -128 -28t-48 -112l-113 -698q-47 -291 -196.5 -424t-425.5 -133q-253 0 -383.5 98.5t-130.5 288.5zM702 1888 q0 40 27.5 68t65.5 28q28 0 55 -16.5t53 -50.5l248 -314h-104l-273 185q-36 25 -54 49.5t-18 50.5z" />
<glyph unicode="&#xda;" horiz-adv-x="1599" d="M193 369q0 63 25 220q5 29 7 43l95 569l3 21q11 71 11 85q0 36 -26.5 51t-106.5 18v94q115 -5 188 -7.5t123 -2.5q52 0 127 2.5t192 7.5v-94q-100 -4 -132.5 -27t-47.5 -112l-102 -629q-18 -115 -23.5 -162.5t-5.5 -80.5q0 -131 75 -199t218 -68q115 0 199.5 46.5 t134.5 136.5q57 100 105 413l3 22l76 484q5 28 7.5 53.5t2.5 44.5q0 43 -25 58.5t-132 19.5v94q93 -5 142.5 -7.5t82.5 -2.5q29 0 76 2.5t133 7.5v-93q-93 -2 -128 -28t-48 -112l-113 -698q-47 -291 -196.5 -424t-425.5 -133q-253 0 -383.5 98.5t-130.5 288.5zM768 1603 l303 312q35 35 65 51t60 16q39 0 66.5 -28t27.5 -68q0 -29 -20 -55t-60 -47l-333 -181h-109z" />
<glyph unicode="&#xdb;" horiz-adv-x="1599" d="M193 369q0 63 25 220q5 29 7 43l95 569l3 21q11 71 11 85q0 36 -26.5 51t-106.5 18v94q115 -5 188 -7.5t123 -2.5q52 0 127 2.5t192 7.5v-94q-100 -4 -132.5 -27t-47.5 -112l-102 -629q-18 -115 -23.5 -162.5t-5.5 -80.5q0 -131 75 -199t218 -68q115 0 199.5 46.5 t134.5 136.5q57 100 105 413l3 22l76 484q5 28 7.5 53.5t2.5 44.5q0 43 -25 58.5t-132 19.5v94q93 -5 142.5 -7.5t82.5 -2.5q29 0 76 2.5t133 7.5v-93q-93 -2 -128 -28t-48 -112l-113 -698q-47 -291 -196.5 -424t-425.5 -133q-253 0 -383.5 98.5t-130.5 288.5zM633 1601 l307 359h145l160 -359h-80l-172 183l-258 -183h-102z" />
<glyph unicode="&#xdc;" horiz-adv-x="1599" d="M193 369q0 63 25 220q5 29 7 43l95 569l3 21q11 71 11 85q0 36 -26.5 51t-106.5 18v94q115 -5 188 -7.5t123 -2.5q52 0 127 2.5t192 7.5v-94q-100 -4 -132.5 -27t-47.5 -112l-102 -629q-18 -115 -23.5 -162.5t-5.5 -80.5q0 -131 75 -199t218 -68q115 0 199.5 46.5 t134.5 136.5q57 100 105 413l3 22l76 484q5 28 7.5 53.5t2.5 44.5q0 43 -25 58.5t-132 19.5v94q93 -5 142.5 -7.5t82.5 -2.5q29 0 76 2.5t133 7.5v-93q-93 -2 -128 -28t-48 -112l-113 -698q-47 -291 -196.5 -424t-425.5 -133q-253 0 -383.5 98.5t-130.5 288.5zM672 1777 q0 51 40 91t91 40q53 0 90 -37.5t37 -91.5q0 -56 -36 -93.5t-91 -37.5q-54 0 -92.5 38.5t-38.5 90.5zM1047 1779q0 50 40 89.5t91 39.5q53 0 91 -38t38 -91q0 -56 -37 -93.5t-92 -37.5t-93 38.5t-38 92.5z" />
<glyph unicode="&#xdd;" horiz-adv-x="1245" d="M-6 1377v93q141 -6 204 -8t101 -2q49 0 125 2.5t205 7.5v-94q-73 -7 -95 -19.5t-22 -39.5q0 -12 6 -32t19 -48l213 -485l282 489q12 22 19.5 44t7.5 36q0 28 -29 41t-100 15v93q77 -5 126 -7.5t83 -2.5q32 0 79 2.5t125 7.5l2 -94q-57 -3 -95.5 -29.5t-94.5 -117.5 l-358 -580l-62 -381q-5 -28 -7.5 -52t-2.5 -42q0 -43 25 -59.5t124 -22.5v-92q-130 6 -202.5 8t-118.5 2t-117.5 -2t-206.5 -8l1 92q92 2 126 27t47 112l64 383l-272 596q-44 94 -85.5 126.5t-115.5 40.5zM580 1603l303 312q35 35 65 51t60 16q39 0 66.5 -28t27.5 -68 q0 -29 -20 -55t-60 -47l-333 -181h-109z" />
<glyph unicode="&#xde;" horiz-adv-x="1399" d="M0 0v92q85 2 117.5 25t46.5 108l158 975q5 33 8.5 61.5t3.5 45.5q0 35 -28 50.5t-105 18.5v94q115 -5 188 -7.5t123 -2.5q55 0 130 2.5t185 7.5v-94q-91 -1 -125.5 -25t-48.5 -114l-12 -71q46 2 68 2.5t41 0.5q272 0 414.5 -99t142.5 -288q0 -204 -153 -310.5 t-447 -106.5q-82 0 -121.5 1t-73.5 5l-16 -103q-7 -40 -10 -66.5t-3 -39.5q0 -39 33 -53.5t149 -16.5v-92q-132 5 -218 7.5t-148 2.5q-43 0 -280 -9zM528 471q8 0 23 -1q52 -3 72 -3q177 0 259.5 84t82.5 264q0 134 -68.5 194t-220.5 60q-7 0 -24 -1t-25 -1z" />
<glyph unicode="&#xdf;" horiz-adv-x="1219" d="M-57 -436q47 134 89 325.5t107 591.5l64 398q1 8 4 26q39 239 115 363q76 126 191 191t261 65q178 0 284.5 -83.5t106.5 -221.5q0 -133 -106 -231t-289 -132q168 -21 257 -106t89 -224q0 -223 -137 -383.5t-322 -160.5q-49 0 -96 14t-96 43l16 88q33 -17 59 -25t50 -8 q43 0 79.5 25t57.5 69q38 76 62 182.5t24 198.5q0 129 -53 186.5t-182 67.5l14 80q5 -1 10.5 -1.5t15.5 -0.5q115 0 191 109t76 270q0 73 -32.5 115.5t-88.5 42.5q-106 0 -168 -132t-121 -507l-55 -355q-49 -308 -86 -477t-84 -315z" />
<glyph unicode="&#xe0;" horiz-adv-x="1253" d="M18 285q0 126 46 255.5t129 235.5q86 112 190.5 173t208.5 61q82 0 136 -30t83 -91l39 121h264l-176 -729q-9 -33 -12.5 -55t-3.5 -38q0 -29 14.5 -46t38.5 -17q38 0 77 41.5t76 122.5l64 -29q-63 -139 -151.5 -208.5t-202.5 -69.5q-91 0 -138 42.5t-47 125.5q0 19 3 47 t10 63q-82 -134 -186.5 -206t-215.5 -72q-115 0 -180.5 80t-65.5 223zM324 305q0 -81 24 -119.5t76 -38.5q66 0 158 106.5t118 217.5l70 291q-6 78 -39.5 120t-89.5 42q-58 0 -111.5 -50.5t-99.5 -148.5q-49 -103 -77.5 -217t-28.5 -203zM475 1407q0 40 27.5 68t65.5 28 q28 0 55 -16.5t53 -50.5l248 -314h-104l-273 185q-36 25 -54 49.5t-18 50.5z" />
<glyph unicode="&#xe1;" horiz-adv-x="1253" d="M18 285q0 126 46 255.5t129 235.5q86 112 190.5 173t208.5 61q82 0 136 -30t83 -91l39 121h264l-176 -729q-9 -33 -12.5 -55t-3.5 -38q0 -29 14.5 -46t38.5 -17q38 0 77 41.5t76 122.5l64 -29q-63 -139 -151.5 -208.5t-202.5 -69.5q-91 0 -138 42.5t-47 125.5q0 19 3 47 t10 63q-82 -134 -186.5 -206t-215.5 -72q-115 0 -180.5 80t-65.5 223zM324 305q0 -81 24 -119.5t76 -38.5q66 0 158 106.5t118 217.5l70 291q-6 78 -39.5 120t-89.5 42q-58 0 -111.5 -50.5t-99.5 -148.5q-49 -103 -77.5 -217t-28.5 -203zM541 1122l303 312q35 35 65 51 t60 16q39 0 66.5 -28t27.5 -68q0 -29 -20 -55t-60 -47l-333 -181h-109z" />
<glyph unicode="&#xe2;" horiz-adv-x="1253" d="M18 285q0 126 46 255.5t129 235.5q86 112 190.5 173t208.5 61q82 0 136 -30t83 -91l39 121h264l-176 -729q-9 -33 -12.5 -55t-3.5 -38q0 -29 14.5 -46t38.5 -17q38 0 77 41.5t76 122.5l64 -29q-63 -139 -151.5 -208.5t-202.5 -69.5q-91 0 -138 42.5t-47 125.5q0 19 3 47 t10 63q-82 -134 -186.5 -206t-215.5 -72q-115 0 -180.5 80t-65.5 223zM324 305q0 -81 24 -119.5t76 -38.5q66 0 158 106.5t118 217.5l70 291q-6 78 -39.5 120t-89.5 42q-58 0 -111.5 -50.5t-99.5 -148.5q-49 -103 -77.5 -217t-28.5 -203zM406 1120l307 359h145l160 -359h-80 l-172 183l-258 -183h-102z" />
<glyph unicode="&#xe3;" horiz-adv-x="1253" d="M18 285q0 126 46 255.5t129 235.5q86 112 190.5 173t208.5 61q82 0 136 -30t83 -91l39 121h264l-176 -729q-9 -33 -12.5 -55t-3.5 -38q0 -29 14.5 -46t38.5 -17q38 0 77 41.5t76 122.5l64 -29q-63 -139 -151.5 -208.5t-202.5 -69.5q-91 0 -138 42.5t-47 125.5q0 19 3 47 t10 63q-82 -134 -186.5 -206t-215.5 -72q-115 0 -180.5 80t-65.5 223zM324 305q0 -81 24 -119.5t76 -38.5q66 0 158 106.5t118 217.5l70 291q-6 78 -39.5 120t-89.5 42q-58 0 -111.5 -50.5t-99.5 -148.5q-49 -103 -77.5 -217t-28.5 -203zM447 1159q26 121 74 178.5t122 57.5 q20 0 41.5 -3t41.5 -8l124 -30q11 -3 24 -4.5t36 -1.5q39 0 65.5 20.5t40.5 62.5l62 1q-27 -119 -76.5 -176.5t-124.5 -57.5q-18 0 -36 2t-36 6l-117 29q-24 6 -42 9t-29 3q-41 0 -67 -21.5t-40 -66.5h-63z" />
<glyph unicode="&#xe4;" horiz-adv-x="1253" d="M18 285q0 126 46 255.5t129 235.5q86 112 190.5 173t208.5 61q82 0 136 -30t83 -91l39 121h264l-176 -729q-9 -33 -12.5 -55t-3.5 -38q0 -29 14.5 -46t38.5 -17q38 0 77 41.5t76 122.5l64 -29q-63 -139 -151.5 -208.5t-202.5 -69.5q-91 0 -138 42.5t-47 125.5q0 19 3 47 t10 63q-82 -134 -186.5 -206t-215.5 -72q-115 0 -180.5 80t-65.5 223zM324 305q0 -81 24 -119.5t76 -38.5q66 0 158 106.5t118 217.5l70 291q-6 78 -39.5 120t-89.5 42q-58 0 -111.5 -50.5t-99.5 -148.5q-49 -103 -77.5 -217t-28.5 -203zM445 1296q0 51 40 91t91 40 q53 0 90 -37.5t37 -91.5q0 -56 -36 -93.5t-91 -37.5q-54 0 -92.5 38.5t-38.5 90.5zM820 1298q0 50 40 89.5t91 39.5q53 0 91 -38t38 -91q0 -56 -37 -93.5t-92 -37.5t-93 38.5t-38 92.5z" />
<glyph unicode="&#xe5;" horiz-adv-x="1253" d="M18 285q0 126 46 255.5t129 235.5q86 112 190.5 173t208.5 61q82 0 136 -30t83 -91l39 121h264l-176 -729q-9 -33 -12.5 -55t-3.5 -38q0 -29 14.5 -46t38.5 -17q38 0 77 41.5t76 122.5l64 -29q-63 -139 -151.5 -208.5t-202.5 -69.5q-91 0 -138 41.5t-47 121.5q0 23 3 51 t10 64q-82 -134 -186.5 -206t-215.5 -72q-115 0 -180.5 80t-65.5 223zM324 305q0 -81 24 -119.5t76 -38.5q66 0 158 106.5t118 217.5l70 291q-6 78 -39.5 120t-89.5 42q-58 0 -111.5 -50.5t-99.5 -148.5q-49 -103 -77.5 -217t-28.5 -203zM514 1298q0 94 65 159t158 65 q94 0 160 -65.5t66 -158.5t-66 -158t-160 -65t-158.5 64.5t-64.5 158.5zM627 1298q0 -46 32 -78t78 -32q47 0 80 32.5t33 77.5q0 47 -33 80t-80 33q-46 0 -78 -33t-32 -80z" />
<glyph unicode="&#xe6;" horiz-adv-x="1657" d="M0 215q0 166 171.5 251.5t524.5 96.5l19 96q4 23 6 47t2 46q0 88 -41.5 130t-128.5 42q-35 0 -68 -10t-71 -31q2 -14 3 -28.5t1 -39.5q0 -68 -39.5 -112t-99.5 -44q-51 0 -82 31.5t-31 83.5q0 103 110 170.5t287 67.5q121 0 204 -42.5t128 -125.5q81 86 179 127t220 41 q141 0 219 -55.5t78 -153.5q0 -148 -161.5 -232t-450.5 -84h-10q-12 -56 -17.5 -105t-5.5 -91q0 -100 40.5 -149.5t121.5 -49.5q93 0 177.5 60t144.5 167l61 -40q-71 -141 -191.5 -219t-265.5 -78q-115 0 -199.5 55t-127.5 158q-98 -108 -207 -160.5t-232 -52.5t-195.5 63 t-72.5 170zM293 244q0 -64 32.5 -101t88.5 -37q50 0 106.5 34t116.5 100l43 241q-198 0 -292.5 -58t-94.5 -179zM983 570q184 4 275.5 64.5t91.5 178.5q0 52 -27.5 81.5t-75.5 29.5q-92 0 -160 -92t-104 -262z" />
<glyph unicode="&#xe7;" horiz-adv-x="1067" d="M33 393q0 256 179 436.5t433 180.5q160 0 256 -71.5t96 -186.5q0 -66 -35.5 -107t-91.5 -41q-55 0 -87.5 37t-32.5 98q0 30 6 71.5t6 51.5q0 28 -27 44t-73 16q-132 0 -223 -156.5t-91 -386.5q0 -142 61.5 -219.5t172.5 -77.5q93 0 177 63.5t136 173.5l61 -40 q-67 -149 -185.5 -223t-289.5 -74q-211 0 -329.5 108.5t-118.5 302.5zM233 -371l41 90q60 -36 121 -55.5t112 -19.5q49 0 75 21t26 61q0 41 -26.5 63.5t-76.5 22.5q-17 0 -39.5 -3.5t-50.5 -9.5l66 201h72l-35 -114q9 0 25 2q40 5 53 6q80 0 127 -47t47 -128 q0 -79 -60 -127.5t-160 -48.5q-67 0 -145 21.5t-172 64.5z" />
<glyph unicode="&#xe8;" horiz-adv-x="1051" d="M31 377q0 263 188 449t465 186q142 0 220.5 -55.5t78.5 -153.5q0 -148 -161.5 -232t-448.5 -84h-11q-11 -54 -16.5 -104.5t-5.5 -93.5q0 -100 39 -148.5t121 -48.5q94 0 179 59.5t144 167.5l60 -40q-75 -146 -194.5 -222.5t-270.5 -76.5q-178 0 -282.5 107t-104.5 290z M374 1407q0 40 27.5 68t65.5 28q28 0 55 -16.5t53 -50.5l248 -314h-104l-273 185q-36 25 -54 49.5t-18 50.5zM377 570q173 4 260.5 65t87.5 178q0 50 -26.5 78.5t-73.5 28.5q-88 0 -148.5 -85.5t-99.5 -264.5z" />
<glyph unicode="&#xe9;" horiz-adv-x="1051" d="M31 377q0 263 188 449t465 186q142 0 220.5 -55.5t78.5 -153.5q0 -148 -161.5 -232t-448.5 -84h-11q-11 -54 -16.5 -104.5t-5.5 -93.5q0 -100 39 -148.5t121 -48.5q94 0 179 59.5t144 167.5l60 -40q-75 -146 -194.5 -222.5t-270.5 -76.5q-178 0 -282.5 107t-104.5 290z M377 570q173 4 260.5 65t87.5 178q0 50 -26.5 78.5t-73.5 28.5q-88 0 -148.5 -85.5t-99.5 -264.5zM440 1122l303 312q35 35 65 51t60 16q39 0 66.5 -28t27.5 -68q0 -29 -20 -55t-60 -47l-333 -181h-109z" />
<glyph unicode="&#xea;" horiz-adv-x="1051" d="M31 377q0 263 188 449t465 186q142 0 220.5 -55.5t78.5 -153.5q0 -148 -161.5 -232t-448.5 -84h-11q-11 -54 -16.5 -104.5t-5.5 -93.5q0 -100 39 -148.5t121 -48.5q94 0 179 59.5t144 167.5l60 -40q-75 -146 -194.5 -222.5t-270.5 -76.5q-178 0 -282.5 107t-104.5 290z M305 1120l307 359h145l160 -359h-80l-172 183l-258 -183h-102zM377 570q173 4 260.5 65t87.5 178q0 50 -26.5 78.5t-73.5 28.5q-88 0 -148.5 -85.5t-99.5 -264.5z" />
<glyph unicode="&#xeb;" horiz-adv-x="1051" d="M31 377q0 263 188 449t465 186q142 0 220.5 -55.5t78.5 -153.5q0 -148 -161.5 -232t-448.5 -84h-11q-11 -54 -16.5 -104.5t-5.5 -93.5q0 -100 39 -148.5t121 -48.5q94 0 179 59.5t144 167.5l60 -40q-75 -146 -194.5 -222.5t-270.5 -76.5q-178 0 -282.5 107t-104.5 290z M344 1296q0 51 40 91t91 40q53 0 90 -37.5t37 -91.5q0 -56 -36 -93.5t-91 -37.5q-54 0 -92.5 38.5t-38.5 90.5zM377 570q173 4 260.5 65t87.5 178q0 50 -26.5 78.5t-73.5 28.5q-88 0 -148.5 -85.5t-99.5 -264.5zM719 1298q0 50 40 89.5t91 39.5q53 0 91 -38t38 -91 q0 -56 -37 -93.5t-92 -37.5t-93 38.5t-38 92.5z" />
<glyph unicode="&#xec;" horiz-adv-x="743" d="M-6 741q64 122 161 189t205 67q99 0 155 -47.5t56 -130.5q0 -26 -6 -61t-18 -78l-127 -428q-6 -20 -9 -38.5t-3 -35.5q0 -35 13.5 -52t41.5 -17q40 0 84 46t90 136l61 -31q-71 -144 -159.5 -211t-206.5 -67q-99 0 -158 51t-59 137q0 23 5 52t15 61l135 456q4 14 6.5 30 t2.5 34q0 35 -13.5 52t-40.5 17q-36 0 -80 -42.5t-92 -124.5zM200 1407q0 40 27.5 68t65.5 28q28 0 55 -16.5t53 -50.5l248 -314h-104l-273 185q-36 25 -54 49.5t-18 50.5z" />
<glyph unicode="&#xed;" horiz-adv-x="743" d="M-6 741q64 122 161 189t205 67q99 0 155 -47.5t56 -130.5q0 -26 -6 -61t-18 -78l-127 -428q-6 -20 -9 -38.5t-3 -35.5q0 -35 13.5 -52t41.5 -17q40 0 84 46t90 136l61 -31q-71 -144 -159.5 -211t-206.5 -67q-99 0 -158 51t-59 137q0 23 5 52t15 61l135 456q4 14 6.5 30 t2.5 34q0 35 -13.5 52t-40.5 17q-36 0 -80 -42.5t-92 -124.5zM266 1122l303 312q35 35 65 51t60 16q39 0 66.5 -28t27.5 -68q0 -29 -20 -55t-60 -47l-333 -181h-109z" />
<glyph unicode="&#xee;" horiz-adv-x="743" d="M-6 741q64 122 161 189t205 67q99 0 155 -47.5t56 -130.5q0 -26 -6 -61t-18 -78l-127 -428q-6 -20 -9 -38.5t-3 -35.5q0 -35 13.5 -52t41.5 -17q40 0 84 46t90 136l61 -31q-71 -144 -159.5 -211t-206.5 -67q-99 0 -158 51t-59 137q0 23 5 52t15 61l135 456q4 14 6.5 30 t2.5 34q0 35 -13.5 52t-40.5 17q-36 0 -80 -42.5t-92 -124.5zM131 1120l307 359h145l160 -359h-80l-172 183l-258 -183h-102z" />
<glyph unicode="&#xef;" horiz-adv-x="743" d="M-6 741q64 122 161 189t205 67q99 0 155 -47.5t56 -130.5q0 -26 -6 -61t-18 -78l-127 -428q-6 -20 -9 -38.5t-3 -35.5q0 -35 13.5 -52t41.5 -17q40 0 84 46t90 136l61 -31q-71 -144 -159.5 -211t-206.5 -67q-99 0 -158 51t-59 137q0 23 5 52t15 61l135 456q4 14 6.5 30 t2.5 34q0 35 -13.5 52t-40.5 17q-36 0 -80 -42.5t-92 -124.5zM170 1296q0 51 40 91t91 40q53 0 90 -37.5t37 -91.5q0 -56 -36 -93.5t-91 -37.5q-54 0 -92.5 38.5t-38.5 90.5zM545 1298q0 50 40 89.5t91 39.5q53 0 91 -38t38 -91q0 -56 -37 -93.5t-92 -37.5t-93 38.5 t-38 92.5z" />
<glyph unicode="&#xf0;" horiz-adv-x="1124" d="M33 412q0 218 170.5 390.5t390.5 172.5q33 0 65.5 -6t65.5 -19q-23 71 -50 131.5t-59 114.5l-303 -104l-30 84l290 100q-36 60 -68 109t-63 92l113 69q60 -66 101.5 -115t76.5 -96l277 95l34 -84l-253 -86q129 -178 191 -343.5t62 -330.5q0 -262 -168.5 -433t-420.5 -171 q-196 0 -309 114.5t-113 315.5zM319 252q0 -89 37 -137.5t103 -48.5q55 0 105.5 47t90.5 137q45 101 72 223.5t27 222.5q0 91 -33.5 141t-93.5 50q-62 0 -113.5 -46.5t-93.5 -140.5q-46 -104 -73.5 -227t-27.5 -221z" />
<glyph unicode="&#xf1;" horiz-adv-x="1341" d="M-23 748q74 127 165.5 188t207.5 61q92 0 140.5 -40.5t48.5 -118.5q0 -24 -7 -63.5t-24 -115.5q115 180 220.5 259t225.5 79q95 0 152 -53.5t57 -142.5q0 -33 -8.5 -75.5t-28.5 -104.5l-112 -356l-2 -7q-21 -69 -21 -92q0 -26 16 -41.5t42 -15.5q39 0 84 46.5t90 135.5 l61 -31q-73 -147 -157.5 -212.5t-200.5 -65.5q-105 0 -165.5 50t-60.5 136q0 25 5.5 54t15.5 61l123 383q17 52 23.5 83t6.5 52q0 28 -13 42.5t-40 14.5q-77 0 -191.5 -146.5t-152.5 -318.5l-88 -393h-289l162 727q5 23 7.5 43.5t2.5 38.5q0 32 -13 50t-36 18 q-42 0 -89 -41.5t-99 -126.5zM492 1159q26 121 74 178.5t122 57.5q20 0 41.5 -3t41.5 -8l124 -30q11 -3 24 -4.5t36 -1.5q39 0 65.5 20.5t40.5 62.5l62 1q-27 -119 -76.5 -176.5t-124.5 -57.5q-18 0 -36 2t-36 6l-117 29q-24 6 -42 9t-29 3q-41 0 -67 -21.5t-40 -66.5h-63z " />
<glyph unicode="&#xf2;" horiz-adv-x="1157" d="M33 416q0 238 177.5 416t420.5 178q200 0 318 -118.5t118 -316.5q0 -245 -174.5 -419t-423.5 -174q-196 0 -316 119.5t-120 314.5zM330 262q0 -92 37 -142t104 -50q57 0 108.5 49.5t92.5 142.5q44 102 71 232t27 237q0 96 -32.5 145.5t-96.5 49.5q-63 0 -115.5 -48 t-93.5 -145q-47 -109 -74.5 -236.5t-27.5 -234.5zM428 1407q0 40 27.5 68t65.5 28q28 0 55 -16.5t53 -50.5l248 -314h-104l-273 185q-36 25 -54 49.5t-18 50.5z" />
<glyph unicode="&#xf3;" horiz-adv-x="1157" d="M33 416q0 238 177.5 416t420.5 178q200 0 318 -118.5t118 -316.5q0 -245 -174.5 -419t-423.5 -174q-196 0 -316 119.5t-120 314.5zM330 262q0 -92 37 -142t104 -50q57 0 108.5 49.5t92.5 142.5q44 102 71 232t27 237q0 96 -32.5 145.5t-96.5 49.5q-63 0 -115.5 -48 t-93.5 -145q-47 -109 -74.5 -236.5t-27.5 -234.5zM494 1122l303 312q35 35 65 51t60 16q39 0 66.5 -28t27.5 -68q0 -29 -20 -55t-60 -47l-333 -181h-109z" />
<glyph unicode="&#xf4;" horiz-adv-x="1157" d="M33 416q0 238 177.5 416t420.5 178q200 0 318 -118.5t118 -316.5q0 -245 -174.5 -419t-423.5 -174q-196 0 -316 119.5t-120 314.5zM330 262q0 -92 37 -142t104 -50q57 0 108.5 49.5t92.5 142.5q44 102 71 232t27 237q0 96 -32.5 145.5t-96.5 49.5q-63 0 -115.5 -48 t-93.5 -145q-47 -109 -74.5 -236.5t-27.5 -234.5zM359 1120l307 359h145l160 -359h-80l-172 183l-258 -183h-102z" />
<glyph unicode="&#xf5;" horiz-adv-x="1157" d="M33 416q0 238 177.5 416t420.5 178q200 0 318 -118.5t118 -316.5q0 -245 -174.5 -419t-423.5 -174q-196 0 -316 119.5t-120 314.5zM330 262q0 -92 37 -142t104 -50q57 0 108.5 49.5t92.5 142.5q44 102 71 232t27 237q0 96 -32.5 145.5t-96.5 49.5q-63 0 -115.5 -48 t-93.5 -145q-47 -109 -74.5 -236.5t-27.5 -234.5zM400 1159q26 121 74 178.5t122 57.5q20 0 41.5 -3t41.5 -8l124 -30q11 -3 24 -4.5t36 -1.5q39 0 65.5 20.5t40.5 62.5l62 1q-27 -119 -76.5 -176.5t-124.5 -57.5q-18 0 -36 2t-36 6l-117 29q-24 6 -42 9t-29 3 q-41 0 -67 -21.5t-40 -66.5h-63z" />
<glyph unicode="&#xf6;" horiz-adv-x="1157" d="M33 416q0 238 177.5 416t420.5 178q200 0 318 -118.5t118 -316.5q0 -245 -174.5 -419t-423.5 -174q-196 0 -316 119.5t-120 314.5zM330 262q0 -92 37 -142t104 -50q57 0 108.5 49.5t92.5 142.5q44 102 71 232t27 237q0 96 -32.5 145.5t-96.5 49.5q-63 0 -115.5 -48 t-93.5 -145q-47 -109 -74.5 -236.5t-27.5 -234.5zM398 1296q0 51 40 91t91 40q53 0 90 -37.5t37 -91.5q0 -56 -36 -93.5t-91 -37.5q-54 0 -92.5 38.5t-38.5 90.5zM773 1298q0 50 40 89.5t91 39.5q53 0 91 -38t38 -91q0 -56 -37 -93.5t-92 -37.5t-93 38.5t-38 92.5z" />
<glyph unicode="&#xf7;" horiz-adv-x="1706" d="M254 512v199h1198v-199h-1198zM702 217q0 63 44.5 107.5t107.5 44.5q62 0 107 -45t45 -107q0 -61 -45 -105t-107 -44q-63 0 -107.5 43t-44.5 106zM702 1004q0 63 44.5 107t107.5 44q62 0 107 -44.5t45 -106.5q0 -63 -44.5 -107.5t-107.5 -44.5t-107.5 44.5t-44.5 107.5z " />
<glyph unicode="&#xf8;" horiz-adv-x="1151" d="M35 416q0 239 177 416.5t421 177.5q50 0 96.5 -8.5t91.5 -24.5l121 180h100l-147 -219q86 -63 129 -155t43 -212q0 -248 -177 -418.5t-441 -170.5q-46 0 -90 9t-85 27l-127 -188h-100l156 229q-86 63 -127 150.5t-41 206.5zM322 301q0 -11 2 -42q1 -12 2 -19l422 626 q-19 29 -48.5 43.5t-68.5 14.5q-64 0 -115.5 -44.5t-91.5 -134.5q-47 -103 -74.5 -225t-27.5 -219zM352 135q20 -36 49.5 -52.5t73.5 -16.5q63 0 117.5 55t95.5 160q41 102 64.5 218.5t23.5 209.5v53z" />
<glyph unicode="&#xf9;" horiz-adv-x="1343" d="M-6 721q75 143 161.5 209.5t198.5 66.5q105 0 164.5 -49t59.5 -135q0 -25 -5.5 -54t-15.5 -61l-123 -385q-15 -49 -21.5 -80.5t-6.5 -54.5q0 -29 12.5 -43t38.5 -14q77 0 191.5 146.5t152.5 318.5l88 393h289l-160 -727q-6 -30 -9 -50t-3 -32q0 -30 13.5 -49t35.5 -19 q42 0 89 41.5t99 126.5l57 -39q-73 -127 -164.5 -188t-207.5 -61q-92 0 -140.5 40.5t-48.5 118.5q0 26 6.5 64.5t24.5 113.5q-113 -178 -219 -257.5t-227 -79.5q-94 0 -150.5 54t-56.5 144q0 35 8 76.5t27 101.5l112 358q2 6 4 14q19 61 19 83q0 26 -14.5 41.5t-39.5 15.5 q-38 0 -84.5 -48t-91.5 -134zM499 1407q0 40 27.5 68t65.5 28q28 0 55 -16.5t53 -50.5l248 -314h-104l-273 185q-36 25 -54 49.5t-18 50.5z" />
<glyph unicode="&#xfa;" horiz-adv-x="1343" d="M-6 721q75 143 161.5 209.5t198.5 66.5q105 0 164.5 -49t59.5 -135q0 -25 -5.5 -54t-15.5 -61l-123 -385q-15 -49 -21.5 -80.5t-6.5 -54.5q0 -29 12.5 -43t38.5 -14q77 0 191.5 146.5t152.5 318.5l88 393h289l-160 -727q-6 -30 -9 -50t-3 -32q0 -30 13.5 -49t35.5 -19 q42 0 89 41.5t99 126.5l57 -39q-73 -127 -164.5 -188t-207.5 -61q-92 0 -140.5 40.5t-48.5 118.5q0 26 6.5 64.5t24.5 113.5q-113 -178 -219 -257.5t-227 -79.5q-94 0 -150.5 54t-56.5 144q0 35 8 76.5t27 101.5l112 358q2 6 4 14q19 61 19 83q0 26 -14.5 41.5t-39.5 15.5 q-38 0 -84.5 -48t-91.5 -134zM565 1122l303 312q35 35 65 51t60 16q39 0 66.5 -28t27.5 -68q0 -29 -20 -55t-60 -47l-333 -181h-109z" />
<glyph unicode="&#xfb;" horiz-adv-x="1343" d="M-6 721q75 143 161.5 209.5t198.5 66.5q105 0 164.5 -49t59.5 -135q0 -25 -5.5 -54t-15.5 -61l-123 -385q-15 -49 -21.5 -80.5t-6.5 -54.5q0 -29 12.5 -43t38.5 -14q77 0 191.5 146.5t152.5 318.5l88 393h289l-160 -727q-6 -30 -9 -50t-3 -32q0 -30 13.5 -49t35.5 -19 q42 0 89 41.5t99 126.5l57 -39q-73 -127 -164.5 -188t-207.5 -61q-92 0 -140.5 40.5t-48.5 118.5q0 26 6.5 64.5t24.5 113.5q-113 -178 -219 -257.5t-227 -79.5q-94 0 -150.5 54t-56.5 144q0 35 8 76.5t27 101.5l112 358q2 6 4 14q19 61 19 83q0 26 -14.5 41.5t-39.5 15.5 q-38 0 -84.5 -48t-91.5 -134zM430 1120l307 359h145l160 -359h-80l-172 183l-258 -183h-102z" />
<glyph unicode="&#xfc;" horiz-adv-x="1343" d="M-6 721q75 143 161.5 209.5t198.5 66.5q105 0 164.5 -49t59.5 -135q0 -25 -5.5 -54t-15.5 -61l-123 -385q-15 -49 -21.5 -80.5t-6.5 -54.5q0 -29 12.5 -43t38.5 -14q77 0 191.5 146.5t152.5 318.5l88 393h289l-160 -727q-6 -30 -9 -50t-3 -32q0 -30 13.5 -49t35.5 -19 q42 0 89 41.5t99 126.5l57 -39q-73 -127 -164.5 -188t-207.5 -61q-92 0 -140.5 40.5t-48.5 118.5q0 26 6.5 64.5t24.5 113.5q-113 -178 -219 -257.5t-227 -79.5q-94 0 -150.5 54t-56.5 144q0 35 8 76.5t27 101.5l112 358q2 6 4 14q19 61 19 83q0 26 -14.5 41.5t-39.5 15.5 q-38 0 -84.5 -48t-91.5 -134zM469 1296q0 51 40 91t91 40q53 0 90 -37.5t37 -91.5q0 -56 -36 -93.5t-91 -37.5q-54 0 -92.5 38.5t-38.5 90.5zM844 1298q0 50 40 89.5t91 39.5q53 0 91 -38t38 -91q0 -56 -37 -93.5t-92 -37.5t-93 38.5t-38 92.5z" />
<glyph unicode="&#xfd;" horiz-adv-x="1251" d="M-6 721q70 144 156 211t202 67q105 0 163 -48t58 -134q0 -20 -5 -48.5t-19 -80.5l-76 -262q-1 -5 -5 -17q-30 -106 -30 -151q0 -31 12 -45t37 -14q65 0 171 139.5t141 290.5l82 350h284l-164 -750q-87 -397 -230.5 -549.5t-405.5 -152.5q-155 0 -256 64t-101 157 q0 47 34.5 79t84.5 32q66 0 105.5 -42.5t39.5 -113.5q0 -11 -1.5 -24t-5.5 -38q21 -14 46 -21t54 -7q131 0 211 146.5t159 572.5q-96 -155 -198 -232t-209 -77q-90 0 -138.5 50t-48.5 144q0 31 8.5 77.5t24.5 102.5l92 315q9 34 14 59t5 40q0 28 -15.5 43.5t-42.5 15.5 q-39 0 -83 -45.5t-89 -134.5zM541 1122l303 312q35 35 65 51t60 16q39 0 66.5 -28t27.5 -68q0 -29 -20 -55t-60 -47l-333 -181h-109z" />
<glyph unicode="&#xfe;" horiz-adv-x="1210" d="M-147 -467l14 82h8q109 0 137 133v4l303 1489q7 34 11 63.5t4 47.5q0 74 -130 79q-9 0 -14 1l15 79h18q116 -4 164 -4q43 0 100.5 3t175.5 12l-157 -742q65 104 153 160.5t185 56.5q134 0 206 -87.5t72 -252.5q0 -128 -49 -263.5t-129 -227.5q-68 -79 -151 -119.5 t-177 -40.5q-80 0 -137.5 28t-101.5 89l-72 -367q-5 -22 -7.5 -39t-2.5 -28q0 -42 31 -58t131 -16l-15 -82q-28 1 -80 3q-163 5 -221 5q-45 0 -119.5 -2t-164.5 -6zM391 217q20 -47 53.5 -71.5t77.5 -24.5q55 0 100.5 34.5t82.5 102.5q46 86 78 210.5t32 219.5q0 78 -25 119 t-73 41q-65 0 -130.5 -75.5t-129.5 -223.5z" />
<glyph unicode="&#xff;" horiz-adv-x="1251" d="M-6 721q70 144 156 211t202 67q105 0 163 -48t58 -134q0 -20 -5 -48.5t-19 -80.5l-76 -262q-1 -5 -5 -17q-30 -106 -30 -151q0 -31 12 -45t37 -14q65 0 171 139.5t141 290.5l82 350h284l-164 -750q-87 -397 -230.5 -549.5t-405.5 -152.5q-155 0 -256 64t-101 157 q0 47 34.5 79t84.5 32q66 0 105.5 -42.5t39.5 -113.5q0 -11 -1.5 -24t-5.5 -38q21 -14 46 -21t54 -7q131 0 211 146.5t159 572.5q-96 -155 -198 -232t-209 -77q-90 0 -138.5 50t-48.5 144q0 31 8.5 77.5t24.5 102.5l92 315q9 34 14 59t5 40q0 28 -15.5 43.5t-42.5 15.5 q-39 0 -83 -45.5t-89 -134.5zM445 1296q0 51 40 91t91 40q53 0 90 -37.5t37 -91.5q0 -56 -36 -93.5t-91 -37.5q-54 0 -92.5 38.5t-38.5 90.5zM820 1298q0 50 40 89.5t91 39.5q53 0 91 -38t38 -91q0 -56 -37 -93.5t-92 -37.5t-93 38.5t-38 92.5z" />
<glyph unicode="&#x152;" horiz-adv-x="2286" d="M68 633q0 192 69 359.5t199 289.5q106 100 248 151.5t313 51.5q64 0 202.5 -7.5t213.5 -7.5h848v-415h-95v35q0 164 -53.5 222t-214.5 58h-295l-90 -561h82q150 0 202 43t70 168h88q-27 -134 -47 -271.5t-34 -281.5h-88q0 7 2 23q6 64 6 92q0 76 -33.5 102.5t-147.5 26.5 h-116l-99 -613h324q128 0 186 14t99 48q42 36 73.5 97t67.5 185h94q-27 -115 -50.5 -225.5t-41.5 -216.5h-874q-56 0 -207.5 -8t-247.5 -8q-314 0 -483.5 168t-169.5 481zM426 567q0 -238 94 -365.5t268 -127.5q116 0 158.5 34t59.5 138l149 923q6 36 9 67.5t3 51.5 q0 55 -40.5 79t-135.5 24q-249 0 -407 -229.5t-158 -594.5z" />
<glyph unicode="&#x153;" horiz-adv-x="1720" d="M33 416q0 239 176 416.5t420 177.5q115 0 196 -40t138 -124q89 83 187.5 123.5t211.5 40.5q139 0 214 -54t75 -153q0 -149 -160 -232.5t-451 -83.5h-10q-10 -47 -15 -95.5t-5 -94.5q0 -103 39 -154t118 -51q93 0 177 59t147 168l59 -40q-74 -143 -194 -221t-264 -78 q-95 0 -165 35.5t-114 105.5q-68 -70 -157 -104.5t-197 -34.5q-191 0 -308.5 119.5t-117.5 314.5zM330 262q0 -92 37 -142t104 -50q57 0 108.5 49.5t92.5 142.5q44 102 71 232t27 237q0 96 -32.5 145.5t-96.5 49.5q-63 0 -115.5 -48t-93.5 -145q-47 -109 -74.5 -236.5 t-27.5 -234.5zM1051 569q182 7 273 68t91 178q0 52 -26 81.5t-72 29.5q-93 0 -160.5 -90.5t-105.5 -266.5z" />
<glyph unicode="&#x178;" horiz-adv-x="1245" d="M-6 1377v93q141 -6 204 -8t101 -2q49 0 125 2.5t205 7.5v-94q-73 -7 -95 -19.5t-22 -39.5q0 -12 6 -32t19 -48l213 -485l282 489q12 22 19.5 44t7.5 36q0 28 -29 41t-100 15v93q77 -5 126 -7.5t83 -2.5q32 0 79 2.5t125 7.5l2 -94q-57 -3 -95.5 -29.5t-94.5 -117.5 l-358 -580l-62 -381q-5 -28 -7.5 -52t-2.5 -42q0 -43 25 -59.5t124 -22.5v-92q-130 6 -202.5 8t-118.5 2t-117.5 -2t-206.5 -8l1 92q92 2 126 27t47 112l64 383l-272 596q-44 94 -85.5 126.5t-115.5 40.5zM484 1777q0 51 40 91t91 40q53 0 90 -37.5t37 -91.5 q0 -56 -36 -93.5t-91 -37.5q-54 0 -92.5 38.5t-38.5 90.5zM859 1779q0 50 40 89.5t91 39.5q53 0 91 -38t38 -91q0 -56 -37 -93.5t-92 -37.5t-93 38.5t-38 92.5z" />
<glyph unicode="&#x2c6;" horiz-adv-x="1024" d="M291 1120l307 359h145l160 -359h-80l-172 183l-258 -183h-102z" />
<glyph unicode="&#x2dc;" horiz-adv-x="1024" d="M332 1159q26 121 74 178.5t122 57.5q20 0 41.5 -3t41.5 -8l124 -30q11 -3 24 -4.5t36 -1.5q39 0 65.5 20.5t40.5 62.5l62 1q-27 -119 -76.5 -176.5t-124.5 -57.5q-18 0 -36 2t-36 6l-117 29q-24 6 -42 9t-29 3q-41 0 -67 -21.5t-40 -66.5h-63z" />
<glyph unicode="&#x2000;" horiz-adv-x="992" />
<glyph unicode="&#x2001;" horiz-adv-x="1984" />
<glyph unicode="&#x2002;" horiz-adv-x="992" />
<glyph unicode="&#x2003;" horiz-adv-x="1984" />
<glyph unicode="&#x2004;" horiz-adv-x="661" />
<glyph unicode="&#x2005;" horiz-adv-x="496" />
<glyph unicode="&#x2006;" horiz-adv-x="330" />
<glyph unicode="&#x2007;" horiz-adv-x="330" />
<glyph unicode="&#x2008;" horiz-adv-x="248" />
<glyph unicode="&#x2009;" horiz-adv-x="396" />
<glyph unicode="&#x200a;" horiz-adv-x="110" />
<glyph unicode="&#x2010;" horiz-adv-x="647" d="M29 403l41 211h493l-41 -211h-493z" />
<glyph unicode="&#x2011;" horiz-adv-x="647" d="M29 403l41 211h493l-41 -211h-493z" />
<glyph unicode="&#x2012;" horiz-adv-x="647" d="M29 403l41 211h493l-41 -211h-493z" />
<glyph unicode="&#x2013;" horiz-adv-x="1024" d="M-57 424l34 170h1053l-35 -170h-1052z" />
<glyph unicode="&#x2014;" horiz-adv-x="2048" d="M-57 424l34 170h2106l-35 -170h-2105z" />
<glyph unicode="&#x2018;" horiz-adv-x="586" d="M133 1036q0 164 105.5 281t302.5 170l28 -66q-126 -46 -201 -112.5t-75 -128.5q0 -17 5 -23t21 -6h15q72 0 111.5 -39.5t39.5 -110.5q0 -75 -47 -124.5t-121 -49.5q-82 0 -133 58t-51 151z" />
<glyph unicode="&#x2019;" horiz-adv-x="586" d="M117 895q125 45 200.5 110.5t75.5 124.5q0 21 -4.5 27t-28.5 6q-77 0 -118 38t-41 110q0 76 47.5 126t120.5 50q83 0 133.5 -57.5t50.5 -151.5q0 -163 -105 -279.5t-303 -171.5z" />
<glyph unicode="&#x201a;" horiz-adv-x="586" d="M-6 -285q127 47 201.5 113t74.5 129q0 16 -4.5 21.5t-21.5 5.5h-17q-69 0 -109 40t-40 109q0 76 47.5 126t120.5 50q83 0 133.5 -57.5t50.5 -151.5q0 -163 -105 -279.5t-302 -170.5z" />
<glyph unicode="&#x201c;" horiz-adv-x="1063" d="M133 1036q0 164 105.5 281t302.5 170l28 -66q-126 -46 -201 -112.5t-75 -128.5q0 -17 5 -23t21 -6h15q72 0 111.5 -39.5t39.5 -110.5q0 -75 -47 -124.5t-121 -49.5q-82 0 -133 58t-51 151zM610 1036q0 164 105.5 281t302.5 170l31 -66q-128 -46 -202.5 -112t-74.5 -129 q0 -17 5 -23t22 -6h14q71 0 110.5 -39.5t39.5 -110.5q0 -75 -47.5 -124.5t-120.5 -49.5q-83 0 -134 58t-51 151z" />
<glyph unicode="&#x201d;" horiz-adv-x="1063" d="M117 895q126 45 201 111t75 127q0 19 -4.5 24.5t-28.5 5.5q-77 0 -118 38t-41 110q0 76 47.5 127t120.5 51q83 0 133.5 -59t50.5 -156q0 -159 -107 -276.5t-301 -170.5zM594 893q125 45 200.5 111.5t75.5 125.5q0 21 -5 27t-27 6q-79 0 -119.5 37.5t-40.5 110.5 q0 76 47.5 126t120.5 50q84 0 134 -58.5t50 -156.5q0 -159 -107.5 -276.5t-299.5 -168.5z" />
<glyph unicode="&#x201e;" horiz-adv-x="1063" d="M-6 -285q127 47 201.5 113t74.5 129q0 16 -4.5 21.5t-21.5 5.5h-17q-69 0 -109 40t-40 109q0 76 47.5 126t120.5 50q83 0 133.5 -57.5t50.5 -151.5q0 -163 -105 -279.5t-302 -170.5zM471 -285q128 47 203.5 113t75.5 129q0 16 -4.5 21.5t-22.5 5.5h-16q-70 0 -110 39.5 t-40 109.5q0 77 46.5 126.5t119.5 49.5q83 0 134.5 -57.5t51.5 -151.5q0 -163 -105 -279.5t-302 -170.5z" />
<glyph unicode="&#x2022;" horiz-adv-x="1208" d="M307 762q0 123 87 209t210 86q122 0 208.5 -86.5t86.5 -208.5t-87.5 -209.5t-209.5 -87.5q-123 0 -209 87t-86 210z" />
<glyph unicode="&#x2026;" horiz-adv-x="2048" d="M129 154q0 62 48 108.5t112 46.5q66 0 113 -46.5t47 -112.5q0 -69 -47 -114.5t-117 -45.5q-63 0 -109.5 48t-46.5 116zM811 154q0 62 48 108.5t112 46.5q66 0 113 -46.5t47 -112.5q0 -69 -47 -114.5t-117 -45.5q-63 0 -109.5 48t-46.5 116zM1495 154q0 62 48 108.5 t112 46.5q66 0 113 -46.5t47 -112.5q0 -69 -47 -114.5t-117 -45.5q-63 0 -109.5 48t-46.5 116z" />
<glyph unicode="&#x202f;" horiz-adv-x="396" />
<glyph unicode="&#x2039;" horiz-adv-x="567" d="M39 504q145 93 293 203t162 110q8 0 14 -5.5t6 -12.5q0 -34 -168 -219q-52 -57 -82 -91q31 -69 81 -169.5t50 -118.5q0 -8 -4.5 -11.5t-13.5 -3.5q-23 0 -176 156q-98 99 -162 162z" />
<glyph unicode="&#x203a;" horiz-adv-x="567" d="M-2 205q0 34 178 232q45 49 70 77q-30 65 -77 160q-54 110 -54 127q0 6 6 11t14 5q24 0 160 -139q106 -108 178 -178q-144 -93 -292.5 -203.5t-162.5 -110.5q-9 1 -14.5 6t-5.5 13z" />
<glyph unicode="&#x205f;" horiz-adv-x="496" />
<glyph unicode="&#x20ac;" d="M-33 520l33 88l135 1q2 55 8 108.5t17 105.5h-154l33 88h141q74 248 239 393.5t369 145.5q110 0 199.5 -43t157.5 -127l29 84l81 -4q-13 -88 -35.5 -220.5t-27.5 -164.5h-88q1 11 1.5 22.5t0.5 34.5q0 152 -71 237t-197 85q-129 0 -216 -109t-137 -334h519l-31 -88h-506 q-9 -43 -15.5 -95.5t-10.5 -119.5h452l-33 -88h-422v-20q0 -192 79.5 -305t213.5 -113q111 0 197.5 81t142.5 236l80 -41q-70 -189 -192 -282.5t-300 -93.5q-228 0 -370 145t-154 393h-168z" />
<glyph unicode="&#x2122;" horiz-adv-x="1683" d="M225 1262l13 192h450l12 -192h-32q-8 79 -39.5 115t-91.5 36h-7v-420q1 -23 9.5 -35.5t25.5 -15.5l31 -4v-33h-266v33l30 4q17 3 26 16t9 35v420h-10q-59 0 -89 -36t-38 -115h-33zM758 905v33l34 4q19 3 28 16t9 35v373q0 23 -9 35.5t-27 15.5l-35 4v33h211l131 -369 l129 369h198v-27l-27 -4q-19 -3 -27.5 -15t-8.5 -36v-379q0 -24 9 -36t28 -15l26 -4v-33h-253v33l30 4q18 3 27.5 16t9.5 35v365l-156 -455h-36l-166 463v-373q0 -22 9 -35t28 -16l34 -4v-33h-196z" />
<glyph unicode="&#xe000;" horiz-adv-x="1004" d="M0 0v1005h1005v-1005h-1005z" />
</font>
</defs>
</svg>
