<?xml version="1.0" standalone="no"?>
<!DOCTYPE svg PUBLIC "-//W3C//DTD SVG 1.1//EN" "http://www.w3.org/Graphics/SVG/1.1/DTD/svg11.dtd" >
<svg xmlns="http://www.w3.org/2000/svg">
<metadata></metadata>
<defs>
<font id="hermesregular" horiz-adv-x="1490" >
<font-face units-per-em="2048" ascent="1638" descent="-410" />
<missing-glyph horiz-adv-x="464" />
<glyph horiz-adv-x="2048" />
<glyph horiz-adv-x="2048" />
<glyph unicode="&#xd;" horiz-adv-x="2048" />
<glyph unicode=" "  horiz-adv-x="464" />
<glyph unicode="&#x09;" horiz-adv-x="464" />
<glyph unicode="&#xa0;" horiz-adv-x="464" />
<glyph unicode="!" horiz-adv-x="563" d="M154 57v115q0 25 9 38t36 13h168q38 0 48.5 -8t10.5 -39v-113q0 -32 -10.5 -47.5t-42.5 -15.5h-162q-20 0 -32 4t-17 13t-6.5 17t-1.5 23zM176 1425q0 22 1 31.5t5.5 21.5t15 16.5t29.5 4.5h123q33 0 43 -15.5t8 -53.5l-26 -924q0 -37 -7.5 -51.5t-27.5 -14.5h-82 q-36 0 -44.5 11.5t-10.5 56.5z" />
<glyph unicode="&#x22;" horiz-adv-x="774" d="M123 1434q-3 38 4 51.5t33 13.5h127q32 0 41 -16.5t6 -55.5l-33 -458q-3 -32 -14 -43t-33 -11h-53q-20 0 -30 14.5t-13 53.5zM465 1430q-3 39 5.5 54t37.5 15h127q28 0 36 -14.5t5 -52.5l-35 -453q-2 -64 -43 -64h-51q-24 0 -35 12t-14 46z" />
<glyph unicode="#" horiz-adv-x="1302" d="M72 530l8 54q4 25 18 31t52 6h149l66 282h-158q-31 0 -41 9.5t-4 43.5l12 54q6 29 17 35t51 6h149l88 389q8 36 20 47.5t50 11.5h94q25 0 29 -13t-4 -48q-86 -387 -88 -387h270l88 393q6 33 17.5 44t45.5 11h84q33 0 41 -12t0 -49l-86 -387h146q40 0 49.5 -8t3.5 -37 l-10 -58q-6 -27 -21.5 -36t-54.5 -9h-141l-66 -282h152q37 0 46 -7t3 -32l-8 -50q-8 -34 -23.5 -46.5t-54.5 -12.5h-141l-95 -412q-9 -40 -19.5 -50.5t-39.5 -10.5h-98q-27 0 -33 15t4 53l92 405h-270l-94 -416q-7 -36 -18 -46.5t-36 -10.5h-90q-33 0 -42.5 13.5t-0.5 52.5 l92 407h-155q-35 0 -44.5 10t-0.5 47zM489 621h269l65 282h-270z" />
<glyph unicode="$" horiz-adv-x="1230" d="M103 116q2 45 16 93.5t28 44.5q7 -2 51 -18.5t78 -27t100 -20.5t138 -10q154 0 246 50t92 161q0 98 -63 160t-226 127q-61 24 -106.5 45.5t-96 52t-86 65t-65 78t-44.5 98.5t-15 120q0 91 39.5 167.5t129 133t220.5 73.5v152q0 34 12.5 46.5t50.5 12.5h146q25 0 30.5 -10 t5.5 -44v-9v-137q34 -1 63 -3.5t52.5 -6t40.5 -6t33.5 -7.5t24 -7t20.5 -7t16 -6q15 -5 16.5 -36t-7.5 -65.5t-25 -61.5t-31 -24q-164 45 -289 45q-159 0 -227 -51t-68 -149q0 -87 64 -140.5t221 -115.5q213 -86 319.5 -201t106.5 -277q0 -178 -103.5 -278.5t-275.5 -130.5 v-146q0 -36 -7.5 -46.5t-33.5 -10.5h-145q-33 0 -45 14.5t-12 53.5v116q-143 4 -240.5 28.5t-140.5 55.5q-10 14 -8 59z" />
<glyph unicode="%" horiz-adv-x="1544" d="M88 993v240q0 139 80 213t217 74q53 0 100 -14t88.5 -44t66 -85.5t24.5 -131.5v-252q0 -70 -24 -121.5t-65.5 -80t-88.5 -41.5t-101 -13q-138 0 -217.5 64.5t-79.5 191.5zM256 1010q0 -55 33.5 -89t95.5 -34q58 0 88.5 36t30.5 83v202q0 69 -28 112.5t-87 43.5 q-75 0 -104 -42.5t-29 -121.5v-190zM327.5 14q-6.5 14 12.5 52l715 1390q19 36 31.5 46.5t48.5 10.5h94q19 0 25 -5.5t3 -18t-16 -37.5l-717 -1395q-19 -36 -31 -46.5t-36 -10.5h-88q-35 0 -41.5 14zM897 231v240q0 141 80 215t217 74q53 0 100 -14t88.5 -44t66 -85.5 t24.5 -131.5v-252q0 -70 -24 -121.5t-65.5 -80t-88.5 -41.5t-101 -13q-138 0 -217.5 64.5t-79.5 189.5zM1063 250q0 -54 34 -88.5t95 -34.5q60 0 90.5 36t30.5 83v203q0 68 -28 110.5t-89 42.5q-73 0 -103 -42.5t-30 -119.5v-190z" />
<glyph unicode="&#x26;" horiz-adv-x="1134" d="M137 360q0 145 78.5 246t210.5 137q-132 35 -210.5 130.5t-78.5 244.5q0 161 100 264t255 127v150q0 36 10 47.5t47 11.5h149q26 0 31.5 -11t5.5 -50v-141q142 -15 246 -82q17 -16 14.5 -59.5t-22.5 -85.5t-39 -34q-152 76 -287 76q-128 0 -205 -64t-77 -175 q0 -109 84.5 -175.5t226.5 -74.5q46 -2 56 -9q11 -9 11 -30v-101q0 -27 -12.5 -34t-46.5 -9q-143 -6 -230 -75t-87 -195q0 -100 75.5 -159.5t216.5 -59.5q83 0 171.5 25t136.5 59q15 9 37.5 -35t29 -88.5t-9.5 -62.5q-94 -72 -276 -86v-138q0 -35 -8 -46t-33 -11h-146 q-34 0 -46.5 14t-12.5 54v129q-177 23 -271 120.5t-94 255.5z" />
<glyph unicode="'" horiz-adv-x="458" d="M135 1434q-2 39 5 52t32 13h127q32 0 41.5 -16t7.5 -56l-35 -458q-3 -32 -13.5 -43t-33.5 -11h-51q-20 0 -31 14.5t-14 53.5z" />
<glyph unicode="(" horiz-adv-x="743" d="M150 682q0 267 92 511t211 366q14 15 64 -3.5t85.5 -51t15.5 -50.5q-90 -84 -174 -316t-84 -458q0 -233 78.5 -466.5t163.5 -338.5q13 -17 -29 -45.5t-89 -40t-68 1.5q-41 44 -84.5 125.5t-85.5 194t-69 264t-27 307.5z" />
<glyph unicode=")" horiz-adv-x="743" d="M106 1464q-16 17 23 46t90 44.5t66 -0.5q111 -111 200.5 -356t89.5 -524q0 -149 -27 -296t-70 -260t-89.5 -197t-91.5 -134q-14 -15 -65 2t-89 47.5t-22 48.5q83 92 163.5 322.5t80.5 466.5q0 223 -83.5 458t-175.5 332z" />
<glyph unicode="*" horiz-adv-x="823" d="M63 1212l29 93q9 25 25 28t45 -10l196 -84l-18 217q-2 31 3 42t26 11h96q27 0 34.5 -13.5t4.5 -45.5l-19 -215l203 86q19 9 29 11t17 -3t11 -18l31 -94q7 -25 -3.5 -36.5t-41.5 -17.5l-209 -51l144 -162q21 -24 22.5 -35t-16.5 -24l-78 -60q-25 -13 -36 -7t-30 34 l-110 184l-113 -186q-15 -27 -26.5 -33t-26.5 6l-80 58q-21 19 -19 31.5t23 37.5l141 164l-213 49q-30 6 -39 14.5t-2 28.5z" />
<glyph unicode="+" horiz-adv-x="1077" d="M43 449v94q0 34 11 41.5t50 7.5h334v338q0 33 10 46t39 13h95q34 0 41.5 -11t7.5 -50v-336h330q24 0 34 -0.5t20.5 -4.5t13.5 -11.5t3 -22.5v-100q0 -30 -16 -37.5t-60 -7.5h-325v-336q0 -43 -6.5 -57.5t-34.5 -14.5h-98q-33 0 -43.5 16.5t-10.5 59.5v332h-344 q-31 0 -41 8t-10 33z" />
<glyph unicode="," horiz-adv-x="501" d="M66 -156q34 74 60 171t30 167q2 26 10 37.5t29 11.5h155q32 0 41 -10.5t4 -34.5q-25 -117 -96 -218t-164 -165q-26 -19 -52.5 0t-16.5 41z" />
<glyph unicode="-" horiz-adv-x="1050" d="M164 569v101q0 34 11.5 40.5t51.5 6.5h588q20 0 29 -0.5t20.5 -2t15.5 -6t7.5 -11.5t3.5 -19v-100q0 -32 -14.5 -42t-61.5 -10h-594q-31 0 -44 9.5t-13 33.5z" />
<glyph unicode="." horiz-adv-x="501" d="M117 66v110q0 22 11 38.5t30 16.5h168q41 0 52 -10.5t11 -36.5v-110q0 -25 -1 -36.5t-12.5 -24.5t-35.5 -13h-158q-65 0 -65 66z" />
<glyph unicode="/" horiz-adv-x="839" d="M38 13q-7 13 9 53l535 1390q13 35 26.5 46t50.5 11h136q25 0 27 -13t-13 -48l-537 -1395q-15 -36 -26.5 -46.5t-36.5 -10.5h-131q-33 0 -40 13z" />
<glyph unicode="0" horiz-adv-x="1320" d="M145 428v586q0 118 26.5 207.5t72 146t114.5 91.5t145.5 49t172.5 14q84 0 152.5 -12t135 -45t112 -85.5t73 -139.5t27.5 -202v-565q0 -91 -15 -165t-40.5 -125t-64 -89.5t-79.5 -61t-94 -36.5t-101 -18.5t-106 -4.5q-80 0 -149.5 10.5t-142 41t-123.5 79t-83.5 132 t-32.5 192.5zM393 440q0 -136 76 -202t203 -66q67 0 112.5 13.5t81 46.5t52 93.5t16.5 151.5v508q0 181 -58 257.5t-198 76.5q-90 0 -146.5 -19.5t-87 -65.5t-41 -105.5t-10.5 -155.5v-533z" />
<glyph unicode="1" horiz-adv-x="804" d="M102 1276v88q0 25 14 37t56 24l133 54q13 4 30 9t23.5 6.5t16.5 3t22 1.5h144q13 0 21 -3.5t12 -6.5t6 -15.5t2 -18.5v-28v-1366q0 -38 -8 -49.5t-35 -11.5h-158q-27 0 -37 16t-10 54v1124q0 24 -7.5 33.5t-31.5 9.5h-148q-16 0 -27.5 9.5t-14.5 19.5z" />
<glyph unicode="2" horiz-adv-x="1230" d="M121 49v98q0 94 25 182t64.5 155t94 127t106.5 101t109 74q73 43 124 77.5t102.5 77.5t78.5 87.5t27 87.5q0 104 -69.5 157.5t-202.5 53.5q-27 0 -53 -2t-50 -7.5t-43.5 -10t-41.5 -13.5t-35 -14t-33 -16t-27 -15t-26 -15.5t-21 -12.5q-17 -9 -40 37.5t-30 94t8 64.5 q40 22 63.5 33.5t79.5 31.5t129 30t163 10q221 0 344 -94t123 -279q0 -52 -14.5 -101.5t-36 -89t-58.5 -80.5t-70.5 -70.5t-84 -65t-86 -57.5t-89.5 -54q-55 -33 -97 -67.5t-81 -80.5t-61 -105.5t-25 -127.5q0 -27 13 -36t46 -9h580q37 0 50.5 -7.5t13.5 -29.5v-133 q0 -35 -35 -35h-893q-17 0 -29 11.5t-12 37.5z" />
<glyph unicode="3" horiz-adv-x="1132" d="M100 162q18 77 43 94q7 5 13 2q185 -86 346 -86q128 0 203 62.5t75 173.5q0 114 -91 182t-228 76q-40 2 -48 9q-10 8 -10 30v90q0 18 10 28t21.5 12t34.5 3q145 9 226 78t81 194q0 99 -78 160t-219 61q-156 0 -284 -94q-16 -11 -35.5 31t-25 86.5t6.5 62.5 q59 47 143.5 76t235.5 29q228 0 358 -100t130 -277q0 -153 -83 -258.5t-206 -134.5q133 -40 211 -134t78 -237q0 -131 -66 -226t-169.5 -139.5t-229.5 -44.5q-137 0 -256 30.5t-185 68.5q-22 12 -2 92z" />
<glyph unicode="4" horiz-adv-x="1228" d="M88 326v96q0 40 21 78l598 932q38 67 71 67h154q11 0 18 -2.5t10.5 -4.5t5 -11.5t1.5 -13v-19.5v-971h88q19 0 24.5 -7t5.5 -30v-96q0 -28 -6.5 -39.5t-27.5 -11.5h-84v-258q0 -20 -8.5 -27.5t-32.5 -7.5h-119q-30 0 -41.5 8.5t-11.5 32.5v252h-623q-24 0 -33.5 6.5 t-9.5 26.5zM315 477h439v688z" />
<glyph unicode="5" horiz-adv-x="1183" d="M121 143.5q5 47.5 28 93t46 33.5q49 -25 82 -39.5t108.5 -33.5t149.5 -19q128 0 198 74t70 184q0 186 -187 277q-57 28 -157 52t-187 32q-35 3 -56 27.5t-21 66.5v559q0 49 43 49h747q37 0 37 -35v-133q0 -22 -14.5 -29.5t-51.5 -7.5h-483q-33 0 -45 -9t-12 -36v-241 q0 -17 10 -24.5t37 -12.5q167 -25 313 -94q275 -134 275 -443q0 -196 -137.5 -327.5t-354.5 -131.5q-281 0 -432 105q-11 16 -6 63.5z" />
<glyph unicode="6" horiz-adv-x="1255" d="M145 389v619q0 273 129.5 393.5t411.5 120.5q68 0 180 -21t150 -39q12 -5 15 -29.5t-1.5 -55t-12.5 -60t-20.5 -47.5t-23.5 -15q-2 1 -28 10.5t-51 17t-60 16.5t-73.5 14.5t-74.5 5.5q-77 0 -131.5 -16t-85.5 -41t-48.5 -68t-22.5 -83.5t-5 -100.5v-60q0 -22 8.5 -29 t20.5 3q128 86 266 86q102 0 185 -29.5t146.5 -89.5t98.5 -159t35 -230q0 -126 -26 -221t-82.5 -165.5t-152 -106.5t-228.5 -36q-109 0 -201 25t-164 74t-113 130.5t-41 186.5zM393 438q0 -262 266 -262q124 0 185 74.5t61 251.5q0 307 -219 307q-162 0 -264 -88 q-29 -26 -29 -53v-230z" />
<glyph unicode="7" horiz-adv-x="1150" d="M57 1333v117q0 28 8 38.5t35 10.5h865q45 0 58.5 -18t2.5 -54l-455 -1374q-8 -28 -19 -40.5t-30 -12.5h-157q-35 0 -46 9.5t0 39.5l400 1194q12 47 -47 47h-576q-22 0 -30.5 14t-8.5 29z" />
<glyph unicode="8" horiz-adv-x="1277" d="M127 371q0 135 69.5 238.5t149.5 133.5q-77 38 -136.5 131.5t-59.5 212.5q0 187 131 311t346 124q247 0 378.5 -120t131.5 -312q0 -125 -73 -222.5t-155 -124.5q115 -40 183.5 -141.5t68.5 -234.5q0 -126 -68 -216t-182 -134t-262 -44q-257 0 -389.5 104.5t-132.5 293.5z M367 408q0 -115 75 -175.5t207 -60.5q128 0 198.5 60.5t70.5 175.5q0 113 -75.5 187.5t-207.5 74.5q-134 0 -201 -74.5t-67 -187.5zM385 1057q0 -97 69.5 -156t178.5 -59q123 0 194.5 59t71.5 154q0 134 -70.5 202t-193.5 68q-117 0 -183.5 -68.5t-66.5 -199.5z" />
<glyph unicode="9" horiz-adv-x="1255" d="M104 993q0 257 114.5 393t375.5 136q86 0 162.5 -15.5t142 -48t112.5 -81t74 -117.5t27 -154v-619q0 -273 -129.5 -393.5t-411.5 -120.5q-72 0 -213.5 21.5t-177.5 38.5q-12 5 -15 29.5t1.5 55t12.5 60t20.5 47.5t23.5 15q27 -9 76 -21.5t132 -27.5t140 -15 q77 0 131.5 16t85.5 41t48.5 68t22.5 83.5t5 100.5v60q0 23 -8 29.5t-20 -3.5q-128 -86 -267 -86q-102 0 -185 29.5t-146.5 89.5t-98.5 159t-35 230zM352 993q0 -307 219 -307q163 0 265 88q28 25 28 53v230q0 262 -266 262q-124 0 -185 -74.5t-61 -251.5z" />
<glyph unicode=":" horiz-adv-x="501" d="M115 66v110q0 22 11 38.5t30 16.5h170q41 0 51 -10t10 -37v-110q0 -25 -1 -36.5t-12.5 -24.5t-35.5 -13h-156q-67 0 -67 66zM121 920v112q0 38 10 54t39 16h156q59 0 59 -60v-104q0 -32 -11 -46.5t-40 -14.5h-154q-33 0 -46 10t-13 33z" />
<glyph unicode=";" horiz-adv-x="501" d="M53 -156q34 74 60 171t30 167q2 26 10 37.5t29 11.5h156q32 0 41 -10.5t4 -34.5q-25 -117 -96 -218t-164 -165q-26 -19 -53 0t-17 41zM119 926v112q0 64 45 64h172q35 0 45 -14t10 -44v-108q0 -66 -45 -66h-162q-39 0 -52 14t-13 42z" />
<glyph unicode="&#x3c;" horiz-adv-x="1077" d="M154 459v106q0 31 12 43t49 27l647 246q40 16 56 13.5t16 -30.5v-100q0 -30 -15.5 -42.5t-60.5 -27.5l-496 -176l496 -174q45 -15 60.5 -27.5t15.5 -42.5v-100q0 -28 -16 -30t-56 14l-639 241q-38 14 -53.5 25.5t-15.5 34.5z" />
<glyph unicode="=" horiz-adv-x="1077" d="M125 295v80q0 33 13 41t55 8h714q37 0 48.5 -7.5t11.5 -39.5v-72q0 -22 -8.5 -32t-20 -11.5t-41.5 -1.5h-709q-37 0 -50 7.5t-13 27.5zM129 633v74q0 17 3 26t15 12.5t19.5 4t32.5 0.5h708q37 0 50.5 -7.5t13.5 -27.5v-80q0 -33 -13 -41t-55 -8h-715q-37 0 -48 7.5 t-11 39.5z" />
<glyph unicode="&#x3e;" horiz-adv-x="1077" d="M170 174v100q0 30 15.5 42.5t60.5 27.5l497 174l-497 176q-45 15 -60.5 27.5t-15.5 42.5v100q0 28 17 30.5t55 -13.5l647 -246q37 -15 49 -27t12 -43v-106q0 -23 -15 -35t-52 -25l-641 -241q-28 -11 -42 -13.5t-22 4t-8 25.5z" />
<glyph unicode="?" horiz-adv-x="909" d="M98.5 1353.5q-6.5 40.5 10.5 61.5q148 107 319 107q181 0 287 -89.5t106 -242.5q0 -80 -31 -153.5t-76 -128t-89.5 -104t-75.5 -99.5t-31 -95v-108q0 -51 -45 -51h-133q-27 0 -36.5 10t-8.5 39q-6 100 8 159q12 47 47 97.5t75 93t79 87.5t64.5 97t25.5 105q0 100 -50 152 t-145 52q-58 0 -126 -29t-109 -63q-15 -11 -37 25.5t-28.5 77zM270 66v102q0 23 11 39t32 16h174q33 0 45.5 -11t12.5 -34v-104q0 -25 -1 -36.5t-12.5 -24.5t-35.5 -13h-158q-68 0 -68 66z" />
<glyph unicode="@" horiz-adv-x="1628" d="M86 682q0 212 94 388.5t263.5 280t379.5 103.5q159 0 294.5 -56t231.5 -156.5t150.5 -245t54.5 -314.5q0 -213 -86.5 -321.5t-232.5 -108.5q-86 0 -150 36t-88 101q-34 -62 -105 -103.5t-157 -41.5q-125 0 -202.5 106.5t-77.5 327.5q0 209 71.5 328.5t204.5 119.5 q180 0 250 -131v72q0 17 8 28t21 11h100q30 0 37.5 -9.5t7.5 -37.5v-561q0 -51 30.5 -91t86.5 -40q71 0 111 78t40 239q0 188 -75 336t-213 231.5t-316 83.5q-174 0 -309 -85.5t-207 -233t-72 -332.5q0 -304 162.5 -479.5t431.5 -175.5q114 0 230 30t174 62q16 8 33 -18.5 t19.5 -55t-13.5 -41.5q-81 -40 -203.5 -68t-241.5 -28q-230 0 -398 99t-253.5 272.5t-85.5 400.5zM643 616q0 -111 39.5 -177t120.5 -66q38 0 71.5 18.5t53.5 45t31.5 52.5t11.5 43v263q0 29 -9 61.5t-28 65t-54 54t-81 21.5q-156 0 -156 -252v-129z" />
<glyph unicode="A" horiz-adv-x="1308" d="M73 11q-1 2 -1 6q0 14 10 51l416 1366q11 37 26 51t49 14h168q34 0 48.5 -14t27.5 -51l416 -1366q7 -21 7 -37q0 -9 -2 -15q-2 -8 -10.5 -11.5t-16 -4t-21.5 -0.5h-162q-7 0 -12.5 1t-9.5 1t-7.5 3.5t-5 4.5t-4 7.5t-3 9t-3.5 12.5t-4 14l-88 287h-510l-86 -287 q-9 -33 -18 -43t-33 -10h-148q-20 0 -23 11zM436 522h400l-199 684z" />
<glyph unicode="B" horiz-adv-x="1290" d="M164 53v1374q0 29 1.5 41t10.5 21.5t29 9.5h399q272 0 409.5 -89t137.5 -290q0 -136 -64.5 -228.5t-171.5 -129.5q121 -38 191 -124t70 -245q0 -393 -510 -393h-459q-28 0 -35.5 11t-7.5 42zM399 895q0 -22 8.5 -30.5t32.5 -8.5h166q160 0 230.5 56.5t70.5 177.5 q0 129 -75.5 183t-233.5 54h-162q-37 -2 -37 -37v-395zM403 211q0 -37 37 -37h162q170 0 250 52t80 184q0 127 -84 191.5t-238 64.5h-166q-24 0 -32.5 -8.5t-8.5 -30.5v-416z" />
<glyph unicode="C" horiz-adv-x="1228" d="M152 428v576q0 75 11.5 137.5t37.5 123t72 106t112.5 80.5t162 53t216.5 18q251 0 358 -86q5 -4 5 -14q1 -22 -23 -78q-32 -76 -47 -76h-2q-5 2 -26 11t-33 14t-38 13t-48.5 12t-56 7.5t-69.5 3.5q-203 0 -293 -84.5t-90 -261.5v-532q0 -80 29 -139t78.5 -91t106 -46.5 t122.5 -14.5q52 0 98.5 5.5t83.5 15.5t61 18t51 20t34 14q13 4 29 -41t20.5 -87.5t-2.5 -55.5q-46 -29 -154.5 -52.5t-238.5 -23.5q-272 0 -419.5 120.5t-147.5 334.5z" />
<glyph unicode="D" horiz-adv-x="1359" d="M164 72v1360q0 34 8.5 50.5t34.5 16.5h416q98 0 178.5 -12t158.5 -45t131 -86t85 -139.5t32 -200.5v-549q0 -86 -19 -156.5t-49 -118t-74 -83.5t-89 -56.5t-98.5 -32.5t-97 -16t-91.5 -4h-475q-51 0 -51 72zM408 244q0 -24 10.5 -35.5t42.5 -11.5h166q54 0 96.5 5.5 t89.5 24t77.5 50t50.5 87.5t20 132v503q0 306 -336 306h-170q-30 0 -38.5 -9.5t-8.5 -33.5v-1018z" />
<glyph unicode="E" horiz-adv-x="1128" d="M164 59v1373q0 23 2 35.5t10.5 22t26.5 9.5h741q37 0 46 -5.5t9 -27.5v-120q0 -12 -5.5 -19t-21 -10t-28 -3.5t-39.5 -0.5h-454q-54 0 -54 -33v-354q0 -28 9.5 -37.5t35.5 -9.5h406q41 0 52.5 -8t8.5 -29l-14 -115q-2 -14 -9.5 -22.5t-23 -12t-25 -4t-29.5 -0.5h-9h-340 q-32 0 -45 -10.5t-13 -36.5v-401q0 -17 3.5 -27t14 -13.5t17 -4t25.5 -0.5h495q42 0 59 -7.5t17 -31.5v-119q0 -37 -43 -37h-778q-47 0 -47 59z" />
<glyph unicode="F" horiz-adv-x="1052" d="M164 59v1373q0 23 2 35.5t10.5 22t26.5 9.5h717q34 0 44.5 -8t10.5 -25v-112q0 -26 -15.5 -34.5t-54.5 -8.5h-452q-54 0 -54 -33v-401q0 -29 9.5 -38.5t35.5 -9.5h394q41 0 52.5 -8t8.5 -28l-8 -117q-1 -6 -3.5 -11t-5.5 -8.5t-8 -6.5t-8.5 -5t-10.5 -3l-10.5 -1.5 t-12 -1t-12 -0.5h-13h-12.5h-344q-28 0 -38 -11t-10 -38v-553q0 -37 -32 -37h-164q-43 0 -43 59z" />
<glyph unicode="G" horiz-adv-x="1382" d="M152 479v469q0 71 6 129.5t23 119t45.5 107.5t75 89t109.5 69.5t151 43.5t198 16q93 0 173.5 -13.5t130.5 -34.5t78.5 -37.5t41.5 -29.5q11 -11 -4.5 -56t-40.5 -81.5t-39 -28.5q-121 88 -326 88q-99 0 -165.5 -18t-113.5 -62t-68 -119.5t-21 -189.5v-438 q0 -187 72.5 -267.5t244.5 -80.5q144 0 210 56.5t66 203.5v192q0 15 -1.5 22.5t-10.5 14t-26 6.5l-140 2q-24 0 -32.5 6t-8.5 29v102q0 13 1 19t7.5 12t20.5 6h336q60 0 76 -15t16 -69v-288q0 -54 -4 -97.5t-17 -95t-34.5 -90.5t-60.5 -77.5t-91.5 -63.5t-129.5 -40.5 t-173 -15.5q-133 0 -234 26t-165 70t-104 110t-56 138.5t-16 161.5z" />
<glyph unicode="H" horiz-adv-x="1427" d="M164 76v1370q0 30 9 41.5t36 11.5h147q34 0 45 -13.5t11 -53.5v-514q0 -24 10.5 -31.5t36.5 -7.5h522q19 0 27 7.5t8 26.5v531q0 30 12.5 42.5t44.5 12.5h144q17 0 27 -2.5t14 -10.5t5 -15t1 -23v-1382q0 -41 -7.5 -53.5t-37.5 -12.5h-154q-26 0 -37.5 13t-11.5 46v584 q0 27 -7 34t-32 7h-533q-20 0 -26 -5.5t-6 -29.5v-583q0 -40 -12.5 -53t-49.5 -13h-143q-25 0 -34 16.5t-9 59.5z" />
<glyph unicode="I" horiz-adv-x="575" d="M164 57v1397q0 29 10.5 37t44.5 8h152q27 0 34 -11t7 -46v-1395q0 -27 -8 -37t-35 -10h-158q-28 0 -37.5 11.5t-9.5 45.5z" />
<glyph unicode="J" horiz-adv-x="712" d="M44 74q7 15 34 26q82 40 131 70q59 37 75.5 89.5t16.5 162.5v1024q0 31 7.5 42t31.5 11h152q35 0 46 -13.5t11 -53.5v-1100q0 -143 -48 -225t-161 -142q-51 -28 -199 -86q-10 -3 -18 -3q-23 0 -33 28l-45 127q-5 15 -5 27q0 9 4 16z" />
<glyph unicode="K" horiz-adv-x="1265" d="M164 68v1366q0 39 11.5 52t43.5 13h150q30 0 36.5 -10t6.5 -47v-551l493 571q25 26 33.5 31.5t30.5 5.5h161q44 0 54 -8.5t-15 -36.5l-542 -627l583 -778q14 -21 14 -32q0 -5 -2 -7q-6 -10 -38 -10h-185q-23 0 -32.5 8t-32.5 39l-467 623l-55 -64v-553q0 -31 -7.5 -42 t-33.5 -11h-152q-33 0 -44 14t-11 54z" />
<glyph unicode="L" horiz-adv-x="1048" d="M164 72v1374q0 30 9 41.5t36 11.5h147q34 0 45 -13.5t11 -53.5v-1207q0 -24 10.5 -31.5t36.5 -7.5h506q15 0 23 -1.5t11.5 -8t4 -11t0.5 -20.5v-106q0 -26 -10 -32.5t-40 -6.5h-747q-28 0 -35.5 14t-7.5 58z" />
<glyph unicode="M" horiz-adv-x="1636" d="M164 68v1366q0 38 11.5 51.5t39.5 13.5h156q24 0 38.5 -7.5t28.5 -31.5l369 -612q6 -9 14.5 -10t14.5 8l362 610q24 43 66 43h166q22 0 31.5 -9t10.5 -19.5t1 -40.5v-1375q0 -31 -9.5 -43t-38.5 -12h-137q-39 0 -52 14t-13 54v1042q0 29 -5.5 29t-23.5 -27l-305 -532 q-22 -37 -30.5 -46.5t-22.5 -9.5h-45q-19 0 -26.5 7t-24.5 39q-5 8 -7 12l-289 520q-15 25 -23 25q-9 0 -9 -29v-1045q0 -29 -9 -41t-41 -12h-133q-16 0 -25.5 1.5t-20 7.5t-15 20.5t-4.5 38.5z" />
<glyph unicode="N" horiz-adv-x="1472" d="M164 61v1373q0 65 37 65h143q20 0 32.5 -1t21.5 -6t11.5 -7t10.5 -13t12 -16l598 -1016q19 -33 30 -33q7 0 10 15q3 17 3 49v963q-1 28 7 47q7 18 24 18h2h158q25 0 33 -15t8 -52v-1360q-1 -44 -9 -60t-33 -16h-3l-148 2q-27 0 -41.5 10.5t-32.5 40.5l-596 1000 q-11 17 -17.5 26.5t-12.5 14.5t-9 1.5t-4.5 -14t-1.5 -30.5v-975q0 -43 -8.5 -57.5t-36.5 -14.5h-133q-31 0 -41 9q-14 16 -14 52z" />
<glyph unicode="O" horiz-adv-x="1415" d="M152 403v605q0 272 134.5 393t420.5 121q557 0 557 -508v-547q0 -78 -13.5 -143.5t-35 -113t-55.5 -85.5t-67.5 -62t-78 -42t-80 -27t-81.5 -14t-74 -6t-66 -1q-50 0 -95.5 3.5t-104 14.5t-107 29t-97 51t-82 77t-54.5 109.5t-21 145.5zM393 457q0 -75 28 -131.5 t75.5 -88t102 -46.5t114.5 -15q68 0 118.5 13t94.5 46t67 98.5t23 162.5v503q0 165 -74.5 243.5t-224.5 78.5q-176 0 -250 -81t-74 -249v-534z" />
<glyph unicode="P" horiz-adv-x="1298" d="M164 61v11v1374q0 31 9 42t40 11h438q561 0 561 -475q0 -238 -133.5 -362.5t-398.5 -124.5h-234q-21 0 -26.5 -7t-5.5 -34v-430q0 -39 -10.5 -52.5t-38.5 -13.5h-160q-20 0 -29 8t-10.5 18t-1.5 35zM414 770q0 -25 7.5 -32t33.5 -7h247q117 0 188 74.5t71 228.5 q0 141 -89.5 210t-230.5 69h-190q-37 -2 -37 -37v-506z" />
<glyph unicode="Q" horiz-adv-x="1415" d="M152 403v605q0 272 134.5 393t420.5 121q557 0 557 -508v-547q0 -302 -197 -412q29 -38 87 -85t120 -72q26 -9 32 -25q3 -6 3 -15q0 -13 -6 -32l-41 -121q-11 -29 -36 -29q-10 0 -22 5q-63 21 -173 105.5t-193 193.5q-82 -7 -125 -7q-50 0 -95.5 3.5t-104 14.5t-107 29 t-97 51t-82 77t-54.5 109.5t-21 145.5zM393 457q0 -75 28 -131.5t75.5 -88t102 -46.5t114.5 -15q68 0 118.5 13t94.5 46t67 98.5t23 162.5v503q0 165 -74.5 243.5t-224.5 78.5q-176 0 -250 -81t-74 -249v-534z" />
<glyph unicode="R" horiz-adv-x="1351" d="M164 61v11v1374q0 31 9 42t40 11h438q273 0 417 -113.5t144 -322.5q0 -77 -26.5 -145.5t-68 -115.5t-88 -78t-91.5 -42q-22 -6 -23.5 -9t7.5 -22l282 -579q17 -35 17 -51q-1 -3 -1 -5q-4 -16 -34 -16h-182q-26 0 -36 11t-24 44l-262 549q-10 21 -35 21h-211 q-16 0 -19 -5.5t-3 -27.5v-526q0 -39 -10.5 -52.5t-38.5 -13.5h-160q-20 0 -29 8t-10.5 18t-1.5 35zM414 858q0 -27 7.5 -33t33.5 -6h252q114 0 185 62t71 182q0 89 -45.5 147t-115 80.5t-161.5 22.5h-190q-37 -2 -37 -37v-418z" />
<glyph unicode="S" horiz-adv-x="1241" d="M108 116q2 46 16 94t28 44q7 -2 38.5 -15t57 -21t67 -18.5t93 -16t110.5 -5.5q154 0 246 50t92 161q0 98 -63 160t-226 127q-52 21 -91.5 39t-85 43.5t-78 51.5t-64 60.5t-51 72.5t-31.5 87t-12 105q0 81 32.5 150.5t96 122.5t165.5 83.5t232 30.5q40 0 76 -1t65.5 -3.5 t52.5 -4t45 -5.5t34.5 -6t29 -7t22 -6.5t19 -6.5t14.5 -5q12 -4 15.5 -26.5t-2 -51t-14.5 -56.5t-22.5 -45t-25.5 -14q-147 45 -289 45q-158 0 -225 -49.5t-67 -144.5q0 -88 64 -143t220 -115q213 -86 319.5 -201t106.5 -277q0 -97 -33 -172.5t-86.5 -123t-129 -78 t-153 -42.5t-165.5 -12q-164 0 -276 25.5t-160 58.5q-8 12 -8 44q1 8 1 17z" />
<glyph unicode="T" horiz-adv-x="1134" d="M25 1339v127q0 21 11.5 27t45.5 6h969q34 0 46.5 -5t12.5 -24v-131q0 -15 -8.5 -22.5t-34.5 -7.5h-332q-30 0 -38.5 -7t-8.5 -32v-1202q0 -41 -9 -54.5t-42 -13.5h-141q-34 0 -44 12t-10 56v1202q0 25 -8.5 32t-38.5 7h-327q-26 0 -34.5 7t-8.5 23z" />
<glyph unicode="U" horiz-adv-x="1368" d="M160 430v1016q0 29 7.5 40t27.5 13h155q27 0 39 -14.5t12 -52.5v-924q0 -155 76.5 -242.5t202.5 -87.5q83 0 139.5 22.5t87.5 68.5t43.5 104t12.5 139v934q0 29 7 40.5t27 12.5h160q27 0 39 -14.5t12 -52.5v-967q0 -492 -528 -492q-74 0 -143 13t-139 46t-121.5 83 t-84 131t-32.5 184z" />
<glyph unicode="V" horiz-adv-x="1304" d="M63 1468q0 10 3 16q3 7 11 10.5t14.5 4t19.5 0.5h159q26 0 34.5 -9t19.5 -44l344 -1153l344 1153q9 26 12 34t11 13.5t22 5.5h129q30 0 42 -9q7 -5 6 -16q0 -8 -3 -18l-428 -1411q-8 -26 -19.5 -35.5t-40.5 -9.5h-188q-30 0 -42.5 11t-20.5 38l-422 1383q-7 21 -7 36z " />
<glyph unicode="W" horiz-adv-x="1931" d="M69 1468q0 10 3 16q3 7 11 10.5t14.5 4t19.5 0.5h159q26 0 34.5 -9t19.5 -44l344 -1153l190 639l-151 500q-6 19 -6.5 32t2 20t10.5 10.5t14 4t19 0.5h161q14 0 21.5 -1t13.5 -10t8 -14.5t9 -27.5l344 -1155l346 1155q7 26 10.5 34t10.5 13.5t22 5.5h129q30 0 42 -9 q8 -6 8 -18q0 -7 -3 -16l-430 -1413q-8 -26 -19 -34.5t-41 -8.5h-180q-31 0 -43 10.5t-20 38.5l-176 576l-177 -580q-8 -27 -18.5 -36t-40.5 -9h-168q-30 0 -42.5 11t-20.5 38l-422 1383q-7 21 -7 36z" />
<glyph unicode="X" horiz-adv-x="1392" d="M88 14q-1 2 -1 4q0 15 24 48q28 43 73.5 113.5t142.5 219.5t161.5 248t64.5 98l-449 693q-19 31 -15 46t36 15h174q31 0 50.5 -13t45.5 -54l318 -494l315 494q28 43 43.5 55t52.5 12h127q32 0 36 -15t-17 -46l-432 -670l456 -702q19 -27 19 -43q0 -23 -39 -23h-182 q-27 0 -45.5 15t-42.5 51l-324 509l-328 -509q-29 -44 -41.5 -55t-34.5 -11h-145q-39 0 -43 14z" />
<glyph unicode="Y" horiz-adv-x="1288" d="M59 1492q7 7 35 7h178q21 0 32 -8t26 -35l338 -629l333 631q2 3 5.5 9t5 8t4.5 6.5t5 5.5t5.5 4t6.5 4t7.5 2t10 1.5t12.5 0.5h127q34 0 40 -9q1 -3 1 -6q0 -12 -14 -38q-28 -52 -74.5 -138t-145 -268t-163.5 -303t-64 -121v-571q0 -26 -10 -35.5t-37 -9.5h-162 q-23 0 -31 8.5t-8 32.5v577l-456 840q-9 19 -9 28q0 4 2 6z" />
<glyph unicode="Z" horiz-adv-x="1226" d="M88 25v61q0 9 4 20.5t8 19.5t12.5 23.5t12.5 22.5l680 1135h-617q-44 0 -62 10.5t-15 38.5l6 106q1 16 3 21.5t13 10.5t35 5h913q47 0 47 -24v-62q0 -17 -43 -94l-673 -1126h657q45 0 59.5 -6.5t14.5 -28.5v-119q0 -23 -10.5 -31t-45.5 -8h-964q-35 0 -35 25z" />
<glyph unicode="[" horiz-adv-x="698" d="M154 -156v1672q0 28 8.5 35.5t42.5 7.5h356q31 0 40 -7.5t9 -27.5v-101q0 -20 -11.5 -28.5t-37.5 -8.5h-141q-24 0 -32.5 -8t-8.5 -30v-1340q0 -22 9 -29.5t32 -7.5h151q23 0 31 -10t8 -31v-100q0 -21 -10.5 -28t-36.5 -7h-354q-32 0 -43.5 10t-11.5 39z" />
<glyph unicode="\" horiz-adv-x="839" d="M22 1500q2 13 27 13h135q37 0 50.5 -10.5t27.5 -46.5l535 -1390q16 -40 9 -53t-40 -13h-131q-26 0 -38.5 10.5t-25.5 46.5l-536 1395q-15 35 -13 48z" />
<glyph unicode="]" horiz-adv-x="698" d="M86 -70q0 21 8 31t31 10h151q23 0 32 7.5t9 29.5v1340q0 22 -8.5 30t-32.5 8h-141q-26 0 -37.5 8.5t-11.5 28.5v101q0 20 9 27.5t40 7.5h357q32 0 41.5 -7.5t9.5 -35.5v-1672q0 -29 -11.5 -39t-44.5 -10h-354q-27 0 -37 7t-10 28v100z" />
<glyph unicode="^" horiz-adv-x="1077" d="M126.5 739q-3.5 16 14.5 56l283 641q16 37 27.5 52t31.5 15h107q28 0 40 -12t29 -49l287 -647q17 -40 14 -56t-32 -16h-99q-7 0 -13.5 1t-11.5 3.5t-9 4t-8 7t-6 8.5t-6 11t-5.5 11.5t-5.5 14.5t-6 15l-215 501l-215 -501q-9 -24 -13 -33.5t-12 -22t-18.5 -16.5t-26.5 -4 h-98q-30 0 -33.5 16z" />
<glyph unicode="_" horiz-adv-x="913" d="M20 -94q0 34 11.5 41.5t50.5 7.5h743q45 0 61.5 -7t16.5 -34v-86q0 -33 -14 -42t-62 -9h-751q-32 0 -44 8.5t-12 32.5v88z" />
<glyph unicode="`" horiz-adv-x="970" d="M246 1567q3 14 43 14h143q17 0 28.5 -5.5t17.5 -12.5t18 -25l186 -262q39 -53 -10 -53h-80q-33 0 -66 37l-254 264q-29 29 -26 43z" />
<glyph unicode="a" horiz-adv-x="1165" d="M104 545q0 274 94 429.5t269 155.5q240 0 336 -169v90q0 51 37 51h131q40 0 49.5 -13t9.5 -49v-960q0 -44 -9 -62t-40 -18h-129q-26 0 -37.5 11t-11.5 48v86q-32 -69 -125 -118.5t-207 -49.5q-78 0 -142.5 32t-116 98t-80 178t-28.5 260zM346 463q0 -154 56 -242t163 -88 q49 0 92.5 24t70.5 58.5t42.5 68t15.5 56.5v375q0 29 -7.5 62t-25 68.5t-43 64t-64.5 47t-85 18.5q-107 0 -161 -81.5t-54 -258.5v-172z" />
<glyph unicode="b" horiz-adv-x="1169" d="M139 80v1380q0 36 10 49t50 13h131q37 0 37 -68v-483q51 82 131.5 120.5t203.5 38.5q175 0 269 -155.5t94 -429.5q0 -149 -27.5 -260.5t-76.5 -177.5t-112.5 -98t-141.5 -32q-120 0 -202.5 33.5t-137.5 106.5v-60q0 -37 -11.5 -47t-38.5 -10h-129q-31 0 -40 18t-9 62z M383 319q0 -53 63 -118.5t156 -65.5q107 0 164 87.5t57 240.5v172q0 155 -56.5 247.5t-158.5 92.5q-58 0 -103 -24t-70.5 -62.5t-38.5 -80.5t-13 -83v-406z" />
<glyph unicode="c" horiz-adv-x="1050" d="M102 545q0 585 514 585q133 0 224.5 -36.5t150.5 -116.5q3 -5 3 -11q0 -18 -28 -45q-38 -37 -84.5 -59t-56.5 -4q-71 115 -211 115q-119 0 -190.5 -81.5t-71.5 -242.5v-200q0 -159 72.5 -236.5t189.5 -77.5q66 0 119.5 35t89.5 94q8 17 37.5 12t61 -19t54.5 -34 q18 -16 18 -27q0 -3 -1 -6q-115 -213 -387 -213q-124 0 -213.5 28t-156.5 92t-100.5 175.5t-33.5 272.5z" />
<glyph unicode="d" horiz-adv-x="1165" d="M104 545q0 274 94 429.5t269 155.5q120 0 199 -37t137 -122v483q0 68 37 68h131q40 0 49.5 -13t9.5 -49v-1380q0 -44 -9 -62t-40 -18h-129q-14 0 -21 1.5t-14.5 6.5t-10.5 17.5t-3 33.5v58q-113 -140 -340 -140q-162 0 -260.5 139t-98.5 429zM346 463q0 -153 57 -240.5 t164 -87.5q93 0 156 65.5t63 118.5v406q0 41 -13 83t-38.5 80.5t-70.5 62.5t-103 24q-102 0 -158.5 -92.5t-56.5 -247.5v-172z" />
<glyph unicode="e" horiz-adv-x="1136" d="M104 541q0 293 121 441t355 148q214 0 332 -113.5t118 -318.5v-127q0 -49 -15.5 -68.5t-68.5 -19.5h-608q0 -333 309 -333q164 0 303 45q28 10 43 4.5t15 -23.5v-102q0 -27 -13.5 -38t-54.5 -24q-27 -9 -124.5 -22t-178.5 -13q-270 0 -401.5 133t-131.5 431zM344 675 q0 -15 1 -21t7 -10.5t19 -4.5h413q14 0 18.5 8t4.5 31q-3 154 -56.5 229.5t-175.5 75.5q-116 0 -172.5 -84.5t-58.5 -218.5v-5z" />
<glyph unicode="f" horiz-adv-x="700" d="M84 956v70q0 43 33 43h102q-39 80 -39 177v9q0 52 15 98t45.5 85t84 61.5t124.5 22.5q106 0 180 -27q8 -3 8 -25q0 -20 -7 -57q-14 -74 -27 -74h-1q-64 15 -96 15q-44 0 -73.5 -32.5t-29.5 -92.5q0 -93 58 -158h137q30 0 38.5 -9t8.5 -32v-72q0 -22 -9.5 -33.5 t-37.5 -11.5h-133v-845q0 -68 -47 -68h-125q-57 0 -57 53v860h-107q-27 0 -36 9t-9 34z" />
<glyph unicode="g" horiz-adv-x="1165" d="M104 555q0 265 93.5 420t261.5 155q235 0 344 -145q0 75 9 96t40 21h125q19 0 30 -4t15.5 -17t5 -21.5t0.5 -31.5v-872q0 -319 -102 -456.5t-322 -137.5q-180 0 -321 30q-34 9 -47 18.5t-13 35.5v104q0 21 15 24q4 1 10 1q18 0 55 -8q177 -43 277 -43q114 0 167.5 77 t57.5 252q0 6 -1 36.5t-1 37.5q-56 -76 -136.5 -113t-195.5 -37q-169 0 -268 139t-99 439zM346 457q0 -152 55.5 -237t163.5 -85q50 0 93.5 21.5t70.5 52.5t42 62.5t15 54.5v393q0 41 -13 84t-38 82.5t-70 64.5t-102 25q-102 0 -159.5 -94.5t-57.5 -251.5v-172z" />
<glyph unicode="h" horiz-adv-x="1150" d="M135 72v1364q0 33 10 48t39 15h142q23 0 31 -12t8 -51v-463q64 79 135.5 116t189.5 37q68 0 124.5 -18.5t102.5 -58.5t71.5 -110t25.5 -165v-680q0 -55 -7.5 -74.5t-33.5 -19.5h-146q-24 0 -34.5 17.5t-10.5 56.5v651q0 90 -46.5 147.5t-145.5 57.5q-104 0 -166 -75.5 t-62 -160.5v-622q0 -42 -7 -57t-29 -15h-142q-30 0 -39.5 15.5t-9.5 56.5z" />
<glyph unicode="i" horiz-adv-x="497" d="M135 72v968q0 33 10 47.5t39 14.5h129q34 0 41.5 -12t7.5 -50v-968q0 -31 -2 -43.5t-10.5 -20.5t-27.5 -8h-144q-27 0 -35 15t-8 57zM135 1366v74q0 36 10 47.5t45 11.5h129q22 0 31.5 -9.5t10.5 -20t1 -39.5v-70q0 -37 -8 -49.5t-32 -12.5h-136q-31 0 -41 13t-10 55z " />
<glyph unicode="j" horiz-adv-x="528" d="M-42 -356q2 36 13 75.5t23 38.5q54 -12 98 -12q66 0 66 115v1171q0 37 11 53.5t44 16.5h129q28 0 39.5 -15.5t11.5 -52.5v-1206q0 -116 -58 -188t-183 -72q-97 0 -187 31q-7 8 -7 34v11zM162 1366v70q0 37 10.5 50t44.5 13h123q9 0 16 -1t11.5 -2t7.5 -5t5 -5.5t2.5 -9 t0.5 -10v-13.5v-15v-78q0 -39 -6.5 -50.5t-34.5 -11.5h-129q-32 0 -41.5 12t-9.5 56z" />
<glyph unicode="k" horiz-adv-x="1013" d="M135 76v1384q0 33 10 47.5t39 14.5h127q34 0 41.5 -12t7.5 -50v-794l332 389q30 47 60 47h182q35 0 36 -13.5t-24 -41.5l-403 -476l436 -528q14 -20 14 -30q0 -3 -1 -5q-6 -10 -36 -10h-178q-13 0 -26 8.5t-21 16.5t-29 32l-342 418v-395q0 -45 -7 -61.5t-34 -16.5h-126 q-33 0 -45.5 17.5t-12.5 58.5z" />
<glyph unicode="l" horiz-adv-x="497" d="M135 68v1398q0 30 10 43t39 13h129q34 0 41.5 -12t7.5 -50v-1388q0 -31 -2 -43.5t-10.5 -20.5t-27.5 -8h-136q-32 0 -41.5 12.5t-9.5 55.5z" />
<glyph unicode="m" horiz-adv-x="1720" d="M135 76v962q0 33 10 48.5t39 15.5h131q27 0 38.5 -23.5t11.5 -91.5q55 74 122 106.5t172 32.5q101 0 170.5 -43t112.5 -141q61 91 139.5 137.5t186.5 46.5q141 0 228 -84t87 -268v-680q0 -53 -9 -73.5t-36 -20.5h-135q-32 0 -41.5 16.5t-9.5 57.5v651q0 45 -7 79 t-24.5 64t-52.5 46t-86 16q-91 0 -140 -58.5t-67 -146.5v-631q0 -52 -10 -73t-37 -21h-140q-24 0 -34.5 17.5t-10.5 56.5v651q0 95 -37 150t-135 55q-56 0 -98.5 -22.5t-65.5 -58.5t-34 -75.5t-11 -79.5v-616q0 -31 -1.5 -45t-10.5 -23.5t-28 -9.5h-129q-33 0 -45.5 17.5 t-12.5 58.5z" />
<glyph unicode="n" horiz-adv-x="1150" d="M135 76v962q0 33 10 48.5t39 15.5h131q27 0 38.5 -29.5t11.5 -99.5q112 153 325 153q68 0 124.5 -18.5t102.5 -58.5t71.5 -110t25.5 -165v-680q0 -53 -9 -73.5t-36 -20.5h-133q-54 0 -54 74v651q0 90 -46.5 146.5t-145.5 56.5q-74 0 -128 -38.5t-77 -90t-23 -105.5v-616 q0 -31 -1.5 -45t-10.5 -23.5t-28 -9.5h-129q-33 0 -45.5 17.5t-12.5 58.5z" />
<glyph unicode="o" horiz-adv-x="1198" d="M104 545q0 585 512 585q235 0 356.5 -138.5t121.5 -444.5q0 -274 -128.5 -422t-359.5 -148q-124 0 -213 28t-156 92t-100 175.5t-33 272.5zM348 449q0 -159 72.5 -236.5t189.5 -77.5q116 0 183 92t67 246v186q0 145 -60 229.5t-192 84.5q-118 0 -189 -81.5t-71 -242.5 v-200z" />
<glyph unicode="p" horiz-adv-x="1169" d="M139 -360v1388q0 21 1 31.5t6 22t16.5 16t30.5 4.5h124q50 0 50 -58v-75q113 161 344 161q168 0 261 -155t93 -420q0 -300 -99 -439t-268 -139q-220 0 -331 138v-475q0 -38 -8 -53t-29 -15h-135q-35 0 -45.5 14t-10.5 54zM383 322q0 -53 64 -120t157 -67q108 0 163.5 85 t55.5 237v172q0 157 -57.5 251.5t-159.5 94.5q-57 0 -102 -25t-70 -64.5t-38 -82.5t-13 -84v-397z" />
<glyph unicode="q" horiz-adv-x="1165" d="M104 555q0 265 93.5 420t261.5 155q218 0 344 -161v75q0 30 9.5 44t35.5 14h129q37 0 45 -13t8 -51v-1411q0 -33 -10 -44t-45 -11h-135q-21 0 -29 8.5t-8 36.5v498q-107 -138 -332 -138q-169 0 -268 139t-99 439zM346 457q0 -152 55.5 -237t163.5 -85q95 0 158 63t63 115 v406q0 41 -13 84t-38 82.5t-70 64.5t-102 25q-102 0 -159.5 -94.5t-57.5 -251.5v-172z" />
<glyph unicode="r" horiz-adv-x="757" d="M135 76v962q0 33 10 48.5t39 15.5h131q50 0 50 -53v-105q121 172 323 172q12 0 17 -0.5t11 -5.5t5 -16l-6 -129q-6 -31 -31 -31q-96 0 -166 -43q-71 -42 -113.5 -95t-42.5 -102v-616q0 -31 -1.5 -45t-10.5 -23.5t-28 -9.5h-129q-33 0 -45.5 17.5t-12.5 58.5z" />
<glyph unicode="s" horiz-adv-x="946" d="M94 115q5 76 30 84h9q3 -1 27 -10.5t42 -14.5t49 -12.5t70.5 -11t84.5 -3.5q103 0 155.5 34t52.5 110q0 61 -50 113t-156 108q-56 29 -92 49.5t-78.5 52.5t-67 62.5t-41 73t-16.5 90.5q0 72 33 129t89 92.5t127 53.5t150 18q101 0 175 -11.5t101 -23.5q8 -4 8 -21 q0 -21 -11 -61q-20 -70 -43 -70h-3q-116 33 -213 33q-184 0 -184 -133q0 -43 49.5 -82.5t145.5 -91.5q79 -42 131.5 -78t96.5 -82.5t64.5 -102.5t20.5 -126q0 -73 -23.5 -128.5t-61 -88.5t-91 -53.5t-105.5 -28t-112 -7.5q-235 0 -353 66q-11 5 -11 46q0 12 1 26z" />
<glyph unicode="t" horiz-adv-x="761" d="M80 961v77q0 25 8 33t37 8h98v205q0 26 15 37t43 14l110 21q10 2 18 2q17 0 25 -8q12 -12 12 -45v-226h197q27 0 37 -11.5t10 -33.5v-78q0 -22 -9.5 -31.5t-39.5 -9.5h-188v-663q0 -51 23.5 -80t64.5 -29q49 0 102 13q11 2 20 -36.5t9 -73.5t-8 -44q-69 -25 -193 -25 q-71 0 -122.5 22.5t-79.5 62t-41 85t-13 99.5v672h-102q-19 0 -26 10.5t-7 32.5z" />
<glyph unicode="u" horiz-adv-x="1150" d="M135 328v702q0 39 10 55.5t37 16.5h133q54 0 54 -74v-651q0 -91 45.5 -147t144.5 -56q72 0 126.5 38.5t78.5 90.5t24 105v616q0 45 7 61.5t34 16.5h129q33 0 44.5 -17.5t11.5 -58.5v-963q0 -34 -9 -48.5t-38 -14.5h-131q-27 0 -38.5 28.5t-11.5 98.5q-68 -78 -144 -112.5 t-183 -34.5q-64 0 -119.5 19.5t-102.5 59t-74.5 108.5t-27.5 161z" />
<glyph unicode="v" horiz-adv-x="1069" d="M43 1057q-5 11 -5 19q0 26 46 26h137q40 0 55 -49l271 -795l282 795q7 18 22 33.5t32 15.5h116q30 0 36 -11q2 -3 2 -9q0 -12 -9 -33l-360 -988q-13 -38 -28.5 -49.5t-43.5 -11.5h-150q-49 0 -71 57z" />
<glyph unicode="w" horiz-adv-x="1421" d="M37 1057q-4 11 -4 19q0 10 6 16q11 10 39 10h135q38 0 53 -49l209 -801l139 526l-77 279q-9 25 2 35t39 10h135q37 0 55 -49l207 -801l217 801q7 18 21.5 33.5t31.5 15.5h113q31 0 37 -11q2 -4 2 -10q0 -12 -8 -32l-293 -988q-14 -38 -29.5 -49.5t-44.5 -11.5h-127 q-54 0 -72 57l-123 461l-135 -457q-14 -38 -29 -49.5t-44 -11.5h-105q-50 0 -72 57z" />
<glyph unicode="x" horiz-adv-x="956" d="M46 1087q4 15 42 15h156q23 0 37.5 -14.5t35.5 -51.5l177 -305l180 305q22 37 37.5 51.5t38.5 14.5h110q40 0 43.5 -15t-18.5 -47l-287 -471l297 -497q20 -35 20 -51q0 -21 -34 -21h-148q-31 0 -45.5 13t-42.5 57l-180 311l-184 -311q-26 -45 -41 -57.5t-41 -12.5h-115 q-21 0 -28 7t-2 22.5t22 42.5l284 471l-297 497q-18 27 -18 42q0 3 1 5z" />
<glyph unicode="y" horiz-adv-x="1083" d="M47 1057q-5 12 -5 21t6 14q10 10 40 10h145q39 0 54 -49l264 -754l268 754q7 18 21.5 33.5t31.5 15.5h123q32 0 38 -11q2 -3 2 -9q0 -12 -9 -33l-522 -1407q-12 -29 -27.5 -40.5t-40.5 -11.5h-108q-35 0 -35 26q0 9 4 22l129 362z" />
<glyph unicode="z" horiz-adv-x="970" d="M59 48q4 20 23 50l502 848h-453q-33 0 -41 6t-8 37v72q0 25 10 33t33 8h700q56 0 69 -15.5t-11 -56.5l-523 -874h492q22 0 31 -1.5t15.5 -11.5t6.5 -32v-68q0 -27 -9.5 -35t-39.5 -8h-719q-46 0 -64 14q-15 11 -15 26q0 4 1 8z" />
<glyph unicode="{" horiz-adv-x="800" d="M82 647v121q0 8 8 16t21 9q89 11 147 65t51 133l-26 283q-12 132 52.5 208.5t205.5 76.5h96q21 0 29 -7.5t8 -25.5v-111q0 -29 -35 -29h-45q-50 0 -82 -30.5t-29 -89.5l31 -316q6 -90 -62.5 -158t-156.5 -81q88 -16 156.5 -94.5t62.5 -174.5l-27 -327q-6 -73 20.5 -108.5 t76.5 -35.5h61q29 0 29 -28v-119q0 -17 -8.5 -23t-32.5 -6h-113q-119 0 -184 71.5t-53 215.5l26 328q6 78 -50.5 136.5t-147.5 69.5q-29 3 -29 31z" />
<glyph unicode="|" horiz-adv-x="536" d="M170 -332v1899q0 36 10 47.5t47 11.5h109q26 0 31.5 -11t5.5 -50v-1905q0 -37 -7 -47t-32 -10h-105q-34 0 -46.5 13t-12.5 52z" />
<glyph unicode="}" horiz-adv-x="800" d="M135 -57q0 28 27 28h63q105 0 94 144l-26 327q-6 95 63 174t156 95q-88 13 -156.5 81t-62.5 158l31 316q3 60 -28.5 90t-80.5 30h-47q-33 0 -33 29v111q0 18 7 25.5t28 7.5h96q141 0 206.5 -76.5t53.5 -208.5l-28 -283q-7 -79 51 -133t147 -65q13 -1 21 -9t8 -16v-121 q0 -28 -29 -31q-91 -11 -147.5 -69.5t-50.5 -136.5l28 -328q12 -144 -53.5 -215.5t-185.5 -71.5h-113q-23 0 -31 6t-8 23v119z" />
<glyph unicode="~" horiz-adv-x="1077" d="M162 526q30 75 94 140t139 65q40 0 95.5 -29.5t108 -59.5t83.5 -30q71 0 119 90q13 23 30 13l91 -33q20 -7 10 -33q-52 -103 -112 -161t-140 -58q-32 0 -72.5 18.5t-72.5 41t-69 41t-63 18.5q-32 0 -66 -23.5t-52 -54.5q-11 -22 -33 -12l-80 41q-20 6 -10 26z" />
<glyph unicode="&#xa1;" horiz-adv-x="563" d="M147 1323v113q0 32 10.5 47.5t43.5 15.5h161q37 0 47.5 -13.5t10.5 -43.5v-115q0 -25 -9 -38t-36 -13h-168q-39 0 -49.5 8t-10.5 39zM172 70l27 923q0 37 7 51.5t27 14.5h82q36 0 45 -11.5t11 -56.5l26 -917q0 -22 -1 -31.5t-5.5 -21.5t-15 -16.5t-29.5 -4.5h-123 q-33 0 -43 16t-8 54z" />
<glyph unicode="&#xa2;" horiz-adv-x="1165" d="M137 545q0 263 102 403.5t281 169.5v119q0 33 10 47t39 14h129q34 0 42 -12t8 -51v-111q186 -21 278 -147q13 -19 -25 -56t-84.5 -59t-56.5 -4q-71 115 -213 115q-118 0 -189 -81.5t-71 -242.5v-200q0 -159 72.5 -236.5t189.5 -77.5q66 0 119.5 35t89.5 94q8 17 37.5 12 t61 -19t54.5 -34t17 -33q-92 -165 -280 -202v-113q0 -43 -6.5 -57.5t-34.5 -14.5h-134q-33 0 -43 16.5t-10 59.5v109q-92 12 -160 47t-119.5 99t-77.5 167t-26 244z" />
<glyph unicode="&#xa3;" horiz-adv-x="1175" d="M104 678v82q0 34 12 41.5t50 7.5h106q-2 27 -17 127t-15 154q0 196 116 314t332 118q231 0 367 -105q14 -20 8 -64.5t-26 -85.5t-36 -30q-122 90 -274 90q-120 0 -186 -70t-66 -202q0 -44 15.5 -135t17.5 -111h201q45 0 61 -7t16 -34v-82q0 -32 -14 -41.5t-61 -9.5h-197 q-7 -212 -76 -414q-5 -13 1.5 -20t27.5 -8q37 -1 137 -9t166 -8q70 0 146.5 11.5t101.5 21.5q27 7 34 -1.5t7 -33.5v-145q0 -58 -225 -58q-75 0 -237 15.5t-191 15.5q-116 0 -205 -18q-31 -8 -41.5 10.5t2.5 56.5q56 158 85.5 295t33.5 289h-121q-31 0 -43.5 9.5t-12.5 33.5 z" />
<glyph unicode="&#xa4;" d="M16 147v1156h1457v-1156h-1457zM176 380q0 -7 2 -9t8 -2h72q13 0 17.5 4.5t9.5 21.5l45 154h243l48 -154q3 -18 6 -22t16 -4h80q12 0 15.5 1t7.5 8t-3 23l-204 670q-5 19 -12 26t-25 7h-82q-16 0 -23 -7t-14 -26l-203 -670q-4 -14 -4 -21zM352 625l101 336l96 -336h-197z M724.5 1093.5q-3.5 -7.5 2.5 -22.5l207 -678q6 -24 31 -24h92q14 0 19.5 4.5t8.5 17.5l211 690q8 23 -22 23h-64q-3 0 -5 -0.5t-4 -1.5t-3 -2t-2.5 -4t-2 -5t-2.5 -6.5t-3 -7.5l-168 -565l-170 565q-4 13 -5.5 16.5t-6 7t-13.5 3.5h-77q-10 0 -15 -1.5t-8.5 -9z" />
<glyph unicode="&#xa5;" horiz-adv-x="1210" d="M69 1492.5q7 6.5 35 6.5h179q23 0 33 -8t24 -35l313 -635l312 637q10 19 14.5 24.5t15.5 11t31 5.5h119q33 0 38.5 -9.5t-12.5 -43.5l-419 -830v-151h166q32 0 45 -1.5t22.5 -10t9.5 -27.5v-80q0 -32 -14 -41.5t-61 -9.5h-168v-250q0 -26 -10 -35.5t-37 -9.5h-160 q-24 0 -31.5 8.5t-7.5 32.5v254h-180q-31 0 -44.5 9.5t-13.5 33.5v78q0 34 12 41.5t50 7.5h176v153l-430 840q-14 28 -7 34.5z" />
<glyph unicode="&#xa6;" d="M16 147v1156h1457v-1156h-1457zM176 380q0 -7 2 -9t8 -2h72q13 0 17.5 4.5t9.5 21.5l45 154h243l48 -154q3 -18 6 -22t16 -4h80q12 0 15.5 1t7.5 8t-3 23l-204 670q-5 19 -12 26t-25 7h-82q-16 0 -23 -7t-14 -26l-203 -670q-4 -14 -4 -21zM352 625l101 336l96 -336h-197z M724.5 1093.5q-3.5 -7.5 2.5 -22.5l207 -678q6 -24 31 -24h92q14 0 19.5 4.5t8.5 17.5l211 690q8 23 -22 23h-64q-3 0 -5 -0.5t-4 -1.5t-3 -2t-2.5 -4t-2 -5t-2.5 -6.5t-3 -7.5l-168 -565l-170 565q-4 13 -5.5 16.5t-6 7t-13.5 3.5h-77q-10 0 -15 -1.5t-8.5 -9z" />
<glyph unicode="&#xa7;" horiz-adv-x="1007" d="M145 682q0 107 74 179.5t178 78.5q-100 58 -166.5 132t-66.5 157q0 96 56 163.5t143 98.5t194 31q100 0 175 -11.5t102 -23.5q9 -3 6.5 -29.5t-10.5 -56.5t-21 -53.5t-25 -20.5q-150 41 -233 41q-184 0 -184 -133q0 -42 51 -84t149 -100q60 -34 98 -58t83.5 -61t71 -72 t43.5 -84t18 -104q0 -106 -55.5 -175.5t-135.5 -93.5q172 -128 172 -278q0 -79 -32.5 -139.5t-87 -95.5t-120.5 -52.5t-139 -17.5q-203 0 -319 65q-14 7 -10 72q5 76 30 84h9q4 -1 23.5 -8t32 -11.5t37 -11t47 -10.5t54 -7t64.5 -3q102 0 155 39t53 104q0 61 -53.5 113.5 t-161.5 105.5q-68 33 -115 61.5t-92.5 68.5t-68.5 90t-23 110zM328 688q0 -58 61 -115.5t150 -60.5q159 -7 159 147q0 65 -51.5 116t-142.5 54q-82 6 -129 -35t-47 -106z" />
<glyph unicode="&#xa8;" horiz-adv-x="970" d="M109 1325v131q0 29 8.5 43t36.5 14h131q53 0 53 -57v-121q0 -51 -47 -51h-127q-35 0 -45 8t-10 33zM549 1341v121q0 51 45 51h127q37 0 47 -9.5t10 -37.5v-127q0 -27 -9 -41t-36 -14h-119q-39 0 -52 14t-13 43z" />
<glyph unicode="&#xa9;" horiz-adv-x="1556" d="M51 731q0 201 96.5 369t263.5 265t367 97t367 -97t263.5 -265t96.5 -369t-96.5 -369t-263.5 -265t-367 -97t-367 97t-263.5 265t-96.5 369zM162 731q0 -130 49 -247t131.5 -200.5t196 -132.5t239.5 -49t239.5 49t196.5 132.5t132 200.5t49 247q0 131 -49 248t-132 200.5 t-196.5 132t-239.5 48.5q-168 0 -309.5 -82.5t-224 -227t-82.5 -319.5zM514 569v287q0 57 13.5 101t46 81.5t94.5 57.5t151 20q111 0 180 -43q4 -4 -3 -29t-17 -48t-14 -21q-1 0 -20 8.5t-30 12t-35 8t-51 4.5q-91 0 -134.5 -38.5t-43.5 -123.5v-264q0 -138 156 -138 q32 0 61.5 5t45.5 10.5t34.5 13t22.5 8.5q6 2 13.5 -23.5t10 -48.5t-1.5 -30q-25 -15 -78 -27t-118 -12q-135 0 -209 61t-74 168z" />
<glyph unicode="&#xaa;" horiz-adv-x="903" d="M106 1106q0 193 65.5 302.5t188.5 109.5q167 0 234 -121v65q0 15 7.5 25t19.5 10h98q29 0 35 -8.5t6 -34.5v-672q0 -32 -5.5 -44.5t-25.5 -12.5h-100q-19 0 -26 7.5t-7 35.5v59q-24 -49 -88.5 -82.5t-145.5 -33.5q-114 0 -185 96.5t-71 298.5zM283 1049q0 -96 38 -159 t107 -63q64 0 110 55t46 115v222q0 36 -17.5 76.5t-55 73t-85.5 32.5q-143 0 -143 -230v-122z" />
<glyph unicode="&#xab;" horiz-adv-x="1157" d="M70 655l303 447q14 23 25.5 29t31.5 -5l102 -57q17 -13 16.5 -24t-16.5 -35l-247 -355l260 -360q25 -38 -6 -51l-103 -58q-19 -8 -30.5 -2t-24.5 27zM528 655l303 447q14 23 26 29t32 -5l102 -57q17 -13 16.5 -24t-16.5 -35l-248 -355l261 -360q25 -37 -7 -51l-102 -58 q-19 -8 -30.5 -2t-24.5 27z" />
<glyph unicode="&#xac;" d="M16 147v1156h1457v-1156h-1457zM176 380q0 -7 2 -9t8 -2h72q13 0 17.5 4.5t9.5 21.5l45 154h243l48 -154q3 -18 6 -22t16 -4h80q12 0 15.5 1t7.5 8t-3 23l-204 670q-5 19 -12 26t-25 7h-82q-16 0 -23 -7t-14 -26l-203 -670q-4 -14 -4 -21zM352 625l101 336l96 -336h-197z M724.5 1093.5q-3.5 -7.5 2.5 -22.5l207 -678q6 -24 31 -24h92q14 0 19.5 4.5t8.5 17.5l211 690q8 23 -22 23h-64q-3 0 -5 -0.5t-4 -1.5t-3 -2t-2.5 -4t-2 -5t-2.5 -6.5t-3 -7.5l-168 -565l-170 565q-4 13 -5.5 16.5t-6 7t-13.5 3.5h-77q-10 0 -15 -1.5t-8.5 -9z" />
<glyph unicode="&#xad;" horiz-adv-x="1050" d="M164 569v101q0 34 11.5 40.5t51.5 6.5h588q20 0 29 -0.5t20.5 -2t15.5 -6t7.5 -11.5t3.5 -19v-100q0 -32 -14.5 -42t-61.5 -10h-594q-31 0 -44 9.5t-13 33.5z" />
<glyph unicode="&#xae;" horiz-adv-x="1556" d="M51 731q0 201 96.5 369t263.5 265t367 97t367 -97t263.5 -265t96.5 -369t-96.5 -369t-263.5 -265t-367 -97t-367 97t-263.5 265t-96.5 369zM162 731q0 -130 49 -247t131.5 -200.5t196 -132.5t239.5 -49t239.5 49t196.5 132.5t132 200.5t49 247q0 131 -49 248t-132 200.5 t-196.5 132t-239.5 48.5q-168 0 -309.5 -82.5t-224 -227t-82.5 -319.5zM537 390v7v684q0 18 3.5 22.5t20.5 4.5h232q133 0 200.5 -60t67.5 -165q0 -82 -47 -133t-92 -64q-1 -1 -4 -1q-9 -4 -7 -9l2 -4l170 -279q22 -37 -8 -37h-106q-2 0 -4.5 0.5t-4 1t-3.5 2t-3 2t-2.5 3 t-2.5 3.5t-2.5 4l-2 4t-2 4.5t-2.5 4.5l-166 264q-4 8 -18 8h-70q-9 0 -10.5 -2.5t-1.5 -15.5v-248q0 -20 -5.5 -26.5t-19.5 -6.5h-94q-13 0 -15.5 6.5t-2.5 25.5zM674 788q0 -12 4 -15t16 -3h117q49 0 79 28.5t30 88.5q0 114 -134 114h-94q-11 1 -14.5 -4.5t-3.5 -13.5 v-195z" />
<glyph unicode="&#xaf;" horiz-adv-x="970" d="M162 1374v64q0 34 11 40.5t50 6.5h547q32 0 45 -1.5t23 -10t10 -27.5v-62q0 -33 -14.5 -43t-61.5 -10h-553q-31 0 -44 9.5t-13 33.5z" />
<glyph unicode="&#xb0;" horiz-adv-x="858" d="M145 1217q0 120 85.5 205t205.5 85q119 0 204 -85t85 -205q0 -119 -85.5 -205t-203.5 -86q-121 0 -206 83t-85 208zM287 1217q0 -70 42.5 -115t106.5 -45q63 0 106.5 45.5t43.5 114.5q0 66 -44.5 113.5t-105.5 47.5q-62 0 -105.5 -48t-43.5 -113z" />
<glyph unicode="&#xb1;" horiz-adv-x="1808" d="M84 956v70q0 43 33 43h102q-41 84 -39 186q0 52 15 98t45.5 85t84 61.5t124.5 22.5q106 0 180 -27q15 -6 1 -82t-28 -74q-64 15 -96 15q-44 0 -73.5 -32.5t-29.5 -92.5q0 -93 58 -158h364q-13 26 -19 41t-13.5 55t-6.5 88q0 52 15 98t45.5 85t84 61.5t124.5 22.5 q106 0 180 -27q15 -6 1 -82t-28 -74q-64 15 -96 15q-44 0 -73 -32.5t-29 -92.5q0 -94 57 -158h137q30 0 38.5 -9t8.5 -32v-72q0 -22 -9.5 -33.5t-37.5 -11.5h-133v-845q0 -68 -47 -68h-125q-57 0 -57 53v860h-377v-845q0 -68 -47 -68h-125q-57 0 -57 53v860h-107 q-27 0 -36 9t-9 34zM1446 68v1398q0 30 10 43t39 13h129q34 0 41.5 -12t7.5 -50v-1388q0 -43 -6.5 -57.5t-34.5 -14.5h-135q-32 0 -41.5 12.5t-9.5 55.5z" />
<glyph unicode="&#xb2;" d="M16 147v1156h1457v-1156h-1457zM176 380q0 -7 2 -9t8 -2h72q13 0 17.5 4.5t9.5 21.5l45 154h243l48 -154q3 -18 6 -22t16 -4h80q12 0 15.5 1t7.5 8t-3 23l-204 670q-5 19 -12 26t-25 7h-82q-16 0 -23 -7t-14 -26l-203 -670q-4 -14 -4 -21zM352 625l101 336l96 -336h-197z M724.5 1093.5q-3.5 -7.5 2.5 -22.5l207 -678q6 -24 31 -24h92q14 0 19.5 4.5t8.5 17.5l211 690q8 23 -22 23h-64q-3 0 -5 -0.5t-4 -1.5t-3 -2t-2.5 -4t-2 -5t-2.5 -6.5t-3 -7.5l-168 -565l-170 565q-4 13 -5.5 16.5t-6 7t-13.5 3.5h-77q-10 0 -15 -1.5t-8.5 -9z" />
<glyph unicode="&#xb3;" d="M16 147v1156h1457v-1156h-1457zM176 380q0 -7 2 -9t8 -2h72q13 0 17.5 4.5t9.5 21.5l45 154h243l48 -154q3 -18 6 -22t16 -4h80q12 0 15.5 1t7.5 8t-3 23l-204 670q-5 19 -12 26t-25 7h-82q-16 0 -23 -7t-14 -26l-203 -670q-4 -14 -4 -21zM352 625l101 336l96 -336h-197z M724.5 1093.5q-3.5 -7.5 2.5 -22.5l207 -678q6 -24 31 -24h92q14 0 19.5 4.5t8.5 17.5l211 690q8 23 -22 23h-64q-3 0 -5 -0.5t-4 -1.5t-3 -2t-2.5 -4t-2 -5t-2.5 -6.5t-3 -7.5l-168 -565l-170 565q-4 13 -5.5 16.5t-6 7t-13.5 3.5h-77q-10 0 -15 -1.5t-8.5 -9z" />
<glyph unicode="&#xb4;" horiz-adv-x="970" d="M285 1276l188 262q22 31 33 37t29 6h143q28 0 38 -6.5t4.5 -18.5t-24.5 -32l-254 -264q-33 -37 -65 -37h-80q-48 0 -12 53z" />
<glyph unicode="&#xb5;" d="M16 147v1156h1457v-1156h-1457zM176 380q0 -7 2 -9t8 -2h72q13 0 17.5 4.5t9.5 21.5l45 154h243l48 -154q3 -18 6 -22t16 -4h80q12 0 15.5 1t7.5 8t-3 23l-204 670q-5 19 -12 26t-25 7h-82q-16 0 -23 -7t-14 -26l-203 -670q-4 -14 -4 -21zM352 625l101 336l96 -336h-197z M724.5 1093.5q-3.5 -7.5 2.5 -22.5l207 -678q6 -24 31 -24h92q14 0 19.5 4.5t8.5 17.5l211 690q8 23 -22 23h-64q-3 0 -5 -0.5t-4 -1.5t-3 -2t-2.5 -4t-2 -5t-2.5 -6.5t-3 -7.5l-168 -565l-170 565q-4 13 -5.5 16.5t-6 7t-13.5 3.5h-77q-10 0 -15 -1.5t-8.5 -9z" />
<glyph unicode="&#xb6;" horiz-adv-x="1179" d="M129 985q0 127 46 225.5t130.5 161t200 95t256.5 32.5h182q42 0 58 -11.5t16 -41.5v-1739v-6q0 -27 -1.5 -38t-10 -19.5t-27.5 -8.5h-90q-11 0 -19 6.5t-8 16.5v1677v4v4v4t-0.5 4t-1.5 3.5t-2.5 3.5l-3 2t-4.5 1.5t-6 0.5h-66q-22 0 -22 -27v-1677q0 -10 -8 -16.5 t-19 -6.5h-78q-29 0 -39 8.5t-10 34.5v781q0 55 -49 55q-57 0 -114 16.5t-113.5 53t-100 90t-70 134t-26.5 177.5z" />
<glyph unicode="&#xb7;" horiz-adv-x="501" d="M115 582v110q0 22 11 39t30 17h168q41 0 52 -10.5t11 -37.5v-110q0 -25 -1 -36.5t-12.5 -24.5t-35.5 -13h-158q-65 0 -65 66z" />
<glyph unicode="&#xb8;" horiz-adv-x="970" d="M289 -346q-11 12 1.5 33t32 33.5t25.5 3.5q31 -43 109 -43q116 0 116 75q0 44 -25.5 61t-78.5 17q-15 0 -35 -4q-10 -2 -15 -1t-5 11v193h118v-117q78 0 125.5 -41.5t47.5 -118.5q0 -83 -67 -128.5t-173 -45.5q-64 0 -103 16t-73 56z" />
<glyph unicode="&#xb9;" d="M16 147v1156h1457v-1156h-1457zM176 380q0 -7 2 -9t8 -2h72q13 0 17.5 4.5t9.5 21.5l45 154h243l48 -154q3 -18 6 -22t16 -4h80q12 0 15.5 1t7.5 8t-3 23l-204 670q-5 19 -12 26t-25 7h-82q-16 0 -23 -7t-14 -26l-203 -670q-4 -14 -4 -21zM352 625l101 336l96 -336h-197z M724.5 1093.5q-3.5 -7.5 2.5 -22.5l207 -678q6 -24 31 -24h92q14 0 19.5 4.5t8.5 17.5l211 690q8 23 -22 23h-64q-3 0 -5 -0.5t-4 -1.5t-3 -2t-2.5 -4t-2 -5t-2.5 -6.5t-3 -7.5l-168 -565l-170 565q-4 13 -5.5 16.5t-6 7t-13.5 3.5h-77q-10 0 -15 -1.5t-8.5 -9z" />
<glyph unicode="&#xba;" horiz-adv-x="921" d="M123 1102q0 409 358 409q164 0 248 -97t84 -312q0 -198 -88 -297.5t-252 -99.5q-177 0 -263.5 89t-86.5 308zM301 1034q0 -104 48 -157.5t128 -53.5q79 0 122.5 64.5t43.5 163.5v131q0 98 -41.5 154.5t-126.5 56.5q-80 0 -127 -56t-47 -163v-140z" />
<glyph unicode="&#xbb;" horiz-adv-x="1157" d="M143 262.5q-1 11.5 13 32.5l262 362l-248 353q-15 22 -15 34t15 21l100 61q22 11 34 5t28 -31l299 -443l-312 -450q-13 -19 -23 -23.5t-30 2.5l-102 56q-20 9 -21 20.5zM601.5 262q-1.5 11 12.5 33l263 362l-248 353q-15 22 -15 34t15 21l100 61q22 11 34 5t28 -31 l299 -443l-312 -450q-13 -19 -23 -23.5t-30 2.5l-102 56q-20 9 -21.5 20z" />
<glyph unicode="&#xbc;" d="M16 147v1156h1457v-1156h-1457zM176 380q0 -7 2 -9t8 -2h72q13 0 17.5 4.5t9.5 21.5l45 154h243l48 -154q3 -18 6 -22t16 -4h80q12 0 15.5 1t7.5 8t-3 23l-204 670q-5 19 -12 26t-25 7h-82q-16 0 -23 -7t-14 -26l-203 -670q-4 -14 -4 -21zM352 625l101 336l96 -336h-197z M724.5 1093.5q-3.5 -7.5 2.5 -22.5l207 -678q6 -24 31 -24h92q14 0 19.5 4.5t8.5 17.5l211 690q8 23 -22 23h-64q-3 0 -5 -0.5t-4 -1.5t-3 -2t-2.5 -4t-2 -5t-2.5 -6.5t-3 -7.5l-168 -565l-170 565q-4 13 -5.5 16.5t-6 7t-13.5 3.5h-77q-10 0 -15 -1.5t-8.5 -9z" />
<glyph unicode="&#xbd;" d="M16 147v1156h1457v-1156h-1457zM176 380q0 -7 2 -9t8 -2h72q13 0 17.5 4.5t9.5 21.5l45 154h243l48 -154q3 -18 6 -22t16 -4h80q12 0 15.5 1t7.5 8t-3 23l-204 670q-5 19 -12 26t-25 7h-82q-16 0 -23 -7t-14 -26l-203 -670q-4 -14 -4 -21zM352 625l101 336l96 -336h-197z M724.5 1093.5q-3.5 -7.5 2.5 -22.5l207 -678q6 -24 31 -24h92q14 0 19.5 4.5t8.5 17.5l211 690q8 23 -22 23h-64q-3 0 -5 -0.5t-4 -1.5t-3 -2t-2.5 -4t-2 -5t-2.5 -6.5t-3 -7.5l-168 -565l-170 565q-4 13 -5.5 16.5t-6 7t-13.5 3.5h-77q-10 0 -15 -1.5t-8.5 -9z" />
<glyph unicode="&#xbe;" d="M16 147v1156h1457v-1156h-1457zM176 380q0 -7 2 -9t8 -2h72q13 0 17.5 4.5t9.5 21.5l45 154h243l48 -154q3 -18 6 -22t16 -4h80q12 0 15.5 1t7.5 8t-3 23l-204 670q-5 19 -12 26t-25 7h-82q-16 0 -23 -7t-14 -26l-203 -670q-4 -14 -4 -21zM352 625l101 336l96 -336h-197z M724.5 1093.5q-3.5 -7.5 2.5 -22.5l207 -678q6 -24 31 -24h92q14 0 19.5 4.5t8.5 17.5l211 690q8 23 -22 23h-64q-3 0 -5 -0.5t-4 -1.5t-3 -2t-2.5 -4t-2 -5t-2.5 -6.5t-3 -7.5l-168 -565l-170 565q-4 13 -5.5 16.5t-6 7t-13.5 3.5h-77q-10 0 -15 -1.5t-8.5 -9z" />
<glyph unicode="&#xbf;" horiz-adv-x="909" d="M96 309q0 80 31 153.5t76 128t89.5 104t75.5 99.5t31 95v108q0 52 45 52h134q27 0 36.5 -10.5t8.5 -39.5q5 -100 -9 -159q-12 -47 -47 -97.5t-75 -93t-78.5 -87.5t-64 -97t-25.5 -105q0 -100 49.5 -152t144.5 -52q58 0 127 29t109 63q15 11 37 -25.5t28.5 -77 t-10.5 -61.5q-148 -107 -320 -107q-181 0 -287 89.5t-106 242.5zM373 1321v104q0 25 1 36.5t12.5 24.5t35.5 13h158q67 0 67 -65v-103q0 -23 -11 -39t-32 -16h-174q-33 0 -45 11t-12 34z" />
<glyph unicode="&#xc0;" horiz-adv-x="1308" d="M73 11q-3 11 9 57l416 1366q11 37 26 51t49 14h168q34 0 48.5 -14t27.5 -51l416 -1366q6 -19 6.5 -32t-1.5 -20.5t-10.5 -11t-16 -4t-21.5 -0.5h-162q-7 0 -12.5 1t-9.5 1t-7.5 3.5t-5 4.5t-4 7.5t-3 9t-3.5 12.5t-4 14l-88 287h-510l-86 -287q-9 -33 -18 -43t-33 -10 h-148q-20 0 -23 11zM330 1935.5q3 14.5 43 14.5h143q17 0 28.5 -5.5t17.5 -12.5t18 -25l186 -262q39 -54 -10 -54h-80q-33 0 -66 37l-254 264q-29 29 -26 43.5zM436 522h400l-199 684z" />
<glyph unicode="&#xc1;" horiz-adv-x="1308" d="M73 11q-3 11 9 57l416 1366q11 37 26 51t49 14h168q34 0 48.5 -14t27.5 -51l416 -1366q6 -19 6.5 -32t-1.5 -20.5t-10.5 -11t-16 -4t-21.5 -0.5h-162q-7 0 -12.5 1t-9.5 1t-7.5 3.5t-5 4.5t-4 7.5t-3 9t-3.5 12.5t-4 14l-88 287h-510l-86 -287q-9 -33 -18 -43t-33 -10 h-148q-20 0 -23 11zM436 522h400l-199 684zM565 1645l189 262q21 31 31 36q11 7 30 7h143q41 0 44.5 -14.5t-25.5 -43.5l-254 -264q-33 -37 -66 -37h-79q-49 0 -13 54z" />
<glyph unicode="&#xc2;" horiz-adv-x="1308" d="M73 11q-3 11 9 57l416 1366q11 37 26 51t49 14h168q34 0 48.5 -14t27.5 -51l416 -1366q6 -19 6.5 -32t-1.5 -20.5t-10.5 -11t-16 -4t-21.5 -0.5h-162q-7 0 -12.5 1t-9.5 1t-7.5 3.5t-5 4.5t-4 7.5t-3 9t-3.5 12.5t-4 14l-88 287h-510l-86 -287q-9 -33 -18 -43t-33 -10 h-148q-20 0 -23 11zM369 1645l186 262q1 1 6.5 9t6.5 9.5t6 7.5t8 7.5t8 4.5t10.5 4t11.5 1h82q10 0 17.5 -1.5t15 -7.5t9.5 -8t10.5 -13.5t9.5 -12.5l186 -262q41 -54 -12 -54h-76q-21 0 -30.5 4t-22.5 21l-146 192l-145 -192q-14 -17 -24.5 -21t-28.5 -4h-78q-51 0 -10 54 zM436 522h400l-199 684z" />
<glyph unicode="&#xc3;" horiz-adv-x="1308" d="M73 11q-3 11 9 57l416 1366q11 37 26 51t49 14h168q34 0 48.5 -14t27.5 -51l416 -1366q6 -19 6.5 -32t-1.5 -20.5t-10.5 -11t-16 -4t-21.5 -0.5h-162q-7 0 -12.5 1t-9.5 1t-7.5 3.5t-5 4.5t-4 7.5t-3 9t-3.5 12.5t-4 14l-88 287h-510l-86 -287q-9 -33 -18 -43t-33 -10 h-148q-20 0 -23 11zM293 1722q31 72 91 133.5t132 61.5q39 0 93 -29.5t105 -58.5t81 -29q73 0 120 84q10 23 29 12l82 -26q18 -8 8 -31q-102 -205 -243 -205q-40 0 -90.5 28t-98 56.5t-78.5 28.5q-32 0 -65 -23.5t-51 -54.5q-12 -22 -31 -12l-76 39q-17 8 -8 26zM436 522 h400l-199 684z" />
<glyph unicode="&#xc4;" horiz-adv-x="1308" d="M73 11q-3 11 9 57l416 1366q11 37 26 51t49 14h168q34 0 48.5 -14t27.5 -51l416 -1366q6 -19 6.5 -32t-1.5 -20.5t-10.5 -11t-16 -4t-21.5 -0.5h-162q-7 0 -12.5 1t-9.5 1t-7.5 3.5t-5 4.5t-4 7.5t-3 9t-3.5 12.5t-4 14l-88 287h-510l-86 -287q-9 -33 -18 -43t-33 -10 h-148q-20 0 -23 11zM311 1694v131q0 29 8.5 43t36.5 14h131q54 0 54 -57v-121q0 -51 -47 -51h-127q-35 0 -45.5 8t-10.5 33zM436 522h400l-199 684zM752 1710v121q0 51 45 51h127q37 0 47 -9.5t10 -37.5v-127q0 -27 -9 -41t-36 -14h-119q-39 0 -52 14t-13 43z" />
<glyph unicode="&#xc5;" horiz-adv-x="1308" d="M73 11q-3 11 9 57l416 1366q11 37 26 51t49 14h168q34 0 48.5 -14t27.5 -51l416 -1366q6 -19 6.5 -32t-1.5 -20.5t-10.5 -11t-16 -4t-21.5 -0.5h-162q-7 0 -12.5 1t-9.5 1t-7.5 3.5t-5 4.5t-4 7.5t-3 9t-3.5 12.5t-4 14l-88 287h-510l-86 -287q-9 -33 -18 -43t-33 -10 h-148q-20 0 -23 11zM416 1819q0 98 72 167.5t171 69.5q100 0 173 -69.5t73 -167.5t-73 -168t-173 -70q-99 0 -171 70t-72 168zM436 522h400l-199 684zM535 1819q0 -52 35.5 -92.5t88.5 -40.5t90 41t37 92q0 52 -36.5 92.5t-90.5 40.5q-52 0 -88 -41t-36 -92z" />
<glyph unicode="&#xc6;" horiz-adv-x="1820" d="M78 57l649 1377q17 39 30 52t44 13h833q37 0 46.5 -5.5t9.5 -27.5v-120q0 -12 -6 -19t-21.5 -10t-28 -3.5t-39.5 -0.5h-454q-54 0 -54 -33v-354q0 -28 10 -37.5t36 -9.5h403q41 0 53.5 -8t7.5 -29l-14 -115q-2 -14 -9.5 -22.5t-22.5 -12t-24.5 -4t-29.5 -0.5h-10h-338 q-32 0 -44.5 -10.5t-12.5 -36.5v-401q0 -17 3 -26.5t13 -13.5t16.5 -4.5t24.5 -0.5h498q42 0 57.5 -7.5t15.5 -31.5v-119q0 -37 -43 -37h-776q-47 0 -47 59v242q0 39 -37 39h-383l-135 -287q-12 -30 -25.5 -41.5t-35.5 -11.5h-138q-45 0 -22 57zM508 520h309q22 0 29.5 10 t7.5 29v719z" />
<glyph unicode="&#xc7;" horiz-adv-x="1228" d="M152 428v576q0 75 11.5 137.5t37.5 123t72 106t112.5 80.5t162 53t216.5 18q251 0 358 -86q15 -12 -18.5 -92.5t-48.5 -75.5q-5 2 -26 11t-33 14t-38 13t-48.5 12t-56 7.5t-69.5 3.5q-203 0 -293 -84.5t-90 -261.5v-532q0 -80 29 -139t78.5 -91t106 -46.5t122.5 -14.5 q52 0 98.5 5.5t83.5 15.5t61 18t51 20t34 14q13 4 29 -41t20.5 -87.5t-2.5 -55.5q-42 -27 -138.5 -49.5t-215.5 -26.5v-57q78 0 125 -41.5t47 -118.5q0 -83 -67 -128.5t-173 -45.5q-64 0 -103 16t-73 56q-11 12 1.5 33t32 33.5t25.5 3.5q31 -43 109 -43q117 0 117 75 q0 44 -26 61t-79 17q-15 0 -35 -4q-11 -2 -15.5 -1t-4.5 11v135q-234 19 -360.5 137.5t-126.5 315.5z" />
<glyph unicode="&#xc8;" horiz-adv-x="1128" d="M164 59v1373q0 23 2 35.5t10.5 22t26.5 9.5h741q37 0 46 -5.5t9 -27.5v-120q0 -12 -5.5 -19t-21 -10t-28 -3.5t-39.5 -0.5h-454q-54 0 -54 -33v-354q0 -28 9.5 -37.5t35.5 -9.5h406q41 0 52.5 -8t8.5 -29l-14 -115q-2 -14 -9.5 -22.5t-23 -12t-25 -4t-29.5 -0.5h-9h-340 q-32 0 -45 -10.5t-13 -36.5v-401q0 -17 3.5 -27t14 -13.5t17 -4t25.5 -0.5h495q42 0 59 -7.5t17 -31.5v-119q0 -37 -43 -37h-778q-47 0 -47 59zM317.5 1935.5q2.5 14.5 42.5 14.5h144q17 0 28.5 -6t16.5 -12t18 -25l187 -262q39 -54 -11 -54h-79q-33 0 -66 37l-254 264 q-29 29 -26.5 43.5z" />
<glyph unicode="&#xc9;" horiz-adv-x="1128" d="M164 59v1373q0 23 2 35.5t10.5 22t26.5 9.5h741q37 0 46 -5.5t9 -27.5v-120q0 -12 -5.5 -19t-21 -10t-28 -3.5t-39.5 -0.5h-454q-54 0 -54 -33v-354q0 -28 9.5 -37.5t35.5 -9.5h406q41 0 52.5 -8t8.5 -29l-14 -115q-2 -14 -9.5 -22.5t-23 -12t-25 -4t-29.5 -0.5h-9h-340 q-32 0 -45 -10.5t-13 -36.5v-401q0 -17 3.5 -27t14 -13.5t17 -4t25.5 -0.5h495q42 0 59 -7.5t17 -31.5v-119q0 -37 -43 -37h-778q-47 0 -47 59zM481 1645l189 262q21 31 31 36q11 7 30 7h143q41 0 44.5 -14.5t-25.5 -43.5l-254 -264q-33 -37 -66 -37h-79q-49 0 -13 54z" />
<glyph unicode="&#xca;" horiz-adv-x="1128" d="M164 59v1373q0 23 2 35.5t10.5 22t26.5 9.5h741q37 0 46 -5.5t9 -27.5v-120q0 -12 -5.5 -19t-21 -10t-28 -3.5t-39.5 -0.5h-454q-54 0 -54 -33v-354q0 -28 9.5 -37.5t35.5 -9.5h406q41 0 52.5 -8t8.5 -29l-14 -115q-2 -14 -9.5 -22.5t-23 -12t-25 -4t-29.5 -0.5h-9h-340 q-32 0 -45 -10.5t-13 -36.5v-401q0 -17 3.5 -27t14 -13.5t17 -4t25.5 -0.5h495q42 0 59 -7.5t17 -31.5v-119q0 -37 -43 -37h-778q-47 0 -47 59zM303 1645l186 262q21 31 33 37q11 6 25 6h82q10 0 17.5 -2t14 -7.5t9.5 -8t10.5 -12.5t9.5 -13l187 -262q41 -54 -13 -54h-76 q-21 0 -31 4t-22 21l-145 192l-146 -192q-14 -17 -24.5 -21t-28.5 -4h-78q-51 0 -10 54z" />
<glyph unicode="&#xcb;" horiz-adv-x="1128" d="M164 59v1373q0 23 2 35.5t10.5 22t26.5 9.5h741q37 0 46 -5.5t9 -27.5v-120q0 -12 -5.5 -19t-21 -10t-28 -3.5t-39.5 -0.5h-454q-54 0 -54 -33v-354q0 -28 9.5 -37.5t35.5 -9.5h406q41 0 52.5 -8t8.5 -29l-14 -115q-2 -14 -9.5 -22.5t-23 -12t-25 -4t-29.5 -0.5h-9h-340 q-32 0 -45 -10.5t-13 -36.5v-401q0 -17 3.5 -27t14 -13.5t17 -4t25.5 -0.5h495q42 0 59 -7.5t17 -31.5v-119q0 -37 -43 -37h-778q-47 0 -47 59zM246 1694v131q0 29 8.5 43t36.5 14h131q53 0 53 -57v-121q0 -51 -47 -51h-127q-35 0 -45 8t-10 33zM686 1710v121q0 51 45 51 h127q37 0 47 -9.5t10 -37.5v-127q0 -27 -9 -41t-36 -14h-118q-39 0 -52.5 14.5t-13.5 42.5z" />
<glyph unicode="&#xcc;" horiz-adv-x="575" d="M-44.5 1935.5q2.5 14.5 42.5 14.5h143q17 0 28.5 -5.5t17.5 -12.5t18 -25l186 -262q39 -54 -10 -54h-80q-32 0 -65 37l-254 264q-29 29 -26.5 43.5zM164 57v1397q0 29 10.5 37t44.5 8h152q27 0 34 -11t7 -46v-1395q0 -27 -8 -37t-35 -10h-158q-28 0 -37.5 11.5t-9.5 45.5 z" />
<glyph unicode="&#xcd;" horiz-adv-x="575" d="M164 57v1397q0 29 10.5 37t44.5 8h152q27 0 34 -11t7 -46v-1395q0 -27 -8 -37t-35 -10h-158q-28 0 -37.5 11.5t-9.5 45.5zM190 1645l189 262q21 31 31 36q12 7 30 7h144q28 0 38 -6.5t4.5 -19t-24.5 -32.5l-254 -264q-33 -37 -65 -37h-80q-49 0 -13 54z" />
<glyph unicode="&#xce;" horiz-adv-x="575" d="M4 1645l186 262q21 31 33 37q11 6 25 6h82q10 0 17.5 -2t14 -7.5t9.5 -8t10.5 -12.5t9.5 -13l187 -262q41 -54 -13 -54h-76q-21 0 -30.5 4t-22.5 21l-145 192l-146 -192q-14 -17 -24.5 -21t-28.5 -4h-78q-51 0 -10 54zM164 57v1397q0 29 10.5 37t44.5 8h152q27 0 34 -11 t7 -46v-1395q0 -27 -8 -37t-35 -10h-158q-28 0 -37.5 11.5t-9.5 45.5z" />
<glyph unicode="&#xcf;" horiz-adv-x="575" d="M-51 1694v131q0 29 8.5 43t36.5 14h131q53 0 53 -57v-121q0 -51 -47 -51h-127q-35 0 -45 8t-10 33zM164 57v1397q0 29 10.5 37t44.5 8h152q27 0 34 -11t7 -46v-1395q0 -27 -8 -37t-35 -10h-158q-28 0 -37.5 11.5t-9.5 45.5zM389 1710v121q0 51 45 51h127q37 0 47 -9.5 t10 -37.5v-127q0 -27 -9 -41t-36 -14h-118q-39 0 -52.5 14.5t-13.5 42.5z" />
<glyph unicode="&#xd0;" horiz-adv-x="1359" d="M43 713v100q0 34 11.5 40.5t51.5 6.5h58v572q0 34 8.5 50.5t34.5 16.5h416q98 0 178.5 -12t158.5 -45t131 -86t85 -139.5t32 -200.5v-549q0 -86 -19 -156.5t-49 -118t-74 -83.5t-89 -56.5t-98.5 -32.5t-97 -16t-91.5 -4h-475q-51 0 -51 72v598h-64q-31 0 -44 9.5 t-13 33.5zM408 244q0 -24 10.5 -35.5t42.5 -11.5h166q54 0 96.5 5.5t89.5 24t77.5 50t50.5 87.5t20 132v503q0 306 -336 306h-170q-30 0 -38.5 -9.5t-8.5 -33.5v-402h161q20 0 29 -0.5t20.5 -2t15.5 -6t7.5 -11.5t3.5 -19v-100q0 -32 -14.5 -41.5t-61.5 -9.5h-161v-426z" />
<glyph unicode="&#xd1;" horiz-adv-x="1472" d="M164 61v1373q0 65 37 65h143q20 0 32.5 -1t21.5 -6t11.5 -7t10.5 -13t12 -16l598 -1016q32 -56 40 -18q3 17 3 49v963q0 28 7.5 47t25.5 18h158q25 0 33 -15t8 -52v-1360q0 -44 -8.5 -60.5t-36.5 -15.5l-148 2q-27 0 -41.5 10.5t-32.5 40.5l-596 1000q-11 17 -17.5 26.5 t-12.5 14.5t-9 1.5t-4.5 -14t-1.5 -30.5v-975q0 -43 -8.5 -57.5t-36.5 -14.5h-133q-31 0 -41 9q-14 16 -14 52zM377 1722q31 72 91 133.5t132 61.5q39 0 93 -29.5t105 -58.5t81 -29q73 0 120 84q10 23 29 12l82 -26q18 -8 8 -31q-102 -205 -244 -205q-32 0 -70.5 17.5 t-69 39t-66 39t-60.5 17.5q-32 0 -65 -23.5t-51 -54.5q-12 -22 -31 -12l-76 39q-17 8 -8 26z" />
<glyph unicode="&#xd2;" horiz-adv-x="1415" d="M152 403v605q0 272 134.5 393t420.5 121q557 0 557 -508v-547q0 -78 -13.5 -143.5t-35 -113t-55.5 -85.5t-67.5 -62t-78 -42t-80 -27t-81.5 -14t-74 -6t-66 -1q-50 0 -95.5 3.5t-104 14.5t-107 29t-97 51t-82 77t-54.5 109.5t-21 145.5zM393 457q0 -75 28 -131.5 t75.5 -88t102 -46.5t114.5 -15q68 0 118.5 13t94.5 46t67 98.5t23 162.5v503q0 165 -74.5 243.5t-224.5 78.5q-176 0 -250 -81t-74 -249v-534zM436.5 1935.5q2.5 14.5 42.5 14.5h144q17 0 28.5 -6t16.5 -12t18 -25l186 -262q39 -54 -10 -54h-80q-32 0 -65 37l-254 264 q-29 29 -26.5 43.5z" />
<glyph unicode="&#xd3;" horiz-adv-x="1415" d="M152 403v605q0 272 134.5 393t420.5 121q557 0 557 -508v-547q0 -78 -13.5 -143.5t-35 -113t-55.5 -85.5t-67.5 -62t-78 -42t-80 -27t-81.5 -14t-74 -6t-66 -1q-50 0 -95.5 3.5t-104 14.5t-107 29t-97 51t-82 77t-54.5 109.5t-21 145.5zM393 457q0 -75 28 -131.5 t75.5 -88t102 -46.5t114.5 -15q68 0 118.5 13t94.5 46t67 98.5t23 162.5v503q0 165 -74.5 243.5t-224.5 78.5q-176 0 -250 -81t-74 -249v-534zM582 1645l188 262q21 31 31 36q11 7 30 7h144q28 0 38 -6.5t4.5 -19t-24.5 -32.5l-254 -264q-33 -37 -65 -37h-80q-48 0 -12 54z " />
<glyph unicode="&#xd4;" horiz-adv-x="1415" d="M152 403v605q0 272 134.5 393t420.5 121q557 0 557 -508v-547q0 -78 -13.5 -143.5t-35 -113t-55.5 -85.5t-67.5 -62t-78 -42t-80 -27t-81.5 -14t-74 -6t-66 -1q-50 0 -95.5 3.5t-104 14.5t-107 29t-97 51t-82 77t-54.5 109.5t-21 145.5zM393 457q0 -75 28 -131.5 t75.5 -88t102 -46.5t114.5 -15q68 0 118.5 13t94.5 46t67 98.5t23 162.5v503q0 165 -74.5 243.5t-224.5 78.5q-176 0 -250 -81t-74 -249v-534zM432 1645l186 262q21 31 33 37q11 6 25 6h82q10 0 17.5 -2t14 -7.5t9.5 -8t10.5 -12.5t9.5 -13l187 -262q41 -54 -13 -54h-75 q-15 0 -21.5 1t-15 6.5t-17.5 17.5l-145 192l-146 -192q-14 -17 -24.5 -21t-28.5 -4h-78q-51 0 -10 54z" />
<glyph unicode="&#xd5;" horiz-adv-x="1415" d="M152 403v605q0 272 134.5 393t420.5 121q557 0 557 -508v-547q0 -78 -13.5 -143.5t-35 -113t-55.5 -85.5t-67.5 -62t-78 -42t-80 -27t-81.5 -14t-74 -6t-66 -1q-50 0 -95.5 3.5t-104 14.5t-107 29t-97 51t-82 77t-54.5 109.5t-21 145.5zM344 1722q31 72 91 133.5 t132 61.5q39 0 93 -29.5t105 -58.5t81 -29q74 0 121 84q10 22 28 12l82 -26q18 -8 8 -31q-102 -205 -243 -205q-40 0 -90.5 28t-98 56.5t-78.5 28.5q-32 0 -65 -23.5t-51 -54.5q-12 -22 -31 -12l-76 39q-17 8 -8 26zM393 457q0 -75 28 -131.5t75.5 -88t102 -46.5t114.5 -15 q68 0 118.5 13t94.5 46t67 98.5t23 162.5v503q0 165 -74.5 243.5t-224.5 78.5q-176 0 -250 -81t-74 -249v-534z" />
<glyph unicode="&#xd6;" horiz-adv-x="1415" d="M152 403v605q0 272 134.5 393t420.5 121q557 0 557 -508v-547q0 -78 -13.5 -143.5t-35 -113t-55.5 -85.5t-67.5 -62t-78 -42t-80 -27t-81.5 -14t-74 -6t-66 -1q-50 0 -95.5 3.5t-104 14.5t-107 29t-97 51t-82 77t-54.5 109.5t-21 145.5zM375 1694v131q0 29 8.5 43 t36.5 14h131q53 0 53 -57v-121q0 -51 -47 -51h-127q-35 0 -45 8t-10 33zM393 457q0 -75 28 -131.5t75.5 -88t102 -46.5t114.5 -15q68 0 118.5 13t94.5 46t67 98.5t23 162.5v503q0 165 -74.5 243.5t-224.5 78.5q-176 0 -250 -81t-74 -249v-534zM815 1710v121q0 51 45 51h127 q37 0 47 -9.5t10 -37.5v-127q0 -27 -9 -41t-36 -14h-118q-39 0 -52.5 14.5t-13.5 42.5z" />
<glyph unicode="&#xd7;" d="M16 147v1156h1457v-1156h-1457zM176 380q0 -7 2 -9t8 -2h72q13 0 17.5 4.5t9.5 21.5l45 154h243l48 -154q3 -18 6 -22t16 -4h80q12 0 15.5 1t7.5 8t-3 23l-204 670q-5 19 -12 26t-25 7h-82q-16 0 -23 -7t-14 -26l-203 -670q-4 -14 -4 -21zM352 625l101 336l96 -336h-197z M724.5 1093.5q-3.5 -7.5 2.5 -22.5l207 -678q6 -24 31 -24h92q14 0 19.5 4.5t8.5 17.5l211 690q8 23 -22 23h-64q-3 0 -5 -0.5t-4 -1.5t-3 -2t-2.5 -4t-2 -5t-2.5 -6.5t-3 -7.5l-168 -565l-170 565q-4 13 -5.5 16.5t-6 7t-13.5 3.5h-77q-10 0 -15 -1.5t-8.5 -9z" />
<glyph unicode="&#xd8;" horiz-adv-x="1415" d="M65.5 25.5q5.5 14.5 26.5 40.5l103 137q-43 84 -43 200v605q0 272 134.5 393t420.5 121q249 0 387 -103l26 37q26 36 43 46.5t54 10.5h94q13 0 19 -2.5t4 -10.5t-8.5 -18.5t-20.5 -29.5q-50 -67 -109 -147q68 -117 68 -291v-547q0 -78 -13.5 -143.5t-35 -113t-55.5 -85.5 t-67.5 -62t-78 -42t-80 -27t-81.5 -14t-74 -6t-66 -1q-277 0 -422 111q1 0 -4 -7t-10 -13l-5 -7q-29 -37 -44 -47t-40 -10h-90q-22 0 -30 5.5t-2.5 20zM393 473l559 756q-72 92 -235 92q-176 0 -250 -81t-74 -249v-518zM444 289q43 -58 115 -85.5t154 -27.5q68 0 118.5 13 t94.5 46t67 98.5t23 162.5v503q0 40 -2 58q0 1 -142.5 -191t-285.5 -384z" />
<glyph unicode="&#xd9;" horiz-adv-x="1368" d="M160 430v1016q0 29 7.5 40t27.5 13h155q27 0 39 -14.5t12 -52.5v-924q0 -155 76.5 -242.5t202.5 -87.5q83 0 139.5 22.5t87.5 68.5t43.5 104t12.5 139v934q0 29 7 40.5t27 12.5h160q27 0 39 -14.5t12 -52.5v-967q0 -492 -528 -492q-74 0 -143 13t-139 46t-121.5 83 t-84 131t-32.5 184zM428.5 1935.5q2.5 14.5 42.5 14.5h143q17 0 28.5 -5.5t17.5 -12.5t18 -25l186 -262q39 -54 -10 -54h-80q-32 0 -65 37l-254 264q-29 29 -26.5 43.5z" />
<glyph unicode="&#xda;" horiz-adv-x="1368" d="M160 430v1016q0 29 7.5 40t27.5 13h155q27 0 39 -14.5t12 -52.5v-924q0 -155 76.5 -242.5t202.5 -87.5q83 0 139.5 22.5t87.5 68.5t43.5 104t12.5 139v934q0 29 7 40.5t27 12.5h160q27 0 39 -14.5t12 -52.5v-967q0 -492 -528 -492q-74 0 -143 13t-139 46t-121.5 83 t-84 131t-32.5 184zM545 1645l188 262q22 31 33 37t29 6h143q28 0 38 -6.5t4.5 -19t-24.5 -32.5l-254 -264q-33 -37 -65 -37h-80q-48 0 -12 54z" />
<glyph unicode="&#xdb;" horiz-adv-x="1368" d="M160 430v1016q0 29 7.5 40t27.5 13h155q27 0 39 -14.5t12 -52.5v-924q0 -155 76.5 -242.5t202.5 -87.5q83 0 139.5 22.5t87.5 68.5t43.5 104t12.5 139v934q0 29 7 40.5t27 12.5h160q27 0 39 -14.5t12 -52.5v-967q0 -492 -528 -492q-74 0 -143 13t-139 46t-121.5 83 t-84 131t-32.5 184zM395 1645l187 262q1 1 6.5 9t6.5 9.5t6 7.5t8 7.5t8 4.5t10.5 4t11.5 1h82q10 0 17.5 -2t14 -7.5t9.5 -8t10.5 -12.5t9.5 -13l187 -262q41 -54 -13 -54h-75q-21 0 -31.5 4t-22.5 21l-145 192l-145 -192q-14 -17 -25 -21t-29 -4h-77q-52 0 -11 54z" />
<glyph unicode="&#xdc;" horiz-adv-x="1368" d="M160 430v1016q0 29 7.5 40t27.5 13h155q27 0 39 -14.5t12 -52.5v-924q0 -155 76.5 -242.5t202.5 -87.5q83 0 139.5 22.5t87.5 68.5t43.5 104t12.5 139v934q0 29 7 40.5t27 12.5h160q27 0 39 -14.5t12 -52.5v-967q0 -492 -528 -492q-74 0 -143 13t-139 46t-121.5 83 t-84 131t-32.5 184zM352 1694v131q0 29 8.5 43t36.5 14h131q54 0 54 -57v-121q0 -51 -47 -51h-127q-35 0 -45.5 8t-10.5 33zM793 1710v121q0 51 45 51h127q37 0 47 -9.5t10 -37.5v-127q0 -27 -9 -41t-36 -14h-119q-39 0 -52 14t-13 43z" />
<glyph unicode="&#xdd;" horiz-adv-x="1288" d="M59 1492.5q7 6.5 35 6.5h178q21 0 32 -8t26 -35l338 -629l333 631q2 3 5.5 9t5 8t4.5 6.5t5 5.5t5.5 4t6.5 4t7.5 2t10 1.5t12.5 0.5h127q34 0 40 -9.5t-13 -43.5q-28 -52 -74.5 -138t-145 -268t-163.5 -303t-64 -121v-571q0 -26 -10 -35.5t-37 -9.5h-162q-23 0 -31 8.5 t-8 32.5v577l-456 840q-14 28 -7 34.5zM600 1645l188 262q22 31 33 37t29 6h143q41 0 44.5 -14.5t-25.5 -43.5l-254 -264q-33 -37 -66 -37h-80q-48 0 -12 54z" />
<glyph unicode="&#xde;" horiz-adv-x="1298" d="M164 57v1397q0 29 10.5 37t44.5 8h152q27 0 34 -11t7 -46v-148q0 -15 1.5 -21.5t11.5 -12t30 -5.5h196q561 0 561 -475q0 -238 -133.5 -362.5t-398.5 -124.5h-234q-21 0 -26.5 -7t-5.5 -34v-205q0 -27 -9 -37t-36 -10h-158q-28 0 -37.5 11.5t-9.5 45.5zM414 526 q0 -25 7.5 -32t33.5 -7h247q117 0 188 75t71 229q0 141 -89.5 209.5t-230.5 68.5h-190q-37 -2 -37 -37v-506z" />
<glyph unicode="&#xdf;" horiz-adv-x="1454" d="M84 956v70q0 43 33 43h110v135q0 58 21.5 112t66 101.5t125.5 76t187 28.5q178 0 283.5 -79.5t105.5 -228.5q0 -44 -14.5 -84t-35.5 -70.5t-42 -60t-35.5 -64.5t-14.5 -73q0 -51 50 -97t139 -93q72 -38 125 -75t97.5 -83.5t67.5 -103t23 -121.5q0 -82 -35 -144.5t-93 -98 t-124.5 -52.5t-138.5 -17q-222 0 -340 66q-14 7 -10 72q5 76 30 84q4 2 9 0q4 -1 34 -13t51.5 -18.5t69 -13.5t103.5 -7q100 0 154.5 38.5t54.5 109.5q0 57 -52.5 109.5t-154.5 107.5q-57 30 -91.5 50t-78.5 52.5t-67.5 62.5t-40.5 72.5t-17 90.5q0 37 16.5 75t39.5 70 l46 64t39.5 70t16.5 75q0 77 -46.5 118.5t-119.5 41.5q-76 0 -118 -52.5t-42 -132.5v-1101q0 -68 -47 -68h-131q-57 0 -57 53v860h-107q-27 0 -36 9t-9 34z" />
<glyph unicode="&#xe0;" horiz-adv-x="1165" d="M104 545q0 274 94 429.5t269 155.5q240 0 336 -169v90q0 51 37 51h131q40 0 49.5 -13t9.5 -49v-960q0 -44 -9 -62t-40 -18h-129q-26 0 -37.5 11t-11.5 48v86q-32 -69 -125 -118.5t-207 -49.5q-78 0 -142.5 32t-116 98t-80 178t-28.5 260zM332 1567q3 14 43 14h143 q17 0 28.5 -5.5t17.5 -12.5t18 -25l186 -262q39 -53 -10 -53h-80q-33 0 -66 37l-254 264q-29 29 -26 43zM346 463q0 -154 56 -242t163 -88q49 0 92.5 24t70.5 58.5t42.5 68t15.5 56.5v375q0 29 -7.5 62t-25 68.5t-43 64t-64.5 47t-85 18.5q-107 0 -161 -81.5t-54 -258.5 v-172z" />
<glyph unicode="&#xe1;" horiz-adv-x="1165" d="M104 545q0 274 94 429.5t269 155.5q240 0 336 -169v90q0 51 37 51h131q40 0 49.5 -13t9.5 -49v-960q0 -44 -9 -62t-40 -18h-129q-26 0 -37.5 11t-11.5 48v86q-32 -69 -125 -118.5t-207 -49.5q-78 0 -142.5 32t-116 98t-80 178t-28.5 260zM346 463q0 -154 56 -242t163 -88 q49 0 92.5 24t70.5 58.5t42.5 68t15.5 56.5v375q0 29 -7.5 62t-25 68.5t-43 64t-64.5 47t-85 18.5q-107 0 -161 -81.5t-54 -258.5v-172zM477 1276l189 262q21 31 31 36q11 7 30 7h143q41 0 44.5 -14t-25.5 -43l-254 -264q-33 -37 -66 -37h-80q-48 0 -12 53z" />
<glyph unicode="&#xe2;" horiz-adv-x="1165" d="M104 545q0 274 94 429.5t269 155.5q240 0 336 -169v90q0 51 37 51h131q40 0 49.5 -13t9.5 -49v-960q0 -44 -9 -62t-40 -18h-129q-26 0 -37.5 11t-11.5 48v86q-32 -69 -125 -118.5t-207 -49.5q-78 0 -142.5 32t-116 98t-80 178t-28.5 260zM324 1276l186 262q1 1 6.5 9 t6.5 9.5t6 7.5t8 7.5t8 4.5t10.5 4t11.5 1h82q10 0 17.5 -1.5t15 -7.5t9.5 -8t10.5 -13.5t9.5 -12.5l186 -262q40 -53 -12 -53h-76q-16 0 -22 0.5t-14 6t-17 17.5l-146 193l-145 -193q-9 -12 -18.5 -17.5t-15.5 -6t-19 -0.5h-78q-50 0 -10 53zM346 463q0 -154 56 -242 t163 -88q49 0 92.5 24t70.5 58.5t42.5 68t15.5 56.5v375q0 29 -7.5 62t-25 68.5t-43 64t-64.5 47t-85 18.5q-107 0 -161 -81.5t-54 -258.5v-172z" />
<glyph unicode="&#xe3;" horiz-adv-x="1165" d="M104 545q0 274 94 429.5t269 155.5q240 0 336 -169v90q0 51 37 51h131q40 0 49.5 -13t9.5 -49v-960q0 -44 -9 -62t-40 -18h-129q-26 0 -37.5 11t-11.5 48v86q-32 -69 -125 -118.5t-207 -49.5q-78 0 -142.5 32t-116 98t-80 178t-28.5 260zM223 1354q31 72 91 133t132 61 q39 0 93 -29t105 -58t81 -29q74 0 121 84q10 22 28 12l82 -27q19 -8 9 -31q-101 -204 -244 -204q-40 0 -90.5 28t-97.5 56t-78 28q-32 0 -65.5 -23.5t-51.5 -54.5q-12 -22 -31 -12l-76 39q-17 9 -8 27zM346 463q0 -154 56 -242t163 -88q49 0 92.5 24t70.5 58.5t42.5 68 t15.5 56.5v375q0 29 -7.5 62t-25 68.5t-43 64t-64.5 47t-85 18.5q-107 0 -161 -81.5t-54 -258.5v-172z" />
<glyph unicode="&#xe4;" horiz-adv-x="1165" d="M104 545q0 274 94 429.5t269 155.5q240 0 336 -169v90q0 51 37 51h131q40 0 49.5 -13t9.5 -49v-960q0 -44 -9 -62t-40 -18h-129q-26 0 -37.5 11t-11.5 48v86q-32 -69 -125 -118.5t-207 -49.5q-78 0 -142.5 32t-116 98t-80 178t-28.5 260zM258 1325v131q0 29 8.5 43 t36.5 14h131q53 0 53 -57v-121q0 -51 -47 -51h-127q-35 0 -45 8t-10 33zM346 463q0 -154 56 -242t163 -88q49 0 92.5 24t70.5 58.5t42.5 68t15.5 56.5v375q0 29 -7.5 62t-25 68.5t-43 64t-64.5 47t-85 18.5q-107 0 -161 -81.5t-54 -258.5v-172zM698 1341v121q0 51 45 51h127 q37 0 47.5 -9.5t10.5 -37.5v-127q0 -27 -9 -41t-36 -14h-119q-39 0 -52.5 14.5t-13.5 42.5z" />
<glyph unicode="&#xe5;" horiz-adv-x="1165" d="M104 545q0 274 94 429.5t269 155.5q240 0 336 -169v90q0 51 37 51h131q40 0 49.5 -13t9.5 -49v-960q0 -44 -9 -62t-40 -18h-129q-26 0 -37.5 11t-11.5 48v86q-32 -69 -125 -118.5t-207 -49.5q-78 0 -142.5 32t-116 98t-80 178t-28.5 260zM346 463q0 -154 56 -242t163 -88 q49 0 92.5 24t70.5 58.5t42.5 68t15.5 56.5v375q0 29 -7.5 62t-25 68.5t-43 64t-64.5 47t-85 18.5q-107 0 -161 -81.5t-54 -258.5v-172zM362 1450q0 98 72.5 168t171.5 70q100 0 173 -70t73 -168t-73 -168t-173 -70q-99 0 -171.5 70t-72.5 168zM481 1450q0 -52 35.5 -92.5 t89.5 -40.5q53 0 90 41t37 92q0 52 -36.5 92.5t-90.5 40.5q-52 0 -88.5 -41t-36.5 -92z" />
<glyph unicode="&#xe6;" horiz-adv-x="1818" d="M104 545q0 274 94 429.5t269 155.5q240 0 336 -169v90q0 51 37 51h110q30 0 42.5 -6.5t15.5 -22.5q102 57 252 57q216 0 333 -109.5t117 -322.5v-123q0 -49 -15.5 -68.5t-68.5 -19.5h-608q0 -337 309 -337q164 0 303 45q28 10 43 4.5t15 -23.5v-102q0 -27 -13.5 -38 t-54.5 -24q-27 -9 -124.5 -22t-178.5 -13q-187 0 -309 64q-3 -22 -13 -31.5t-34 -9.5h-109q-26 0 -37.5 11t-11.5 48v86q-32 -69 -125 -118.5t-207 -49.5q-78 0 -142.5 32t-116 98t-80 178t-28.5 260zM346 463q0 -154 56 -242t163 -88q49 0 92.5 24t70.5 58.5t42.5 68 t15.5 56.5v375q0 29 -7.5 62t-25 68.5t-43 64t-64.5 47t-85 18.5q-107 0 -161 -81.5t-54 -258.5v-172zM1024 669q0 -15 1 -21t7 -10.5t19 -4.5h413q14 0 18.5 8t4.5 31q-3 157 -56.5 234t-175.5 77q-116 0 -172.5 -86t-58.5 -223v-5z" />
<glyph unicode="&#xe7;" horiz-adv-x="1050" d="M102 545q0 585 514 585q133 0 224.5 -36.5t150.5 -116.5q13 -19 -25 -56t-84.5 -59t-56.5 -4q-71 115 -211 115q-119 0 -190.5 -81.5t-71.5 -242.5v-200q0 -159 72.5 -236.5t189.5 -77.5q66 0 119.5 35t89.5 94q8 17 37.5 12t61 -19t54.5 -34t17 -33q-108 -199 -354 -213 v-61q78 0 125 -41.5t47 -118.5q0 -83 -67 -128.5t-173 -45.5q-64 0 -103 16t-73 56q-11 12 2 33t32.5 33.5t25.5 3.5q31 -43 108 -43q117 0 117 75q0 44 -26 61t-79 17q-14 0 -34 -4q-11 -2 -16 -1t-5 11v142q-102 9 -177 42.5t-130.5 99t-83 170.5t-27.5 251z" />
<glyph unicode="&#xe8;" horiz-adv-x="1136" d="M104 541q0 293 121 441t355 148q214 0 332 -113.5t118 -318.5v-127q0 -49 -15.5 -68.5t-68.5 -19.5h-608q0 -333 309 -333q164 0 303 45q28 10 43 4.5t15 -23.5v-102q0 -27 -13.5 -38t-54.5 -24q-27 -9 -124.5 -22t-178.5 -13q-270 0 -401.5 133t-131.5 431zM305.5 1567 q2.5 14 42.5 14h144q17 0 28.5 -6t16.5 -12t18 -25l186 -262q39 -53 -10 -53h-80q-32 0 -65 37l-254 264q-29 29 -26.5 43zM344 675q0 -15 1 -21t7 -10.5t19 -4.5h413q14 0 18.5 8t4.5 31q-3 154 -56.5 229.5t-175.5 75.5q-116 0 -172.5 -84.5t-58.5 -218.5v-5z" />
<glyph unicode="&#xe9;" horiz-adv-x="1136" d="M104 541q0 293 121 441t355 148q214 0 332 -113.5t118 -318.5v-127q0 -49 -15.5 -68.5t-68.5 -19.5h-608q0 -333 309 -333q164 0 303 45q28 10 43 4.5t15 -23.5v-102q0 -27 -13.5 -38t-54.5 -24q-27 -9 -124.5 -22t-178.5 -13q-270 0 -401.5 133t-131.5 431zM344 675 q0 -15 1 -21t7 -10.5t19 -4.5h413q14 0 18.5 8t4.5 31q-3 154 -56.5 229.5t-175.5 75.5q-116 0 -172.5 -84.5t-58.5 -218.5v-5zM444 1276l189 262q21 31 31 36q11 7 30 7h144q28 0 38 -6.5t4.5 -18.5t-24.5 -32l-254 -264q-33 -37 -65 -37h-80q-49 0 -13 53z" />
<glyph unicode="&#xea;" horiz-adv-x="1136" d="M104 541q0 293 121 441t355 148q214 0 332 -113.5t118 -318.5v-127q0 -49 -15.5 -68.5t-68.5 -19.5h-608q0 -333 309 -333q164 0 303 45q28 10 43 4.5t15 -23.5v-102q0 -27 -13.5 -38t-54.5 -24q-27 -9 -124.5 -22t-178.5 -13q-270 0 -401.5 133t-131.5 431zM303 1276 l186 262q21 31 33 37q11 6 25 6h82q10 0 17.5 -2t14 -7.5t9.5 -8t10.5 -12.5t9.5 -13l187 -262q40 -53 -13 -53h-76q-16 0 -22 0.5t-14 6t-17 17.5l-145 193l-146 -193q-9 -12 -18.5 -17.5t-15.5 -6t-19 -0.5h-78q-50 0 -10 53zM344 675q0 -15 1 -21t7 -10.5t19 -4.5h413 q14 0 18.5 8t4.5 31q-3 154 -56.5 229.5t-175.5 75.5q-116 0 -172.5 -84.5t-58.5 -218.5v-5z" />
<glyph unicode="&#xeb;" horiz-adv-x="1136" d="M104 541q0 293 121 441t355 148q214 0 332 -113.5t118 -318.5v-127q0 -49 -15.5 -68.5t-68.5 -19.5h-608q0 -333 309 -333q164 0 303 45q28 10 43 4.5t15 -23.5v-102q0 -27 -13.5 -38t-54.5 -24q-27 -9 -124.5 -22t-178.5 -13q-270 0 -401.5 133t-131.5 431zM252 1325 v131q0 29 8.5 43t36.5 14h131q53 0 53 -57v-121q0 -51 -47 -51h-127q-35 0 -45 8t-10 33zM344 675q0 -15 1 -21t7 -10.5t19 -4.5h413q14 0 18.5 8t4.5 31q-3 154 -56.5 229.5t-175.5 75.5q-116 0 -172.5 -84.5t-58.5 -218.5v-5zM692 1341v121q0 51 45 51h127q37 0 47.5 -9.5 t10.5 -37.5v-127q0 -27 -9 -41t-36 -14h-119q-39 0 -52.5 14.5t-13.5 42.5z" />
<glyph unicode="&#xec;" horiz-adv-x="497" d="M-110.5 1567q2.5 14 42.5 14h144q17 0 28.5 -6t16.5 -12t18 -25l187 -262q39 -53 -11 -53h-79q-33 0 -66 37l-254 264q-29 29 -26.5 43zM135 72v968q0 33 10 47.5t39 14.5h129q34 0 41.5 -12t7.5 -50v-968q0 -31 -2 -43.5t-10.5 -20.5t-27.5 -8h-144q-27 0 -35 15t-8 57z " />
<glyph unicode="&#xed;" horiz-adv-x="497" d="M135 72v968q0 33 10 47.5t39 14.5h129q34 0 41.5 -12t7.5 -50v-968q0 -31 -2 -43.5t-10.5 -20.5t-27.5 -8h-144q-27 0 -35 15t-8 57zM176 1276l189 262q21 31 31 36q12 7 30 7h143q41 0 44.5 -14t-25.5 -43l-254 -264q-33 -37 -66 -37h-80q-48 0 -12 53z" />
<glyph unicode="&#xee;" horiz-adv-x="497" d="M-35 1276l187 262q1 1 6.5 9t6.5 9.5t6 7.5t8 7.5t8 4.5t10.5 4t11.5 1h82q10 0 17.5 -2t14 -7.5t9.5 -8t10.5 -12.5t9.5 -13l187 -262q40 -53 -13 -53h-75q-16 0 -22 0.5t-14.5 6t-17.5 17.5l-145 193l-146 -193q-9 -12 -18.5 -17.5t-15.5 -6t-19 -0.5h-78q-50 0 -10 53 zM135 72v968q0 33 10 47.5t39 14.5h129q34 0 41.5 -12t7.5 -50v-968q0 -31 -2 -43.5t-10.5 -20.5t-27.5 -8h-144q-27 0 -35 15t-8 57z" />
<glyph unicode="&#xef;" horiz-adv-x="497" d="M-88 1325v131q0 29 8.5 43t36.5 14h131q53 0 53 -57v-121q0 -51 -47 -51h-127q-35 0 -45 8t-10 33zM135 72v968q0 33 10 47.5t39 14.5h129q34 0 41.5 -12t7.5 -50v-968q0 -31 -2 -43.5t-10.5 -20.5t-27.5 -8h-144q-27 0 -35 15t-8 57zM352 1341v121q0 51 45 51h127 q37 0 47.5 -9.5t10.5 -37.5v-127q0 -27 -9 -41t-36 -14h-119q-39 0 -52.5 14.5t-13.5 42.5z" />
<glyph unicode="&#xf0;" horiz-adv-x="1198" d="M104 545q0 279 136.5 422t375.5 143q60 0 120.5 -21t97.5 -59q-52 121 -150 234l-66 -66q-21 -21 -29.5 -22t-23.5 14l-65 65q-13 14 -9.5 22t25.5 29q5 4 8 7l56 57q-39 36 -78 62q-45 33 -13 65l86 100q4 4 8.5 6t9 1t8.5 -2t9.5 -5.5t8.5 -7t8.5 -7.5t7.5 -7 q28 -22 80 -70l47 47q30 28 39 32.5t20 -5.5l70 -72q7 -7 9 -12t-2.5 -13.5t-10.5 -15t-23 -24.5l-45 -43q147 -167 211 -366t64 -486q0 -274 -128.5 -422t-359.5 -148q-124 0 -213 28t-156 92t-100 175.5t-33 272.5zM348 449q0 -159 72.5 -236.5t189.5 -77.5q116 0 183 92 t67 246v186q0 142 -59 217.5t-193 75.5q-115 0 -187.5 -80.5t-72.5 -222.5v-200z" />
<glyph unicode="&#xf1;" horiz-adv-x="1150" d="M135 76v962q0 33 10 48.5t39 15.5h131q27 0 38.5 -29.5t11.5 -99.5q112 153 325 153q68 0 124.5 -18.5t102.5 -58.5t71.5 -110t25.5 -165v-680q0 -53 -9 -73.5t-36 -20.5h-133q-54 0 -54 74v651q0 90 -46.5 146.5t-145.5 56.5q-74 0 -128 -38.5t-77 -90t-23 -105.5v-616 q0 -31 -1.5 -45t-10.5 -23.5t-28 -9.5h-129q-33 0 -45.5 17.5t-12.5 58.5zM213 1354q31 72 91 133t132 61q39 0 93 -29t105 -58t81 -29q74 0 121 84q10 22 28 12l82 -27q18 -8 8 -31q-101 -204 -243 -204q-40 0 -90.5 28t-98 56t-78.5 28q-32 0 -65 -23.5t-51 -54.5 q-12 -22 -31 -12l-76 39q-17 9 -8 27z" />
<glyph unicode="&#xf2;" horiz-adv-x="1198" d="M104 545q0 585 512 585q235 0 356.5 -138.5t121.5 -444.5q0 -274 -128.5 -422t-359.5 -148q-124 0 -213 28t-156 92t-100 175.5t-33 272.5zM342.5 1567q2.5 14 42.5 14h143q17 0 28.5 -5.5t17.5 -12.5t18 -25l186 -262q39 -53 -10 -53h-80q-32 0 -65 37l-254 264 q-29 29 -26.5 43zM348 449q0 -159 72.5 -236.5t189.5 -77.5q116 0 183 92t67 246v186q0 145 -60 229.5t-192 84.5q-118 0 -189 -81.5t-71 -242.5v-200z" />
<glyph unicode="&#xf3;" horiz-adv-x="1198" d="M104 545q0 585 512 585q235 0 356.5 -138.5t121.5 -444.5q0 -274 -128.5 -422t-359.5 -148q-124 0 -213 28t-156 92t-100 175.5t-33 272.5zM348 449q0 -159 72.5 -236.5t189.5 -77.5q116 0 183 92t67 246v186q0 145 -60 229.5t-192 84.5q-118 0 -189 -81.5t-71 -242.5 v-200zM475 1276l189 262q21 31 31 36q11 7 30 7h143q41 0 44.5 -14t-25.5 -43l-254 -264q-33 -37 -66 -37h-80q-48 0 -12 53z" />
<glyph unicode="&#xf4;" horiz-adv-x="1198" d="M104 545q0 585 512 585q235 0 356.5 -138.5t121.5 -444.5q0 -274 -128.5 -422t-359.5 -148q-124 0 -213 28t-156 92t-100 175.5t-33 272.5zM328 1276l186 262q1 1 6.5 9t6.5 9.5t6 7.5t8 7.5t8 4.5t10.5 4t11.5 1h82q10 0 17.5 -1.5t15 -7.5t9.5 -8t10.5 -13.5t9.5 -12.5 l186 -262q40 -53 -12 -53h-76q-16 0 -22 0.5t-14 6t-17 17.5l-146 193l-145 -193q-9 -12 -18.5 -17.5t-15.5 -6t-19 -0.5h-78q-50 0 -10 53zM348 449q0 -159 72.5 -236.5t189.5 -77.5q116 0 183 92t67 246v186q0 145 -60 229.5t-192 84.5q-118 0 -189 -81.5t-71 -242.5v-200 z" />
<glyph unicode="&#xf5;" horiz-adv-x="1198" d="M104 545q0 585 512 585q235 0 356.5 -138.5t121.5 -444.5q0 -274 -128.5 -422t-359.5 -148q-124 0 -213 28t-156 92t-100 175.5t-33 272.5zM238 1354q31 72 91 133t132 61q39 0 93 -29t104.5 -58t80.5 -29q74 0 121 84q10 23 29 12l82 -27q18 -8 8 -31 q-101 -204 -244 -204q-40 0 -90.5 28t-97.5 56t-78 28q-32 0 -65.5 -23.5t-51.5 -54.5q-12 -21 -30 -12l-76 39q-17 9 -8 27zM348 449q0 -159 72.5 -236.5t189.5 -77.5q116 0 183 92t67 246v186q0 145 -60 229.5t-192 84.5q-118 0 -189 -81.5t-71 -242.5v-200z" />
<glyph unicode="&#xf6;" horiz-adv-x="1198" d="M104 545q0 585 512 585q235 0 356.5 -138.5t121.5 -444.5q0 -274 -128.5 -422t-359.5 -148q-124 0 -213 28t-156 92t-100 175.5t-33 272.5zM276 1325v131q0 29 9 43t37 14h131q53 0 53 -57v-121q0 -51 -47 -51h-127q-35 0 -45.5 8t-10.5 33zM348 449q0 -159 72.5 -236.5 t189.5 -77.5q116 0 183 92t67 246v186q0 145 -60 229.5t-192 84.5q-118 0 -189 -81.5t-71 -242.5v-200zM717 1341v121q0 51 45 51h127q37 0 47 -9.5t10 -37.5v-127q0 -27 -9 -41t-36 -14h-119q-39 0 -52 14t-13 43z" />
<glyph unicode="&#xf7;" d="M16 147v1156h1457v-1156h-1457zM176 380q0 -7 2 -9t8 -2h72q13 0 17.5 4.5t9.5 21.5l45 154h243l48 -154q3 -18 6 -22t16 -4h80q12 0 15.5 1t7.5 8t-3 23l-204 670q-5 19 -12 26t-25 7h-82q-16 0 -23 -7t-14 -26l-203 -670q-4 -14 -4 -21zM352 625l101 336l96 -336h-197z M724.5 1093.5q-3.5 -7.5 2.5 -22.5l207 -678q6 -24 31 -24h92q14 0 19.5 4.5t8.5 17.5l211 690q8 23 -22 23h-64q-3 0 -5 -0.5t-4 -1.5t-3 -2t-2.5 -4t-2 -5t-2.5 -6.5t-3 -7.5l-168 -565l-170 565q-4 13 -5.5 16.5t-6 7t-13.5 3.5h-77q-10 0 -15 -1.5t-8.5 -9z" />
<glyph unicode="&#xf8;" horiz-adv-x="1198" d="M100.5 13q-2.5 13 28.5 53l66 84q-91 136 -91 395q0 585 512 585q170 0 279 -69l14 18q26 36 43.5 47t53.5 11h94q23 0 24 -11q1 -12 -30 -51l-95 -121q95 -143 95 -407q0 -274 -128.5 -422t-359.5 -148q-191 0 -305 70q-23 -30 -36.5 -38.5t-37.5 -8.5h-90 q-34 0 -36.5 13zM348 449q0 -47 6 -91l426 553q-62 62 -172 62q-118 0 -189 -81.5t-71 -242.5v-200zM424 209q68 -74 186 -74q116 0 183 92t67 246v186q0 59 -8 103q-426 -553 -428 -553z" />
<glyph unicode="&#xf9;" horiz-adv-x="1150" d="M135 328v702q0 39 10 55.5t37 16.5h133q54 0 54 -74v-651q0 -91 45.5 -147t144.5 -56q72 0 126.5 38.5t78.5 90.5t24 105v616q0 45 7 61.5t34 16.5h129q33 0 44.5 -17.5t11.5 -58.5v-963q0 -34 -9 -48.5t-38 -14.5h-131q-27 0 -38.5 28.5t-11.5 98.5q-68 -78 -144 -112.5 t-183 -34.5q-64 0 -119.5 19.5t-102.5 59t-74.5 108.5t-27.5 161zM291 1567q3 14 43 14h143q17 0 28.5 -5.5t17.5 -12.5t18 -25l186 -262q39 -53 -10 -53h-80q-33 0 -66 37l-254 264q-29 29 -26 43z" />
<glyph unicode="&#xfa;" horiz-adv-x="1150" d="M135 328v702q0 39 10 55.5t37 16.5h133q54 0 54 -74v-651q0 -91 45.5 -147t144.5 -56q72 0 126.5 38.5t78.5 90.5t24 105v616q0 45 7 61.5t34 16.5h129q33 0 44.5 -17.5t11.5 -58.5v-963q0 -34 -9 -48.5t-38 -14.5h-131q-27 0 -38.5 28.5t-11.5 98.5q-68 -78 -144 -112.5 t-183 -34.5q-64 0 -119.5 19.5t-102.5 59t-74.5 108.5t-27.5 161zM459 1276l188 262q22 31 33 37t29 6h143q28 0 38 -6.5t4.5 -18.5t-24.5 -32l-254 -264q-33 -37 -65 -37h-80q-48 0 -12 53z" />
<glyph unicode="&#xfb;" horiz-adv-x="1150" d="M135 328v702q0 39 10 55.5t37 16.5h133q54 0 54 -74v-651q0 -91 45.5 -147t144.5 -56q72 0 126.5 38.5t78.5 90.5t24 105v616q0 45 7 61.5t34 16.5h129q33 0 44.5 -17.5t11.5 -58.5v-963q0 -34 -9 -48.5t-38 -14.5h-131q-27 0 -38.5 28.5t-11.5 98.5q-68 -78 -144 -112.5 t-183 -34.5q-64 0 -119.5 19.5t-102.5 59t-74.5 108.5t-27.5 161zM291 1276l186 262q21 31 33 37q11 6 25 6h81q10 0 17.5 -1.5t15 -7.5t9.5 -8t10.5 -13.5t9.5 -12.5l186 -262q40 -53 -12 -53h-76q-16 0 -22 0.5t-14 6t-17 17.5l-145 193l-146 -193q-9 -12 -18.5 -17.5 t-15.5 -6t-19 -0.5h-78q-50 0 -10 53z" />
<glyph unicode="&#xfc;" horiz-adv-x="1150" d="M135 328v702q0 39 10 55.5t37 16.5h133q54 0 54 -74v-651q0 -91 45.5 -147t144.5 -56q72 0 126.5 38.5t78.5 90.5t24 105v616q0 45 7 61.5t34 16.5h129q33 0 44.5 -17.5t11.5 -58.5v-963q0 -34 -9 -48.5t-38 -14.5h-131q-27 0 -38.5 28.5t-11.5 98.5q-68 -78 -144 -112.5 t-183 -34.5q-64 0 -119.5 19.5t-102.5 59t-74.5 108.5t-27.5 161zM242 1325v131q0 29 8.5 43t36.5 14h131q53 0 53 -57v-121q0 -51 -47 -51h-127q-35 0 -45 8t-10 33zM682 1341v121q0 51 45 51h127q37 0 47 -9.5t10 -37.5v-127q0 -27 -9 -41t-36 -14h-118q-39 0 -52.5 14.5 t-13.5 42.5z" />
<glyph unicode="&#xfd;" horiz-adv-x="1083" d="M47 1057q-10 25 0.5 35t40.5 10h145q39 0 54 -49l264 -754l268 754q7 18 21.5 33.5t31.5 15.5h123q32 0 38 -11t-7 -42l-522 -1407q-12 -29 -27.5 -40.5t-40.5 -11.5h-108q-48 0 -31 48l129 362zM463 1276l188 262q22 31 33 37t29 6h143q28 0 38 -6.5t4.5 -18.5 t-24.5 -32l-253 -264q-33 -37 -66 -37h-80q-48 0 -12 53z" />
<glyph unicode="&#xfe;" horiz-adv-x="1169" d="M139 -360v1808q0 21 1 31.5t6 22t16.5 16t30.5 4.5h124q50 0 50 -58v-495q113 161 344 161q168 0 261 -155t93 -420q0 -300 -99 -439t-268 -139q-220 0 -331 138v-475q0 -38 -8 -53t-29 -15h-135q-35 0 -45.5 14t-10.5 54zM383 322q0 -53 64 -120t157 -67q108 0 163.5 85 t55.5 237v172q0 157 -57.5 251.5t-159.5 94.5q-57 0 -102 -25t-70 -64.5t-38 -82.5t-13 -84v-397z" />
<glyph unicode="&#xff;" horiz-adv-x="1083" d="M47 1057q-10 25 0.5 35t40.5 10h145q39 0 54 -49l264 -754l268 754q7 18 21.5 33.5t31.5 15.5h123q32 0 38 -11t-7 -42l-522 -1407q-12 -29 -27.5 -40.5t-40.5 -11.5h-108q-48 0 -31 48l129 362zM213 1325v131q0 29 8.5 43t36.5 14h131q53 0 53 -57v-121q0 -51 -47 -51 h-127q-35 0 -45 8t-10 33zM653 1341v121q0 51 45 51h127q37 0 47.5 -9.5t10.5 -37.5v-127q0 -27 -9 -41t-36 -14h-119q-39 0 -52.5 14.5t-13.5 42.5z" />
<glyph unicode="&#x152;" horiz-adv-x="1974" d="M152 403v605q0 272 134.5 393t420.5 121q87 0 170 -22t135 -60q0 32 8.5 45.5t28.5 13.5h741q37 0 46 -5.5t9 -27.5v-120q0 -12 -5.5 -19t-21 -10t-28 -3.5t-39.5 -0.5h-455q-53 0 -53 -33v-354q0 -28 9.5 -37.5t35.5 -9.5h406q41 0 52.5 -8t8.5 -29l-14 -115 q-2 -14 -9.5 -22.5t-23 -12t-25 -4t-29.5 -0.5h-9h-340q-32 0 -45 -10.5t-13 -36.5v-401q0 -17 3.5 -27t14 -13.5t17 -4t25.5 -0.5h495q42 0 59 -7.5t17 -31.5v-119q0 -37 -43 -37h-778q-25 0 -33 20.5t-8 57.5q-49 -54 -137.5 -79.5t-165.5 -25.5q-50 0 -95.5 3.5 t-104 14.5t-107 29t-97 51t-82 77t-54.5 109.5t-21 145.5zM393 457q0 -75 28 -131.5t75.5 -88t102 -46.5t114.5 -15q47 0 84.5 5.5t74 21t63.5 40.5t47 66.5t28 96.5v681q-36 234 -293 234q-176 0 -250 -81t-74 -249v-534z" />
<glyph unicode="&#x153;" horiz-adv-x="1886" d="M104 545q0 585 512 585q137 0 225.5 -46t135.5 -146q107 192 354 192q216 0 333.5 -109.5t117.5 -322.5v-123q0 -49 -15.5 -68.5t-68.5 -19.5h-627q0 -171 88 -254t240 -83q164 0 303 45q28 10 42.5 4.5t14.5 -23.5v-102q0 -27 -13 -38.5t-54 -23.5q-30 -10 -126 -22.5 t-177 -12.5q-153 0 -257.5 47t-158.5 160q-54 -101 -148 -154t-219 -53q-124 0 -213 28t-156 92t-100 175.5t-33 272.5zM348 449q0 -159 72.5 -236.5t189.5 -77.5q116 0 183 92t67 246v186q0 145 -60 229.5t-192 84.5q-118 0 -189 -81.5t-71 -242.5v-200zM1081 669 q0 -15 1 -21t7 -10.5t19 -4.5h428q14 0 18.5 8t4.5 31q-3 156 -57 233.5t-175 77.5q-117 0 -180 -87.5t-66 -221.5v-5z" />
<glyph unicode="&#x178;" horiz-adv-x="1288" d="M59 1492.5q7 6.5 35 6.5h178q21 0 32 -8t26 -35l338 -629l333 631q2 3 5.5 9t5 8t4.5 6.5t5 5.5t5.5 4t6.5 4t7.5 2t10 1.5t12.5 0.5h127q34 0 40 -9.5t-13 -43.5q-28 -52 -74.5 -138t-145 -268t-163.5 -303t-64 -121v-571q0 -26 -10 -35.5t-37 -9.5h-162q-23 0 -31 8.5 t-8 32.5v577l-456 840q-14 28 -7 34.5zM334 1694v131q0 29 8.5 43t36.5 14h131q53 0 53 -57v-121q0 -51 -47 -51h-127q-35 0 -45 8t-10 33zM774 1710v121q0 51 45 51h127q37 0 47.5 -9.5t10.5 -37.5v-127q0 -27 -9.5 -41t-36.5 -14h-118q-39 0 -52.5 14.5t-13.5 42.5z" />
<glyph unicode="&#x2c6;" horiz-adv-x="970" d="M213 1276l186 262q21 31 33 37q11 6 25 6h82q10 0 17.5 -2t14 -7.5t9.5 -8t10.5 -12.5t9.5 -13l186 -262q40 -53 -12 -53h-76q-16 0 -22 0.5t-14 6t-17 17.5l-145 193l-146 -193q-9 -12 -18.5 -17.5t-15.5 -6t-19 -0.5h-78q-50 0 -10 53z" />
<glyph unicode="&#x2dc;" horiz-adv-x="970" d="M121 1354q31 72 91 133t132 61q39 0 93 -29t105 -58t81 -29q73 0 120 84q10 23 29 12l82 -27q18 -8 8 -31q-101 -204 -244 -204q-40 0 -90.5 28t-97.5 56t-78 28q-32 0 -65 -23.5t-51 -54.5q-12 -22 -31 -12l-76 39q-17 9 -8 27z" />
<glyph unicode="&#x2000;" horiz-adv-x="1028" />
<glyph unicode="&#x2001;" horiz-adv-x="2056" />
<glyph unicode="&#x2002;" horiz-adv-x="1028" />
<glyph unicode="&#x2003;" horiz-adv-x="2056" />
<glyph unicode="&#x2004;" horiz-adv-x="685" />
<glyph unicode="&#x2005;" horiz-adv-x="514" />
<glyph unicode="&#x2006;" horiz-adv-x="342" />
<glyph unicode="&#x2007;" horiz-adv-x="342" />
<glyph unicode="&#x2008;" horiz-adv-x="257" />
<glyph unicode="&#x2009;" horiz-adv-x="411" />
<glyph unicode="&#x200a;" horiz-adv-x="114" />
<glyph unicode="&#x2010;" horiz-adv-x="1050" d="M164 569v101q0 34 11.5 40.5t51.5 6.5h588q20 0 29 -0.5t20.5 -2t15.5 -6t7.5 -11.5t3.5 -19v-100q0 -32 -14.5 -42t-61.5 -10h-594q-31 0 -44 9.5t-13 33.5z" />
<glyph unicode="&#x2011;" horiz-adv-x="1050" d="M164 569v101q0 34 11.5 40.5t51.5 6.5h588q20 0 29 -0.5t20.5 -2t15.5 -6t7.5 -11.5t3.5 -19v-100q0 -32 -14.5 -42t-61.5 -10h-594q-31 0 -44 9.5t-13 33.5z" />
<glyph unicode="&#x2012;" horiz-adv-x="1050" d="M164 569v101q0 34 11.5 40.5t51.5 6.5h588q20 0 29 -0.5t20.5 -2t15.5 -6t7.5 -11.5t3.5 -19v-100q0 -32 -14.5 -42t-61.5 -10h-594q-31 0 -44 9.5t-13 33.5z" />
<glyph unicode="&#x2013;" horiz-adv-x="1415" d="M106 569v101q0 34 11 40.5t51 6.5h1075q20 0 29 -0.5t20.5 -2t15.5 -6t7.5 -11.5t3.5 -19v-100q0 -32 -14.5 -42t-61.5 -10h-1081q-31 0 -43.5 9.5t-12.5 33.5z" />
<glyph unicode="&#x2014;" horiz-adv-x="2174" d="M106 569v101q0 34 11 40.5t51 6.5h1829q32 0 45 -1.5t23 -10t10 -27.5v-100q0 -32 -15 -42t-63 -10h-1835q-31 0 -43.5 9.5t-12.5 33.5z" />
<glyph unicode="&#x2018;" horiz-adv-x="509" d="M104 1128q25 117 96 217.5t165 165.5q26 19 52.5 0t16.5 -41q-34 -74 -60 -170.5t-30 -166.5q-2 -26 -10 -38t-29 -12h-155q-32 0 -41.5 11t-4.5 34z" />
<glyph unicode="&#x2019;" horiz-adv-x="509" d="M88 1122q34 74 60 171t30 167q2 26 10 37.5t29 11.5h156q32 0 41 -10.5t4 -34.5q-25 -117 -96 -218t-164 -165q-26 -19 -53 0t-17 41z" />
<glyph unicode="&#x201a;" horiz-adv-x="509" d="M80 -160q34 74 60 171t30 167q2 26 10 37.5t29 11.5h156q32 0 41 -10.5t4 -34.5q-25 -117 -96 -218t-164 -165q-26 -19 -53 0t-17 41z" />
<glyph unicode="&#x201c;" horiz-adv-x="905" d="M68 1128q25 117 96 218t164 165q26 19 52.5 0t16.5 -41q-34 -74 -60 -170.5t-30 -166.5q-2 -26 -10 -38t-29 -12h-155q-32 0 -41 10.5t-4 34.5zM467 1128q25 117 96 218t164 165q26 19 53 0t17 -41q-34 -74 -60 -170.5t-30 -166.5q-2 -26 -10 -38t-29 -12h-156 q-32 0 -41 10.5t-4 34.5z" />
<glyph unicode="&#x201d;" horiz-adv-x="905" d="M109 1122q34 74 60 171t30 167q2 26 10 37.5t29 11.5h155q32 0 41 -10.5t4 -34.5q-25 -117 -96 -218t-164 -165q-26 -19 -52.5 0t-16.5 41zM510 1122q34 74 60 171t30 167q2 26 10 37.5t29 11.5h156q32 0 41 -10.5t4 -34.5q-25 -117 -96 -218t-164 -165q-26 -19 -53 0 t-17 41z" />
<glyph unicode="&#x201e;" horiz-adv-x="905" d="M86 -160q34 74 60 171t30 167q2 26 10 37.5t29 11.5h156q32 0 41 -10.5t4 -34.5q-25 -117 -96 -218t-164 -165q-26 -19 -53 0t-17 41zM487 -160q34 74 60.5 171t30.5 167q2 26 9.5 37.5t28.5 11.5h156q32 0 41 -10.5t4 -34.5q-25 -117 -96 -218t-164 -165q-26 -19 -53 0 t-17 41z" />
<glyph unicode="&#x2022;" horiz-adv-x="913" d="M131 659q0 137 98.5 235.5t235.5 98.5t235.5 -98.5t98.5 -235.5q0 -136 -98.5 -234.5t-235.5 -98.5t-235.5 98.5t-98.5 234.5z" />
<glyph unicode="&#x2026;" horiz-adv-x="1486" d="M117 66v110q0 22 11 38.5t30 16.5h168q41 0 52 -10.5t11 -36.5v-110q0 -25 -1 -36.5t-12.5 -24.5t-35.5 -13h-158q-65 0 -65 66zM618 66v110q0 22 11 38.5t30 16.5h168q41 0 52.5 -10.5t11.5 -36.5v-110q0 -25 -1 -36.5t-12.5 -24.5t-35.5 -13h-158q-66 0 -66 66z M1112 66v110q0 22 11 38.5t30 16.5h168q41 0 52 -10.5t11 -36.5v-110q0 -25 -1 -36.5t-12.5 -24.5t-35.5 -13h-157q-66 0 -66 66z" />
<glyph unicode="&#x202f;" horiz-adv-x="411" />
<glyph unicode="&#x2039;" horiz-adv-x="714" d="M92 655l303 447q14 23 26 29t32 -5l102 -57q17 -13 16.5 -24t-16.5 -35l-248 -355l260 -360q25 -38 -6 -51l-102 -58q-19 -8 -31 -2t-25 27z" />
<glyph unicode="&#x203a;" horiz-adv-x="714" d="M128.5 262q-1.5 11 12.5 33l262 362l-247 353q-15 22 -15 34t15 21l100 61q22 11 33.5 5t27.5 -31l299 -443l-311 -450q-13 -19 -23 -23.5t-30 2.5l-102 56q-20 9 -21.5 20z" />
<glyph unicode="&#x205f;" horiz-adv-x="514" />
<glyph unicode="&#x2122;" horiz-adv-x="1267" d="M20 1413v72q0 9 5.5 11.5t23.5 2.5h424h13t8.5 -1t6 -3t1.5 -6v-76q0 -14 -21 -14h-119q-14 0 -18 -5t-4 -18v-454q0 -21 -5 -29t-22 -8h-84q-17 0 -21.5 6t-4.5 31v454q0 12 -5.5 17.5t-19.5 5.5h-137q-13 0 -17 3t-4 11zM580 922v544q0 19 6 26t20 7h90q25 0 35 -16 l150 -283q6 -12 14 -4l147 285q10 18 33 18h96q16 0 19.5 -7t3.5 -28v-549q0 -30 -25 -30h-75q-20 0 -26.5 8t-6.5 29v378q0 12 -2 13t-7 -7l-5 -8l-125 -245q-9 -17 -13.5 -21t-13.5 -4h-23q-3 0 -5 0.5t-3.5 0.5t-3 1.5l-2.5 2.5t-3 4t-3 5l-3.5 7t-4.5 8l-117 239 q-6 8 -9.5 10.5t-5 -0.5t-1.5 -12v-381q0 -28 -25 -28h-74q-15 0 -23.5 6.5t-8.5 30.5z" />
<glyph unicode="&#xe000;" horiz-adv-x="1105" d="M0 0v1106h1106v-1106h-1106z" />
<glyph unicode="&#xfb01;" horiz-adv-x="1202" d="M84 985v72q0 45 33 45h98q-1 2 -5 9.5t-5 10t-5 10.5t-5 12t-4 13.5t-4 16.5t-3 18t-2.5 22t-1 25t-0.5 29q0 111 65 182.5t204 71.5q106 0 180 -27q15 -6 1 -82t-28 -74q-64 15 -96 15q-103 0 -103 -113q0 -34 9 -61t19 -41.5t30 -36.5h557q34 0 41.5 -12t7.5 -50v-968 q0 -44 -6 -58t-35 -14h-143q-26 0 -33.5 15t-7.5 57v872h-377v-876q0 -68 -47 -68h-125q-57 0 -57 53v891h-107q-28 0 -36.5 8t-8.5 33zM842 1366v74q0 36 10 47.5t45 11.5h129q21 0 30 -9.5t10 -20t1 -39.5v-70q0 -38 -7.5 -50t-33.5 -12h-135q-31 0 -40 12.5t-9 55.5z" />
<glyph unicode="&#xfb02;" horiz-adv-x="1202" d="M84 956v70q0 43 33 43h102q-41 84 -39 186q0 52 15 98t45.5 85t84 61.5t124.5 22.5q106 0 180 -27q15 -6 1 -82t-28 -74q-64 15 -96 15q-44 0 -73.5 -32.5t-29.5 -92.5q0 -93 58 -158h137q30 0 38.5 -9t8.5 -32v-72q0 -22 -9.5 -33.5t-37.5 -11.5h-133v-845 q0 -68 -47 -68h-125q-57 0 -57 53v860h-107q-27 0 -36 9t-9 34zM842 68v1398q0 30 10 43t39 13h129q34 0 40.5 -11.5t6.5 -50.5v-1388q0 -32 -1.5 -44t-10 -20t-27.5 -8h-135q-32 0 -41.5 12.5t-9.5 55.5z" />
</font>
</defs>
</svg>
