<?xml version="1.0" standalone="no"?>
<!DOCTYPE svg PUBLIC "-//W3C//DTD SVG 1.1//EN" "http://www.w3.org/Graphics/SVG/1.1/DTD/svg11.dtd" >
<svg xmlns="http://www.w3.org/2000/svg">
<metadata></metadata>
<defs>
<font id="centuryexpd_btitalic" horiz-adv-x="1010" >
<font-face units-per-em="2048" ascent="1638" descent="-410" />
<missing-glyph horiz-adv-x="506" />
<glyph horiz-adv-x="2048" />
<glyph horiz-adv-x="2048" />
<glyph unicode="&#xd;" horiz-adv-x="506" />
<glyph unicode=" "  horiz-adv-x="506" />
<glyph unicode="&#x09;" horiz-adv-x="506" />
<glyph unicode="&#xa0;" horiz-adv-x="506" />
<glyph unicode="!" horiz-adv-x="594" d="M43 109q0 50 35 85t86 35q50 0 85.5 -35t35.5 -85q0 -51 -35 -86t-86 -35t-86 35t-35 86zM211 420q63 246 99.5 461.5t51.5 431.5q8 102 39 149t88 47q47 0 81 -29.5t34 -68.5q0 -69 -71 -215q-35 -74 -52 -115q-62 -155 -118 -324t-105 -347z" />
<glyph unicode="&#x22;" horiz-adv-x="678" d="M90 1362q0 48 22 74t62 26q41 0 63.5 -26t22.5 -74q0 -9 -3 -34q-1 -5 -1 -7l-66 -457h-32l-64 457q-2 17 -3 26t-1 15zM418 1360q0 49 22.5 75.5t63.5 26.5q40 0 62 -26t22 -74q0 -14 -0.5 -23t-1.5 -18l-68 -457h-31l-65 457q0 2 -1 6q-3 22 -3 33z" />
<glyph unicode="#" horiz-adv-x="1575" d="M104 467l43 115h322l100 286h-348l43 117h348l166 471h133l-168 -471h287l168 471h131l-166 -471h307l-40 -117h-310l-100 -286h332l-43 -115h-330l-166 -469h-133l166 469h-287l-166 -469h-131l166 469h-324zM600 582h289l102 286h-291z" />
<glyph unicode="$" d="M23 287q0 79 43 134.5t102 55.5q57 0 89 -30.5t32 -84.5q0 -53 -31 -82.5t-88 -29.5q-11 0 -26.5 5t-20.5 5q-10 0 -17.5 -7t-7.5 -17q0 -51 67 -106.5t165 -78.5l139 567q-127 69 -186.5 151.5t-59.5 191.5q0 165 118 271.5t304 106.5l39 162h78l-39 -164 q126 -19 195 -85t69 -167q0 -68 -36.5 -110.5t-94.5 -42.5q-49 0 -81 31.5t-32 78.5t30.5 79t72.5 32q6 0 19 -1t18 -1q9 0 14.5 4t5.5 10q0 34 -55.5 71t-136.5 52l-127 -522q137 -84 197.5 -169t60.5 -194q0 -180 -125 -298t-324 -122l-76 -311h-79l77 316 q-138 31 -215 110t-77 189zM340 1018q0 -64 38 -113t134 -106l121 491q-133 -6 -213 -80.5t-80 -191.5zM408 45h12q132 0 221.5 86.5t89.5 208.5q0 73 -45.5 131t-146.5 113z" />
<glyph unicode="%" horiz-adv-x="1690" d="M86 885q0 82 32 166t93 161q78 98 165 148.5t177 50.5q60 0 104.5 -22t81.5 -70q31 -23 70.5 -34t93.5 -11q98 0 185.5 48t134.5 128h90l-834 -1483h-96l737 1317q-50 -36 -105 -55t-112 -19q-27 0 -57.5 7.5t-65.5 23.5q4 -23 6 -47t2 -43q0 -82 -33.5 -173t-95.5 -175 q-64 -89 -147 -138t-168 -49q-119 0 -188.5 72.5t-69.5 196.5zM233 813q0 -61 36 -97t98 -36q69 0 132 45t132 145q47 68 72.5 142.5t25.5 142.5q0 26 -4.5 52.5t-13.5 54.5q-46 18 -79 40t-50 45q-55 -3 -111.5 -53t-112.5 -145q-62 -104 -93.5 -189t-31.5 -147zM895 270 q0 78 33 161t94 161q73 92 161 143t173 51q107 0 175 -71t68 -185q0 -82 -33.5 -174t-95.5 -176q-63 -89 -142.5 -134.5t-170.5 -45.5q-128 0 -195 69t-67 201zM1042 188q0 -61 36 -96t100 -35q51 0 97.5 23.5t92.5 73.5q80 84 126 186.5t46 194.5q0 81 -40.5 130.5 t-106.5 49.5q-52 0 -101.5 -37t-97.5 -111q-74 -114 -113 -211.5t-39 -167.5z" />
<glyph unicode="&#x26;" horiz-adv-x="1565" d="M59 285q0 178 138.5 337.5t377.5 253.5q-3 39 -4.5 70t-1.5 58q0 222 109.5 357.5t288.5 135.5q106 0 168.5 -55t62.5 -150q0 -116 -122.5 -227.5t-334.5 -183.5q22 -101 63.5 -227t113.5 -306q56 92 131 267q27 62 41 92q49 106 106 153t135 47q71 0 114.5 -43.5 t43.5 -113.5q0 -65 -33 -101.5t-92 -36.5q-37 0 -63 17.5t-44 54.5q-5 12 -13 38q-14 50 -38 50q-28 0 -106.5 -176.5t-153.5 -312.5q43 -102 102 -158.5t121 -56.5q71 0 128 62.5t89 176.5l56 -6q-41 -176 -131 -264t-230 -88q-74 0 -136.5 38.5t-113.5 116.5 q-78 -79 -169 -117t-203 -38q-183 0 -291.5 91t-108.5 245zM256 424q0 -169 85.5 -280t215.5 -111q70 0 133.5 30.5t112.5 88.5q-77 154 -132 320t-87 345q-157 -57 -242.5 -160t-85.5 -233zM713 1133q0 -48 4.5 -98t13.5 -105q158 68 249 169.5t91 205.5q0 67 -30 102 t-89 35q-100 0 -169.5 -89t-69.5 -220z" />
<glyph unicode="'" horiz-adv-x="348" d="M90 1360q0 50 21.5 76t62.5 26t63.5 -26t22.5 -74q0 -9 -3 -34q-1 -5 -1 -7l-66 -457h-32l-66 457q-1 8 -1.5 16t-0.5 23z" />
<glyph unicode="(" horiz-adv-x="735" d="M147 410q0 347 190 638.5t525 458.5v-53q-273 -186 -426 -498t-153 -684q0 -149 32.5 -297.5t96.5 -285.5h-52q-105 189 -159 370.5t-54 350.5z" />
<glyph unicode=")" horiz-adv-x="735" d="M-160 -258q274 186 427 498t153 684q0 149 -33 297.5t-96 285.5h51q106 -189 159.5 -370.5t53.5 -350.5q0 -346 -190 -638t-525 -459v53z" />
<glyph unicode="*" horiz-adv-x="1024" d="M195 940q0 33 21.5 56.5t62.5 35.5q13 4 51 8q123 14 207 64q-72 44 -166 58.5t-97 15.5q-38 11 -58.5 35.5t-20.5 56.5q0 34 23 57t58 23q26 0 51 -15t52 -47q4 -5 15 -20q67 -93 155 -142v17q0 72 -35 161.5t-35 114.5q0 43 22.5 70t59.5 27q35 0 58.5 -25t23.5 -64 q0 -27 -35 -120t-35 -168v-13q78 40 151 138q14 19 22 29q24 28 50.5 42.5t55.5 14.5q32 0 54 -23t22 -57q0 -33 -21.5 -56.5t-62.5 -35.5q-13 -4 -51 -9q-123 -15 -207 -65q70 -43 162.5 -57.5t99.5 -16.5q35 -12 57.5 -37.5t22.5 -54.5q0 -33 -24 -56.5t-58 -23.5 q-25 0 -51.5 16t-53.5 48q-4 5 -16 21q-65 92 -152 140v-16q0 -72 35 -163t35 -116q0 -42 -23 -68t-61 -26q-35 0 -58.5 25t-23.5 63q0 28 36 121t36 170v10q-78 -39 -150 -137q-15 -20 -22 -28q-25 -29 -51 -43.5t-56 -14.5q-32 0 -53.5 23t-21.5 57z" />
<glyph unicode="+" horiz-adv-x="1706" d="M254 553v117h541v551h118v-551h539v-117h-539v-553h-118v553h-541z" />
<glyph unicode="," horiz-adv-x="506" d="M-92 -309q104 92 146 154t42 120q0 27 -50 45q-21 7 -31 12q-27 15 -40.5 38.5t-13.5 56.5q0 53 35 87t90 34q65 0 103 -46.5t38 -125.5q0 -97 -67 -196t-211 -214z" />
<glyph unicode="-" horiz-adv-x="676" d="M82 434l33 137h471l-31 -137h-473z" />
<glyph unicode="." horiz-adv-x="506" d="M2 102q0 51 35 86t86 35q50 0 85.5 -35t35.5 -86q0 -50 -36 -85t-87 -35t-85 34.5t-34 85.5z" />
<glyph unicode="/" horiz-adv-x="569" d="M-109 -190l629 1697h98l-630 -1697h-97z" />
<glyph unicode="0" d="M45 444q0 157 47.5 319.5t134.5 305.5q80 131 181.5 200.5t212.5 69.5q153 0 242 -131.5t89 -361.5q0 -150 -42.5 -300t-123.5 -284q-87 -146 -191 -221.5t-218 -75.5q-154 0 -243 128t-89 351zM188 264q0 -108 50.5 -170.5t136.5 -62.5q88 0 149.5 62.5t114.5 207.5 q85 237 132.5 437.5t47.5 316.5q0 102 -52 164.5t-136 62.5q-88 0 -152 -70.5t-127 -242.5q-76 -205 -120 -400t-44 -305z" />
<glyph unicode="1" d="M41 0l18 70h31q57 0 101.5 4.5t68.5 13.5q61 23 87 127q6 23 9 34l199 755q3 9 4.5 16.5t1.5 13.5q0 17 -11 23t-61 6h-213v63h29q170 0 277.5 53t158.5 162h58l-293 -1130q-4 -13 -6 -25t-2 -24q0 -55 38.5 -73.5t208.5 -18.5l-14 -70h-690z" />
<glyph unicode="2" d="M-8 37q0 64 63.5 144.5t206.5 195.5q13 10 41 32q196 153 303 296q84 111 128 219.5t44 199.5q0 77 -42 119.5t-118 42.5q-65 0 -134.5 -33t-137.5 -96q-86 -81 -134 -174t-48 -176q0 -49 20.5 -74.5t59.5 -25.5q72 0 134.5 96t96.5 264l47 -8q-34 -192 -110.5 -298 t-180.5 -106q-61 0 -94 39t-33 111q0 66 30 140t87 151q89 118 199 182.5t219 64.5q137 0 225 -86.5t88 -220.5q0 -110 -68.5 -212t-234.5 -232q-103 -81 -276 -201t-213 -166q38 10 62.5 14.5t43.5 4.5q78 0 188.5 -43t147.5 -43q81 0 142 70t96 204l45 -18 q-51 -207 -156 -329t-227 -122q-54 0 -98 23t-85 73q-12 15 -34 44q-65 85 -107 85q-28 0 -45.5 -19.5t-17.5 -49.5v-62q0 -47 -15.5 -70.5t-46.5 -23.5q-26 0 -43.5 21t-17.5 53z" />
<glyph unicode="3" d="M27 244q0 88 44.5 142t116.5 54q52 0 83.5 -30t31.5 -80q0 -63 -35.5 -101.5t-93.5 -38.5q-16 0 -35.5 7.5t-23.5 7.5q-7 0 -13 -5.5t-6 -13.5q0 -57 63.5 -109t141.5 -52q70 0 126 30t101 92q51 70 83 163.5t32 166.5q0 78 -37 123t-100 45q-23 0 -58 -9t-49 -9 q-16 0 -26.5 10.5t-10.5 28.5q0 17 12.5 28t33.5 11q6 0 16.5 -1.5t15.5 -1.5q144 0 251.5 133t107.5 306q0 76 -37 115.5t-109 39.5q-53 0 -119.5 -33.5t-123.5 -91.5q-53 -52 -82 -109.5t-29 -109.5q0 -45 22 -71.5t60 -26.5q55 0 100 67t70 187l45 -10 q-31 -142 -86.5 -215.5t-132.5 -73.5q-60 0 -94.5 39t-34.5 106q0 61 37.5 132.5t99.5 127.5q70 64 147 96.5t158 32.5q128 0 199.5 -69t71.5 -193q0 -140 -96.5 -239t-299.5 -166q117 -21 182.5 -96.5t65.5 -188.5q0 -177 -135.5 -301.5t-329.5 -124.5q-150 0 -235.5 74.5 t-85.5 204.5z" />
<glyph unicode="4" d="M-66 76q0 49 50 77t156 38q126 208 216 497t142 653h178q-65 -271 -186.5 -562t-294.5 -591q25 -6 118.5 -21t161.5 -32l139 479h146l-139 -493q91 0 145 45t80 143h39q-17 -136 -90.5 -208.5t-202.5 -80.5l-80 -274h-147l81 287q-84 20 -153.5 48t-132.5 69 q-43 -61 -87.5 -93t-84.5 -32q-25 0 -39.5 13.5t-14.5 37.5z" />
<glyph unicode="5" d="M37 252q0 64 40.5 112t94.5 48q55 0 87 -31t32 -82q0 -54 -28 -87.5t-73 -33.5q-14 0 -34.5 5t-26.5 5q-10 0 -15 -3.5t-5 -10.5q0 -60 61 -109t141 -49q74 0 133 40t111 124q55 88 89 202t34 210q0 91 -45.5 148t-116.5 57t-138.5 -44.5t-148.5 -144.5l-41 15 q55 171 132 424t90 294h4q24 0 115.5 -27.5t158.5 -27.5q132 0 245 43q24 8 30 8q10 0 14 -5t4 -19q0 -23 -30 -57t-77 -62q-66 -40 -132.5 -61t-127.5 -21q-46 0 -96.5 11t-103.5 32l-133 -432q60 68 122 100.5t132 32.5q126 0 216.5 -106t90.5 -258q0 -116 -40 -212.5 t-120 -173.5q-72 -68 -164 -106.5t-186 -38.5q-138 0 -216.5 77.5t-78.5 213.5z" />
<glyph unicode="6" d="M90 377q0 139 45.5 292.5t130.5 303.5q104 182 223.5 277.5t243.5 95.5q100 0 160.5 -61t60.5 -163q0 -66 -34 -106.5t-91 -40.5q-50 0 -80 30.5t-30 81.5q0 34 18.5 62.5t49.5 40.5q15 6 50 10t35 17q0 22 -45.5 46.5t-101.5 24.5q-130 0 -240.5 -177t-167.5 -482 q57 101 124 153t143 52q115 0 191.5 -94.5t76.5 -239.5q0 -79 -28 -165t-79 -161q-71 -104 -158 -158.5t-184 -54.5q-140 0 -226.5 113.5t-86.5 302.5zM244 236q0 -100 39 -156.5t106 -56.5q61 0 113.5 43t91.5 127q42 87 69 205t27 212q0 80 -32 122t-93 42q-55 0 -109 -41 t-102 -119q-53 -86 -81.5 -184.5t-28.5 -193.5z" />
<glyph unicode="7" d="M164 856l170 485h51l-90 -227l20 -6q62 111 132.5 171t136.5 60q43 0 76.5 -18t46.5 -50q3 -7 8 -21q55 -136 121 -136q45 0 73 32t35 93q1 8 2 25q6 77 51 77q20 0 35 -18.5t15 -44.5q0 -48 -85 -161q-12 -15 -18 -23q-23 -32 -70 -95q-237 -315 -317 -522 q-49 -128 -74 -309q-7 -54 -12 -74q-19 -72 -47.5 -101.5t-77.5 -29.5q-41 0 -65.5 31.5t-24.5 85.5q0 123 164.5 383.5t472.5 623.5q-65 -39 -111 -56t-84 -17q-43 0 -75.5 20.5t-48.5 58.5q-4 9 -11 26q-37 91 -84 91q-53 0 -120.5 -89t-147.5 -265h-47z" />
<glyph unicode="8" d="M37 258q0 120 94 217.5t305 194.5q-84 88 -122 165.5t-38 157.5q0 149 103 248.5t258 99.5q140 0 233 -81t93 -201q0 -95 -72.5 -176.5t-243.5 -175.5q94 -88 137 -168.5t43 -167.5q0 -173 -124 -292.5t-306 -119.5q-152 0 -256 87t-104 212zM172 250q0 -100 65 -165 t166 -65q127 0 213 79.5t86 195.5q0 74 -49.5 151.5t-177.5 194.5q-148 -83 -225.5 -183t-77.5 -208zM387 1075q0 -69 52 -145t173 -182q110 62 170 150t60 185q0 91 -61.5 146t-164.5 55q-97 0 -163 -61t-66 -148z" />
<glyph unicode="9" d="M49 180q0 69 38 113.5t97 44.5q45 0 73 -30.5t28 -80.5q0 -40 -17.5 -67t-50.5 -39q-13 -5 -46.5 -8.5t-33.5 -16.5q0 -20 43 -44.5t94 -24.5q136 0 244.5 169.5t173.5 487.5q-59 -102 -126.5 -153.5t-143.5 -51.5q-113 0 -188.5 91t-75.5 231q0 87 28 176t80 166 q73 105 158.5 156t189.5 51q134 0 217.5 -113t83.5 -297q0 -183 -65 -372t-184 -351q-91 -123 -188.5 -184.5t-203.5 -61.5q-98 0 -161.5 59.5t-63.5 149.5zM313 709q0 -84 34 -128t99 -44q49 0 107 44.5t109 123.5q50 78 80 181.5t30 198.5q0 93 -46.5 150t-119.5 57 q-56 0 -101.5 -41.5t-88.5 -132.5q-48 -100 -75.5 -209.5t-27.5 -199.5z" />
<glyph unicode=":" horiz-adv-x="553" d="M27 100q0 50 34 84.5t82 34.5q50 0 84.5 -34.5t34.5 -84.5q0 -49 -34.5 -83.5t-84.5 -34.5q-49 0 -82.5 34t-33.5 84zM197 862q0 50 33.5 84.5t82.5 34.5t84 -35t35 -84t-34.5 -83t-84.5 -34q-49 0 -82.5 33.5t-33.5 83.5z" />
<glyph unicode=";" horiz-adv-x="553" d="M-76 -309q104 92 146.5 154t42.5 120q0 28 -52 45q-20 6 -31 11q-25 12 -40 36.5t-15 55.5q0 54 35.5 88.5t91.5 34.5q66 0 103 -47.5t37 -131.5q0 -93 -67 -190t-210 -211zM135 862q0 49 35 84t84 35t83 -34.5t34 -84.5q0 -49 -34 -83t-83 -34q-50 0 -84.5 33.5 t-34.5 83.5z" />
<glyph unicode="&#x3c;" horiz-adv-x="1706" d="M264 559v103l1178 483v-127l-1000 -408l1000 -405v-129z" />
<glyph unicode="=" horiz-adv-x="1706" d="M254 360v117h1198v-117h-1198zM254 743v117h1198v-117h-1198z" />
<glyph unicode="&#x3e;" horiz-adv-x="1706" d="M264 76v129l1000 405l-1000 408v127l1178 -483v-103z" />
<glyph unicode="?" horiz-adv-x="1006" d="M279 102q0 51 35 86t85 35t84.5 -35t34.5 -86q0 -50 -35 -85t-86 -35q-50 0 -84 34.5t-34 85.5zM354 1143q0 166 85 265t227 99q123 0 196.5 -78.5t73.5 -211.5q0 -190 -325 -432l-9 -7q-96 -71 -126 -109t-30 -77q0 -38 25.5 -62t65.5 -24q44 0 78 34t69 115l49 -26 q-26 -87 -82.5 -139t-122.5 -52q-73 0 -121.5 50t-48.5 126q0 68 43 144.5t127 159.5q22 21 63 61q216 209 216 313q0 69 -43 112.5t-113 43.5q-109 0 -175 -87t-66 -233q0 -19 3 -39.5t9 -41.5l-55 -9q-7 28 -10 54t-3 51z" />
<glyph unicode="@" horiz-adv-x="2019" d="M145 537q0 204 86 381t250 313q131 110 291 165.5t344 55.5q347 0 553.5 -187t206.5 -499q0 -157 -58 -297t-163 -236q-57 -52 -123.5 -80t-134.5 -28q-97 0 -149 52.5t-58 158.5q-62 -106 -139 -158.5t-170 -52.5q-125 0 -201 92t-76 244q0 108 49 216t138 193 q65 64 144 100t155 36q87 0 143 -49.5t78 -145.5l53 180h143l-170 -610q0 -2 -1 -5q-17 -59 -17 -104q0 -47 25.5 -74.5t68.5 -27.5q34 0 79 17.5t85 48.5q122 90 187 231t65 315q0 140 -50 252t-153 203q-90 79 -216 122.5t-267 43.5q-187 0 -341.5 -58.5t-275.5 -175.5 q-130 -126 -197 -293.5t-67 -369.5q0 -175 57 -304.5t181 -234.5q114 -97 261 -146.5t320 -49.5q163 0 317.5 52t295.5 154l30 -36q-148 -110 -313 -166t-342 -56q-187 0 -342 46.5t-274 138.5q-151 113 -229.5 274.5t-78.5 358.5zM750 375q0 -93 40.5 -147t108.5 -54 q66 0 126 44.5t116 133.5q57 94 91 202.5t34 197.5q0 93 -47.5 153t-120.5 60q-54 0 -99 -31t-92 -100q-72 -108 -114.5 -234t-42.5 -225z" />
<glyph unicode="A" horiz-adv-x="1485" d="M-129 0v66q174 19 316 242q13 21 20 32l731 1155h100l146 -1280q10 -87 51 -116.5t176 -33.5v-65h-649v65q146 6 185.5 29t39.5 84q0 10 -1.5 27t-4.5 39l-25 241h-565l-104 -174q-26 -43 -37.5 -76.5t-11.5 -62.5q0 -55 42.5 -79t149.5 -28v-65h-559zM449 569h497 l-76 666z" />
<glyph unicode="B" horiz-adv-x="1446" d="M-43 0l16 66h11q92 0 134.5 31t67.5 122l285 1016q8 27 12 52.5t4 43.5q0 46 -35 65t-120 19h-33l12 64h600q239 0 353 -76.5t114 -235.5q0 -170 -143 -270.5t-414 -120.5l-2 -14q216 -25 328.5 -115.5t112.5 -240.5q0 -194 -169.5 -300t-480.5 -106h-653zM369 147 q0 -47 33 -64t145 -17q262 0 374.5 91.5t112.5 303.5q0 145 -100.5 210.5t-323.5 65.5q-35 0 -53.5 -0.5t-34.5 -1.5l-139 -498q-7 -25 -10.5 -49t-3.5 -41zM543 809q12 0 36.5 -1t36.5 -1q300 0 431 98.5t131 321.5q0 94 -65.5 141t-197.5 47q-137 0 -176.5 -24.5 t-72.5 -143.5z" />
<glyph unicode="C" horiz-adv-x="1333" d="M82 584q0 183 66 355.5t192 317.5q105 124 236.5 187t283.5 63q74 0 137 -16.5t131 -54.5q14 -8 39 -24q49 -32 72 -32q20 0 34.5 14t31.5 52l30 70h56l-136 -584h-50q-5 257 -88.5 385.5t-246.5 128.5q-102 0 -196.5 -57t-157.5 -158q-49 -77 -89.5 -172.5t-72.5 -206.5 q-33 -120 -50 -226t-17 -198q0 -189 89.5 -300.5t239.5 -111.5q174 0 304.5 118.5t201.5 342.5h68q-56 -247 -211.5 -387.5t-372.5 -140.5q-241 0 -382.5 171t-141.5 464z" />
<glyph unicode="D" horiz-adv-x="1581" d="M-41 0l16 66h11q91 0 133 30.5t69 122.5l287 1018q8 27 12.5 53t4.5 43q0 45 -34.5 63.5t-119.5 18.5h-35l12 66h541q339 0 493 -134.5t154 -428.5q0 -188 -59.5 -350t-177.5 -296q-122 -138 -273 -205t-342 -67h-692zM389 178q0 -60 46.5 -86t154.5 -26q134 0 240 42.5 t188 129.5q53 56 98 137t82 188q51 149 78 278t27 226q0 178 -98.5 263t-305.5 85q-179 0 -247 -247l-5 -17l-231 -832q-13 -49 -20 -85t-7 -56z" />
<glyph unicode="E" horiz-adv-x="1495" d="M-51 0l16 66h10q93 0 135.5 31t67.5 122l285 1016q8 27 12 52.5t4 43.5q0 46 -35 65t-120 19h-33l12 64h1174l-115 -523l-64 5q6 62 8.5 100.5t2.5 62.5q0 162 -81 226.5t-298 64.5q-77 0 -120.5 -5t-70.5 -17q-40 -19 -71 -133q-4 -16 -7 -26l-118 -416q10 -2 21 -2.5 t34 -0.5q147 0 226.5 65.5t123.5 223.5h60l-170 -703l-64 5q8 34 12.5 66.5t4.5 64.5q0 107 -54 157.5t-168 50.5q-18 0 -28.5 -0.5t-18.5 -1.5l-131 -462q-14 -50 -20 -80t-6 -47q0 -48 32 -68t111 -20q159 0 263 34t185 111q69 65 132 160t129 231l57 -18l-154 -584h-1171 z" />
<glyph unicode="F" horiz-adv-x="1415" d="M-41 0l16 66h11q93 0 135 31t67 122l285 1016q8 27 12 52.5t4 43.5q0 46 -35 65t-120 19h-33l12 64h1137l-123 -539l-65 6q5 58 7.5 96.5t2.5 65.5q0 177 -84 242t-332 65q-38 0 -72 -8t-65 -25q-31 -34 -60 -151q-6 -27 -10 -42l-98 -372q15 -1 30 -1.5t37 -0.5 q126 0 202.5 68.5t121.5 220.5h64l-183 -701h-63q10 58 14 94.5t4 65.5q0 95 -59 141t-180 46h-9l-139 -506q-8 -27 -12 -53t-4 -44q0 -45 35 -64.5t125 -19.5q8 0 27.5 1.5t31.5 1.5l-16 -66h-619z" />
<glyph unicode="G" horiz-adv-x="1495" d="M78 567q0 189 67 369.5t189 318.5q111 127 248 194t284 67q67 0 126 -16t122 -52q15 -8 40 -25q49 -32 73 -32q32 0 62 30.5t50 85.5h68l-121 -563h-65q-10 251 -97.5 375.5t-255.5 124.5q-116 0 -212.5 -66.5t-170.5 -197.5q-92 -165 -145 -366t-53 -382 q0 -197 84.5 -307.5t234.5 -110.5q162 0 284 141.5t122 329.5q0 53 -33 73t-127 20q-31 0 -48.5 -0.5t-35.5 -1.5l14 69h672l-8 -70q-208 0 -256 -187q-4 -15 -6 -23l-103 -392h-73q0 46 -16 70.5t-46 24.5q-22 0 -60 -26q-4 -3 -7 -5l-52 -31q-48 -32 -108 -47.5 t-131 -15.5q-228 0 -369 172t-141 452z" />
<glyph unicode="H" horiz-adv-x="1722" d="M-39 0l16 66h11q92 0 134.5 31t70.5 122l288 1015q7 27 11 51t4 40q0 51 -33 70.5t-121 19.5h-35l12 64h590l-18 -64q-2 0 -5 -1t-5 -1q-90 0 -131.5 -30.5t-69.5 -122.5l-127 -449h649l123 424q8 26 12 51.5t4 44.5q0 46 -35 65t-120 19h-33l12 64h582l-8 -66 q-2 0 -5.5 1t-4.5 1q-91 0 -133 -31.5t-68 -123.5l-287 -1016q-7 -25 -10.5 -49.5t-3.5 -47.5q0 -44 34 -62.5t119 -18.5h35l-12 -66h-594l14 66h21q89 0 130.5 32t65.5 121l140 508h-652l-135 -483q-8 -28 -12 -53t-4 -44q0 -44 34 -62.5t119 -18.5h35l-12 -66h-592z" />
<glyph unicode="I" horiz-adv-x="901" d="M-23 0l17 66h10q93 0 135 31t68 122l285 1016q7 27 11.5 52.5t4.5 43.5q0 46 -35 65t-121 19h-33l13 64h592l-9 -64h-10q-93 0 -136 -32t-69 -123l-284 -1016q-8 -27 -12.5 -53t-4.5 -44q0 -44 34.5 -62.5t119.5 -18.5h35l-13 -66h-598z" />
<glyph unicode="J" horiz-adv-x="1126" d="M-16 209q0 92 46 149.5t117 57.5q64 0 101 -34t37 -93q0 -50 -31.5 -81.5t-81.5 -31.5q-25 0 -53.5 11.5t-30.5 11.5q-13 -1 -18.5 -7t-6.5 -20q0 -59 53.5 -105.5t129.5 -46.5q88 0 145.5 72.5t104.5 247.5l237 895q8 27 12.5 52.5t4.5 43.5q0 47 -36 66.5t-122 19.5 q-7 0 -23.5 -1t-25.5 -1l14 64h625l-8 -64h-23q-97 0 -138.5 -29.5t-68.5 -125.5l-219 -799q-79 -290 -182.5 -402t-278.5 -112q-123 0 -201.5 73.5t-78.5 188.5z" />
<glyph unicode="K" horiz-adv-x="1540" d="M-20 0l16 66h10q93 0 135 31t68 122l285 1016q7 27 11.5 52.5t4.5 43.5q0 46 -35 65t-121 19h-32l12 64h588l-9 -64h-20q-91 0 -132 -30.5t-67 -127.5l-172 -614l668 600q32 29 52 60.5t20 50.5q0 32 -38.5 46.5t-125.5 14.5l12 64h518v-64h-12q-65 0 -149 -47.5 t-185 -142.5l-367 -342l253 -589q4 -10 13 -30q81 -189 185 -194l104 -4l-10 -68h-682l8 68h66q79 0 112 18t33 61q0 21 -7 49.5t-19 57.5l-211 498l-277 -240l-73 -266q-8 -27 -12.5 -53t-4.5 -44q0 -45 34.5 -64.5t121.5 -19.5q9 0 29 1.5t30 1.5l-10 -66h-618z" />
<glyph unicode="L" horiz-adv-x="1386" d="M-39 0l16 66h13q93 0 132.5 28.5t67.5 124.5l285 1016q8 27 12.5 52.5t4.5 43.5q0 46 -36 66t-120 20q-7 0 -22 -1t-23 -1l14 64h625l-10 -64h-37q-95 0 -137.5 -31.5t-69.5 -123.5l-281 -1002q-10 -32 -15 -62t-5 -53q0 -45 31.5 -61t162.5 -16h43q158 0 250 35.5 t172 123.5q41 45 99.5 141.5t115.5 217.5l64 -19l-172 -565h-1180z" />
<glyph unicode="M" horiz-adv-x="1972" d="M-39 0l8 66q181 7 294 409l7 26l201 716q11 37 17 67.5t6 46.5q0 46 -35.5 65t-120.5 19h-33l12 64h447l102 -1168l711 1168h414l-9 -64q-83 -1 -122.5 -31t-65.5 -124l-285 -1017q-7 -24 -10.5 -49t-3.5 -47q0 -44 34 -62.5t120 -18.5h34l-12 -66h-606l16 66h25 q98 0 139 28.5t68 124.5l338 1198l-887 -1446h-57l-111 1430l-281 -1002q-12 -47 -19 -91.5t-7 -74.5q0 -79 43.5 -119.5t136.5 -47.5l-6 -66h-502z" />
<glyph unicode="N" horiz-adv-x="1690" d="M-25 0l11 66q188 14 283 358l1 6l232 832q-11 72 -74 109.5t-186 43.5l10 64h381l530 -1157l209 745q16 54 24.5 103t8.5 83q0 84 -50 122t-163 40l10 64h533l-6 -64q-103 0 -160.5 -64t-106.5 -239l-315 -1124h-72l-524 1171l-219 -788q-13 -44 -20 -85t-7 -71 q0 -78 50.5 -113t162.5 -37l-8 -65h-535z" />
<glyph unicode="O" horiz-adv-x="1462" d="M80 563q0 188 60.5 359.5t176.5 312.5q112 134 257 206t303 72q228 0 371 -175t143 -461q0 -192 -69 -369.5t-198 -317.5q-109 -118 -240.5 -180.5t-271.5 -62.5q-241 0 -386.5 168.5t-145.5 447.5zM289 428q0 -190 87 -303t232 -113q96 0 184 53.5t154 151.5 q51 75 93.5 170t76.5 213t51 221.5t17 196.5q0 200 -85 314t-233 114q-124 0 -224 -80t-183 -244q-80 -159 -125 -343.5t-45 -350.5z" />
<glyph unicode="P" horiz-adv-x="1415" d="M-25 0l17 66h10q93 0 135 31t68 122l278 993q12 45 18.5 75.5t6.5 43.5q0 46 -35 65t-121 19h-33l13 64h590q237 0 354 -88t117 -267q0 -217 -171.5 -330.5t-500.5 -113.5q-49 0 -94.5 2t-89.5 6l-125 -444q-8 -30 -12.5 -55t-4.5 -42q0 -39 26.5 -59.5t79.5 -21.5 l126 -5l-6 -61h-646zM557 758q36 -2 73 -3t95 -1q142 0 219 16.5t119 54.5q48 45 85.5 153t37.5 216q0 120 -66 170.5t-223 50.5q-163 0 -212 -180q-3 -12 -5 -19z" />
<glyph unicode="Q" horiz-adv-x="1462" d="M80 563q0 186 60.5 358t176.5 314q110 133 255.5 205.5t304.5 72.5q228 0 371 -175t143 -461q0 -259 -119.5 -482.5t-329.5 -355.5q31 -170 60 -224.5t79 -54.5q45 0 79.5 51t51.5 144h62q-28 -178 -100 -266t-189 -88q-101 0 -156 68.5t-55 195.5q0 22 1.5 48.5 t4.5 57.5q-50 -12 -93 -18t-79 -6q-236 0 -382 169.5t-146 446.5zM289 424q0 -134 35.5 -222t101.5 -118q-21 33 -31 66.5t-10 72.5q0 101 66 169.5t163 68.5q113 0 190.5 -79.5t98.5 -217.5q50 52 92 129t80 182q54 148 81.5 285t27.5 258q0 200 -85 314t-233 114 q-124 0 -224 -80t-183 -244q-80 -158 -125 -343.5t-45 -354.5zM461 201q0 -77 51.5 -126.5t132.5 -49.5q40 0 76 9.5t63 28.5q8 46 11.5 73t3.5 46q0 89 -46.5 142t-123.5 53q-73 0 -120.5 -50t-47.5 -126z" />
<glyph unicode="R" horiz-adv-x="1530" d="M-39 0l16 66h11q91 0 134 31t71 122l286 1016q8 26 12.5 51.5t4.5 44.5q0 45 -34.5 63.5t-119.5 18.5h-35l12 64h603q258 0 389 -83.5t131 -248.5q0 -170 -157.5 -270.5t-459.5 -124.5q117 -21 172.5 -87t71.5 -206q5 -39 7 -116.5t9 -110.5q12 -56 35 -81.5t62 -25.5 q56 0 99 63t62 174l70 -2q-18 -176 -112.5 -279.5t-235.5 -103.5q-96 0 -147.5 60t-51.5 172q0 65 21.5 189t21.5 182q0 83 -73 115t-301 34l-138 -485q-8 -27 -12 -51.5t-4 -43.5q0 -44 34.5 -62.5t121.5 -18.5h32l-12 -66h-596zM549 793h78q170 0 268.5 21t163.5 69 q69 52 110 137t41 176q0 110 -80.5 163.5t-246.5 53.5q-105 0 -143 -20.5t-56 -87.5z" />
<glyph unicode="S" horiz-adv-x="1229" d="M-20 -4q45 131 87 267t80 280l56 -13v-28q0 -237 99.5 -361.5t289.5 -124.5q137 0 227 80t90 199q0 84 -54.5 154.5t-217.5 181.5q-9 6 -26 18q-359 244 -359 443q0 181 119 300t299 119q60 0 115 -15t98 -44q11 -7 31 -21q73 -49 106 -49q31 0 58.5 24.5t66.5 90.5 l59 -20q-43 -130 -80.5 -262.5t-68.5 -268.5l-62 15q3 30 3.5 45t0.5 28q0 188 -94 297t-256 109q-113 0 -186.5 -68t-73.5 -170q0 -72 51.5 -137.5t208.5 -175.5q7 -5 20 -14q377 -264 377 -469q0 -207 -129 -331t-344 -124q-67 0 -134 16t-131 47q-15 7 -39 21 q-60 33 -89 33t-60.5 -19.5t-82.5 -71.5z" />
<glyph unicode="T" horiz-adv-x="1343" d="M133 934l162 545h1110l-113 -545h-63q0 6 1 20q7 89 7 121q0 180 -65 256.5t-226 91.5l-321 -1181q-8 -28 -12.5 -53.5t-4.5 -43.5q0 -46 36 -65t128 -19q9 0 31 1t35 1l-11 -63h-688l19 63h18q116 0 159 28t71 126l335 1206h-18q-156 0 -286 -122.5t-232 -366.5h-72z " />
<glyph unicode="U" horiz-adv-x="1640" d="M219 291q0 43 8.5 99t24.5 116l203 731q7 29 11.5 54t4.5 40q0 46 -30.5 65t-106.5 19h-53l10 64h600l-8 -64h-70q-59 0 -94 -33t-60 -118l-225 -785q-14 -50 -22.5 -105.5t-8.5 -101.5q0 -118 80.5 -189t214.5 -71q110 0 195.5 31.5t142.5 91.5q96 101 167 365 q8 28 11 41l158 553q16 52 23.5 93.5t7.5 72.5q0 77 -54.5 116t-164.5 39l14 64h537l-11 -64q-186 -10 -279 -334l-3 -11l-166 -587l-6 -21q-80 -280 -176 -374q-72 -70 -179 -106.5t-239 -36.5q-213 0 -335 92.5t-122 253.5z" />
<glyph unicode="V" horiz-adv-x="1370" d="M76 1479h641v-64h-27q-104 0 -150 -25.5t-46 -82.5q0 -9 2 -25q1 -6 2 -10l110 -1018l514 817q48 76 73.5 137t25.5 99q0 56 -43.5 82t-135.5 26h-10v64h543v-64q-96 -11 -162 -59t-156 -193l-751 -1216h-60l-143 1304q-11 99 -51.5 129t-173.5 35z" />
<glyph unicode="W" horiz-adv-x="1919" d="M68 1415v64h585l2 -64q-117 0 -154.5 -22.5t-37.5 -87.5q0 -17 0.5 -28t1.5 -20l100 -940l439 886q3 20 4.5 36.5t1.5 30.5q0 81 -42.5 113t-152.5 32h-12v64h575v-64q-115 -8 -151.5 -35.5t-36.5 -95.5q0 -6 2 -29q1 -10 2 -16l100 -899l402 809q23 47 34 85t11 69 q0 56 -37.5 83t-116.5 27h-10l2 66h485v-64q-166 -21 -333 -371q-15 -31 -23 -47l-504 -1050h-61l-123 1116l-551 -1116h-57l-136 1290q0 4 -1 12q-18 166 -207 166z" />
<glyph unicode="X" horiz-adv-x="1448" d="M-90 0l8 65q81 8 160 57t178 154l410 439l-185 520q-37 106 -76 137.5t-122 34.5l-70 4l12 68h625l-4 -68h-55q-78 0 -109 -16.5t-31 -55.5q0 -13 5.5 -33t19.5 -59l137 -375l330 349q29 30 45 59.5t16 50.5q0 40 -40.5 59t-130.5 21l16 68h514l-9 -68 q-78 -6 -150.5 -51.5t-182.5 -165.5l-373 -399l192 -553q37 -104 74.5 -137.5t118.5 -38.5h86l-8 -66h-645l16 66h37q89 0 122 14.5t33 50.5q0 10 -5 28.5t-17 51.5l-156 426l-338 -356q-38 -42 -57.5 -77t-19.5 -63q0 -37 24.5 -53t114.5 -22h57l-10 -66h-557z" />
<glyph unicode="Y" horiz-adv-x="1348" d="M129 1415l14 64h625l-12 -64q-135 0 -169 -15.5t-34 -60.5q0 -14 4 -34t14 -56l170 -536l369 469q46 57 61 87.5t15 57.5q0 43 -46.5 65t-139.5 23l14 64h499l-14 -64q-68 -9 -138 -59t-144 -144l-449 -571l-102 -397q-9 -36 -13 -59t-4 -38q0 -46 36 -65t132 -19 q11 0 35.5 1.5t38.5 1.5l-14 -66h-715l18 66h58q114 0 157.5 29t69.5 124l110 408l-210 659q-23 71 -67 101t-128 30q-6 0 -20 -1t-21 -1z" />
<glyph unicode="Z" horiz-adv-x="1376" d="M-14 0v45l1157 1362h-281q-189 0 -307.5 -106.5t-216.5 -370.5l-62 14l140 535h970v-54l-1155 -1359h281q237 0 373 112t256 414l63 -23l-153 -569h-1065z" />
<glyph unicode="[" horiz-adv-x="735" d="M-59 -283l497 1762h436l-18 -72h-285l-456 -1618h313l-18 -72h-469z" />
<glyph unicode="\" horiz-adv-x="569" d="M96 1516h92l312 -1706h-90z" />
<glyph unicode="]" horiz-adv-x="735" d="M-201 -283l19 72h284l457 1618h-313l18 72h469l-497 -1762h-437z" />
<glyph unicode="^" horiz-adv-x="2048" d="M412 897l522 565h178l520 -565h-92l-518 436l-520 -436h-90z" />
<glyph unicode="_" horiz-adv-x="1024" d="M0 -365h1024v-118h-1024v118z" />
<glyph unicode="`" horiz-adv-x="1024" d="M389 1399q0 33 21.5 55.5t54.5 22.5q20 0 42 -13.5t42 -38.5l248 -309h-82l-266 197q-30 22 -45 43.5t-15 42.5z" />
<glyph unicode="a" horiz-adv-x="1120" d="M61 371q0 135 44 257.5t126 219.5q64 75 147 116.5t171 41.5q101 0 149 -61t52 -193l61 229h158l-125 -489q-37 -145 -56.5 -239t-19.5 -128q0 -46 13 -64t44 -18q56 0 112.5 80.5t131.5 269.5l47 -14q-63 -195 -142.5 -296t-168.5 -101q-64 0 -100.5 49t-36.5 135 q0 27 4 63t12 82q-53 -167 -141.5 -255.5t-202.5 -88.5q-124 0 -201.5 110.5t-77.5 293.5zM231 250q0 -106 34 -159.5t102 -53.5q56 0 113 41t98 112q58 102 93.5 241.5t35.5 273.5q0 123 -35 180t-111 57q-65 0 -123 -56t-106 -167q-47 -104 -74 -229.5t-27 -239.5z" />
<glyph unicode="b" horiz-adv-x="987" d="M98 285q0 113 69 356q21 75 32 115l137 526q6 22 9 43t3 37q0 36 -26.5 49.5t-106.5 13.5h-29v48l365 34l-193 -716q71 111 139.5 160.5t149.5 49.5q118 0 188 -97.5t70 -262.5q0 -144 -42.5 -268.5t-125.5 -222.5q-74 -88 -166 -135.5t-188 -47.5q-133 0 -209 84.5 t-76 233.5zM240 217q0 -88 38.5 -137t106.5 -49q69 0 126 49t105 151q59 124 92 265t33 268q0 81 -32.5 123.5t-94.5 42.5q-63 0 -126.5 -56.5t-120.5 -162.5q-57 -107 -92 -243.5t-35 -250.5z" />
<glyph unicode="c" horiz-adv-x="872" d="M66 379q0 144 51 269.5t145 213.5q72 68 161 106t175 38q102 0 161.5 -53.5t59.5 -143.5q0 -75 -38.5 -122.5t-98.5 -47.5q-50 0 -79.5 28.5t-29.5 77.5q0 30 16.5 55.5t45.5 41.5q21 11 60.5 14.5t39.5 24.5q0 25 -42 45t-101 20q-55 0 -103.5 -27t-87.5 -79 q-73 -101 -119 -253.5t-46 -297.5q0 -114 48 -180t132 -66q88 0 163.5 66.5t174.5 238.5l47 -26q-89 -181 -194 -269t-232 -88q-137 0 -223 114.5t-86 299.5z" />
<glyph unicode="d" horiz-adv-x="1124" d="M51 354q0 111 36 223.5t101 204.5q73 106 167 162.5t194 56.5q89 0 141 -64t60 -183l137 514q8 31 11 50.5t3 33.5q0 59 -206 65h-11l16 56l402 34l-309 -1194q-19 -71 -29 -128t-10 -87q0 -34 15 -52.5t42 -18.5q58 0 114 80.5t132 277.5l49 -12q-66 -204 -144.5 -306 t-168.5 -102q-65 0 -101.5 51.5t-36.5 143.5q0 25 3.5 53.5t11.5 62.5q-55 -149 -144 -230t-198 -81q-117 0 -197 111t-80 278zM217 266q0 -115 35.5 -172t105.5 -57t128 52t110 163q49 106 75.5 217t26.5 211q0 128 -36.5 190t-112.5 62q-67 0 -124.5 -53t-105.5 -160 q-47 -105 -74.5 -227.5t-27.5 -225.5z" />
<glyph unicode="e" horiz-adv-x="899" d="M61 354q0 126 45.5 241.5t131.5 207.5q86 93 190.5 147t198.5 54q87 0 138.5 -55t51.5 -148q0 -135 -147 -243t-436 -185q-6 -31 -8.5 -58t-2.5 -49q0 -108 46 -169.5t126 -61.5q94 0 188 90.5t183 267.5l49 -33q-99 -202 -208.5 -297.5t-241.5 -95.5q-136 0 -220 106.5 t-84 280.5zM242 432q227 64 342.5 166.5t115.5 241.5q0 49 -24 74.5t-70 25.5q-111 0 -212 -138.5t-152 -369.5z" />
<glyph unicode="f" horiz-adv-x="621" d="M-313 -309q0 50 29 82t75 32q37 0 60.5 -23.5t23.5 -62.5q0 -25 -14.5 -53.5t-14.5 -32.5q0 -13 5 -17.5t20 -4.5q48 0 91 33t73 94q40 85 128 541q42 218 68 348l52 252h-199l18 84h203q77 263 200 403.5t277 140.5q77 0 119.5 -36t42.5 -101q0 -51 -28.5 -80.5 t-75.5 -29.5q-41 0 -62.5 22t-21.5 64q0 24 15 54t15 36q0 14 -5 19t-21 5q-100 0 -176 -126.5t-123 -370.5h213l-10 -84h-224l-82 -390q-108 -513 -225.5 -721t-288.5 -208q-70 0 -113.5 36.5t-43.5 94.5z" />
<glyph unicode="g" d="M-43 -246q0 58 33 92.5t86 34.5q45 0 71.5 -29.5t26.5 -80.5q0 -50 -35 -79.5t-35 -31.5q0 -18 29.5 -31.5t71.5 -13.5q135 0 222.5 113t180.5 428q-62 -98 -128.5 -145.5t-141.5 -47.5q-126 0 -203.5 101t-77.5 268q0 120 40.5 244.5t111.5 224.5q71 101 154.5 153 t175.5 52q95 0 150 -66.5t71 -200.5l65 242h154l-234 -848q-86 -311 -212 -445t-328 -134q-115 0 -181.5 54t-66.5 146zM223 242q0 -105 33 -158t98 -53q50 0 102.5 33t98.5 94q69 92 113.5 236.5t44.5 279.5q0 129 -39.5 194.5t-116.5 65.5q-60 0 -112 -48.5t-99 -148.5 q-57 -124 -90 -258t-33 -237z" />
<glyph unicode="h" horiz-adv-x="1126" d="M41 0l334 1266q8 30 12 53.5t4 36.5q0 42 -30.5 56.5t-145.5 14.5l14 46l353 34l-252 -983q117 254 218.5 368t209.5 114q73 0 116.5 -56.5t43.5 -152.5q0 -61 -18 -129t-79 -211l-8 -20q-104 -248 -104 -318q0 -43 19 -66.5t54 -23.5q65 0 132.5 93t136.5 277l49 -26 q-79 -206 -161.5 -304t-176.5 -98q-82 0 -129 60t-47 164q0 72 23 154.5t95 239.5q8 17 21 46q82 179 82 231q0 37 -19 56.5t-55 19.5q-119 0 -269.5 -256t-277.5 -686h-145z" />
<glyph unicode="i" horiz-adv-x="713" d="M35 680q67 168 140.5 248t160.5 80q84 0 132 -61t48 -167q0 -102 -82 -304q-7 -18 -10 -25q-64 -157 -85.5 -227t-21.5 -109q0 -45 19.5 -68.5t56.5 -23.5q56 0 114 72t116 214l49 -22q-68 -167 -141.5 -245.5t-161.5 -78.5q-82 0 -131.5 64.5t-49.5 171.5q0 89 91 317 l2 5l14 36q92 226 92 303q0 46 -17.5 67t-56.5 21q-54 0 -111 -70.5t-126 -224.5zM399 1389q0 47 32.5 79.5t80.5 32.5t80.5 -32.5t32.5 -79.5q0 -48 -33.5 -81.5t-79.5 -33.5t-79.5 33.5t-33.5 81.5z" />
<glyph unicode="j" horiz-adv-x="672" d="M-262 -285q0 48 28.5 79.5t71.5 31.5q46 0 73.5 -27t27.5 -71q0 -27 -20.5 -59.5t-20.5 -39.5q0 -11 15 -19.5t38 -8.5q142 0 260 484q31 126 49 196l96 366q24 91 33.5 140.5t9.5 80.5q0 32 -15 50t-42 18q-65 0 -128 -79.5t-144 -264.5l-45 20q76 195 160 293.5 t173 98.5q78 0 120 -58t42 -166q0 -98 -50.5 -312.5t-135.5 -465.5q-87 -254 -175 -349t-222 -95q-86 0 -142.5 45t-56.5 112zM414 1382q0 47 33 80t79 33t79.5 -33.5t33.5 -79.5t-33.5 -79t-79.5 -33q-47 0 -79.5 33t-32.5 79z" />
<glyph unicode="k" horiz-adv-x="1065" d="M20 0l326 1266q12 47 15.5 66.5t3.5 33.5q0 32 -28 44.5t-106 12.5h-34l8 50l352 34l-229 -937q122 5 185.5 43t121.5 155q71 145 121 190.5t116 45.5q64 0 102 -37t38 -99q0 -51 -31.5 -83.5t-81.5 -32.5t-82.5 28.5t-32.5 73.5q0 15 1 25t3 20q-42 -22 -80.5 -108.5 t-58.5 -118.5q-33 -53 -75.5 -83.5t-104.5 -43.5q109 -12 154 -65t45 -175q0 -17 -2 -58t-2 -65q0 -51 15.5 -76.5t47.5 -25.5q53 0 116.5 86t125.5 244l51 -19q-74 -204 -166.5 -305.5t-204.5 -101.5q-73 0 -112 45t-39 129q0 48 10 131t10 117q0 59 -31 81.5t-118 22.5 q-8 0 -27.5 -1t-30.5 -1l-135 -508h-156z" />
<glyph unicode="l" horiz-adv-x="616" d="M80 182q0 80 49 254q15 54 23 83l202 753q6 22 9.5 46.5t3.5 47.5q0 30 -21 41.5t-78 11.5q-18 0 -38.5 -1t-43.5 -3l19 58l370 34l-270 -1013l-16 -60q-70 -266 -70 -317q0 -43 16 -65.5t46 -22.5q64 0 129.5 90t134.5 274l49 -26q-79 -208 -161.5 -306t-176.5 -98 q-81 0 -128.5 59t-47.5 160z" />
<glyph unicode="m" horiz-adv-x="1786" d="M8 608q68 198 147.5 298t170.5 100q65 0 103 -49t38 -134q0 -55 -13 -130.5t-38 -168.5h14q112 247 216 364.5t212 117.5q65 0 102 -48.5t37 -134.5q0 -55 -13 -130.5t-38 -168.5h23q118 249 226 365.5t220 116.5q76 0 120 -55.5t44 -151.5q0 -67 -20 -140.5t-78 -203.5 q-77 -172 -98 -235.5t-21 -102.5q0 -43 19.5 -65.5t56.5 -22.5q67 0 136.5 92t143.5 278l49 -28q-84 -210 -168 -306t-182 -96q-85 0 -134.5 60t-49.5 164q0 128 118 378l21 45q57 118 74.5 167.5t17.5 80.5q0 38 -20.5 59t-57.5 21q-125 0 -282.5 -262t-274.5 -682h-145 l174 666q20 73 30.5 127t10.5 81q0 34 -16.5 52t-46.5 18q-122 0 -270.5 -257.5t-266.5 -686.5h-145l174 666q18 69 28.5 124t10.5 84q0 33 -15.5 51.5t-42.5 18.5q-59 0 -116.5 -78.5t-135.5 -269.5z" />
<glyph unicode="n" horiz-adv-x="1233" d="M6 608q68 198 147.5 298t170.5 100q65 0 103 -49t38 -134q0 -55 -13 -130.5t-38 -168.5h24q117 254 219 368t209 114q73 0 115.5 -56t42.5 -153q0 -63 -18.5 -134t-75.5 -206l-8 -20q-105 -248 -105 -318q0 -44 18.5 -67t53.5 -23q65 0 133.5 93.5t136.5 276.5l47 -26 q-79 -208 -160.5 -305t-175.5 -97q-82 0 -130 60t-48 164q0 70 23 150t98 245q7 15 21 46q81 178 81 230q0 37 -20 57.5t-55 20.5q-119 0 -270 -258.5t-273 -685.5h-145l174 666q18 69 28.5 124t10.5 84q0 33 -15.5 51.5t-42.5 18.5q-60 0 -118.5 -79.5t-135.5 -268.5z" />
<glyph unicode="o" horiz-adv-x="1008" d="M61 397q0 104 34.5 207t97.5 189q76 103 176 158t213 55q155 0 250.5 -117.5t95.5 -308.5q0 -116 -37.5 -223t-110.5 -199q-73 -93 -169 -143t-201 -50q-154 0 -251.5 120.5t-97.5 311.5zM223 254q0 -107 48.5 -169t131.5 -62q59 0 111.5 32t91.5 92q72 111 116 268 t44 306q0 106 -46.5 166.5t-127.5 60.5q-78 0 -138.5 -50t-113.5 -159q-55 -114 -86 -243t-31 -242z" />
<glyph unicode="p" horiz-adv-x="1120" d="M-59 -389q111 7 158 194q7 29 12 45l215 812q17 66 26.5 123.5t9.5 86.5q0 34 -14.5 52t-42.5 18q-56 0 -111.5 -79.5t-130.5 -270.5l-45 14q71 208 145.5 304t166.5 96q57 0 89 -35.5t32 -98.5q0 -32 -7.5 -79.5t-21.5 -106.5h22q62 150 149.5 235t178.5 85 q128 0 205.5 -108.5t77.5 -289.5q0 -109 -31 -208t-94 -189q-76 -108 -168 -165.5t-187 -57.5q-78 0 -134.5 63t-73.5 172l-115 -444q-9 -34 -14 -63t-5 -46q0 -47 129 -63l-4 -47h-417v51zM408 295q0 -114 45 -180t122 -66q66 0 119.5 56.5t102.5 175.5q48 117 76 242 t28 212q0 100 -38.5 153.5t-110.5 53.5q-54 0 -103.5 -37.5t-93.5 -111.5q-69 -115 -108 -248t-39 -250z" />
<glyph unicode="q" horiz-adv-x="1016" d="M66 375q0 116 39 231t108 201q75 93 175.5 145t207.5 52q78 0 133 -52.5t76 -146.5l125 199h53l-315 -1221l-3 -11q-18 -74 -18 -89q0 -39 29.5 -55.5t105.5 -18.5l-6 -49h-481l12 45q150 6 196 182l1 4l84 330q-56 -71 -116.5 -104t-135.5 -33q-114 0 -192 111t-78 280z M227 246q0 -93 40 -146t108 -53q64 0 123.5 52t113.5 155q57 108 93 247t36 244q0 97 -37.5 147t-109.5 50q-74 0 -133 -50.5t-113 -162.5q-56 -115 -88.5 -245t-32.5 -238z" />
<glyph unicode="r" horiz-adv-x="901" d="M6 608q68 198 147.5 298t170.5 100q64 0 102.5 -49.5t38.5 -133.5q0 -51 -14 -130.5t-43 -198.5h22q118 288 198.5 400t164.5 112q74 0 117.5 -48.5t43.5 -130.5q0 -66 -36 -109.5t-91 -43.5q-46 0 -72 29.5t-26 82.5q0 29 16 51t52 42q7 4 22 9q33 14 33 32q0 10 -16 17 t-41 7q-96 0 -218 -243.5t-253 -700.5h-146l148 666q21 96 27.5 139.5t6.5 71.5q0 33 -14 50t-41 17q-58 0 -119 -84.5t-133 -263.5z" />
<glyph unicode="s" horiz-adv-x="877" d="M47 225q0 70 35 110t96 40q47 0 75 -31t28 -84q0 -35 -17 -59.5t-49 -36.5q-17 -7 -48.5 -10t-31.5 -17q0 -39 73 -78t169 -39q104 0 170.5 57t66.5 146q0 97 -200 214q-15 9 -22 13q-139 81 -178.5 135t-39.5 132q0 122 95.5 205.5t238.5 83.5q124 0 208.5 -73 t84.5 -175q0 -54 -31.5 -86.5t-83.5 -32.5q-49 0 -80 29t-31 73q0 30 15 55t38 37q10 5 28 10q34 9 34 29q0 22 -56 51t-120 29q-100 0 -162.5 -48t-62.5 -122q0 -41 26 -73t119 -88q29 -18 81 -48q99 -58 122 -79q47 -45 71.5 -98t24.5 -111q0 -143 -98.5 -230.5 t-261.5 -87.5q-143 0 -234.5 73.5t-91.5 184.5z" />
<glyph unicode="t" horiz-adv-x="672" d="M39 893l16 88h215l101 395h157l-104 -395h203l-21 -88h-207l-102 -434q-14 -58 -36 -153q-40 -161 -40 -187q0 -42 20 -64t58 -22q69 0 143 91.5t148 268.5l47 -26q-87 -210 -173.5 -307t-187.5 -97q-87 0 -138.5 60.5t-51.5 162.5q0 52 30 176q5 20 7 29l123 502h-207z " />
<glyph unicode="u" horiz-adv-x="1235" d="M0 604q80 207 163 304.5t177 97.5q82 0 129 -60t47 -164q0 -72 -23.5 -154.5t-94.5 -239.5q-8 -17 -21 -46q-82 -179 -82 -231q0 -37 19 -56.5t55 -19.5q120 0 269 255t280 691h145l-174 -666q-20 -73 -30.5 -127t-10.5 -82q0 -32 16 -51.5t43 -19.5q59 0 116.5 78.5 t135.5 271.5l49 -12q-68 -200 -147.5 -301t-169.5 -101q-64 0 -102.5 51t-38.5 136q0 58 14 143t43 197h-16q-119 -275 -226.5 -401t-220.5 -126q-74 0 -117 55.5t-43 151.5q0 61 18.5 131.5t78.5 210.5l8 19q104 248 104 319q0 43 -19 65.5t-55 22.5q-64 0 -131.5 -93 t-136.5 -278z" />
<glyph unicode="v" horiz-adv-x="997" d="M6 621q76 197 156.5 291t173.5 94q82 0 130 -61t48 -165q0 -108 -73 -292q-12 -30 -17 -44q-45 -116 -61.5 -176.5t-16.5 -101.5q0 -59 28.5 -94t76.5 -35q62 0 121 44.5t122 139.5q78 117 125 236t47 190q0 24 -11.5 47.5t-37.5 53.5q-5 6 -15 17q-57 64 -57 122 q0 57 26 88t75 31q53 0 84 -53t31 -146q0 -120 -38 -248.5t-112 -261.5q-91 -166 -185 -248t-194 -82q-101 0 -160 73.5t-59 199.5q0 60 19.5 135t74.5 213q52 130 67 182.5t15 85.5q0 42 -19.5 66t-54.5 24q-60 0 -121 -79t-141 -261z" />
<glyph unicode="w" horiz-adv-x="1460" d="M0 604q73 206 152 304t174 98q80 0 127 -59.5t47 -164.5q0 -131 -118 -395l-5 -12l-1 -1q-95 -212 -95 -270q0 -35 19.5 -55t53.5 -20q119 0 261 254t268 698h155l-135 -559q-25 -107 -33 -160t-8 -96q0 -63 25 -96t71 -33q55 0 112 50t122 157q70 114 114 227.5 t44 169.5q0 32 -62.5 106t-62.5 150q0 50 25.5 79.5t70.5 29.5q55 0 89 -56t34 -149q0 -84 -31.5 -199.5t-89.5 -245.5q-84 -189 -181.5 -289t-197.5 -100q-94 0 -141 62.5t-47 185.5q0 68 9.5 143.5t29.5 159.5h-21q-116 -286 -223.5 -420.5t-220.5 -134.5q-72 0 -114 56.5 t-42 154.5q0 65 17.5 136t74.5 208q69 164 90 232.5t21 109.5q0 44 -18 67t-52 23q-63 0 -129 -93.5t-135 -281.5z" />
<glyph unicode="x" horiz-adv-x="1083" d="M23 143q0 76 37.5 126t93.5 50q40 0 65 -27t25 -73q0 -55 -38 -113t-38 -63q0 -12 6 -17.5t21 -5.5q38 0 83 47t82 128q53 112 86 259.5t33 272.5q0 107 -25 161t-75 54q-66 0 -137 -91.5t-152 -279.5l-47 13q79 205 171.5 313.5t186.5 108.5q78 0 121 -76t43 -213 q0 -34 -2 -65.5t-6 -61.5h18q64 210 142.5 313t175.5 103q69 0 111.5 -51t42.5 -136q0 -72 -33.5 -116t-87.5 -44q-45 0 -70 28.5t-25 80.5q0 49 38 97t38 55q0 12 -6 17t-20 5q-45 0 -96 -52t-93 -142q-58 -127 -90.5 -269t-32.5 -268q0 -89 29.5 -140t81.5 -51 q66 0 138.5 96t156.5 294l35 -37q-85 -212 -169.5 -311t-181.5 -99q-82 0 -130 74t-48 205q0 27 3 59.5t10 75.5h-21q-46 -193 -126.5 -303.5t-170.5 -110.5q-65 0 -109 52t-44 128z" />
<glyph unicode="y" horiz-adv-x="1124" d="M16 608q78 206 158 303t172 97q80 0 127 -59.5t47 -162.5q0 -136 -114 -387l-6 -13q-8 -17 -20 -45q-77 -172 -77 -220q0 -36 19.5 -56t54.5 -20q111 0 251 237.5t300 698.5h143l-235 -872q-81 -299 -195.5 -424t-298.5 -125q-116 0 -184 55.5t-68 148.5q0 51 33.5 85 t81.5 34q42 0 69 -31t27 -81q0 -27 -27.5 -63t-27.5 -46q0 -21 28.5 -36t71.5 -15q108 0 186.5 102t129.5 307l108 439q-113 -251 -212.5 -364t-205.5 -113q-72 0 -114.5 56t-42.5 152q0 61 18 130t76 206q71 168 90.5 232t19.5 104q0 42 -18.5 64t-52.5 22 q-64 0 -129 -90.5t-136 -275.5z" />
<glyph unicode="z" horiz-adv-x="897" d="M39 49q0 58 52 142.5t153 189.5q97 101 252 216t181 158q-13 -2 -26.5 -3.5t-23.5 -1.5q-46 0 -137 35.5t-140 35.5q-77 0 -127.5 -44t-113.5 -179l-48 18q87 190 179.5 287.5t185.5 97.5q44 0 82 -26.5t67 -76.5q7 -13 18 -35q31 -66 71 -66q19 0 27.5 13.5t8.5 43.5 q0 13 -1 34t-1 30q0 42 15 62.5t45 20.5q28 0 45.5 -19t17.5 -50q0 -50 -51.5 -130.5t-144.5 -176.5q-81 -84 -234 -204t-205 -179q31 6 46 8t26 2q59 0 161.5 -41t145.5 -41q66 0 111 46t90 163l41 -14q-51 -189 -133 -291.5t-182 -102.5q-46 0 -85.5 26t-68.5 75l-15 24 q-59 99 -106 99q-28 0 -43.5 -17.5t-15.5 -48.5q0 -11 5 -40.5t5 -49.5q0 -35 -16 -51.5t-50 -16.5q-28 0 -45.5 21.5t-17.5 56.5z" />
<glyph unicode="{" horiz-adv-x="1024" d="M176 606v60q165 15 223 74t58 216v213q0 200 81 273.5t298 73.5h10v-51q-142 -2 -194 -55.5t-52 -209.5v-143q0 -226 -61 -308.5t-226 -113.5q165 -31 226 -113.5t61 -308.5v-143q0 -156 51.5 -208.5t194.5 -54.5v-51h-10q-217 0 -298 73.5t-81 272.5v213q0 158 -59 218 t-222 73z" />
<glyph unicode="|" horiz-adv-x="1024" d="M449 -483v2048h126v-2048h-126z" />
<glyph unicode="}" horiz-adv-x="1024" d="M178 -193q143 2 194.5 54.5t51.5 208.5v143q0 226 61 308.5t226 113.5q-165 31 -226 113.5t-61 308.5v143q0 156 -52 209.5t-194 55.5v51h10q216 0 297.5 -74t81.5 -273v-213q0 -157 58 -216t223 -74v-60q-163 -13 -222 -73t-59 -218v-213q0 -198 -81.5 -272t-297.5 -74 h-10v51z" />
<glyph unicode="~" horiz-adv-x="1706" d="M178 461v133q105 73 202 109t185 36q56 0 116.5 -12.5t174.5 -52.5q12 -4 35 -13q164 -59 254 -59q85 0 176 36.5t209 119.5v-131q-101 -72 -197.5 -108t-189.5 -36q-43 0 -90.5 9t-100.5 26q-30 10 -87 31q-202 72 -302 72q-83 0 -173.5 -37.5t-211.5 -122.5z" />
<glyph unicode="&#xa0;" />
<glyph unicode="&#xa1;" horiz-adv-x="594" d="M39 84q0 69 71 215q35 74 52 115q59 148 114 316t107 355l47 -10q-61 -237 -97 -454.5t-52 -438.5q-8 -101 -38.5 -147.5t-88.5 -46.5q-47 0 -81 28.5t-34 67.5zM358 1386q0 51 35.5 86t85.5 35q51 0 86 -35t35 -86q0 -50 -35 -85t-86 -35q-49 0 -85 35t-36 85z" />
<glyph unicode="&#xa2;" d="M96 367q0 135 60 262t174 233q73 69 154.5 105.5t162.5 36.5q18 -1 34.5 -2.5t33.5 -3.5l96 235h74l-107 -262q47 -31 68.5 -72.5t21.5 -97.5q0 -74 -38 -119t-101 -45q-16 0 -35.5 4t-44.5 12l-241 -596q15 -6 31.5 -9t33.5 -3q81 0 163 74t173 231l39 -35 q-77 -166 -181.5 -255t-222.5 -89q-18 0 -62 8q-3 0 -5 1l-113 -279h-76l123 303q-106 51 -160.5 142.5t-54.5 220.5zM272 297q0 -71 20 -122.5t58 -78.5l254 629q4 9 10 26q36 101 121 101h13q21 0 27.5 4.5t6.5 17.5q0 28 -34.5 50t-81.5 22q-78 0 -146 -51t-121 -150 q-59 -109 -93 -230.5t-34 -217.5z" />
<glyph unicode="&#xa3;" d="M-25 86q0 70 57.5 117t147.5 47q24 0 52.5 -3.5t62.5 -10.5q17 62 26 177t11 283h-226v88h232q26 240 154 398.5t284 158.5q85 0 141 -49.5t56 -124.5q0 -65 -29.5 -101t-83.5 -36q-43 0 -69.5 25.5t-26.5 66.5q0 57 51 88t51 35q0 16 -27 32.5t-59 16.5 q-116 0 -188 -136.5t-78 -373.5h266v-88h-268q-15 -124 -51.5 -243t-95.5 -237q6 -3 17 -6q221 -63 282 -63q100 0 164 62.5t83 181.5l41 -8q-21 -208 -100 -313t-215 -105q-97 0 -273 128q-25 18 -38 28q-50 -79 -107 -118.5t-121 -39.5q-51 0 -87 36t-36 87zM39 96 q0 -35 20.5 -54t57.5 -19q51 0 86.5 33t60.5 104q-40 13 -62.5 17.5t-43.5 4.5q-56 0 -87.5 -22.5t-31.5 -63.5z" />
<glyph unicode="&#xa4;" horiz-adv-x="1241" d="M86 424l207 205q-44 58 -66 122t-22 134q0 69 22 133.5t66 122.5l-207 205l72 73l207 -207q60 46 122.5 68.5t133.5 22.5t135.5 -22.5t124.5 -68.5l204 207l72 -73l-205 -205q43 -57 64.5 -121t21.5 -135t-21.5 -135.5t-64.5 -120.5l205 -205l-72 -74l-204 207 q-57 -44 -121.5 -66t-138.5 -22t-136.5 21.5t-119.5 66.5l-207 -207zM309 887q0 -131 91.5 -223.5t222.5 -92.5q129 0 221 93t92 223q0 129 -91.5 221t-221.5 92t-222 -92t-92 -221z" />
<glyph unicode="&#xa5;" horiz-adv-x="1298" d="M12 555l19 66h483l-74 208h-342l19 66h299l-86 244q-22 61 -66 87.5t-125 26.5q-7 0 -21.5 -1t-23.5 -1l15 58h591l-12 -60q-137 0 -171 -13.5t-34 -51.5q0 -13 4.5 -29.5t16.5 -48.5l168 -475l368 416q52 57 65 81t13 46q0 37 -46.5 56.5t-141.5 21.5l16 57h500l-14 -58 q-70 -7 -140 -51t-143 -127l-160 -178h326l-19 -66h-364l-182 -208h479l-19 -66h-514l-98 -340q-8 -30 -12 -50.5t-4 -33.5q0 -41 36 -57.5t138 -16.5h67l-14 -57h-682l18 57h54q119 0 162.5 27t68.5 111l107 360h-525z" />
<glyph unicode="&#xa6;" horiz-adv-x="1024" d="M449 -350v758h126v-758h-126zM449 674v758h126v-758h-126z" />
<glyph unicode="&#xa7;" horiz-adv-x="1024" d="M109 37q0 47 27 76.5t71 29.5q35 0 60.5 -23.5t25.5 -56.5q0 -32 -36 -75t-36 -58q0 -30 42 -49.5t108 -19.5q86 0 143 51t57 127q0 48 -29 105t-122 173l-101 129q-79 101 -109 165t-30 126q0 106 69 177t171 71q17 0 40 -3t50 -9q-71 80 -105 148.5t-34 129.5 q0 117 82 189.5t215 72.5q106 0 176.5 -56t70.5 -138q0 -51 -24 -81t-66 -30q-38 0 -64 23t-26 55q0 33 32 71t32 50q0 26 -40 47t-95 21q-85 0 -140 -49.5t-55 -125.5q0 -46 26 -97t123 -171l103 -127q77 -97 109 -165.5t32 -133.5q0 -107 -68 -177.5t-171 -70.5 q-19 0 -42 4t-48 10q71 -80 107 -154.5t36 -141.5q0 -112 -83.5 -184t-215.5 -72q-114 0 -191 63t-77 154zM283 786q0 -36 16 -78t49 -94q81 -122 136 -166.5t118 -44.5q67 0 113.5 45.5t46.5 110.5q0 35 -16 75t-52 95q-94 141 -142.5 177t-111.5 36q-68 0 -112.5 -44 t-44.5 -112z" />
<glyph unicode="&#xa8;" horiz-adv-x="1024" d="M358 1278q0 42 32 74t73 32q44 0 76 -31.5t32 -74.5q0 -47 -30.5 -78t-77.5 -31q-45 0 -75 31t-30 78zM727 1278q0 42 31.5 74t72.5 32q45 0 77 -31.5t32 -74.5q0 -47 -31 -78t-78 -31q-45 0 -74.5 31t-29.5 78z" />
<glyph unicode="&#xa9;" horiz-adv-x="1683" d="M139 678q0 140 53 268.5t152 229.5q98 99 228 152.5t272 53.5q137 0 266.5 -53.5t226.5 -150.5q98 -97 152.5 -228.5t54.5 -271.5t-53 -268t-154 -230q-98 -100 -225 -152.5t-270 -52.5t-269 52.5t-227 152.5t-154 227t-53 271zM225 678q0 -125 47 -238.5t136 -201.5 q88 -89 198.5 -135t235.5 -46q126 0 236.5 46t197.5 135q88 90 135 203t47 237t-47.5 240.5t-132.5 201.5q-86 87 -200.5 135t-233.5 48q-123 0 -237.5 -48.5t-200.5 -136.5q-88 -89 -134.5 -202.5t-46.5 -237.5zM426 664q0 186 116 312t285 126q74 0 148 -34t82 -34 q27 0 42 14.5t21 47.5h35l2 -314h-41q-34 137 -104 206t-176 69q-123 0 -185.5 -94.5t-62.5 -278.5q0 -189 67 -285t199 -96q86 0 156 43t127 131l34 -24q-58 -105 -143 -157t-199 -52q-167 0 -285 123t-118 297z" />
<glyph unicode="&#xaa;" horiz-adv-x="840" d="M47 1036q0 95 32.5 180.5t94.5 153.5q47 53 109.5 82t128.5 29q75 0 111.5 -43t39.5 -135l45 159h119l-94 -342q-28 -100 -43 -166.5t-15 -89.5q0 -32 10 -44.5t33 -12.5q43 0 85.5 55.5t99.5 188.5l35 -9q-49 -137 -108 -207.5t-126 -70.5q-48 0 -75 34t-27 95 q0 20 3 46t9 54q-41 -116 -107.5 -177.5t-150.5 -61.5q-94 0 -151.5 77t-57.5 205zM174 950q0 -74 25 -110.5t75 -36.5q44 0 86.5 28t73.5 78q44 73 70 171t26 190q0 86 -26 126t-82 40q-50 0 -93 -39t-79 -117q-36 -73 -56 -160t-20 -170z" />
<glyph unicode="&#xab;" horiz-adv-x="1001" d="M180 487q0 10 44 40q40 28 65 48q75 61 159 137t95 76q6 0 10 -4t4 -10q0 -18 -55.5 -80.5t-198.5 -206.5q60 -109 95.5 -184.5t35.5 -93.5q0 -8 -3 -13t-9 -6q-12 0 -29 26q-8 12 -14 19q-60 80 -129.5 163.5t-69.5 88.5zM500 487q0 10 43 40q40 28 65 48 q77 62 159.5 137.5t92.5 75.5q7 0 12 -4t5 -10q0 -18 -55.5 -80.5t-198.5 -206.5q60 -109 95.5 -184.5t35.5 -93.5q0 -8 -4.5 -13.5t-10.5 -5.5q-11 1 -25 23q-10 16 -16 23q-60 79 -129 162.5t-69 88.5z" />
<glyph unicode="&#xac;" horiz-adv-x="1706" d="M254 741v117h1198v-502h-115v385h-1083z" />
<glyph unicode="&#xad;" horiz-adv-x="676" d="M82 434l33 137h471l-31 -137h-473z" />
<glyph unicode="&#xae;" horiz-adv-x="1683" d="M139 678q0 140 53 268.5t152 229.5q98 99 228 152.5t272 53.5q138 0 268.5 -54t228.5 -152q97 -97 150 -228t53 -272q0 -137 -55.5 -267.5t-157.5 -232.5q-99 -99 -224.5 -150t-270.5 -51q-137 0 -263 52.5t-227 152.5t-154 227t-53 271zM225 678q0 -127 46.5 -239 t136.5 -201q88 -89 198.5 -135t235.5 -46q126 0 236.5 46t197.5 135q88 90 135 203t47 237t-47.5 241.5t-132.5 200.5q-86 87 -200.5 135t-233.5 48q-122 0 -236 -48t-202 -137t-134.5 -202.5t-46.5 -237.5zM469 291v40q72 3 99.5 24.5t27.5 76.5v516q0 55 -26 76t-101 25 v43h393q147 0 232.5 -54.5t85.5 -146.5q0 -76 -69.5 -124t-217.5 -75q93 -29 142 -77.5t71 -133.5q6 -22 11 -63q13 -88 59 -88q32 0 49.5 34t17.5 99h43v-12q0 -88 -40.5 -133.5t-119.5 -45.5q-46 0 -78.5 17t-48.5 49q-18 40 -21 113.5t-9 95.5q-20 68 -70.5 100.5 t-136.5 32.5h-33v-248q0 -54 26.5 -75.5t98.5 -25.5v-40h-385zM729 719q16 -1 32 -1.5t34 -0.5q112 0 173.5 45.5t61.5 128.5q0 73 -53 117.5t-143 44.5q-52 0 -78.5 -18.5t-26.5 -53.5v-262z" />
<glyph unicode="&#xaf;" horiz-adv-x="1024" d="M367 1208l30 140h539l-31 -140h-538z" />
<glyph unicode="&#xb0;" horiz-adv-x="674" d="M55 1171q0 119 82.5 201t200.5 82q117 0 200 -83t83 -200q0 -116 -83.5 -199t-201.5 -83t-199.5 82t-81.5 200zM135 1171q0 -84 59.5 -143t143.5 -59t142.5 59t58.5 143t-58.5 142.5t-142.5 58.5t-143.5 -58.5t-59.5 -142.5z" />
<glyph unicode="&#xb1;" horiz-adv-x="1706" d="M254 41v117h1198v-117h-1198zM254 719v117h541v344h118v-344h539v-117h-539v-344h-118v344h-541z" />
<glyph unicode="&#xb2;" horiz-adv-x="666" d="M-6 543q0 38 41.5 85.5t136.5 116.5q9 7 28 21q129 92 199 176q56 67 85.5 132.5t29.5 119.5q0 46 -28 72t-78 26q-43 0 -89 -20t-90 -58q-57 -48 -88.5 -103.5t-31.5 -106.5q0 -29 13.5 -44.5t39.5 -15.5q48 0 88 57.5t63 159.5l31 -6q-22 -114 -72.5 -178t-117.5 -64 q-41 0 -62.5 23.5t-21.5 67.5q0 39 19 83t56 91q60 71 132.5 110t144.5 39q90 0 148.5 -52.5t58.5 -131.5q0 -68 -46.5 -130t-154.5 -139q-71 -50 -184 -121t-139 -97q23 5 40.5 7.5t30.5 2.5q51 0 124 -26t97 -26q54 0 94 42.5t64 123.5l29 -12q-34 -123 -103 -196.5 t-149 -73.5q-36 0 -65 13.5t-57 44.5q-8 9 -22 26q-43 51 -71 51q-18 0 -29.5 -11.5t-11.5 -29.5v-37q0 -29 -10.5 -43t-30.5 -14q-18 0 -29.5 12.5t-11.5 32.5z" />
<glyph unicode="&#xb3;" horiz-adv-x="666" d="M18 666q0 53 29.5 85.5t77.5 32.5q34 0 55 -18t21 -47q0 -38 -24 -61t-62 -23q-11 0 -23.5 4t-15.5 4q-5 0 -8.5 -2.5t-4.5 -7.5q0 -35 42 -66.5t94 -31.5q45 0 82.5 18t66.5 55q34 41 55 97t21 102t-24.5 73t-65.5 27q-16 0 -38.5 -5t-31.5 -5q-11 0 -17.5 6t-6.5 17 t7.5 16.5t20.5 5.5h23q94 0 164.5 79.5t70.5 182.5q0 46 -24 70t-70 24q-36 0 -80 -20t-82 -55q-34 -31 -53.5 -65.5t-19.5 -65.5q0 -28 15 -44t40 -16q36 0 65.5 40.5t47.5 113.5l28 -6q-20 -85 -57 -129.5t-88 -44.5q-39 0 -61.5 23.5t-22.5 64.5q0 35 24.5 77.5 t65.5 77.5q46 38 97 58t104 20q84 0 132 -42t48 -116q0 -84 -64 -143.5t-198 -99.5q77 -12 120.5 -57.5t43.5 -112.5q0 -107 -89.5 -181.5t-218.5 -74.5q-98 0 -154.5 44t-56.5 122z" />
<glyph unicode="&#xb4;" horiz-adv-x="1024" d="M449 1116l292 295q31 31 60 47.5t53 16.5q36 0 59 -22.5t23 -57.5q0 -24 -17 -44t-61 -46l-321 -189h-88z" />
<glyph unicode="&#xb5;" horiz-adv-x="1120" d="M-80 -330q0 40 64.5 273.5t105.5 427.5l109 514h147l-104 -492q-6 -30 -9.5 -58.5t-3.5 -53.5q0 -83 42 -129t118 -46q98 0 163.5 68.5t94.5 200.5l111 510h149l-114 -531q-13 -59 -17 -87.5t-4 -49.5q0 -48 26 -78t66 -30q35 0 65.5 18t51.5 51t41 93.5t39 60.5 q12 0 19 -10t7 -27q0 -25 -11 -66.5t-29 -83.5q-38 -82 -95 -122.5t-135 -40.5q-68 0 -108.5 51t-40.5 139v23q-46 -110 -116 -164t-165 -54q-96 0 -152.5 54.5t-70.5 161.5q-27 -136 -52 -339q-34 -272 -112 -272q-37 0 -58.5 23.5t-21.5 64.5z" />
<glyph unicode="&#xb6;" horiz-adv-x="1024" d="M76 1130q0 157 107.5 253t285.5 96h479v-78h-125v-1401h-94v1401h-182v-1401h-96v782q-173 8 -274 102.5t-101 245.5z" />
<glyph unicode="&#xb7;" horiz-adv-x="506" d="M113 653q0 57 39 96t96 39t96 -39t39 -96t-39 -96t-96 -39t-96 39t-39 96z" />
<glyph unicode="&#xb8;" horiz-adv-x="1024" d="M209 -379l35 90q59 -37 119.5 -57.5t113.5 -20.5q56 0 83.5 22.5t27.5 68.5q0 42 -26.5 64t-76.5 22q-14 0 -36 -2.5t-62 -8.5l66 201h65l-36 -115q11 2 24 3t37 1q87 0 136.5 -43.5t49.5 -121.5q0 -85 -59 -132t-166 -47q-56 0 -127.5 18.5t-167.5 57.5z" />
<glyph unicode="&#xb9;" horiz-adv-x="666" d="M27 520l12 41h20q35 0 64 3.5t49 8.5q39 14 56 73q5 16 7 23l132 453q0 2 1 6q3 10 3 13q0 9 -7.5 12.5t-41.5 3.5h-140v39h19q111 0 182 32t106 97h37l-192 -677q-3 -7 -4.5 -14.5t-1.5 -17.5q0 -32 26 -43.5t138 -11.5l-11 -41h-454z" />
<glyph unicode="&#xba;" horiz-adv-x="756" d="M47 1055q0 73 25.5 145t72.5 131q57 73 131.5 111.5t159.5 38.5q116 0 188 -82.5t72 -216.5q0 -81 -27.5 -155.5t-82.5 -139.5t-127 -100t-152 -35q-114 0 -187 84.5t-73 218.5zM168 954q0 -75 36 -118t99 -43q45 0 84.5 22t67.5 64q54 79 87 189t33 212q0 74 -35 117 t-96 43q-58 0 -103.5 -35t-84.5 -111q-42 -80 -65 -170t-23 -170z" />
<glyph unicode="&#xbb;" horiz-adv-x="1001" d="M131 207q0 18 55.5 80.5t198.5 206.5q-60 109 -95.5 184.5t-35.5 93.5q0 8 3 12t9 4q12 0 29 -25q9 -13 14 -19q62 -81 130.5 -163t68.5 -87q0 -11 -47 -44q-38 -27 -62 -47q-73 -59 -158 -134.5t-96 -75.5q-6 0 -10 4t-4 10zM451 207q0 18 55 80.5t199 206.5 q-61 109 -96.5 184.5t-35.5 93.5q1 8 4.5 12t10.5 4q11 0 25 -22q10 -16 16 -23q62 -82 131 -163t69 -86q0 -11 -46 -44q-38 -27 -62 -47q-73 -59 -158 -134.5t-96 -75.5q-7 0 -11.5 4t-4.5 10z" />
<glyph unicode="&#xbc;" horiz-adv-x="1614" d="M27 573l12 39h18q37 0 64.5 3t41.5 7q39 13 57 73q3 11 5 18l125 422q1 2 2 6q2 9 2 12q0 10 -6.5 13t-38.5 3h-135v35h19q108 0 175 29.5t99 91.5h37l-185 -633q0 -2 -2 -7q-4 -13 -4 -21q0 -31 25.5 -41.5t132.5 -10.5l-10 -39h-434zM319 -33l920 1483h102l-921 -1483 h-101zM938 43q0 27 32 43t97 21q80 117 136.5 278.5t88.5 366.5h113q-41 -152 -117 -314.5t-186 -330.5q18 -5 77.5 -14t98.5 -17l88 268h92l-88 -276q57 0 90.5 25t50.5 81h25q-11 -77 -57 -117.5t-127 -44.5l-49 -153h-95l52 159q-57 13 -99.5 28.5t-81.5 37.5 q-26 -34 -54 -52t-54 -18q-16 0 -24.5 7.5t-8.5 21.5z" />
<glyph unicode="&#xbd;" horiz-adv-x="1614" d="M27 573l12 39h18q37 0 64.5 3t41.5 7q39 13 57 73q3 11 5 18l125 422q1 2 2 6q2 9 2 12q0 10 -6.5 13t-38.5 3h-135v35h19q108 0 175 29.5t99 91.5h37l-185 -633q0 -2 -2 -7q-4 -13 -4 -21q0 -31 25.5 -41.5t132.5 -10.5l-10 -39h-434zM319 -33l920 1483h102l-921 -1483 h-101zM973 20q0 36 40.5 81t131.5 110q8 6 25 18q123 85 190 166q53 62 80.5 122t27.5 112q0 43 -26.5 67.5t-73.5 24.5q-41 0 -84.5 -19t-87.5 -55q-54 -45 -84.5 -96.5t-30.5 -97.5q0 -28 13.5 -43t38.5 -15q46 0 84.5 54t60.5 149l31 -4q-23 -109 -71 -168t-114 -59 q-38 0 -59 21.5t-21 62.5q0 37 19 78t55 85q56 66 126 102t138 36q86 0 141.5 -48.5t55.5 -123.5q0 -61 -43.5 -118.5t-146.5 -129.5q-69 -48 -177 -114.5t-133 -90.5q7 1 22 4q32 6 46 6q48 0 117.5 -24.5t93.5 -24.5q52 0 90 39.5t59 114.5l29 -11q-32 -115 -98 -183 t-144 -68q-33 0 -60.5 12.5t-53.5 39.5l-21 24q-41 50 -67 50q-19 0 -30 -11t-11 -29v-33q0 -28 -9.5 -40.5t-29.5 -12.5q-17 0 -28 11.5t-11 28.5z" />
<glyph unicode="&#xbe;" horiz-adv-x="1614" d="M16 711q0 48 29 78t74 30q33 0 52 -16.5t19 -44.5q0 -35 -22 -56.5t-57 -21.5q-11 0 -24 4t-15 4q-4 0 -7.5 -3t-3.5 -7q0 -32 40 -61t89 -29q44 0 79 16.5t65 50.5q31 41 51.5 93t20.5 92q0 44 -23 69t-64 25q-15 0 -37 -5t-30 -5q-10 0 -16.5 6t-6.5 16t7.5 16.5 t19.5 6.5q4 0 11 -1t9 -1q92 0 160 74.5t68 170.5q0 43 -23.5 64.5t-68.5 21.5q-34 0 -75.5 -18.5t-78.5 -50.5q-33 -29 -51.5 -61.5t-18.5 -61.5q0 -24 14 -38.5t38 -14.5q35 0 63 37t43 104l29 -6q-18 -79 -53.5 -120.5t-83.5 -41.5q-39 0 -60.5 22t-21.5 60q0 34 23 73.5 t63 71.5q42 36 91 54t101 18q81 0 125.5 -38t44.5 -107q0 -80 -60.5 -135.5t-187.5 -92.5q74 -12 115 -54t41 -105q0 -100 -85.5 -170t-207.5 -70q-94 0 -148.5 42.5t-54.5 115.5zM319 -33l920 1483h102l-921 -1483h-101zM938 43q0 27 32 43t97 21q80 117 136.5 278.5 t88.5 366.5h113q-41 -152 -117 -314.5t-186 -330.5q18 -5 77.5 -14t98.5 -17l88 268h92l-88 -276q57 0 90.5 25t50.5 81h25q-11 -77 -57 -117.5t-127 -44.5l-49 -153h-95l52 159q-57 13 -99.5 28.5t-81.5 37.5q-26 -34 -54 -52t-54 -18q-16 0 -24.5 7.5t-8.5 21.5z" />
<glyph unicode="&#xbf;" horiz-adv-x="1006" d="M131 272q0 189 323 429l12 9q100 74 128.5 110.5t28.5 74.5q0 37 -25.5 61.5t-65.5 24.5q-45 0 -80 -34.5t-69 -112.5l-47 26q26 87 82.5 139t122.5 52q72 0 121 -51t49 -128q0 -67 -43 -142t-127 -159q-22 -21 -63 -61q-216 -209 -216 -313q0 -69 43 -112.5t113 -43.5 q109 0 174 86.5t65 232.5q0 25 -2.5 44.5t-7.5 37.5l55 9q7 -28 10 -54t3 -51q0 -167 -85 -266.5t-227 -99.5q-123 0 -197.5 79.5t-74.5 212.5zM549 1386q0 51 35 86t86 35q50 0 85.5 -35t35.5 -86q0 -50 -35.5 -85t-85.5 -35t-85.5 35t-35.5 85z" />
<glyph unicode="&#xc0;" horiz-adv-x="1485" d="M-129 0v66q174 19 316 242q13 21 20 32l731 1155h100l146 -1280q10 -87 51 -116.5t176 -33.5v-65h-649v65q146 6 185.5 29t39.5 84q0 10 -1.5 27t-4.5 39l-25 241h-565l-104 -174q-26 -43 -37.5 -76.5t-11.5 -62.5q0 -55 42.5 -79t149.5 -28v-65h-559zM449 569h497 l-76 666zM795 1909q0 33 21.5 55.5t54.5 22.5q20 0 42 -13.5t42 -38.5l248 -309h-82l-266 197q-30 22 -45 43.5t-15 42.5z" />
<glyph unicode="&#xc1;" horiz-adv-x="1485" d="M-129 0v66q174 19 316 242q13 21 20 32l731 1155h100l146 -1280q10 -87 51 -116.5t176 -33.5v-65h-649v65q146 6 185.5 29t39.5 84q0 10 -1.5 27t-4.5 39l-25 241h-565l-104 -174q-26 -43 -37.5 -76.5t-11.5 -62.5q0 -55 42.5 -79t149.5 -28v-65h-559zM449 569h497 l-76 666zM855 1626l292 295q31 31 60 47.5t53 16.5q36 0 59 -22.5t23 -57.5q0 -24 -17 -44t-61 -46l-321 -189h-88z" />
<glyph unicode="&#xc2;" horiz-adv-x="1485" d="M-129 0v66q174 19 316 242q13 21 20 32l731 1155h100l146 -1280q10 -87 51 -116.5t176 -33.5v-65h-649v65q146 6 185.5 29t39.5 84q0 10 -1.5 27t-4.5 39l-25 241h-565l-104 -174q-26 -43 -37.5 -76.5t-11.5 -62.5q0 -55 42.5 -79t149.5 -28v-65h-559zM449 569h497 l-76 666zM717 1626l310 348h114l164 -348h-72l-168 195l-251 -195h-97z" />
<glyph unicode="&#xc3;" horiz-adv-x="1485" d="M-129 0v66q174 19 316 242q13 21 20 32l731 1155h100l146 -1280q10 -87 51 -116.5t176 -33.5v-65h-649v65q146 6 185.5 29t39.5 84q0 10 -1.5 27t-4.5 39l-25 241h-565l-104 -174q-26 -43 -37.5 -76.5t-11.5 -62.5q0 -55 42.5 -79t149.5 -28v-65h-559zM449 569h497 l-76 666zM756 1677q14 101 58.5 151t119.5 50q15 0 31.5 -2.5t40.5 -7.5l129 -33q21 -5 35 -7.5t22 -2.5q44 0 68 18.5t35 59.5h61q-19 -99 -69 -151t-123 -52q-17 0 -35.5 3t-42.5 9l-129 33q-25 6 -38 8t-21 2q-34 0 -54 -19t-28 -58z" />
<glyph unicode="&#xc4;" horiz-adv-x="1485" d="M-129 0v66q174 19 316 242q13 21 20 32l731 1155h100l146 -1280q10 -87 51 -116.5t176 -33.5v-65h-649v65q146 6 185.5 29t39.5 84q0 10 -1.5 27t-4.5 39l-25 241h-565l-104 -174q-26 -43 -37.5 -76.5t-11.5 -62.5q0 -55 42.5 -79t149.5 -28v-65h-559zM449 569h497 l-76 666zM764 1788q0 42 32 74t73 32q44 0 76 -31.5t32 -74.5q0 -47 -30.5 -78t-77.5 -31q-45 0 -75 31t-30 78zM1133 1788q0 42 31.5 74t72.5 32q45 0 77 -31.5t32 -74.5q0 -47 -31 -78t-78 -31q-45 0 -74.5 31t-29.5 78z" />
<glyph unicode="&#xc5;" horiz-adv-x="1485" d="M-129 0v66q176 19 318 246q12 18 18 28l721 1145q-85 20 -137 85.5t-52 153.5q0 105 72 176.5t176 71.5q105 0 176.5 -71.5t71.5 -176.5q0 -88 -53 -154.5t-140 -84.5l142 -1270q10 -87 51 -116.5t176 -33.5v-65h-649v65q146 6 185.5 29t39.5 84q0 10 -1.5 27t-4.5 39 l-25 241h-565l-104 -174q-26 -43 -37.5 -76.5t-11.5 -62.5q0 -55 42.5 -79t149.5 -28v-65h-559zM449 569h497l-76 666zM844 1724q0 -59 41.5 -101t101.5 -42t100.5 41.5t40.5 101.5t-40.5 101t-100.5 41t-101.5 -41t-41.5 -101z" />
<glyph unicode="&#xc6;" horiz-adv-x="2040" d="M-199 0l19 65q87 10 153 55t177 195l663 910q31 41 41 63.5t10 44.5q0 42 -39.5 60t-136.5 18h-18l16 68h1348l-115 -521h-65q5 47 7.5 82.5t2.5 63.5q0 82 -18 139t-54 92q-38 37 -107 52.5t-241 15.5q-106 0 -145 -23.5t-56 -89.5l-120 -465q10 -1 20 -1.5t31 -0.5 q136 0 215 67.5t127 225.5h57l-184 -700h-54q8 43 12.5 81.5t4.5 69.5q0 98 -58 143.5t-182 45.5h-8l-143 -563q-1 -5 -3 -12q-6 -24 -6 -31q0 -43 33.5 -58.5t142.5 -15.5q231 0 382.5 119.5t283.5 408.5l55 -20l-153 -584h-1155l16 66h10q93 0 136 31.5t67 119.5l70 266 h-478l-174 -250q-16 -24 -24 -47t-8 -45q0 -38 31 -56.5t94 -18.5h20l-18 -66h-482zM424 565h438l217 838h-43z" />
<glyph unicode="&#xc7;" horiz-adv-x="1333" d="M82 584q0 183 66 355.5t192 317.5q105 124 236.5 187t283.5 63q74 0 137 -16.5t131 -54.5q14 -8 39 -24q49 -32 72 -32q20 0 34.5 14t31.5 52l30 70h56l-136 -584h-50q-5 257 -88.5 385.5t-246.5 128.5q-102 0 -196.5 -57t-157.5 -158q-49 -77 -89.5 -172.5t-72.5 -206.5 q-33 -120 -50 -226t-17 -198q0 -189 89.5 -300.5t239.5 -111.5q174 0 304.5 118.5t201.5 342.5h68q-56 -247 -211.5 -387.5t-372.5 -140.5q-241 0 -382.5 171t-141.5 464zM279 -379l35 90q59 -37 119.5 -57.5t113.5 -20.5q56 0 83.5 22.5t27.5 68.5q0 42 -26.5 64t-76.5 22 q-14 0 -36 -2.5t-62 -8.5l66 201h65l-36 -115q11 2 24 3t37 1q87 0 136.5 -43.5t49.5 -121.5q0 -85 -59 -132t-166 -47q-56 0 -127.5 18.5t-167.5 57.5z" />
<glyph unicode="&#xc8;" horiz-adv-x="1495" d="M-51 0l16 66h10q93 0 135.5 31t67.5 122l285 1016q8 27 12 52.5t4 43.5q0 46 -35 65t-120 19h-33l12 64h1174l-115 -523l-64 5q6 62 8.5 100.5t2.5 62.5q0 162 -81 226.5t-298 64.5q-77 0 -120.5 -5t-70.5 -17q-40 -19 -71 -133q-4 -16 -7 -26l-118 -416q10 -2 21 -2.5 t34 -0.5q147 0 226.5 65.5t123.5 223.5h60l-170 -703l-64 5q8 34 12.5 66.5t4.5 64.5q0 107 -54 157.5t-168 50.5q-18 0 -28.5 -0.5t-18.5 -1.5l-131 -462q-14 -50 -20 -80t-6 -47q0 -48 32 -68t111 -20q159 0 263 34t185 111q69 65 132 160t129 231l57 -18l-154 -584h-1171 zM782 1909q0 33 21.5 55.5t54.5 22.5q20 0 42 -13.5t42 -38.5l248 -309h-82l-266 197q-30 22 -45 43.5t-15 42.5z" />
<glyph unicode="&#xc9;" horiz-adv-x="1495" d="M-51 0l16 66h10q93 0 135.5 31t67.5 122l285 1016q8 27 12 52.5t4 43.5q0 46 -35 65t-120 19h-33l12 64h1174l-115 -523l-64 5q6 62 8.5 100.5t2.5 62.5q0 162 -81 226.5t-298 64.5q-77 0 -120.5 -5t-70.5 -17q-40 -19 -71 -133q-4 -16 -7 -26l-118 -416q10 -2 21 -2.5 t34 -0.5q147 0 226.5 65.5t123.5 223.5h60l-170 -703l-64 5q8 34 12.5 66.5t4.5 64.5q0 107 -54 157.5t-168 50.5q-18 0 -28.5 -0.5t-18.5 -1.5l-131 -462q-14 -50 -20 -80t-6 -47q0 -48 32 -68t111 -20q159 0 263 34t185 111q69 65 132 160t129 231l57 -18l-154 -584h-1171 zM842 1626l292 295q31 31 60 47.5t53 16.5q36 0 59 -22.5t23 -57.5q0 -24 -17 -44t-61 -46l-321 -189h-88z" />
<glyph unicode="&#xca;" horiz-adv-x="1495" d="M-51 0l16 66h10q93 0 135.5 31t67.5 122l285 1016q8 27 12 52.5t4 43.5q0 46 -35 65t-120 19h-33l12 64h1174l-115 -523l-64 5q6 62 8.5 100.5t2.5 62.5q0 162 -81 226.5t-298 64.5q-77 0 -120.5 -5t-70.5 -17q-40 -19 -71 -133q-4 -16 -7 -26l-118 -416q10 -2 21 -2.5 t34 -0.5q147 0 226.5 65.5t123.5 223.5h60l-170 -703l-64 5q8 34 12.5 66.5t4.5 64.5q0 107 -54 157.5t-168 50.5q-18 0 -28.5 -0.5t-18.5 -1.5l-131 -462q-14 -50 -20 -80t-6 -47q0 -48 32 -68t111 -20q159 0 263 34t185 111q69 65 132 160t129 231l57 -18l-154 -584h-1171 zM704 1626l310 348h114l164 -348h-72l-168 195l-251 -195h-97z" />
<glyph unicode="&#xcb;" horiz-adv-x="1495" d="M-51 0l16 66h10q93 0 135.5 31t67.5 122l285 1016q8 27 12 52.5t4 43.5q0 46 -35 65t-120 19h-33l12 64h1174l-115 -523l-64 5q6 62 8.5 100.5t2.5 62.5q0 162 -81 226.5t-298 64.5q-77 0 -120.5 -5t-70.5 -17q-40 -19 -71 -133q-4 -16 -7 -26l-118 -416q10 -2 21 -2.5 t34 -0.5q147 0 226.5 65.5t123.5 223.5h60l-170 -703l-64 5q8 34 12.5 66.5t4.5 64.5q0 107 -54 157.5t-168 50.5q-18 0 -28.5 -0.5t-18.5 -1.5l-131 -462q-14 -50 -20 -80t-6 -47q0 -48 32 -68t111 -20q159 0 263 34t185 111q69 65 132 160t129 231l57 -18l-154 -584h-1171 zM751 1788q0 42 32 74t73 32q44 0 76 -31.5t32 -74.5q0 -47 -30.5 -78t-77.5 -31q-45 0 -75 31t-30 78zM1120 1788q0 42 31.5 74t72.5 32q45 0 77 -31.5t32 -74.5q0 -47 -31 -78t-78 -31q-45 0 -74.5 31t-29.5 78z" />
<glyph unicode="&#xcc;" horiz-adv-x="901" d="M-23 0l17 66h10q93 0 135 31t68 122l285 1016q7 27 11.5 52.5t4.5 43.5q0 46 -35 65t-121 19h-33l13 64h592l-9 -64h-10q-93 0 -136 -32t-69 -123l-284 -1016q-8 -27 -12.5 -53t-4.5 -44q0 -44 34.5 -62.5t119.5 -18.5h35l-13 -66h-598zM455 1909q0 33 21.5 55.5 t54.5 22.5q20 0 42 -13.5t42 -38.5l248 -309h-82l-266 197q-30 22 -45 43.5t-15 42.5z" />
<glyph unicode="&#xcd;" horiz-adv-x="901" d="M-23 0l17 66h10q93 0 135 31t68 122l285 1016q7 27 11.5 52.5t4.5 43.5q0 46 -35 65t-121 19h-33l13 64h592l-9 -64h-10q-93 0 -136 -32t-69 -123l-284 -1016q-8 -27 -12.5 -53t-4.5 -44q0 -44 34.5 -62.5t119.5 -18.5h35l-13 -66h-598zM515 1626l292 295q31 31 60 47.5 t53 16.5q36 0 59 -22.5t23 -57.5q0 -24 -17 -44t-61 -46l-321 -189h-88z" />
<glyph unicode="&#xce;" horiz-adv-x="901" d="M-23 0l17 66h10q93 0 135 31t68 122l285 1016q7 27 11.5 52.5t4.5 43.5q0 46 -35 65t-121 19h-33l13 64h592l-9 -64h-10q-93 0 -136 -32t-69 -123l-284 -1016q-8 -27 -12.5 -53t-4.5 -44q0 -44 34.5 -62.5t119.5 -18.5h35l-13 -66h-598zM377 1626l310 348h114l164 -348 h-72l-168 195l-251 -195h-97z" />
<glyph unicode="&#xcf;" horiz-adv-x="901" d="M-23 0l17 66h10q93 0 135 31t68 122l285 1016q7 27 11.5 52.5t4.5 43.5q0 46 -35 65t-121 19h-33l13 64h592l-9 -64h-10q-93 0 -136 -32t-69 -123l-284 -1016q-8 -27 -12.5 -53t-4.5 -44q0 -44 34.5 -62.5t119.5 -18.5h35l-13 -66h-598zM424 1788q0 42 32 74t73 32 q44 0 76 -31.5t32 -74.5q0 -47 -30.5 -78t-77.5 -31q-45 0 -75 31t-30 78zM793 1788q0 42 31.5 74t72.5 32q45 0 77 -31.5t32 -74.5q0 -47 -31 -78t-78 -31q-45 0 -74.5 31t-29.5 78z" />
<glyph unicode="&#xd0;" horiz-adv-x="1591" d="M-31 0l17 66h10q93 0 135 31t68 122l135 488h-293l25 84h292l127 445q8 27 11.5 51t3.5 46q0 45 -33.5 63.5t-118.5 18.5h-35l11 66h542q340 0 493.5 -134.5t153.5 -428.5q0 -187 -60 -349t-179 -297q-122 -138 -273 -205t-342 -67h-690zM397 178q0 -60 47 -86t156 -26 q133 0 238 42t188 130q53 56 98 137t82 188q51 149 78 278t27 226q0 179 -97.5 263.5t-304.5 84.5q-181 0 -249 -248l-5 -17l-100 -359h356l-22 -84h-359l-104 -388q-16 -60 -22.5 -91.5t-6.5 -49.5z" />
<glyph unicode="&#xd1;" horiz-adv-x="1690" d="M-25 0l11 66q188 14 283 358l1 6l232 832q-11 72 -74 109.5t-186 43.5l10 64h381l530 -1157l209 745q16 54 24.5 103t8.5 83q0 84 -50 122t-163 40l10 64h533l-6 -64q-103 0 -160.5 -64t-106.5 -239l-315 -1124h-72l-524 1171l-219 -788q-13 -44 -20 -85t-7 -71 q0 -78 50.5 -113t162.5 -37l-8 -65h-535zM770 1677q14 101 58.5 151t119.5 50q15 0 31.5 -2.5t40.5 -7.5l129 -33q21 -5 35 -7.5t22 -2.5q44 0 68 18.5t35 59.5h61q-19 -99 -69 -151t-123 -52q-17 0 -35.5 3t-42.5 9l-129 33q-25 6 -38 8t-21 2q-34 0 -54 -19t-28 -58z" />
<glyph unicode="&#xd2;" horiz-adv-x="1462" d="M80 563q0 188 60.5 359.5t176.5 312.5q112 134 257 206t303 72q228 0 371 -175t143 -461q0 -192 -69 -369.5t-198 -317.5q-109 -118 -240.5 -180.5t-271.5 -62.5q-241 0 -386.5 168.5t-145.5 447.5zM289 428q0 -190 87 -303t232 -113q96 0 184 53.5t154 151.5 q51 75 93.5 170t76.5 213t51 221.5t17 196.5q0 200 -85 314t-233 114q-124 0 -224 -80t-183 -244q-80 -159 -125 -343.5t-45 -350.5zM686 1909q0 33 21.5 55.5t54.5 22.5q20 0 42 -13.5t42 -38.5l248 -309h-82l-266 197q-30 22 -45 43.5t-15 42.5z" />
<glyph unicode="&#xd3;" horiz-adv-x="1462" d="M80 563q0 188 60.5 359.5t176.5 312.5q112 134 257 206t303 72q228 0 371 -175t143 -461q0 -192 -69 -369.5t-198 -317.5q-109 -118 -240.5 -180.5t-271.5 -62.5q-241 0 -386.5 168.5t-145.5 447.5zM289 428q0 -190 87 -303t232 -113q96 0 184 53.5t154 151.5 q51 75 93.5 170t76.5 213t51 221.5t17 196.5q0 200 -85 314t-233 114q-124 0 -224 -80t-183 -244q-80 -159 -125 -343.5t-45 -350.5zM746 1626l292 295q31 31 60 47.5t53 16.5q36 0 59 -22.5t23 -57.5q0 -24 -17 -44t-61 -46l-321 -189h-88z" />
<glyph unicode="&#xd4;" horiz-adv-x="1462" d="M80 563q0 188 60.5 359.5t176.5 312.5q112 134 257 206t303 72q228 0 371 -175t143 -461q0 -192 -69 -369.5t-198 -317.5q-109 -118 -240.5 -180.5t-271.5 -62.5q-241 0 -386.5 168.5t-145.5 447.5zM289 428q0 -190 87 -303t232 -113q96 0 184 53.5t154 151.5 q51 75 93.5 170t76.5 213t51 221.5t17 196.5q0 200 -85 314t-233 114q-124 0 -224 -80t-183 -244q-80 -159 -125 -343.5t-45 -350.5zM608 1626l310 348h114l164 -348h-72l-168 195l-251 -195h-97z" />
<glyph unicode="&#xd5;" horiz-adv-x="1462" d="M80 563q0 188 60.5 359.5t176.5 312.5q112 134 257 206t303 72q228 0 371 -175t143 -461q0 -192 -69 -369.5t-198 -317.5q-109 -118 -240.5 -180.5t-271.5 -62.5q-241 0 -386.5 168.5t-145.5 447.5zM289 428q0 -190 87 -303t232 -113q96 0 184 53.5t154 151.5 q51 75 93.5 170t76.5 213t51 221.5t17 196.5q0 200 -85 314t-233 114q-124 0 -224 -80t-183 -244q-80 -159 -125 -343.5t-45 -350.5zM647 1677q14 101 58.5 151t119.5 50q15 0 31.5 -2.5t40.5 -7.5l129 -33q21 -5 35 -7.5t22 -2.5q44 0 68 18.5t35 59.5h61q-19 -99 -69 -151 t-123 -52q-17 0 -35.5 3t-42.5 9l-129 33q-25 6 -38 8t-21 2q-34 0 -54 -19t-28 -58z" />
<glyph unicode="&#xd6;" horiz-adv-x="1462" d="M80 563q0 188 60.5 359.5t176.5 312.5q112 134 257 206t303 72q228 0 371 -175t143 -461q0 -192 -69 -369.5t-198 -317.5q-109 -118 -240.5 -180.5t-271.5 -62.5q-241 0 -386.5 168.5t-145.5 447.5zM289 428q0 -190 87 -303t232 -113q96 0 184 53.5t154 151.5 q51 75 93.5 170t76.5 213t51 221.5t17 196.5q0 200 -85 314t-233 114q-124 0 -224 -80t-183 -244q-80 -159 -125 -343.5t-45 -350.5zM655 1788q0 42 32 74t73 32q44 0 76 -31.5t32 -74.5q0 -47 -30.5 -78t-77.5 -31q-45 0 -75 31t-30 78zM1024 1788q0 42 31.5 74t72.5 32 q45 0 77 -31.5t32 -74.5q0 -47 -31 -78t-78 -31q-45 0 -74.5 31t-29.5 78z" />
<glyph unicode="&#xd7;" horiz-adv-x="1706" d="M301 135l475 475l-475 477l80 82l477 -477l475 477l82 -82l-475 -477l475 -475l-82 -82l-475 475l-477 -475z" />
<glyph unicode="&#xd8;" horiz-adv-x="1462" d="M37 -162l188 277q-71 80 -108 201.5t-37 273.5q0 187 78 374.5t213 325.5q106 108 234 165.5t261 57.5q86 0 161 -24.5t144 -75.5l136 195h98l-172 -252q78 -87 119 -210t41 -269q0 -156 -48.5 -307t-140.5 -281q-114 -162 -267.5 -252t-315.5 -90q-107 0 -190 26.5 t-142 79.5l-154 -215h-98zM287 414q0 -40 8 -86t24 -99l787 1096q-50 61 -108.5 91t-127.5 30q-104 0 -200 -61t-160 -168q-102 -171 -162.5 -388t-60.5 -415zM362 147q40 -65 102 -99t142 -34q99 0 188.5 55.5t157.5 157.5q105 157 168.5 383t63.5 447q0 41 -9 87.5 t-26 96.5z" />
<glyph unicode="&#xd9;" horiz-adv-x="1640" d="M219 291q0 43 8.5 99t24.5 116l203 731q7 29 11.5 54t4.5 40q0 46 -30.5 65t-106.5 19h-53l10 64h600l-8 -64h-70q-59 0 -94 -33t-60 -118l-225 -785q-14 -50 -22.5 -105.5t-8.5 -101.5q0 -118 80.5 -189t214.5 -71q110 0 195.5 31.5t142.5 91.5q96 101 167 365 q8 28 11 41l158 553q16 52 23.5 93.5t7.5 72.5q0 77 -54.5 116t-164.5 39l14 64h537l-11 -64q-186 -10 -279 -334l-3 -11l-166 -587l-6 -21q-80 -280 -176 -374q-72 -70 -179 -106.5t-239 -36.5q-213 0 -335 92.5t-122 253.5zM870 1909q0 33 21.5 55.5t54.5 22.5 q20 0 42 -13.5t42 -38.5l248 -309h-82l-266 197q-30 22 -45 43.5t-15 42.5z" />
<glyph unicode="&#xda;" horiz-adv-x="1640" d="M219 291q0 43 8.5 99t24.5 116l203 731q7 29 11.5 54t4.5 40q0 46 -30.5 65t-106.5 19h-53l10 64h600l-8 -64h-70q-59 0 -94 -33t-60 -118l-225 -785q-14 -50 -22.5 -105.5t-8.5 -101.5q0 -118 80.5 -189t214.5 -71q110 0 195.5 31.5t142.5 91.5q96 101 167 365 q8 28 11 41l158 553q16 52 23.5 93.5t7.5 72.5q0 77 -54.5 116t-164.5 39l14 64h537l-11 -64q-186 -10 -279 -334l-3 -11l-166 -587l-6 -21q-80 -280 -176 -374q-72 -70 -179 -106.5t-239 -36.5q-213 0 -335 92.5t-122 253.5zM930 1626l292 295q31 31 60 47.5t53 16.5 q36 0 59 -22.5t23 -57.5q0 -24 -17 -44t-61 -46l-321 -189h-88z" />
<glyph unicode="&#xdb;" horiz-adv-x="1640" d="M219 291q0 43 8.5 99t24.5 116l203 731q7 29 11.5 54t4.5 40q0 46 -30.5 65t-106.5 19h-53l10 64h600l-8 -64h-70q-59 0 -94 -33t-60 -118l-225 -785q-14 -50 -22.5 -105.5t-8.5 -101.5q0 -118 80.5 -189t214.5 -71q110 0 195.5 31.5t142.5 91.5q96 101 167 365 q8 28 11 41l158 553q16 52 23.5 93.5t7.5 72.5q0 77 -54.5 116t-164.5 39l14 64h537l-11 -64q-186 -10 -279 -334l-3 -11l-166 -587l-6 -21q-80 -280 -176 -374q-72 -70 -179 -106.5t-239 -36.5q-213 0 -335 92.5t-122 253.5zM792 1626l310 348h114l164 -348h-72l-168 195 l-251 -195h-97z" />
<glyph unicode="&#xdc;" horiz-adv-x="1640" d="M219 291q0 43 8.5 99t24.5 116l203 731q7 29 11.5 54t4.5 40q0 46 -30.5 65t-106.5 19h-53l10 64h600l-8 -64h-70q-59 0 -94 -33t-60 -118l-225 -785q-14 -50 -22.5 -105.5t-8.5 -101.5q0 -118 80.5 -189t214.5 -71q110 0 195.5 31.5t142.5 91.5q96 101 167 365 q8 28 11 41l158 553q16 52 23.5 93.5t7.5 72.5q0 77 -54.5 116t-164.5 39l14 64h537l-11 -64q-186 -10 -279 -334l-3 -11l-166 -587l-6 -21q-80 -280 -176 -374q-72 -70 -179 -106.5t-239 -36.5q-213 0 -335 92.5t-122 253.5zM839 1788q0 42 32 74t73 32q44 0 76 -31.5 t32 -74.5q0 -47 -30.5 -78t-77.5 -31q-45 0 -75 31t-30 78zM1208 1788q0 42 31.5 74t72.5 32q45 0 77 -31.5t32 -74.5q0 -47 -31 -78t-78 -31q-45 0 -74.5 31t-29.5 78z" />
<glyph unicode="&#xdd;" horiz-adv-x="1348" d="M129 1415l14 64h625l-12 -64q-135 0 -169 -15.5t-34 -60.5q0 -14 4 -34t14 -56l170 -536l369 469q46 57 61 87.5t15 57.5q0 43 -46.5 65t-139.5 23l14 64h499l-14 -64q-68 -9 -138 -59t-144 -144l-449 -571l-102 -397q-9 -36 -13 -59t-4 -38q0 -46 36 -65t132 -19 q11 0 35.5 1.5t38.5 1.5l-14 -66h-715l18 66h58q114 0 157.5 29t69.5 124l110 408l-210 659q-23 71 -67 101t-128 30q-6 0 -20 -1t-21 -1zM738 1626l292 295q31 31 60 47.5t53 16.5q36 0 59 -22.5t23 -57.5q0 -24 -17 -44t-61 -46l-321 -189h-88z" />
<glyph unicode="&#xde;" horiz-adv-x="1415" d="M-25 0l17 66h10q93 0 135 31t68 122l278 993q11 39 17 70.5t6 48.5q0 46 -33 65t-119 19h-35l13 64h586l-17 -64h-10q-89 0 -130.5 -30.5t-70.5 -124.5l-20 -68h170q237 0 354 -88t117 -266q0 -217 -171.5 -331t-500.5 -114q-49 0 -94.5 2t-89.5 6l-43 -157 q-8 -27 -12.5 -52t-4.5 -40q0 -43 26 -64t80 -22l126 -5l-6 -61h-646zM475 471q36 -2 73 -3t95 -1q142 0 219 16.5t119 55.5q49 45 86 152t37 216q0 119 -65 168t-224 49q-164 0 -213 -179l-4 -15z" />
<glyph unicode="&#xdf;" horiz-adv-x="1063" d="M-369 -309q0 50 29.5 82t75.5 32q37 0 60.5 -23.5t23.5 -62.5q0 -25 -14.5 -53.5t-14.5 -32.5q0 -13 4.5 -17.5t18.5 -4.5q93 0 148.5 101t119.5 444l9 50q143 762 255 1004q67 146 161.5 221.5t209.5 75.5q131 0 212 -81t81 -214q0 -144 -77.5 -241.5t-215.5 -126.5 q112 -45 165.5 -133t53.5 -228q0 -211 -121.5 -354t-296.5 -143q-88 0 -142 41t-54 106q0 50 29 80.5t77 30.5q36 0 62 -28t26 -71q0 -29 -17.5 -56t-17.5 -28q0 -8 11.5 -14t29.5 -6q47 0 79.5 28t66.5 99q44 91 71 207.5t27 214.5q0 91 -27 144t-86 79q-25 12 -77 20 t-52 31q0 11 11 19t28 8q5 0 23.5 -2t34.5 -2q103 0 164 93.5t61 252.5q0 108 -39 160.5t-119 52.5q-61 0 -113 -56t-100 -173q-47 -115 -109.5 -425t-95.5 -448q-99 -426 -211 -605t-272 -179q-70 0 -113 36t-43 95z" />
<glyph unicode="&#xe0;" horiz-adv-x="1120" d="M61 371q0 135 44 257.5t126 219.5q64 75 147 116.5t171 41.5q101 0 149 -61t52 -193l61 229h158l-125 -489q-37 -145 -56.5 -239t-19.5 -128q0 -46 13 -64t44 -18q56 0 112.5 80.5t131.5 269.5l47 -14q-63 -195 -142.5 -296t-168.5 -101q-64 0 -100.5 49t-36.5 135 q0 27 4 63t12 82q-53 -167 -141.5 -255.5t-202.5 -88.5q-124 0 -201.5 110.5t-77.5 293.5zM231 250q0 -106 34 -159.5t102 -53.5q56 0 113 41t98 112q58 102 93.5 241.5t35.5 273.5q0 123 -35 180t-111 57q-65 0 -123 -56t-106 -167q-47 -104 -74 -229.5t-27 -239.5z M414 1399q0 33 21.5 55.5t54.5 22.5q20 0 42 -13.5t42 -38.5l248 -309h-82l-266 197q-30 22 -45 43.5t-15 42.5z" />
<glyph unicode="&#xe1;" horiz-adv-x="1120" d="M61 371q0 135 44 257.5t126 219.5q64 75 147 116.5t171 41.5q101 0 149 -61t52 -193l61 229h158l-125 -489q-37 -145 -56.5 -239t-19.5 -128q0 -46 13 -64t44 -18q56 0 112.5 80.5t131.5 269.5l47 -14q-63 -195 -142.5 -296t-168.5 -101q-64 0 -100.5 49t-36.5 135 q0 27 4 63t12 82q-53 -167 -141.5 -255.5t-202.5 -88.5q-124 0 -201.5 110.5t-77.5 293.5zM231 250q0 -106 34 -159.5t102 -53.5q56 0 113 41t98 112q58 102 93.5 241.5t35.5 273.5q0 123 -35 180t-111 57q-65 0 -123 -56t-106 -167q-47 -104 -74 -229.5t-27 -239.5z M474 1116l292 295q31 31 60 47.5t53 16.5q36 0 59 -22.5t23 -57.5q0 -24 -17 -44t-61 -46l-321 -189h-88z" />
<glyph unicode="&#xe2;" horiz-adv-x="1120" d="M61 371q0 135 44 257.5t126 219.5q64 75 147 116.5t171 41.5q101 0 149 -61t52 -193l61 229h158l-125 -489q-37 -145 -56.5 -239t-19.5 -128q0 -46 13 -64t44 -18q56 0 112.5 80.5t131.5 269.5l47 -14q-63 -195 -142.5 -296t-168.5 -101q-64 0 -100.5 49t-36.5 135 q0 27 4 63t12 82q-53 -167 -141.5 -255.5t-202.5 -88.5q-124 0 -201.5 110.5t-77.5 293.5zM231 250q0 -106 34 -159.5t102 -53.5q56 0 113 41t98 112q58 102 93.5 241.5t35.5 273.5q0 123 -35 180t-111 57q-65 0 -123 -56t-106 -167q-47 -104 -74 -229.5t-27 -239.5z M336 1116l310 348h114l164 -348h-72l-168 195l-251 -195h-97z" />
<glyph unicode="&#xe3;" horiz-adv-x="1120" d="M61 371q0 135 44 257.5t126 219.5q64 75 147 116.5t171 41.5q101 0 149 -61t52 -193l61 229h158l-125 -489q-37 -145 -56.5 -239t-19.5 -128q0 -46 13 -64t44 -18q56 0 112.5 80.5t131.5 269.5l47 -14q-63 -195 -142.5 -296t-168.5 -101q-64 0 -100.5 49t-36.5 135 q0 27 4 63t12 82q-53 -167 -141.5 -255.5t-202.5 -88.5q-124 0 -201.5 110.5t-77.5 293.5zM231 250q0 -106 34 -159.5t102 -53.5q56 0 113 41t98 112q58 102 93.5 241.5t35.5 273.5q0 123 -35 180t-111 57q-65 0 -123 -56t-106 -167q-47 -104 -74 -229.5t-27 -239.5z M375 1167q14 101 58.5 151t119.5 50q15 0 31.5 -2.5t40.5 -7.5l129 -33q21 -5 35 -7.5t22 -2.5q44 0 68 18.5t35 59.5h61q-19 -99 -69 -151t-123 -52q-17 0 -35.5 3t-42.5 9l-129 33q-25 6 -38 8t-21 2q-34 0 -54 -19t-28 -58z" />
<glyph unicode="&#xe4;" horiz-adv-x="1120" d="M61 371q0 135 44 257.5t126 219.5q64 75 147 116.5t171 41.5q101 0 149 -61t52 -193l61 229h158l-125 -489q-37 -145 -56.5 -239t-19.5 -128q0 -46 13 -64t44 -18q56 0 112.5 80.5t131.5 269.5l47 -14q-63 -195 -142.5 -296t-168.5 -101q-64 0 -100.5 49t-36.5 135 q0 27 4 63t12 82q-53 -167 -141.5 -255.5t-202.5 -88.5q-124 0 -201.5 110.5t-77.5 293.5zM231 250q0 -106 34 -159.5t102 -53.5q56 0 113 41t98 112q58 102 93.5 241.5t35.5 273.5q0 123 -35 180t-111 57q-65 0 -123 -56t-106 -167q-47 -104 -74 -229.5t-27 -239.5z M383 1278q0 42 32 74t73 32q44 0 76 -31.5t32 -74.5q0 -47 -30.5 -78t-77.5 -31q-45 0 -75 31t-30 78zM752 1278q0 42 31.5 74t72.5 32q45 0 77 -31.5t32 -74.5q0 -47 -31 -78t-78 -31q-45 0 -74.5 31t-29.5 78z" />
<glyph unicode="&#xe5;" horiz-adv-x="1120" d="M61 371q0 135 44 257.5t126 219.5q64 75 147 116.5t171 41.5q101 0 149 -61t52 -193l61 229h158l-125 -489q-37 -145 -56.5 -239t-19.5 -128q0 -46 13 -64t44 -18q56 0 112.5 80.5t131.5 269.5l47 -14q-63 -195 -142.5 -296t-168.5 -101q-64 0 -100.5 49t-36.5 135 q0 27 4 63t12 82q-53 -167 -141.5 -255.5t-202.5 -88.5q-124 0 -201.5 110.5t-77.5 293.5zM231 250q0 -106 34 -159.5t102 -53.5q56 0 113 41t98 112q58 102 93.5 241.5t35.5 273.5q0 123 -35 180t-111 57q-65 0 -123 -56t-106 -167q-47 -104 -74 -229.5t-27 -239.5z M389 1319q0 104 71.5 176t176.5 72q104 0 176 -72t72 -176q0 -105 -72 -176.5t-176 -71.5q-105 0 -176.5 71.5t-71.5 176.5zM496 1319q0 -60 40.5 -100.5t100.5 -40.5q59 0 100 41t41 100q0 60 -41 101.5t-100 41.5q-60 0 -100.5 -41.5t-40.5 -101.5z" />
<glyph unicode="&#xe6;" horiz-adv-x="1356" d="M8 162q0 156 159 246t447 96q30 112 43 176.5t13 101.5q0 75 -47 121.5t-121 46.5q-66 0 -120 -29.5t-54 -54.5q0 -5 22 -18q80 -46 80 -115q0 -44 -31.5 -73t-81.5 -29q-52 0 -82 33t-30 92q0 101 91.5 176.5t217.5 75.5q97 0 166.5 -45t112.5 -136q82 93 162.5 137 t164.5 44q85 0 136 -51.5t51 -137.5q0 -154 -151.5 -255.5t-407.5 -112.5q-19 -73 -28 -128t-9 -90q0 -92 43 -144t120 -52q95 0 193.5 91t192.5 263l47 -22q-107 -210 -217 -308t-238 -98q-119 0 -188.5 64t-81.5 186q-52 -120 -144 -185t-211 -65q-96 0 -157.5 56 t-61.5 143zM184 156q0 -53 32 -86t83 -33q104 0 186 113t117 309q-189 -21 -303.5 -105t-114.5 -198zM764 500q194 20 313 116t119 226q0 50 -26 79t-72 29q-101 0 -188 -117t-146 -333z" />
<glyph unicode="&#xe7;" horiz-adv-x="872" d="M62 -379l35 90q59 -37 119.5 -57.5t113.5 -20.5q56 0 83.5 22.5t27.5 68.5q0 42 -26.5 64t-76.5 22q-14 0 -36 -2.5t-62 -8.5l66 201h65l-36 -115q11 2 24 3t37 1q87 0 136.5 -43.5t49.5 -121.5q0 -85 -59 -132t-166 -47q-56 0 -127.5 18.5t-167.5 57.5zM66 379 q0 144 51 269.5t145 213.5q72 68 161 106t175 38q102 0 161.5 -53.5t59.5 -143.5q0 -75 -38.5 -122.5t-98.5 -47.5q-50 0 -79.5 28.5t-29.5 77.5q0 30 16.5 55.5t45.5 41.5q21 11 60.5 14.5t39.5 24.5q0 25 -42 45t-101 20q-55 0 -103.5 -27t-87.5 -79q-73 -101 -119 -253.5 t-46 -297.5q0 -114 48 -180t132 -66q88 0 163.5 66.5t174.5 238.5l47 -26q-89 -181 -194 -269t-232 -88q-137 0 -223 114.5t-86 299.5z" />
<glyph unicode="&#xe8;" horiz-adv-x="899" d="M61 354q0 126 45.5 241.5t131.5 207.5q86 93 190.5 147t198.5 54q87 0 138.5 -55t51.5 -148q0 -135 -147 -243t-436 -185q-6 -31 -8.5 -58t-2.5 -49q0 -108 46 -169.5t126 -61.5q94 0 188 90.5t183 267.5l49 -33q-99 -202 -208.5 -297.5t-241.5 -95.5q-136 0 -220 106.5 t-84 280.5zM242 432q227 64 342.5 166.5t115.5 241.5q0 49 -24 74.5t-70 25.5q-111 0 -212 -138.5t-152 -369.5zM405 1399q0 33 21.5 55.5t54.5 22.5q20 0 42 -13.5t42 -38.5l248 -309h-82l-266 197q-30 22 -45 43.5t-15 42.5z" />
<glyph unicode="&#xe9;" horiz-adv-x="899" d="M61 354q0 126 45.5 241.5t131.5 207.5q86 93 190.5 147t198.5 54q87 0 138.5 -55t51.5 -148q0 -135 -147 -243t-436 -185q-6 -31 -8.5 -58t-2.5 -49q0 -108 46 -169.5t126 -61.5q94 0 188 90.5t183 267.5l49 -33q-99 -202 -208.5 -297.5t-241.5 -95.5q-136 0 -220 106.5 t-84 280.5zM242 432q227 64 342.5 166.5t115.5 241.5q0 49 -24 74.5t-70 25.5q-111 0 -212 -138.5t-152 -369.5zM465 1116l292 295q31 31 60 47.5t53 16.5q36 0 59 -22.5t23 -57.5q0 -24 -17 -44t-61 -46l-321 -189h-88z" />
<glyph unicode="&#xea;" horiz-adv-x="899" d="M61 354q0 126 45.5 241.5t131.5 207.5q86 93 190.5 147t198.5 54q87 0 138.5 -55t51.5 -148q0 -135 -147 -243t-436 -185q-6 -31 -8.5 -58t-2.5 -49q0 -108 46 -169.5t126 -61.5q94 0 188 90.5t183 267.5l49 -33q-99 -202 -208.5 -297.5t-241.5 -95.5q-136 0 -220 106.5 t-84 280.5zM242 432q227 64 342.5 166.5t115.5 241.5q0 49 -24 74.5t-70 25.5q-111 0 -212 -138.5t-152 -369.5zM327 1116l310 348h114l164 -348h-72l-168 195l-251 -195h-97z" />
<glyph unicode="&#xeb;" horiz-adv-x="899" d="M61 354q0 126 45.5 241.5t131.5 207.5q86 93 190.5 147t198.5 54q87 0 138.5 -55t51.5 -148q0 -135 -147 -243t-436 -185q-6 -31 -8.5 -58t-2.5 -49q0 -108 46 -169.5t126 -61.5q94 0 188 90.5t183 267.5l49 -33q-99 -202 -208.5 -297.5t-241.5 -95.5q-136 0 -220 106.5 t-84 280.5zM242 432q227 64 342.5 166.5t115.5 241.5q0 49 -24 74.5t-70 25.5q-111 0 -212 -138.5t-152 -369.5zM374 1278q0 42 32 74t73 32q44 0 76 -31.5t32 -74.5q0 -47 -30.5 -78t-77.5 -31q-45 0 -75 31t-30 78zM743 1278q0 42 31.5 74t72.5 32q45 0 77 -31.5t32 -74.5 q0 -47 -31 -78t-78 -31q-45 0 -74.5 31t-29.5 78z" />
<glyph unicode="&#xec;" horiz-adv-x="713" d="M35 680q67 168 140.5 248t160.5 80q84 0 132 -61t48 -167q0 -102 -82 -304q-7 -18 -10 -25q-59 -147 -82 -220.5t-23 -115.5q0 -46 19 -69t55 -23q56 0 114 72t116 214l49 -22q-68 -167 -141.5 -245.5t-161.5 -78.5q-82 0 -131.5 64.5t-49.5 171.5q0 89 91 317l2 5l14 36 q92 226 92 303q0 46 -17.5 67t-56.5 21q-54 0 -111 -70.5t-126 -224.5zM194 1399q0 33 21.5 55.5t54.5 22.5q20 0 42 -13.5t42 -38.5l248 -309h-82l-266 197q-30 22 -45 43.5t-15 42.5z" />
<glyph unicode="&#xed;" horiz-adv-x="713" d="M35 680q67 168 140.5 248t160.5 80q84 0 132 -61t48 -167q0 -102 -82 -304q-7 -18 -10 -25q-59 -147 -82 -220.5t-23 -115.5q0 -46 19 -69t55 -23q56 0 114 72t116 214l49 -22q-68 -167 -141.5 -245.5t-161.5 -78.5q-82 0 -131.5 64.5t-49.5 171.5q0 89 91 317l2 5l14 36 q92 226 92 303q0 46 -17.5 67t-56.5 21q-54 0 -111 -70.5t-126 -224.5zM254 1116l292 295q31 31 60 47.5t53 16.5q36 0 59 -22.5t23 -57.5q0 -24 -17 -44t-61 -46l-321 -189h-88z" />
<glyph unicode="&#xee;" horiz-adv-x="713" d="M35 680q67 168 140.5 248t160.5 80q84 0 132 -61t48 -167q0 -102 -82 -304q-7 -18 -10 -25q-59 -147 -82 -220.5t-23 -115.5q0 -46 19 -69t55 -23q56 0 114 72t116 214l49 -22q-68 -167 -141.5 -245.5t-161.5 -78.5q-82 0 -131.5 64.5t-49.5 171.5q0 89 91 317l2 5l14 36 q92 226 92 303q0 46 -17.5 67t-56.5 21q-54 0 -111 -70.5t-126 -224.5zM116 1116l310 348h114l164 -348h-72l-168 195l-251 -195h-97z" />
<glyph unicode="&#xef;" horiz-adv-x="713" d="M35 680q67 168 140.5 248t160.5 80q84 0 132 -61t48 -167q0 -102 -82 -304q-7 -18 -10 -25q-59 -147 -82 -220.5t-23 -115.5q0 -46 19 -69t55 -23q56 0 114 72t116 214l49 -22q-68 -167 -141.5 -245.5t-161.5 -78.5q-82 0 -131.5 64.5t-49.5 171.5q0 89 91 317l2 5l14 36 q92 226 92 303q0 46 -17.5 67t-56.5 21q-54 0 -111 -70.5t-126 -224.5zM163 1278q0 42 32 74t73 32q44 0 76 -31.5t32 -74.5q0 -47 -30.5 -78t-77.5 -31q-45 0 -75 31t-30 78zM532 1278q0 42 31.5 74t72.5 32q45 0 77 -31.5t32 -74.5q0 -47 -31 -78t-78 -31q-45 0 -74.5 31 t-29.5 78z" />
<glyph unicode="&#xf0;" d="M80 377q0 100 32 196t93 179q71 98 166.5 150t203.5 52q35 0 72 -9.5t80 -29.5v23q0 62 -8.5 115t-26.5 98l-305 -104l-22 69l299 103q-42 79 -111.5 137t-163.5 90l12 61q112 -31 203.5 -92.5t169.5 -157.5l283 99l18 -72l-262 -90q57 -110 85 -227t28 -248 q0 -338 -144.5 -545t-371.5 -207q-145 0 -237.5 114.5t-92.5 295.5zM233 240q0 -102 46 -161t124 -59q55 0 106 32t87 89q70 110 113 258.5t43 284.5q0 100 -46 158.5t-122 58.5q-75 0 -133 -48t-107 -151q-52 -108 -81.5 -231t-29.5 -231z" />
<glyph unicode="&#xf1;" horiz-adv-x="1233" d="M6 608q68 198 147.5 298t170.5 100q65 0 103 -49t38 -134q0 -55 -13 -130.5t-38 -168.5h24q117 254 219 368t209 114q73 0 115.5 -56t42.5 -153q0 -63 -18.5 -134t-75.5 -206l-8 -20q-105 -248 -105 -318q0 -44 18.5 -67t53.5 -23q65 0 133.5 93.5t136.5 276.5l47 -26 q-79 -208 -160.5 -305t-175.5 -97q-82 0 -130 60t-48 164q0 70 23 150t98 245q7 15 21 46q81 178 81 230q0 37 -20 57.5t-55 20.5q-119 0 -270 -258.5t-273 -685.5h-145l174 666q18 69 28.5 124t10.5 84q0 33 -15.5 51.5t-42.5 18.5q-60 0 -118.5 -79.5t-135.5 -268.5z M454 1167q14 101 58.5 151t119.5 50q15 0 31.5 -2.5t40.5 -7.5l129 -33q21 -5 35 -7.5t22 -2.5q44 0 68 18.5t35 59.5h61q-19 -99 -69 -151t-123 -52q-17 0 -35.5 3t-42.5 9l-129 33q-25 6 -38 8t-21 2q-34 0 -54 -19t-28 -58z" />
<glyph unicode="&#xf2;" horiz-adv-x="1008" d="M61 397q0 104 34.5 207t97.5 189q76 103 176 158t213 55q155 0 250.5 -117.5t95.5 -308.5q0 -116 -37.5 -223t-110.5 -199q-73 -93 -169 -143t-201 -50q-154 0 -251.5 120.5t-97.5 311.5zM223 254q0 -107 48.5 -169t131.5 -62q59 0 111.5 32t91.5 92q72 111 116 268 t44 306q0 106 -46.5 166.5t-127.5 60.5q-78 0 -138.5 -50t-113.5 -159q-55 -114 -86 -243t-31 -242zM420 1399q0 33 21.5 55.5t54.5 22.5q20 0 42 -13.5t42 -38.5l248 -309h-82l-266 197q-30 22 -45 43.5t-15 42.5z" />
<glyph unicode="&#xf3;" horiz-adv-x="1008" d="M61 397q0 104 34.5 207t97.5 189q76 103 176 158t213 55q155 0 250.5 -117.5t95.5 -308.5q0 -116 -37.5 -223t-110.5 -199q-73 -93 -169 -143t-201 -50q-154 0 -251.5 120.5t-97.5 311.5zM223 254q0 -107 48.5 -169t131.5 -62q59 0 111.5 32t91.5 92q72 111 116 268 t44 306q0 106 -46.5 166.5t-127.5 60.5q-78 0 -138.5 -50t-113.5 -159q-55 -114 -86 -243t-31 -242zM480 1116l292 295q31 31 60 47.5t53 16.5q36 0 59 -22.5t23 -57.5q0 -24 -17 -44t-61 -46l-321 -189h-88z" />
<glyph unicode="&#xf4;" horiz-adv-x="1008" d="M61 397q0 104 34.5 207t97.5 189q76 103 176 158t213 55q155 0 250.5 -117.5t95.5 -308.5q0 -116 -37.5 -223t-110.5 -199q-73 -93 -169 -143t-201 -50q-154 0 -251.5 120.5t-97.5 311.5zM223 254q0 -107 48.5 -169t131.5 -62q59 0 111.5 32t91.5 92q72 111 116 268 t44 306q0 106 -46.5 166.5t-127.5 60.5q-78 0 -138.5 -50t-113.5 -159q-55 -114 -86 -243t-31 -242zM342 1116l310 348h114l164 -348h-72l-168 195l-251 -195h-97z" />
<glyph unicode="&#xf5;" horiz-adv-x="1008" d="M61 397q0 104 34.5 207t97.5 189q76 103 176 158t213 55q155 0 250.5 -117.5t95.5 -308.5q0 -116 -37.5 -223t-110.5 -199q-73 -93 -169 -143t-201 -50q-154 0 -251.5 120.5t-97.5 311.5zM223 254q0 -107 48.5 -169t131.5 -62q59 0 111.5 32t91.5 92q72 111 116 268 t44 306q0 106 -46.5 166.5t-127.5 60.5q-78 0 -138.5 -50t-113.5 -159q-55 -114 -86 -243t-31 -242zM381 1167q14 101 58.5 151t119.5 50q15 0 31.5 -2.5t40.5 -7.5l129 -33q21 -5 35 -7.5t22 -2.5q44 0 68 18.5t35 59.5h61q-19 -99 -69 -151t-123 -52q-17 0 -35.5 3 t-42.5 9l-129 33q-25 6 -38 8t-21 2q-34 0 -54 -19t-28 -58z" />
<glyph unicode="&#xf6;" horiz-adv-x="1008" d="M61 397q0 104 34.5 207t97.5 189q76 103 176 158t213 55q155 0 250.5 -117.5t95.5 -308.5q0 -116 -37.5 -223t-110.5 -199q-73 -93 -169 -143t-201 -50q-154 0 -251.5 120.5t-97.5 311.5zM223 254q0 -107 48.5 -169t131.5 -62q59 0 111.5 32t91.5 92q72 111 116 268 t44 306q0 106 -46.5 166.5t-127.5 60.5q-78 0 -138.5 -50t-113.5 -159q-55 -114 -86 -243t-31 -242zM389 1278q0 42 32 74t73 32q44 0 76 -31.5t32 -74.5q0 -47 -30.5 -78t-77.5 -31q-45 0 -75 31t-30 78zM758 1278q0 42 31.5 74t72.5 32q45 0 77 -31.5t32 -74.5 q0 -47 -31 -78t-78 -31q-45 0 -74.5 31t-29.5 78z" />
<glyph unicode="&#xf7;" horiz-adv-x="1706" d="M254 553v117h1198v-117h-1198zM739 250q0 48 34 81.5t81 33.5t81 -34t34 -81t-33.5 -81t-81.5 -34t-81.5 33.5t-33.5 81.5zM739 971q0 47 34 80.5t81 33.5q48 0 81.5 -33.5t33.5 -80.5q0 -48 -33.5 -81.5t-81.5 -33.5q-49 0 -82 33.5t-33 81.5z" />
<glyph unicode="&#xf8;" horiz-adv-x="1008" d="M37 -209l153 264q-60 53 -93.5 139.5t-33.5 192.5q0 260 152.5 438.5t372.5 178.5q32 0 65 -7t64 -20l112 194h91l-136 -235q75 -62 110.5 -147.5t35.5 -202.5t-35 -222t-104 -194q-77 -99 -172.5 -151t-200.5 -52q-42 0 -84.5 10t-83.5 29l-123 -215h-90zM219 299 q0 -40 5 -75.5t16 -69.5l442 768q-19 13 -41.5 19.5t-48.5 6.5q-75 0 -137 -48t-117 -148q-55 -102 -87 -223.5t-32 -229.5zM285 72q18 -25 46.5 -37t67.5 -12q64 0 119.5 36t99.5 107q71 113 113.5 259t42.5 273q0 51 -8.5 90t-26.5 70z" />
<glyph unicode="&#xf9;" horiz-adv-x="1235" d="M0 604q80 207 163 304.5t177 97.5q82 0 129 -60t47 -164q0 -72 -23.5 -154.5t-94.5 -239.5q-8 -17 -21 -46q-82 -179 -82 -231q0 -37 19 -56.5t55 -19.5q120 0 269 255t280 691h145l-174 -666q-20 -73 -30.5 -127t-10.5 -82q0 -32 16 -51.5t43 -19.5q59 0 116.5 78.5 t135.5 271.5l49 -12q-68 -200 -147.5 -301t-169.5 -101q-64 0 -102.5 51t-38.5 136q0 58 14 143t43 197h-16q-119 -275 -226.5 -401t-220.5 -126q-74 0 -117 55.5t-43 151.5q0 61 18.5 131.5t78.5 210.5l8 19q104 248 104 319q0 43 -19 65.5t-55 22.5q-64 0 -131.5 -93 t-136.5 -278zM495 1399q0 33 21.5 55.5t54.5 22.5q20 0 42 -13.5t42 -38.5l248 -309h-82l-266 197q-30 22 -45 43.5t-15 42.5z" />
<glyph unicode="&#xfa;" horiz-adv-x="1235" d="M0 604q80 207 163 304.5t177 97.5q82 0 129 -60t47 -164q0 -72 -23.5 -154.5t-94.5 -239.5q-8 -17 -21 -46q-82 -179 -82 -231q0 -37 19 -56.5t55 -19.5q120 0 269 255t280 691h145l-174 -666q-20 -73 -30.5 -127t-10.5 -82q0 -32 16 -51.5t43 -19.5q59 0 116.5 78.5 t135.5 271.5l49 -12q-68 -200 -147.5 -301t-169.5 -101q-64 0 -102.5 51t-38.5 136q0 58 14 143t43 197h-16q-119 -275 -226.5 -401t-220.5 -126q-74 0 -117 55.5t-43 151.5q0 61 18.5 131.5t78.5 210.5l8 19q104 248 104 319q0 43 -19 65.5t-55 22.5q-64 0 -131.5 -93 t-136.5 -278zM555 1116l292 295q31 31 60 47.5t53 16.5q36 0 59 -22.5t23 -57.5q0 -24 -17 -44t-61 -46l-321 -189h-88z" />
<glyph unicode="&#xfb;" horiz-adv-x="1235" d="M0 604q80 207 163 304.5t177 97.5q82 0 129 -60t47 -164q0 -72 -23.5 -154.5t-94.5 -239.5q-8 -17 -21 -46q-82 -179 -82 -231q0 -37 19 -56.5t55 -19.5q120 0 269 255t280 691h145l-174 -666q-20 -73 -30.5 -127t-10.5 -82q0 -32 16 -51.5t43 -19.5q59 0 116.5 78.5 t135.5 271.5l49 -12q-68 -200 -147.5 -301t-169.5 -101q-64 0 -102.5 51t-38.5 136q0 58 14 143t43 197h-16q-119 -275 -226.5 -401t-220.5 -126q-74 0 -117 55.5t-43 151.5q0 61 18.5 131.5t78.5 210.5l8 19q104 248 104 319q0 43 -19 65.5t-55 22.5q-64 0 -131.5 -93 t-136.5 -278zM417 1116l310 348h114l164 -348h-72l-168 195l-251 -195h-97z" />
<glyph unicode="&#xfc;" horiz-adv-x="1235" d="M0 604q80 207 163 304.5t177 97.5q82 0 129 -60t47 -164q0 -72 -23.5 -154.5t-94.5 -239.5q-8 -17 -21 -46q-82 -179 -82 -231q0 -37 19 -56.5t55 -19.5q120 0 269 255t280 691h145l-174 -666q-20 -73 -30.5 -127t-10.5 -82q0 -32 16 -51.5t43 -19.5q59 0 116.5 78.5 t135.5 271.5l49 -12q-68 -200 -147.5 -301t-169.5 -101q-64 0 -102.5 51t-38.5 136q0 58 14 143t43 197h-16q-119 -275 -226.5 -401t-220.5 -126q-74 0 -117 55.5t-43 151.5q0 61 18.5 131.5t78.5 210.5l8 19q104 248 104 319q0 43 -19 65.5t-55 22.5q-64 0 -131.5 -93 t-136.5 -278zM464 1278q0 42 32 74t73 32q44 0 76 -31.5t32 -74.5q0 -47 -30.5 -78t-77.5 -31q-45 0 -75 31t-30 78zM833 1278q0 42 31.5 74t72.5 32q45 0 77 -31.5t32 -74.5q0 -47 -31 -78t-78 -31q-45 0 -74.5 31t-29.5 78z" />
<glyph unicode="&#xfd;" horiz-adv-x="1124" d="M16 608q78 206 158 303t172 97q80 0 127 -59.5t47 -162.5q0 -136 -114 -387l-6 -13q-8 -17 -20 -45q-77 -172 -77 -220q0 -36 19.5 -56t54.5 -20q111 0 251 237.5t300 698.5h143l-235 -872q-81 -299 -195.5 -424t-298.5 -125q-116 0 -184 55.5t-68 148.5q0 51 33.5 85 t81.5 34q42 0 69 -31t27 -81q0 -27 -27.5 -63t-27.5 -46q0 -21 28.5 -36t71.5 -15q108 0 186.5 102t129.5 307l108 439q-113 -251 -212.5 -364t-205.5 -113q-72 0 -114.5 56t-42.5 152q0 61 18 130t76 206q71 168 90.5 232t19.5 104q0 42 -18.5 64t-52.5 22 q-64 0 -129 -90.5t-136 -275.5zM500 1116l292 295q31 31 60 47.5t53 16.5q36 0 59 -22.5t23 -57.5q0 -24 -17 -44t-61 -46l-321 -189h-88z" />
<glyph unicode="&#xfe;" horiz-adv-x="991" d="M-188 -389q112 7 159 197q7 28 11 43l370 1421q6 24 9.5 48t3.5 46q0 28 -20 40.5t-66 12.5q-20 0 -40.5 -0.5t-53.5 -3.5l18 58l370 34l-174 -665q56 81 119.5 123.5t130.5 42.5q123 0 200 -110.5t77 -289.5q0 -109 -31 -208t-94 -189q-73 -105 -165.5 -164t-182.5 -59 q-84 0 -140 60.5t-75 174.5l-115 -444q-10 -38 -15.5 -66.5t-5.5 -42.5q0 -46 129 -63h2l-4 -47h-417v51zM279 295q0 -113 44.5 -179.5t120.5 -66.5q67 0 121 56t103 176q48 116 76 240.5t28 213.5q0 99 -38.5 151t-110.5 52q-55 0 -104.5 -37t-92.5 -108 q-70 -116 -108.5 -248t-38.5 -250z" />
<glyph unicode="&#xff;" horiz-adv-x="1124" d="M16 608q78 206 158 303t172 97q80 0 127 -59.5t47 -162.5q0 -136 -114 -387l-6 -13q-8 -17 -20 -45q-77 -172 -77 -220q0 -36 19.5 -56t54.5 -20q111 0 251 237.5t300 698.5h143l-235 -872q-81 -299 -195.5 -424t-298.5 -125q-116 0 -184 55.5t-68 148.5q0 51 33.5 85 t81.5 34q42 0 69 -31t27 -81q0 -27 -27.5 -63t-27.5 -46q0 -21 28.5 -36t71.5 -15q108 0 186.5 102t129.5 307l108 439q-113 -251 -212.5 -364t-205.5 -113q-72 0 -114.5 56t-42.5 152q0 61 18 130t76 206q71 168 90.5 232t19.5 104q0 42 -18.5 64t-52.5 22 q-64 0 -129 -90.5t-136 -275.5zM409 1278q0 42 32 74t73 32q44 0 76 -31.5t32 -74.5q0 -47 -30.5 -78t-77.5 -31q-45 0 -75 31t-30 78zM778 1278q0 42 31.5 74t72.5 32q45 0 77 -31.5t32 -74.5q0 -47 -31 -78t-78 -31q-45 0 -74.5 31t-29.5 78z" />
<glyph unicode="&#x152;" horiz-adv-x="2036" d="M61 596q0 170 66.5 325.5t194.5 286.5q141 145 286 208t338 63h1157l-123 -531l-69 9q5 48 7.5 89.5t2.5 77.5q0 154 -84 217.5t-297 63.5h-33q-119 0 -154.5 -20t-52.5 -76l-138 -496q9 -1 20.5 -1.5t34.5 -0.5q145 0 223 63t123 218h59l-164 -672h-61q5 40 7.5 71 t2.5 54q0 104 -52.5 152t-166.5 48q-18 0 -27.5 -0.5t-17.5 -1.5l-137 -513l-2 -6q-19 -64 -19 -97q0 -32 22 -43.5t103 -11.5q160 0 247 21.5t161 72.5q79 54 151.5 152.5t155.5 265.5l65 -13l-155 -571h-1141q-247 0 -390 159.5t-143 436.5zM262 440q0 -176 90.5 -272 t255.5 -96q82 0 127 41t76 151l254 916q10 34 15 61t5 45q0 59 -45.5 89t-136.5 30q-110 0 -209 -55.5t-174 -159.5q-59 -82 -108.5 -186t-89.5 -232q-30 -93 -45 -176.5t-15 -155.5z" />
<glyph unicode="&#x153;" horiz-adv-x="1458" d="M57 391q0 108 36 216t100 192q74 96 176.5 152.5t205.5 56.5q100 0 166.5 -51.5t96.5 -151.5q112 103 208 153t181 50q83 0 133.5 -52t50.5 -137q0 -145 -149.5 -257t-458.5 -197q-6 -38 -9 -67.5t-3 -53.5q0 -95 45.5 -150t124.5 -55q99 0 198 85.5t199 258.5l47 -23 q-101 -197 -217.5 -296t-247.5 -99q-87 0 -154 40.5t-106 117.5q-65 -79 -140.5 -118.5t-160.5 -39.5q-143 0 -232.5 117.5t-89.5 308.5zM221 252q0 -104 44.5 -165.5t119.5 -61.5q66 0 120.5 55t104.5 174q55 128 85 254.5t30 222.5q0 104 -38 160.5t-107 56.5 q-75 0 -137.5 -58.5t-116.5 -178.5q-50 -111 -77.5 -232t-27.5 -227zM821 434q215 52 343 162t128 238q0 53 -25 83.5t-69 30.5q-102 0 -207 -141t-170 -373z" />
<glyph unicode="&#x178;" horiz-adv-x="1348" d="M129 1415l14 64h625l-12 -64q-135 0 -169 -15.5t-34 -60.5q0 -14 4 -34t14 -56l170 -536l369 469q46 57 61 87.5t15 57.5q0 43 -46.5 65t-139.5 23l14 64h499l-14 -64q-68 -9 -138 -59t-144 -144l-449 -571l-102 -397q-9 -36 -13 -59t-4 -38q0 -46 36 -65t132 -19 q11 0 35.5 1.5t38.5 1.5l-14 -66h-715l18 66h58q114 0 157.5 29t69.5 124l110 408l-210 659q-23 71 -67 101t-128 30q-6 0 -20 -1t-21 -1zM647 1788q0 42 32 74t73 32q44 0 76 -31.5t32 -74.5q0 -47 -30.5 -78t-77.5 -31q-45 0 -75 31t-30 78zM1016 1788q0 42 31.5 74 t72.5 32q45 0 77 -31.5t32 -74.5q0 -47 -31 -78t-78 -31q-45 0 -74.5 31t-29.5 78z" />
<glyph unicode="&#x2c6;" horiz-adv-x="1024" d="M311 1116l310 348h114l164 -348h-72l-168 195l-251 -195h-97z" />
<glyph unicode="&#x2dc;" horiz-adv-x="1024" d="M350 1167q14 101 58.5 151t119.5 50q15 0 31.5 -2.5t40.5 -7.5l129 -33q21 -5 35 -7.5t22 -2.5q44 0 68 18.5t35 59.5h61q-19 -99 -69 -151t-123 -52q-17 0 -35.5 3t-42.5 9l-129 33q-25 6 -38 8t-21 2q-34 0 -54 -19t-28 -58z" />
<glyph unicode="&#x2000;" horiz-adv-x="993" />
<glyph unicode="&#x2001;" horiz-adv-x="1987" />
<glyph unicode="&#x2002;" horiz-adv-x="993" />
<glyph unicode="&#x2003;" horiz-adv-x="1987" />
<glyph unicode="&#x2004;" horiz-adv-x="662" />
<glyph unicode="&#x2005;" horiz-adv-x="496" />
<glyph unicode="&#x2006;" horiz-adv-x="331" />
<glyph unicode="&#x2007;" horiz-adv-x="331" />
<glyph unicode="&#x2008;" horiz-adv-x="248" />
<glyph unicode="&#x2009;" horiz-adv-x="397" />
<glyph unicode="&#x200a;" horiz-adv-x="110" />
<glyph unicode="&#x2010;" horiz-adv-x="676" d="M82 434l33 137h471l-31 -137h-473z" />
<glyph unicode="&#x2011;" horiz-adv-x="676" d="M82 434l33 137h471l-31 -137h-473z" />
<glyph unicode="&#x2012;" horiz-adv-x="676" d="M82 434l33 137h471l-31 -137h-473z" />
<glyph unicode="&#x2013;" horiz-adv-x="1024" d="M-20 434l24 127h1022l-22 -127h-1024z" />
<glyph unicode="&#x2014;" horiz-adv-x="2054" d="M-20 434l24 127h2052l-24 -127h-2052z" />
<glyph unicode="&#x2018;" horiz-adv-x="446" d="M168 1104q0 93 67.5 191.5t208.5 211.5l41 -34q-104 -92 -146 -154.5t-42 -120.5q0 -27 55 -47q18 -6 27 -10q27 -14 40 -36.5t13 -55.5q0 -56 -34 -89.5t-91 -33.5q-65 0 -102 47t-37 131z" />
<glyph unicode="&#x2019;" horiz-adv-x="446" d="M217 963q106 93 148.5 155t42.5 119q0 27 -53 44q-20 7 -29 11q-27 14 -40.5 37t-13.5 57q0 56 34 88.5t91 32.5q66 0 103 -46.5t37 -129.5q0 -93 -67.5 -191.5t-209.5 -211.5z" />
<glyph unicode="&#x201a;" horiz-adv-x="446" d="M-86 -332q104 92 146 154.5t42 120.5q0 27 -53 46q-20 7 -29 11q-27 14 -40 37t-13 57q0 55 34 88t91 33q65 0 102 -47t37 -131q0 -94 -67 -192.5t-209 -211.5z" />
<glyph unicode="&#x201c;" horiz-adv-x="901" d="M199 1104q0 93 67.5 191.5t208.5 211.5l43 -34q-104 -92 -146 -154.5t-42 -120.5q0 -27 53 -46q20 -7 29 -11q27 -14 40 -36.5t13 -55.5q0 -56 -34 -89.5t-91 -33.5q-66 0 -103.5 47.5t-37.5 130.5zM627 1104q0 93 67.5 191.5t208.5 211.5l43 -34q-106 -94 -148 -156 t-42 -119q0 -27 53 -46q20 -7 29 -11q27 -14 40 -36.5t13 -55.5q0 -56 -34 -89.5t-91 -33.5q-65 0 -102 47t-37 131z" />
<glyph unicode="&#x201d;" horiz-adv-x="901" d="M219 961q103 90 146 153.5t43 122.5q0 27 -53 44q-20 7 -29 11q-27 14 -39.5 36.5t-12.5 57.5q0 56 34 88.5t91 32.5q66 0 103 -47t37 -131q0 -93 -67 -190t-210 -211zM637 961q104 87 147 150t43 126q0 20 -43 37q-26 10 -38 18q-27 9 -40.5 32t-13.5 62q0 53 35 87 t90 34q64 0 101.5 -48t37.5 -130q0 -97 -67 -195.5t-207 -205.5z" />
<glyph unicode="&#x201e;" horiz-adv-x="901" d="M8 -332q104 92 146.5 154.5t42.5 120.5q0 27 -54 46q-20 7 -28 11q-27 14 -39.5 36.5t-12.5 57.5q0 55 34.5 88t90.5 33q66 0 103 -47t37 -131q0 -94 -67.5 -192.5t-209.5 -211.5zM438 -332q104 92 146.5 154.5t42.5 120.5q0 27 -54 46q-20 7 -28 11q-27 14 -39 36.5 t-12 57.5q0 55 34 88t90 33q66 0 103 -47t37 -131q0 -94 -67.5 -192.5t-209.5 -211.5z" />
<glyph unicode="&#x2022;" horiz-adv-x="1208" d="M307 762q0 123 87 209t210 86q122 0 208.5 -86.5t86.5 -208.5t-87.5 -209.5t-209.5 -87.5q-123 0 -209 87t-86 210z" />
<glyph unicode="&#x2026;" horiz-adv-x="2048" d="M90 102q0 51 35 86t86 35q50 0 85.5 -35t35.5 -86q0 -50 -36 -85t-87 -35t-85 34.5t-34 85.5zM772 102q0 51 35 86t86 35q50 0 85.5 -35t35.5 -86q0 -50 -36 -85t-87 -35t-85 34.5t-34 85.5zM1456 102q0 51 35 86t86 35q50 0 85.5 -35t35.5 -86q0 -50 -36 -85t-87 -35 t-85 34.5t-34 85.5z" />
<glyph unicode="&#x202f;" horiz-adv-x="397" />
<glyph unicode="&#x2039;" horiz-adv-x="678" d="M180 487q0 10 44 40q40 28 65 48q75 61 159 137t95 76q6 0 10 -4t4 -10q0 -18 -55.5 -80.5t-198.5 -206.5q60 -109 95.5 -184.5t35.5 -93.5q0 -8 -3 -13t-9 -6q-12 0 -29 26q-8 12 -14 19q-60 80 -129.5 163.5t-69.5 88.5z" />
<glyph unicode="&#x203a;" horiz-adv-x="678" d="M141 207q0 18 55.5 80.5t198.5 206.5q-60 109 -95.5 184.5t-35.5 93.5q0 7 4 11.5t11 4.5q11 0 25 -22q10 -16 15 -22q62 -81 130.5 -163t68.5 -87q0 -11 -46 -44q-39 -27 -62 -47q-75 -60 -158.5 -135t-93.5 -75q-7 0 -12 4t-5 10z" />
<glyph unicode="&#x205f;" horiz-adv-x="496" />
<glyph unicode="&#x2122;" horiz-adv-x="1683" d="M244 1260l12 178h440l11 -178h-25q-8 79 -40.5 115t-96.5 36h-21v-426q0 -23 12 -37t33 -16l31 -2v-27h-248v27l31 2q21 1 33 15.5t12 37.5v426h-20q-64 0 -97 -36t-41 -115h-26zM788 903v27l34 2q21 2 32.5 16t11.5 37v371q0 23 -12.5 37t-34.5 16l-31 2v27h183 l141 -400l148 400h174v-25l-30 -2q-22 -2 -34 -15.5t-12 -37.5v-373q0 -24 12 -37.5t34 -15.5l30 -2v-27h-236v27l31 2q21 2 33 16t12 37v395l-178 -479h-15l-174 479v-395q0 -23 12.5 -37t34.5 -16l31 -2v-27h-197z" />
<glyph unicode="&#xe000;" horiz-adv-x="1004" d="M0 0v1005h1005v-1005h-1005z" />
</font>
</defs>
</svg>
