<?xml version="1.0" standalone="no"?>
<!DOCTYPE svg PUBLIC "-//W3C//DTD SVG 1.1//EN" "http://www.w3.org/Graphics/SVG/1.1/DTD/svg11.dtd" >
<svg xmlns="http://www.w3.org/2000/svg">
<metadata></metadata>
<defs>
<font id="centuryexpd_btbold_italic" horiz-adv-x="1024" >
<font-face units-per-em="2048" ascent="1638" descent="-410" />
<missing-glyph horiz-adv-x="506" />
<glyph horiz-adv-x="2048" />
<glyph horiz-adv-x="2048" />
<glyph unicode="&#xd;" horiz-adv-x="506" />
<glyph unicode=" "  horiz-adv-x="506" />
<glyph unicode="&#x09;" horiz-adv-x="506" />
<glyph unicode="&#xa0;" horiz-adv-x="506" />
<glyph unicode="!" horiz-adv-x="600" d="M-20 135q0 72 49.5 122t120.5 50q70 0 119.5 -50.5t49.5 -121.5q0 -70 -49 -119t-120 -49q-72 0 -121 49t-49 119zM195 475q47 166 69.5 351t22.5 409q0 145 40.5 208.5t131.5 63.5q80 0 132 -42.5t52 -106.5q0 -58 -35 -121q-8 -15 -8 -18q0 -6 -29 -54 q-195 -316 -321 -704z" />
<glyph unicode="&#x22;" horiz-adv-x="694" d="M84 1354q0 52 24.5 80t69.5 28q47 0 71.5 -27.5t24.5 -80.5q0 -16 -0.5 -24.5t-1.5 -15.5l-73 -458h-39l-74 459q-1 7 -1.5 15.5t-0.5 23.5zM420 1354q0 51 25.5 79.5t70.5 28.5t70.5 -28t25.5 -78q0 -13 -3 -36q-1 -4 -1 -5l-73 -459h-39l-74 458q-1 8 -1.5 16.5 t-0.5 23.5z" />
<glyph unicode="#" horiz-adv-x="1575" d="M70 428l59 168h301l92 262h-319l61 166h318l155 436h183l-156 -436h268l156 436h182l-156 -436h291l-59 -166h-291l-92 -262h307l-59 -168h-307l-154 -434h-184l155 434h-268l-154 -434h-184l156 434h-301zM608 594h275l94 264h-275z" />
<glyph unicode="$" horiz-adv-x="1010" d="M-23 264q0 77 43 128.5t107 51.5q61 0 102 -38t41 -95q0 -56 -35.5 -95.5t-87.5 -39.5q-4 0 -19 1t-24 1q-14 0 -17 -2.5t-3 -9.5q0 -45 56.5 -87t135.5 -50l162 585q-130 92 -194 193.5t-64 216.5q0 183 137.5 304.5t350.5 121.5l30 104h74l-33 -116q122 -31 187 -102.5 t65 -174.5q0 -70 -33.5 -110.5t-91.5 -40.5t-94.5 31t-36.5 79q0 38 13 65.5t39 45.5q16 11 51.5 24.5t35.5 26.5q0 28 -43.5 58.5t-103.5 37.5l-141 -512q162 -100 234.5 -205.5t72.5 -240.5q0 -204 -148.5 -331.5t-388.5 -127.5h-20l-64 -240h-79l65 250q-123 22 -202 105 t-79 188zM352 19q159 4 253.5 78.5t94.5 193.5q0 81 -47.5 147.5t-148.5 126.5zM362 1147q0 -62 38 -116.5t120 -112.5l127 464q-129 -6 -207 -70.5t-78 -164.5z" />
<glyph unicode="%" horiz-adv-x="1731" d="M72 915q0 80 32 162t95 162q79 102 175 155.5t199 53.5q67 0 115.5 -30.5t95.5 -100.5q35 -11 64.5 -17t50.5 -6q111 0 200 48t173 153h98l-895 -1561h-108l792 1381q-71 -42 -129.5 -61t-116.5 -19q-23 0 -52 4.5t-60 13.5q3 -22 4.5 -40.5t1.5 -34.5q0 -85 -32 -176 t-91 -171q-73 -98 -155.5 -145t-180.5 -47q-128 0 -202 74t-74 202zM289 831q0 -52 35.5 -87t89.5 -35q46 0 100.5 32t103.5 88q62 72 99 169t37 184q0 15 -2.5 34t-8.5 50q-38 16 -69 39.5t-60 58.5q-48 -4 -92 -44t-106 -142q-60 -100 -93.5 -191.5t-33.5 -155.5zM909 244 q0 92 36 184.5t104 169.5q67 77 163.5 125.5t182.5 48.5q110 0 180 -72.5t70 -187.5q0 -89 -25.5 -173.5t-75.5 -160.5q-70 -107 -159 -160t-197 -53q-128 0 -203.5 76t-75.5 203zM1126 168q0 -63 33.5 -98t91.5 -35q44 0 88 23t88 69q76 78 120 180.5t44 198.5 q0 84 -36 133t-99 49q-45 0 -90.5 -35t-89.5 -104q-17 -25 -40 -72.5t-52 -118.5q-31 -73 -44.5 -117.5t-13.5 -72.5z" />
<glyph unicode="&#x26;" horiz-adv-x="1681" d="M57 313q0 158 118.5 282.5t352.5 213.5q-2 21 -6 60q-10 103 -10 139q0 218 121 357.5t307 139.5q150 0 241 -72t91 -190q0 -126 -110 -228t-324 -175q28 -117 73 -234.5t107 -234.5q54 61 113 185.5t83 164.5q39 63 90 94t115 31q69 0 114.5 -43.5t45.5 -110.5 q0 -72 -43.5 -113.5t-118.5 -41.5q-33 0 -60.5 12.5t-49.5 37.5q-6 7 -17 23q-19 29 -33 29q-13 0 -68 -120t-134 -214q57 -107 103 -147.5t106 -40.5q62 0 114 48t92 142l58 -26q-62 -165 -163.5 -248.5t-240.5 -83.5q-81 0 -148 31.5t-140 105.5q-92 -70 -185 -103.5 t-194 -33.5q-179 0 -289.5 101t-110.5 263zM367 434q0 -142 75.5 -244t180.5 -102q48 0 90.5 14t77.5 41q-90 148 -150.5 295t-97.5 303q-85 -35 -130.5 -114.5t-45.5 -192.5zM776 1167q0 -60 10 -125t31 -141q133 55 201.5 153.5t68.5 233.5q0 77 -36 117.5t-105 40.5 q-72 0 -121 -78.5t-49 -200.5z" />
<glyph unicode="'" horiz-adv-x="358" d="M84 1354q0 52 24.5 80t69.5 28q47 0 71.5 -27.5t24.5 -80.5q0 -16 -0.5 -24.5t-1.5 -15.5l-73 -458h-39l-74 459q-1 7 -1.5 15.5t-0.5 23.5z" />
<glyph unicode="(" horiz-adv-x="788" d="M131 449q0 356 193 629.5t555 428.5l-9 -53q-104 -58 -187 -158t-151 -249q-102 -225 -158.5 -463t-56.5 -439q0 -106 23.5 -198.5t71.5 -173.5l-6 -66q-136 173 -205.5 360t-69.5 382z" />
<glyph unicode=")" horiz-adv-x="788" d="M-147 -293l8 53q104 59 187 158.5t151 249.5q102 224 158.5 462t56.5 439q0 109 -23 201t-69 172l6 65q135 -171 203.5 -358t68.5 -383q0 -356 -193 -629.5t-554 -429.5z" />
<glyph unicode="*" d="M150 930q0 38 31 65.5t77 30.5q10 1 28 2q136 9 212 59q-87 52 -212 59q-13 0 -20 1q-53 5 -84.5 32t-31.5 66q0 41 28 74t64 33q58 0 124 -96q8 -12 13 -19q26 -38 58 -66t81 -57v6q0 82 -42 176t-42 119q0 42 27 67t71 25q47 0 73 -24.5t26 -67.5q0 -27 -41 -118.5 t-41 -172.5v-14q6 5 22 16q72 51 113 109l15 21q67 96 122 96q34 0 64 -34.5t30 -74.5q0 -37 -32 -65t-76 -31q-8 -1 -24 -2q-144 -10 -218 -62q84 -49 205 -56q15 0 23 -1q57 -5 89.5 -31t32.5 -67q0 -40 -29 -73.5t-65 -33.5q-58 0 -124 96q-8 12 -13 19q-26 39 -57.5 67 t-79.5 56v-6q0 -83 41 -176.5t41 -118.5q0 -42 -27 -67t-72 -25t-70.5 24t-25.5 68q0 27 40 118t40 171v15q-7 -5 -24 -17q-69 -50 -109 -107l-7 -10q-74 -107 -132 -107q-33 0 -62.5 35t-29.5 74z" />
<glyph unicode="+" horiz-adv-x="1706" d="M254 528v166h514v527h170v-527h514v-166h-514v-528h-170v528h-514z" />
<glyph unicode="," horiz-adv-x="506" d="M-88 -248q106 59 169.5 128t63.5 120q0 14 -34 24t-52 19q-40 20 -61 55.5t-21 83.5q0 75 49.5 121.5t129.5 46.5q68 0 114.5 -58.5t46.5 -146.5q0 -125 -103 -246t-277 -196z" />
<glyph unicode="-" horiz-adv-x="676" d="M-12 373l63 243h502l-66 -243h-499z" />
<glyph unicode="." horiz-adv-x="506" d="M-41 133q0 71 50 120.5t120 49.5q71 0 120.5 -49.5t49.5 -120.5q0 -70 -49.5 -120t-120.5 -50t-120.5 50t-49.5 120z" />
<glyph unicode="/" horiz-adv-x="559" d="M-47 -190l489 1669h109l-490 -1669h-108z" />
<glyph unicode="0" horiz-adv-x="1010" d="M18 461q0 173 45.5 342t131.5 313q96 161 211.5 248.5t230.5 87.5q163 0 251.5 -135t88.5 -383q0 -156 -46 -320t-128 -303q-95 -162 -214 -254t-231 -92q-160 0 -250 130.5t-90 365.5zM246 172q0 -67 26.5 -104t73.5 -37q62 0 110 70.5t103 252.5q87 287 140 542.5 t53 356.5q0 66 -26.5 103t-74.5 37q-61 0 -108.5 -72.5t-110.5 -276.5q-86 -280 -136 -521.5t-50 -350.5z" />
<glyph unicode="1" horiz-adv-x="1010" d="M-6 0l12 61q131 2 179.5 30.5t86.5 166.5l222 795q1 6 5 20q19 63 19 101q0 49 -46.5 68.5t-180.5 21.5l10 61q158 9 285 40t223 85h68l-330 -1202q-9 -33 -14 -56t-5 -34q0 -53 45 -75t164 -22l-10 -61h-733z" />
<glyph unicode="2" horiz-adv-x="1010" d="M-113 0l29 96q174 213 358 413t187 204q85 114 126.5 224t41.5 220q0 105 -44 158t-130 53q-79 0 -143 -50.5t-64 -98.5q0 -7 6 -11t16 -4q3 0 22 4t36 4q50 0 81 -35t31 -94q0 -69 -40 -108t-113 -39q-67 0 -109.5 48.5t-42.5 125.5q0 135 119 237.5t283 102.5 q168 0 274.5 -96t106.5 -248q0 -112 -60.5 -212.5t-189.5 -203.5q-67 -53 -194 -149q-258 -195 -351 -295h328q153 0 214 40.5t105 157.5l59 -20l-147 -424h-795z" />
<glyph unicode="3" horiz-adv-x="1010" d="M-20 264q0 86 46 140.5t119 54.5q62 0 100 -37.5t38 -97.5q0 -67 -38.5 -106.5t-103.5 -39.5q-14 0 -29.5 1t-17.5 1q-10 0 -13 -3.5t-3 -16.5q0 -39 56.5 -79t123.5 -40q65 0 112.5 30.5t90.5 100.5q50 85 79 184t29 185q0 68 -45.5 110.5t-120.5 42.5q-10 0 -35 -3 t-40 -3q-29 0 -43.5 10t-14.5 31q0 16 14.5 25.5t41.5 9.5q5 0 27 -1t38 -1q50 0 88 17.5t70 56.5q59 69 95 176.5t36 214.5q0 78 -40 118.5t-116 40.5q-61 0 -112.5 -33.5t-51.5 -62.5q0 -4 26.5 -10t49.5 -18q33 -19 47.5 -43.5t14.5 -61.5q0 -63 -35.5 -101t-93.5 -38 q-64 0 -97.5 41t-33.5 119q0 109 95.5 191.5t225.5 82.5q166 0 273.5 -94t107.5 -238q0 -150 -112 -251t-310 -130v-22q147 -9 236.5 -95.5t89.5 -218.5q0 -186 -145 -313t-361 -127q-161 0 -259.5 83.5t-98.5 217.5z" />
<glyph unicode="4" horiz-adv-x="1010" d="M-63 344l24 123l832 983h170l-285 -1022h207l-11 -84h-221l-32 -127q-1 -2 -2 -6q-7 -35 -7 -51q0 -53 38.5 -75t133.5 -24l-12 -63h-649l10 63q103 2 147.5 35.5t75.5 139.5l31 108h-450zM23 428h391l209 702z" />
<glyph unicode="5" horiz-adv-x="1010" d="M-29 256q0 88 48.5 145.5t121.5 57.5q62 0 100 -37.5t38 -99.5q0 -70 -36.5 -106t-105.5 -36q-10 0 -24.5 2t-20.5 2q-12 0 -17 -2.5t-5 -9.5q0 -46 58.5 -88.5t129.5 -42.5q57 0 105.5 30.5t87.5 90.5q53 83 87.5 209.5t34.5 240.5q0 94 -46 141.5t-138 47.5 q-46 0 -87 -10t-79 -29q-7 -56 -25.5 -84.5t-45.5 -28.5q-17 0 -28 12t-11 29q0 22 15 47.5t44 55.5l223 661q95 -29 175.5 -43t146.5 -14q62 0 124.5 9t143.5 32l21 -23q-45 -134 -144 -202t-250 -68q-49 0 -109.5 9.5t-133.5 29.5l-117 -348q51 28 112.5 41.5t143.5 13.5 q149 0 249.5 -106t100.5 -267q0 -102 -40.5 -200.5t-117.5 -182.5q-73 -81 -176.5 -125.5t-218.5 -44.5q-140 0 -237 85t-97 206z" />
<glyph unicode="6" horiz-adv-x="1010" d="M37 442q0 163 44 324t126 299q109 184 245.5 283.5t278.5 99.5q117 0 197 -66.5t80 -162.5q0 -89 -42.5 -140t-115.5 -51q-60 0 -99.5 36.5t-39.5 90.5q0 42 16.5 75.5t44.5 49.5q26 14 67.5 21t41.5 16q0 24 -41 45.5t-95 21.5q-122 0 -200.5 -124t-175.5 -508 q61 58 122.5 86t126.5 28q129 0 207 -86t78 -229q0 -93 -29.5 -187.5t-82.5 -175.5q-76 -110 -178.5 -168.5t-219.5 -58.5q-168 0 -262 127t-94 354zM266 180q0 -77 29 -116t86 -39q52 0 88.5 44.5t71.5 151.5q35 110 55 214.5t20 164.5q0 67 -28.5 106t-77.5 39 q-39 0 -80.5 -28t-85.5 -84q-45 -196 -61.5 -294.5t-16.5 -158.5z" />
<glyph unicode="7" horiz-adv-x="1010" d="M121 911l184 516h752v-127l-258 -370q-126 -182 -196.5 -347t-100.5 -350q-26 -159 -66.5 -214.5t-118.5 -55.5q-72 0 -114.5 44.5t-42.5 119.5q0 78 70.5 201t215.5 299l443 536h-412q-85 0 -158 -66t-141 -204z" />
<glyph unicode="8" horiz-adv-x="1010" d="M8 301q0 123 77.5 219t250.5 187q-87 74 -130.5 156.5t-43.5 172.5q0 167 123.5 290.5t296.5 123.5q157 0 258.5 -86t101.5 -217q0 -99 -67 -179.5t-211 -154.5q105 -69 157.5 -161.5t52.5 -209.5q0 -201 -136.5 -338t-340.5 -137q-173 0 -281 93.5t-108 240.5zM182 305 q0 -114 70 -191t176 -77q120 0 199.5 75.5t79.5 188.5q0 75 -36.5 140t-103.5 110l-180 119q-97 -64 -151 -160t-54 -205zM340 1169q0 -60 32.5 -112t96.5 -94l149 -99q84 65 126 144t42 170q0 93 -60 153t-153 60q-99 0 -166 -63.5t-67 -158.5z" />
<glyph unicode="9" horiz-adv-x="1010" d="M-8 195q0 88 42.5 139t115.5 51q59 0 99 -37.5t40 -91.5q0 -42 -16.5 -74.5t-45.5 -48.5q-26 -14 -67 -21t-41 -16q0 -24 41 -46.5t94 -22.5q122 0 200.5 124.5t176.5 510.5q-62 -59 -123 -87t-127 -28q-128 0 -206.5 86t-78.5 229q0 93 29.5 186.5t83.5 174.5 q76 111 178.5 170t218.5 59q168 0 262.5 -127t94.5 -354q0 -163 -44 -324t-126 -299q-110 -184 -246.5 -283.5t-278.5 -99.5q-117 0 -196.5 67t-79.5 163zM383 813q0 -67 29 -106t77 -39q39 0 80.5 28t85.5 84q45 197 61.5 295t16.5 158q0 76 -28.5 114.5t-86.5 38.5 q-52 0 -88.5 -44t-70.5 -150q-35 -110 -55.5 -214.5t-20.5 -164.5z" />
<glyph unicode=":" horiz-adv-x="553" d="M-53 135q0 72 50 122t120 50t120 -50.5t50 -121.5q0 -70 -49.5 -119t-120.5 -49q-72 0 -121 49t-49 119zM90 834q0 71 50 121.5t120 50.5t120 -50.5t50 -121.5q0 -70 -49.5 -119t-120.5 -49t-120.5 49t-49.5 119z" />
<glyph unicode=";" horiz-adv-x="553" d="M-88 -248q106 59 169.5 128t63.5 120q0 14 -34 24t-52 19q-40 20 -61 55.5t-21 83.5q0 75 49.5 121.5t129.5 46.5q68 0 114.5 -58.5t46.5 -146.5q0 -125 -103 -246t-277 -196zM115 834q0 71 50 121.5t120 50.5q69 0 119.5 -51t50.5 -121t-49.5 -119t-120.5 -49 q-72 0 -121 48.5t-49 119.5z" />
<glyph unicode="&#x3c;" horiz-adv-x="1706" d="M264 530v160l1178 486v-185l-934 -381l934 -381v-182z" />
<glyph unicode="=" horiz-adv-x="1706" d="M254 322v165h1198v-165h-1198zM254 733v168h1198v-168h-1198z" />
<glyph unicode="&#x3e;" horiz-adv-x="1706" d="M264 47v182l934 381l-934 381v185l1178 -486v-160z" />
<glyph unicode="?" horiz-adv-x="1014" d="M139 135q0 72 50 122t120 50q71 0 120.5 -50.5t49.5 -121.5q0 -70 -49 -119t-121 -49t-121 48.5t-49 119.5zM227 1247q0 109 103 185.5t256 76.5q174 0 283.5 -89.5t109.5 -229.5q0 -106 -62.5 -189t-248.5 -200l-9 -6q-216 -139 -262 -336l-53 16q16 81 46.5 154 t76.5 137l3 4q216 300 216 459q0 100 -44 157.5t-120 57.5q-43 0 -75.5 -16t-32.5 -33q0 -14 35 -32q18 -9 28 -15q26 -17 42 -45.5t16 -59.5q0 -67 -43.5 -111.5t-108.5 -44.5q-68 0 -112 45t-44 115z" />
<glyph unicode="@" horiz-adv-x="2019" d="M139 537q0 203 86 381t250 313q135 111 297.5 168t345.5 57q348 0 557 -188.5t209 -501.5q0 -159 -59 -297.5t-168 -237.5q-62 -54 -129 -82t-133 -28q-98 0 -152.5 52.5t-60.5 152.5q-64 -105 -137.5 -154t-165.5 -49q-134 0 -212.5 92t-78.5 248q0 112 49 219t141 195 q68 65 147.5 99t161.5 34q90 0 145.5 -47.5t72.5 -139.5l51 170h172l-172 -616l-2 -6q-15 -59 -15 -90q0 -49 22 -76t60 -27q34 0 84 22t92 56q110 88 169 222t59 296q0 279 -191 450t-504 171q-173 0 -328.5 -65t-273.5 -185q-122 -125 -183.5 -286t-61.5 -357 q0 -172 59.5 -306.5t179.5 -234.5q106 -88 247 -135t302 -47q166 0 321 51.5t304 157.5l37 -47q-148 -111 -315 -167.5t-347 -56.5q-188 0 -347 46.5t-275 134.5q-151 113 -230.5 277t-79.5 362zM772 367q0 -83 36.5 -133t94.5 -50q62 0 115.5 41.5t107.5 132.5 q56 96 89.5 210t33.5 204q0 83 -37.5 132.5t-99.5 49.5q-64 0 -117 -45t-106 -147q-57 -107 -87 -209.5t-30 -185.5z" />
<glyph unicode="A" horiz-adv-x="1401" d="M-147 0l16 63q82 4 134.5 40t117.5 143l760 1261h94l141 -1271q12 -102 49 -135.5t133 -37.5v-63h-665v63q93 2 130.5 32t37.5 102q0 11 -3 36.5t-3 34.5l-19 164h-444l-68 -110q-28 -47 -42.5 -91t-14.5 -79q0 -43 38 -66t111 -23h9l-7 -63h-505zM379 512h387l-59 543z " />
<glyph unicode="B" horiz-adv-x="1575" d="M-76 0l15 66q96 0 134 28.5t70 147.5l265 981q8 34 13 62t5 40q0 50 -29.5 68t-133.5 22l11 64h603q316 0 471 -84.5t155 -255.5q0 -167 -123.5 -256.5t-390.5 -114.5v-12q185 -35 280 -122t95 -220q0 -193 -160 -303.5t-440 -110.5h-840zM459 147q0 -42 38 -61.5 t119 -19.5q202 0 307 114t105 334q0 124 -56.5 171.5t-211.5 47.5h-148l-135 -483q-8 -29 -13 -57t-5 -46zM629 797h61q128 0 206 14.5t126 46.5q67 46 110.5 145t43.5 211q0 109 -54.5 155t-181.5 46q-92 0 -131.5 -33t-71.5 -155z" />
<glyph unicode="C" horiz-adv-x="1417" d="M70 563q0 175 62.5 340t180.5 303q130 151 275 226t307 75q112 0 222.5 -50t125.5 -50q28 0 58.5 20t89.5 80l47 -4l-129 -581h-70q-3 256 -77.5 384t-221.5 128q-103 0 -186.5 -65.5t-153.5 -201.5q-98 -190 -155.5 -399t-57.5 -367q0 -172 78 -266t219 -94 q149 0 271 110t200 316l57 -25q-97 -252 -243.5 -372.5t-354.5 -120.5q-245 0 -394.5 168t-149.5 446z" />
<glyph unicode="D" horiz-adv-x="1573" d="M-76 0l17 63q89 0 128.5 32.5t69.5 142.5l264 972q10 37 15.5 68t5.5 47q0 50 -32.5 69t-134.5 21l17 64h619q307 0 460.5 -141.5t153.5 -424.5q0 -226 -105.5 -437.5t-285.5 -344.5q-90 -66 -211 -98.5t-274 -32.5h-707zM446 141q0 -39 33 -58.5t99 -19.5 q144 0 221.5 33.5t136.5 116.5q41 57 76.5 133t62.5 170q58 189 88.5 344t30.5 254q0 152 -70.5 226.5t-212.5 74.5q-72 0 -110 -37t-68 -151l-274 -1016q-7 -25 -10 -42t-3 -28z" />
<glyph unicode="E" horiz-adv-x="1571" d="M-63 0l16 63h8q84 0 121 29t65 133l271 985q12 45 17 69.5t5 39.5q0 48 -36.5 68.5t-132.5 23.5l18 68h1249l-106 -533h-76v39q0 200 -98.5 313t-272.5 113q-110 0 -153.5 -25t-61.5 -92l-133 -489h14q150 0 246 61.5t141 188.5h66l-170 -645h-70q1 17 1.5 34t0.5 39 q0 134 -58 194.5t-187 61.5l-160 -564q-3 -10 -4.5 -19t-1.5 -19q0 -38 36 -56t117 -18q188 0 339.5 104.5t340.5 371.5h66l-158 -539h-1259z" />
<glyph unicode="F" horiz-adv-x="1460" d="M-80 0l14 61q85 0 128 30t63 102l287 1060q5 22 8.5 40t3.5 28q0 52 -35 72t-132 22l13 64h1219l-117 -572h-63v41q0 237 -91 350t-280 113q-86 0 -123.5 -27t-58.5 -104l-133 -483h8q148 0 244 62.5t153 197.5h64l-183 -656h-71q0 5 1 15q7 58 7 78q0 120 -51 179.5 t-154 59.5q-15 0 -23 -0.5t-14 -1.5l-151 -538q-1 -3 -2 -7q-6 -29 -7 -43q0 -45 35 -62.5t139 -19.5l-16 -61h-682z" />
<glyph unicode="G" horiz-adv-x="1462" d="M55 559q0 177 61 336t183 301q126 145 288.5 229t313.5 84q60 0 109.5 -7.5t89.5 -22.5q21 -8 69.5 -33t73.5 -25q26 0 55 23.5t54 64.5h53l-115 -569h-61q-2 245 -79 376.5t-218 131.5q-109 0 -197.5 -81t-173.5 -259q-47 -101 -84 -208.5t-63 -219.5 q-29 -124 -43.5 -220t-14.5 -159q0 -123 60.5 -202t152.5 -79q72 0 125 30t94 93q44 68 69.5 153t25.5 163q0 68 -33.5 93.5t-132.5 25.5h-17l19 65h682l-17 -65q-85 0 -124 -29t-60 -111l-129 -489h-63q-28 68 -54 98.5t-55 30.5q-23 0 -76 -33q-23 -14 -34 -20 q-79 -44 -135 -60t-115 -16q-213 0 -348.5 169.5t-135.5 440.5z" />
<glyph unicode="H" horiz-adv-x="1679" d="M-86 0l18 63q90 0 131.5 34t77.5 165l277 985q6 21 9 42.5t3 41.5q0 45 -36.5 63.5t-130.5 20.5l13 64h685l-21 -64h-8q-85 0 -125 -35t-76 -163l-117 -420h476l129 450q6 23 10 45.5t4 38.5q0 45 -36.5 63.5t-131.5 20.5l14 64h682l-18 -64h-8q-84 0 -125 -35.5 t-78 -162.5l-272 -986q-7 -23 -11 -44.5t-4 -36.5q0 -46 38 -65.5t130 -21.5l-14 -63h-682l18 63q90 0 131.5 34t77.5 165l125 453h-477l-135 -484q-7 -23 -11 -44.5t-4 -36.5q0 -46 38 -65.5t130 -21.5l-14 -63h-682z" />
<glyph unicode="I" horiz-adv-x="893" d="M-76 0l17 70h22q73 0 112.5 32.5t59.5 108.5l281 1040q6 21 9 41t3 39q0 48 -32 67t-120 19h-18l14 62h680l-12 -62h-10q-82 0 -120.5 -29.5t-61.5 -109.5l-289 -1077q-3 -10 -4.5 -22t-1.5 -25q0 -46 33 -65t112 -19h16l-16 -70h-674z" />
<glyph unicode="J" horiz-adv-x="1130" d="M-102 199q0 75 47 126.5t114 51.5q72 0 116 -43t44 -111q0 -38 -14 -69.5t-39 -51.5q-17 -13 -51.5 -25.5t-34.5 -23.5q0 -13 23 -24t57 -11q99 0 155 77.5t142 402.5l190 727q9 33 13 56.5t4 39.5q0 54 -36 74t-144 22l14 62h708l-14 -62h-12q-92 0 -129 -27.5 t-64 -123.5l-205 -783q-75 -295 -207.5 -415.5t-369.5 -120.5q-135 0 -221 71.5t-86 180.5z" />
<glyph unicode="K" horiz-adv-x="1569" d="M-90 0l14 70h15q78 0 120 34t64 115l285 1043q5 20 8.5 40t3.5 33q0 48 -31.5 66t-120.5 18h-20l14 60h682l-12 -60q-91 0 -131.5 -32t-67.5 -132l-145 -548l588 530q29 27 45 56t16 57q0 36 -34.5 52.5t-108.5 16.5l14 60h569l-14 -58q-1 0 -3 -1t-3 -1 q-85 0 -177.5 -45t-191.5 -135l-305 -276l289 -777q24 -62 67.5 -89t122.5 -27l-12 -70h-670l15 70q78 0 113.5 20.5t35.5 65.5q0 22 -5.5 47.5t-17.5 57.5l-176 482l-190 -159l-98 -375q-6 -22 -9.5 -38.5t-3.5 -29.5q0 -37 33.5 -54t106.5 -17h26l-16 -70h-684z" />
<glyph unicode="L" horiz-adv-x="1341" d="M-102 0l18 72h12q85 0 121.5 25t59.5 102l294 1064q5 17 8 36t3 34q0 45 -33.5 63t-136.5 22l18 61h696l-14 -62q-97 0 -141.5 -29.5t-67.5 -107.5l-286 -1030q-9 -30 -13 -55.5t-4 -47.5q0 -40 26.5 -57.5t86.5 -17.5q195 0 374.5 132t309.5 371h69l-184 -575h-1216z " />
<glyph unicode="M" horiz-adv-x="1896" d="M-111 0l17 70q93 16 141 66.5t96 223.5l248 904q6 24 9 41t3 26q0 48 -30 66.5t-117 22.5l12 59h516l78 -944l596 944h506l-12 -60h-6q-71 0 -114.5 -32.5t-62.5 -98.5l-284 -1048q-8 -29 -11.5 -46t-3.5 -30q0 -47 32.5 -68t115.5 -27l-14 -69h-654l17 70h24 q71 0 110 36.5t62 126.5l295 1108l-819 -1341h-53l-92 1356l-283 -1024q-8 -29 -12 -58.5t-4 -58.5q0 -70 41 -107t120 -39l-4 -69h-463z" />
<glyph unicode="N" horiz-adv-x="1556" d="M-111 0l17 65q106 14 158 61t96 210l274 991q-27 48 -74 70t-122 22l14 60h483l410 -1018l192 692q11 40 16 67.5t5 49.5q0 78 -40.5 111t-143.5 38l14 60h485l-12 -60q-173 -10 -259 -319l-5 -18l-305 -1107h-84l-519 1274l-239 -876q-14 -50 -21.5 -92t-7.5 -74 q0 -73 46.5 -106.5t152.5 -35.5l-17 -65h-514z" />
<glyph unicode="O" horiz-adv-x="1462" d="M57 545q0 193 74 383.5t201 328.5q111 121 253 186.5t289 65.5q238 0 380.5 -160t142.5 -429q0 -204 -71.5 -393.5t-197.5 -317.5q-122 -125 -265.5 -192.5t-287.5 -67.5q-86 0 -163.5 25.5t-141.5 74.5q-95 74 -154 211t-59 285zM344 270q0 -123 60.5 -190.5 t168.5 -67.5q99 0 173.5 70.5t142.5 228.5q54 127 96 257.5t72 265.5q27 118 40 206.5t13 149.5q0 123 -59.5 189.5t-169.5 66.5q-100 0 -176 -69t-142 -222q-47 -109 -90 -248t-80 -299q-24 -105 -36.5 -191t-12.5 -147z" />
<glyph unicode="P" horiz-adv-x="1573" d="M-70 0l13 63q96 0 139.5 32t67.5 122l278 1041q5 20 7.5 38t2.5 33q0 47 -30.5 64.5t-136.5 21.5l18 64h770q217 0 347 -102t130 -269q0 -217 -188 -327.5t-555 -110.5q-53 0 -102 1.5t-95 4.5l-127 -478q-4 -19 -6 -32t-2 -23q0 -43 33.5 -60.5t134.5 -19.5l-15 -63 h-684zM611 741q30 -2 49 -3t34 -1q137 0 226 18.5t129 55.5q59 55 102 174.5t43 239.5q0 103 -52 146.5t-175 43.5q-106 0 -147 -29t-62 -106z" />
<glyph unicode="Q" horiz-adv-x="1462" d="M57 563q0 161 59 329t163 300q117 149 271.5 230t321.5 81q242 0 383.5 -156t141.5 -423q0 -289 -122 -518t-343 -357q28 -85 59 -121.5t76 -36.5q57 0 96 40.5t64 123.5l53 -16q-56 -190 -144 -280.5t-218 -90.5q-99 0 -153 62.5t-54 177.5q0 20 0.5 31t1.5 20 q-34 -6 -69.5 -9t-78.5 -3q-227 0 -367.5 169.5t-140.5 446.5zM344 240q42 103 105 152.5t151 49.5q96 0 161 -49.5t97 -148.5q39 55 76.5 157t105.5 357q34 126 52 242.5t18 203.5q0 111 -60.5 173.5t-168.5 62.5q-122 0 -205.5 -97t-175.5 -360q-75 -215 -115.5 -403.5 t-40.5 -319.5v-20zM406 182q0 -70 48 -121t113 -51q53 0 92.5 13t69.5 40q11 44 16 77.5t5 60.5q0 80 -45 127t-121 47t-127 -56t-51 -137z" />
<glyph unicode="R" horiz-adv-x="1569" d="M-115 0l15 66q102 8 140.5 35t63.5 122l281 1028q6 24 9 46.5t3 41.5q0 41 -34.5 57.5t-130.5 18.5l14 64h590q317 0 472.5 -84t155.5 -254q0 -178 -160.5 -281t-443.5 -105l-2 -10q136 -33 208 -119t89 -235l16 -135q7 -48 23 -71t43 -23q40 0 69 52t50 163h65 q-22 -197 -110.5 -303.5t-229.5 -106.5q-115 0 -185.5 80.5t-70.5 214.5q0 29 1.5 58t4.5 56l19 113q4 25 6 48t2 41q0 90 -58.5 125.5t-228.5 37.5l-145 -547q-5 -20 -6.5 -30t-1.5 -21q0 -42 38 -59.5t130 -17.5l-15 -66h-686zM592 805q2 0 7 -1q54 -3 79 -3 q227 0 338.5 102.5t111.5 310.5q0 109 -48 155t-162 46q-86 0 -131.5 -29t-63.5 -94z" />
<glyph unicode="S" horiz-adv-x="1231" d="M-70 -18l152 587l69 -4q5 -258 107.5 -399t286.5 -141q138 0 221.5 72t83.5 192q0 79 -44.5 141.5t-135.5 112.5l-193 102q-142 76 -216.5 181.5t-74.5 230.5q0 186 137 318t330 132q57 0 113 -13t117 -40q22 -10 60 -30q76 -40 108 -40t66 24.5t71 74.5l55 -4l-139 -551 l-67 2q0 10 0.5 22t0.5 35q0 212 -99.5 331.5t-274.5 119.5q-111 0 -188 -67.5t-77 -162.5q0 -63 51.5 -124t151.5 -115l184 -101q161 -88 228 -186.5t67 -241.5q0 -210 -146 -350.5t-372 -140.5q-72 0 -137 16t-124 49q-18 10 -48 28q-75 46 -107 46t-69.5 -27.5 t-77.5 -80.5z" />
<glyph unicode="T" horiz-adv-x="1343" d="M78 958l162 521h1200l-119 -545h-65q0 11 0.5 25.5t0.5 41.5q0 207 -65.5 309t-199.5 105l-326 -1193q-2 -8 -6 -22q-9 -35 -9 -53q0 -40 43 -59.5t133 -19.5h15l-15 -68h-729l13 68q180 0 224 163l1 5l326 1183q-132 -12 -262 -129t-253 -332h-69z" />
<glyph unicode="U" horiz-adv-x="1567" d="M150 293q0 43 9 96t34 146l184 698q7 24 10.5 48t3.5 48q0 49 -32.5 68t-132.5 22l18 60h682l-15 -60q-92 0 -129 -26.5t-63 -124.5l-236 -869q-12 -44 -18 -81t-6 -66q0 -101 69 -156t195 -55q168 0 261.5 89t158.5 327l200 745q7 23 10 42.5t3 35.5q0 68 -49 103 t-145 36l16 60h501l-16 -60q-96 0 -152 -50.5t-88 -166.5l-206 -762q-3 -8 -7 -24q-62 -234 -135 -312q-71 -76 -175 -115.5t-232 -39.5q-230 0 -374 96.5t-144 247.5z" />
<glyph unicode="V" horiz-adv-x="1348" d="M111 1417l14 62h666l-9 -62h-12q-92 0 -125 -28.5t-33 -108.5q0 -21 0.5 -30t1.5 -17l86 -823l492 825q13 22 21 45.5t8 42.5q0 48 -39.5 71t-120.5 23h-10l12 62h457l-13 -62q-52 -3 -100.5 -38.5t-87.5 -100.5l-805 -1331h-76l-149 1325q-11 93 -40.5 116.5 t-137.5 28.5z" />
<glyph unicode="W" horiz-adv-x="1896" d="M101 1415l10 66h594l-9 -66q-84 0 -114.5 -27.5t-30.5 -105.5q0 -13 0.5 -24.5t1.5 -22.5l61 -766l324 586l-23 219q-8 87 -34 112.5t-96 28.5l8 66h593l-8 -66q-84 0 -114.5 -27.5t-30.5 -105.5q0 -16 0.5 -26.5t1.5 -20.5l63 -766l426 766q15 26 22 47.5t7 40.5 q0 47 -39 69.5t-121 22.5h-10l12 66h457l-14 -65q-57 -4 -108.5 -48t-100.5 -131l-725 -1290h-62l-94 958l-524 -958h-64l-127 1327q-8 85 -34.5 111.5t-97.5 29.5z" />
<glyph unicode="X" horiz-adv-x="1462" d="M-127 0l14 68q78 13 149 54.5t136 110.5l424 459l-141 572q-23 89 -68.5 122.5t-148.5 37.5l10 55h674l-13 -56q-77 -1 -111 -19t-34 -56q0 -13 3.5 -33t10.5 -45l84 -324l246 250q42 44 63 79t21 62q0 44 -36 65t-107 21h-11l11 56h522l-15 -56q-128 -10 -321 -202 l-10 -11l-346 -346l155 -614q27 -107 73.5 -144.5t145.5 -37.5h9l-13 -68h-680l11 68q86 1 118.5 18t32.5 59q0 16 -13 65q-3 12 -5 19l-97 377l-239 -258q-67 -72 -94 -115.5t-27 -76.5q0 -40 40.5 -64t109.5 -24h8l-11 -68h-530z" />
<glyph unicode="Y" horiz-adv-x="1454" d="M131 0l14 66q99 0 136.5 22.5t58.5 97.5l137 486l-172 649q-15 57 -47.5 78t-122.5 25l12 55h668l-8 -56q-96 0 -133 -19t-37 -67q0 -9 1.5 -20.5t4.5 -24.5l137 -522l359 455q16 21 25.5 44t9.5 44q0 49 -43 78t-121 33l12 55h526l-10 -56q-71 -6 -146.5 -55.5 t-144.5 -134.5l-434 -541l-135 -499q-2 -6 -3 -18.5t-1 -29.5q0 -43 34 -61t119 -18h19l-15 -66h-700z" />
<glyph unicode="Z" horiz-adv-x="1343" d="M-123 0v39l1128 1382q-12 1 -27.5 1.5t-45.5 0.5q-229 0 -397.5 -111.5t-292.5 -344.5h-70l160 512h1095v-29l-1128 -1382q2 -1 6 -1q60 -4 88 -4q246 0 428.5 119t333.5 379h64l-175 -561h-1167z" />
<glyph unicode="[" horiz-adv-x="791" d="M-63 -240l460 1719h469l-10 -68h-248l-424 -1581h248l-10 -70h-485z" />
<glyph unicode="\" horiz-adv-x="559" d="M133 1507h109l188 -1697h-104z" />
<glyph unicode="]" horiz-adv-x="791" d="M-141 -240l10 70h248l424 1581h-248l10 68h485l-458 -1719h-471z" />
<glyph unicode="^" horiz-adv-x="2048" d="M412 897l503 565h215l502 -565h-104l-506 397l-506 -397h-104z" />
<glyph unicode="_" d="M0 -311h1024v-172h-1024v172z" />
<glyph unicode="`" d="M311 1401q0 47 30 77.5t75 30.5q31 0 60.5 -18.5t60.5 -56.5l249 -318h-120l-275 178q-42 29 -61 54.5t-19 52.5z" />
<glyph unicode="a" horiz-adv-x="1171" d="M10 338q0 117 33.5 224t101.5 208q74 109 167 169t186 60q80 0 132.5 -46t82.5 -144l49 170q24 -2 57 -3t72 -1q34 0 68 1.5t67 4.5l-213 -770q-1 -4 -4 -15q-8 -31 -8 -53q0 -21 10 -33t29 -12q36 0 75.5 47t94.5 154l49 -20q-70 -156 -155.5 -235t-182.5 -79 q-70 0 -111.5 47.5t-52.5 139.5q-52 -88 -122 -137.5t-140 -49.5q-127 0 -206 103t-79 270zM270 195q0 -59 24.5 -88t74.5 -29q63 0 119 63t85 168l103 363q3 11 4.5 23t1.5 24q0 71 -38 116.5t-97 45.5q-42 0 -78.5 -42t-71.5 -130q-57 -145 -92 -290.5t-35 -223.5z" />
<glyph unicode="b" horiz-adv-x="1120" d="M51 289q0 48 11.5 107.5t43.5 170.5l209 731q5 17 8 35t3 29q0 33 -24.5 46t-88.5 13h-20l14 64l436 22l-170 -616q57 56 115.5 84.5t120.5 28.5q125 0 207.5 -112t82.5 -286q0 -140 -52.5 -262t-149.5 -211q-90 -80 -190.5 -122t-205.5 -42q-163 0 -256.5 85t-93.5 235z M289 168q0 -58 32.5 -96.5t81.5 -38.5q66 0 113.5 46.5t85.5 147.5q53 143 84 289t31 238q0 71 -25.5 107t-77.5 36q-43 0 -87 -32.5t-87 -96.5l-133 -475q-10 -33 -14 -63t-4 -62z" />
<glyph unicode="c" horiz-adv-x="958" d="M-25 365q0 125 43.5 233t133.5 205q86 94 199.5 147.5t228.5 53.5q133 0 217 -67.5t84 -172.5q0 -70 -46.5 -118t-113.5 -48q-64 0 -109 39.5t-45 95.5q0 85 94 143q27 18 27 25q0 18 -22.5 30.5t-57.5 12.5q-47 0 -91.5 -29t-80.5 -84q-34 -54 -63.5 -119.5 t-53.5 -140.5q-28 -88 -43.5 -169t-15.5 -140q0 -86 42.5 -138t111.5 -52q90 0 175 54.5t163 162.5l36 -35q-95 -143 -207 -215t-239 -72q-174 0 -270.5 104.5t-96.5 293.5z" />
<glyph unicode="d" horiz-adv-x="1145" d="M-16 342q0 135 48 264.5t136 229.5q70 80 150.5 124t156.5 44q82 0 135 -43.5t74 -126.5l135 477q2 6 3 18.5t1 30.5q0 31 -23.5 44t-82.5 13h-27l10 68l441 22l-355 -1296q-6 -25 -9 -42t-3 -28q0 -19 10.5 -32t26.5 -13q35 0 83 56t91 149l51 -25q-70 -149 -155.5 -229 t-173.5 -80q-77 0 -119.5 45t-55.5 140q-61 -93 -129 -139t-143 -46q-125 0 -200.5 102t-75.5 273zM244 205q0 -60 25.5 -93.5t70.5 -33.5q58 0 115 59t82 148l112 389l1 2q5 28 5 53q0 66 -36 111t-89 45q-51 0 -91.5 -45t-78.5 -144q-52 -138 -84 -278.5t-32 -212.5z" />
<glyph unicode="e" horiz-adv-x="987" d="M-27 377q0 127 61.5 247.5t176.5 219.5q91 78 187.5 119t193.5 41q126 0 203 -63t77 -165q0 -145 -154 -241t-439 -127q-9 -39 -14 -74t-5 -62q0 -87 47 -137.5t127 -50.5q84 0 164.5 53.5t167.5 167.5l41 -31q-93 -148 -210 -227.5t-243 -79.5q-166 0 -273.5 115 t-107.5 295zM293 471q186 30 307 135.5t121 229.5q0 45 -30.5 74.5t-76.5 29.5q-97 0 -172.5 -109t-148.5 -360z" />
<glyph unicode="f" horiz-adv-x="670" d="M-31 0l226 895h-158l18 84h170l33 104q66 203 186.5 313.5t272.5 110.5q95 0 154 -46.5t59 -121.5q0 -62 -37.5 -104.5t-91.5 -42.5q-55 0 -91 33t-36 84q0 48 40 79.5t40 36.5q0 6 -12.5 12.5t-26.5 6.5q-60 0 -97 -55.5t-81 -231.5l-43 -178h186l-21 -84h-190 l-219 -895h-281z" />
<glyph unicode="g" horiz-adv-x="1090" d="M-125 -199q0 62 36.5 97.5t98.5 35.5t102 -33t40 -85q0 -42 -25 -79t-25 -38q0 -8 18.5 -14.5t45.5 -6.5q119 0 196 103t134 340q-62 -62 -120 -91.5t-116 -29.5q-113 0 -190.5 105.5t-77.5 265.5q0 114 43 231t121 213q74 91 158 140t165 49q80 0 131.5 -45.5 t77.5 -139.5l51 159q33 -2 64 -3.5t63 -1.5q26 0 57.5 2t67.5 6l-237 -893q-62 -230 -206 -347.5t-364 -117.5q-140 0 -224.5 49.5t-84.5 128.5zM256 236q0 -61 24.5 -93t69.5 -32t89.5 29t82.5 83l131 455q1 9 1.5 17t0.5 16q0 72 -35 123t-83 51q-49 0 -88 -40t-74 -126 q-54 -131 -86.5 -268.5t-32.5 -214.5z" />
<glyph unicode="h" horiz-adv-x="1241" d="M-37 0l375 1284q8 31 13 58t5 40q0 28 -31 41t-102 15l15 57l436 12l-219 -772q101 133 191.5 196.5t176.5 63.5q89 0 143 -56.5t54 -147.5q0 -31 -8.5 -71t-24.5 -87l-131 -385q-12 -34 -18.5 -62.5t-6.5 -46.5q0 -23 10.5 -35t30.5 -12q43 0 94 57.5t97 159.5l49 -28 q-78 -159 -162 -234.5t-182 -75.5q-95 0 -145 47.5t-50 137.5q0 43 13 108.5t37 134.5l104 314q10 27 15.5 52t5.5 40q0 24 -13 37.5t-35 13.5q-61 0 -144 -83.5t-159 -225.5l-161 -547h-273z" />
<glyph unicode="i" horiz-adv-x="729" d="M25 152q0 23 4.5 49.5t15.5 64.5l152 520q5 21 8.5 35t3.5 19q0 37 -27 51t-108 14l14 66l434 12l-219 -782q-5 -21 -7.5 -37t-2.5 -29q0 -18 13 -30.5t32 -12.5q38 0 85.5 49.5t108.5 151.5l46 -29q-96 -161 -181.5 -229t-189.5 -68q-82 0 -132 50.5t-50 134.5z M301 1323q0 65 45.5 110.5t110.5 45.5q63 0 108 -46t45 -110t-44.5 -109t-108.5 -45q-65 0 -110.5 45t-45.5 109z" />
<glyph unicode="j" horiz-adv-x="705" d="M-367 -197q0 55 37 93t88 38q57 0 92 -32.5t35 -85.5q0 -48 -59 -91q-16 -12 -16 -16q0 -12 14.5 -21.5t34.5 -9.5q58 0 95 43.5t64 145.5l205 776q22 85 30.5 125.5t8.5 56.5q0 46 -34 63.5t-165 20.5l13 58l508 12l-222 -846q-69 -266 -186.5 -390t-300.5 -124 q-103 0 -172.5 53.5t-69.5 130.5zM340 1321q0 65 46 111.5t112 46.5q64 0 109.5 -46.5t45.5 -111.5q0 -64 -46.5 -110t-110.5 -46q-66 0 -111 45.5t-45 110.5z" />
<glyph unicode="k" horiz-adv-x="1204" d="M-49 0l356 1288q5 17 7.5 34.5t2.5 31.5q0 37 -21.5 50.5t-110.5 16.5l16 64l434 22l-242 -888q73 2 146.5 52t179.5 175q82 97 126 125t93 28q59 0 103 -41.5t44 -97.5q0 -68 -38.5 -108.5t-102.5 -40.5q-73 0 -127 79q-15 21 -20 21q-6 0 -76 -77t-154 -130 q109 -40 152.5 -103t50.5 -201v-11q6 -135 66 -135q34 0 67 39.5t80 140.5l47 -25q-59 -157 -151 -242t-201 -85q-88 0 -137 56.5t-49 158.5q0 36 11 104t11 98q0 81 -29.5 113.5t-107.5 40.5l-156 -553h-270z" />
<glyph unicode="l" horiz-adv-x="678" d="M-6 160q0 28 2 48.5t6 35.5l287 1061q3 12 4.5 23.5t1.5 21.5q0 39 -23 53.5t-104 17.5l12 60l430 26l-331 -1239q-15 -49 -21 -79t-6 -48q0 -23 13.5 -37t35.5 -14q40 0 93.5 61t117.5 179l47 -29q-83 -165 -178 -250.5t-195 -85.5q-89 0 -140.5 52t-51.5 143z" />
<glyph unicode="m" horiz-adv-x="1772" d="M-31 0l205 743q12 41 17.5 68t5.5 45q0 31 -24.5 44.5t-106.5 19.5l16 59l418 16l-74 -293q102 145 199.5 219t185.5 74t135 -50.5t47 -145.5q0 -18 -3 -52q-1 -6 -1 -10q101 130 192.5 194t176.5 64q87 0 138.5 -50t51.5 -136q0 -39 -10.5 -90t-36.5 -131l-100 -311 q-3 -10 -9 -28q-22 -69 -22 -102q0 -16 13 -29.5t30 -13.5q41 0 84 49t102 164l46 -28q-83 -165 -165 -238.5t-182 -73.5q-86 0 -133 55.5t-47 157.5q0 42 12 97.5t41 144.5l103 322q5 14 7.5 28.5t2.5 28.5q0 26 -13 40.5t-36 14.5q-54 0 -138 -87t-161 -228l-152 -551 h-266l211 764q4 17 6 28.5t2 20.5q0 24 -13.5 38.5t-35.5 14.5q-57 0 -136.5 -85.5t-158.5 -233.5l-155 -547h-269z" />
<glyph unicode="n" horiz-adv-x="1235" d="M-31 -2l215 780q7 25 10 42.5t3 31.5q0 34 -26 47t-109 15l20 65l418 14l-62 -268q104 137 196.5 202.5t180.5 65.5q86 0 139.5 -56.5t53.5 -148.5q0 -26 -6.5 -58.5t-22.5 -84.5l-125 -389l-2 -6q-21 -69 -21 -94q0 -22 14 -37t34 -15q35 0 81.5 56t96.5 159l49 -20 q-74 -162 -160 -243t-184 -81q-78 0 -131 54t-53 133q0 51 10 110.5t30 126.5l107 344q6 20 9 37t3 31q0 23 -13.5 38t-33.5 15q-56 0 -134 -82.5t-159 -228.5l-151 -555h-277z" />
<glyph unicode="o" horiz-adv-x="1008" d="M-29 391q0 116 47.5 230t133.5 202q84 86 179 131t191 45q164 0 270.5 -119t106.5 -305q0 -113 -41 -219t-121 -196q-84 -93 -183.5 -143t-201.5 -50q-169 0 -275 118t-106 306zM231 168q0 -66 28 -100.5t81 -34.5q59 0 101.5 52.5t82.5 180.5q55 174 88 324t33 207 q0 68 -29 104.5t-84 36.5q-54 0 -93.5 -47.5t-80.5 -167.5q-58 -172 -92.5 -325t-34.5 -230z" />
<glyph unicode="p" horiz-adv-x="1120" d="M-272 -379l12 57q79 0 118.5 28t59.5 99l270 967q1 2 2 6q13 46 13 78q0 33 -22.5 45.5t-108.5 18.5l14 59l412 20l-37 -182q67 92 132 137t130 45q127 0 199.5 -95.5t72.5 -264.5q0 -148 -51.5 -283t-148.5 -241q-66 -72 -143 -111t-152 -39q-70 0 -122.5 38.5 t-90.5 119.5l-90 -311q-1 -2 -2 -5q-9 -31 -9 -53q0 -42 33 -59t119 -17l-8 -57h-602zM309 215q9 -58 46.5 -96.5t82.5 -38.5q54 0 94 48.5t91 180.5q53 145 83.5 268t30.5 187q0 54 -24.5 85.5t-67.5 31.5q-49 0 -102.5 -52t-108.5 -153z" />
<glyph unicode="q" horiz-adv-x="1110" d="M-20 338q0 126 42.5 244.5t124.5 218.5q77 94 177 147t200 53q86 0 153 -36.5t136 -120.5l160 157h43l-311 -1125q-3 -10 -8 -28q-21 -75 -21 -96q0 -38 26 -54.5t86 -16.5h13l-8 -60h-596l10 59q106 2 146 28.5t61 111.5l65 260q-54 -55 -107.5 -81t-111.5 -26 q-128 0 -204 99t-76 266zM246 207q0 -62 25.5 -94.5t72.5 -32.5q59 0 117 57t80 139l129 488q6 24 8 36t2 19q0 52 -31 85.5t-78 33.5q-57 0 -101.5 -52t-100.5 -192q-58 -143 -90.5 -275t-32.5 -212z" />
<glyph unicode="r" horiz-adv-x="872" d="M-29 0l125 461q26 97 40 182t14 152q0 70 -25 94t-94 24h-23l21 64l358 24q3 -21 4.5 -41t1.5 -40q0 -78 -10.5 -157.5t-32.5 -160.5q78 212 164 310t195 98q71 0 117 -44t46 -114q0 -71 -40 -114.5t-107 -43.5q-43 0 -71 16t-48 52q-13 24 -17 61t-14 37 q-37 0 -94.5 -102.5t-99.5 -253.5l-139 -504h-271z" />
<glyph unicode="s" horiz-adv-x="934" d="M-31 221q0 58 42.5 102t99.5 44q66 0 105.5 -35.5t39.5 -93.5q0 -28 -10.5 -50.5t-30.5 -40.5q-12 -10 -44 -23.5t-32 -25.5q0 -21 55.5 -44t120.5 -23q110 0 167 40.5t57 118.5q0 45 -21.5 75.5t-71.5 58.5l-174 98q-90 50 -134 115t-44 147q0 137 105.5 228.5 t269.5 91.5q148 0 240 -62.5t92 -159.5q0 -60 -39 -97.5t-103 -37.5q-50 0 -87 37.5t-37 89.5q0 66 74 110q11 7 12 9q0 16 -46.5 33.5t-101.5 17.5q-84 0 -134 -38.5t-50 -102.5q0 -40 29.5 -75t89.5 -66l127 -66q110 -58 160 -129.5t50 -171.5q0 -144 -116.5 -237 t-298.5 -93q-156 0 -258.5 73.5t-102.5 182.5z" />
<glyph unicode="t" horiz-adv-x="782" d="M37 188q0 39 7.5 86.5t27.5 122.5l133 494h-168l18 88h178l119 423q42 -4 74 -6.5t57 -2.5q18 0 79 4q36 2 58 4l-114 -422h244l-15 -88h-250l-164 -597q-1 -5 -4 -17q-16 -59 -16 -95q0 -39 19 -59.5t55 -20.5q49 0 104.5 58.5t110.5 169.5l47 -27q-91 -178 -180.5 -256 t-200.5 -78q-101 0 -160 59t-59 160z" />
<glyph unicode="u" horiz-adv-x="1235" d="M29 158q0 24 4 51.5t12 58.5l145 516q1 2 2 6q11 40 11 62q0 39 -24 53.5t-105 16.5l12 59l430 25l-209 -783q-3 -12 -4.5 -24t-1.5 -21q0 -29 16 -46t43 -17q54 0 120 59t126 162l180 645h267l-205 -772q-7 -23 -9.5 -38.5t-2.5 -31.5q0 -18 12 -31.5t29 -13.5 q38 0 83.5 57.5t90.5 161.5l49 -22q-68 -160 -152.5 -241t-183.5 -81q-85 0 -134.5 58t-56.5 163q-102 -114 -188.5 -167.5t-167.5 -53.5q-84 0 -136 52t-52 137z" />
<glyph unicode="v" horiz-adv-x="1120" d="M51 240q0 30 6.5 71t18.5 84l121 420q4 14 6 26t2 21q0 33 -27 46.5t-102 13.5l12 59l436 25l-184 -641q-13 -45 -20 -81t-7 -59q0 -62 35.5 -98.5t95.5 -36.5q76 0 157 73.5t159 213.5q51 91 82.5 186t31.5 146q0 23 -2.5 30.5t-9.5 8.5q-3 0 -28.5 -6.5t-47.5 -6.5 q-55 0 -89.5 38t-34.5 97q0 67 38.5 106.5t102.5 39.5q69 0 114.5 -60t45.5 -155q0 -103 -40.5 -233t-109.5 -249q-103 -177 -220.5 -264.5t-252.5 -87.5q-123 0 -206 79t-83 194z" />
<glyph unicode="w" horiz-adv-x="1569" d="M45 209q0 27 5.5 61.5t17.5 75.5l127 439q8 27 12 45t4 30q0 29 -21.5 41.5t-109.5 22.5l14 57l432 23l-200 -688q-10 -32 -14.5 -58t-4.5 -47q0 -51 25.5 -79t70.5 -28q61 0 114.5 53.5t80.5 141.5l207 682q33 -5 62.5 -7.5t60.5 -2.5q33 0 68.5 2.5t74.5 7.5l-184 -639 q-12 -42 -17.5 -70t-5.5 -47q0 -47 27.5 -75.5t71.5 -28.5q57 0 117.5 49.5t115.5 142.5q68 116 110 231t42 173q-1 21 -3.5 28t-9.5 7q-8 0 -25.5 -4.5t-27.5 -4.5q-63 0 -100 37.5t-37 102.5q0 56 38.5 93.5t98.5 37.5q75 0 114.5 -53t39.5 -154q0 -89 -34.5 -205 t-98.5 -244q-95 -184 -209.5 -287.5t-221.5 -103.5q-103 0 -165.5 57.5t-81.5 172.5q-69 -113 -153 -171.5t-177 -58.5q-119 0 -184.5 63.5t-65.5 178.5z" />
<glyph unicode="x" horiz-adv-x="1118" d="M-115 119q0 67 38.5 109t99.5 42q30 0 56 -11.5t48 -35.5q19 -21 30.5 -53.5t18.5 -32.5q25 0 76.5 75.5t103.5 193.5l-80 333q-25 112 -56 143t-101 31q-5 0 -17 -1t-18 -1l6 64l389 31l82 -306q88 157 168.5 228t169.5 71q74 0 118 -43.5t44 -117.5q0 -59 -37.5 -97.5 t-95.5 -38.5q-43 0 -72 16t-47 50q-11 21 -13.5 53.5t-11.5 32.5q-32 0 -89 -72.5t-109 -185.5l84 -328q19 -71 46.5 -103t67.5 -32q49 0 87.5 41.5t62.5 120.5l51 -19q-37 -145 -122 -228t-195 -83q-96 0 -153.5 47t-94.5 158l-41 127q-98 -184 -173.5 -258t-160.5 -74 q-69 0 -114.5 44t-45.5 110z" />
<glyph unicode="y" horiz-adv-x="1120" d="M-92 -199q0 65 38 103.5t101 38.5t100 -34t37 -91q0 -41 -23.5 -77.5t-23.5 -37.5q0 -10 19.5 -16t50.5 -6q118 0 199 122t133 377q-81 -88 -160.5 -134t-149.5 -46q-92 0 -143 54.5t-51 152.5q0 28 4.5 58t13.5 62l117 421v1q25 83 25 107q0 34 -22.5 47t-106.5 19l8 59 l432 25l-199 -762q-6 -18 -8 -29.5t-2 -21.5q0 -31 15.5 -46.5t45.5 -15.5q52 0 114 52t106 134l184 664q34 -4 67 -6t66 -2q43 0 76 2t59 6l-233 -909q-52 -204 -217 -328.5t-385 -124.5q-140 0 -213.5 47t-73.5 135z" />
<glyph unicode="z" horiz-adv-x="895" d="M-109 -4q40 81 109 165t166 169q40 35 119 102q238 202 319 311q-28 -7 -57 -10.5t-62 -3.5q-20 0 -42.5 1.5t-44.5 4.5l-120 17q-5 1 -11 1.5t-17 0.5q-44 0 -77 -25t-69 -86l-47 8q51 181 105 265.5t119 84.5q18 0 36 -2.5t36 -7.5l220 -61q23 -6 46.5 -9t46.5 -3 q49 0 89.5 20.5t75.5 62.5l43 -32q-168 -262 -533 -588q-126 -112 -179 -166q35 10 72 15.5t75 5.5h39l129 -17h35q64 0 99.5 30.5t70.5 117.5l47 -15q-54 -210 -111 -298.5t-137 -88.5q-20 0 -49 5q-9 1 -12 1l-124 23q-18 3 -56 11q-90 20 -140 20t-91 -14.5t-75 -43.5z " />
<glyph unicode="{" d="M178 602v68q159 15 216 76t57 223v200q0 200 84.5 273.5t314.5 73.5v-57q-128 -2 -175.5 -55t-47.5 -210v-137q0 -225 -56.5 -307.5t-208.5 -114.5q152 -32 208.5 -114.5t56.5 -307.5v-137q0 -157 47 -209t176 -54v-57h-10q-222 0 -305.5 74t-83.5 272v201 q0 161 -58 223.5t-215 75.5z" />
<glyph unicode="|" d="M424 -483v2048h178v-2048h-178z" />
<glyph unicode="}" d="M174 -187q129 2 176 54t47 209v137q0 227 56.5 308.5t208.5 113.5q-151 32 -208 113.5t-57 308.5v137q0 157 -47.5 210t-175.5 55v57h10q223 0 307 -74.5t84 -272.5v-200q0 -162 57 -223t216 -76v-68q-157 -13 -215 -74.5t-58 -224.5v-201q0 -197 -84 -271.5t-307 -74.5 h-10v57z" />
<glyph unicode="~" horiz-adv-x="1706" d="M178 434v187q106 72 202 107.5t185 35.5q62 0 125.5 -12t168.5 -48q13 -4 42 -15q164 -58 250 -58q85 0 177 37t202 116v-184q-103 -71 -197.5 -106t-183.5 -35q-44 0 -92.5 8.5t-98.5 26.5q-25 8 -76 26q-212 74 -319 74q-82 0 -174 -38t-211 -122z" />
<glyph unicode="&#xa1;" horiz-adv-x="600" d="M-20 115q0 57 34 122q9 16 9 19q0 6 29 53q197 313 323 703l53 -13q-47 -166 -69.5 -350.5t-22.5 -408.5q0 -146 -41 -210.5t-131 -64.5q-80 0 -132 42.5t-52 107.5zM303 1337q0 71 49.5 120.5t120.5 49.5t120.5 -49.5t49.5 -120.5t-49.5 -120.5t-120.5 -49.5t-120.5 50 t-49.5 120z" />
<glyph unicode="&#xa2;" horiz-adv-x="1010" d="M25 373q0 129 59.5 255t165.5 220q84 75 183.5 115.5t201.5 40.5q21 0 44.5 -2t45.5 -5l98 242h84l-106 -272q64 -36 98.5 -89t34.5 -118q0 -69 -42 -116.5t-104 -47.5q-46 0 -77 12.5t-52 38.5l-245 -569q15 -5 32 -7.5t37 -2.5q79 0 162 56t158 161l43 -33 q-101 -146 -207 -215.5t-229 -69.5q-6 0 -22 1t-26 1l-112 -268h-80l115 283q-128 44 -194 143t-66 246zM311 276q0 -50 11 -87.5t34 -67.5l269 631q8 82 96 134q20 13 20 17q0 13 -26.5 25t-61.5 12q-68 0 -122 -56t-111 -188q-50 -115 -79.5 -229.5t-29.5 -190.5z" />
<glyph unicode="&#xa3;" horiz-adv-x="1010" d="M-49 156q0 88 52.5 145t133.5 57q53 0 100 -15.5t99 -49.5q6 29 9 59.5t3 63.5q0 68 -7 124t-22 101h-223v78h209q-18 73 -27.5 137t-9.5 117q0 213 112 344t294 131q140 0 228.5 -67.5t88.5 -172.5q0 -66 -37 -107.5t-96 -41.5q-57 0 -92 30.5t-35 79.5t40 94.5t40 59.5 q0 28 -39.5 49t-95.5 21q-85 0 -136 -60.5t-51 -161.5q0 -98 45 -336q14 -76 21 -116h231v-78h-223v-8q0 -83 -29.5 -181.5t-87.5 -205.5q44 -22 83 -32.5t75 -10.5q84 0 146 50.5t108 158.5h62q-62 -243 -141.5 -345t-203.5 -102q-55 0 -107 26.5t-112 86.5 q-55 -58 -107.5 -85.5t-109.5 -27.5q-82 0 -135 53.5t-53 137.5zM23 166q0 -51 29.5 -79t84.5 -28q42 0 83 27.5t75 77.5q-43 56 -83.5 83t-84.5 27q-47 0 -75.5 -29.5t-28.5 -78.5z" />
<glyph unicode="&#xa4;" horiz-adv-x="1241" d="M76 432l203 205q-40 53 -60 115.5t-20 132.5q0 69 20 131.5t60 116.5l-203 204l92 93l203 -203q55 41 117 61.5t133 20.5t134 -20.5t117 -61.5l203 203l94 -93l-204 -204q39 -54 59 -116.5t20 -131.5q0 -70 -20 -132.5t-59 -115.5l204 -205l-94 -92l-203 205 q-57 -42 -118 -62t-131 -20q-72 0 -135 20.5t-117 61.5l-203 -205zM332 885q0 -120 84.5 -204.5t206.5 -84.5q121 0 205.5 84.5t84.5 204.5q0 119 -85.5 205t-204.5 86q-120 0 -205.5 -86t-85.5 -205z" />
<glyph unicode="&#xa5;" horiz-adv-x="1356" d="M25 647l18 76h440l-55 195h-317l18 75h281l-78 281q-15 54 -47 74t-125 25l12 52h614l-10 -53q-94 0 -131 -19t-37 -65q0 -8 1.5 -17.5t4.5 -22.5l138 -507l356 441q17 21 26 43t9 41q0 47 -43 75t-121 31l12 53h527l-11 -53q-70 -6 -146.5 -54.5t-143.5 -129.5 l-162 -195h321l-18 -75h-367l-162 -195h461l-18 -76h-496l-129 -461q-2 -9 -3 -21.5t-1 -25.5q0 -42 33 -59t119 -17h20l-14 -63h-643l14 63q99 0 136.5 22.5t58.5 94.5l135 467h-477z" />
<glyph unicode="&#xa6;" d="M424 -350v758h178v-758h-178zM424 674v758h178v-758h-178z" />
<glyph unicode="&#xa7;" d="M68 12q0 57 39.5 97.5t95.5 40.5q46 0 78 -29t32 -70q0 -36 -34.5 -79.5t-34.5 -57.5q0 -30 30.5 -49t79.5 -19q77 0 121.5 43t44.5 117q0 49 -23.5 98.5t-90.5 133.5l-154 190q-76 96 -106.5 162t-30.5 129q0 118 85.5 188t229.5 70h6q-64 76 -96.5 143t-32.5 121 q0 121 92.5 193.5t247.5 72.5q137 0 220 -56.5t83 -147.5q0 -57 -41.5 -97.5t-97.5 -40.5q-48 0 -82.5 30t-34.5 71q0 33 31 71t31 49q0 24 -29.5 42t-73.5 18q-73 0 -117 -39t-44 -102q0 -45 27.5 -98.5t98.5 -141.5l148 -184q80 -101 110.5 -168t30.5 -131 q0 -119 -82 -187t-226 -69q58 -67 90 -139t32 -138q0 -115 -96.5 -186.5t-253.5 -71.5q-138 0 -220.5 61t-82.5 160zM293 795q0 -43 26 -100t78 -128q79 -107 123.5 -138.5t97.5 -31.5q47 0 79 33.5t32 81.5q0 39 -20.5 88t-65.5 115q-68 99 -121 146.5t-96 47.5 q-54 0 -93.5 -34.5t-39.5 -79.5z" />
<glyph unicode="&#xa8;" d="M281 1300q0 57 42 99.5t99 42.5q59 0 100 -41.5t41 -100.5q0 -62 -39.5 -101.5t-101.5 -39.5q-61 0 -101 40.5t-40 100.5zM662 1300q0 57 42.5 99.5t100.5 42.5q59 0 100 -41.5t41 -100.5q0 -62 -39.5 -101.5t-101.5 -39.5q-61 0 -102 40.5t-41 100.5z" />
<glyph unicode="&#xa9;" horiz-adv-x="1683" d="M121 678q0 143 54 274.5t157 235.5q102 102 235 157.5t277 55.5q140 0 272.5 -55.5t233.5 -155.5q101 -102 157 -235.5t56 -276.5q0 -142 -55.5 -274t-157.5 -236q-101 -102 -231 -155.5t-277 -53.5q-145 0 -274.5 53t-233.5 156q-104 104 -158.5 234.5t-54.5 275.5z M219 678q0 -126 47.5 -239.5t136.5 -202.5q91 -91 201.5 -137t237.5 -46q126 0 238.5 47t199.5 136q88 89 136 204.5t48 237.5q0 124 -48 241.5t-136 204.5q-86 86 -200 133.5t-236 47.5q-126 0 -241 -48t-202 -137q-88 -90 -135 -203.5t-47 -238.5zM416 670 q0 184 119.5 309t295.5 125q80 0 154 -33t78 -33q28 0 41.5 14t19.5 48h41l2 -320h-47q-32 134 -102 203.5t-172 69.5q-116 0 -176 -94t-60 -275q0 -184 65 -281.5t189 -97.5q82 0 151 43.5t126 130.5l43 -26q-63 -108 -150 -160.5t-200 -52.5q-177 0 -297.5 124t-120.5 306 z" />
<glyph unicode="&#xaa;" horiz-adv-x="879" d="M8 1014q0 82 25 157t76 144q56 77 125.5 119.5t138.5 42.5q61 0 100.5 -32.5t61.5 -101.5l37 119q17 -2 42 -3t54 -1q32 0 97 4h5l-160 -538q0 -2 -1 -5q-9 -25 -9 -42q0 -15 8 -23t23 -8q26 0 56 32.5t71 106.5l37 -14q-54 -109 -118 -164t-136 -55q-53 0 -84 33t-39 97 q-39 -60 -91.5 -95t-105.5 -35q-95 0 -154 72t-59 190zM203 913q0 -41 18 -61.5t55 -20.5q48 0 90 44t64 118l78 254q2 12 3 19.5t1 13.5q0 50 -28.5 81.5t-73.5 31.5q-32 0 -59 -29.5t-52 -91.5q-43 -102 -69.5 -204t-26.5 -155z" />
<glyph unicode="&#xab;" horiz-adv-x="1057" d="M92 492q145 93 277.5 198t140.5 105q7 0 11.5 -6.5t4.5 -16.5q0 -22 -69.5 -106.5t-177.5 -190.5q56 -93 91.5 -172.5t35.5 -103.5q0 -14 -5 -21.5t-14 -7.5q-17 0 -110 113.5t-185 208.5zM475 492q145 93 276.5 198t139.5 105q7 0 11.5 -6.5t4.5 -16.5q0 -22 -70.5 -108 t-177.5 -189q57 -94 93 -173.5t36 -102.5q0 -13 -5.5 -21t-14.5 -8q-17 0 -108.5 113.5t-184.5 208.5z" />
<glyph unicode="&#xac;" horiz-adv-x="1706" d="M254 696v166h1198v-502h-166v336h-1032z" />
<glyph unicode="&#xad;" horiz-adv-x="676" d="M-12 373l63 243h502l-66 -243h-499z" />
<glyph unicode="&#xae;" horiz-adv-x="1683" d="M121 678q0 143 54.5 275t156.5 235q102 102 235 157.5t277 55.5t279 -57t235 -160q98 -102 151.5 -235.5t53.5 -278.5q0 -138 -59.5 -272.5t-166.5 -239.5q-101 -100 -228 -149.5t-282 -49.5q-135 0 -264 54.5t-229 154.5q-105 104 -159 234t-54 276zM219 678 q0 -126 47.5 -239.5t136.5 -202.5q91 -91 201.5 -137t237.5 -46q126 0 238.5 47t199.5 136q89 90 136.5 204.5t47.5 237.5q0 122 -48.5 240t-135.5 206q-86 86 -200 133.5t-236 47.5q-126 0 -241 -48t-202 -137q-89 -90 -135.5 -203t-46.5 -239zM467 287v46q64 4 88.5 24.5 t24.5 72.5v520q0 52 -23.5 72t-89.5 25v49h399q145 0 232.5 -55t87.5 -142q0 -84 -65.5 -133t-217.5 -76q96 -25 147.5 -73t69.5 -127q6 -24 10 -67q9 -91 54 -91q29 0 44 34t15 99h49v-23q0 -85 -43 -129.5t-127 -44.5q-46 0 -80 14.5t-53 43.5q-24 39 -27 111.5t-8 93.5 q-16 74 -60.5 109.5t-121.5 35.5h-24v-246q0 -49 22.5 -69.5t85.5 -26.5v-47h-389zM748 723q14 -1 27 -1.5t26 -0.5q100 0 154.5 44t54.5 126q0 70 -46.5 114t-121.5 44q-47 0 -70.5 -17.5t-23.5 -50.5v-258z" />
<glyph unicode="&#xaf;" d="M289 1217l35 167h614l-37 -167h-612z" />
<glyph unicode="&#xb0;" horiz-adv-x="674" d="M43 1163q0 125 86 211t209 86t209 -87t86 -210q0 -121 -87 -208t-210 -87t-208 85.5t-85 209.5zM152 1165q0 -76 54.5 -131t131.5 -55t130.5 54.5t53.5 131.5t-53.5 131t-130.5 54t-131.5 -54t-54.5 -131z" />
<glyph unicode="&#xb1;" horiz-adv-x="1706" d="M254 14v168h1198v-168h-1198zM254 707v165h514v334h170v-334h514v-165h-514v-334h-170v334h-514z" />
<glyph unicode="&#xb2;" horiz-adv-x="666" d="M-74 567l19 58q114 129 236.5 249t123.5 121q57 71 84 136.5t27 130.5q0 62 -29.5 94.5t-85.5 32.5q-53 0 -95 -30.5t-42 -60.5q0 -3 4.5 -5.5t9.5 -2.5q1 0 14 2t25 2q33 0 53.5 -21.5t20.5 -55.5q0 -42 -27 -65.5t-76 -23.5q-43 0 -70.5 29.5t-27.5 75.5q0 82 78 143.5 t186 61.5q112 0 182 -58t70 -149q0 -67 -40 -127.5t-126 -122.5q-46 -34 -136 -95q-164 -113 -222 -171h215q102 0 142 24.5t69 94.5l39 -13l-96 -254h-525z" />
<glyph unicode="&#xb3;" horiz-adv-x="666" d="M-14 725q0 52 30.5 84.5t79.5 32.5q40 0 65 -22.5t25 -57.5q0 -41 -25 -64.5t-67 -23.5q-9 0 -20 1t-13 1q-5 0 -7 -2t-3 -10q0 -24 37.5 -48t81.5 -24q43 0 74.5 18t60.5 60q33 51 51.5 110.5t18.5 110.5q0 41 -30 66.5t-79 25.5q-6 0 -22.5 -1t-26.5 -1q-20 0 -29.5 6 t-9.5 19q0 9 9.5 14.5t27.5 5.5q4 0 18.5 -1t24.5 -1q32 0 57.5 11t46.5 34q39 42 63 106t24 128q0 46 -26.5 71t-76.5 25q-40 0 -74 -20.5t-34 -37.5q0 -2 17.5 -5.5t33.5 -10.5q21 -13 29.5 -27t9.5 -36q0 -39 -23 -61.5t-61 -22.5q-42 0 -64 24.5t-22 71.5 q0 65 62.5 114.5t148.5 49.5q110 0 181 -56.5t71 -142.5q0 -89 -74.5 -150t-204.5 -77v-15q98 -6 156.5 -57t58.5 -131q0 -111 -96 -187.5t-238 -76.5q-105 0 -171 50t-66 130z" />
<glyph unicode="&#xb4;" d="M381 1116l309 320q36 37 68 54t65 17q40 0 70.5 -32t30.5 -74q0 -33 -20.5 -60t-59.5 -49l-342 -176h-121z" />
<glyph unicode="&#xb5;" horiz-adv-x="1184" d="M-109 -319q0 52 69 282.5t108 409.5l108 512h207l-100 -467q-10 -46 -15.5 -82t-5.5 -57q0 -64 37 -101t102 -37q87 0 139 53.5t76 167.5l111 523h209l-113 -533l-3 -15q-15 -70 -15 -110q0 -42 22.5 -66t63.5 -24q40 0 71 21.5t58 68.5q9 17 23 49q25 60 51 60 q11 0 16.5 -7.5t5.5 -23.5q0 -28 -17 -85.5t-40 -100.5q-41 -72 -95.5 -108t-123.5 -36q-84 0 -129.5 55t-47.5 156q-42 -104 -109.5 -157.5t-156.5 -53.5q-99 0 -156.5 58t-68.5 168q-23 -124 -48 -315q-39 -306 -134 -306q-47 0 -73 26.5t-26 74.5z" />
<glyph unicode="&#xb6;" d="M55 1130q0 158 107 253.5t284 95.5h523v-99h-117v-1380h-129v1380h-168v-1380h-131v784q-168 6 -268.5 101t-100.5 245z" />
<glyph unicode="&#xb7;" horiz-adv-x="506" d="M74 719q0 71 50 120.5t122 49.5q71 0 120.5 -49.5t49.5 -120.5t-50.5 -121.5t-121.5 -50.5t-120.5 50t-49.5 122z" />
<glyph unicode="&#xb8;" d="M53 -379l49 103q68 -40 128 -59t114 -19q36 0 59 21t23 54q0 40 -24 61t-70 21q-13 0 -31 -2.5t-63 -10.5l69 208h86l-37 -115q2 1 6 1q43 7 64 7q85 0 134.5 -46t49.5 -126q0 -84 -58.5 -136t-154.5 -52q-70 0 -148 20t-196 70z" />
<glyph unicode="&#xb9;" horiz-adv-x="666" d="M-4 567l8 37q87 2 118.5 18.5t57.5 100.5l146 475q9 26 12.5 42.5t3.5 31.5q0 29 -32 41t-117 12l6 37q105 6 188.5 25t147.5 51h45l-218 -721q-6 -22 -9 -35.5t-3 -19.5q0 -32 29 -45t108 -13l-6 -37h-485z" />
<glyph unicode="&#xba;" horiz-adv-x="756" d="M-23 1051q0 80 36.5 159.5t101.5 141.5q63 60 134.5 92.5t141.5 32.5q123 0 203 -83.5t80 -213.5q0 -81 -31 -155t-90 -136q-63 -66 -137 -100.5t-152 -34.5q-127 0 -207 82.5t-80 214.5zM174 893q0 -46 21 -70t61 -24q44 0 75.5 37t61.5 127q41 119 65.5 224t24.5 146 q0 49 -21.5 75t-62.5 26q-40 0 -70 -34t-61 -118q-43 -121 -68.5 -228.5t-25.5 -160.5z" />
<glyph unicode="&#xbb;" horiz-adv-x="1057" d="M43 193q0 21 69.5 106t178.5 190q-57 94 -93 173.5t-36 103.5q0 12 5.5 20.5t14.5 8.5q17 0 108.5 -113.5t184.5 -208.5q-145 -94 -276.5 -198.5t-139.5 -104.5q-7 0 -11.5 6.5t-4.5 16.5zM424 193q0 21 69.5 106t178.5 190q-56 93 -91.5 172.5t-35.5 104.5q0 13 5 21 t13 8q17 0 110 -114t185 -208q-145 -94 -276.5 -198.5t-139.5 -104.5q-7 0 -12.5 6.5t-5.5 16.5z" />
<glyph unicode="&#xbc;" horiz-adv-x="1614" d="M-4 625l8 34q80 0 111 16t57 95l139 444l3 9q12 38 12 59q0 27 -29.5 38.5t-113.5 12.5l5 33q101 6 181 23.5t141 46.5h41l-207 -672q-6 -21 -9 -33t-3 -18q0 -30 28.5 -42t104.5 -12l-8 -34h-461zM295 -18l913 1468h111l-913 -1468h-111zM938 193l16 69l525 549h106 l-178 -571h129l-6 -47h-139l-21 -72q0 -3 -3 -13.5t-3 -17.5q0 -30 25 -42.5t84 -12.5l-7 -37h-409l6 37q65 0 93 18.5t48 77.5l19 62h-285zM993 240h246l133 393z" />
<glyph unicode="&#xbd;" horiz-adv-x="1614" d="M-4 625l8 34q80 0 111 16t57 95l139 444l3 9q12 38 12 59q0 27 -29.5 38.5t-113.5 12.5l5 33q101 6 181 23.5t141 46.5h41l-207 -672q-6 -21 -9 -33t-3 -18q0 -30 28.5 -42t104.5 -12l-8 -34h-461zM295 -18l913 1468h111l-913 -1468h-111zM907 0l19 53q130 144 291 295 q44 41 53 52q52 63 78 124.5t26 122.5q0 59 -27.5 89t-80.5 30q-50 0 -90.5 -28t-40.5 -56q0 -3 4 -5.5t10 -2.5q1 0 13.5 3t23.5 3q32 0 50.5 -20t18.5 -54q0 -39 -25 -60.5t-71 -21.5q-42 0 -68 27.5t-26 71.5q0 75 74.5 131.5t177.5 56.5q106 0 172.5 -53.5t66.5 -139.5 q0 -63 -38 -118.5t-119 -112.5q-45 -32 -130 -90q-156 -105 -212 -160h207q96 0 134.5 23.5t65.5 89.5l37 -12l-92 -238h-502z" />
<glyph unicode="&#xbe;" horiz-adv-x="1614" d="M-12 772q0 49 28.5 79t75.5 30q39 0 62.5 -21t23.5 -55q0 -37 -24 -58.5t-66 -21.5h-29q-6 0 -8 -2t-2 -8q0 -23 35.5 -45.5t77.5 -22.5t72 17.5t57 56.5q31 48 49 103.5t18 103.5q0 38 -29 62t-75 24q-7 0 -22 -2t-25 -2q-19 0 -28 6t-9 16t9 15.5t26 5.5q4 0 18 -1 t23 -1q31 0 56 10t44 31q37 40 59.5 99.5t22.5 119.5q0 44 -25 67t-73 23q-38 0 -70.5 -18.5t-32.5 -34.5q1 -3 17.5 -6.5t30.5 -10.5q21 -12 29.5 -25.5t8.5 -33.5q0 -35 -22.5 -56.5t-59.5 -21.5q-39 0 -60 23.5t-21 66.5q0 62 60 108t142 46q105 0 172.5 -53t67.5 -134 q0 -83 -70.5 -139.5t-195.5 -73.5v-12q93 -5 149.5 -53.5t56.5 -122.5q0 -103 -91.5 -174.5t-227.5 -71.5q-101 0 -163 46.5t-62 121.5zM295 -18l913 1468h111l-913 -1468h-111zM938 193l16 69l525 549h106l-178 -571h129l-6 -47h-139l-21 -72q0 -3 -3 -13.5t-3 -17.5 q0 -30 25 -42.5t84 -12.5l-7 -37h-409l6 37q65 0 93 18.5t48 77.5l19 62h-285zM993 240h246l133 393z" />
<glyph unicode="&#xbf;" horiz-adv-x="1014" d="M53 285q0 104 62 186t250 201l9 6q215 138 261 336l53 -17q-15 -78 -46.5 -151.5t-78.5 -139.5l-1 -1q-216 -300 -216 -459q0 -101 44 -159t120 -58q43 0 75.5 16t32.5 33q0 14 -37 33q-18 10 -28 16q-26 17 -40.5 44t-14.5 58q0 68 43.5 113t107.5 45q68 0 111 -44.5 t43 -115.5q0 -108 -103 -185t-256 -77q-173 0 -282 89.5t-109 230.5zM551 1337q0 70 50.5 120t121.5 50t119.5 -49t48.5 -121q0 -71 -49 -120.5t-119 -49.5q-71 0 -121.5 50t-50.5 120z" />
<glyph unicode="&#xc0;" horiz-adv-x="1401" d="M-147 0l16 63q82 4 134.5 40t117.5 143l760 1261h94l141 -1271q12 -102 49 -135.5t133 -37.5v-63h-665v63q93 2 130.5 32t37.5 102q0 11 -3 36.5t-3 34.5l-19 164h-444l-68 -110q-28 -47 -42.5 -91t-14.5 -79q0 -43 38 -66t111 -23h9l-7 -63h-505zM379 512h387l-59 543z M663 1903q0 47 30 77.5t75 30.5q31 0 60.5 -18.5t60.5 -56.5l249 -318h-120l-275 178q-42 29 -61 54.5t-19 52.5z" />
<glyph unicode="&#xc1;" horiz-adv-x="1401" d="M-147 0l16 63q82 4 134.5 40t117.5 143l760 1261h94l141 -1271q12 -102 49 -135.5t133 -37.5v-63h-665v63q93 2 130.5 32t37.5 102q0 11 -3 36.5t-3 34.5l-19 164h-444l-68 -110q-28 -47 -42.5 -91t-14.5 -79q0 -43 38 -66t111 -23h9l-7 -63h-505zM379 512h387l-59 543z M733 1618l309 320q36 37 68 54t65 17q40 0 70.5 -32t30.5 -74q0 -33 -20.5 -60t-59.5 -49l-342 -176h-121z" />
<glyph unicode="&#xc2;" horiz-adv-x="1401" d="M-147 0l16 63q82 4 134.5 40t117.5 143l760 1261h94l141 -1271q12 -102 49 -135.5t133 -37.5v-63h-665v63q93 2 130.5 32t37.5 102q0 11 -3 36.5t-3 34.5l-19 164h-444l-68 -110q-28 -47 -42.5 -91t-14.5 -79q0 -43 38 -66t111 -23h9l-7 -63h-505zM379 512h387l-59 543z M592 1616l309 373h172l160 -373h-97l-172 172l-258 -172h-114z" />
<glyph unicode="&#xc3;" horiz-adv-x="1401" d="M-147 0l16 63q82 4 134.5 40t117.5 143l760 1261h94l141 -1271q12 -102 49 -135.5t133 -37.5v-63h-665v63q93 2 130.5 32t37.5 102q0 11 -3 36.5t-3 34.5l-19 164h-444l-68 -110q-28 -47 -42.5 -91t-14.5 -79q0 -43 38 -66t111 -23h9l-7 -63h-505zM379 512h387l-59 543z M633 1647q35 139 86 202.5t127 63.5q18 0 41 -3t49 -9l123 -29q12 -3 23.5 -4.5t23.5 -1.5q43 0 71.5 21.5t44.5 66.5h74q-30 -135 -81 -196.5t-134 -61.5q-17 0 -33 2t-32 6l-112 25q-4 1 -14 3q-49 11 -63 11q-43 0 -71.5 -23.5t-47.5 -72.5h-75z" />
<glyph unicode="&#xc4;" horiz-adv-x="1401" d="M-147 0l16 63q82 4 134.5 40t117.5 143l760 1261h94l141 -1271q12 -102 49 -135.5t133 -37.5v-63h-665v63q93 2 130.5 32t37.5 102q0 11 -3 36.5t-3 34.5l-19 164h-444l-68 -110q-28 -47 -42.5 -91t-14.5 -79q0 -43 38 -66t111 -23h9l-7 -63h-505zM379 512h387l-59 543z M633 1802q0 57 42 99.5t99 42.5q59 0 100 -41.5t41 -100.5q0 -62 -39.5 -101.5t-101.5 -39.5q-61 0 -101 40.5t-40 100.5zM1014 1802q0 57 42.5 99.5t100.5 42.5q59 0 100 -41.5t41 -100.5q0 -62 -39.5 -101.5t-101.5 -39.5q-61 0 -102 40.5t-41 100.5z" />
<glyph unicode="&#xc5;" horiz-adv-x="1401" d="M-147 0l16 63q82 4 134.5 40t117.5 143l760 1261q-86 11 -138.5 74t-52.5 156q0 98 69 166.5t169 68.5q98 0 166.5 -68.5t68.5 -166.5q0 -91 -49.5 -152t-138.5 -78l141 -1271q12 -102 49 -135.5t133 -37.5v-63h-665v63q93 2 130.5 32t37.5 102q0 11 -3 36.5t-3 34.5 l-19 164h-444l-68 -110q-28 -47 -42.5 -91t-14.5 -79q0 -43 38 -66t111 -23h9l-7 -63h-505zM379 512h387l-59 543zM813 1735q0 -50 32 -82.5t81 -32.5q47 0 80.5 33.5t33.5 81.5t-33 81t-81 33q-49 0 -81 -32.5t-32 -81.5z" />
<glyph unicode="&#xc6;" horiz-adv-x="1868" d="M-238 0l17 70q68 13 126.5 61t166.5 199l549 770q54 75 76 120.5t22 79.5q0 58 -49 87t-151 32l11 60h1403l-106 -533h-72v29q0 204 -97.5 324t-260.5 120q-65 0 -92 -21.5t-45 -90.5l-138 -498h21q117 0 201 63.5t129 186.5h63l-178 -647h-61q0 13 0.5 29.5t0.5 45.5 q0 133 -42 193.5t-134 60.5h-16l-158 -571q0 -2 -2 -8q-6 -25 -6 -33q0 -32 25.5 -49t74.5 -17q166 0 321 116t318 362h70l-156 -541h-1124l18 70q70 0 104.5 26t53.5 94l103 369h-422l-193 -268q-21 -30 -33 -60.5t-12 -54.5q0 -51 37 -77.5t112 -28.5l-14 -70h-461z M383 641h385l215 778h-55z" />
<glyph unicode="&#xc7;" horiz-adv-x="1417" d="M70 563q0 175 62.5 340t180.5 303q130 151 275 226t307 75q112 0 222.5 -50t125.5 -50q28 0 58.5 20t89.5 80l47 -4l-129 -581h-70q-3 256 -77.5 384t-221.5 128q-103 0 -186.5 -65.5t-153.5 -201.5q-98 -190 -155.5 -399t-57.5 -367q0 -172 78 -266t219 -94 q149 0 271 110t200 316l57 -25q-97 -252 -243.5 -372.5t-354.5 -120.5q-245 0 -394.5 168t-149.5 446zM297 -379l49 103q68 -40 128 -59t114 -19q36 0 59 21t23 54q0 40 -24 61t-70 21q-13 0 -31 -2.5t-63 -10.5l69 208h86l-37 -115q2 1 6 1q43 7 64 7q85 0 134.5 -46 t49.5 -126q0 -84 -58.5 -136t-154.5 -52q-70 0 -148 20t-196 70z" />
<glyph unicode="&#xc8;" horiz-adv-x="1571" d="M-63 0l16 63h8q84 0 121 29t65 133l271 985q12 45 17 69.5t5 39.5q0 48 -36.5 68.5t-132.5 23.5l18 68h1249l-106 -533h-76v39q0 200 -98.5 313t-272.5 113q-110 0 -153.5 -25t-61.5 -92l-133 -489h14q150 0 246 61.5t141 188.5h66l-170 -645h-70q1 17 1.5 34t0.5 39 q0 134 -58 194.5t-187 61.5l-160 -564q-3 -10 -4.5 -19t-1.5 -19q0 -38 36 -56t117 -18q188 0 339.5 104.5t340.5 371.5h66l-158 -539h-1259zM714 1903q0 47 30 77.5t75 30.5q31 0 60.5 -18.5t60.5 -56.5l249 -318h-120l-275 178q-42 29 -61 54.5t-19 52.5z" />
<glyph unicode="&#xc9;" horiz-adv-x="1571" d="M-63 0l16 63h8q84 0 121 29t65 133l271 985q12 45 17 69.5t5 39.5q0 48 -36.5 68.5t-132.5 23.5l18 68h1249l-106 -533h-76v39q0 200 -98.5 313t-272.5 113q-110 0 -153.5 -25t-61.5 -92l-133 -489h14q150 0 246 61.5t141 188.5h66l-170 -645h-70q1 17 1.5 34t0.5 39 q0 134 -58 194.5t-187 61.5l-160 -564q-3 -10 -4.5 -19t-1.5 -19q0 -38 36 -56t117 -18q188 0 339.5 104.5t340.5 371.5h66l-158 -539h-1259zM784 1618l309 320q36 37 68 54t65 17q40 0 70.5 -32t30.5 -74q0 -33 -20.5 -60t-59.5 -49l-342 -176h-121z" />
<glyph unicode="&#xca;" horiz-adv-x="1571" d="M-63 0l16 63h8q84 0 121 29t65 133l271 985q12 45 17 69.5t5 39.5q0 48 -36.5 68.5t-132.5 23.5l18 68h1249l-106 -533h-76v39q0 200 -98.5 313t-272.5 113q-110 0 -153.5 -25t-61.5 -92l-133 -489h14q150 0 246 61.5t141 188.5h66l-170 -645h-70q1 17 1.5 34t0.5 39 q0 134 -58 194.5t-187 61.5l-160 -564q-3 -10 -4.5 -19t-1.5 -19q0 -38 36 -56t117 -18q188 0 339.5 104.5t340.5 371.5h66l-158 -539h-1259zM643 1616l309 373h172l160 -373h-97l-172 172l-258 -172h-114z" />
<glyph unicode="&#xcb;" horiz-adv-x="1571" d="M-63 0l16 63h8q84 0 121 29t65 133l271 985q12 45 17 69.5t5 39.5q0 48 -36.5 68.5t-132.5 23.5l18 68h1249l-106 -533h-76v39q0 200 -98.5 313t-272.5 113q-110 0 -153.5 -25t-61.5 -92l-133 -489h14q150 0 246 61.5t141 188.5h66l-170 -645h-70q1 17 1.5 34t0.5 39 q0 134 -58 194.5t-187 61.5l-160 -564q-3 -10 -4.5 -19t-1.5 -19q0 -38 36 -56t117 -18q188 0 339.5 104.5t340.5 371.5h66l-158 -539h-1259zM684 1802q0 57 42 99.5t99 42.5q59 0 100 -41.5t41 -100.5q0 -62 -39.5 -101.5t-101.5 -39.5q-61 0 -101 40.5t-40 100.5z M1065 1802q0 57 42.5 99.5t100.5 42.5q59 0 100 -41.5t41 -100.5q0 -62 -39.5 -101.5t-101.5 -39.5q-61 0 -102 40.5t-41 100.5z" />
<glyph unicode="&#xcc;" horiz-adv-x="893" d="M-76 0l17 70h22q73 0 112.5 32.5t59.5 108.5l281 1040q6 21 9 41t3 39q0 48 -32 67t-120 19h-18l14 62h680l-12 -62h-10q-82 0 -120.5 -29.5t-61.5 -109.5l-289 -1077q-3 -10 -4.5 -22t-1.5 -25q0 -46 33 -65t112 -19h16l-16 -70h-674zM377 1903q0 47 30 77.5t75 30.5 q31 0 60.5 -18.5t60.5 -56.5l249 -318h-120l-275 178q-42 29 -61 54.5t-19 52.5z" />
<glyph unicode="&#xcd;" horiz-adv-x="893" d="M-76 0l17 70h22q73 0 112.5 32.5t59.5 108.5l281 1040q6 21 9 41t3 39q0 48 -32 67t-120 19h-18l14 62h680l-12 -62h-10q-82 0 -120.5 -29.5t-61.5 -109.5l-289 -1077q-3 -10 -4.5 -22t-1.5 -25q0 -46 33 -65t112 -19h16l-16 -70h-674zM447 1618l309 320q36 37 68 54 t65 17q40 0 70.5 -32t30.5 -74q0 -33 -20.5 -60t-59.5 -49l-342 -176h-121z" />
<glyph unicode="&#xce;" horiz-adv-x="893" d="M-76 0l17 70h22q73 0 112.5 32.5t59.5 108.5l281 1040q6 21 9 41t3 39q0 48 -32 67t-120 19h-18l14 62h680l-12 -62h-10q-82 0 -120.5 -29.5t-61.5 -109.5l-289 -1077q-3 -10 -4.5 -22t-1.5 -25q0 -46 33 -65t112 -19h16l-16 -70h-674zM306 1616l309 373h172l160 -373 h-97l-172 172l-258 -172h-114z" />
<glyph unicode="&#xcf;" horiz-adv-x="893" d="M-76 0l17 70h22q73 0 112.5 32.5t59.5 108.5l281 1040q6 21 9 41t3 39q0 48 -32 67t-120 19h-18l14 62h680l-12 -62h-10q-82 0 -120.5 -29.5t-61.5 -109.5l-289 -1077q-3 -10 -4.5 -22t-1.5 -25q0 -46 33 -65t112 -19h16l-16 -70h-674zM347 1802q0 57 42 99.5t99 42.5 q59 0 100 -41.5t41 -100.5q0 -62 -39.5 -101.5t-101.5 -39.5q-61 0 -101 40.5t-40 100.5zM728 1802q0 57 42.5 99.5t100.5 42.5q59 0 100 -41.5t41 -100.5q0 -62 -39.5 -101.5t-101.5 -39.5q-61 0 -102 40.5t-41 100.5z" />
<glyph unicode="&#xd0;" horiz-adv-x="1583" d="M-66 0l15 63q91 0 132 34.5t69 140.5l124 469h-264l27 94h264l113 409q8 32 13 63.5t5 51.5q0 50 -31.5 69t-133.5 21l16 64h618q307 0 461 -141.5t154 -424.5q0 -226 -106 -437.5t-286 -344.5q-90 -66 -210.5 -98.5t-274.5 -32.5h-705zM457 141q0 -39 32.5 -58.5 t98.5 -19.5q144 0 221.5 33.5t136.5 116.5q40 55 74.5 130.5t62.5 172.5q59 193 90 347.5t31 250.5q0 151 -71 226t-213 75q-72 0 -108.5 -35.5t-68.5 -152.5l-116 -426h321l-26 -94h-320l-135 -496q-5 -20 -7.5 -38t-2.5 -32z" />
<glyph unicode="&#xd1;" horiz-adv-x="1556" d="M-111 0l17 65q106 14 158 61t96 210l274 991q-27 48 -74 70t-122 22l14 60h483l410 -1018l192 692q11 40 16 67.5t5 49.5q0 78 -40.5 111t-143.5 38l14 60h485l-12 -60q-173 -10 -259 -319l-5 -18l-305 -1107h-84l-519 1274l-239 -876q-14 -50 -21.5 -92t-7.5 -74 q0 -73 46.5 -106.5t152.5 -35.5l-17 -65h-514zM707 1647q35 139 86 202.5t127 63.5q18 0 41 -3t49 -9l123 -29q12 -3 23.5 -4.5t23.5 -1.5q43 0 71.5 21.5t44.5 66.5h74q-30 -135 -81 -196.5t-134 -61.5q-17 0 -33 2t-32 6l-112 25q-4 1 -14 3q-49 11 -63 11 q-43 0 -71.5 -23.5t-47.5 -72.5h-75z" />
<glyph unicode="&#xd2;" horiz-adv-x="1462" d="M57 545q0 193 74 383.5t201 328.5q111 121 253 186.5t289 65.5q238 0 380.5 -160t142.5 -429q0 -204 -71.5 -393.5t-197.5 -317.5q-122 -125 -265.5 -192.5t-287.5 -67.5q-86 0 -163.5 25.5t-141.5 74.5q-95 74 -154 211t-59 285zM344 270q0 -123 60.5 -190.5 t168.5 -67.5q99 0 173.5 70.5t142.5 228.5q54 127 96 257.5t72 265.5q27 118 40 206.5t13 149.5q0 123 -59.5 189.5t-169.5 66.5q-100 0 -176 -69t-142 -222q-47 -109 -90 -248t-80 -299q-24 -105 -36.5 -191t-12.5 -147zM661 1903q0 47 30 77.5t75 30.5q31 0 60.5 -18.5 t60.5 -56.5l249 -318h-120l-275 178q-42 29 -61 54.5t-19 52.5z" />
<glyph unicode="&#xd3;" horiz-adv-x="1462" d="M57 545q0 193 74 383.5t201 328.5q111 121 253 186.5t289 65.5q238 0 380.5 -160t142.5 -429q0 -204 -71.5 -393.5t-197.5 -317.5q-122 -125 -265.5 -192.5t-287.5 -67.5q-86 0 -163.5 25.5t-141.5 74.5q-95 74 -154 211t-59 285zM344 270q0 -123 60.5 -190.5 t168.5 -67.5q99 0 173.5 70.5t142.5 228.5q54 127 96 257.5t72 265.5q27 118 40 206.5t13 149.5q0 123 -59.5 189.5t-169.5 66.5q-100 0 -176 -69t-142 -222q-47 -109 -90 -248t-80 -299q-24 -105 -36.5 -191t-12.5 -147zM731 1618l309 320q36 37 68 54t65 17q40 0 70.5 -32 t30.5 -74q0 -33 -20.5 -60t-59.5 -49l-342 -176h-121z" />
<glyph unicode="&#xd4;" horiz-adv-x="1462" d="M57 545q0 193 74 383.5t201 328.5q111 121 253 186.5t289 65.5q238 0 380.5 -160t142.5 -429q0 -204 -71.5 -393.5t-197.5 -317.5q-122 -125 -265.5 -192.5t-287.5 -67.5q-86 0 -163.5 25.5t-141.5 74.5q-95 74 -154 211t-59 285zM344 270q0 -123 60.5 -190.5 t168.5 -67.5q99 0 173.5 70.5t142.5 228.5q54 127 96 257.5t72 265.5q27 118 40 206.5t13 149.5q0 123 -59.5 189.5t-169.5 66.5q-100 0 -176 -69t-142 -222q-47 -109 -90 -248t-80 -299q-24 -105 -36.5 -191t-12.5 -147zM590 1616l309 373h172l160 -373h-97l-172 172 l-258 -172h-114z" />
<glyph unicode="&#xd5;" horiz-adv-x="1462" d="M57 545q0 193 74 383.5t201 328.5q111 121 253 186.5t289 65.5q238 0 380.5 -160t142.5 -429q0 -204 -71.5 -393.5t-197.5 -317.5q-122 -125 -265.5 -192.5t-287.5 -67.5q-86 0 -163.5 25.5t-141.5 74.5q-95 74 -154 211t-59 285zM344 270q0 -123 60.5 -190.5 t168.5 -67.5q99 0 173.5 70.5t142.5 228.5q54 127 96 257.5t72 265.5q27 118 40 206.5t13 149.5q0 123 -59.5 189.5t-169.5 66.5q-100 0 -176 -69t-142 -222q-47 -109 -90 -248t-80 -299q-24 -105 -36.5 -191t-12.5 -147zM631 1647q35 139 86 202.5t127 63.5q18 0 41 -3 t49 -9l123 -29q12 -3 23.5 -4.5t23.5 -1.5q43 0 71.5 21.5t44.5 66.5h74q-30 -135 -81 -196.5t-134 -61.5q-17 0 -33 2t-32 6l-112 25q-4 1 -14 3q-49 11 -63 11q-43 0 -71.5 -23.5t-47.5 -72.5h-75z" />
<glyph unicode="&#xd6;" horiz-adv-x="1462" d="M57 545q0 193 74 383.5t201 328.5q111 121 253 186.5t289 65.5q238 0 380.5 -160t142.5 -429q0 -204 -71.5 -393.5t-197.5 -317.5q-122 -125 -265.5 -192.5t-287.5 -67.5q-86 0 -163.5 25.5t-141.5 74.5q-95 74 -154 211t-59 285zM344 270q0 -123 60.5 -190.5 t168.5 -67.5q99 0 173.5 70.5t142.5 228.5q54 127 96 257.5t72 265.5q27 118 40 206.5t13 149.5q0 123 -59.5 189.5t-169.5 66.5q-100 0 -176 -69t-142 -222q-47 -109 -90 -248t-80 -299q-24 -105 -36.5 -191t-12.5 -147zM631 1802q0 57 42 99.5t99 42.5q59 0 100 -41.5 t41 -100.5q0 -62 -39.5 -101.5t-101.5 -39.5q-61 0 -101 40.5t-40 100.5zM1012 1802q0 57 42.5 99.5t100.5 42.5q59 0 100 -41.5t41 -100.5q0 -62 -39.5 -101.5t-101.5 -39.5q-61 0 -102 40.5t-41 100.5z" />
<glyph unicode="&#xd7;" horiz-adv-x="1706" d="M287 152l458 458l-458 461l116 117l459 -459l461 459l117 -117l-459 -461l459 -458l-117 -119l-461 461l-459 -461z" />
<glyph unicode="&#xd8;" horiz-adv-x="1462" d="M59 592q0 192 87 378.5t245 334.5q108 99 230.5 151.5t248.5 52.5q50 0 98.5 -8t96.5 -24l125 233h98l-145 -278q124 -100 187 -244t63 -330q0 -181 -74 -348t-219 -313q-126 -126 -255.5 -188t-264.5 -62q-67 0 -117 12t-88 37l-129 -242h-96l153 291q-120 107 -182 245 t-62 302zM350 274q0 -23 3.5 -50.5t11.5 -63.5l661 1241q-29 23 -66.5 34t-87.5 11q-104 0 -179.5 -69.5t-137.5 -223.5q-46 -113 -87.5 -256.5t-76.5 -308.5q-21 -100 -31 -178t-10 -136zM416 72q32 -31 73 -46.5t91 -15.5q80 0 146.5 47t113.5 136q47 91 91.5 212.5 t82.5 266.5q42 158 65 293.5t23 218.5q0 37 -5 70.5t-16 64.5z" />
<glyph unicode="&#xd9;" horiz-adv-x="1567" d="M150 293q0 43 9 96t34 146l184 698q7 24 10.5 48t3.5 48q0 49 -32.5 68t-132.5 22l18 60h682l-15 -60q-92 0 -129 -26.5t-63 -124.5l-236 -869q-12 -44 -18 -81t-6 -66q0 -101 69 -156t195 -55q168 0 261.5 89t158.5 327l200 745q7 23 10 42.5t3 35.5q0 68 -49 103 t-145 36l16 60h501l-16 -60q-96 0 -152 -50.5t-88 -166.5l-206 -762q-3 -8 -7 -24q-62 -234 -135 -312q-71 -76 -175 -115.5t-232 -39.5q-230 0 -374 96.5t-144 247.5zM772 1903q0 47 30 77.5t75 30.5q31 0 60.5 -18.5t60.5 -56.5l249 -318h-120l-275 178q-42 29 -61 54.5 t-19 52.5z" />
<glyph unicode="&#xda;" horiz-adv-x="1567" d="M150 293q0 43 9 96t34 146l184 698q7 24 10.5 48t3.5 48q0 49 -32.5 68t-132.5 22l18 60h682l-15 -60q-92 0 -129 -26.5t-63 -124.5l-236 -869q-12 -44 -18 -81t-6 -66q0 -101 69 -156t195 -55q168 0 261.5 89t158.5 327l200 745q7 23 10 42.5t3 35.5q0 68 -49 103 t-145 36l16 60h501l-16 -60q-96 0 -152 -50.5t-88 -166.5l-206 -762q-3 -8 -7 -24q-62 -234 -135 -312q-71 -76 -175 -115.5t-232 -39.5q-230 0 -374 96.5t-144 247.5zM842 1618l309 320q36 37 68 54t65 17q40 0 70.5 -32t30.5 -74q0 -33 -20.5 -60t-59.5 -49l-342 -176 h-121z" />
<glyph unicode="&#xdb;" horiz-adv-x="1567" d="M150 293q0 43 9 96t34 146l184 698q7 24 10.5 48t3.5 48q0 49 -32.5 68t-132.5 22l18 60h682l-15 -60q-92 0 -129 -26.5t-63 -124.5l-236 -869q-12 -44 -18 -81t-6 -66q0 -101 69 -156t195 -55q168 0 261.5 89t158.5 327l200 745q7 23 10 42.5t3 35.5q0 68 -49 103 t-145 36l16 60h501l-16 -60q-96 0 -152 -50.5t-88 -166.5l-206 -762q-3 -8 -7 -24q-62 -234 -135 -312q-71 -76 -175 -115.5t-232 -39.5q-230 0 -374 96.5t-144 247.5zM701 1616l309 373h172l160 -373h-97l-172 172l-258 -172h-114z" />
<glyph unicode="&#xdc;" horiz-adv-x="1567" d="M150 293q0 43 9 96t34 146l184 698q7 24 10.5 48t3.5 48q0 49 -32.5 68t-132.5 22l18 60h682l-15 -60q-92 0 -129 -26.5t-63 -124.5l-236 -869q-12 -44 -18 -81t-6 -66q0 -101 69 -156t195 -55q168 0 261.5 89t158.5 327l200 745q7 23 10 42.5t3 35.5q0 68 -49 103 t-145 36l16 60h501l-16 -60q-96 0 -152 -50.5t-88 -166.5l-206 -762q-3 -8 -7 -24q-62 -234 -135 -312q-71 -76 -175 -115.5t-232 -39.5q-230 0 -374 96.5t-144 247.5zM742 1802q0 57 42 99.5t99 42.5q59 0 100 -41.5t41 -100.5q0 -62 -39.5 -101.5t-101.5 -39.5 q-61 0 -101 40.5t-40 100.5zM1123 1802q0 57 42.5 99.5t100.5 42.5q59 0 100 -41.5t41 -100.5q0 -62 -39.5 -101.5t-101.5 -39.5q-61 0 -102 40.5t-41 100.5z" />
<glyph unicode="&#xdd;" horiz-adv-x="1454" d="M131 0l14 66q99 0 136.5 22.5t58.5 97.5l137 486l-172 649q-15 57 -47.5 78t-122.5 25l12 55h668l-8 -56q-96 0 -133 -19t-37 -67q0 -9 1.5 -20.5t4.5 -24.5l137 -522l359 455q16 21 25.5 44t9.5 44q0 49 -43 78t-121 33l12 55h526l-10 -56q-71 -6 -146.5 -55.5 t-144.5 -134.5l-434 -541l-135 -499q-2 -6 -3 -18.5t-1 -29.5q0 -43 34 -61t119 -18h19l-15 -66h-700zM727 1618l309 320q36 37 68 54t65 17q40 0 70.5 -32t30.5 -74q0 -33 -20.5 -60t-59.5 -49l-342 -176h-121z" />
<glyph unicode="&#xde;" horiz-adv-x="1571" d="M-72 0l13 63q96 0 139.5 32t66.5 122l279 1040q5 20 7.5 38.5t2.5 33.5q0 47 -30.5 64.5t-136.5 21.5l20 64h678l-19 -64h-6q-90 0 -133.5 -41t-71.5 -157h250q217 0 348 -102t131 -269q0 -217 -188.5 -327.5t-556.5 -110.5q-80 0 -120.5 0.5t-76.5 3.5l-57 -213 q-5 -23 -6.5 -34t-1.5 -22q0 -43 33.5 -60.5t134.5 -19.5l-15 -63h-684zM541 480q26 -3 46 -4t38 -1q136 0 225 18.5t129 55.5q60 55 102.5 174.5t42.5 239.5q0 103 -52.5 147.5t-176.5 44.5q-104 0 -145.5 -29.5t-63.5 -107.5z" />
<glyph unicode="&#xdf;" horiz-adv-x="1120" d="M-51 0l291 1038q68 243 179.5 355t282.5 112q156 0 262.5 -92t106.5 -225q0 -155 -99 -248t-286 -115q141 -39 214 -128t73 -220q0 -97 -36.5 -189.5t-102.5 -164.5q-67 -75 -145 -112.5t-165 -37.5q-61 0 -109.5 16.5t-90.5 51.5l53 68q21 -33 43.5 -48.5t46.5 -15.5 q32 0 61 24.5t50 69.5q22 51 45.5 124t44.5 159q17 76 27 142t10 110q0 43 -17.5 68t-58.5 42q-10 5 -28 11q-42 15 -42 30q0 22 16 30.5t58 8.5q26 0 53.5 26t48.5 71q40 87 64 192t24 184q0 50 -26.5 78.5t-73.5 28.5q-55 0 -90.5 -50t-81.5 -218l-328 -1176h-274z" />
<glyph unicode="&#xe0;" horiz-adv-x="1171" d="M10 338q0 117 33.5 224t101.5 208q74 109 167 169t186 60q80 0 132.5 -46t82.5 -144l49 170q24 -2 57 -3t72 -1q34 0 68 1.5t67 4.5l-213 -770q-1 -4 -4 -15q-8 -31 -8 -53q0 -21 10 -33t29 -12q36 0 75.5 47t94.5 154l49 -20q-70 -156 -155.5 -235t-182.5 -79 q-70 0 -111.5 47.5t-52.5 139.5q-52 -88 -122 -137.5t-140 -49.5q-127 0 -206 103t-79 270zM270 195q0 -59 24.5 -88t74.5 -29q63 0 119 63t85 168l103 363q3 11 4.5 23t1.5 24q0 71 -38 116.5t-97 45.5q-42 0 -78.5 -42t-71.5 -130q-57 -145 -92 -290.5t-35 -223.5z M385 1401q0 47 30 77.5t75 30.5q31 0 60.5 -18.5t60.5 -56.5l249 -318h-120l-275 178q-42 29 -61 54.5t-19 52.5z" />
<glyph unicode="&#xe1;" horiz-adv-x="1171" d="M10 338q0 117 33.5 224t101.5 208q74 109 167 169t186 60q80 0 132.5 -46t82.5 -144l49 170q24 -2 57 -3t72 -1q34 0 68 1.5t67 4.5l-213 -770q-1 -4 -4 -15q-8 -31 -8 -53q0 -21 10 -33t29 -12q36 0 75.5 47t94.5 154l49 -20q-70 -156 -155.5 -235t-182.5 -79 q-70 0 -111.5 47.5t-52.5 139.5q-52 -88 -122 -137.5t-140 -49.5q-127 0 -206 103t-79 270zM270 195q0 -59 24.5 -88t74.5 -29q63 0 119 63t85 168l103 363q3 11 4.5 23t1.5 24q0 71 -38 116.5t-97 45.5q-42 0 -78.5 -42t-71.5 -130q-57 -145 -92 -290.5t-35 -223.5z M455 1116l309 320q36 37 68 54t65 17q40 0 70.5 -32t30.5 -74q0 -33 -20.5 -60t-59.5 -49l-342 -176h-121z" />
<glyph unicode="&#xe2;" horiz-adv-x="1171" d="M10 338q0 117 33.5 224t101.5 208q74 109 167 169t186 60q80 0 132.5 -46t82.5 -144l49 170q24 -2 57 -3t72 -1q34 0 68 1.5t67 4.5l-213 -770q-1 -4 -4 -15q-8 -31 -8 -53q0 -21 10 -33t29 -12q36 0 75.5 47t94.5 154l49 -20q-70 -156 -155.5 -235t-182.5 -79 q-70 0 -111.5 47.5t-52.5 139.5q-52 -88 -122 -137.5t-140 -49.5q-127 0 -206 103t-79 270zM270 195q0 -59 24.5 -88t74.5 -29q63 0 119 63t85 168l103 363q3 11 4.5 23t1.5 24q0 71 -38 116.5t-97 45.5q-42 0 -78.5 -42t-71.5 -130q-57 -145 -92 -290.5t-35 -223.5z M314 1114l309 373h172l160 -373h-97l-172 172l-258 -172h-114z" />
<glyph unicode="&#xe3;" horiz-adv-x="1171" d="M10 338q0 117 33.5 224t101.5 208q74 109 167 169t186 60q80 0 132.5 -46t82.5 -144l49 170q24 -2 57 -3t72 -1q34 0 68 1.5t67 4.5l-213 -770q-1 -4 -4 -15q-8 -31 -8 -53q0 -21 10 -33t29 -12q36 0 75.5 47t94.5 154l49 -20q-70 -156 -155.5 -235t-182.5 -79 q-70 0 -111.5 47.5t-52.5 139.5q-52 -88 -122 -137.5t-140 -49.5q-127 0 -206 103t-79 270zM270 195q0 -59 24.5 -88t74.5 -29q63 0 119 63t85 168l103 363q3 11 4.5 23t1.5 24q0 71 -38 116.5t-97 45.5q-42 0 -78.5 -42t-71.5 -130q-57 -145 -92 -290.5t-35 -223.5z M355 1145q35 139 86 202.5t127 63.5q18 0 41 -3t49 -9l123 -29q12 -3 23.5 -4.5t23.5 -1.5q43 0 71.5 21.5t44.5 66.5h74q-30 -135 -81 -196.5t-134 -61.5q-17 0 -33 2t-32 6l-112 25q-4 1 -14 3q-49 11 -63 11q-43 0 -71.5 -23.5t-47.5 -72.5h-75z" />
<glyph unicode="&#xe4;" horiz-adv-x="1171" d="M10 338q0 117 33.5 224t101.5 208q74 109 167 169t186 60q80 0 132.5 -46t82.5 -144l49 170q24 -2 57 -3t72 -1q34 0 68 1.5t67 4.5l-213 -770q-1 -4 -4 -15q-8 -31 -8 -53q0 -21 10 -33t29 -12q36 0 75.5 47t94.5 154l49 -20q-70 -156 -155.5 -235t-182.5 -79 q-70 0 -111.5 47.5t-52.5 139.5q-52 -88 -122 -137.5t-140 -49.5q-127 0 -206 103t-79 270zM270 195q0 -59 24.5 -88t74.5 -29q63 0 119 63t85 168l103 363q3 11 4.5 23t1.5 24q0 71 -38 116.5t-97 45.5q-42 0 -78.5 -42t-71.5 -130q-57 -145 -92 -290.5t-35 -223.5z M355 1300q0 57 42 99.5t99 42.5q59 0 100 -41.5t41 -100.5q0 -62 -39.5 -101.5t-101.5 -39.5q-61 0 -101 40.5t-40 100.5zM736 1300q0 57 42.5 99.5t100.5 42.5q59 0 100 -41.5t41 -100.5q0 -62 -39.5 -101.5t-101.5 -39.5q-61 0 -102 40.5t-41 100.5z" />
<glyph unicode="&#xe5;" horiz-adv-x="1171" d="M10 338q0 117 33.5 224t101.5 208q74 109 167 169t186 60q80 0 132.5 -46t82.5 -144l49 170q24 -2 57 -3t72 -1q34 0 68 1.5t67 4.5l-213 -770q-1 -4 -4 -15q-8 -31 -8 -53q0 -21 10 -33t29 -12q36 0 75.5 47t94.5 154l49 -20q-70 -156 -155.5 -235t-182.5 -79 q-70 0 -111.5 47.5t-52.5 139.5q-52 -88 -122 -137.5t-140 -49.5q-127 0 -206 103t-79 270zM270 195q0 -59 24.5 -88t74.5 -29q63 0 119 63t85 168l103 363q3 11 4.5 23t1.5 24q0 71 -38 116.5t-97 45.5q-42 0 -78.5 -42t-71.5 -130q-57 -145 -92 -290.5t-35 -223.5z M393 1303q0 98 69 166.5t169 68.5q98 0 166.5 -68.5t68.5 -166.5q0 -100 -68.5 -169t-166.5 -69q-100 0 -169 69t-69 169zM516 1300q0 -48 32.5 -80t82.5 -32q47 0 79.5 32.5t32.5 79.5q0 49 -32 82t-80 33q-49 0 -82 -32.5t-33 -82.5z" />
<glyph unicode="&#xe6;" horiz-adv-x="1575" d="M-57 182q0 164 169.5 252.5t510.5 102.5q11 54 16.5 96t5.5 76q0 112 -62.5 173.5t-176.5 61.5q-62 0 -108 -21.5t-46 -41.5q0 -9 26.5 -20t38.5 -21q27 -21 40.5 -48t13.5 -61q0 -52 -36 -82.5t-97 -30.5t-96.5 38t-35.5 102q0 110 96 181t249 71q141 0 233 -62.5 t109 -169.5q72 106 177.5 163.5t225.5 57.5q126 0 202.5 -63.5t76.5 -167.5q0 -143 -155 -238.5t-441 -128.5q-10 -46 -14.5 -82.5t-4.5 -62.5q0 -84 46 -131t128 -47q81 0 162 54.5t168 168.5l43 -33q-91 -148 -210 -227.5t-249 -79.5q-138 0 -217 68t-84 192 q-72 -126 -186.5 -193t-257.5 -67q-119 0 -189.5 60.5t-70.5 160.5zM166 178q0 -51 32.5 -84t84.5 -33q105 0 195 108t136 291q-200 -7 -324 -86.5t-124 -195.5zM893 467q187 30 308.5 134.5t121.5 227.5q0 46 -31.5 76.5t-77.5 30.5q-104 0 -182 -114t-139 -355z" />
<glyph unicode="&#xe7;" horiz-adv-x="958" d="M-25 365q0 125 43.5 233t133.5 205q86 94 199.5 147.5t228.5 53.5q133 0 217 -67.5t84 -172.5q0 -70 -46.5 -118t-113.5 -48q-64 0 -109 39.5t-45 95.5q0 85 94 143q27 18 27 25q0 18 -22.5 30.5t-57.5 12.5q-47 0 -91.5 -29t-80.5 -84q-34 -54 -63.5 -119.5 t-53.5 -140.5q-28 -88 -43.5 -169t-15.5 -140q0 -86 42.5 -138t111.5 -52q90 0 175 54.5t163 162.5l36 -35q-95 -143 -207 -215t-239 -72q-174 0 -270.5 104.5t-96.5 293.5zM20 -379l49 103q68 -40 128 -59t114 -19q36 0 59 21t23 54q0 40 -24 61t-70 21q-13 0 -31 -2.5 t-63 -10.5l69 208h86l-37 -115q2 1 6 1q43 7 64 7q85 0 134.5 -46t49.5 -126q0 -84 -58.5 -136t-154.5 -52q-70 0 -148 20t-196 70z" />
<glyph unicode="&#xe8;" horiz-adv-x="987" d="M-27 377q0 127 61.5 247.5t176.5 219.5q91 78 187.5 119t193.5 41q126 0 203 -63t77 -165q0 -145 -154 -241t-439 -127q-9 -39 -14 -74t-5 -62q0 -87 47 -137.5t127 -50.5q84 0 164.5 53.5t167.5 167.5l41 -31q-93 -148 -210 -227.5t-243 -79.5q-166 0 -273.5 115 t-107.5 295zM293 471q186 30 307 135.5t121 229.5q0 45 -30.5 74.5t-76.5 29.5q-97 0 -172.5 -109t-148.5 -360zM323 1401q0 47 30 77.5t75 30.5q31 0 60.5 -18.5t60.5 -56.5l249 -318h-120l-275 178q-42 29 -61 54.5t-19 52.5z" />
<glyph unicode="&#xe9;" horiz-adv-x="987" d="M-27 377q0 127 61.5 247.5t176.5 219.5q91 78 187.5 119t193.5 41q126 0 203 -63t77 -165q0 -145 -154 -241t-439 -127q-9 -39 -14 -74t-5 -62q0 -87 47 -137.5t127 -50.5q84 0 164.5 53.5t167.5 167.5l41 -31q-93 -148 -210 -227.5t-243 -79.5q-166 0 -273.5 115 t-107.5 295zM293 471q186 30 307 135.5t121 229.5q0 45 -30.5 74.5t-76.5 29.5q-97 0 -172.5 -109t-148.5 -360zM393 1116l309 320q36 37 68 54t65 17q40 0 70.5 -32t30.5 -74q0 -33 -20.5 -60t-59.5 -49l-342 -176h-121z" />
<glyph unicode="&#xea;" horiz-adv-x="987" d="M-27 377q0 127 61.5 247.5t176.5 219.5q91 78 187.5 119t193.5 41q126 0 203 -63t77 -165q0 -145 -154 -241t-439 -127q-9 -39 -14 -74t-5 -62q0 -87 47 -137.5t127 -50.5q84 0 164.5 53.5t167.5 167.5l41 -31q-93 -148 -210 -227.5t-243 -79.5q-166 0 -273.5 115 t-107.5 295zM252 1114l309 373h172l160 -373h-97l-172 172l-258 -172h-114zM293 471q186 30 307 135.5t121 229.5q0 45 -30.5 74.5t-76.5 29.5q-97 0 -172.5 -109t-148.5 -360z" />
<glyph unicode="&#xeb;" horiz-adv-x="987" d="M-27 377q0 127 61.5 247.5t176.5 219.5q91 78 187.5 119t193.5 41q126 0 203 -63t77 -165q0 -145 -154 -241t-439 -127q-9 -39 -14 -74t-5 -62q0 -87 47 -137.5t127 -50.5q84 0 164.5 53.5t167.5 167.5l41 -31q-93 -148 -210 -227.5t-243 -79.5q-166 0 -273.5 115 t-107.5 295zM293 471q186 30 307 135.5t121 229.5q0 45 -30.5 74.5t-76.5 29.5q-97 0 -172.5 -109t-148.5 -360zM293 1300q0 57 42 99.5t99 42.5q59 0 100 -41.5t41 -100.5q0 -62 -39.5 -101.5t-101.5 -39.5q-61 0 -101 40.5t-40 100.5zM674 1300q0 57 42.5 99.5t100.5 42.5 q59 0 100 -41.5t41 -100.5q0 -62 -39.5 -101.5t-101.5 -39.5q-61 0 -102 40.5t-41 100.5z" />
<glyph unicode="&#xec;" horiz-adv-x="729" d="M25 152q0 23 4.5 49.5t15.5 64.5l152 520q5 21 8.5 35t3.5 19q0 37 -27 51t-108 14l14 66l434 12l-219 -782q-5 -21 -7.5 -37t-2.5 -29q0 -18 13 -30.5t32 -12.5q38 0 85.5 49.5t108.5 151.5l46 -29q-96 -161 -181.5 -229t-189.5 -68q-82 0 -132 50.5t-50 134.5zM94 1401 q0 47 30 77.5t75 30.5q31 0 60.5 -18.5t60.5 -56.5l249 -318h-120l-275 178q-42 29 -61 54.5t-19 52.5z" />
<glyph unicode="&#xed;" horiz-adv-x="729" d="M25 152q0 23 4.5 49.5t15.5 64.5l152 520q5 21 8.5 35t3.5 19q0 37 -27 51t-108 14l14 66l434 12l-219 -782q-5 -21 -7.5 -37t-2.5 -29q0 -18 13 -30.5t32 -12.5q38 0 85.5 49.5t108.5 151.5l46 -29q-96 -161 -181.5 -229t-189.5 -68q-82 0 -132 50.5t-50 134.5z M164 1116l309 320q36 37 68 54t65 17q40 0 70.5 -32t30.5 -74q0 -33 -20.5 -60t-59.5 -49l-342 -176h-121z" />
<glyph unicode="&#xee;" horiz-adv-x="729" d="M23 1114l309 373h172l160 -373h-97l-172 172l-258 -172h-114zM25 152q0 23 4.5 49.5t15.5 64.5l152 520q5 21 8.5 35t3.5 19q0 37 -27 51t-108 14l14 66l434 12l-219 -782q-5 -21 -7.5 -37t-2.5 -29q0 -18 13 -30.5t32 -12.5q38 0 85.5 49.5t108.5 151.5l46 -29 q-96 -161 -181.5 -229t-189.5 -68q-82 0 -132 50.5t-50 134.5z" />
<glyph unicode="&#xef;" horiz-adv-x="729" d="M25 152q0 23 4.5 49.5t15.5 64.5l152 520q5 21 8.5 35t3.5 19q0 37 -27 51t-108 14l14 66l434 12l-219 -782q-5 -21 -7.5 -37t-2.5 -29q0 -18 13 -30.5t32 -12.5q38 0 85.5 49.5t108.5 151.5l46 -29q-96 -161 -181.5 -229t-189.5 -68q-82 0 -132 50.5t-50 134.5zM64 1300 q0 57 42 99.5t99 42.5q59 0 100 -41.5t41 -100.5q0 -62 -39.5 -101.5t-101.5 -39.5q-61 0 -101 40.5t-40 100.5zM445 1300q0 57 42.5 99.5t100.5 42.5q59 0 100 -41.5t41 -100.5q0 -62 -39.5 -101.5t-101.5 -39.5q-61 0 -102 40.5t-41 100.5z" />
<glyph unicode="&#xf0;" horiz-adv-x="1008" d="M-8 358q0 119 44 228t126 192q81 83 171 126.5t179 43.5q25 0 50.5 -4t51.5 -12v33q0 52 -8.5 99t-25.5 89l-344 -92l-21 84l324 84q-51 78 -123 130t-164 79l12 78q134 -35 238 -97t180 -153l303 82l21 -84l-275 -70q76 -120 114 -256.5t38 -290.5q0 -156 -41.5 -281.5 t-122.5 -215.5t-174 -136.5t-193 -46.5q-157 0 -258.5 111t-101.5 280zM238 158q0 -63 26 -96t76 -33q57 0 97 50t79 171q52 163 83.5 306t31.5 200q0 64 -27.5 98.5t-79.5 34.5q-51 0 -88.5 -45t-77.5 -158q-55 -164 -87.5 -311t-32.5 -217z" />
<glyph unicode="&#xf1;" horiz-adv-x="1235" d="M-31 -2l215 780q7 25 10 42.5t3 31.5q0 34 -26 47t-109 15l20 65l418 14l-62 -268q104 137 196.5 202.5t180.5 65.5q86 0 139.5 -56.5t53.5 -148.5q0 -26 -6.5 -58.5t-22.5 -84.5l-125 -389l-2 -6q-21 -69 -21 -94q0 -22 14 -37t34 -15q35 0 81.5 56t96.5 159l49 -20 q-74 -162 -160 -243t-184 -81q-78 0 -131 54t-53 133q0 51 10 110.5t30 126.5l107 344q6 20 9 37t3 31q0 23 -13.5 38t-33.5 15q-56 0 -134 -82.5t-159 -228.5l-151 -555h-277zM355 1145q35 139 86 202.5t127 63.5q18 0 41 -3t49 -9l123 -29q12 -3 23.5 -4.5t23.5 -1.5 q43 0 71.5 21.5t44.5 66.5h74q-30 -135 -81 -196.5t-134 -61.5q-17 0 -33 2t-32 6l-112 25q-4 1 -14 3q-49 11 -63 11q-43 0 -71.5 -23.5t-47.5 -72.5h-75z" />
<glyph unicode="&#xf2;" horiz-adv-x="1008" d="M-29 391q0 116 47.5 230t133.5 202q84 86 179 131t191 45q164 0 270.5 -119t106.5 -305q0 -113 -41 -219t-121 -196q-84 -93 -183.5 -143t-201.5 -50q-169 0 -275 118t-106 306zM231 168q0 -66 28 -100.5t81 -34.5q59 0 101.5 52.5t82.5 180.5q55 174 88 324t33 207 q0 68 -29 104.5t-84 36.5q-54 0 -93.5 -47.5t-80.5 -167.5q-58 -172 -92.5 -325t-34.5 -230zM303 1401q0 47 30 77.5t75 30.5q31 0 60.5 -18.5t60.5 -56.5l249 -318h-120l-275 178q-42 29 -61 54.5t-19 52.5z" />
<glyph unicode="&#xf3;" horiz-adv-x="1008" d="M-29 391q0 116 47.5 230t133.5 202q84 86 179 131t191 45q164 0 270.5 -119t106.5 -305q0 -113 -41 -219t-121 -196q-84 -93 -183.5 -143t-201.5 -50q-169 0 -275 118t-106 306zM231 168q0 -66 28 -100.5t81 -34.5q59 0 101.5 52.5t82.5 180.5q55 174 88 324t33 207 q0 68 -29 104.5t-84 36.5q-54 0 -93.5 -47.5t-80.5 -167.5q-58 -172 -92.5 -325t-34.5 -230zM373 1116l309 320q36 37 68 54t65 17q40 0 70.5 -32t30.5 -74q0 -33 -20.5 -60t-59.5 -49l-342 -176h-121z" />
<glyph unicode="&#xf4;" horiz-adv-x="1008" d="M-29 391q0 116 47.5 230t133.5 202q84 86 179 131t191 45q164 0 270.5 -119t106.5 -305q0 -113 -41 -219t-121 -196q-84 -93 -183.5 -143t-201.5 -50q-169 0 -275 118t-106 306zM231 168q0 -66 28 -100.5t81 -34.5q59 0 101.5 52.5t82.5 180.5q55 174 88 324t33 207 q0 68 -29 104.5t-84 36.5q-54 0 -93.5 -47.5t-80.5 -167.5q-58 -172 -92.5 -325t-34.5 -230zM232 1114l309 373h172l160 -373h-97l-172 172l-258 -172h-114z" />
<glyph unicode="&#xf5;" horiz-adv-x="1008" d="M-29 391q0 116 47.5 230t133.5 202q84 86 179 131t191 45q164 0 270.5 -119t106.5 -305q0 -113 -41 -219t-121 -196q-84 -93 -183.5 -143t-201.5 -50q-169 0 -275 118t-106 306zM231 168q0 -66 28 -100.5t81 -34.5q59 0 101.5 52.5t82.5 180.5q55 174 88 324t33 207 q0 68 -29 104.5t-84 36.5q-54 0 -93.5 -47.5t-80.5 -167.5q-58 -172 -92.5 -325t-34.5 -230zM273 1145q35 139 86 202.5t127 63.5q18 0 41 -3t49 -9l123 -29q12 -3 23.5 -4.5t23.5 -1.5q43 0 71.5 21.5t44.5 66.5h74q-30 -135 -81 -196.5t-134 -61.5q-17 0 -33 2t-32 6 l-112 25q-4 1 -14 3q-49 11 -63 11q-43 0 -71.5 -23.5t-47.5 -72.5h-75z" />
<glyph unicode="&#xf6;" horiz-adv-x="1008" d="M-29 391q0 116 47.5 230t133.5 202q84 86 179 131t191 45q164 0 270.5 -119t106.5 -305q0 -113 -41 -219t-121 -196q-84 -93 -183.5 -143t-201.5 -50q-169 0 -275 118t-106 306zM231 168q0 -66 28 -100.5t81 -34.5q59 0 101.5 52.5t82.5 180.5q55 174 88 324t33 207 q0 68 -29 104.5t-84 36.5q-54 0 -93.5 -47.5t-80.5 -167.5q-58 -172 -92.5 -325t-34.5 -230zM273 1300q0 57 42 99.5t99 42.5q59 0 100 -41.5t41 -100.5q0 -62 -39.5 -101.5t-101.5 -39.5q-61 0 -101 40.5t-40 100.5zM654 1300q0 57 42.5 99.5t100.5 42.5q59 0 100 -41.5 t41 -100.5q0 -62 -39.5 -101.5t-101.5 -39.5q-61 0 -102 40.5t-41 100.5z" />
<glyph unicode="&#xf7;" horiz-adv-x="1706" d="M254 528v166h1198v-166h-1198zM717 229q0 57 40.5 97.5t96.5 40.5q57 0 97 -40.5t40 -97.5q0 -56 -39.5 -95.5t-97.5 -39.5t-97.5 39t-39.5 96zM717 989q0 57 40.5 98t96.5 41q57 0 97 -41t40 -98q0 -56 -39.5 -95.5t-97.5 -39.5t-97.5 39t-39.5 96z" />
<glyph unicode="&#xf8;" horiz-adv-x="1008" d="M-29 387q0 121 49 236t138 204q81 81 176 125.5t186 44.5q16 0 37 -2t57 -8l93 209h88l-105 -235q97 -50 153 -152t56 -229q0 -119 -44.5 -232.5t-125.5 -200.5t-179 -134.5t-196 -47.5q-15 0 -37 2.5t-55 7.5l-98 -225h-90l112 252q-105 61 -160 158.5t-55 226.5z M213 213q0 -31 6 -55.5t19 -46.5l354 809q-24 8 -42.5 12t-33.5 4q-58 0 -98 -45.5t-82 -167.5q-57 -162 -90 -301t-33 -209zM287 43q19 -5 37 -7.5t36 -2.5q53 0 92 36.5t70 114.5q20 49 40 114.5t44 158.5q34 128 48 197.5t14 105.5q0 22 -6.5 47.5t-18.5 54.5z" />
<glyph unicode="&#xf9;" horiz-adv-x="1235" d="M29 158q0 24 4 51.5t12 58.5l145 516q1 2 2 6q11 40 11 62q0 39 -24 53.5t-105 16.5l12 59l430 25l-209 -783q-3 -12 -4.5 -24t-1.5 -21q0 -29 16 -46t43 -17q54 0 120 59t126 162l180 645h267l-205 -772q-7 -23 -9.5 -38.5t-2.5 -31.5q0 -18 12 -31.5t29 -13.5 q38 0 83.5 57.5t90.5 161.5l49 -22q-68 -160 -152.5 -241t-183.5 -81q-85 0 -134.5 58t-56.5 163q-102 -114 -188.5 -167.5t-167.5 -53.5q-84 0 -136 52t-52 137zM383 1401q0 47 30 77.5t75 30.5q31 0 60.5 -18.5t60.5 -56.5l249 -318h-120l-275 178q-42 29 -61 54.5 t-19 52.5z" />
<glyph unicode="&#xfa;" horiz-adv-x="1235" d="M29 158q0 24 4 51.5t12 58.5l145 516q1 2 2 6q11 40 11 62q0 39 -24 53.5t-105 16.5l12 59l430 25l-209 -783q-3 -12 -4.5 -24t-1.5 -21q0 -29 16 -46t43 -17q54 0 120 59t126 162l180 645h267l-205 -772q-7 -23 -9.5 -38.5t-2.5 -31.5q0 -18 12 -31.5t29 -13.5 q38 0 83.5 57.5t90.5 161.5l49 -22q-68 -160 -152.5 -241t-183.5 -81q-85 0 -134.5 58t-56.5 163q-102 -114 -188.5 -167.5t-167.5 -53.5q-84 0 -136 52t-52 137zM453 1116l309 320q36 37 68 54t65 17q40 0 70.5 -32t30.5 -74q0 -33 -20.5 -60t-59.5 -49l-342 -176h-121z " />
<glyph unicode="&#xfb;" horiz-adv-x="1235" d="M29 158q0 24 4 51.5t12 58.5l145 516q1 2 2 6q11 40 11 62q0 39 -24 53.5t-105 16.5l12 59l430 25l-209 -783q-3 -12 -4.5 -24t-1.5 -21q0 -29 16 -46t43 -17q54 0 120 59t126 162l180 645h267l-205 -772q-7 -23 -9.5 -38.5t-2.5 -31.5q0 -18 12 -31.5t29 -13.5 q38 0 83.5 57.5t90.5 161.5l49 -22q-68 -160 -152.5 -241t-183.5 -81q-85 0 -134.5 58t-56.5 163q-102 -114 -188.5 -167.5t-167.5 -53.5q-84 0 -136 52t-52 137zM312 1114l309 373h172l160 -373h-97l-172 172l-258 -172h-114z" />
<glyph unicode="&#xfc;" horiz-adv-x="1235" d="M29 158q0 24 4 51.5t12 58.5l145 516q1 2 2 6q11 40 11 62q0 39 -24 53.5t-105 16.5l12 59l430 25l-209 -783q-3 -12 -4.5 -24t-1.5 -21q0 -29 16 -46t43 -17q54 0 120 59t126 162l180 645h267l-205 -772q-7 -23 -9.5 -38.5t-2.5 -31.5q0 -18 12 -31.5t29 -13.5 q38 0 83.5 57.5t90.5 161.5l49 -22q-68 -160 -152.5 -241t-183.5 -81q-85 0 -134.5 58t-56.5 163q-102 -114 -188.5 -167.5t-167.5 -53.5q-84 0 -136 52t-52 137zM353 1300q0 57 42 99.5t99 42.5q59 0 100 -41.5t41 -100.5q0 -62 -39.5 -101.5t-101.5 -39.5q-61 0 -101 40.5 t-40 100.5zM734 1300q0 57 42.5 99.5t100.5 42.5q59 0 100 -41.5t41 -100.5q0 -62 -39.5 -101.5t-101.5 -39.5q-61 0 -102 40.5t-41 100.5z" />
<glyph unicode="&#xfd;" horiz-adv-x="1120" d="M-92 -199q0 65 38 103.5t101 38.5t100 -34t37 -91q0 -41 -23.5 -77.5t-23.5 -37.5q0 -10 19.5 -16t50.5 -6q118 0 199 122t133 377q-81 -88 -160.5 -134t-149.5 -46q-92 0 -143 54.5t-51 152.5q0 28 4.5 58t13.5 62l117 421v1q25 83 25 107q0 34 -22.5 47t-106.5 19l8 59 l432 25l-199 -762q-6 -18 -8 -29.5t-2 -21.5q0 -31 15.5 -46.5t45.5 -15.5q52 0 114 52t106 134l184 664q34 -4 67 -6t66 -2q43 0 76 2t59 6l-233 -909q-52 -204 -217 -328.5t-385 -124.5q-140 0 -213.5 47t-73.5 135zM430 1116l309 320q36 37 68 54t65 17q40 0 70.5 -32 t30.5 -74q0 -33 -20.5 -60t-59.5 -49l-342 -176h-121z" />
<glyph unicode="&#xfe;" horiz-adv-x="1118" d="M-272 -379l12 57q79 0 118.5 28t59.5 99l422 1499q3 11 4.5 22.5t1.5 23.5q0 39 -23 53.5t-103 17.5l11 60l431 26l-179 -659q63 77 122 114t118 37q124 0 198 -93.5t74 -252.5q0 -160 -50.5 -295.5t-149.5 -242.5q-66 -72 -143 -111t-152 -39q-70 0 -122.5 38.5 t-90.5 119.5l-90 -311q-1 -3 -3 -10q-8 -29 -8 -48q0 -41 33 -58.5t119 -19.5l-8 -55h-602zM309 215q9 -58 46.5 -96.5t82.5 -38.5q55 0 96 50t89 179q53 146 83.5 268t30.5 187q0 54 -24.5 85.5t-67.5 31.5q-49 0 -102.5 -52t-108.5 -153z" />
<glyph unicode="&#xff;" horiz-adv-x="1120" d="M-92 -199q0 65 38 103.5t101 38.5t100 -34t37 -91q0 -41 -23.5 -77.5t-23.5 -37.5q0 -10 19.5 -16t50.5 -6q118 0 199 122t133 377q-81 -88 -160.5 -134t-149.5 -46q-92 0 -143 54.5t-51 152.5q0 28 4.5 58t13.5 62l117 421v1q25 83 25 107q0 34 -22.5 47t-106.5 19l8 59 l432 25l-199 -762q-6 -18 -8 -29.5t-2 -21.5q0 -31 15.5 -46.5t45.5 -15.5q52 0 114 52t106 134l184 664q34 -4 67 -6t66 -2q43 0 76 2t59 6l-233 -909q-52 -204 -217 -328.5t-385 -124.5q-140 0 -213.5 47t-73.5 135zM330 1300q0 57 42 99.5t99 42.5q59 0 100 -41.5 t41 -100.5q0 -62 -39.5 -101.5t-101.5 -39.5q-61 0 -101 40.5t-40 100.5zM711 1300q0 57 42.5 99.5t100.5 42.5q59 0 100 -41.5t41 -100.5q0 -62 -39.5 -101.5t-101.5 -39.5q-61 0 -102 40.5t-41 100.5z" />
<glyph unicode="&#x152;" horiz-adv-x="2091" d="M25 612q0 196 85 370.5t242 299.5q131 104 275 150.5t346 46.5h1245l-109 -525l-73 1q1 13 1.5 25.5t0.5 33.5q0 192 -100.5 298.5t-280.5 106.5q-80 0 -120.5 -31t-61.5 -110l-125 -463h30q130 0 219 62.5t138 187.5h65l-176 -649h-67q1 20 1.5 38.5t0.5 41.5 q0 126 -50.5 187.5t-154.5 61.5h-25l-145 -550l-3 -12q-9 -36 -9 -50q0 -34 29.5 -49.5t96.5 -15.5q177 0 343 119.5t327 363.5h76l-162 -551h-1272q-270 0 -428.5 165.5t-158.5 446.5zM342 426q0 -172 76.5 -267.5t214.5 -95.5q98 0 159.5 55.5t92.5 172.5l235 886 q11 44 15 67t4 40q0 70 -43.5 102.5t-134.5 32.5q-114 0 -204.5 -41.5t-156.5 -124.5q-61 -76 -108 -177.5t-86 -244.5q-32 -108 -48 -212t-16 -193z" />
<glyph unicode="&#x153;" horiz-adv-x="1571" d="M2 393q0 119 54 239t155 224q68 70 163.5 110t194.5 40q90 0 157.5 -36.5t123.5 -115.5q81 75 168 113.5t178 38.5q123 0 198.5 -62t75.5 -162q0 -149 -149 -242.5t-453 -133.5q-10 -37 -15 -73t-5 -71q0 -91 41 -136.5t125 -45.5q87 0 174.5 56t175.5 169l37 -33 q-102 -155 -215.5 -231t-245.5 -76q-86 0 -147 30t-113 97q-73 -64 -150 -95.5t-159 -31.5q-158 0 -263.5 122t-105.5 306zM252 178q0 -71 31.5 -110t89.5 -39q55 0 96.5 48.5t77.5 155.5q62 184 100.5 351.5t38.5 224.5q0 63 -34.5 99t-94.5 36q-55 0 -92.5 -42.5 t-73.5 -147.5q-64 -193 -101.5 -349.5t-37.5 -226.5zM883 469q191 38 313.5 144t122.5 225q0 49 -28.5 77.5t-78.5 28.5q-108 0 -190 -118t-139 -357z" />
<glyph unicode="&#x178;" horiz-adv-x="1454" d="M131 0l14 66q99 0 136.5 22.5t58.5 97.5l137 486l-172 649q-15 57 -47.5 78t-122.5 25l12 55h668l-8 -56q-96 0 -133 -19t-37 -67q0 -9 1.5 -20.5t4.5 -24.5l137 -522l359 455q16 21 25.5 44t9.5 44q0 49 -43 78t-121 33l12 55h526l-10 -56q-71 -6 -146.5 -55.5 t-144.5 -134.5l-434 -541l-135 -499q-2 -6 -3 -18.5t-1 -29.5q0 -43 34 -61t119 -18h19l-15 -66h-700zM627 1802q0 57 42 99.5t99 42.5q59 0 100 -41.5t41 -100.5q0 -62 -39.5 -101.5t-101.5 -39.5q-61 0 -101 40.5t-40 100.5zM1008 1802q0 57 42.5 99.5t100.5 42.5 q59 0 100 -41.5t41 -100.5q0 -62 -39.5 -101.5t-101.5 -39.5q-61 0 -102 40.5t-41 100.5z" />
<glyph unicode="&#x2c6;" d="M240 1114l309 373h172l160 -373h-97l-172 172l-258 -172h-114z" />
<glyph unicode="&#x2dc;" d="M281 1145q35 139 86 202.5t127 63.5q18 0 41 -3t49 -9l123 -29q12 -3 23.5 -4.5t23.5 -1.5q43 0 71.5 21.5t44.5 66.5h74q-30 -135 -81 -196.5t-134 -61.5q-17 0 -33 2t-32 6l-112 25q-4 1 -14 3q-49 11 -63 11q-43 0 -71.5 -23.5t-47.5 -72.5h-75z" />
<glyph unicode="&#x2000;" horiz-adv-x="1005" />
<glyph unicode="&#x2001;" horiz-adv-x="2011" />
<glyph unicode="&#x2002;" horiz-adv-x="1005" />
<glyph unicode="&#x2003;" horiz-adv-x="2011" />
<glyph unicode="&#x2004;" horiz-adv-x="670" />
<glyph unicode="&#x2005;" horiz-adv-x="502" />
<glyph unicode="&#x2006;" horiz-adv-x="335" />
<glyph unicode="&#x2007;" horiz-adv-x="335" />
<glyph unicode="&#x2008;" horiz-adv-x="251" />
<glyph unicode="&#x2009;" horiz-adv-x="402" />
<glyph unicode="&#x200a;" horiz-adv-x="111" />
<glyph unicode="&#x2010;" horiz-adv-x="676" d="M-12 373l63 243h502l-66 -243h-499z" />
<glyph unicode="&#x2011;" horiz-adv-x="676" d="M-12 373l63 243h502l-66 -243h-499z" />
<glyph unicode="&#x2012;" horiz-adv-x="676" d="M-12 373l63 243h502l-66 -243h-499z" />
<glyph unicode="&#x2013;" d="M-78 406l39 178h1024l-39 -178h-1024z" />
<glyph unicode="&#x2014;" horiz-adv-x="2048" d="M-88 406l39 178h2048l-39 -178h-2048z" />
<glyph unicode="&#x2018;" horiz-adv-x="553" d="M186 1065q0 125 103.5 246t277.5 196l25 -49q-106 -59 -170 -127.5t-64 -120.5q0 -13 35.5 -23.5t53.5 -19.5q39 -20 59 -55t20 -84q0 -74 -49.5 -121t-128.5 -47q-68 0 -115 58.5t-47 146.5z" />
<glyph unicode="&#x2019;" horiz-adv-x="553" d="M193 911q106 60 169.5 128.5t63.5 119.5q0 14 -35 24t-53 19q-40 20 -60 55t-20 84q0 75 49.5 121.5t128.5 46.5q68 0 115 -58t47 -146q0 -126 -103 -247t-278 -196z" />
<glyph unicode="&#x201a;" horiz-adv-x="553" d="M-53 -250q106 60 169.5 127.5t63.5 118.5q0 14 -34.5 24t-51.5 19q-40 20 -61 56t-21 85q0 75 49.5 121.5t128.5 46.5q68 0 115 -58.5t47 -146.5q0 -125 -103 -247t-278 -197z" />
<glyph unicode="&#x201c;" horiz-adv-x="1059" d="M178 1065q0 125 103.5 246t277.5 196l25 -49q-106 -60 -170 -128.5t-64 -119.5q0 -13 35.5 -23.5t53.5 -19.5q39 -20 59 -55t20 -84q0 -75 -48.5 -121.5t-127.5 -46.5q-68 0 -116 58.5t-48 146.5zM700 1065q0 125 103.5 246t277.5 196l25 -49q-106 -59 -170 -127.5 t-64 -120.5q0 -13 35.5 -23.5t53.5 -19.5q39 -20 59 -55t20 -84q0 -74 -49.5 -121t-128.5 -47q-68 0 -115 58.5t-47 146.5z" />
<glyph unicode="&#x201d;" horiz-adv-x="1059" d="M184 911q106 60 170 128.5t64 119.5q0 14 -35 24t-53 19q-40 20 -60 55t-20 84q0 75 49.5 121.5t128.5 46.5q68 0 115 -58t47 -146q0 -126 -103.5 -247t-277.5 -196zM705 911q106 60 169.5 128.5t63.5 119.5q0 14 -34.5 24.5t-51.5 18.5q-40 20 -61 55.5t-21 83.5 q0 75 49.5 121.5t128.5 46.5q68 0 115 -58t47 -146q0 -126 -102.5 -247t-276.5 -196z" />
<glyph unicode="&#x201e;" horiz-adv-x="1059" d="M-61 -250q106 59 169.5 128t63.5 120q0 14 -34.5 24t-51.5 19q-40 20 -61 55.5t-21 83.5q0 75 49.5 121.5t128.5 46.5q68 0 115 -58.5t47 -146.5q0 -125 -103 -246t-278 -196zM463 -250q106 59 169.5 128t63.5 120q0 14 -35 24t-53 19q-39 20 -59.5 55t-20.5 84 q0 75 49.5 121.5t129.5 46.5q67 0 114 -58.5t47 -146.5q0 -125 -103 -246t-278 -196z" />
<glyph unicode="&#x2022;" horiz-adv-x="1208" d="M307 762q0 123 87 209t210 86q122 0 208.5 -86.5t86.5 -208.5t-87.5 -209.5t-209.5 -87.5q-123 0 -209 87t-86 210z" />
<glyph unicode="&#x2026;" horiz-adv-x="2048" d="M47 133q0 71 50 120.5t120 49.5q71 0 120.5 -49.5t49.5 -120.5q0 -70 -49.5 -120t-120.5 -50t-120.5 50t-49.5 120zM729 133q0 71 50 120.5t120 49.5q71 0 120.5 -49.5t49.5 -120.5q0 -70 -49.5 -120t-120.5 -50t-120.5 50t-49.5 120zM1413 133q0 71 50 120.5t120 49.5 q71 0 120.5 -49.5t49.5 -120.5q0 -70 -49.5 -120t-120.5 -50t-120.5 50t-49.5 120z" />
<glyph unicode="&#x202f;" horiz-adv-x="402" />
<glyph unicode="&#x2039;" horiz-adv-x="676" d="M90 492q145 93 277.5 198t140.5 105q7 0 11.5 -6.5t4.5 -16.5q0 -22 -69.5 -106.5t-178.5 -190.5q57 -93 92 -172.5t35 -103.5q0 -14 -4.5 -21.5t-13.5 -7.5q-17 0 -110 113.5t-185 208.5z" />
<glyph unicode="&#x203a;" horiz-adv-x="676" d="M43 193q0 21 69.5 106t178.5 190q-57 94 -93 173.5t-36 103.5q0 12 5.5 20.5t14.5 8.5q17 0 108.5 -113.5t184.5 -208.5q-145 -94 -276.5 -198.5t-139.5 -104.5q-7 0 -11.5 6.5t-4.5 16.5z" />
<glyph unicode="&#x205f;" horiz-adv-x="502" />
<glyph unicode="&#x2122;" horiz-adv-x="1683" d="M233 1260l11 188h448l10 -188h-30q-8 80 -40 116.5t-93 36.5h-11v-422q0 -23 10.5 -37t28.5 -16l31 -4v-29h-260v29l32 4q19 2 28.5 15.5t9.5 37.5v422h-15q-59 0 -91 -37.5t-40 -115.5h-29zM770 905v29l33 4q20 2 30.5 15t10.5 36v373q0 23 -11 37t-30 16l-33 2v31h199 l135 -381l137 381h189v-27l-28 -2q-19 -3 -29.5 -16.5t-10.5 -36.5v-375q0 -23 10.5 -36.5t30.5 -16.5l27 -4v-29h-246v29l30 4q20 2 29.5 15.5t9.5 37.5v375l-163 -463h-27l-170 469v-381q0 -24 10 -38t29 -15l35 -4v-29h-197z" />
<glyph unicode="&#xe000;" horiz-adv-x="1004" d="M0 0v1005h1005v-1005h-1005z" />
</font>
</defs>
</svg>
