<?xml version="1.0" standalone="no"?>
<!DOCTYPE svg PUBLIC "-//W3C//DTD SVG 1.1//EN" "http://www.w3.org/Graphics/SVG/1.1/DTD/svg11.dtd" >
<svg xmlns="http://www.w3.org/2000/svg">
<metadata></metadata>
<defs>
<font id="tradegothicregular" horiz-adv-x="1251" >
<font-face units-per-em="2048" ascent="1638" descent="-410" />
<missing-glyph horiz-adv-x="624" />
<glyph horiz-adv-x="2048" />
<glyph horiz-adv-x="2048" />
<glyph unicode="&#xd;" horiz-adv-x="2048" />
<glyph unicode=" "  horiz-adv-x="624" />
<glyph unicode="&#x09;" horiz-adv-x="624" />
<glyph unicode="&#xa0;" horiz-adv-x="624" />
<glyph unicode="!" horiz-adv-x="681" d="M188 1479h304l-54 -979h-196zM199 0v291h282v-291h-282z" />
<glyph unicode="&#x22;" horiz-adv-x="681" d="M49 922v557h230v-557h-230zM403 922v557h230v-557h-230z" />
<glyph unicode="#" d="M125 432v184h190l35 246h-164v185h189l57 432h193l-56 -432h197l57 432h193l-55 -432h163v-185h-188l-35 -246h164v-184h-191l-57 -432h-192l55 432h-197l-57 -432h-193l56 432h-164zM510 616h197l34 246h-196z" />
<glyph unicode="$" d="M86 244l176 151q55 -83 119.5 -126t157.5 -64v444q-90 20 -166.5 54.5t-139 84.5t-98 120t-35.5 153q0 132 62.5 228t160 142t216.5 48v147h151v-147q117 -3 217 -52t203 -151l-160 -158q-73 71 -129 108t-131 48v-410q230 -68 341.5 -175t111.5 -292q0 -98 -35.5 -173.5 t-98.5 -122t-143 -71.5t-176 -30v-246h-151v246q-293 29 -453 244zM330 1079q0 -68 47.5 -105t161.5 -69v369q-209 -13 -209 -195zM690 205q93 0 158 43.5t65 142.5q0 84 -57.5 134.5t-165.5 78.5v-399z" />
<glyph unicode="%" horiz-adv-x="1820" d="M70 1110q0 152 107 260.5t261 108.5t261.5 -108.5t107.5 -260.5t-107.5 -260.5t-261.5 -108.5t-261 108.5t-107 260.5zM270 1110q0 -67 50 -117.5t118 -50.5t118 50.5t50 117.5t-50 117.5t-118 50.5t-118 -50.5t-50 -117.5zM403 -20l850 1519h174l-849 -1519h-175z M1014 369q0 152 107 260t261 108t261.5 -108t107.5 -260t-107.5 -260.5t-261.5 -108.5t-261 108.5t-107 260.5zM1214 369q0 -67 50 -117.5t118 -50.5t118 50.5t50 117.5t-50 117.5t-118 50.5t-118 -50.5t-50 -117.5z" />
<glyph unicode="&#x26;" horiz-adv-x="1366" d="M82 410q0 66 17.5 123t52.5 104.5t77 85t99 76.5q-66 96 -95.5 174.5t-29.5 181.5q0 155 105 249.5t270 94.5q147 0 249.5 -95.5t102.5 -234.5q0 -54 -18.5 -106t-35.5 -83.5t-67.5 -81.5t-67.5 -64.5t-83 -66.5q-9 -7 -13 -11q130 -177 260 -293q83 121 139 278l226 -61 q-87 -232 -180 -363q108 -97 208 -100v-237q-108 0 -176.5 28t-191.5 127q-149 -155 -375 -155q-216 0 -344.5 108.5t-128.5 321.5zM348 422q0 -82 65.5 -143.5t151.5 -61.5q115 0 197 82q-171 132 -295 317q-33 -27 -49 -42t-35.5 -39t-27 -51t-7.5 -62zM440 1174 q0 -121 78 -240q174 127 174 246q0 65 -33.5 108t-93.5 43q-47 0 -86 -43.5t-39 -113.5z" />
<glyph unicode="'" horiz-adv-x="454" d="M113 922v557h229v-557h-229z" />
<glyph unicode="(" horiz-adv-x="681" d="M102 664q0 244 66 425.5t213 409.5h248q-297 -382 -297 -835q0 -454 297 -836h-248q-72 113 -118.5 199.5t-85.5 188.5t-57 211t-18 237z" />
<glyph unicode=")" horiz-adv-x="681" d="M53 -172q297 382 297 836q0 453 -297 835h248q147 -228 213 -409.5t66 -425.5q0 -128 -18 -237t-57 -211t-85.5 -188.5t-118.5 -199.5h-248z" />
<glyph unicode="*" horiz-adv-x="1024" d="M135 1128l53 183l273 -140l8 11l-63 297h202l-53 -299l10 -11l262 152l62 -184l-299 -47l219 -218l-152 -118l-137 272l-14 -2l-131 -268l-154 108l217 215l-4 13z" />
<glyph unicode="+" horiz-adv-x="1228" d="M82 422v221h422v422h221v-422h422v-221h-422v-422h-221v422h-422z" />
<glyph unicode="," horiz-adv-x="624" d="M170 0v291h283v-291l-131 -307h-134l105 307h-123z" />
<glyph unicode="-" horiz-adv-x="681" d="M90 422v221h502v-221h-502z" />
<glyph unicode="." horiz-adv-x="624" d="M170 0v291h283v-291h-283z" />
<glyph unicode="/" horiz-adv-x="569" d="M-57 -20l460 1519h224l-461 -1519h-223z" />
<glyph unicode="0" d="M86 739q0 130 18 242t59 208.5t103 164.5t153 106.5t206 38.5t206 -38.5t152.5 -106.5t102.5 -164.5t59 -208t18 -242.5t-18 -242.5t-59 -208t-102.5 -164t-152.5 -106t-206 -38.5t-206 38.5t-153 106.5t-103 164t-59 208t-18 242zM352 739q0 -148 19.5 -253.5t56.5 -167 t85.5 -89.5t111.5 -28t111 28t85 89.5t56.5 167t19.5 253.5q0 288 -71 413.5t-201 125.5q-63 0 -111.5 -28t-85.5 -89.5t-56.5 -167.5t-19.5 -254z" />
<glyph unicode="1" d="M266 1225v172q227 10 322 102h207v-1294h227v-205h-723v205h229v1020h-262z" />
<glyph unicode="2" d="M115 0v244q9 47 54.5 104t110 114.5t141 119.5t151 125t135.5 123.5t99 124t38 118.5q0 96 -58.5 150.5t-160.5 54.5q-106 0 -173.5 -63.5t-93.5 -170.5l-237 52q23 172 167.5 287.5t340.5 115.5q132 0 240 -48t174.5 -146.5t66.5 -231.5q0 -87 -28 -165.5t-70 -137.5 t-115 -129t-140 -123t-169 -136t-178 -153h700v-229h-995z" />
<glyph unicode="3" d="M63 266l213 121q111 -186 312 -186q104 0 180 60.5t76 162.5q0 50 -16 90t-40.5 65.5t-64 44t-75 28t-86 15t-84 6.5t-81.5 1v221q71 0 125.5 4.5t108 18t88 35.5t55.5 60t21 89q0 79 -60 127.5t-153 48.5q-85 0 -151 -39t-132 -109l-176 160q197 209 450 209 q138 0 246.5 -42t175 -130t66.5 -209q0 -109 -58 -191t-165 -128q131 -41 201.5 -138.5t70.5 -236.5q0 -112 -44.5 -199t-120 -139.5t-167 -79t-192.5 -26.5q-163 0 -306 74.5t-217 211.5z" />
<glyph unicode="4" d="M49 340v260l631 879h289v-934h209v-205h-209v-340h-254v340h-666zM254 545h461v659h-4z" />
<glyph unicode="5" d="M111 256l221 115q32 -75 107.5 -120.5t154.5 -47.5q136 -4 205 78.5t69 226.5q0 117 -68.5 193.5t-183.5 76.5q-75 0 -133 -34.5t-90 -92.5l-213 41l56 787h798v-230h-598l-20 -336q40 41 102.5 63.5t173.5 22.5q96 0 180.5 -42.5t141 -112t89 -157.5t32.5 -179 q0 -247 -141 -387.5t-404 -140.5q-170 0 -292.5 73.5t-186.5 202.5z" />
<glyph unicode="6" d="M100 651q0 391 168.5 619.5t466.5 228.5q189 0 367 -110l-117 -213q-117 102 -250 102q-99 0 -183 -60t-133.5 -164t-51.5 -227q72 63 150.5 91t180.5 28q196 0 325 -134t130 -345q-1 -151 -70 -262.5t-186 -168t-266 -56.5q-117 0 -213.5 42t-167.5 124t-110.5 210.5 t-39.5 294.5zM367 557q0 -90 24 -160.5t64.5 -112t90.5 -62.5t105 -21q106 0 171.5 70.5t64.5 185.5q2 125 -64.5 196.5t-189.5 71.5q-180 0 -266 -168z" />
<glyph unicode="7" d="M119 1249v230h1014v-154l-609 -1325h-293l598 1249h-710z" />
<glyph unicode="8" d="M76 381q0 147 77 245t220 160q-120 64 -181 143t-61 201q0 169 134 269t360 100t359.5 -100t133.5 -269q0 -122 -61 -201t-180 -143q143 -62 220 -160t77 -245q0 -179 -155.5 -290t-393.5 -111t-393.5 111t-155.5 290zM342 399q0 -99 73 -157t210 -58q136 0 209 58 t73 157q0 47 -37.5 98t-88.5 87t-100 60t-75 24t-69.5 -21.5t-87 -56t-75.5 -86.5t-32 -105zM397 1126q0 -63 42 -117t93.5 -81t92.5 -27q62 0 144.5 75t82.5 150q0 168 -229 168q-117 0 -171.5 -45t-54.5 -123z" />
<glyph unicode="9" d="M74 1012q1 151 70 262.5t186 168t266 56.5q117 0 213.5 -42t167.5 -124t110 -211t39 -295q0 -391 -168 -619t-466 -228q-189 0 -367 110l117 213q117 -102 250 -102q99 0 183 60t133.5 163.5t51.5 226.5q-72 -63 -151 -91t-181 -28q-196 0 -324.5 134.5t-129.5 345.5z M340 1022q-2 -125 64.5 -196.5t189.5 -71.5q180 0 266 168q0 90 -24 160.5t-65 112t-91 62.5t-105 21q-106 0 -171 -70.5t-64 -185.5z" />
<glyph unicode=":" horiz-adv-x="624" d="M170 0v291h283v-291h-283zM170 614v291h283v-291h-283z" />
<glyph unicode=";" horiz-adv-x="624" d="M170 0v291h283v-291l-131 -307h-134l105 307h-123zM170 614v291h283v-291h-283z" />
<glyph unicode="&#x3c;" horiz-adv-x="1228" d="M82 438v189l1065 454v-227l-762 -322l762 -321v-227z" />
<glyph unicode="=" horiz-adv-x="1228" d="M82 197v221h1065v-221h-1065zM82 647v221h1065v-221h-1065z" />
<glyph unicode="&#x3e;" horiz-adv-x="1228" d="M82 -16v227l762 321l-762 322v227l1065 -454v-189z" />
<glyph unicode="?" horiz-adv-x="909" d="M20 1180q38 152 148 235.5t274 83.5q158 0 264.5 -87t106.5 -241q0 -91 -38 -160.5t-109 -152.5q-42 -50 -56.5 -68.5t-42.5 -60.5t-38.5 -78.5t-10.5 -77.5v-75h-225v112q0 79 34.5 151.5t96.5 158.5q48 67 67 95t41.5 78.5t22.5 90.5q0 45 -38.5 77.5t-90.5 32.5 q-68 0 -114 -54.5t-56 -125.5zM268 0v291h283v-291h-283z" />
<glyph unicode="@" horiz-adv-x="1638" d="M92 737q0 212 102.5 387.5t276.5 275t381 99.5q132 0 256.5 -44.5t221.5 -122.5t155.5 -196t58.5 -255q0 -93 -21.5 -174.5t-57 -139.5t-82 -106t-94.5 -78.5t-97 -51.5t-87.5 -29.5t-66.5 -8.5q-45 0 -76 27t-32 77l-4 2q-39 -45 -93 -75.5t-106 -30.5 q-129 0 -226.5 107t-97.5 251q0 124 50 234t145.5 180t216.5 70q158 0 240 -127l22 102h180l-100 -500q-12 -60 -12 -73q0 -45 29 -45q77 0 138.5 89t61.5 242q0 239 -146.5 371.5t-381.5 132.5q-247 0 -398 -166.5t-151 -423.5q0 -176 74.5 -309.5t206.5 -204.5t301 -71 q112 0 214 38t179 105h184q-104 -153 -257 -234t-337 -81q-156 0 -298 57.5t-245.5 156.5t-165 240.5t-61.5 302.5zM627 682q0 -75 41.5 -123.5t111.5 -48.5q93 0 155 75t62 171q0 74 -43.5 121t-113.5 47q-91 0 -152 -70.5t-61 -171.5z" />
<glyph unicode="A" d="M27 0l426 1481h352l420 -1481h-281l-82 319h-467l-88 -319h-280zM457 553h344l-166 643h-4z" />
<glyph unicode="B" horiz-adv-x="1366" d="M160 0v1479h549q232 0 360.5 -86t140.5 -277q0 -248 -225 -336q147 -59 202.5 -141.5t55.5 -249.5q0 -180 -133 -284.5t-405 -104.5h-545zM442 229h283q121 0 178.5 54t57.5 161t-57.5 161t-178.5 54h-283v-430zM442 889h283q98 0 150.5 50t52.5 130t-52.5 130t-150.5 50 h-283v-360z" />
<glyph unicode="C" d="M61 739q0 362 155.5 561t438.5 199q211 0 337 -96t179 -293l-256 -61q-32 98 -100 155.5t-168 57.5q-143 0 -223 -133.5t-80 -389.5v-19q0 -503 311 -503q99 0 163.5 46.5t125.5 172.5l262 -69q-66 -191 -206.5 -289t-344.5 -98q-283 0 -438.5 198.5t-155.5 560.5z" />
<glyph unicode="D" horiz-adv-x="1366" d="M160 0v1479h489q150 0 269 -43t208.5 -130.5t137.5 -231t49 -335.5q-1 -192 -49 -335t-137.5 -230.5t-208.5 -130.5t-269 -43h-489zM442 238h189q94 0 165.5 27.5t115 72.5t71 111.5t37.5 135.5t10 154t-10 154.5t-37.5 136t-71 111.5t-115 72.5t-165.5 27.5h-189v-1003z " />
<glyph unicode="E" d="M172 0v1479h979v-238h-696v-352h506v-238h-506v-413h719v-238h-1002z" />
<glyph unicode="F" horiz-adv-x="1138" d="M160 0v1479h942v-238h-660v-352h494v-238h-494v-651h-282z" />
<glyph unicode="G" horiz-adv-x="1366" d="M61 717q0 98 13 189t41.5 181t77 163t115 129.5t161 88t209.5 31.5q211 0 345.5 -102t190.5 -275l-262 -69q-52 112 -120 160.5t-177 48.5q-153 0 -232 -142.5t-79 -394.5q0 -235 83 -371.5t230 -136.5q136 0 220.5 82t89.5 211h-281v238h553v-748h-205v152 q-87 -96 -175.5 -134t-209.5 -38q-147 0 -260.5 56t-184.5 156t-107 233t-36 292z" />
<glyph unicode="H" horiz-adv-x="1478" d="M172 0v1479h283v-590h569v590h283v-1479h-283v635h-569v-635h-283z" />
<glyph unicode="I" horiz-adv-x="681" d="M199 0v1479h282v-1479h-282z" />
<glyph unicode="J" horiz-adv-x="909" d="M-10 178l194 146q36 -60 71 -83.5t83 -23.5q117 0 117 176v1086h282v-1080q0 -207 -101 -313t-298 -106q-218 0 -348 198z" />
<glyph unicode="K" horiz-adv-x="1366" d="M160 0v1479h282v-662h-4l498 662h326l-420 -555l487 -924h-313l-367 702l-207 -258v-444h-282z" />
<glyph unicode="L" horiz-adv-x="1138" d="M160 0v1479h282v-1241h643v-238h-925z" />
<glyph unicode="M" horiz-adv-x="1705" d="M166 0v1479h397l285 -1033h4l287 1033h401v-1479h-246v1163h-4l-332 -1163h-215l-327 1163h-4v-1163h-246z" />
<glyph unicode="N" horiz-adv-x="1478" d="M166 0v1479h295l581 -1008h5v1008h266v-1479h-273l-604 1053h-4v-1053h-266z" />
<glyph unicode="O" horiz-adv-x="1366" d="M61 739q0 364 160 562t461 198t461 -198t160 -562t-160 -561.5t-461 -197.5t-461 197.5t-160 561.5zM344 739v-18q0 -504 338 -504q172 0 255 130t83 392t-83 392.5t-255 130.5t-255 -130.5t-83 -392.5z" />
<glyph unicode="P" d="M139 0v1479h541q248 0 385 -108.5t137 -332.5q0 -223 -137 -331.5t-385 -108.5h-258v-598h-283zM422 827h225q152 0 212.5 53t60.5 158t-60.5 158t-212.5 53h-225v-422z" />
<glyph unicode="Q" horiz-adv-x="1366" d="M61 739q0 364 160 562t461 198t461 -198t160 -562q0 -343 -148 -544q81 -65 186 -68v-238q-72 0 -115 5.5t-83 28t-67.5 47.5t-80.5 83q-128 -73 -313 -73q-301 0 -461 197.5t-160 561.5zM344 739v-18q0 -504 338 -504q106 0 176 49q-36 53 -77.5 85.5t-98.5 43.5v252 q104 -10 174 -56t129 -132q35 104 35 280q0 262 -83 392.5t-255 130.5t-255 -130.5t-83 -392.5z" />
<glyph unicode="R" horiz-adv-x="1366" d="M160 0v1479h590q122 0 214.5 -34t148 -94.5t82.5 -138.5t28 -172v-8q-1 -135 -69 -234q-70 -102 -202 -139l326 -659h-313l-279 602h-244v-602h-282zM442 831h209q160 0 224.5 50.5t64.5 158.5q0 104 -61 156.5t-179 52.5h-258v-418z" />
<glyph unicode="S" d="M74 330l233 102q36 -74 77 -122.5t103 -78.5t142 -30q114 0 182 47t68 149q0 46 -26 85t-70 67t-101.5 54t-120.5 51t-126 52.5t-120.5 63t-101.5 78.5t-70 103.5t-26 133.5q0 128 66.5 223.5t173.5 143t237 47.5q180 0 318.5 -87t203.5 -247l-258 -80q-34 90 -101 141.5 t-163 51.5q-97 0 -154 -40.5t-57 -123.5q0 -40 26 -74t70 -59.5t101.5 -49t120.5 -48t126 -52t120.5 -65t101.5 -82.5t70 -109t26 -141q0 -224 -134.5 -339t-383.5 -115q-184 0 -337.5 95.5t-215.5 254.5z" />
<glyph unicode="T" horiz-adv-x="1138" d="M41 1243v238h1057v-238h-387v-1243h-283v1243h-387z" />
<glyph unicode="U" horiz-adv-x="1478" d="M172 553v926h283v-938q0 -176 68.5 -250t215.5 -74t216 74.5t69 249.5v938h283v-926q0 -126 -30.5 -225t-82.5 -163.5t-125.5 -107t-154.5 -60t-175 -17.5q-119 0 -216.5 29.5t-178.5 94t-126.5 179t-45.5 270.5z" />
<glyph unicode="V" horiz-adv-x="1138" d="M20 1479h279l262 -1090h4l275 1090h278l-391 -1479h-315z" />
<glyph unicode="W" horiz-adv-x="1705" d="M41 1479h264l187 -998h4l211 998h290l195 -998h4l203 998h264l-307 -1479h-287l-215 1053h-4l-213 -1053h-287z" />
<glyph unicode="X" horiz-adv-x="1138" d="M16 0l400 758l-375 721h307l221 -457l222 457h307l-375 -721l399 -758h-307l-246 502l-245 -502h-308z" />
<glyph unicode="Y" horiz-adv-x="1138" d="M20 1479h295l254 -586l254 586h295l-407 -889v-590h-283v590z" />
<glyph unicode="Z" horiz-adv-x="1138" d="M33 0v240l690 1001h-643v238h999v-226l-714 -1015h720v-238h-1052z" />
<glyph unicode="[" horiz-adv-x="681" d="M106 -152v1631h478v-123h-256v-1385h260v-123h-482z" />
<glyph unicode="\" horiz-adv-x="569" d="M-57 1499h223l461 -1519h-224z" />
<glyph unicode="]" horiz-adv-x="681" d="M94 -29h260v1385h-256v123h477v-1631h-481v123z" />
<glyph unicode="^" horiz-adv-x="1228" d="M143 711l369 768h205l368 -768h-225l-246 538l-247 -538h-224z" />
<glyph unicode="_" horiz-adv-x="1024" d="M0 -154h1024v-102h-1024v102z" />
<glyph unicode="`" horiz-adv-x="569" d="M-57 1499h315l193 -299h-209z" />
<glyph unicode="a" horiz-adv-x="1024" d="M37 262q0 180 148.5 280.5t461.5 137.5v90q0 60 -43 93.5t-112 33.5q-81 0 -135.5 -35t-98.5 -96l-164 125q49 85 165 141q110 53 221 53h12q147 -3 234.5 -43.5t131 -134t43.5 -252.5v-501q0 -92 21 -154h-248l-17 92q-82 -56 -159 -84t-172 -28q-137 0 -213 82.5 t-76 199.5zM291 293q0 -59 34 -92t89 -33q54 0 118 35t115 78v229q-52 -10 -74.5 -14.5t-69 -16.5t-69 -21.5t-55.5 -26.5t-48.5 -35.5t-27.5 -45t-12 -57.5z" />
<glyph unicode="b" horiz-adv-x="1138" d="M131 0v1479h254v-512h4q37 50 114 84t144 34q99 0 181.5 -45t135 -119t81 -167t28.5 -193q0 -169 -46.5 -298t-144 -206t-235.5 -77q-83 0 -150.5 33t-138.5 102l-28 -115h-199zM385 279q8 -6 36 -30.5t43 -34t47.5 -20t70.5 -10.5q114 0 175.5 90t61.5 258 q0 169 -61.5 259t-175.5 90q-99 0 -197 -90v-512z" />
<glyph unicode="c" horiz-adv-x="1024" d="M49 532q0 255 123.5 404t339.5 149q151 0 263.5 -75.5t156.5 -208.5l-211 -82q-37 81 -81 121.5t-128 40.5q-106 0 -157.5 -85.5t-51.5 -263.5q0 -179 52.5 -263.5t164.5 -84.5q77 0 129 44.5t96 125.5l193 -108q-76 -142 -178 -205q-98 -61 -239 -61h-9 q-216 0 -339.5 148.5t-123.5 403.5z" />
<glyph unicode="d" horiz-adv-x="1138" d="M66 561q0 100 28.5 193t81 167t135 119t181.5 45q67 0 144 -34t114 -84h4v512h254v-1479h-215l-13 115q-71 -69 -138 -102t-150 -33q-138 0 -235.5 77t-144 206t-46.5 298zM319 532q0 -168 62 -258t176 -90q38 0 70.5 10.5t47.5 20t43 34t36 30.5v512q-98 90 -197 90 q-114 0 -176 -90.5t-62 -258.5z" />
<glyph unicode="e" horiz-adv-x="1024" d="M49 532q0 255 123.5 404t339.5 149h5q98 1 180 -39q84 -40 137.5 -108.5t82.5 -156.5t29 -185v-104h-643q3 -157 64 -232.5t157 -75.5q57 0 101.5 18t72 42t64.5 67l184 -114q-73 -113 -181.5 -165t-264.5 -52q-207 0 -329 149.5t-122 402.5zM303 664h410 q-3 110 -57.5 171.5t-147.5 61.5t-147.5 -61.5t-57.5 -171.5z" />
<glyph unicode="f" horiz-adv-x="681" d="M25 860v205h145v131q0 168 70.5 235.5t230.5 67.5h168v-205h-70q-79 0 -111 -26t-32 -88v-115h215v-205h-215v-860h-254v860h-147z" />
<glyph unicode="g" horiz-adv-x="1024" d="M25 -135q0 93 58 144.5t134 51.5v5q-10 6 -34.5 18t-43 23.5t-38.5 29t-31 43t-11 58.5q0 36 19 71t46.5 59.5t54 41t46.5 22.5q-75 62 -116 128t-41 155q0 71 27.5 136.5t78 118t132 84t181.5 31.5q68 0 141 -26t122 -68q70 94 230 94h19v-172q-43 0 -62.5 -0.5t-51 -6 t-49.5 -17.5q57 -78 57 -189q0 -156 -103.5 -250t-297.5 -94q-101 0 -150 -12t-49 -53q0 -34 38.5 -51.5t100.5 -22t136.5 -7.5t149 -16t136.5 -39t100.5 -84t38.5 -145q0 -59 -30 -113.5t-88 -100.5t-155.5 -73.5t-219.5 -27.5q-220 0 -347.5 65.5t-127.5 188.5zM258 -102 q0 -63 63.5 -91t219.5 -28q109 0 164 40.5t55 78.5q0 20 -16.5 40t-51.5 39t-101 31t-153 12q-93 0 -136.5 -39t-43.5 -83zM301 721q0 -75 51.5 -125.5t132.5 -50.5q72 0 123 51.5t51 124.5t-51 124.5t-123 51.5q-81 0 -132.5 -50.5t-51.5 -125.5z" />
<glyph unicode="h" horiz-adv-x="1138" d="M131 0v1479h254v-529q160 135 307 135q156 0 236 -94.5t80 -261.5v-729h-254v692q0 104 -32 146.5t-99 42.5q-75 0 -136.5 -34t-101.5 -79v-768h-254z" />
<glyph unicode="i" horiz-adv-x="569" d="M158 0v1065h254v-1065h-254zM158 1262v237h254v-237h-254z" />
<glyph unicode="j" horiz-adv-x="569" d="M6 -166q81 -6 84 -6q47 0 70.5 29t23.5 102v1106h254v-1147q0 -162 -71 -234.5t-228 -72.5q-71 0 -133 16v207zM184 1262v237h254v-237h-254z" />
<glyph unicode="k" horiz-adv-x="1024" d="M131 0v1479h254v-826h8l314 412h290l-313 -397l336 -668h-270l-236 477l-129 -149v-328h-254z" />
<glyph unicode="l" horiz-adv-x="569" d="M158 0v1479h254v-1479h-254z" />
<glyph unicode="m" horiz-adv-x="1705" d="M131 0v1065h231v-115q78 71 147.5 103t172.5 32q86 0 157 -40.5t105 -114.5q75 75 160 115t207 40q36 0 70 -8.5t70 -31t62 -57t43 -92t17 -130.5v-766h-254v743q0 66 -30 100.5t-97 37.5q-46 0 -104 -34t-109 -81v-766h-254v743q0 66 -30 100.5t-97 37.5q-46 0 -104 -34 t-109 -81v-766h-254z" />
<glyph unicode="n" horiz-adv-x="1138" d="M131 0v1065h234v-115q90 63 166.5 99t160.5 36q156 0 236 -94.5t80 -261.5v-729h-254v692q0 104 -32 146.5t-99 42.5q-75 0 -136.5 -34t-101.5 -79v-768h-254z" />
<glyph unicode="o" horiz-adv-x="1024" d="M49 532q0 255 123.5 404t339.5 149t339.5 -149t123.5 -404t-123.5 -403.5t-339.5 -148.5t-339.5 148.5t-123.5 403.5zM303 532q0 -178 51.5 -263t157.5 -85t157.5 85t51.5 263t-51.5 263.5t-157.5 85.5t-157.5 -85.5t-51.5 -263.5z" />
<glyph unicode="p" horiz-adv-x="1138" d="M131 -389v1454h244v-98q121 118 272 118q138 0 235.5 -77t144 -206t46.5 -298q0 -100 -28.5 -193t-81 -167t-135 -119t-181.5 -45q-67 0 -144 34t-114 84h-4v-487h-254zM385 274q98 -90 197 -90q114 0 175.5 90t61.5 258q0 169 -61.5 259t-175.5 90q-38 0 -70.5 -10.5 t-47.5 -20t-43 -34t-36 -30.5v-512z" />
<glyph unicode="q" horiz-adv-x="1138" d="M66 504q0 169 46.5 298t144 206t235.5 77q83 0 150 -33t138 -102l29 115h199v-1454h-254v487h-4q-37 -50 -114 -84t-144 -34q-99 0 -181.5 45t-135 119t-81 167t-28.5 193zM319 532q0 -168 62 -258t176 -90q99 0 197 90v512q-8 6 -36 30.5t-43 34t-47.5 20t-70.5 10.5 q-114 0 -176 -90.5t-62 -258.5z" />
<glyph unicode="r" horiz-adv-x="681" d="M115 0v1065h233v-182h4q48 99 118.5 149t180.5 53v-268q-12 2 -45 2q-44 0 -90 -23t-77 -53t-50.5 -57.5t-19.5 -38.5v-647h-254z" />
<glyph unicode="s" horiz-adv-x="909" d="M45 195l170 127q111 -154 248 -154q67 0 109 33.5t42 87.5q0 37 -29.5 64.5t-76.5 47t-103.5 39t-113 46.5t-103.5 62.5t-76.5 94t-29.5 133.5q0 96 50 167.5t129 106.5t173 35q110 0 209 -41t166 -120l-160 -140q-105 113 -198 113q-72 0 -108 -27.5t-36 -76.5 q0 -36 29.5 -63.5t76.5 -46.5t103.5 -38t113.5 -46t104 -63t76.5 -97t29.5 -140q0 -159 -107.5 -239t-283.5 -80q-127 0 -230 55t-174 160z" />
<glyph unicode="t" horiz-adv-x="681" d="M25 860v205h147v352h254v-352h209v-205h-209v-602q0 -42 21.5 -58t70.5 -16q18 0 36 3t47 10t34 8v-209q-140 -16 -201 -16q-262 0 -262 245v635h-147z" />
<glyph unicode="u" horiz-adv-x="1138" d="M131 336v729h254v-692q0 -104 32 -146.5t99 -42.5q75 0 136.5 34t101.5 79v768h254v-1065h-234v115q-90 -63 -167 -99t-161 -36q-156 0 -235.5 94.5t-79.5 261.5z" />
<glyph unicode="v" horiz-adv-x="909" d="M20 1065h254l177 -721h4l180 721h254l-305 -1065h-267z" />
<glyph unicode="w" horiz-adv-x="1366" d="M20 1065h242l146 -664h4l153 664h236l147 -664h4l152 664h242l-275 -1065h-229l-158 664h-4l-156 -664h-229z" />
<glyph unicode="x" horiz-adv-x="909" d="M8 0l314 553l-302 512h281l150 -295l151 295h275l-299 -512l323 -553h-270l-178 332l-172 -332h-273z" />
<glyph unicode="y" horiz-adv-x="909" d="M18 1065h256l177 -655h4l182 655h254l-336 -1067q-58 -156 -112.5 -237.5t-123.5 -115.5t-176 -34q-61 0 -123 8v209q39 -8 107 -8q66 0 105.5 20t62.5 64q16 34 22.5 47.5t12.5 35.5t6 42q0 17 -5 38t-14.5 48.5t-13.5 40.5z" />
<glyph unicode="z" horiz-adv-x="909" d="M37 0v180l514 680h-471v205h788v-180l-512 -680h516v-205h-835z" />
<glyph unicode="{" horiz-adv-x="681" d="M16 602v123q63 0 103.5 36.5t40.5 96.5v397q0 121 71.5 182.5t190.5 61.5h145v-123h-100q-41 0 -63.5 -30t-22.5 -72v-389q0 -100 -36 -149t-120 -70v-4q84 -20 120 -70t36 -150v-389q0 -42 22.5 -72t63.5 -30h100v-123h-145q-119 0 -190.5 61.5t-71.5 182.5v397 q0 60 -40.5 96.5t-103.5 36.5z" />
<glyph unicode="|" horiz-adv-x="454" d="M117 -20v1519h221v-1519h-221z" />
<glyph unicode="}" horiz-adv-x="681" d="M115 -49h100q41 0 63.5 30t22.5 72v389q0 100 36 150t120 70v4q-84 21 -120 70t-36 149v389q0 42 -22.5 72t-63.5 30h-100v123h145q119 0 190.5 -61.5t71.5 -182.5v-397q0 -60 40.5 -96.5t103.5 -36.5v-123q-63 0 -103.5 -36.5t-40.5 -96.5v-397q0 -121 -71.5 -182.5 t-190.5 -61.5h-145v123z" />
<glyph unicode="~" horiz-adv-x="1228" d="M143 532q89 177 254 177q65 0 152 -35t165 -70t120 -35q29 0 55 11.5t49.5 36.5t38 45t37.5 55l71 -185q-22 -32 -37.5 -52t-41.5 -47t-51 -42t-60.5 -26t-75.5 -11q-33 0 -68 10t-55.5 19.5t-61.5 32t-56 30.5q-98 50 -185 50q-65 0 -106 -40.5t-72 -107.5z" />
<glyph unicode="&#xa1;" horiz-adv-x="681" d="M190 -369l54 979h196l54 -979h-304zM201 819v291h282v-291h-282z" />
<glyph unicode="&#xa2;" d="M168 532q0 255 123.5 404t339.5 149q69 0 135 -16l78 217h119l-95 -262q132 -72 183 -223l-211 -82q-17 40 -49 88l-220 -612q27 -11 68 -11q77 0 129 44.5t96 125.5l193 -108q-76 -142 -177.5 -205t-248.5 -61q-65 0 -131 16l-92 -252h-119l106 297q-109 63 -168 190.5 t-59 300.5zM401 532q0 -186 72 -274l221 614q-27 9 -63 9q-109 0 -169.5 -87.5t-60.5 -261.5z" />
<glyph unicode="&#xa3;" d="M94 643v193h166q-27 150 -27 256q0 198 115 302.5t336 104.5q202 0 319 -117.5t117 -318.5h-246q-11 106 -56.5 160.5t-147.5 54.5q-62 0 -101.5 -31.5t-54 -77t-14.5 -104.5q0 -93 35 -229h266v-193h-238q0 -84 -14 -184.5t-43 -155.5q70 -42 125.5 -64t118.5 -22 q40 0 69 14t44 30.5t25.5 52.5t13 56.5t6.5 65.5q1 7 1 10h246q0 -131 -36.5 -234t-116 -167.5t-191.5 -64.5q-138 0 -223 28t-195 98q-50 -59 -125 -94t-162 -32v253q55 4 94.5 32.5t59.5 73t28.5 90t8.5 95.5q0 67 -8 119h-195z" />
<glyph unicode="&#xa4;" d="M92 336l107 106q-95 138 -95 297t95 297l-107 107l127 131l113 -105q136 91 293 91t293 -91l112 105l127 -131l-106 -107q94 -137 94 -297t-94 -297l106 -106l-127 -131l-112 104q-134 -90 -293 -90t-293 90l-113 -104zM338 739q0 -131 81.5 -217t205.5 -86t205 86 t81 217t-81 217t-205 86t-205.5 -86t-81.5 -217z" />
<glyph unicode="&#xa5;" d="M57 1479h254l314 -635l315 635h254l-276 -541h192v-193h-289l-71 -139h360v-192h-369v-414h-233v414h-369v192h361l-70 139h-291v193h195z" />
<glyph unicode="&#xa6;" horiz-adv-x="454" d="M117 -20v577h221v-577h-221zM117 922v577h221v-577h-221z" />
<glyph unicode="&#xa7;" horiz-adv-x="1024" d="M102 795q0 99 63 165t161 72q-51 61 -74 112t-23 118q0 109 76.5 173t198.5 64q109 0 177.5 -34.5t147.5 -129.5l-139 -112q-27 32 -47.5 52t-53.5 38t-67 18q-42 0 -71 -25t-29 -61q0 -33 27.5 -74.5t71.5 -84.5t97.5 -91t107 -100t97.5 -104.5t71.5 -112t27.5 -115.5 q0 -79 -53.5 -146t-168.5 -87q105 -114 105 -240q0 -122 -85 -192t-210 -70q-179 0 -328 174l140 109q76 -115 170 -115q120 0 120 102q0 38 -28 84t-73 92.5t-99.5 96.5t-109 102.5t-99.5 104.5t-73 108.5t-28 108.5zM295 815q0 -26 31.5 -69.5t105.5 -120.5 q150 -156 207 -156q40 0 65 22.5t25 59.5q0 18 -7.5 36t-33 49t-40.5 47.5t-64 68.5q-79 85 -122.5 115t-78.5 30t-61.5 -24t-26.5 -58z" />
<glyph unicode="&#xa8;" horiz-adv-x="569" d="M-33 1221v237h246v-237h-246zM356 1221v237h246v-237h-246z" />
<glyph unicode="&#xa9;" horiz-adv-x="1638" d="M37 739q0 140 42 262t115.5 212t172 155t214 98t238.5 33t238.5 -33t214 -98t172.5 -155t116 -212t42 -262q0 -174 -64.5 -319t-173.5 -240t-249.5 -147.5t-295.5 -52.5t-295.5 52.5t-249 147.5t-173 240t-64.5 319zM238 739q0 -133 45.5 -248t123.5 -194.5t185 -124.5 t227 -45q118 0 224.5 45t185.5 124.5t125.5 194.5t46.5 248t-46.5 248t-125.5 194.5t-185.5 125t-224.5 45.5q-161 0 -293.5 -77t-210 -218t-77.5 -318zM422 745q0 194 115.5 318.5t308.5 124.5q141 0 239.5 -80.5t122.5 -230.5h-176q-13 67 -64 99t-122 32q-99 0 -153 -69 t-54 -189q0 -116 58.5 -191.5t152.5 -75.5q78 0 126.5 35.5t55.5 106.5h185q-24 -152 -127 -237t-240 -85q-191 0 -309.5 126t-118.5 316z" />
<glyph unicode="&#xaa;" horiz-adv-x="614" d="M12 1006q0 107 94.5 167t290.5 82v48q0 65 -90 65q-97 0 -151 -61l-107 75q32 51 107.5 85t150.5 32q143 -3 204.5 -59.5t61.5 -198.5v-301q0 -56 15 -92h-172l-10 57q-91 -69 -207 -69q-89 0 -138 49.5t-49 120.5zM188 1024q0 -57 68 -57q40 0 82 14.5t59 34.5v137 q-39 -7 -61 -12t-54.5 -15.5t-50 -22.5t-30.5 -32.5t-13 -46.5z" />
<glyph unicode="&#xab;" horiz-adv-x="1138" d="M123 526l246 334h229l-252 -334l252 -321h-229zM541 526l245 334h230l-252 -334l252 -321h-230z" />
<glyph unicode="&#xac;" horiz-adv-x="1228" d="M82 647v221h1065v-671h-221v450h-844z" />
<glyph unicode="&#xad;" horiz-adv-x="681" d="M90 422v221h502v-221h-502z" />
<glyph unicode="&#xae;" horiz-adv-x="1638" d="M37 739q0 140 42 262t115.5 212t172 155t214 98t238.5 33t238.5 -33t214 -98t172.5 -155t116 -212t42 -262q0 -174 -64.5 -319t-173.5 -240t-249.5 -147.5t-295.5 -52.5t-295.5 52.5t-249 147.5t-173 240t-64.5 319zM238 739q0 -133 45.5 -248t123.5 -194.5t185 -124.5 t227 -45q118 0 224.5 45t185.5 124.5t125.5 194.5t46.5 248t-46.5 248t-125.5 194.5t-185.5 125t-224.5 45.5q-161 0 -293.5 -77t-210 -218t-77.5 -318zM510 324v833h313q171 0 255.5 -57.5t84.5 -194.5q0 -111 -59 -163t-170 -58l217 -360h-182l-195 350h-84v-350h-180z M690 813h158q70 0 102.5 30t32.5 81q0 54 -36 74t-107 20h-150v-205z" />
<glyph unicode="&#xaf;" horiz-adv-x="569" d="M-70 1266v151h709v-151h-709z" />
<glyph unicode="&#xb0;" horiz-adv-x="819" d="M117 1206q0 123 85 208t208 85t207.5 -85t84.5 -208t-84.5 -208t-207.5 -85t-208 85t-85 208zM248 1206q0 -68 47.5 -119t114.5 -51t114 51t47 119t-47 119t-114 51t-114.5 -51t-47.5 -119z" />
<glyph unicode="&#xb1;" horiz-adv-x="1228" d="M82 0v221h1065v-221h-1065zM82 573v222h422v270h221v-270h422v-222h-422v-272h-221v272h-422z" />
<glyph unicode="&#xb2;" horiz-adv-x="749" d="M41 598v147q8 38 59 88.5t118 100.5t133 100.5t111.5 103t45.5 93.5q0 59 -34.5 90t-100.5 31q-134 0 -174 -138l-154 31q15 110 108 182t222 72q134 0 223.5 -68t89.5 -188q0 -62 -22.5 -114t-70.5 -100.5t-94.5 -85t-124 -95t-130.5 -103.5h442v-147h-647z" />
<glyph unicode="&#xb3;" horiz-adv-x="749" d="M25 772l139 72q72 -111 203 -111q66 0 111.5 35.5t45.5 97.5q0 32 -12 56.5t-35.5 38.5t-48 23.5t-61 13.5t-61 5t-60.5 1v135q56 0 97 4.5t76.5 16t54 34.5t18.5 57q0 43 -35.5 71.5t-94.5 29.5q-98 -2 -184 -88l-115 98q69 75 140.5 106t165.5 31q137 0 220 -59 t83 -168q0 -136 -144 -191v-4q86 -23 131.5 -81t45.5 -142q0 -88 -50.5 -150.5t-125.5 -90t-164 -27.5q-106 0 -198.5 48t-141.5 138z" />
<glyph unicode="&#xb4;" horiz-adv-x="569" d="M119 1200l192 299h316l-299 -299h-209z" />
<glyph unicode="&#xb5;" horiz-adv-x="1138" d="M131 -389v1454h254v-692q0 -104 32 -146.5t99 -42.5q75 0 136.5 34t101.5 79v768h254v-1065h-234v115q-90 -63 -167 -99t-161 -36q-25 0 -61 4v-373h-254z" />
<glyph unicode="&#xb6;" horiz-adv-x="1269" d="M45 1110q0 84 24.5 149.5t64.5 106.5t97 67t116.5 36t127.5 10h725v-172h-149v-1446h-209v1446h-183v-1446h-208v895q-183 0 -294.5 95.5t-111.5 258.5z" />
<glyph unicode="&#xb7;" horiz-adv-x="624" d="M156 532q0 63 44 109.5t107 46.5q65 0 112.5 -46t47.5 -110q0 -66 -47 -110.5t-113 -44.5q-64 0 -107.5 45t-43.5 110z" />
<glyph unicode="&#xb8;" horiz-adv-x="569" d="M43 -416l37 86q93 -32 160 -32q55 0 80.5 18t25.5 68q0 63 -88 63q-26 0 -86 -12l-41 41l121 184h108l-88 -129q42 10 74 10q76 0 128 -39t52 -116q0 -49 -24 -88t-62.5 -61.5t-83 -34t-90.5 -11.5q-91 0 -223 53z" />
<glyph unicode="&#xb9;" horiz-adv-x="749" d="M133 1323v115q146 7 209 61h137v-766h144v-135h-469v135h137v590h-158z" />
<glyph unicode="&#xba;" horiz-adv-x="614" d="M6 1167q0 153 80.5 242.5t220.5 89.5q139 0 219 -89.5t80 -242.5t-80 -242t-219 -89q-140 0 -220.5 89t-80.5 242zM182 1167q0 -200 125 -200q123 0 123 200q0 201 -123 201q-125 0 -125 -201z" />
<glyph unicode="&#xbb;" horiz-adv-x="1138" d="M123 205l252 334l-252 321h229l246 -321l-246 -334h-229zM541 205l252 334l-252 321h229l246 -321l-246 -334h-229z" />
<glyph unicode="&#xbc;" horiz-adv-x="1875" d="M154 1323v115q145 7 208 61h138v-766h143v-135h-469v135h137v590h-157zM432 -20l846 1519h180l-844 -1519h-182zM1085 205v172l394 512h211v-549h129v-135h-129v-205h-189v205h-416zM1241 340h260v360h-4z" />
<glyph unicode="&#xbd;" horiz-adv-x="1875" d="M154 1323v115q145 7 208 61h138v-766h143v-135h-469v135h137v590h-157zM399 -20l846 1519h180l-843 -1519h-183zM1090 0v147q8 38 59 88.5t118 100.5t133 100.5t111 103t45 93.5q0 59 -34.5 90t-100.5 31q-134 0 -174 -138l-153 31q15 110 107.5 182t221.5 72 q134 0 224 -68t90 -188q0 -62 -22.5 -114t-70.5 -100.5t-95 -85t-124.5 -95t-130.5 -103.5h443v-147h-647z" />
<glyph unicode="&#xbe;" horiz-adv-x="1875" d="M57 772l140 72q72 -111 202 -111q66 0 112 35.5t46 97.5q0 32 -12 56.5t-35.5 38.5t-48 23.5t-61 13.5t-61 5t-60.5 1v135q56 0 97 4.5t76.5 16t53.5 34.5t18 57q0 43 -35 71.5t-94 29.5q-98 -2 -184 -88l-115 98q69 75 140 106t165 31q137 0 220.5 -59t83.5 -168 q0 -136 -144 -191v-4q86 -23 131 -81t45 -142q0 -88 -50.5 -150.5t-125.5 -90t-164 -27.5q-106 0 -198.5 48t-141.5 138zM461 -20l846 1519h180l-844 -1519h-182zM1085 205v172l394 512h211v-549h129v-135h-129v-205h-189v205h-416zM1241 340h260v360h-4z" />
<glyph unicode="&#xbf;" horiz-adv-x="909" d="M96 -61q0 91 38 160.5t110 152.5q41 49 56.5 68.5t42.5 61t37.5 78t10.5 77.5v75h225v-112q0 -79 -34.5 -151.5t-96.5 -158.5q-48 -67 -67 -95t-41.5 -78.5t-22.5 -90.5q0 -45 38.5 -77.5t90.5 -32.5q68 0 114 54.5t56 125.5l236 -66q-38 -152 -148 -235.5t-274 -83.5 q-158 0 -264.5 87t-106.5 241zM358 819v291h283v-291h-283z" />
<glyph unicode="&#xc0;" d="M27 0l426 1481h352l420 -1481h-281l-82 319h-467l-88 -319h-280zM285 1860h315l193 -299h-209zM457 553h344l-166 643h-4z" />
<glyph unicode="&#xc1;" d="M27 0l426 1481h352l420 -1481h-281l-82 319h-467l-88 -319h-280zM457 553h344l-166 643h-4zM461 1561l192 299h316l-299 -299h-209z" />
<glyph unicode="&#xc2;" d="M27 0l426 1481h352l420 -1481h-281l-82 319h-467l-88 -319h-280zM266 1561l232 299h254l235 -299h-231l-129 168l-131 -168h-230zM457 553h344l-166 643h-4z" />
<glyph unicode="&#xc3;" d="M27 0l426 1481h352l420 -1481h-281l-82 319h-467l-88 -319h-280zM252 1577q15 105 74.5 177.5t158.5 72.5q61 0 160.5 -38t126.5 -38q35 0 61.5 25.5t34.5 62.5h133q-11 -53 -27 -93.5t-42 -78t-66 -58t-92 -20.5q-54 0 -158 36t-143 36q-38 0 -59 -22t-35 -62h-127z M457 553h344l-166 643h-4z" />
<glyph unicode="&#xc4;" d="M27 0l426 1481h352l420 -1481h-281l-82 319h-467l-88 -319h-280zM309 1581v238h246v-238h-246zM457 553h344l-166 643h-4zM698 1581v238h246v-238h-246z" />
<glyph unicode="&#xc5;" d="M27 0l426 1481h352l420 -1481h-281l-82 319h-467l-88 -319h-280zM406 1780q0 92 64.5 156.5t156.5 64.5t156.5 -64.5t64.5 -156.5t-64.5 -156.5t-156.5 -64.5t-156.5 64.5t-64.5 156.5zM457 553h344l-166 643h-4zM516 1780q0 -46 32.5 -78.5t78.5 -32.5t78 32.5t32 78.5 t-32 78t-78 32t-78.5 -32t-32.5 -78z" />
<glyph unicode="&#xc6;" horiz-adv-x="1933" d="M14 0l744 1479h1075v-238h-621v-352h430v-238h-430v-413h643v-238h-925v346h-451l-164 -346h-301zM596 584h334v690h-4z" />
<glyph unicode="&#xc7;" d="M61 739q0 362 155.5 561t438.5 199q211 0 337 -96t179 -293l-256 -61q-32 98 -100 155.5t-168 57.5q-143 0 -223 -133.5t-80 -389.5q-6 -522 311 -522q99 0 163.5 46.5t125.5 172.5l262 -69q-66 -191 -206.5 -289t-344.5 -98q-283 0 -438.5 198.5t-155.5 560.5zM403 -416 l37 86q93 -32 160 -32q55 0 81 18t26 68q0 63 -89 63q-26 0 -86 -12l-40 41l120 184h109l-88 -129q42 10 74 10q76 0 128 -39t52 -116q0 -49 -24 -88t-62.5 -61.5t-83 -34t-90.5 -11.5q-92 0 -224 53z" />
<glyph unicode="&#xc8;" d="M172 0v1479h979v-238h-696v-352h506v-238h-506v-413h719v-238h-1002zM324 1860h315l192 -299h-208z" />
<glyph unicode="&#xc9;" d="M172 0v1479h979v-238h-696v-352h506v-238h-506v-413h719v-238h-1002zM500 1561l192 299h316l-299 -299h-209z" />
<glyph unicode="&#xca;" d="M172 0v1479h979v-238h-696v-352h506v-238h-506v-413h719v-238h-1002zM305 1561l232 299h254l235 -299h-231l-129 168l-131 -168h-230z" />
<glyph unicode="&#xcb;" d="M172 0v1479h979v-238h-696v-352h506v-238h-506v-413h719v-238h-1002zM348 1581v238h246v-238h-246zM737 1581v238h246v-238h-246z" />
<glyph unicode="&#xcc;" horiz-adv-x="681" d="M-6 1860h315l193 -299h-209zM199 0v1479h282v-1479h-282z" />
<glyph unicode="&#xcd;" horiz-adv-x="681" d="M170 1561l192 299h316l-299 -299h-209zM199 0v1479h282v-1479h-282z" />
<glyph unicode="&#xce;" horiz-adv-x="681" d="M-25 1561l232 299h254l235 -299h-231l-129 168l-131 -168h-230zM199 0v1479h282v-1479h-282z" />
<glyph unicode="&#xcf;" horiz-adv-x="681" d="M18 1581v238h246v-238h-246zM199 0v1479h282v-1479h-282zM408 1581v238h245v-238h-245z" />
<glyph unicode="&#xd0;" horiz-adv-x="1366" d="M23 635v254h137v590h489q150 0 269 -43t208.5 -130.5t137.5 -231t49 -335.5q-1 -192 -49 -335t-137.5 -230.5t-208.5 -130.5t-269 -43h-489v635h-137zM442 238h189q94 0 165.5 27.5t115 72.5t71 111.5t37.5 135.5t10 154t-10 154.5t-37.5 136t-71 111.5t-115 72.5 t-165.5 27.5h-189v-352h306v-254h-306v-397z" />
<glyph unicode="&#xd1;" horiz-adv-x="1478" d="M166 0v1479h295l581 -1008h5v1008h266v-1479h-273l-604 1053h-4v-1053h-266zM365 1577q15 105 74.5 177.5t158.5 72.5q61 0 160.5 -38t126.5 -38q35 0 61.5 25.5t34.5 62.5h133q-11 -53 -27 -93.5t-42 -78t-66 -58t-92 -20.5q-54 0 -158.5 36t-142.5 36t-59 -22t-35 -62 h-127z" />
<glyph unicode="&#xd2;" horiz-adv-x="1366" d="M61 739q0 364 160 562t461 198t461 -198t160 -562t-160 -561.5t-461 -197.5t-461 197.5t-160 561.5zM342 1860h315l193 -299h-209zM344 739q-6 -522 338 -522q172 0 255 130t83 392t-83 392.5t-255 130.5t-255 -130.5t-83 -392.5z" />
<glyph unicode="&#xd3;" horiz-adv-x="1366" d="M61 739q0 364 160 562t461 198t461 -198t160 -562t-160 -561.5t-461 -197.5t-461 197.5t-160 561.5zM344 739q-6 -522 338 -522q172 0 255 130t83 392t-83 392.5t-255 130.5t-255 -130.5t-83 -392.5zM518 1561l193 299h315l-299 -299h-209z" />
<glyph unicode="&#xd4;" horiz-adv-x="1366" d="M61 739q0 364 160 562t461 198t461 -198t160 -562t-160 -561.5t-461 -197.5t-461 197.5t-160 561.5zM324 1561l231 299h254l235 -299h-231l-129 168l-131 -168h-229zM344 739q-6 -522 338 -522q172 0 255 130t83 392t-83 392.5t-255 130.5t-255 -130.5t-83 -392.5z" />
<glyph unicode="&#xd5;" horiz-adv-x="1366" d="M61 739q0 364 160 562t461 198t461 -198t160 -562t-160 -561.5t-461 -197.5t-461 197.5t-160 561.5zM309 1577q15 105 75 177.5t159 72.5q61 0 160 -38t126 -38q36 0 62.5 25.5t34.5 62.5h133q-11 -52 -27 -93t-42 -78.5t-66.5 -58t-92.5 -20.5q-54 0 -158.5 36 t-142.5 36t-59 -22t-35 -62h-127zM344 739q-6 -522 338 -522q172 0 255 130t83 392t-83 392.5t-255 130.5t-255 -130.5t-83 -392.5z" />
<glyph unicode="&#xd6;" horiz-adv-x="1366" d="M61 739q0 364 160 562t461 198t461 -198t160 -562t-160 -561.5t-461 -197.5t-461 197.5t-160 561.5zM344 739q-6 -522 338 -522q172 0 255 130t83 392t-83 392.5t-255 130.5t-255 -130.5t-83 -392.5zM367 1581v238h245v-238h-245zM756 1581v238h245v-238h-245z" />
<glyph unicode="&#xd7;" horiz-adv-x="1228" d="M82 160l375 375l-375 374l158 156l374 -373l375 373l158 -156l-375 -374l375 -375l-158 -160l-375 377l-374 -377z" />
<glyph unicode="&#xd8;" horiz-adv-x="1366" d="M-23 -135l226 338q-142 195 -142 536q0 364 160 562t461 198q194 0 330 -86l96 148h235l-186 -279q146 -196 146 -543q0 -364 -160 -561.5t-461 -197.5q-202 0 -336 88l-135 -203h-234zM344 739q0 -179 31 -276l495 741q-76 58 -188 58q-172 0 -255 -130.5t-83 -392.5z M487 279q77 -62 195 -62q172 0 255 130t83 392q0 173 -37 283z" />
<glyph unicode="&#xd9;" horiz-adv-x="1478" d="M172 553v926h283v-938q0 -176 68.5 -250t215.5 -74t216 74.5t69 249.5v938h283v-926q0 -126 -30.5 -225t-82.5 -163.5t-125.5 -107t-154.5 -60t-175 -17.5q-119 0 -216.5 29.5t-178.5 94t-126.5 179t-45.5 270.5zM391 1860h316l192 -299h-209z" />
<glyph unicode="&#xda;" horiz-adv-x="1478" d="M172 553v926h283v-938q0 -176 68.5 -250t215.5 -74t216 74.5t69 249.5v938h283v-926q0 -126 -30.5 -225t-82.5 -163.5t-125.5 -107t-154.5 -60t-175 -17.5q-119 0 -216.5 29.5t-178.5 94t-126.5 179t-45.5 270.5zM567 1561l193 299h315l-299 -299h-209z" />
<glyph unicode="&#xdb;" horiz-adv-x="1478" d="M172 553v926h283v-938q0 -176 68.5 -250t215.5 -74t216 74.5t69 249.5v938h283v-926q0 -126 -30.5 -225t-82.5 -163.5t-125.5 -107t-154.5 -60t-175 -17.5q-119 0 -216.5 29.5t-178.5 94t-126.5 179t-45.5 270.5zM373 1561l231 299h254l236 -299h-232l-129 168l-131 -168 h-229z" />
<glyph unicode="&#xdc;" horiz-adv-x="1478" d="M172 553v926h283v-938q0 -176 68.5 -250t215.5 -74t216 74.5t69 249.5v938h283v-926q0 -126 -30.5 -225t-82.5 -163.5t-125.5 -107t-154.5 -60t-175 -17.5q-119 0 -216.5 29.5t-178.5 94t-126.5 179t-45.5 270.5zM416 1581v238h246v-238h-246zM805 1581v238h246v-238 h-246z" />
<glyph unicode="&#xdd;" horiz-adv-x="1138" d="M20 1479h295l254 -586l254 586h295l-407 -889v-590h-283v590zM403 1561l193 299h315l-299 -299h-209z" />
<glyph unicode="&#xde;" d="M139 0v1479h283v-273h258q248 0 385 -108.5t137 -331.5t-137 -331.5t-385 -108.5h-258v-326h-283zM422 555h225q152 0 212.5 53t60.5 158t-60.5 158t-212.5 53h-225v-422z" />
<glyph unicode="&#xdf;" horiz-adv-x="1024" d="M109 0v1126q0 158 98 255.5t285 97.5q198 0 299.5 -95.5t101.5 -265.5q0 -114 -34 -186.5t-122 -116.5v-4q113 -33 179.5 -133.5t66.5 -271.5q0 -119 -26 -203t-76 -132t-114.5 -69.5t-150.5 -21.5q-35 0 -87 14.5t-78 34.5l61 180q48 -25 92 -25q125 0 125 234 q0 61 -8.5 107t-28 84.5t-57 58.5t-90.5 20h-53v205h32q57 0 90 45.5t33 136.5q0 199 -151 199q-134 0 -134 -156v-1118h-253z" />
<glyph unicode="&#xe0;" horiz-adv-x="1024" d="M37 262q0 180 148.5 280.5t461.5 137.5v90q0 60 -43 93.5t-112 33.5q-81 0 -135.5 -35t-98.5 -96l-164 125q49 85 165 141t233 53q147 -3 234.5 -43.5t131 -134t43.5 -252.5v-501q0 -92 21 -154h-248l-17 92q-82 -56 -159 -84t-172 -28q-137 0 -213 82.5t-76 199.5z M170 1499h315l193 -299h-209zM291 293q0 -59 34 -92t89 -33q54 0 118 35t115 78v229q-52 -10 -74.5 -14.5t-69 -16.5t-69 -21.5t-55.5 -26.5t-48.5 -35.5t-27.5 -45t-12 -57.5z" />
<glyph unicode="&#xe1;" horiz-adv-x="1024" d="M37 262q0 180 148.5 280.5t461.5 137.5v90q0 60 -43 93.5t-112 33.5q-81 0 -135.5 -35t-98.5 -96l-164 125q49 85 165 141t233 53q147 -3 234.5 -43.5t131 -134t43.5 -252.5v-501q0 -92 21 -154h-248l-17 92q-82 -56 -159 -84t-172 -28q-137 0 -213 82.5t-76 199.5z M291 293q0 -59 34 -92t89 -33q54 0 118 35t115 78v229q-52 -10 -74.5 -14.5t-69 -16.5t-69 -21.5t-55.5 -26.5t-48.5 -35.5t-27.5 -45t-12 -57.5zM346 1200l193 299h315l-299 -299h-209z" />
<glyph unicode="&#xe2;" horiz-adv-x="1024" d="M37 262q0 180 148.5 280.5t461.5 137.5v90q0 60 -43 93.5t-112 33.5q-81 0 -135.5 -35t-98.5 -96l-164 125q49 85 165 141t233 53q147 -3 234.5 -43.5t131 -134t43.5 -252.5v-501q0 -92 21 -154h-248l-17 92q-82 -56 -159 -84t-172 -28q-137 0 -213 82.5t-76 199.5z M152 1200l231 299h254l235 -299h-231l-129 168l-131 -168h-229zM291 293q0 -59 34 -92t89 -33q54 0 118 35t115 78v229q-52 -10 -74.5 -14.5t-69 -16.5t-69 -21.5t-55.5 -26.5t-48.5 -35.5t-27.5 -45t-12 -57.5z" />
<glyph unicode="&#xe3;" horiz-adv-x="1024" d="M37 262q0 180 148.5 280.5t461.5 137.5v90q0 60 -43 93.5t-112 33.5q-81 0 -135.5 -35t-98.5 -96l-164 125q49 85 165 141t233 53q147 -3 234.5 -43.5t131 -134t43.5 -252.5v-501q0 -92 21 -154h-248l-17 92q-82 -56 -159 -84t-172 -28q-137 0 -213 82.5t-76 199.5z M137 1217q15 105 75 177t159 72q61 0 160 -37.5t126 -37.5q36 0 62.5 25.5t34.5 62.5h133q-11 -52 -27 -93t-42 -78.5t-66.5 -58t-92.5 -20.5q-53 0 -158 35.5t-143 35.5t-59 -21.5t-35 -61.5h-127zM291 293q0 -59 34 -92t89 -33q54 0 118 35t115 78v229 q-52 -10 -74.5 -14.5t-69 -16.5t-69 -21.5t-55.5 -26.5t-48.5 -35.5t-27.5 -45t-12 -57.5z" />
<glyph unicode="&#xe4;" horiz-adv-x="1024" d="M37 262q0 180 148.5 280.5t461.5 137.5v90q0 60 -43 93.5t-112 33.5q-81 0 -135.5 -35t-98.5 -96l-164 125q49 85 165 141t233 53q147 -3 234.5 -43.5t131 -134t43.5 -252.5v-501q0 -92 21 -154h-248l-17 92q-82 -56 -159 -84t-172 -28q-137 0 -213 82.5t-76 199.5z M195 1221v237h245v-237h-245zM291 293q0 -59 34 -92t89 -33q54 0 118 35t115 78v229q-52 -10 -74.5 -14.5t-69 -16.5t-69 -21.5t-55.5 -26.5t-48.5 -35.5t-27.5 -45t-12 -57.5zM584 1221v237h245v-237h-245z" />
<glyph unicode="&#xe5;" horiz-adv-x="1024" d="M37 262q0 180 148.5 280.5t461.5 137.5v90q0 60 -43 93.5t-112 33.5q-81 0 -135.5 -35t-98.5 -96l-164 125q49 85 165 141t233 53q147 -3 234.5 -43.5t131 -134t43.5 -252.5v-501q0 -92 21 -154h-248l-17 92q-82 -56 -159 -84t-172 -28q-137 0 -213 82.5t-76 199.5z M291 293q0 -59 34 -92t89 -33q54 0 118 35t115 78v229q-52 -10 -74.5 -14.5t-69 -16.5t-69 -21.5t-55.5 -26.5t-48.5 -35.5t-27.5 -45t-12 -57.5zM291 1419q0 92 64.5 156.5t156.5 64.5t156.5 -64.5t64.5 -156.5t-64.5 -156.5t-156.5 -64.5t-156.5 64.5t-64.5 156.5z M401 1419q0 -46 32.5 -78t78.5 -32t78.5 32t32.5 78t-32.5 78.5t-78.5 32.5t-78.5 -32.5t-32.5 -78.5z" />
<glyph unicode="&#xe6;" horiz-adv-x="1593" d="M37 262q0 180 150 280.5t468 137.5v90q0 59 -46.5 93t-116.5 34q-81 0 -135.5 -35t-98.5 -96l-164 125q49 85 165 141t233 53q221 -6 309 -114q108 114 289 114q106 1 192 -39t140.5 -108.5t84 -156.5t29.5 -185v-104h-647v-107q0 -89 61.5 -145t159.5 -56q59 0 104.5 18 t73 42t64.5 67l184 -114q-73 -113 -181.5 -165t-264.5 -52q-228 0 -334 165q-140 -100 -235.5 -132.5t-194.5 -32.5q-137 0 -213 82.5t-76 199.5zM291 293q0 -59 34 -92t89 -33q88 0 241 113v229q-52 -10 -77.5 -15t-71.5 -16t-70 -21t-56.5 -27t-48.5 -35.5t-28 -45 t-12 -57.5zM889 664h414q-3 110 -57.5 171.5t-147.5 61.5q-95 0 -150.5 -61.5t-58.5 -171.5z" />
<glyph unicode="&#xe7;" horiz-adv-x="1024" d="M49 532q0 255 123.5 404t339.5 149q151 0 263.5 -75.5t156.5 -208.5l-211 -82q-37 81 -81 121.5t-128 40.5q-106 0 -157.5 -85.5t-51.5 -263.5q0 -179 52.5 -263.5t164.5 -84.5q77 0 129 44.5t96 125.5l193 -108q-76 -142 -177.5 -205t-248.5 -61q-216 0 -339.5 148.5 t-123.5 403.5zM270 -416l37 86q93 -32 160 -32q55 0 80.5 18t25.5 68q0 63 -88 63q-26 0 -86 -12l-41 41l121 184h109l-88 -129q42 10 73 10q76 0 128.5 -39t52.5 -116q0 -49 -24 -88t-62.5 -61.5t-83 -34t-90.5 -11.5q-92 0 -224 53z" />
<glyph unicode="&#xe8;" horiz-adv-x="1024" d="M49 532q0 255 123.5 404t339.5 149q101 1 185 -39.5t137.5 -108.5t82.5 -156t29 -185v-104h-643q3 -157 64 -232.5t157 -75.5q57 0 101.5 18t72 42t64.5 67l184 -114q-73 -113 -181.5 -165t-264.5 -52q-207 0 -329 149.5t-122 402.5zM170 1499h315l193 -299h-209z M303 664h410q-3 110 -57.5 171.5t-147.5 61.5t-147.5 -61.5t-57.5 -171.5z" />
<glyph unicode="&#xe9;" horiz-adv-x="1024" d="M49 532q0 255 123.5 404t339.5 149q101 1 185 -39.5t137.5 -108.5t82.5 -156t29 -185v-104h-643q3 -157 64 -232.5t157 -75.5q57 0 101.5 18t72 42t64.5 67l184 -114q-73 -113 -181.5 -165t-264.5 -52q-207 0 -329 149.5t-122 402.5zM303 664h410q-3 110 -57.5 171.5 t-147.5 61.5t-147.5 -61.5t-57.5 -171.5zM346 1200l193 299h315l-299 -299h-209z" />
<glyph unicode="&#xea;" horiz-adv-x="1024" d="M49 532q0 255 123.5 404t339.5 149q101 1 185 -39.5t137.5 -108.5t82.5 -156t29 -185v-104h-643q3 -157 64 -232.5t157 -75.5q57 0 101.5 18t72 42t64.5 67l184 -114q-73 -113 -181.5 -165t-264.5 -52q-207 0 -329 149.5t-122 402.5zM152 1200l231 299h254l235 -299h-231 l-129 168l-131 -168h-229zM303 664h410q-3 110 -57.5 171.5t-147.5 61.5t-147.5 -61.5t-57.5 -171.5z" />
<glyph unicode="&#xeb;" horiz-adv-x="1024" d="M49 532q0 255 123.5 404t339.5 149q101 1 185 -39.5t137.5 -108.5t82.5 -156t29 -185v-104h-643q3 -157 64 -232.5t157 -75.5q57 0 101.5 18t72 42t64.5 67l184 -114q-73 -113 -181.5 -165t-264.5 -52q-207 0 -329 149.5t-122 402.5zM195 1221v237h245v-237h-245z M303 664h410q-3 110 -57.5 171.5t-147.5 61.5t-147.5 -61.5t-57.5 -171.5zM584 1221v237h245v-237h-245z" />
<glyph unicode="&#xec;" horiz-adv-x="569" d="M-53 1499h315l193 -299h-209zM158 0v1065h254v-1065h-254z" />
<glyph unicode="&#xed;" horiz-adv-x="569" d="M123 1200l192 299h316l-299 -299h-209zM158 0v1065h254v-1065h-254z" />
<glyph unicode="&#xee;" horiz-adv-x="569" d="M-72 1200l232 299h254l235 -299h-231l-129 168l-131 -168h-230zM158 0v1065h254v-1065h-254z" />
<glyph unicode="&#xef;" horiz-adv-x="569" d="M-29 1221v237h246v-237h-246zM158 0v1065h254v-1065h-254zM360 1221v237h246v-237h-246z" />
<glyph unicode="&#xf0;" horiz-adv-x="1024" d="M49 500q0 232 124.5 376t338.5 144q42 0 86 -10q-33 78 -86 151l-209 -100l-74 131l187 90q-53 60 -133 127l221 70q51 -36 114 -99l205 99l74 -131l-180 -88q120 -161 189 -364.5t69 -395.5q0 -232 -124.5 -376t-338.5 -144t-338.5 144t-124.5 376zM303 500 q0 -316 209 -316t209 316q0 315 -209 315t-209 -315z" />
<glyph unicode="&#xf1;" horiz-adv-x="1138" d="M131 0v1065h234v-115q90 63 166.5 99t160.5 36q156 0 236 -94.5t80 -261.5v-729h-254v692q0 104 -32 146.5t-99 42.5q-75 0 -136.5 -34t-101.5 -79v-768h-254zM184 1217q15 105 75 177t159 72q61 0 160.5 -37.5t126.5 -37.5q35 0 61.5 25.5t34.5 62.5h133 q-11 -53 -27 -93.5t-42 -78t-66 -58t-92 -20.5q-53 0 -158 35.5t-143 35.5q-67 0 -95 -83h-127z" />
<glyph unicode="&#xf2;" horiz-adv-x="1024" d="M49 532q0 255 123.5 404t339.5 149t339.5 -149t123.5 -404t-123.5 -403.5t-339.5 -148.5t-339.5 148.5t-123.5 403.5zM164 1499h315l193 -299h-209zM303 532q0 -178 51.5 -263t157.5 -85t157.5 85t51.5 263t-51.5 263.5t-157.5 85.5t-157.5 -85.5t-51.5 -263.5z" />
<glyph unicode="&#xf3;" horiz-adv-x="1024" d="M49 532q0 255 123.5 404t339.5 149t339.5 -149t123.5 -404t-123.5 -403.5t-339.5 -148.5t-339.5 148.5t-123.5 403.5zM303 532q0 -178 51.5 -263t157.5 -85t157.5 85t51.5 263t-51.5 263.5t-157.5 85.5t-157.5 -85.5t-51.5 -263.5zM340 1200l192 299h316l-299 -299h-209z " />
<glyph unicode="&#xf4;" horiz-adv-x="1024" d="M49 532q0 255 123.5 404t339.5 149t339.5 -149t123.5 -404t-123.5 -403.5t-339.5 -148.5t-339.5 148.5t-123.5 403.5zM145 1200l232 299h254l235 -299h-231l-129 168l-131 -168h-230zM303 532q0 -178 51.5 -263t157.5 -85t157.5 85t51.5 263t-51.5 263.5t-157.5 85.5 t-157.5 -85.5t-51.5 -263.5z" />
<glyph unicode="&#xf5;" horiz-adv-x="1024" d="M49 532q0 255 123.5 404t339.5 149t339.5 -149t123.5 -404t-123.5 -403.5t-339.5 -148.5t-339.5 148.5t-123.5 403.5zM131 1217q15 105 75 177t159 72q61 0 160 -37.5t126 -37.5q36 0 62.5 25.5t34.5 62.5h133q-11 -52 -27 -93t-42 -78.5t-66.5 -58t-92.5 -20.5 q-53 0 -158 35.5t-143 35.5t-59 -21.5t-35 -61.5h-127zM303 532q0 -178 51.5 -263t157.5 -85t157.5 85t51.5 263t-51.5 263.5t-157.5 85.5t-157.5 -85.5t-51.5 -263.5z" />
<glyph unicode="&#xf6;" horiz-adv-x="1024" d="M49 532q0 255 123.5 404t339.5 149t339.5 -149t123.5 -404t-123.5 -403.5t-339.5 -148.5t-339.5 148.5t-123.5 403.5zM188 1221v237h246v-237h-246zM303 532q0 -178 51.5 -263t157.5 -85t157.5 85t51.5 263t-51.5 263.5t-157.5 85.5t-157.5 -85.5t-51.5 -263.5zM578 1221 v237h245v-237h-245z" />
<glyph unicode="&#xf7;" horiz-adv-x="1228" d="M82 422v221h1065v-221h-1065zM434 143q0 69 54.5 126t123.5 57q74 0 129.5 -57t55.5 -126t-55.5 -124.5t-129.5 -55.5q-70 0 -124 56t-54 124zM434 920q0 69 54 125.5t124 56.5q74 0 129.5 -56.5t55.5 -125.5t-55.5 -125t-129.5 -56q-70 0 -124 56.5t-54 124.5z" />
<glyph unicode="&#xf8;" horiz-adv-x="1024" d="M20 -205l173 314q-144 150 -144 423q0 255 123.5 404t339.5 149q113 0 197 -41l114 209h187l-168 -305q133 -148 133 -416q0 -255 -123.5 -403.5t-339.5 -148.5q-103 0 -184 34l-121 -219h-187zM303 532q0 -110 21 -186l282 512q-44 23 -94 23q-106 0 -157.5 -85.5 t-51.5 -263.5zM430 201q39 -17 82 -17q106 0 157.5 85t51.5 263q0 93 -16 168z" />
<glyph unicode="&#xf9;" horiz-adv-x="1138" d="M131 336v729h254v-692q0 -104 32 -146.5t99 -42.5q75 0 136.5 34t101.5 79v768h254v-1065h-234v115q-90 -63 -167 -99t-161 -36q-156 0 -235.5 94.5t-79.5 261.5zM227 1499h316l192 -299h-209z" />
<glyph unicode="&#xfa;" horiz-adv-x="1138" d="M131 336v729h254v-692q0 -104 32 -146.5t99 -42.5q75 0 136.5 34t101.5 79v768h254v-1065h-234v115q-90 -63 -167 -99t-161 -36q-156 0 -235.5 94.5t-79.5 261.5zM403 1200l193 299h315l-299 -299h-209z" />
<glyph unicode="&#xfb;" horiz-adv-x="1138" d="M131 336v729h254v-692q0 -104 32 -146.5t99 -42.5q75 0 136.5 34t101.5 79v768h254v-1065h-234v115q-90 -63 -167 -99t-161 -36q-156 0 -235.5 94.5t-79.5 261.5zM209 1200l231 299h254l236 -299h-232l-129 168l-131 -168h-229z" />
<glyph unicode="&#xfc;" horiz-adv-x="1138" d="M131 336v729h254v-692q0 -104 32 -146.5t99 -42.5q75 0 136.5 34t101.5 79v768h254v-1065h-234v115q-90 -63 -167 -99t-161 -36q-156 0 -235.5 94.5t-79.5 261.5zM252 1221v237h246v-237h-246zM641 1221v237h246v-237h-246z" />
<glyph unicode="&#xfd;" horiz-adv-x="909" d="M18 1065h256l177 -655h4l182 655h254l-336 -1067q-58 -156 -112.5 -237.5t-123.5 -115.5t-176 -34q-61 0 -123 8v209q39 -8 107 -8q66 0 105.5 20t62.5 64q16 34 22.5 47.5t12.5 35.5t6 42q0 17 -5 38t-14.5 48.5t-13.5 40.5zM289 1200l192 299h316l-299 -299h-209z" />
<glyph unicode="&#xfe;" horiz-adv-x="1138" d="M131 -389v1868h244v-512q121 118 272 118q138 0 235.5 -77t144 -206t46.5 -298q0 -100 -28.5 -193t-81 -167t-135 -119t-181.5 -45q-67 0 -144 34t-114 84h-4v-487h-254zM385 274q98 -90 197 -90q114 0 175.5 90t61.5 258q0 169 -61.5 259t-175.5 90q-38 0 -70.5 -10.5 t-47.5 -20t-43 -34t-36 -30.5v-512z" />
<glyph unicode="&#xff;" horiz-adv-x="909" d="M18 1065h256l177 -655h4l182 655h254l-336 -1067q-58 -156 -112.5 -237.5t-123.5 -115.5t-176 -34q-61 0 -123 8v209q39 -8 107 -8q66 0 105.5 20t62.5 64q16 34 22.5 47.5t12.5 35.5t6 42q0 17 -5 38t-14.5 48.5t-13.5 40.5zM137 1221v237h246v-237h-246zM526 1221v237 h246v-237h-246z" />
<glyph unicode="&#x152;" horiz-adv-x="1933" d="M27 739q0 380 161 570t512 190q39 0 149.5 -10t174.5 -10h825v-238h-626v-352h442v-238h-442v-413h661v-238h-825q-59 0 -178.5 -10t-180.5 -10q-351 0 -512 189.5t-161 569.5zM309 739q-1 -129 17.5 -224.5t48.5 -151.5t77 -89.5t94 -45t109 -11.5q107 0 166.5 27.5 t89 98.5t29.5 202v389q0 131 -29.5 202t-89 98.5t-166.5 27.5q-61 0 -108.5 -11.5t-94.5 -45t-77 -90t-48.5 -152t-17.5 -224.5z" />
<glyph unicode="&#x153;" horiz-adv-x="1593" d="M25 532q0 254 121.5 403.5t328.5 149.5q219 0 330 -137q110 137 301 137q100 1 182.5 -39.5t136 -108.5t82.5 -156t29 -185v-104h-623q3 -164 57 -236t169 -72q65 0 111.5 31t101.5 96l184 -114q-140 -217 -414 -217q-201 0 -313 141q-109 -141 -334 -141 q-207 0 -328.5 149t-121.5 403zM279 532q0 -348 200 -348q201 0 201 348q0 349 -201 349q-200 0 -200 -349zM913 664h390q-3 109 -56 171t-139 62t-139 -62t-56 -171z" />
<glyph unicode="&#x178;" horiz-adv-x="1138" d="M20 1479h295l254 -586l254 586h295l-407 -889v-590h-283v590zM252 1581v238h246v-238h-246zM641 1581v238h246v-238h-246z" />
<glyph unicode="&#x2c6;" horiz-adv-x="569" d="M-76 1200l232 299h254l235 -299h-231l-129 168l-131 -168h-230z" />
<glyph unicode="&#x2dc;" horiz-adv-x="569" d="M-90 1217q15 105 74.5 177t158.5 72q61 0 160.5 -37.5t126.5 -37.5q35 0 61.5 25.5t34.5 62.5h133q-11 -53 -27 -93.5t-42 -78t-66 -58t-92 -20.5q-54 0 -158 35.5t-143 35.5q-38 0 -59 -21.5t-35 -61.5h-127z" />
<glyph unicode="&#x2000;" horiz-adv-x="1000" />
<glyph unicode="&#x2001;" horiz-adv-x="2001" />
<glyph unicode="&#x2002;" horiz-adv-x="1000" />
<glyph unicode="&#x2003;" horiz-adv-x="2001" />
<glyph unicode="&#x2004;" horiz-adv-x="667" />
<glyph unicode="&#x2005;" horiz-adv-x="500" />
<glyph unicode="&#x2006;" horiz-adv-x="333" />
<glyph unicode="&#x2007;" horiz-adv-x="333" />
<glyph unicode="&#x2008;" horiz-adv-x="250" />
<glyph unicode="&#x2009;" horiz-adv-x="400" />
<glyph unicode="&#x200a;" horiz-adv-x="111" />
<glyph unicode="&#x2010;" horiz-adv-x="681" d="M90 422v221h502v-221h-502z" />
<glyph unicode="&#x2011;" horiz-adv-x="681" d="M90 422v221h502v-221h-502z" />
<glyph unicode="&#x2012;" horiz-adv-x="681" d="M90 422v221h502v-221h-502z" />
<glyph unicode="&#x2013;" horiz-adv-x="1024" d="M0 446v172h1024v-172h-1024z" />
<glyph unicode="&#x2014;" horiz-adv-x="2048" d="M0 446v172h2048v-172h-2048z" />
<glyph unicode="&#x2018;" horiz-adv-x="569" d="M143 901v291l131 307h134l-105 -307h123v-291h-283z" />
<glyph unicode="&#x2019;" horiz-adv-x="569" d="M143 1188v291h283v-291l-131 -307h-133l104 307h-123z" />
<glyph unicode="&#x201a;" horiz-adv-x="569" d="M143 0v291h283v-291l-131 -307h-133l104 307h-123z" />
<glyph unicode="&#x201c;" horiz-adv-x="909" d="M86 901v291l131 307h133l-104 -307h123v-291h-283zM543 901v291l131 307h133l-105 -307h123v-291h-282z" />
<glyph unicode="&#x201d;" horiz-adv-x="909" d="M84 1188v291h283v-291l-131 -307h-134l105 307h-123zM541 1188v291h282v-291l-131 -307h-133l105 307h-123z" />
<glyph unicode="&#x201e;" horiz-adv-x="909" d="M84 0v291h283v-291l-131 -307h-134l105 307h-123zM541 0v291h282v-291l-131 -307h-133l105 307h-123z" />
<glyph unicode="&#x2022;" horiz-adv-x="1024" d="M141 739q0 154 107.5 261.5t261.5 107.5t262.5 -107.5t108.5 -261.5t-108.5 -262t-262.5 -108t-261.5 108t-107.5 262z" />
<glyph unicode="&#x2026;" horiz-adv-x="2048" d="M197 0v291h290v-291h-290zM879 0v291h290v-291h-290zM1561 0v291h290v-291h-290z" />
<glyph unicode="&#x202f;" horiz-adv-x="400" />
<glyph unicode="&#x2039;" horiz-adv-x="681" d="M84 526l246 334h229l-252 -334l252 -321h-229z" />
<glyph unicode="&#x203a;" horiz-adv-x="681" d="M123 205l252 321l-252 334h229l246 -334l-246 -321h-229z" />
<glyph unicode="&#x205f;" horiz-adv-x="500" />
<glyph unicode="&#x2122;" horiz-adv-x="2048" d="M45 1307v172h698v-172h-247v-672h-205v672h-246zM911 635v844h306l190 -529h4l188 529h306v-844h-205v575l-8 4l-205 -579h-158l-205 577h-8v-577h-205z" />
<glyph unicode="&#xe000;" horiz-adv-x="1064" d="M0 0v1065h1065v-1065h-1065z" />
<glyph unicode="&#xfb01;" horiz-adv-x="1138" d="M25 860v205h145v131q0 168 70.5 235.5t230.5 67.5h168v-205h-70q-79 0 -111 -26t-32 -88v-115h215v-205h-215v-860h-254v860h-147zM754 0v1065h254v-1065h-254zM754 1262v237h254v-237h-254z" />
<glyph unicode="&#xfb02;" horiz-adv-x="1138" d="M25 860v205h145v131q0 168 70.5 235.5t230.5 67.5h168v-205h-70q-79 0 -111 -26t-32 -88v-115h215v-205h-215v-860h-254v860h-147zM754 0v1479h254v-1479h-254z" />
</font>
</defs>
</svg>
