<?xml version="1.0" encoding="utf-8"?>
<!-- Generator: Adobe Illustrator 15.0.0, SVG Export Plug-In  -->
<!DOCTYPE svg PUBLIC "-//W3C//DTD SVG 1.1//EN" "http://www.w3.org/Graphics/SVG/1.1/DTD/svg11.dtd" [
	<!ENTITY ns_flows "http://ns.adobe.com/Flows/1.0/">
]>
<svg version="1.1"
	 xmlns="http://www.w3.org/2000/svg" xmlns:xlink="http://www.w3.org/1999/xlink" xmlns:a="http://ns.adobe.com/AdobeSVGViewerExtensions/3.0/"
	 x="0px" y="0px" width="144px" height="32px" viewBox="-3 -1.417 144 32"
	 overflow="visible" enable-background="new -3 -1.417 144 32" xml:space="preserve">
<defs>
</defs>
<path id="Line_1_" fill="#FFFFFF" stroke="#FFFFFF" d="M95.5,6.083h11"/>
<path id="Line2_1_" fill="#FFFFFF" stroke="#FFFFFF" d="M95.5,2.083h11"/>
<path id="Line3_1_" fill="#FFFFFF" stroke="#FFFFFF" d="M95.5,10.083h11"/>
<path id="Ellipse_1_" fill="#FFFFFF" d="M105,10.083c0-0.828,0.447-1.5,1-1.5s1,0.672,1,1.5s-0.447,1.5-1,1.5S105,10.911,105,10.083
	z"/>
<path id="Ellipse2_1_" fill="#FFFFFF" d="M101,6.083c0-0.828,0.447-1.5,1-1.5s1,0.672,1,1.5s-0.447,1.5-1,1.5S101,6.911,101,6.083z"
	/>
<path id="Ellipse3_1_" fill="#FFFFFF" d="M105,2.083c0-0.828,0.447-1.5,1-1.5s1,0.672,1,1.5s-0.447,1.5-1,1.5S105,2.911,105,2.083z"
	/>
<rect x="80" y="19.583" fill="#FFFFFF" stroke="#FFFFFF" width="10" height="6"/>
<path id="Ellipse4_1_" fill="#FFFFFF" d="M78,6.583c0-2.762,3.134-5,7-5s7,2.238,7,5s-3.134,5-7,5S78,9.344,78,6.583z"/>
<rect x="80" y="3.583" fill="#FFFFFF" stroke="#FFFFFF" width="10" height="6"/>
<path fill="#FFFFFF" d="M70.795,2.788c1.42,0.673,2.405,2.118,2.405,3.795c0,2.319-1.881,4.2-4.2,4.2s-4.2-1.881-4.2-4.2
	c0-1.677,0.985-3.122,2.405-3.795l-1.33-1.33C64.15,2.511,63,4.413,63,6.583c0,3.314,2.686,6,6,6c3.314,0,6-2.686,6-6
	c0-2.169-1.15-4.071-2.875-5.125L70.795,2.788z"/>
<path fill="#FFFFFF" d="M68,0.583h-5l5,5V0.583z"/>
<path fill="#FFFFFF" d="M70.795,18.788c1.42,0.674,2.405,2.118,2.405,3.795c0,2.319-1.881,4.2-4.2,4.2s-4.2-1.881-4.2-4.2
	c0-1.677,0.985-3.121,2.405-3.795l-1.33-1.33C64.15,18.511,63,20.413,63,22.583c0,3.314,2.686,6,6,6c3.314,0,6-2.686,6-6
	c0-2.17-1.15-4.071-2.875-5.125L70.795,18.788z"/>
<path fill="#FFFFFF" d="M68,16.583h-5l5,5V16.583z"/>
<rect x="46" y="0.583" display="none" fill="#FFFFFF" stroke="#B0B0B0" width="14" height="12"/>
<text transform="matrix(1 0 0 1 46 15.5825)" fill="#FFFFFF" font-family="'ArialMT'" font-size="10">cc</text>
<path fill="#FFFFFF" stroke="#FFFFFF" d="M52,5.583c-4.719-3.219-4.937,5.94,0,3"/>
<path fill="#FFFFFF" stroke="#FFFFFF" d="M57,5.583c-4.719-3.219-4.937,5.94,0,3"/>
<path fill="#FFFFFF" d="M47,1.583h12v10H47V1.583z M46,0.583v12h14v-12H46z"/>
<rect x="46" y="0.583" fill="#FFFFFF" width="14" height="12"/>
<rect x="14" y="3.583" fill="#FFFFFF" width="5" height="6"/>
<path fill="#FFFFFF" d="M18,3.583l4-3v12l-4-2.938V3.583z"/>
<rect x="14" y="19.583" fill="#FFFFFF" width="5" height="6"/>
<path fill="#FFFFFF" d="M18,19.583l4-3v12l-4-2.938V19.583z"/>
<path fill="#FFFFFF" d="M24,16.583c0,0,3.062-0.625,3,6s-3,6-3,6"/>
<path id="Polygon_1_" fill="#FFFFFF" d="M11,7.083l-11,5.5v-11L11,7.083z"/>
<rect y="16.583" fill="#FFFFFF" width="3" height="12"/>
<rect x="7" y="16.583" fill="#FFFFFF" width="3" height="12"/>
<path fill="#FFFFFF" d="M31,0.583h5l-5,5V0.583z"/>
<path fill="#FFFFFF" d="M31,12.583h5l-5-5V12.583z"/>
<path fill="#FFFFFF" d="M43,0.583h-5l5,5V0.583z"/>
<path fill="#FFFFFF" d="M43,12.583h-5l5-5V12.583z"/>
<path fill="#FFFFFF" d="M39,20.583h4l-4-4V20.583z"/>
<path fill="#FFFFFF" d="M35,20.583v-4l-4,4H35z"/>
<path fill="#FFFFFF" d="M35,24.583h-4l4,4V24.583z"/>
<path fill="#FFFFFF" d="M39,24.583v4l4-4H39z"/>
<rect x="112" y="1.583" fill="#FFFFFF" width="10" height="10"/>
<path fill="#FFFFFF" d="M132.234,4.735c1.021-0.423,2.191,0.062,2.613,1.082c0.423,1.021-0.062,2.19-1.082,2.613
	s-2.191-0.062-2.613-1.082C130.729,6.328,131.214,5.158,132.234,4.735z M130.273,0L133,2.588L135.727,0l0.098,3.758l3.758,0.098
	l-2.588,2.727l2.588,2.727l-3.758,0.098l-0.098,3.758L133,10.577l-2.727,2.588l-0.098-3.758l-3.758-0.098l2.588-2.727l-2.588-2.727
	l3.758-0.098L130.273,0z"/>
</svg>
