<?xml version="1.0" encoding="utf-8"?>
<!-- Generator: Adobe Illustrator 15.0.0, SVG Export Plug-In  -->
<!DOCTYPE svg PUBLIC "-//W3C//DTD SVG 1.1//EN" "http://www.w3.org/Graphics/SVG/1.1/DTD/svg11.dtd" [
	<!ENTITY ns_flows "http://ns.adobe.com/Flows/1.0/">
]>
<svg version="1.1"
	 xmlns="http://www.w3.org/2000/svg" xmlns:xlink="http://www.w3.org/1999/xlink" xmlns:a="http://ns.adobe.com/AdobeSVGViewerExtensions/3.0/"
	 x="0px" y="0px" width="538px" height="77px" viewBox="-1.656 -10.399 538 77"
	 overflow="visible" enable-background="new -1.656 -10.399 538 77" xml:space="preserve">
<defs>
</defs>
<path d="M19.297,44.932h3.601v4.824H0v-4.824h2.376c3.672,0,4.104-1.008,4.104-4.321V24.914c0-3.312-0.432-4.32-4.104-4.32H0V15.77
	h15.193v5.112c2.232-4.032,5.256-6.048,9-6.048c5.185,0,8.713,3.24,8.713,7.776c0,3.528-2.304,6.121-5.833,6.121
	c-3.024,0-4.968-1.872-4.968-4.464c0-2.376,1.512-4.104,4.392-4.896c-1.152-0.504-2.16-0.72-2.952-0.72
	c-4.464,0-8.353,4.896-8.353,12.817v9.145C15.193,43.924,15.625,44.932,19.297,44.932z"/>
<path d="M46.369,51.052c-6.193,0-10.297-3.96-10.297-9.289c0-5.617,3.6-8.353,10.873-10.585c4.033-1.224,7.129-1.584,8.785-2.664
	c1.728-1.152,2.376-2.448,2.376-4.608c0-3.528-2.664-5.473-7.417-5.473c-2.952,0-5.112,0.576-6.841,2.088h0.216
	c2.88,0,4.536,1.512,4.536,3.96c0,2.736-2.016,4.608-5.041,4.608c-3.384,0-5.76-2.304-5.76-5.616c0-5.185,5.185-9.001,13.969-9.001
	c4.896,0,8.641,0.864,11.017,2.448c3.456,2.304,3.744,5.544,3.744,10.513v15.121c0,1.728,0.576,2.448,1.656,2.448
	c2.088,0,2.232-2.304,2.232-7.92h4.393v1.512c0,8.569-2.448,12.457-8.929,12.457c-4.249,0-6.769-1.728-7.849-5.4
	C55.153,49.396,51.409,51.052,46.369,51.052z M45.792,40.899c0,2.592,1.584,4.104,4.464,4.104c4.537,0,7.633-3.168,7.633-8.929
	v-4.104C50.329,35.499,45.792,36.363,45.792,40.899z"/>
<path d="M80.062,27.362c0-7.632,6.121-12.889,16.346-12.889c4.464,0,8.353,1.152,11.593,3.312c2.088-2.232,4.32-3.312,6.985-3.312
	c4.968,0,7.993,2.736,7.993,7.201c0,3.024-2.016,5.112-4.752,5.112c-2.665,0-4.681-1.8-4.681-4.32c0-2.016,1.224-3.384,3.457-3.96
	c-0.792-0.648-1.584-1.008-2.448-1.008c-1.656,0-3.24,1.008-4.681,3.024c1.296,2.304,1.944,4.608,1.944,7.201
	c0,7.344-5.833,12.457-15.841,12.457c-2.52,0-5.185-0.432-7.921-1.296c-1.224,0.864-1.8,1.728-1.8,2.448
	c0,1.944,1.512,2.521,4.68,2.521h9.865c10.585,0,15.77,2.808,15.77,9.865c0,7.345-6.984,11.521-20.378,11.521
	c-12.169,0-18.505-3.096-18.505-8.425c0-2.952,2.16-4.896,6.696-6.121c-3.816-0.936-5.832-3.312-5.832-6.48
	c0-3.24,2.16-5.617,6.408-7.128C81.647,34.203,80.062,31.107,80.062,27.362z M83.951,56.237c0,3.312,3.672,4.896,11.161,4.896
	c7.993,0,11.953-1.728,11.953-5.329c0-3.672-3.672-4.248-11.449-4.248C87.695,51.557,83.951,52.42,83.951,56.237z M95.904,35.571
	c4.465,0,6.409-2.592,6.409-8.209c0-5.904-1.944-8.641-6.409-8.641c-4.392,0-6.336,2.664-6.336,8.353
	C89.567,32.979,91.439,35.571,95.904,35.571z"/>
<path d="M127.798,27.362c0-7.632,6.121-12.889,16.346-12.889c4.464,0,8.353,1.152,11.593,3.312c2.088-2.232,4.32-3.312,6.985-3.312
	c4.968,0,7.993,2.736,7.993,7.201c0,3.024-2.016,5.112-4.752,5.112c-2.665,0-4.681-1.8-4.681-4.32c0-2.016,1.224-3.384,3.457-3.96
	c-0.792-0.648-1.584-1.008-2.448-1.008c-1.656,0-3.24,1.008-4.681,3.024c1.296,2.304,1.944,4.608,1.944,7.201
	c0,7.344-5.833,12.457-15.841,12.457c-2.52,0-5.185-0.432-7.921-1.296c-1.224,0.864-1.8,1.728-1.8,2.448
	c0,1.944,1.512,2.521,4.68,2.521h9.865c10.585,0,15.77,2.808,15.77,9.865c0,7.345-6.984,11.521-20.378,11.521
	c-12.169,0-18.505-3.096-18.505-8.425c0-2.952,2.16-4.896,6.696-6.121c-3.816-0.936-5.833-3.312-5.833-6.48
	c0-3.24,2.161-5.617,6.409-7.128C129.383,34.203,127.798,31.107,127.798,27.362z M131.687,56.237c0,3.312,3.672,4.896,11.161,4.896
	c7.993,0,11.953-1.728,11.953-5.329c0-3.672-3.672-4.248-11.449-4.248C135.431,51.557,131.687,52.42,131.687,56.237z M143.64,35.571
	c4.465,0,6.409-2.592,6.409-8.209c0-5.904-1.944-8.641-6.409-8.641c-4.392,0-6.336,2.664-6.336,8.353
	C137.303,32.979,139.175,35.571,143.64,35.571z"/>
<path d="M206.424,37.587c-1.008,8.353-7.056,13.465-15.841,13.465c-11.089,0-18.001-7.272-18.001-18.29
	c0-10.873,7.057-18.29,18.001-18.29c10.369,0,16.058,6.553,16.058,19.01h-24.266c0.288,7.777,3.384,11.809,8.713,11.809
	c5.544,0,8.137-2.16,9.289-7.705H206.424z M190.511,19.298c-4.176,0-6.913,3.024-7.777,9.073h14.401
	C196.704,22.178,194.688,19.298,190.511,19.298z"/>
<path d="M233.495,6.265h-3.024V1.44h15.841v39.171c0,3.312,0.432,4.321,4.104,4.321h2.088v4.824h-14.905v-5.904
	c-2.376,4.752-6.049,6.913-11.593,6.913c-9.145,0-14.617-6.553-14.617-18.146c0-11.593,5.473-18.146,14.617-18.146
	c5.544,0,9.217,2.232,11.593,6.985V10.585C237.599,7.272,237.167,6.265,233.495,6.265z M229.39,45.004
	c4.896,0,8.209-4.32,8.209-12.169s-3.312-12.097-8.209-12.097c-5.544,0-8.208,3.96-8.208,12.097S223.846,45.004,229.39,45.004z"/>
<path d="M334.152,33.123v1.368c0,10.873-4.968,16.705-13.681,16.705c-3.672,0-7.345-1.368-11.305-4.104
	c-4.608,2.736-9.073,4.104-13.753,4.104c-9.721,0-16.562-6.625-16.562-14.689c0-6.913,4.032-11.665,12.457-15.697
	c-1.296-2.88-1.944-5.617-1.944-8.425C289.364,5.256,294.549,0,301.677,0c6.769,0,10.657,3.672,10.657,9.289
	c0,5.256-3.096,9.577-9.289,13.321c2.736,4.681,5.761,9.145,9.217,13.465c3.745-3.672,5.473-7.128,5.473-9.289
	c0-1.296-1.296-1.656-4.393-1.656h-2.16v-5.473h22.97v5.473h-2.521c-3.672,0-5.328,0.936-6.984,3.672
	c-0.936,1.512-2.88,6.048-8.281,12.241c1.728,1.729,3.457,2.521,5.4,2.521c4.464,0,6.48-3.312,6.841-10.441H334.152z
	 M289.076,34.275c0,5.761,3.816,9.865,9.361,9.865c1.873,0,3.816-0.576,6.049-1.728c-4.393-5.185-7.561-10.441-10.225-15.553
	C290.805,28.803,289.076,31.179,289.076,34.275z M305.926,9.721c0-2.448-1.728-4.176-4.32-4.176c-2.736,0-4.537,1.872-4.537,4.681
	c0,1.944,0.864,4.32,2.665,6.769C303.838,14.978,305.926,12.529,305.926,9.721z"/>
<path d="M384.116,6.265h-3.024V1.44h15.841v39.171c0,3.312,0.432,4.321,4.104,4.321h2.088v4.824h-14.905v-5.904
	c-2.376,4.752-6.049,6.913-11.593,6.913c-9.145,0-14.617-6.553-14.617-18.146c0-11.593,5.473-18.146,14.617-18.146
	c5.544,0,9.217,2.232,11.593,6.985V10.585C388.221,7.272,387.789,6.265,384.116,6.265z M380.012,45.004
	c4.896,0,8.209-4.32,8.209-12.169s-3.312-12.097-8.209-12.097c-5.544,0-8.208,3.96-8.208,12.097S374.467,45.004,380.012,45.004z"/>
<path d="M406.217,44.932h2.664c3.672,0,4.104-1.008,4.104-4.321V24.914c0-3.312-0.432-4.32-4.104-4.32h-2.664V15.77h15.553v24.842
	c0,3.312,0.504,4.321,4.176,4.321h2.16v4.824h-21.89V44.932z M416.73,0.864c3.024,0,5.4,2.304,5.4,5.328
	c0,3.024-2.376,5.401-5.4,5.401s-5.329-2.448-5.329-5.401C411.401,3.24,413.706,0.864,416.73,0.864z"/>
<path d="M450.714,44.932h3.601v4.824h-22.898v-4.824h2.376c3.672,0,4.104-1.008,4.104-4.321V24.914c0-3.312-0.432-4.32-4.104-4.32
	h-2.376V15.77h15.193v5.112c2.232-4.032,5.256-6.048,9-6.048c5.185,0,8.713,3.24,8.713,7.776c0,3.528-2.304,6.121-5.833,6.121
	c-3.024,0-4.968-1.872-4.968-4.464c0-2.376,1.512-4.104,4.392-4.896c-1.152-0.504-2.16-0.72-2.952-0.72
	c-4.464,0-8.353,4.896-8.353,12.817v9.145C446.61,43.924,447.042,44.932,450.714,44.932z"/>
<path d="M472.385,20.738h-5.617v-4.68c6.697-1.08,9.289-5.257,9.865-13.681h4.608V15.77h9.361v4.968h-9.505v19.37
	c0,3.024,0.432,4.249,2.592,4.249c2.808,0,3.24-2.664,3.24-8.785v-1.873h4.681c0.072,1.08,0.072,2.161,0.072,3.097
	c0,9.792-2.952,14.185-10.369,14.185c-6.337,0-8.929-3.816-8.929-11.881V20.738z"/>
<path d="M502.049,24.986c-1.296-2.952-2.736-4.393-5.4-4.393h-2.16V15.77h20.882v4.824h-2.521c-1.656,0-2.448,0.576-2.448,1.728
	c0,0.432,0.072,0.937,0.36,1.584l6.696,15.697l5.905-15.049c0.288-0.792,0.504-1.512,0.504-2.088c0-1.44-0.864-1.872-3.168-1.872
	h-1.944V15.77h17.354v4.824h-1.584c-2.304,0-3.96,1.656-5.328,5.112l-7.993,20.018c-5.256,13.105-8.856,19.514-16.777,19.514
	c-5.977,0-10.081-4.032-10.081-9.073c0-3.816,2.448-6.409,5.904-6.409c2.952,0,4.968,2.016,4.968,4.752
	c0,2.664-1.728,4.32-4.824,4.32h-0.432c1.008,1.224,2.16,1.728,3.601,1.728c4.104,0,6.769-3.528,9.577-10.801L502.049,24.986z"/>
</svg>
