<?xml version="1.0" encoding="utf-8"?>
<!-- Generator: Adobe Illustrator 15.0.0, SVG Export Plug-In  -->
<!DOCTYPE svg PUBLIC "-//W3C//DTD SVG 1.1//EN" "http://www.w3.org/Graphics/SVG/1.1/DTD/svg11.dtd" [
	<!ENTITY ns_flows "http://ns.adobe.com/Flows/1.0/">
]>
<svg version="1.1"
	 xmlns="http://www.w3.org/2000/svg" xmlns:xlink="http://www.w3.org/1999/xlink" xmlns:a="http://ns.adobe.com/AdobeSVGViewerExtensions/3.0/"
	 x="0px" y="0px" width="72px" height="75px" viewBox="0 -3.09 72 75" overflow="visible" enable-background="new 0 -3.09 72 75"
	 xml:space="preserve">
<defs>
</defs>
<path d="M72.006,40.828l-14.401,2.376l-1.224,1.224v1.728l8.497,11.881l-6.84,6.841l-11.881-8.497h-1.728l-1.224,1.224
	l-2.376,14.401h-9.649l-2.376-14.401l-1.296-1.296h-1.872l-11.665,8.569l-6.841-6.841l8.425-11.809l0.072-1.872l-1.296-1.296
	L0,40.828v-9.649l14.329-2.376l1.296-1.296v-1.656L7.201,13.897l6.769-6.769l11.881,8.497h1.729l1.224-1.224L31.25,0h9.577
	l2.376,14.401l1.224,1.224h1.728l11.881-8.497l6.84,6.84l-8.497,11.881v1.728l1.224,1.224l14.401,2.376V40.828z M36.003,26.426
	c-5.256,0-9.577,4.32-9.577,9.577c0,5.256,4.32,9.577,9.577,9.577c5.257,0,9.577-4.32,9.577-9.577
	C45.58,30.747,41.26,26.426,36.003,26.426z"/>
</svg>
