<?xml version="1.0" standalone="no"?>
<!DOCTYPE svg PUBLIC "-//W3C//DTD SVG 1.1//EN" "http://www.w3.org/Graphics/SVG/1.1/DTD/svg11.dtd" >
<svg xmlns="http://www.w3.org/2000/svg">
<metadata></metadata>
<defs>
<font id="akzidenz-grotesk_bqregular" horiz-adv-x="1150" >
<font-face units-per-em="2048" ascent="1638" descent="-410" />
<missing-glyph horiz-adv-x="555" />
<glyph horiz-adv-x="2048" />
<glyph horiz-adv-x="2048" />
<glyph unicode="&#xd;" horiz-adv-x="2048" />
<glyph unicode=" "  horiz-adv-x="555" />
<glyph unicode="&#x09;" horiz-adv-x="555" />
<glyph unicode="&#xa0;" horiz-adv-x="555" />
<glyph unicode="!" horiz-adv-x="512" d="M164 0v283h268v-283h-268zM164 893v553h268v-553l-78 -533h-114z" />
<glyph unicode="&#x22;" horiz-adv-x="811" d="M68 1438q6 35 38.5 65.5t92.5 30.5q54 0 83 -27.5t35 -58.5q2 -20 0 -55l-96 -531h-55l-96 508q-6 52 -2 68zM494 1438q8 36 40 66t93 30q50 0 79 -26t35 -54q5 -21 2 -61l-96 -531h-55l-96 508q-5 44 -2 68z" />
<glyph unicode="#" horiz-adv-x="1366" d="M86 438v205h276l27 193h-258v204h285l55 406h213l-57 -406h200l56 406h207l-56 -406h242v-204h-268l-29 -193h252v-205h-277l-63 -438h-207l64 438h-203l-62 -438h-209l62 438h-250zM569 643h205l27 193h-203z" />
<glyph unicode="$" horiz-adv-x="1280" d="M72 272l207 158q60 -84 145 -139q56 -32 72 -35q19 -8 49 -10v391q-151 16 -239 59t-136 111q-59 90 -59 199q0 148 88 254q121 143 346 167v222h188v-222q271 -25 443 -223l-195 -153q-27 35 -57.5 61.5t-50 40t-53.5 26t-43.5 15t-43.5 10.5v-327q29 -4 72 -13 t119.5 -37.5t128.5 -66.5q147 -111 147 -311q0 -180 -119 -299q-70 -70 -155 -105q-73 -28 -193 -45v-233h-188v233q-76 14 -113 23t-88 30t-100 53q-60 42 -109 91q-19 19 -63 75zM379 1047q0 -61 41 -91q42 -33 125 -47v295q-2 0 -20.5 -4t-28.5 -8q-14 -5 -29 -13 t-37.5 -24.5t-36.5 -44.5t-14 -63zM733 242q36 5 62 16q137 57 135 176q0 38 -18 69.5t-39 48t-55 30.5t-47 17.5t-34 7.5q-1 0 -2 0.5t-2 0.5v-366z" />
<glyph unicode="%" horiz-adv-x="1792" d="M53 928q0 212 74 329q91 138 264 138q120 0 197.5 -69t109.5 -189q17 -74 21 -199q0 -108 -13.5 -187t-58.5 -149q-88 -141 -264 -141q-158 0 -250 125q-44 66 -61 143q-19 78 -19 199zM238 909q0 -151 36 -219q39 -69 115 -69q36 0 55 14q52 26 71.5 99.5t19.5 201.5 q0 150 -31 221q-21 45 -53.5 63.5t-63.5 18.5q-38 0 -65 -19t-37 -36q-47 -68 -47 -275zM487 -12l646 1401l139 -66l-643 -1399zM1075 459v15.5v22.5t0.5 25t2 30.5t3.5 32.5t6 36.5t9 36.5t12 38.5t16 38.5q91 185 291 185q150 0 236 -117q51 -69 71 -158q17 -71 19 -188 q0 -127 -19 -203q-6 -27 -16 -55t-35 -69t-57 -70.5t-86.5 -51.5t-120.5 -22q-176 0 -262 137q-44 69 -57 147.5t-13 188.5zM1260 444q0 -98 14 -165q18 -83 65 -115q35 -21 70 -21q24 0 53.5 13.5t50.5 44.5q43 62 43 250q0 170 -34 237q-21 40 -53 57t-60 17 q-29 0 -61.5 -17t-53.5 -59q-34 -69 -34 -242z" />
<glyph unicode="&#x26;" horiz-adv-x="1323" d="M88 377q0 74 27 145q24 62 73 117.5t83 80t114 76.5q5 4 8.5 6.5t7.5 4.5q-61 95 -61 213q0 141 84 233q90 103 250 103q70 0 143 -27q85 -36 138 -112t53 -168q0 -31 -7.5 -64t-26.5 -71.5t-48.5 -73t-79 -67t-111.5 -54.5q13 -24 31 -51.5t41 -60t35 -50.5 q65 -94 82 -113q16 23 28.5 48t19.5 42t12.5 42.5t7 35t4.5 34t3 26.5l236 -2q-3 -32 -12 -76q-59 -210 -154 -330q35 -36 64 -49.5t79 -13.5q9 0 45 4v-205q-65 -6 -100 -6q-71 0 -123.5 12.5t-78.5 27t-62 42.5q-31 -21 -56 -35t-69.5 -33t-100.5 -29t-120 -10 q-195 0 -320 101q-66 56 -102.5 137.5t-36.5 169.5zM336 393q0 -58 24 -96q22 -42 71.5 -78.5t129.5 -36.5q107 0 199 78l-248 363q-35 -17 -72 -45q-61 -48 -82.5 -92t-21.5 -93zM571 1055q0 -62 62 -154l37 12q13 4 28.5 12t39.5 24t39.5 44t15.5 62q0 48 -32.5 78 t-80.5 30t-79 -30.5t-30 -77.5z" />
<glyph unicode="'" horiz-adv-x="425" d="M90 1370q-5 50 0 74q10 42 48.5 66t82.5 24q50 0 78.5 -25t36.5 -53q5 -21 2 -63l-96 -531h-56z" />
<glyph unicode="(" horiz-adv-x="724" d="M96 713q0 239 107 440q32 59 74.5 122.5t131 160t191.5 174.5l70 -103q-35 -35 -62 -69q-166 -211 -211 -576q-14 -106 -14 -231q0 -109 12 -187q21 -118 73.5 -240t123.5 -210q33 -39 78 -78l-60 -102q-123 65 -252 213q-35 41 -63.5 78t-68 104.5t-65.5 136.5 t-45.5 166.5t-19.5 200.5z" />
<glyph unicode=")" horiz-adv-x="724" d="M55 -84q33 33 47 51q63 75 109.5 169t69.5 183.5t32.5 140.5t14.5 99q14 109 14 232q0 110 -12 188q-8 45 -23 101.5t-57.5 154.5t-99.5 172q-37 49 -95 100l60 103q106 -58 209 -166q305 -317 305 -733q0 -258 -129 -482q-136 -238 -375 -415z" />
<glyph unicode="*" horiz-adv-x="768" d="M72 1169l45 136l159 -52l66 -55l-31 84v164h144v-164l-37 -84l65 55l162 62l51 -131l-168 -66l-90 10l78 -49l111 -139l-111 -86l-110 137l-25 88l-19 -88l-100 -137l-115 86l101 139l63 39h-73z" />
<glyph unicode="+" horiz-adv-x="1366" d="M86 492v208h494v494h211v-494h489v-208h-489v-492h-211v492h-494z" />
<glyph unicode="," horiz-adv-x="425" d="M76 0v281h272v-248q0 -123 -12 -156q-12 -37 -37.5 -64t-46.5 -40q-15 -11 -29.5 -19t-33.5 -14t-29.5 -9t-35 -8.5t-32.5 -7.5v119q57 6 84 45.5t27 100.5v20h-127z" />
<glyph unicode="-" horiz-adv-x="724" d="M109 528v232h507v-232h-507z" />
<glyph unicode="." horiz-adv-x="425" d="M76 0v281h270v-281h-270z" />
<glyph unicode="/" horiz-adv-x="980" d="M27 0l686 1446h243l-686 -1446h-243z" />
<glyph unicode="0" d="M74 688q0 263 60.5 410.5t182.5 226.5q119 80 271 80q168 0 286 -98q64 -53 108 -125.5t64.5 -157.5t28.5 -161t8 -167q-1 -243 -52 -385.5t-152 -224.5q-126 -104 -304 -104q-240 0 -376 180q-63 82 -94 205.5t-31 320.5zM338 684q0 -131 14 -231l2 -11l3.5 -17.5t5 -22 t8 -27t10.5 -28t14.5 -29.5t18.5 -28.5t23 -27t28 -22.5q48 -31 115 -31q61 0 102 24q14 8 27 19t23 23.5t17.5 23.5t14.5 25.5t10 21.5t8 19l4 12q31 105 31 315q4 185 -31 301q-6 35 -30 82q-59 103 -172 103q-95 0 -150 -64q-51 -57 -73.5 -160.5t-22.5 -269.5z" />
<glyph unicode="1" d="M154 961v157h26q59 1 88 3.5t72.5 15.5t79.5 39q51 37 76.5 85t42.5 121h204v-1382h-251v791v26.5v24.5t-0.5 20t-1 19t-2 15.5t-4.5 15t-6.5 12t-8.5 12.5q-13 13 -30 18.5t-26.5 6t-35.5 0.5h-223z" />
<glyph unicode="2" d="M117 0v201q282 202 483 424q150 168 150 338q0 90 -47.5 148t-135.5 58q-73 0 -121 -43q-34 -31 -51.5 -82t-19.5 -85.5t-2 -95.5v-5v-5v-5l-256 24q-1 122 28 213.5t70 145.5q20 28 49.5 54.5t75 55.5t111 46.5t139.5 17.5q189 0 313 -113q64 -58 97.5 -144t31.5 -177 q0 -122 -53 -230q-20 -41 -49.5 -83.5t-52.5 -71t-69.5 -72.5t-65 -61t-76 -65t-68.5 -58q-107 -90 -147 -117h606v-213h-940z" />
<glyph unicode="3" d="M96 453h273q-9 -54 2 -97q6 -25 19 -48.5t36.5 -48t64 -39.5t91.5 -15q63 0 112 26q34 18 57 46t32.5 59t12.5 51t3 37q0 71 -37 123q-33 48 -84 64t-123 16h-27q-27 0 -39 -2v215q12 0 51 -1.5t58.5 -0.5t50 6.5t52.5 20t38 38.5q29 39 29 98q0 77 -49 127t-127 50 q-93 0 -146 -68q-51 -58 -53 -164l-270 58q6 34 12 59.5t25.5 73.5t45.5 84.5t74 76t109 64.5q101 43 211 43q48 0 105 -10q32 -6 63.5 -15.5t84.5 -36.5t91 -63t67 -99.5t29 -142.5q0 -175 -122 -252q-38 -27 -107 -45q108 -20 186 -104q76 -92 76 -229q0 -61 -15 -115 t-39 -93t-45 -64t-44 -44q-51 -43 -141 -76.5t-211 -33.5q-27 0 -58.5 3t-88.5 13t-114 38t-98 70q-123 123 -123 347z" />
<glyph unicode="4" d="M35 317v181l606 884h252v-854h178v-211h-178v-317h-252v317h-606zM299 528h342l14 549z" />
<glyph unicode="5" d="M76 387l284 19q3 -90 56.5 -147t142.5 -56q69 0 111 26q57 33 85.5 105.5t28.5 146.5q0 54 -16 105q-8 23 -21 45t-37 49t-64.5 44t-90.5 17q-20 0 -43 -4t-56.5 -15.5t-62.5 -40t-45 -69.5l-229 15l96 759h768l-20 -231h-537l-47 -305q9 9 19.5 18.5t13.5 12.5 q96 71 233 71q185 0 301 -129q117 -128 117 -329q0 -212 -123 -349q-143 -163 -393 -163q-194 0 -318 94q-75 59 -111 135.5t-42 175.5z" />
<glyph unicode="6" d="M98 651q0 35 2 74t9.5 116.5t29 159t54.5 146.5q39 77 96 131q127 127 321 127q177 0 297 -102q101 -87 127 -244l-262 -35q0 36 -12 66q-20 43 -60.5 66.5t-89.5 23.5q-33 0 -64.5 -9.5t-69 -44t-60.5 -90.5q-21 -51 -34 -134.5t-15 -149.5q29 39 61 63q97 76 229 76 q155 0 267 -103q127 -122 127 -327q0 -194 -113 -324q-139 -155 -352 -155q-156 0 -269 81q-69 50 -115.5 121.5t-75 189.5t-28.5 277zM389 434q0 -79 30.5 -129t69.5 -72q40 -22 101 -22q102 0 155 70q48 60 48 155q0 83 -37 139q-54 84 -160 84q-97 0 -152 -64t-55 -161z " />
<glyph unicode="7" d="M131 1145v241h918v-225q-72 -87 -138 -188q-86 -133 -142 -259t-103 -284q-65 -223 -82 -430h-338q13 95 33.5 187t49 176t56 155.5t66.5 145t66.5 124.5t70 115t63 94t59.5 83.5t46 64.5h-625z" />
<glyph unicode="8" d="M59 397q0 3 1 10.5t1 10.5q2 43 13 81t23.5 64.5t37 53t39 39.5t43.5 31t37 22t33 16q-53 27 -94 68q-84 96 -84 231q0 98 51 184q23 36 56.5 68.5t84.5 62.5t124.5 48t160.5 18q106 0 196 -29q30 -11 58 -24t70 -43.5t71.5 -67.5t51.5 -97t22 -130q0 -54 -13.5 -99.5 t-32 -74.5t-46 -54t-46.5 -37t-43 -24q54 -24 105 -72q108 -103 108 -254q0 -116 -57 -206q-53 -85 -169 -148t-290 -63q-120 0 -217 32q-30 10 -61 24t-75.5 46t-77.5 72t-57 103.5t-24 137.5zM348 406q0 -88 64 -144q62 -51 172 -51q99 0 164 50.5t65 146.5q0 43 -14.5 78 t-37 56t-42 32.5t-37.5 17.5q-54 14 -100 14q-69 0 -111 -16q-19 -8 -36.5 -19.5t-39 -33t-34.5 -55.5t-13 -76zM371 993q0 -78 49 -127q28 -26 61 -39q36 -14 103 -14q53 0 92 14q41 14 75.5 54.5t34.5 111.5q0 78 -45 127q-33 33 -63 43q-39 17 -98 17q-53 0 -88 -13 q-47 -15 -84 -55t-37 -119z" />
<glyph unicode="9" d="M102 332l281 39q8 -50 20 -76q15 -32 51.5 -59.5t96.5 -26.5q51 0 88 22q51 32 84.5 105.5t43.5 142.5t9 135q-25 -42 -82 -71q-85 -49 -194 -49q-149 0 -256 86q-142 121 -142 348q0 122 41 215q14 32 34.5 63.5t58 69t82.5 65t111.5 46t141.5 18.5q144 0 246 -64 q59 -38 103 -92q33 -42 53 -82q86 -161 86 -419q0 -321 -115 -519q-46 -81 -108 -137q-68 -59 -156 -86q-81 -24 -162 -24q-33 0 -67 5t-87.5 20t-105.5 53.5t-90 95.5q-45 70 -66 176zM369 952q0 -42 8 -82q5 -21 15 -43t30.5 -49.5t57 -45t83.5 -17.5q43 0 77.5 14 t54.5 36.5t31 42t17 38.5q13 35 13 94q0 58 -13 100q-17 56 -53.5 90t-67 43t-61.5 9q-50 0 -90 -25q-102 -55 -102 -205z" />
<glyph unicode=":" horiz-adv-x="512" d="M160 0v281h270v-281h-270zM160 760v282h270v-282h-270z" />
<glyph unicode=";" horiz-adv-x="512" d="M160 0v281h272v-263q0 -110 -12 -143q-41 -122 -246 -162l2 123q62 7 92 55q6 8 9.5 18t5.5 17t3 19t1 17v19.5v18.5h-127zM160 760v282h272v-282h-272z" />
<glyph unicode="&#x3c;" horiz-adv-x="1366" d="M0 614v213l1366 625v-231l-1083 -500l1083 -498v-229z" />
<glyph unicode="=" horiz-adv-x="1366" d="M0 299v211h1366v-211h-1366zM0 684v211h1366v-211h-1366z" />
<glyph unicode="&#x3e;" horiz-adv-x="1366" d="M0 -6v229l1081 498l-1081 500v231l1366 -625v-213z" />
<glyph unicode="?" d="M109 997q8 106 37 186t94 146q136 141 368 141q184 0 310 -86q56 -39 94.5 -88.5t55 -98.5t22.5 -84.5t6 -68.5q-2 -219 -203 -350q-77 -52 -105 -80t-41 -62.5t-14.5 -57t-1.5 -74.5q0 -33 2 -47h-241q0 144 10 217q19 115 76 172q24 24 75.5 58.5t69.5 49.5 q90 70 90 168q0 47 -20 88q-21 40 -71 75.5t-128 35.5q-108 0 -168 -70q-26 -28 -46.5 -79t-23.5 -119zM477 0v281h273v-281h-273z" />
<glyph unicode="@" horiz-adv-x="1835" d="M141 483q0 53 6.5 110.5t25 141t62.5 177t109 178.5q33 43 71.5 84t108.5 95.5t147 93.5t186.5 67t227.5 28q246 0 406 -129q203 -168 203 -465q0 -162 -60 -328t-168 -276q-121 -119 -254 -119q-14 0 -30.5 2.5t-43 10t-50 28t-37.5 51.5q-10 22 -17 64 q-1 -1 -8.5 -10.5t-11 -14t-12 -14t-15.5 -16.5t-18 -16.5t-23 -18.5q-92 -66 -186 -66q-57 0 -111 23q-70 33 -118 110t-48 207q0 139 57.5 277t159.5 223q108 87 222 84q113 0 182 -78q11 -12 20.5 -27t16 -27.5t8.5 -14.5l25 104h161l-67 -317q-58 -278 -58 -345 q0 -73 54 -73q36 2 81 41.5t87 109.5q47 76 75.5 171t34.5 150t6 101q0 123 -41 211q-30 68 -80.5 118t-98.5 74.5t-106.5 38.5t-90.5 16.5t-64 2.5q-45 0 -94 -7t-116.5 -26t-143 -61.5t-144.5 -104.5q-136 -122 -212 -290t-76 -349q0 -134 47 -250q36 -89 100.5 -157.5 t145 -109.5t170 -62t184.5 -21q253 0 491 152q113 71 185 147l82 -104q-337 -332 -752 -332q-183 0 -356 70q-214 87 -322 256q-115 167 -115 411zM670 492q0 -121 69 -168q35 -25 80 -25q37 0 85.5 26.5t88.5 82.5q38 52 61.5 122.5t29.5 113t6 71.5q0 39 -11 80 q-21 64 -62 89t-83 25q-49 0 -103 -35q-74 -53 -117.5 -166.5t-43.5 -215.5z" />
<glyph unicode="A" horiz-adv-x="1323" d="M12 0l490 1446h307l494 -1446h-289l-84 283h-543l-84 -283h-291zM459 520h399l-199 666z" />
<glyph unicode="B" horiz-adv-x="1409" d="M164 0v1446h518q145 0 217 -6q162 -14 258 -117q92 -98 92 -231q0 -22 -4 -48.5t-15.5 -67t-40.5 -80t-71 -65.5q-37 -24 -108 -38q69 -15 110 -39q33 -17 63 -42t62.5 -65t52 -101.5t19.5 -135.5q0 -112 -48 -201.5t-143 -142.5q-36 -21 -73 -34.5t-84 -19.5t-72 -8 t-87 -3t-79 -1h-567zM432 233h303q110 0 151 10q68 16 109 64q45 50 45 127q0 28 -6 57t-34 70.5t-76 65.5q-35 18 -90 25.5t-95.5 8.5t-154.5 1h-152v-429zM432 864h94q24 1 99.5 1.5t117.5 2.5q62 4 106 17t77 49q45 45 45 113q0 56 -35 100q-11 14 -24.5 25.5t-31 19 t-29.5 13.5t-35 9.5t-33.5 6t-37.5 3.5t-33.5 1h-36.5h-32h-211v-361z" />
<glyph unicode="C" horiz-adv-x="1409" d="M76 727q0 285 133 475q25 36 54 68.5t79.5 73t108 70t139.5 49.5t172 20q79 0 150 -15.5t121.5 -38.5t95 -55.5t71.5 -61t49 -59.5q58 -86 101 -217l-269 -69q-7 59 -37 114q-40 75 -115 115q-71 39 -155 39h-8q-87 0 -168 -39q-43 -21 -81 -57.5t-72.5 -91.5t-55 -136 t-20.5 -178q0 -210 86 -342q46 -67 104 -106q96 -66 211 -66q159 0 266 131q19 23 58 88q10 22 26 72l256 -107q-50 -120 -108 -194q-195 -246 -516 -246q-155 0 -291 62q-54 26 -103.5 61.5t-102.5 96t-91 134.5t-63 180.5t-25 229.5z" />
<glyph unicode="D" horiz-adv-x="1449" d="M145 0v1446h519q124 0 208 -16q33 -6 69 -18.5t85.5 -36.5t100.5 -66t94 -97q149 -199 149 -501q0 -112 -22.5 -213.5t-69 -193t-128 -161t-189.5 -104.5q-36 -11 -69 -18.5t-76.5 -11t-61.5 -5t-77.5 -3t-70.5 -1.5h-461zM416 244h71q218 0 297 12q139 22 213 113 q86 110 86 344q0 271 -139 395q-72 58 -151 78q-25 6 -50 9.5t-43.5 4t-62.5 1t-78 1.5h-143v-958z" />
<glyph unicode="E" horiz-adv-x="1280" d="M160 0v1446h1028v-242h-762v-340h698v-233h-698v-387h813v-244h-1079z" />
<glyph unicode="F" d="M166 0v1446h956v-242h-688v-360h604v-232h-604v-612h-268z" />
<glyph unicode="G" horiz-adv-x="1536" d="M94 709q0 143 43 279.5t127 242.5q31 39 71.5 75.5t106.5 80t158 70t195 26.5q122 0 237 -43q266 -105 371 -383l-258 -103q-8 24 -14 38.5t-22.5 48t-33 56t-45.5 51.5t-61.5 47t-78 31t-97.5 13q-157 0 -261 -104q-143 -147 -143 -418q0 -277 166 -416q100 -82 244 -82 q110 0 197.5 53t127.5 152q22 53 31 129h-360v238h608v-791h-232l-2 123q-89 -83 -183 -121.5t-214 -38.5q-277 0 -463 182q-37 37 -70 83.5t-68 116t-56 164t-21 200.5z" />
<glyph unicode="H" horiz-adv-x="1492" d="M164 0v1446h272v-545h621v545h272v-1446h-272v657h-621v-657h-272z" />
<glyph unicode="I" horiz-adv-x="598" d="M164 0v1446h266v-1446h-266z" />
<glyph unicode="J" horiz-adv-x="811" d="M53 -12v266q97 -21 144 -21q72 0 131 31q14 8 25.5 18.5t19.5 20t15 24.5t11 24.5t7 29t4.5 27.5t2.5 30t1 28v29.5v26.5v924h266v-1098q-5 -97 -29 -155q-18 -45 -49 -82q-120 -142 -381 -142q-84 0 -168 19z" />
<glyph unicode="K" horiz-adv-x="1366" d="M164 0v1446h268v-664l580 664h317l-473 -545l506 -901h-309l-385 680l-236 -270v-410h-268z" />
<glyph unicode="L" horiz-adv-x="1067" d="M168 0v1446h272v-1200h574v-246h-846z" />
<glyph unicode="M" horiz-adv-x="1662" d="M156 0v1446h393l282 -1073l279 1073h391v-1446h-264l27 1188l-314 -1188h-243l-314 1188l27 -1188h-264z" />
<glyph unicode="N" horiz-adv-x="1449" d="M168 0v1446h244l641 -1020l-33 1020h266v-1446h-237l-633 1014l16 -1014h-264z" />
<glyph unicode="O" horiz-adv-x="1579" d="M98 721q0 144 43 280q73 219 248 350.5t404 131.5q80 0 154 -17t127 -41t101.5 -57.5t76.5 -60t53 -54.5q180 -204 180 -530q-8 -342 -201 -553q-110 -116 -246 -166q-115 -41 -252 -41q-155 0 -275 53.5t-220 169.5q-193 220 -193 535zM377 731q0 -23 1.5 -44.5t6.5 -67 t18.5 -87.5t34.5 -90t58.5 -91t85.5 -75q94 -61 213 -61q90 0 166 35q45 21 84.5 53t78.5 84t63 131t25 176v28q0 186 -86 322q-118 191 -335 191q-96 0 -185 -43q-42 -23 -79.5 -58.5t-72.5 -90t-56 -135.5t-21 -177z" />
<glyph unicode="P" horiz-adv-x="1280" d="M168 0v1446h487q26 2 52.5 2t52.5 -2q246 -16 375 -168q108 -126 108 -313q0 -80 -18.5 -148t-49.5 -115t-61 -77.5t-63 -51.5q-85 -55 -177 -69q-81 -13 -193 -12h-32h-211v-492h-270zM438 713h195q39 0 57 2q174 5 236 106q39 70 39 152q0 76 -33 135q-15 26 -34.5 45 t-45 30t-47 17.5t-54.5 9.5t-52 3.5t-54 0.5h-207v-501z" />
<glyph unicode="Q" horiz-adv-x="1579" d="M74 723q0 317 172 526q194 234 516 234q257 0 436 -146q127 -101 191.5 -260t64.5 -332q0 -86 -19.5 -191.5t-52.5 -182.5l-32 -64q12 -26 36 -45q31 -24 87.5 -43.5t95.5 -19.5q10 0 28 4l-75 -260q-4 1 -15 4t-23.5 6.5t-25.5 7.5q-112 44 -246 160q-59 -51 -130.5 -86 t-137.5 -49t-108.5 -18.5t-79.5 -4.5q-77 0 -148.5 15t-123 37t-98 52.5t-74.5 56t-52 52.5q-32 36 -61.5 83t-59 115t-47.5 158.5t-18 190.5zM362 715q0 -89 25 -174q40 -141 143 -230.5t246 -89.5q155 0 254 111q52 57 92.5 157.5t40.5 235.5q0 24 -1.5 46.5t-7 66.5 t-19.5 85t-36 86t-60 86.5t-87 71.5q-105 58 -196 58q-156 0 -264 -125q-130 -155 -130 -385z" />
<glyph unicode="R" horiz-adv-x="1323" d="M166 0v1446h592q113 -7 179 -28q130 -44 210 -148q88 -116 88 -283q0 -89 -27 -162q-11 -27 -28 -55.5t-46.5 -64t-77.5 -66.5t-106 -49l322 -590h-309l-285 537h-244v-537h-268zM434 762h96q191 2 241 10q49 8 81 25q109 61 109 192q0 120 -91 180q-36 24 -84 33.5 t-133 9.5h-219v-450z" />
<glyph unicode="S" horiz-adv-x="1366" d="M47 272l227 158q145 -217 449 -217q63 0 106 10q13 3 30 8t43.5 19t47 32.5t36 50.5t15.5 70q0 52 -26 86q-12 16 -32 29.5t-38 22t-48.5 17.5t-46 13t-48.5 11t-39 8l-172 39q-156 34 -219 67q-33 17 -62.5 39.5t-65.5 62t-57.5 100.5t-21.5 134q0 120 55 213 q27 45 68.5 84.5t103 75.5t150.5 57t194 21q367 0 584 -293l-223 -166q-134 215 -375 215q-14 0 -27 -0.5t-50.5 -6.5t-67 -16t-62 -33t-49.5 -55q-16 -37 -16 -65q0 -36 18 -66q24 -41 80.5 -63t167.5 -43l149 -33q129 -27 224.5 -67.5t160.5 -116.5q84 -92 84 -244 q0 -199 -141 -317q-172 -150 -473 -150q-358 0 -563 215q-46 49 -70 94z" />
<glyph unicode="T" d="M45 1202v244h1063v-244h-399v-1202h-271v1202h-393z" />
<glyph unicode="U" horiz-adv-x="1492" d="M164 586v860h272v-889v-34q0 -39 2 -62q2 -32 13 -64q54 -172 297 -172q16 0 30.5 1t47 5t60.5 15t59 27.5t56 46.5t39 69q11 33 14 67t5 115v875h270v-834v-51v-47v-39t-1 -37.5t-2 -30.5t-3 -31t-4.5 -26t-6 -28.5t-7.5 -26.5q-15 -46 -43 -90.5t-76 -89t-109.5 -77.5 t-149.5 -54t-190 -21q-302 0 -458 172q-63 63 -93 156q-5 16 -8.5 30.5t-5.5 34t-3.5 33t-2.5 41t-1 42.5t-0.5 54t-0.5 60z" />
<glyph unicode="V" horiz-adv-x="1236" d="M16 1446h285l324 -1141l315 1141h279l-412 -1446h-365z" />
<glyph unicode="W" horiz-adv-x="1705" d="M25 1446h276l197 -1102l225 1102h252l229 -1102l203 1102h279l-318 -1446h-315l-203 1006l-209 -1006h-315z" />
<glyph unicode="X" horiz-adv-x="1323" d="M18 0l486 784l-416 662h311l263 -414l251 414h314l-408 -662l490 -784h-310l-337 535l-330 -535h-314z" />
<glyph unicode="Y" horiz-adv-x="1280" d="M20 1446h308l313 -598l315 598h304l-488 -875v-571h-268v571z" />
<glyph unicode="Z" horiz-adv-x="1236" d="M49 0v221l791 983h-723v242h1061v-229l-760 -973h760v-244h-1129z" />
<glyph unicode="[" horiz-adv-x="724" d="M125 -119v1673h543v-196h-277v-1276h277v-201h-543z" />
<glyph unicode="\" horiz-adv-x="724" d="M29 1446h211l467 -1483h-209z" />
<glyph unicode="]" horiz-adv-x="724" d="M55 80h277v1276h-277v198h543v-1673h-543v199z" />
<glyph unicode="^" horiz-adv-x="1492" d="M262 662l400 784h186l383 -784h-242l-239 503l-248 -503h-240z" />
<glyph unicode="_" horiz-adv-x="1024" d="M-20 -256h1064v-211h-1064v211z" />
<glyph unicode="`" horiz-adv-x="555" d="M-188 1446h305l104 -272h-182z" />
<glyph unicode="a" horiz-adv-x="1110" d="M53 297q6 166 140 256q39 27 87.5 45t76 24t94.5 19q199 41 282 70q0 55 -14 84q-35 69 -162 69q-131 0 -180 -63q-27 -33 -27 -90l-250 14q7 150 111 236q112 94 338 94q218 0 330 -80q50 -36 73 -82q27 -53 27 -182v-545q0 -60 7.5 -89t37.5 -77h-291l-6 80 q-43 -37 -94 -57q-105 -48 -207 -48q-30 0 -61 4t-83.5 17.5t-101.5 48.5t-82 88q-45 76 -45 164zM313 307q0 -51 41 -86t127 -35q91 0 154 37t84 80q15 29 15 74q0 10 -1 20v113q-72 -35 -194 -57q-3 -1 -31.5 -4.5t-37.5 -5.5t-30.5 -6.5t-36.5 -11t-30 -15.5 q-60 -39 -60 -103z" />
<glyph unicode="b" horiz-adv-x="1193" d="M131 0v1446h244l2 -508q13 13 33 29q115 88 260 88q170 0 297 -129q153 -158 153 -408q0 -154 -63.5 -286.5t-188.5 -202.5q-106 -60 -213 -60q-127 0 -235 92q-24 21 -45 45v-106h-244zM373 530q0 -198 104 -278q70 -49 146 -49q44 0 95.5 21.5t90.5 80.5q47 75 59 217 q0 127 -55 205q-33 49 -87 76.5t-114 27.5q-95 0 -159 -67q-80 -82 -80 -234z" />
<glyph unicode="c" horiz-adv-x="1024" d="M49 512q0 201 111 344q23 31 54 60t80.5 63t120.5 55t152 21q104 0 191 -37q64 -27 134.5 -88.5t115.5 -165.5l-220 -102q-18 61 -61 104q-70 70 -172 70q-108 0 -176 -80q-76 -88 -76 -238q0 -65 14 -112q24 -93 87.5 -150t156.5 -57q48 0 88.5 16t65.5 37.5t45 51 t29.5 50t17.5 39.5q1 2 1.5 3.5t0.5 2.5l209 -110q-27 -73 -66 -125q-68 -93 -174 -144t-223 -51q-108 0 -213 47q-77 35 -134.5 92t-86.5 111t-46.5 117.5t-21.5 102t-4 73.5z" />
<glyph unicode="d" horiz-adv-x="1193" d="M74 492q0 90 18.5 169.5t48 136.5t68.5 103t76 74t75 45q83 35 179 35q104 0 186 -45q25 -14 51 -33q8 -6 16 -14t14 -15l7 -8v506h244v-1446h-244v98q-5 -5 -14.5 -16t-14.5 -16q-102 -97 -256 -97q-100 0 -190 43q-47 22 -89 56.5t-83.5 90.5t-66.5 142t-25 191z M330 518q0 -9 1 -26t1 -25q6 -55 22 -101t43.5 -86.5t72.5 -63.5t103 -23q99 0 160 69q78 87 78 235v11q0 133 -45 211q-15 30 -53 63q-60 45 -138 45q-68 0 -124 -36q-41 -26 -68 -68t-37 -87t-13 -70.5t-3 -47.5z" />
<glyph unicode="e" d="M70 518q0 140 45 246q16 36 37.5 70t62 76t89 72.5t122 51.5t158.5 21q81 0 150.5 -19t118 -51t80 -62.5t54.5 -64.5q92 -141 100 -395h-757q12 -93 65 -156q80 -98 223 -98q145 0 234 94q16 16 35 47l209 -121q-36 -52 -95 -106q-26 -24 -59 -47t-84 -49t-119.5 -42 t-142.5 -16q-219 0 -367 137q-159 151 -159 412zM338 643l479 2q-9 55 -20 82q-61 131 -209 131q-58 0 -103 -18q-40 -16 -70 -44t-45 -60t-22 -52.5t-10 -40.5z" />
<glyph unicode="f" horiz-adv-x="641" d="M8 850v174h154v119q0 85 6 119q16 93 91 139.5t233 46.5q61 0 139 -10v-209q-18 6 -78 6q-43 0 -73 -9.5t-43.5 -25t-21.5 -35.5t-7 -41t0 -41v-59h223v-174h-223v-850h-246v850h-154z" />
<glyph unicode="g" horiz-adv-x="1193" d="M70 547q0 132 34 219q52 133 167.5 211t260.5 78q127 0 218 -66q42 -31 71 -74v109h244v-842q-1 -18 -1 -37t1 -37v-21q0 -27 -1 -56q-3 -40 -8.5 -76.5t-20 -73.5t-36.5 -67q-51 -70 -158 -113t-270 -43q-297 0 -405 154q-39 58 -64 168l271 -3q10 -33 24 -51 q52 -76 185 -76q160 0 213 97q4 8 7.5 16.5t6 15.5t4.5 18t3.5 17.5t2.5 20.5t1.5 20.5t0.5 24.5v25.5v30v32.5q-123 -109 -309 -109q-108 0 -186 37q-46 20 -87 52t-81 84.5t-64 133.5t-24 181zM322 553q0 -122 65 -195q33 -33 66 -49q52 -26 122 -26q118 0 183 69 q69 69 69 193q0 68 -16 114q-8 26 -21.5 51.5t-40 56.5t-72.5 50t-104 19q-111 0 -182 -78q-69 -75 -69 -205z" />
<glyph unicode="h" horiz-adv-x="1193" d="M129 0v1446h246v-526q31 36 98 75q102 60 225 60q90 0 172 -34t131 -101q30 -42 44.5 -94.5t17 -89.5t2.5 -103v-633h-242v563q0 8 -0.5 30t-0.5 30.5t-2 27.5t-4 28.5t-7 25.5t-11.5 26.5t-16.5 23t-23 23.5q-48 43 -127 43q-124 0 -203 -98q-34 -42 -45 -86 q-8 -31 -8 -88v-549h-246z" />
<glyph unicode="i" horiz-adv-x="512" d="M133 0v1024h244v-1024h-244zM133 1184v248h244v-248h-244z" />
<glyph unicode="j" horiz-adv-x="512" d="M2 -106q2 0 14 1t24 3t28 7t28 13q9 5 15.5 11.5t11 12t7.5 16t4.5 15.5t2 20.5t0.5 21.5v27v30v952h242v-1108v-9.5v-13t-0.5 -15t-1.5 -17.5t-3 -18t-5 -19.5t-7 -19.5t-9.5 -20.5t-13.5 -19t-17 -18.5q-35 -33 -103 -56.5t-160 -23.5q-21 0 -57 4v224zM137 1186v250 h242v-250h-242z" />
<glyph unicode="k" horiz-adv-x="1110" d="M131 0v1446h244v-813l399 391h313l-391 -391l430 -633h-299l-309 459l-143 -142v-317h-244z" />
<glyph unicode="l" horiz-adv-x="512" d="M133 0v1446h250v-1446h-250z" />
<glyph unicode="m" horiz-adv-x="1792" d="M129 0v1024h246l2 -115q17 24 33 37q39 37 116.5 73t171.5 36q90 0 166.5 -40.5t118.5 -115.5q41 52 94 88q101 68 236 68q124 0 215.5 -56.5t122.5 -171.5q14 -55 14 -180v-647h-244v627q-10 198 -172 198q-43 0 -94.5 -22.5t-87.5 -81.5q-22 -35 -33.5 -79t-13.5 -76.5 t-2 -84.5v-481h-244v573q-2 23 -2 68q0 92 -55 143q-43 39 -111 39q-71 0 -129 -49q-36 -31 -58 -71.5t-31 -92t-11 -87.5t-2 -93v-430h-246z" />
<glyph unicode="n" d="M129 0v1024h248v-121q16 24 45 53q43 41 105.5 65t99 29t65.5 5q101 0 170.5 -39t102.5 -86q12 -17 21.5 -38t15.5 -37t10.5 -43.5t7 -40.5t3.5 -45.5t1 -40.5v-44.5v-38.5v-602h-242v522q-3 132 -10 158q-10 42 -31 71t-47.5 41.5t-48 17.5t-43.5 5q-73 0 -129 -47 q-55 -46 -77 -119q-19 -64 -19 -174v-31v-444h-248z" />
<glyph unicode="o" horiz-adv-x="1193" d="M72 516q0 125 45 229q14 36 36 72t63 80.5t91 78t126 56.5t163 23q120 0 225 -47q38 -16 74.5 -39.5t79 -66t74.5 -94t53 -128t22 -164.5q0 -128 -41 -229q-14 -37 -36 -73.5t-63 -82.5t-91 -80.5t-126 -58t-163 -23.5q-122 0 -231 47q-37 17 -72.5 41t-78.5 67.5t-75 96 t-53.5 130t-21.5 165.5zM328 522q0 -72 20 -139q9 -25 25 -51t45.5 -60t78 -55.5t107.5 -21.5q89 0 151 49q63 48 89 120q25 66 24 144v12q-5 130 -77 222t-199 92q-78 0 -139 -39q-50 -33 -87.5 -101t-37.5 -172z" />
<glyph unicode="p" horiz-adv-x="1193" d="M131 -334v1358h246v-92q117 123 280 123q200 0 328 -150q137 -163 137 -401q0 -203 -102 -346q-43 -60 -95.5 -100.5t-105 -58t-90 -24t-74.5 -6.5q-153 0 -278 115v-418h-246zM373 518q0 -66 14 -121q24 -89 86 -141.5t152 -52.5q72 0 127 37q118 78 118 276 q0 76 -18 131q-27 76 -90.5 124t-143.5 48q-64 0 -126 -37q-114 -80 -119 -264z" />
<glyph unicode="q" d="M51 502q0 119 33 219q47 145 164 239.5t266 94.5q140 0 231 -82q27 -24 52 -58v109h243v-1358h-243l-2 430q-24 -25 -44 -41.5t-56 -39t-84.5 -34.5t-106.5 -12q-203 0 -326 144q-127 152 -127 389zM303 504q0 -48 8.5 -91.5t27.5 -83.5t47.5 -69.5t70.5 -47t94 -17.5 q79 0 139 45q46 34 77 102q30 65 30 162v6q0 117 -52 197q-29 41 -63 67q-67 41 -133 41q-74 0 -133 -41q-113 -87 -113 -270z" />
<glyph unicode="r" horiz-adv-x="724" d="M131 0v1024h238v-145q27 53 61 84q28 28 67 46.5t76.5 26t60 9.5t40.5 1h20v-251q-17 0 -30.5 -0.5t-42 -4t-51.5 -10.5t-53 -21t-52.5 -33.5t-44 -50t-33.5 -69.5q-18 -57 -18 -168v-438h-238z" />
<glyph unicode="s" horiz-adv-x="1067" d="M45 154l184 149q28 -34 47 -51q40 -34 98.5 -54t90.5 -23t59 -3q121 0 174 61q27 27 27 60q0 22 -16 43q-6 8 -11.5 14t-14.5 10.5t-14.5 7.5t-19 6.5t-20.5 5t-27 5.5t-29 6q-22 5 -92 17.5t-108 21.5q-20 5 -30.5 8.5t-44 16t-56 25.5t-53.5 37.5t-50.5 51.5t-34 67 t-14.5 85q2 84 47 158q46 72 144 124t249 52q41 0 83.5 -5.5t107 -22.5t130.5 -59t120 -104l-174 -162q-20 44 -64 82q-85 74 -215 74q-80 0 -125 -31q-45 -30 -45 -75q1 -23 13 -40.5t20 -23.5q37 -27 176 -51q144 -26 166 -31q108 -24 162 -63q41 -30 76.5 -86t35.5 -138 q0 -75 -34 -139q-20 -39 -53 -73.5t-83.5 -67t-125.5 -51.5t-164 -19q-224 0 -394 105q-53 35 -98 80z" />
<glyph unicode="t" horiz-adv-x="641" d="M8 850v174h150v365h245v-365h220v-174h-220v-465q0 -4 -0.5 -22.5t0 -28.5t1.5 -27.5t3.5 -29t8 -24t12.5 -20.5q26 -30 94 -30q54 0 101 12v-207q-6 -1 -29 -4t-41 -5.5t-48 -4.5t-59 -2q-176 0 -245 82q-26 32 -31 59q-12 40 -12 195v522h-150z" />
<glyph unicode="u" horiz-adv-x="1193" d="M127 349v44.5v40.5v590h248v-553q-1 -16 -1 -32t1 -33q2 -34 8 -64.5t24.5 -58.5t49.5 -45q51 -31 118 -31q78 0 127 36.5t72 78.5q10 19 17 43t11 42.5t6.5 49t3 44.5t1 48t0.5 41v434h246v-1024h-246l-2 104q-140 -129 -330 -129q-204 0 -295 136q-12 18 -21.5 38.5 t-15.5 36t-10.5 42t-7 38t-3.5 44t-1 39.5z" />
<glyph unicode="v" horiz-adv-x="980" d="M27 1024h254l213 -705l208 705h256l-337 -1024h-263z" />
<glyph unicode="w" horiz-adv-x="1536" d="M35 1024h256l178 -700l190 700h220l188 -700l182 700h256l-307 -1024h-244l-184 653l-195 -653h-243z" />
<glyph unicode="x" horiz-adv-x="1024" d="M18 0l353 549l-312 475h289l168 -258l162 258h293l-309 -475l350 -549h-283l-213 324l-205 -324h-293z" />
<glyph unicode="y" horiz-adv-x="980" d="M25 1024h264l229 -764l193 764h252l-261 -893q-10 -37 -34 -111q-45 -151 -77 -212q-33 -65 -75 -99q-44 -36 -93 -48.5t-116 -12.5q-77 0 -145 14v213q34 -4 63 -4q84 0 127 35q30 28 43 74z" />
<glyph unicode="z" horiz-adv-x="1024" d="M63 0v188l553 617h-497v219h821v-190l-541 -617h541v-217h-877z" />
<glyph unicode="{" horiz-adv-x="724" d="M106 504v14q28 6 56 21q28 16 47.5 44t29 53t14 66.5t5 62.5t0.5 63v20v254q0 75 2 112q3 105 40 178t126 109q32 13 74.5 19.5t71 7.5t122.5 4v-14q-20 -4 -59 -17q-114 -37 -143 -151q-11 -45 -11 -176v-197q-2 -199 -9 -252q-12 -81 -50 -131q-42 -56 -135 -84 q81 -26 129 -74q44 -52 55 -117.5t12 -209.5v-43v-224v-33v-37.5t1 -32.5t4 -37t7.5 -32t11.5 -36t17 -31q7 -11 14.5 -20.5t16.5 -17.5t15.5 -13.5t18.5 -12t18 -9.5t21 -8.5t20 -7t23 -7t23 -7.5v-12q-111 0 -166 6q-113 15 -176 68q-16 13 -28.5 27.5t-21.5 34.5t-16 33 t-11.5 39.5t-7 36.5t-4 41.5t-2 37.5t-1 41t-0.5 36v351q0 65 -10.5 111.5t-44.5 88.5q-22 29 -53 47q-22 11 -46 17z" />
<glyph unicode="|" horiz-adv-x="468" d="M129 -512v2044h211v-2044h-211z" />
<glyph unicode="}" horiz-adv-x="724" d="M31 -500q65 16 103.5 36t68.5 63q29 44 35 88.5t6 156.5v199q2 199 9 251q12 81 50 132q40 54 137 82q-86 26 -129 76q-46 51 -57 116t-12 210v42v224q2 99 -5 146.5t-32 88.5q-6 10 -13.5 19.5t-13.5 16.5t-16 14t-15.5 11t-18 10t-17 8.5t-19.5 7.5t-19 6.5t-21.5 7 t-20.5 6.5v14q17 -1 50.5 -2t49.5 -2q82 -4 137.5 -17.5t104.5 -54.5q18 -15 32 -34t23.5 -34.5t16 -43t10.5 -40t6 -46t2.5 -42t1 -46.5t0.5 -42v-262q0 -8 -0.5 -39t0 -42.5t1.5 -38.5t4.5 -42.5t8.5 -37.5t13.5 -39.5t19.5 -34.5q23 -38 63 -60q15 -9 43 -18v-12 q-37 -11 -55 -23q-28 -16 -47.5 -44t-29 -53t-14 -66.5t-5 -62.5t-0.5 -63v-20v-254q0 -139 -8 -188q-25 -155 -158 -209q-13 -5 -26.5 -9.5t-24 -7t-28.5 -5t-28 -3.5t-34.5 -2t-36 -1.5t-44 -1.5t-48.5 -1v12z" />
<glyph unicode="~" horiz-adv-x="1492" d="M231 604q121 182 299 182q36 0 77.5 -10.5t68.5 -22t72 -32.5l71 -33l11 -5q11 -5 26 -11t33.5 -12.5t39.5 -10.5t38 -4q49 0 96 29t104 98l95 -182q-60 -65 -106 -97q-97 -69 -195 -69q-36 0 -76.5 11t-64.5 21.5t-70 32.5l-60 29q-100 47 -158 47q-35 0 -69 -14 q-29 -12 -55 -37.5t-78 -87.5z" />
<glyph unicode="&#xa1;" horiz-adv-x="512" d="M82 0v555l78 532h114l76 -532v-555h-268zM82 1163v283h268v-283h-268z" />
<glyph unicode="&#xa3;" horiz-adv-x="1280" d="M100 217q0 67 29 117q28 52 83.5 79t117.5 27q66 0 149 -28q6 21 6 32q0 54 -30 95q-5 7 -27 24h-266v217h164q-86 108 -86 248q0 176 122 277q145 118 347 118q123 0 229 -51q124 -59 173.5 -162.5t49.5 -255.5q0 -45 -2 -65h-266q10 45 10 86q0 49 -14 90 q-23 58 -75 93.5t-114 35.5q-45 0 -82 -16q-108 -53 -108 -174q0 -18 2.5 -36t8 -35t11.5 -32t14.5 -30t15 -25.5t15.5 -23t13.5 -18.5t11.5 -15l8 -9h252v-217h-160q13 -99 13 -147q0 -59 -13 -123q85 -60 142 -60q39 0 63 27q7 7 13 15t10.5 18t7.5 17.5t5.5 19.5t4 18.5 t2 20.5t1 18.5t1 20t0.5 18.5v49l265 -2q0 -69 -9 -143q-3 -25 -11.5 -63.5t-39 -110t-72.5 -109.5q-72 -63 -182 -63q-88 0 -160 32q-28 9 -76.5 34.5t-56.5 29.5q-6 -3 -28.5 -16t-29 -16.5t-26.5 -14t-29 -14t-27 -11t-30 -10.5t-29 -7t-32.5 -5.5t-32.5 -1.5 q-61 0 -113 22q-63 27 -98 84.5t-35 126.5zM295 205q0 -14 15 -29t42 -14q20 0 42.5 12.5t35.5 42.5q-45 35 -80 35q-27 0 -41 -15.5t-14 -31.5z" />
<glyph unicode="&#xa4;" horiz-adv-x="1366" d="M51 221l162 160q-26 38 -43 70.5t-35 100.5t-18 144q0 170 94 312l-158 159l158 158l158 -160q40 27 55 35q114 64 260 64q142 0 254 -62q4 -2 59 -35l158 158l160 -158l-160 -159q2 -3 16 -26t25 -42q53 -110 53 -246q0 -59 -9 -110t-27 -91.5t-30.5 -62.5t-31.5 -51 l164 -162l-160 -158l-162 164q-44 -31 -63 -39q-117 -57 -248 -57q-149 0 -252 61q-10 4 -61 35l-160 -160zM324 694q0 -82 30 -149q42 -97 133.5 -155t198.5 -58q70 0 152 33q95 45 148.5 134t55.5 197q0 66 -22 129q-38 105 -131.5 169.5t-206.5 64.5q-77 -3 -141 -29 q-103 -44 -160 -134t-57 -202z" />
<glyph unicode="&#xa6;" horiz-adv-x="468" d="M129 389h211v-780h-211v780zM129 631v780h211v-780h-211z" />
<glyph unicode="&#xa7;" horiz-adv-x="1323" d="M88 772q0 151 152 262q34 26 65 43q-42 42 -61 82t-19 96q0 126 103 209q111 90 297 90q37 0 82 -4.5t111.5 -17t143 -42.5t144.5 -73l-117 -172q-210 105 -342 105q-17 0 -80 -9q-41 -8 -55 -30q-12 -17 -12 -31q0 -9 2.5 -17.5t9 -16.5t12 -14t16 -12.5t16.5 -10.5 t18.5 -9.5t16.5 -7.5t17 -7l13 -5l190 -82q230 -102 317 -183q109 -97 109 -237q0 -74 -33.5 -146t-89.5 -122q-39 -34 -96 -62q22 -23 35 -39.5t31 -60t18 -88.5q0 -78 -53 -154q-108 -139 -357 -139q-126 0 -256 41q-143 44 -250 121l119 168q3 -2 10 -6 q196 -119 375 -119q39 0 70 10q34 11 50.5 32t16.5 42q-2 19 -14 37q-9 13 -22 22.5t-20.5 13.5t-37 16.5t-43.5 18.5q-16 7 -63 29t-74 33q-12 5 -50 21.5t-54 24t-49 23t-53 26.5t-46.5 27.5t-48.5 32.5q-164 129 -164 291zM348 807q0 -49 35 -86q6 -7 13.5 -13t14 -11.5 t16.5 -11.5t16.5 -10.5t20 -11t20.5 -10t24.5 -11.5t25.5 -12t30 -13.5t32 -14.5q180 -83 215 -100l61 -31q30 21 48 47q43 64 43 115q0 47 -23 79t-68 64q-21 14 -51.5 30t-59.5 29.5t-54.5 24.5t-42.5 18l-17 7q-109 43 -123 49l-55 22q-76 -23 -107 -88q-14 -23 -14 -61z " />
<glyph unicode="&#xa8;" horiz-adv-x="555" d="M-213 1202v244h231v-244h-231zM197 1202v244h233v-244h-233z" />
<glyph unicode="&#xa9;" horiz-adv-x="1705" d="M125 725q0 264 166 467q28 32 58.5 61.5t84 67.5t112 65.5t140.5 46.5t170 19q247 0 434 -141q35 -26 68 -57.5t76.5 -87t74.5 -117t53 -149t21 -181.5q-7 -280 -180 -479q-102 -118 -246 -182t-303 -64q-156 0 -297.5 61.5t-245.5 175.5q-186 203 -186 494zM190 723 q0 -131 50 -252q75 -187 244 -299.5t372 -112.5q95 0 211 35q203 67 325 239.5t124 387.5q0 227 -132 403q-24 32 -52 61.5t-77 68t-103.5 66t-132.5 47t-163 19.5q-223 0 -393 -126q-32 -23 -63 -51t-70.5 -78.5t-69 -106.5t-50 -135.5t-20.5 -165.5zM371 725 q0 180 100 311q24 32 54.5 60t78.5 59.5t116.5 50.5t147.5 19q78 0 144.5 -18t116.5 -50.5t77 -56t58 -56.5l-148 -139q-58 61 -115.5 91t-132.5 30q-74 0 -139 -33q-74 -37 -112.5 -109.5t-38.5 -158.5q0 -131 82 -214t212 -83q141 0 244 115l148 -135q-162 -179 -398 -179 q-218 0 -356.5 139t-138.5 357z" />
<glyph unicode="&#xab;" horiz-adv-x="894" d="M121 500v288l291 230v-230l-181 -147l181 -141v-228zM492 500v288l292 234v-234l-176 -145l176 -143v-230z" />
<glyph unicode="&#xac;" horiz-adv-x="1366" d="M0 496v211h1366v-707h-211v496h-1155z" />
<glyph unicode="&#xad;" horiz-adv-x="724" d="M109 528v232h507v-232h-507z" />
<glyph unicode="&#xae;" horiz-adv-x="1705" d="M125 725q0 264 166 467q28 32 58.5 61.5t84 67.5t112 65.5t140.5 46.5t170 19q175 0 328 -76t258 -217q144 -194 141 -440q0 -42 -6 -87t-22 -110t-53.5 -136.5t-92.5 -135.5q-68 -80 -151.5 -135.5t-163 -79.5t-135.5 -32.5t-105 -8.5q-249 0 -446 149q-34 27 -66 58 t-73.5 85.5t-71.5 115t-51 146t-21 177.5zM190 723q0 -131 50 -252q75 -187 244 -299.5t372 -112.5q112 0 223 39q198 70 317.5 241t121.5 382q0 223 -129 399q-24 32 -52 62t-78 69t-105 67t-134 48t-164 20q-223 0 -393 -126q-32 -23 -63 -51t-70.5 -78.5t-69 -106.5 t-50 -135.5t-20.5 -165.5zM528 266v928h318q129 0 179 -11q90 -19 140 -79q56 -70 56 -156q0 -79 -54 -141q-32 -32 -57 -47q-15 -8 -68 -29q41 -20 62 -41q19 -19 31.5 -49.5t17 -48.5t11 -62.5t7.5 -52.5q21 -131 66 -211h-223q-2 4 -6.5 13.5t-6.5 13.5q-9 21 -16.5 52 t-10.5 49t-9 60.5t-7 49.5q-11 69 -22.5 96.5t-40.5 46.5q-23 13 -45.5 16t-79.5 5h-47v-402h-195zM723 823h119q75 0 112.5 12t55.5 46q16 26 16 57q0 24 -14 55q-14 25 -42 37t-46 13t-58 1h-143v-221z" />
<glyph unicode="&#xb0;" horiz-adv-x="724" d="M10 1194q0 147 102.5 249.5t249.5 102.5q148 -1 250.5 -104.5t102.5 -249.5t-103.5 -249t-249.5 -103q-147 0 -249.5 104t-102.5 250zM215 1192q2 -62 44.5 -105t102.5 -43q61 0 104.5 44t43.5 104t-44 102.5t-104 42.5q-61 0 -104 -42.5t-43 -102.5z" />
<glyph unicode="&#xb1;" horiz-adv-x="1366" d="M86 0v211h1194v-211h-1194zM86 766v211h494v461h211v-461h489v-211h-489v-463h-211v463h-494z" />
<glyph unicode="&#xb4;" horiz-adv-x="555" d="M0 1174l102 272h304l-222 -272h-184z" />
<glyph unicode="&#xb5;" d="M131 762q0 84 19 129q5 11 14 23.5t31 27t49 14.5q31 0 53 -20q47 -41 47 -131q0 -56 -25 -268.5t-38 -284.5q33 -65 45 -82q60 -82 151 -82q38 0 83.5 24t82.5 81q67 103 78 290q4 43 4 133q0 8 -1 47.5t-0.5 68t2.5 67t8 68t16 46.5q27 43 81 43q44 0 68 -24 q27 -24 38 -67t11 -117q0 -134 -20 -254t-43 -185q-15 -46 -39 -88q33 -100 102 -100q36 0 60 32.5t24 92.5q0 29 -4 45l66 2q30 -69 30 -146q0 -73 -37 -121.5t-108 -48.5q-82 0 -139 76q-30 41 -41 86q-34 -52 -78 -88t-87.5 -52.5t-76 -23t-61.5 -6.5q-82 0 -150 45 q-36 24 -55 45q-7 7 -23 27q-7 -76 1 -144.5t30.5 -123.5t38.5 -85.5t41 -68.5q28 -44 37.5 -65.5t9.5 -44.5q-1 -39 -29.5 -65t-66.5 -26q-26 0 -56 15q-41 20 -71 86q-51 116 -51 340q0 201 24 354q-18 91 -29 210t-13.5 186.5t-2.5 107.5z" />
<glyph unicode="&#xb6;" horiz-adv-x="1366" d="M174 1022q0 72 19 135q26 93 89.5 161.5t153.5 100.5q78 27 197 27h489v-135h-71v-1653h-144v1653h-270v-1653h-143l-2 969q-83 19 -127 43q-33 18 -62 44t-60.5 67.5t-50 103.5t-18.5 137z" />
<glyph unicode="&#xb7;" horiz-adv-x="382" d="M33 596q0 33 14 68q19 41 60 67.5t86 26.5q65 0 111 -47.5t46 -112.5q0 -68 -48 -116t-114 -46q-66 0 -110.5 47t-44.5 113z" />
<glyph unicode="&#xb8;" horiz-adv-x="555" d="M-109 -188l205 213h92l-92 -119q38 3 79 -6.5t61 -18.5q31 -15 49 -43.5t18 -62.5q0 -42 -29 -78q-67 -78 -288 -78q-55 0 -84 2l2 64q1 0 9 -1t15 -1q42 -4 97 8l5 1l8 4t10 6t10 8.5t7 11t3 14.5q-1 16 -11.5 26.5t-31 15t-41 6t-52.5 1.5q-17 0 -41 -4v31z" />
<glyph unicode="&#xbb;" horiz-adv-x="894" d="M106 264v232l177 147l-177 141v232l293 -232v-288zM481 268v228l178 149l-178 139v230l291 -230v-288z" />
<glyph unicode="&#xbf;" d="M55 403q0 195 164 324q15 12 58 40.5t65 47.5q41 34 60.5 76.5t19.5 124.5q0 28 -6 59h241q3 -148 -12 -227q-19 -107 -74 -166q-25 -25 -74 -56.5t-67 -45.5q-94 -74 -94 -174q0 -37 20 -84q28 -54 83 -83.5t118 -29.5q112 0 174 78q57 72 62 192l247 -30 q-9 -133 -53 -222q-21 -44 -53.5 -83.5t-84.5 -80t-132 -64.5t-176 -24q-93 0 -181 27q-139 42 -222 149t-83 252zM399 1165v281h273v-281h-273z" />
<glyph unicode="&#xc0;" horiz-adv-x="1323" d="M12 0l490 1446h307l494 -1446h-289l-84 283h-543l-84 -283h-291zM379 1833h291l110 -248h-182zM459 520h399l-199 666z" />
<glyph unicode="&#xc1;" horiz-adv-x="1323" d="M12 0l490 1446h307l494 -1446h-289l-84 283h-543l-84 -283h-291zM459 520h399l-199 666zM547 1587l110 246h293l-221 -246h-182z" />
<glyph unicode="&#xc2;" horiz-adv-x="1323" d="M12 0l490 1446h307l494 -1446h-289l-84 283h-543l-84 -283h-291zM336 1583l207 250h239l215 -250h-247l-86 115l-86 -115h-242zM459 520h399l-199 666z" />
<glyph unicode="&#xc3;" horiz-adv-x="1323" d="M12 0l490 1446h307l494 -1446h-289l-84 283h-543l-84 -283h-291zM303 1575q1 2 3 18t5.5 38t7.5 36q5 16 12 31t24 41t37.5 45t53.5 33t72 14q32 0 72 -9.5t61.5 -18t32.5 -13.5q87 -35 121 -35q21 0 39 12q7 4 12.5 9t8.5 8.5t5.5 11l3.5 10.5t3.5 13l3.5 14l157 -2 q-16 -164 -102 -225q-38 -33 -105 -33q-58 0 -172 43q-90 37 -122 35q-21 0 -33 -6q-32 -17 -41 -70h-160zM459 520h399l-199 666z" />
<glyph unicode="&#xc4;" horiz-adv-x="1323" d="M12 0l490 1446h307l494 -1446h-289l-84 283h-543l-84 -283h-291zM350 1581v252h230v-252h-230zM459 520h399l-199 666zM760 1581v252h231v-252h-231z" />
<glyph unicode="&#xc5;" horiz-adv-x="1323" d="M12 0l490 1446h307l494 -1446h-289l-84 283h-543l-84 -283h-291zM459 520h399l-199 666zM461 1765q0 85 61 146t148 61q86 0 146.5 -62t60.5 -147q0 -86 -60.5 -146.5t-148.5 -60.5q-86 0 -146.5 60.5t-60.5 148.5zM582 1763q2 -35 27.5 -60.5t60.5 -25.5q36 2 60 27 t24 61q0 35 -25.5 59.5t-60.5 24.5t-60.5 -25.5t-25.5 -60.5z" />
<glyph unicode="&#xc6;" horiz-adv-x="2134" d="M12 0l856 1446h1186v-242h-754v-344h656v-237h-656v-377h785v-246h-1057v338h-508l-192 -338h-316zM657 582h371v661z" />
<glyph unicode="&#xc7;" horiz-adv-x="1409" d="M76 727q0 285 133 475q25 36 54 68.5t79.5 73t108 70t139.5 49.5t172 20q79 0 150 -15.5t121.5 -38.5t95 -55.5t71.5 -61t49 -59.5q58 -86 101 -217l-269 -69q-7 59 -37 114q-40 75 -115 115.5t-163 38.5q-87 0 -168 -39q-43 -21 -81 -57.5t-72.5 -91.5t-55 -136 t-20.5 -178q0 -210 86 -342q46 -67 104 -106q96 -66 211 -66q159 0 266 131q19 23 58 88q10 22 26 72l256 -107q-50 -120 -108 -194q-195 -246 -516 -246q-155 0 -291 62q-54 26 -103.5 61.5t-102.5 96t-91 134.5t-63 180.5t-25 229.5zM487 -188l207 213h92l-92 -119 q38 3 79 -6.5t61 -18.5q31 -15 49 -43.5t18 -62.5q0 -42 -29 -78q-69 -78 -288 -78q-57 0 -84 2v64q2 0 10.5 -1t15.5 -1q41 -4 95 8l5 1l8 4t10 6t10 8.5t7 11t3 14.5q0 16 -10.5 26.5t-31.5 15t-41.5 6t-52.5 1.5q-13 0 -41 -4v31z" />
<glyph unicode="&#xc8;" horiz-adv-x="1280" d="M160 0v1446h1028v-242h-762v-340h698v-233h-698v-387h813v-244h-1079zM356 1833h291l113 -248h-185z" />
<glyph unicode="&#xc9;" horiz-adv-x="1280" d="M160 0v1446h1028v-242h-762v-340h698v-233h-698v-387h813v-244h-1079zM526 1587l109 246h295l-221 -246h-183z" />
<glyph unicode="&#xca;" horiz-adv-x="1280" d="M160 0v1446h1028v-242h-762v-340h698v-233h-698v-387h813v-244h-1079zM315 1583l207 250h240l215 -250h-248l-88 115l-86 -115h-240z" />
<glyph unicode="&#xcb;" horiz-adv-x="1280" d="M160 0v1446h1028v-242h-762v-340h698v-233h-698v-387h813v-244h-1079zM322 1581v252h229v-252h-229zM731 1581v252h234v-252h-234z" />
<glyph unicode="&#xcc;" horiz-adv-x="598" d="M16 1833h291l111 -248h-182zM164 0v1446h266v-1446h-266z" />
<glyph unicode="&#xcd;" horiz-adv-x="598" d="M164 0v1446h266v-1446h-266zM184 1587l111 246h293l-221 -246h-183z" />
<glyph unicode="&#xce;" horiz-adv-x="598" d="M-27 1583l207 250h240l215 -250h-248l-86 115l-86 -115h-242zM164 0v1446h266v-1446h-266z" />
<glyph unicode="&#xcf;" horiz-adv-x="598" d="M-20 1581v252h229v-252h-229zM164 0v1446h266v-1446h-266zM389 1581v252h234v-252h-234z" />
<glyph unicode="&#xd1;" horiz-adv-x="1449" d="M168 0v1446h244l641 -1020l-33 1020h266v-1446h-237l-633 1014l16 -1014h-264zM367 1575q1 2 3 18t6 37.5t9 36.5q4 14 11 30.5t23.5 42t37 44.5t53.5 33t72 14q72 0 168 -41q84 -35 118 -35q21 0 39 12q7 4 12.5 9t8.5 8.5t5.5 11l3.5 10.5t3.5 13l3.5 14l160 -2 q-16 -161 -105 -225q-38 -33 -104 -33q-58 0 -172 43q-91 37 -123 35q-21 0 -33 -6q-28 -14 -41 -70h-159z" />
<glyph unicode="&#xd2;" horiz-adv-x="1579" d="M98 721q0 144 43 280q73 219 248 350.5t404 131.5q80 0 154 -17t127 -41t101.5 -57.5t76.5 -60t53 -54.5q180 -204 180 -530q-8 -342 -201 -553q-110 -116 -246 -166q-115 -41 -252 -41q-155 0 -275 53.5t-220 169.5q-193 220 -193 535zM377 731q0 -23 1.5 -44.5t6.5 -67 t18.5 -87.5t34.5 -90t58.5 -91t85.5 -75q94 -61 213 -61q90 0 166 35q45 21 84.5 53t78.5 84t63 131t25 176q7 204 -86 350q-118 191 -335 191q-96 0 -185 -43q-42 -23 -79.5 -58.5t-72.5 -90t-56 -135.5t-21 -177zM506 1833h291l110 -248h-182z" />
<glyph unicode="&#xd3;" horiz-adv-x="1579" d="M98 721q0 144 43 280q73 219 248 350.5t404 131.5q80 0 154 -17t127 -41t101.5 -57.5t76.5 -60t53 -54.5q180 -204 180 -530q-8 -342 -201 -553q-110 -116 -246 -166q-115 -41 -252 -41q-155 0 -275 53.5t-220 169.5q-193 220 -193 535zM377 731q0 -23 1.5 -44.5t6.5 -67 t18.5 -87.5t34.5 -90t58.5 -91t85.5 -75q94 -61 213 -61q90 0 166 35q45 21 84.5 53t78.5 84t63 131t25 176q7 204 -86 350q-118 191 -335 191q-96 0 -185 -43q-42 -23 -79.5 -58.5t-72.5 -90t-56 -135.5t-21 -177zM676 1587l108 246h293l-219 -246h-182z" />
<glyph unicode="&#xd4;" horiz-adv-x="1579" d="M98 721q0 144 43 280q73 219 248 350.5t404 131.5q80 0 154 -17t127 -41t101.5 -57.5t76.5 -60t53 -54.5q180 -204 180 -530q-8 -342 -201 -553q-110 -116 -246 -166q-115 -41 -252 -41q-155 0 -275 53.5t-220 169.5q-193 220 -193 535zM377 731q0 -23 1.5 -44.5t6.5 -67 t18.5 -87.5t34.5 -90t58.5 -91t85.5 -75q94 -61 213 -61q90 0 166 35q45 21 84.5 53t78.5 84t63 131t25 176q7 204 -86 350q-118 191 -335 191q-96 0 -185 -43q-42 -23 -79.5 -58.5t-72.5 -90t-56 -135.5t-21 -177zM465 1583l205 250h241l215 -250h-247l-88 115l-86 -115 h-240z" />
<glyph unicode="&#xd5;" horiz-adv-x="1579" d="M98 721q0 144 43 280q73 219 248 350.5t404 131.5q80 0 154 -17t127 -41t101.5 -57.5t76.5 -60t53 -54.5q180 -204 180 -530q-8 -342 -201 -553q-110 -116 -246 -166q-115 -41 -252 -41q-155 0 -275 53.5t-220 169.5q-193 220 -193 535zM377 731q0 -23 1.5 -44.5t6.5 -67 t18.5 -87.5t34.5 -90t58.5 -91t85.5 -75q94 -61 213 -61q90 0 166 35q45 21 84.5 53t78.5 84t63 131t25 176q7 204 -86 350q-118 191 -335 191q-96 0 -185 -43q-42 -23 -79.5 -58.5t-72.5 -90t-56 -135.5t-21 -177zM432 1575q0 36 17 92q4 14 11 30.5t23 42t36.5 44.5 t53.5 33t72 14q72 0 168 -41q87 -35 119 -35q21 0 39 12q7 4 12.5 9t8.5 8.5t5.5 11l3.5 10.5t3.5 13l3.5 14l159 -2q-16 -164 -102 -225q-42 -33 -107 -33q-58 0 -172 43q-88 37 -120 35q-23 0 -35 -6q-28 -16 -41 -70h-158z" />
<glyph unicode="&#xd6;" horiz-adv-x="1579" d="M98 721q0 144 43 280q73 219 248 350.5t404 131.5q80 0 154 -17t127 -41t101.5 -57.5t76.5 -60t53 -54.5q180 -204 180 -530q-8 -342 -201 -553q-110 -116 -246 -166q-115 -41 -252 -41q-155 0 -275 53.5t-220 169.5q-193 220 -193 535zM377 731q0 -23 1.5 -44.5t6.5 -67 t18.5 -87.5t34.5 -90t58.5 -91t85.5 -75q94 -61 213 -61q90 0 166 35q45 21 84.5 53t78.5 84t63 131t25 176q7 204 -86 350q-118 191 -335 191q-96 0 -185 -43q-42 -23 -79.5 -58.5t-72.5 -90t-56 -135.5t-21 -177zM471 1581v252h231v-252h-231zM881 1581v252h233v-252h-233 z" />
<glyph unicode="&#xd7;" horiz-adv-x="1366" d="M139 205l391 393l-391 393l152 152l391 -393l393 393l152 -152l-393 -393l393 -393l-152 -152l-393 393l-391 -393z" />
<glyph unicode="&#xd8;" horiz-adv-x="1579" d="M47 203l143 127q-12 21 -38 73q-58 132 -58 314q0 106 20.5 201t51.5 162.5t74.5 125.5t82 93.5t80.5 64.5q167 119 396 119q272 0 469 -197l127 113l121 -137l-136 -121q107 -198 107 -420q0 -122 -29 -229q-44 -169 -155.5 -301t-270.5 -189q-125 -39 -246 -39 q-81 0 -152.5 15.5t-118.5 35.5t-94 54t-70 56t-56 58l-131 -114zM365 745q0 -86 26 -180q4 -14 19 -43l665 594q-24 24 -41.5 38.5t-53.5 38t-82.5 35.5t-100.5 11q-104 0 -193 -51q-114 -62 -176.5 -184t-62.5 -259zM500 362q96 -151 284 -151q101 0 185 43q31 16 62 39.5 t65.5 63.5t60.5 88.5t43 117.5t17 146q0 134 -48 245z" />
<glyph unicode="&#xd9;" horiz-adv-x="1492" d="M164 586v860h272v-889q-1 -64 1.5 -96t13.5 -64q54 -172 297 -172q16 0 30.5 1t47 5t60.5 15t59 27.5t56 46.5t39 69q11 33 14 67t5 115v875h270v-834v-51v-47v-39t-1 -37.5t-2 -30.5t-3 -31t-4.5 -26t-6 -28.5t-7.5 -26.5q-15 -46 -43 -90.5t-76 -89t-109.5 -77.5 t-149.5 -54t-190 -21q-302 0 -458 172q-63 63 -93 156q-5 16 -8.5 30.5t-5.5 34t-3.5 33t-2.5 41t-1 42.5t-0.5 54t-0.5 60zM465 1833h289l112 -248h-184z" />
<glyph unicode="&#xda;" horiz-adv-x="1492" d="M164 586v860h272v-889q-1 -64 1.5 -96t13.5 -64q54 -172 297 -172q16 0 30.5 1t47 5t60.5 15t59 27.5t56 46.5t39 69q11 33 14 67t5 115v875h270v-834v-51v-47v-39t-1 -37.5t-2 -30.5t-3 -31t-4.5 -26t-6 -28.5t-7.5 -26.5q-15 -46 -43 -90.5t-76 -89t-109.5 -77.5 t-149.5 -54t-190 -21q-302 0 -458 172q-63 63 -93 156q-5 16 -8.5 30.5t-5.5 34t-3.5 33t-2.5 41t-1 42.5t-0.5 54t-0.5 60zM633 1587l108 246h295l-221 -246h-182z" />
<glyph unicode="&#xdb;" horiz-adv-x="1492" d="M164 586v860h272v-889q-1 -64 1.5 -96t13.5 -64q54 -172 297 -172q16 0 30.5 1t47 5t60.5 15t59 27.5t56 46.5t39 69q11 33 14 67t5 115v875h270v-834v-51v-47v-39t-1 -37.5t-2 -30.5t-3 -31t-4.5 -26t-6 -28.5t-7.5 -26.5q-15 -46 -43 -90.5t-76 -89t-109.5 -77.5 t-149.5 -54t-190 -21q-302 0 -458 172q-63 63 -93 156q-5 16 -8.5 30.5t-5.5 34t-3.5 33t-2.5 41t-1 42.5t-0.5 54t-0.5 60zM422 1583l207 250h239l215 -250h-247l-86 115l-88 -115h-240z" />
<glyph unicode="&#xdc;" horiz-adv-x="1492" d="M164 586v860h272v-889q-1 -64 1.5 -96t13.5 -64q54 -172 297 -172q16 0 30.5 1t47 5t60.5 15t59 27.5t56 46.5t39 69q11 33 14 67t5 115v875h270v-834v-51v-47v-39t-1 -37.5t-2 -30.5t-3 -31t-4.5 -26t-6 -28.5t-7.5 -26.5q-15 -46 -43 -90.5t-76 -89t-109.5 -77.5 t-149.5 -54t-190 -21q-302 0 -458 172q-63 63 -93 156q-5 16 -8.5 30.5t-5.5 34t-3.5 33t-2.5 41t-1 42.5t-0.5 54t-0.5 60zM426 1581v252h231v-252h-231zM836 1581v252h233v-252h-233z" />
<glyph unicode="&#xdf;" d="M133 0v1012q1 23 2 55t1.5 45.5t2 33t4 33t7.5 29.5q25 88 93.5 149t151.5 87t174 26q95 0 166 -22q128 -38 210.5 -126t82.5 -214q-3 -133 -96 -211q-38 -34 -88 -51q82 -40 108 -64q53 -44 90 -127.5t37 -205.5q0 -98 -26 -181.5t-75.5 -147.5t-129.5 -100t-182 -36 q-121 0 -195 32v238q4 -2 11.5 -7t11.5 -7q62 -31 116 -31q91 0 150 72q61 68 61 186q0 137 -82 211q-78 72 -233 72q-25 0 -35 -2v184q1 0 11.5 -1t18.5 -2t23 -1.5t28.5 0.5t30.5 3t32.5 7t32 11.5t31.5 17t28 24.5q41 45 41 109q0 44 -23 80q-43 71 -152 71 q-61 0 -106 -26q-20 -11 -34.5 -24.5t-23.5 -33.5t-14.5 -33t-8.5 -41t-3.5 -38.5t-1 -43.5t-0.5 -38v-973h-248z" />
<glyph unicode="&#xe0;" horiz-adv-x="1110" d="M53 297q6 166 140 256q39 27 87.5 45t76 24t94.5 19q199 41 282 70q0 55 -14 84q-35 69 -162 69q-131 0 -180 -63q-27 -33 -27 -90l-250 14q7 150 111 236q112 94 338 94q218 0 330 -80q50 -36 73 -82q27 -53 27 -182v-545q0 -60 7.5 -89t37.5 -77h-291l-6 80 q-43 -37 -94 -57q-105 -48 -207 -48q-30 0 -61 4t-83.5 17.5t-101.5 48.5t-82 88q-45 76 -45 164zM303 1446h303l107 -272h-185zM313 307q0 -51 41 -86t127 -35q91 0 154 37t84 80q18 36 14 94v113q-72 -35 -194 -57q-3 -1 -31.5 -4.5t-37.5 -5.5t-30.5 -6.5t-36.5 -11 t-30 -15.5q-60 -39 -60 -103z" />
<glyph unicode="&#xe1;" horiz-adv-x="1110" d="M53 297q6 166 140 256q39 27 87.5 45t76 24t94.5 19q199 41 282 70q0 55 -14 84q-35 69 -162 69q-131 0 -180 -63q-27 -33 -27 -90l-250 14q7 150 111 236q112 94 338 94q218 0 330 -80q50 -36 73 -82q27 -53 27 -182v-545q0 -60 7.5 -89t37.5 -77h-291l-6 80 q-43 -37 -94 -57q-105 -48 -207 -48q-30 0 -61 4t-83.5 17.5t-101.5 48.5t-82 88q-45 76 -45 164zM313 307q0 -51 41 -86t127 -35q91 0 154 37t84 80q18 36 14 94v113q-72 -35 -194 -57q-3 -1 -31.5 -4.5t-37.5 -5.5t-30.5 -6.5t-36.5 -11t-30 -15.5q-60 -39 -60 -103z M449 1174l102 272h303l-221 -272h-184z" />
<glyph unicode="&#xe2;" horiz-adv-x="1110" d="M53 297q6 166 140 256q39 27 87.5 45t76 24t94.5 19q199 41 282 70q0 55 -14 84q-35 69 -162 69q-131 0 -180 -63q-27 -33 -27 -90l-250 14q7 150 111 236q112 94 338 94q218 0 330 -80q50 -36 73 -82q27 -53 27 -182v-545q0 -60 7.5 -89t37.5 -77h-291l-6 80 q-43 -37 -94 -57q-105 -48 -207 -48q-30 0 -61 4t-83.5 17.5t-101.5 48.5t-82 88q-45 76 -45 164zM207 1171l227 275h242l227 -275h-250l-98 138l-100 -138h-248zM313 307q0 -51 41 -86t127 -35q91 0 154 37t84 80q18 36 14 94v113q-72 -35 -194 -57q-3 -1 -31.5 -4.5 t-37.5 -5.5t-30.5 -6.5t-36.5 -11t-30 -15.5q-60 -39 -60 -103z" />
<glyph unicode="&#xe3;" horiz-adv-x="1110" d="M53 297q6 166 140 256q39 27 87.5 45t76 24t94.5 19q199 41 282 70q0 55 -14 84q-35 69 -162 69q-131 0 -180 -63q-27 -33 -27 -90l-250 14q7 150 111 236q112 94 338 94q218 0 330 -80q50 -36 73 -82q27 -53 27 -182v-545q0 -60 7.5 -89t37.5 -77h-291l-6 80 q-43 -37 -94 -57q-105 -48 -207 -48q-30 0 -61 4t-83.5 17.5t-101.5 48.5t-82 88q-45 76 -45 164zM197 1196q0 38 16 94q6 19 17 41t34 52.5t61.5 50.5t86.5 20q60 0 166 -41q75 -35 120 -35q19 0 38 9.5t26 25.5l4.5 10.5t3 9t4.5 13.5h158q-16 -87 -21 -105 q-5 -15 -11.5 -28.5t-22.5 -37t-35 -40t-50 -29t-67 -12.5q-11 0 -23 1.5t-21 2.5t-23 5t-20.5 5.5t-23 7.5t-20 7.5t-22 8t-19.5 7.5q-85 35 -123 35q-21 0 -33 -8q-33 -15 -41 -70h-159zM313 307q0 -51 41 -86t127 -35q91 0 154 37t84 80q18 36 14 94v113 q-72 -35 -194 -57q-3 -1 -31.5 -4.5t-37.5 -5.5t-30.5 -6.5t-36.5 -11t-30 -15.5q-60 -39 -60 -103z" />
<glyph unicode="&#xe4;" horiz-adv-x="1110" d="M53 297q6 166 140 256q39 27 87.5 45t76 24t94.5 19q199 41 282 70q0 55 -14 84q-35 69 -162 69q-131 0 -180 -63q-27 -33 -27 -90l-250 14q7 150 111 236q112 94 338 94q218 0 330 -80q50 -36 73 -82q27 -53 27 -182v-545q0 -60 7.5 -89t37.5 -77h-291l-6 80 q-43 -37 -94 -57q-105 -48 -207 -48q-30 0 -61 4t-83.5 17.5t-101.5 48.5t-82 88q-45 76 -45 164zM221 1202v244h230v-244h-230zM313 307q0 -51 41 -86t127 -35q91 0 154 37t84 80q18 36 14 94v113q-72 -35 -194 -57q-3 -1 -31.5 -4.5t-37.5 -5.5t-30.5 -6.5t-36.5 -11 t-30 -15.5q-60 -39 -60 -103zM631 1202v244h233v-244h-233z" />
<glyph unicode="&#xe5;" horiz-adv-x="1110" d="M53 297q6 166 140 256q39 27 87.5 45t76 24t94.5 19q199 41 282 70q0 55 -14 84q-35 69 -162 69q-131 0 -180 -63q-27 -33 -27 -90l-250 14q7 150 111 236q112 94 338 94q218 0 330 -80q50 -36 73 -82q27 -53 27 -182v-545q0 -60 7.5 -89t37.5 -77h-291l-6 80 q-43 -37 -94 -57q-105 -48 -207 -48q-30 0 -61 4t-83.5 17.5t-101.5 48.5t-82 88q-45 76 -45 164zM313 307q0 -51 41 -86t127 -35q91 0 154 37t84 80q18 36 14 94v113q-72 -35 -194 -57q-3 -1 -31.5 -4.5t-37.5 -5.5t-30.5 -6.5t-36.5 -11t-30 -15.5q-60 -39 -60 -103z M334 1356q2 86 62.5 146.5t146.5 60.5t147.5 -61.5t61.5 -147.5q0 -85 -61.5 -146t-147.5 -61q-87 0 -148 61t-61 148zM457 1354q0 -35 25.5 -60.5t60.5 -25.5q12 0 26 6q28 9 44 31t16 51q0 35 -26 59.5t-62 24.5q-35 0 -59.5 -25.5t-24.5 -60.5z" />
<glyph unicode="&#xe6;" horiz-adv-x="1792" d="M59 281q0 118 84 202q52 52 137 86.5t236 65.5q151 29 229 63q-4 48 -14.5 80.5t-40.5 57.5q-51 41 -137 41q-84 0 -139 -35q-26 -17 -43 -45q-23 -35 -23 -86h-237q12 133 86 217q106 127 335 127q174 0 269 -60q33 -21 88 -73q31 28 52.5 44t64 40.5t97 36.5t120.5 12 q179 0 303 -92q195 -147 207 -498h-748q10 -114 66 -182q71 -95 209 -95q102 0 180 66q42 37 67 74l195 -121q-29 -36 -49.5 -57.5t-67 -60t-92.5 -61.5t-118 -41t-152 -18q-149 0 -279 78q-39 22 -102 74q-29 -26 -68 -51q-139 -101 -332 -101q-139 0 -217.5 41t-120.5 111 q-45 77 -45 160zM319 285q0 -53 42.5 -94t132.5 -41q130 0 206 104q24 37 33 88.5t12 149.5q-37 -15 -74 -26t-62.5 -16.5t-69.5 -14t-74 -15.5q-146 -32 -146 -135zM987 641h455q-20 96 -79 155.5t-153 59.5q-97 0 -161 -68q-56 -62 -62 -147z" />
<glyph unicode="&#xe7;" horiz-adv-x="1024" d="M49 512q0 201 111 344q23 31 54 60t80.5 63t120.5 55t152 21q104 0 191 -37q64 -27 134.5 -88.5t115.5 -165.5l-220 -102q-18 61 -61 104q-70 70 -172 70q-108 0 -176 -80q-76 -88 -76 -238q0 -65 14 -112q24 -93 87.5 -150t156.5 -57q48 0 88.5 16t65.5 37.5t45 51 t29.5 50t17.5 39.5q1 2 1.5 3.5t0.5 2.5l209 -110q-27 -73 -66 -125q-68 -93 -174 -144t-223 -51q-108 0 -213 47q-77 35 -134.5 92t-86.5 111t-46.5 117.5t-21.5 102t-4 73.5zM338 -188l207 213h92l-92 -119q38 3 78.5 -6.5t60.5 -18.5q31 -15 49.5 -43.5t18.5 -62.5 q0 -42 -29 -78q-69 -78 -289 -78q-57 0 -84 2v64q2 0 11 -1t16 -1q41 -4 96 8l7 3q8 4 15.5 8t13.5 13.5t5 20.5q0 16 -10 26.5t-30.5 15t-41.5 6t-53 1.5q-13 0 -41 -4v31z" />
<glyph unicode="&#xe8;" d="M70 518q0 140 45 246q16 36 37.5 70t62 76t89 72.5t122 51.5t158.5 21q81 0 150.5 -19t118 -51t80 -62.5t54.5 -64.5q92 -141 100 -395h-757q12 -93 65 -156q80 -98 223 -98q145 0 234 94q16 16 35 47l209 -121q-36 -52 -95 -106q-26 -24 -59 -47t-84 -49t-119.5 -42 t-142.5 -16q-219 0 -367 137q-159 151 -159 412zM283 1446h303l104 -272h-182zM338 643l479 2q-9 55 -20 82q-61 131 -209 131q-58 0 -103 -18q-40 -16 -70 -44t-45 -60t-22 -52.5t-10 -40.5z" />
<glyph unicode="&#xe9;" d="M70 518q0 140 45 246q16 36 37.5 70t62 76t89 72.5t122 51.5t158.5 21q81 0 150.5 -19t118 -51t80 -62.5t54.5 -64.5q92 -141 100 -395h-757q12 -93 65 -156q80 -98 223 -98q145 0 234 94q16 16 35 47l209 -121q-36 -52 -95 -106q-26 -24 -59 -47t-84 -49t-119.5 -42 t-142.5 -16q-219 0 -367 137q-159 151 -159 412zM338 643l479 2q-9 55 -20 82q-61 131 -209 131q-58 0 -103 -18q-40 -16 -70 -44t-45 -60t-22 -52.5t-10 -40.5zM469 1174l102 272h306l-222 -272h-186z" />
<glyph unicode="&#xea;" d="M70 518q0 140 45 246q16 36 37.5 70t62 76t89 72.5t122 51.5t158.5 21q81 0 150.5 -19t118 -51t80 -62.5t54.5 -64.5q92 -141 100 -395h-757q12 -93 65 -156q80 -98 223 -98q145 0 234 94q16 16 35 47l209 -121q-36 -52 -95 -106q-26 -24 -59 -47t-84 -49t-119.5 -42 t-142.5 -16q-219 0 -367 137q-159 151 -159 412zM227 1171l228 275h241l230 -275h-252l-96 138l-103 -138h-248zM338 643l479 2q-9 55 -20 82q-61 131 -209 131q-58 0 -103 -18q-40 -16 -70 -44t-45 -60t-22 -52.5t-10 -40.5z" />
<glyph unicode="&#xeb;" d="M70 518q0 140 45 246q16 36 37.5 70t62 76t89 72.5t122 51.5t158.5 21q81 0 150.5 -19t118 -51t80 -62.5t54.5 -64.5q92 -141 100 -395h-757q12 -93 65 -156q80 -98 223 -98q145 0 234 94q16 16 35 47l209 -121q-36 -52 -95 -106q-26 -24 -59 -47t-84 -49t-119.5 -42 t-142.5 -16q-219 0 -367 137q-159 151 -159 412zM256 1202v244h231v-244h-231zM338 643l479 2q-9 55 -20 82q-61 131 -209 131q-58 0 -103 -18q-40 -16 -70 -44t-45 -60t-22 -52.5t-10 -40.5zM666 1202v244h233v-244h-233z" />
<glyph unicode="&#xec;" horiz-adv-x="512" d="M-39 1446h303l107 -272h-183zM133 0v1024h244v-1024h-244z" />
<glyph unicode="&#xed;" horiz-adv-x="512" d="M133 0v1024h244v-1024h-244zM150 1174l102 272h303l-221 -272h-184z" />
<glyph unicode="&#xee;" horiz-adv-x="512" d="M-92 1171l227 275h242l227 -275h-250l-96 138l-102 -138h-248zM133 0v1024h244v-1024h-244z" />
<glyph unicode="&#xef;" horiz-adv-x="512" d="M-63 1202v244h229v-244h-229zM133 0v1024h244v-1024h-244zM346 1202v244h234v-244h-234z" />
<glyph unicode="&#xf1;" d="M129 0v1024h248v-121q16 24 45 53q43 41 105.5 65t99 29t65.5 5q101 0 170.5 -39t102.5 -86q12 -17 21.5 -38t15.5 -37t10.5 -43.5t7 -40.5t3.5 -45.5t1 -40.5v-44.5v-38.5v-602h-242v522q-3 132 -10 158q-10 42 -31 71t-47.5 41.5t-48 17.5t-43.5 5q-73 0 -129 -47 q-56 -46 -77.5 -119t-18.5 -205v-444h-248zM217 1196q0 2 2.5 19t7 38.5t9.5 36.5q6 19 16.5 40.5t33 52.5t60.5 51t86 20q63 0 166 -41q76 -35 121 -35q19 0 37.5 9.5t27.5 25.5l11 33h159q-2 -10 -8.5 -47.5t-13.5 -57.5q-5 -14 -11.5 -28t-23 -37.5t-35.5 -40t-50 -29 t-67 -12.5q-11 0 -23 1.5t-21 2.5t-23 5t-20.5 5.5t-23 7.5t-20 7.5t-22 8t-19.5 7.5q-85 35 -122 35q-21 0 -33 -8q-28 -13 -41 -70h-160z" />
<glyph unicode="&#xf2;" horiz-adv-x="1193" d="M72 516q0 125 45 229q14 36 36 72t63 80.5t91 78t126 56.5t163 23q120 0 225 -47q38 -16 74.5 -39.5t79 -66t74.5 -94t53 -128t22 -164.5q0 -128 -41 -229q-14 -37 -36 -73.5t-63 -82.5t-91 -80.5t-126 -58t-163 -23.5q-122 0 -231 47q-37 17 -72.5 41t-78.5 67.5t-75 96 t-53.5 130t-21.5 165.5zM303 1446h303l107 -272h-185zM328 522q0 -72 20 -139q9 -25 25 -51t45.5 -60t78 -55.5t107.5 -21.5q89 0 151 48.5t88.5 120t24.5 156.5q-5 130 -77 222t-199 92q-78 0 -139 -39q-50 -33 -87.5 -101t-37.5 -172z" />
<glyph unicode="&#xf3;" horiz-adv-x="1193" d="M72 516q0 125 45 229q14 36 36 72t63 80.5t91 78t126 56.5t163 23q120 0 225 -47q38 -16 74.5 -39.5t79 -66t74.5 -94t53 -128t22 -164.5q0 -128 -41 -229q-14 -37 -36 -73.5t-63 -82.5t-91 -80.5t-126 -58t-163 -23.5q-122 0 -231 47q-37 17 -72.5 41t-78.5 67.5t-75 96 t-53.5 130t-21.5 165.5zM328 522q0 -72 20 -139q9 -25 25 -51t45.5 -60t78 -55.5t107.5 -21.5q89 0 151 48.5t88.5 120t24.5 156.5q-5 130 -77 222t-199 92q-78 0 -139 -39q-50 -33 -87.5 -101t-37.5 -172zM492 1174l102 272h303l-221 -272h-184z" />
<glyph unicode="&#xf4;" horiz-adv-x="1193" d="M72 516q0 125 45 229q14 36 36 72t63 80.5t91 78t126 56.5t163 23q120 0 225 -47q38 -16 74.5 -39.5t79 -66t74.5 -94t53 -128t22 -164.5q0 -128 -41 -229q-14 -37 -36 -73.5t-63 -82.5t-91 -80.5t-126 -58t-163 -23.5q-122 0 -231 47q-37 17 -72.5 41t-78.5 67.5t-75 96 t-53.5 130t-21.5 165.5zM250 1171l227 275h242l227 -275h-250l-98 138l-100 -138h-248zM328 522q0 -72 20 -139q9 -25 25 -51t45.5 -60t78 -55.5t107.5 -21.5q89 0 151 48.5t88.5 120t24.5 156.5q-5 130 -77 222t-199 92q-78 0 -139 -39q-50 -33 -87.5 -101t-37.5 -172z" />
<glyph unicode="&#xf5;" horiz-adv-x="1193" d="M72 516q0 125 45 229q14 36 36 72t63 80.5t91 78t126 56.5t163 23q120 0 225 -47q38 -16 74.5 -39.5t79 -66t74.5 -94t53 -128t22 -164.5q0 -128 -41 -229q-14 -37 -36 -73.5t-63 -82.5t-91 -80.5t-126 -58t-163 -23.5q-122 0 -231 47q-37 17 -72.5 41t-78.5 67.5t-75 96 t-53.5 130t-21.5 165.5zM240 1196q0 38 16 94q6 19 17 41t34 52.5t61.5 50.5t86.5 20q60 0 166 -41q75 -35 120 -35q19 0 37 9.5t27 25.5l4.5 10.5t3 9t4.5 13.5h158q-15 -81 -23 -105q-5 -18 -16 -38t-31.5 -47t-56.5 -44.5t-80 -17.5q-57 0 -172 45q-85 35 -123 35 q-21 0 -33 -8q-33 -15 -41 -70h-159zM328 522q0 -72 20 -139q9 -25 25 -51t45.5 -60t78 -55.5t107.5 -21.5q89 0 151 48.5t88.5 120t24.5 156.5q-5 130 -77 222t-199 92q-78 0 -139 -39q-50 -33 -87.5 -101t-37.5 -172z" />
<glyph unicode="&#xf6;" horiz-adv-x="1193" d="M72 516q0 125 45 229q14 36 36 72t63 80.5t91 78t126 56.5t163 23q120 0 225 -47q38 -16 74.5 -39.5t79 -66t74.5 -94t53 -128t22 -164.5q0 -128 -41 -229q-14 -37 -36 -73.5t-63 -82.5t-91 -80.5t-126 -58t-163 -23.5q-122 0 -231 47q-37 17 -72.5 41t-78.5 67.5t-75 96 t-53.5 130t-21.5 165.5zM281 1202v244h231v-244h-231zM328 522q0 -72 20 -139q9 -25 25 -51t45.5 -60t78 -55.5t107.5 -21.5q89 0 151 48.5t88.5 120t24.5 156.5q-5 130 -77 222t-199 92q-78 0 -139 -39q-50 -33 -87.5 -101t-37.5 -172zM690 1202v244h234v-244h-234z" />
<glyph unicode="&#xf7;" horiz-adv-x="1366" d="M0 489v211h1366v-211h-1366zM543 262q1 60 42.5 100.5t98.5 40.5q60 -2 100 -42.5t39 -100.5q0 -36 -14 -61q-13 -28 -44 -51.5t-81 -22.5q-60 0 -100.5 38.5t-40.5 98.5zM543 926q1 60 41.5 99.5t99.5 39.5q60 0 100 -40.5t39 -100.5q0 -58 -40 -98t-99 -40 q-60 0 -99.5 40t-41.5 100z" />
<glyph unicode="&#xf8;" horiz-adv-x="1193" d="M18 162l115 92q-72 122 -72 264q0 106 35 201q14 39 36 78t64 87.5t94.5 84.5t132.5 61t173 25q70 0 130 -13t105 -37.5t71 -43.5t56 -46l105 84l94 -114l-115 -92q23 -41 35.5 -67t27.5 -87.5t15 -130.5q0 -217 -131 -369q-144 -170 -411 -170q-117 0 -197.5 36 t-163.5 122l-108 -86zM303 524q0 -56 16 -123l459 369q-17 20 -33 33q-68 54 -157 51q-122 0 -205 -92q-80 -90 -80 -238zM393 272q82 -100 205 -100q117 0 199 88q82 86 82 240q0 72 -25 141z" />
<glyph unicode="&#xf9;" horiz-adv-x="1193" d="M127 349v44.5v40.5v590h248v-553q-2 -31 0 -65t8 -64.5t24.5 -58.5t49.5 -45q51 -31 118 -31q78 0 127 36.5t72 78.5q10 19 17 43t11 42.5t6.5 49t3 44.5t1 48t0.5 41v434h246v-1024h-246l-2 104q-140 -129 -330 -129q-204 0 -295 136q-12 18 -21.5 38.5t-15.5 36 t-10.5 42t-7 38t-3.5 44t-1 39.5zM303 1446h303l107 -272h-185z" />
<glyph unicode="&#xfa;" horiz-adv-x="1193" d="M127 349v44.5v40.5v590h248v-553q-2 -31 0 -65t8 -64.5t24.5 -58.5t49.5 -45q51 -31 118 -31q78 0 127 36.5t72 78.5q10 19 17 43t11 42.5t6.5 49t3 44.5t1 48t0.5 41v434h246v-1024h-246l-2 104q-140 -129 -330 -129q-204 0 -295 136q-12 18 -21.5 38.5t-15.5 36 t-10.5 42t-7 38t-3.5 44t-1 39.5zM492 1174l102 272h303l-221 -272h-184z" />
<glyph unicode="&#xfb;" horiz-adv-x="1193" d="M127 349v44.5v40.5v590h248v-553q-2 -31 0 -65t8 -64.5t24.5 -58.5t49.5 -45q51 -31 118 -31q78 0 127 36.5t72 78.5q10 19 17 43t11 42.5t6.5 49t3 44.5t1 48t0.5 41v434h246v-1024h-246l-2 104q-140 -129 -330 -129q-204 0 -295 136q-12 18 -21.5 38.5t-15.5 36 t-10.5 42t-7 38t-3.5 44t-1 39.5zM250 1171l227 275h242l227 -275h-250l-98 138l-100 -138h-248z" />
<glyph unicode="&#xfc;" horiz-adv-x="1193" d="M127 349v44.5v40.5v590h248v-553q-2 -31 0 -65t8 -64.5t24.5 -58.5t49.5 -45q51 -31 118 -31q78 0 127 36.5t72 78.5q10 19 17 43t11 42.5t6.5 49t3 44.5t1 48t0.5 41v434h246v-1024h-246l-2 104q-140 -129 -330 -129q-204 0 -295 136q-12 18 -21.5 38.5t-15.5 36 t-10.5 42t-7 38t-3.5 44t-1 39.5zM274 1202v244h230v-244h-230zM684 1202v244h234v-244h-234z" />
<glyph unicode="&#xff;" horiz-adv-x="980" d="M25 1024h264l229 -764l193 764h252l-261 -893q-10 -37 -34 -111q-45 -151 -77 -212q-33 -65 -75 -99q-44 -36 -93 -48.5t-116 -12.5q-77 0 -145 14v213q133 -16 190 31q30 28 43 74zM172 1202v244h229v-244h-229zM582 1202v244h233v-244h-233z" />
<glyph unicode="&#x152;" horiz-adv-x="2260" d="M96 694q0 68 15 160q6 41 16 81t36.5 107t62 124t99 120t142.5 107q158 90 334 90q168 0 327 -99v62h1033v-246h-764v-346h665v-233h-665v-377h809v-244h-1078l-2 51q-158 -88 -350 -88q-238 0 -414 141q-46 37 -86 83t-84 117.5t-70 172.5t-26 217zM385 698 q0 -193 86 -317q127 -178 350 -178q151 2 244 82q33 28 45 50t18 50v547q0 12 -0.5 34t-1 29t-1 20.5t-2 20.5t-4 17t-5.5 20q-46 74 -129.5 114t-175.5 40q-106 0 -195 -51q-45 -25 -82.5 -62t-72 -93.5t-54.5 -139t-20 -183.5z" />
<glyph unicode="&#x153;" horiz-adv-x="1878" d="M70 502q0 265 168 422q137 131 342 131q210 0 362 -152q101 91 187 121.5t174 30.5q105 0 198 -37q35 -15 69 -37t75.5 -59.5t77 -97t57.5 -132.5q24 -83 32 -239h-735q8 -55 23 -97q33 -78 97 -123t149 -45q58 0 124 30.5t121 109.5l199 -121q-53 -76 -107 -113 q-84 -69 -164.5 -97t-189.5 -28q-94 0 -162.5 21t-134.5 76q-52 45 -82 88q-40 -55 -88 -93q-119 -92 -291 -92q-210 0 -346 127q-155 146 -155 406zM317 510q0 -51 11 -98q5 -22 13 -44.5t27.5 -55.5t45.5 -58t69.5 -43t96.5 -18q130 2 200 100q62 82 62 211q0 77 -25 141 q-30 84 -93 132t-149 48q-85 0 -145 -47t-86.5 -116.5t-26.5 -151.5zM1077 627l451 2q-8 39 -27 84q-9 19 -22 36.5t-36.5 41t-61 37.5t-81.5 14q-20 0 -41.5 -4.5t-50 -15.5t-56 -36.5t-46.5 -62.5q-20 -45 -29 -96z" />
<glyph unicode="&#x178;" horiz-adv-x="1280" d="M20 1446h308l313 -598l315 598h304l-488 -875v-571h-268v571zM322 1581v252h229v-252h-229zM731 1581v252h234v-252h-234z" />
<glyph unicode="&#x2c6;" horiz-adv-x="555" d="M-242 1171l228 275h241l230 -275h-252l-96 138l-103 -138h-248z" />
<glyph unicode="&#x2dc;" horiz-adv-x="555" d="M-252 1196q0 2 2.5 19t7 38.5t9.5 36.5q6 19 16.5 40.5t33 52.5t60.5 51t86 20q60 0 166 -41q76 -35 121 -35q19 0 37.5 9.5t25.5 25.5q4 7 5 10.5t3 9t5 13.5h159q-3 -13 -9.5 -49.5t-12.5 -55.5q-5 -14 -11.5 -28t-23 -37.5t-35.5 -40t-50 -29t-67 -12.5q-11 0 -23 1.5 t-21 2.5t-23 5t-20.5 5.5t-23 7.5t-20 7.5t-22 8t-19.5 7.5q-85 35 -122 35q-21 0 -33 -8q-33 -15 -41 -70h-160z" />
<glyph unicode="&#x2000;" horiz-adv-x="986" />
<glyph unicode="&#x2001;" horiz-adv-x="1972" />
<glyph unicode="&#x2002;" horiz-adv-x="986" />
<glyph unicode="&#x2003;" horiz-adv-x="1972" />
<glyph unicode="&#x2004;" horiz-adv-x="657" />
<glyph unicode="&#x2005;" horiz-adv-x="493" />
<glyph unicode="&#x2006;" horiz-adv-x="328" />
<glyph unicode="&#x2007;" horiz-adv-x="328" />
<glyph unicode="&#x2008;" horiz-adv-x="246" />
<glyph unicode="&#x2009;" horiz-adv-x="394" />
<glyph unicode="&#x200a;" horiz-adv-x="109" />
<glyph unicode="&#x2010;" horiz-adv-x="724" d="M109 528v232h507v-232h-507z" />
<glyph unicode="&#x2011;" horiz-adv-x="724" d="M109 528v232h507v-232h-507z" />
<glyph unicode="&#x2012;" horiz-adv-x="724" d="M109 528v232h507v-232h-507z" />
<glyph unicode="&#x2013;" d="M86 528v230h979v-230h-979z" />
<glyph unicode="&#x2014;" horiz-adv-x="1366" d="M0 496v211h1366v-211h-1366z" />
<glyph unicode="&#x2018;" horiz-adv-x="425" d="M74 887v305q0 56 8.5 89.5t38.5 68.5q33 38 79.5 62t129.5 40v-121q-111 -14 -111 -143v-21h127v-280h-272z" />
<glyph unicode="&#x2019;" horiz-adv-x="425" d="M80 1165v281h268v-297v-5q0 -27 -1.5 -47t-15.5 -57.5t-40 -66.5q-34 -36 -90 -62t-107 -32v114q109 37 109 137q0 5 -1 17t-1 18h-121z" />
<glyph unicode="&#x201a;" horiz-adv-x="425" d="M76 0v281h272v-248q0 -123 -12 -156q-12 -37 -37.5 -64t-46.5 -40q-15 -11 -29.5 -19t-33.5 -14t-29.5 -9t-35 -8.5t-32.5 -7.5v119q57 6 84 45.5t27 100.5v20h-127z" />
<glyph unicode="&#x201c;" horiz-adv-x="768" d="M76 893v264q0 57 4 86q6 51 26.5 88.5t37.5 52.5t46 33q73 38 134 47v-114q-56 -21 -81 -47.5t-24 -79.5v-47h123v-283h-266zM426 893v254v86t15.5 78.5t50.5 70.5q43 43 106 60q28 10 80 14v-108q-43 -14 -62 -27q-51 -35 -51 -115v-30h127v-283h-266z" />
<glyph unicode="&#x201d;" horiz-adv-x="768" d="M76 1161v285h266v-254q0 -49 0.5 -89t-16.5 -80t-54 -73q-53 -39 -92 -51q-30 -13 -90 -16v108q37 10 61 26.5t34 38t13 38t3 39.5v28h-125zM426 1161v285h266v-266q-1 -52 -3 -75t-12.5 -62.5t-31.5 -67.5q-34 -45 -83 -66.5t-120 -36.5l2 115q67 24 86 54.5t19 80.5v39 h-123z" />
<glyph unicode="&#x201e;" horiz-adv-x="768" d="M76 0v285h266v-256q3 -106 -8 -146q-13 -43 -43 -76t-65.5 -49.5t-58.5 -23.5t-40 -10q-30 -5 -37 -5v109q61 21 86 51t25 92v29h-125zM426 0v285h266v-232q0 -115 -10 -157q-18 -80 -84 -127q-63 -45 -156 -60l2 115q61 26 83 50.5t22 84.5v41h-123z" />
<glyph unicode="&#x2022;" horiz-adv-x="681" d="M49 723q0 59 27 119q12 25 30.5 49.5t50.5 54.5t81.5 49t107.5 19q66 0 123 -27q25 -12 49 -30t52 -49t45.5 -80t17.5 -107q0 -124 -80.5 -207.5t-204.5 -83.5q-125 0 -212 84t-87 209z" />
<glyph unicode="&#x2026;" horiz-adv-x="2048" d="M203 127q0 60 40.5 99.5t100.5 39.5q57 0 96.5 -39t40.5 -98q0 -22 -10 -51q-15 -41 -50 -65.5t-79 -24.5q-59 0 -99 39.5t-40 99.5zM885 127q0 59 40.5 99t100.5 40q58 0 96.5 -39t40.5 -98q0 -59 -39 -100t-98 -41q-58 0 -99.5 40t-41.5 99zM1569 127q0 60 40 99.5 t99 39.5q34 0 59 -12q37 -17 57.5 -50.5t20.5 -74.5q0 -59 -39.5 -100t-97.5 -41q-59 0 -99 39.5t-40 99.5z" />
<glyph unicode="&#x202f;" horiz-adv-x="394" />
<glyph unicode="&#x205f;" horiz-adv-x="493" />
<glyph unicode="&#x2122;" horiz-adv-x="1406" d="M16 1327v119h570v-119h-209v-561h-146v561h-215zM643 766v680h188l164 -514l156 514h190v-680h-141l4 393q0 59 10 137q-5 -20 -30 -112l-127 -418h-129l-131 420q-1 5 -13 45.5t-18 62.5q6 -46 10 -137l8 -391h-141z" />
<glyph unicode="&#xe000;" horiz-adv-x="1024" d="M0 0v1024h1024v-1024h-1024z" />
<glyph unicode="&#xfb01;" horiz-adv-x="1153" d="M8 850v174h154v119q0 85 6 119q16 93 91 139.5t233 46.5q61 0 139 -10v-209q-18 6 -78 6q-43 0 -73 -9.5t-43.5 -25t-21.5 -35.5t-7 -41t0 -41v-59h223v-174h-223v-850h-246v850h-154zM774 0v1024h244v-1024h-244zM774 1184v248h244v-248h-244z" />
<glyph unicode="&#xfb02;" horiz-adv-x="1153" d="M8 850v174h154v119q0 85 6 119q16 93 91 139.5t233 46.5q61 0 139 -10v-209q-18 6 -78 6q-43 0 -73 -9.5t-43.5 -25t-21.5 -35.5t-7 -41t0 -41v-59h223v-174h-223v-850h-246v850h-154zM774 0v1446h250v-1446h-250z" />
</font>
</defs>
</svg>
