<?xml version="1.0" standalone="no"?>
<!DOCTYPE svg PUBLIC "-//W3C//DTD SVG 1.1//EN" "http://www.w3.org/Graphics/SVG/1.1/DTD/svg11.dtd" >
<svg xmlns="http://www.w3.org/2000/svg">
<metadata></metadata>
<defs>
<font id="akzidenz-grotesk_bqregular" horiz-adv-x="1150" >
<font-face units-per-em="2048" ascent="1638" descent="-410" />
<missing-glyph horiz-adv-x="555" />
<glyph horiz-adv-x="2048" />
<glyph horiz-adv-x="2048" />
<glyph unicode="&#xd;" horiz-adv-x="2048" />
<glyph unicode=" "  horiz-adv-x="555" />
<glyph unicode="&#x09;" horiz-adv-x="555" />
<glyph unicode="&#xa0;" horiz-adv-x="555" />
<glyph unicode="!" horiz-adv-x="598" d="M106 0l64 276h270l-63 -276h-271zM270 403l37 424l144 619h262l-142 -608l-174 -435h-127z" />
<glyph unicode="&#x22;" horiz-adv-x="811" d="M164 1438q6 35 39 65.5t94 30.5q53 0 82 -28t35 -58q2 -20 0 -55l-97 -531h-55l-96 508q-6 52 -2 68zM590 1438q8 35 40.5 65.5t92.5 30.5q51 0 80 -26t35 -54q5 -21 2 -61l-97 -531h-55l-96 508q-5 44 -2 68z" />
<glyph unicode="#" horiz-adv-x="1366" d="M182 438v205h279l24 193h-256v204h283l55 406h213l-57 -406h201l55 406h207l-56 -406h242v-204h-268l-29 -193h252v-205h-276l-64 -438h-207l64 438h-203l-61 -438h-209l61 438h-250zM668 643h202l27 193h-203z" />
<glyph unicode="$" horiz-adv-x="1193" d="M47 369l240 71q31 -186 194 -229l97 418q-36 13 -97 39q-74 34 -126 78.5t-78 91t-37 87.5t-11 83q0 142 107 256q47 50 108.5 83.5t121 47t96.5 18t69 4.5h29l39 166h131l-41 -178q93 -19 153 -51q172 -91 224 -258l-234 -82q-11 39 -31 73q-19 29 -60.5 62t-100.5 45 l-84 -375q43 -16 114 -49q90 -43 135 -79q134 -107 134 -275q0 -53 -15 -113q-46 -162 -217 -256q-130 -74 -289 -74q-10 0 -30 1t-29 1l-43 -188h-133l47 203q-124 20 -235 114q-57 47 -96.5 118.5t-51.5 146.5zM489 1030q0 -33 19 -69q4 -8 9.5 -15t9.5 -12.5t11.5 -11.5 t11 -9.5t13 -9t12.5 -7.5t14.5 -7.5t13.5 -7t15 -7t15 -6.5l76 334q-85 -2 -140 -41q-25 -15 -49 -47q-31 -40 -31 -84zM610 197q61 0 95 8q14 3 30.5 9.5t42 22.5t45.5 36t34.5 53.5t14.5 72.5q0 24 -12 60q-17 39 -51.5 65.5t-110.5 59.5z" />
<glyph unicode="%" horiz-adv-x="1792" d="M160 801q0 142 45.5 288.5t134.5 231.5q90 88 223 88q94 0 158 -41q131 -80 131 -299q0 -94 -25 -201q-61 -275 -223 -364q-74 -33 -147 -33q-60 0 -109.5 16.5t-80.5 44t-49.5 53t-29.5 52.5q-28 62 -28 164zM336 797q0 -170 119 -170q26 0 49 8q43 19 78 72 q43 67 71 198q25 117 25 191q0 106 -60 145q-26 16 -59 16q-16 0 -30.5 -4.5t-26 -10t-23 -15t-18.5 -17t-15.5 -18.5t-12 -16t-8.5 -14l-5 -9q-35 -66 -59.5 -172t-24.5 -184zM436 47l953 1370l102 -69l-952 -1373zM1071 313q0 141 45.5 288t134.5 233q90 88 224 88 q42 0 79.5 -8.5t77 -32t68 -60.5t47 -99t18.5 -142q0 -92 -26 -201q-62 -277 -223 -363q-66 -34 -148 -34q-55 1 -101 15.5t-76.5 38t-49 45.5t-31.5 46q-39 72 -39 186zM1247 303q0 -166 119 -166q74 0 125 80q41 60 74 199q0 2 6.5 36.5t12 76.5t5.5 77q0 108 -59 146 q-26 16 -60 16q-37 0 -75 -26t-68 -85q-33 -67 -56.5 -171.5t-23.5 -182.5z" />
<glyph unicode="&#x26;" horiz-adv-x="1366" d="M57 348q0 107 58 191q25 38 57.5 70t78 60t77 45t89.5 44.5t81 38.5q-45 126 -45 223q0 141 88 229q36 38 99.5 69.5t150.5 31.5q146 0 229 -88q76 -76 76 -189q0 -51 -21 -98t-49.5 -81.5t-75.5 -70t-81.5 -56.5t-84.5 -48q13 -24 37 -68t32.5 -59.5t25.5 -46t25.5 -44 t22 -34.5t25.5 -37t27 -33q44 53 68.5 103.5t48.5 128.5h241q-19 -81 -64.5 -174t-98.5 -160q-22 -28 -54 -57q44 -35 111 -35q21 0 80 6l-51 -213q-44 -6 -89 -6q-158 0 -243 100q-201 -121 -418 -121q-98 0 -180 25q-126 39 -199.5 132t-73.5 222zM307 358q0 -41 23 -84 q57 -98 196 -98q58 0 120 17.5t89 31.5q20 8 56 31q-31 42 -61 87.5t-55 89t-41.5 72.5t-36 66t-22.5 43q-36 -17 -96.5 -49.5t-85.5 -50.5q-16 -12 -32 -27t-35 -51.5t-19 -77.5zM678 1028q0 -45 31 -127q44 19 94 55q40 30 60 58t20 69q0 14 -5 31t-25.5 36t-53.5 19 q-20 0 -39 -6.5t-38.5 -21t-31.5 -44t-12 -69.5z" />
<glyph unicode="'" horiz-adv-x="425" d="M186 1370q-5 50 0 74q10 42 48.5 66t82.5 24q50 0 78.5 -25t36.5 -53q5 -21 2 -63l-96 -531h-55z" />
<glyph unicode="(" horiz-adv-x="811" d="M260 436q0 119 37 256q71 249 260 461q98 113 229 211q78 62 199 131l59 -104q-73 -53 -110 -86q-71 -61 -136 -147.5t-94 -137t-49 -92.5q-30 -62 -57 -137.5t-53.5 -210.5t-26.5 -267q0 -183 39 -292t111 -207l-80 -90q-19 23 -56.5 65.5t-52.5 60.5q-219 269 -219 586 z" />
<glyph unicode=")" horiz-adv-x="811" d="M-137 -172q57 42 110 86q155 135 279 377q50 104 92.5 264t42.5 350q0 184 -39 294.5t-110 205.5l79 90q57 -64 109 -127q219 -269 219 -586q0 -277 -158 -532q-51 -84 -149 -197q-182 -198 -416 -329z" />
<glyph unicode="*" horiz-adv-x="724" d="M207 1210l80 133l153 -96l56 -67l-19 100l39 172l156 -29l-37 -161l-60 -84l82 45l187 24l16 -151l-192 -29l-93 33l84 -72l86 -154l-139 -71l-90 178v94l-39 -94l-131 -145l-113 106l134 133l112 45h-112z" />
<glyph unicode="+" horiz-adv-x="1366" d="M182 492v208h494v494h211v-494h489v-208h-489v-492h-211v492h-494z" />
<glyph unicode="," horiz-adv-x="512" d="M-25 -289l31 129q2 1 11.5 2t21 4t20.5 7q25 12 42 40t23 50.5t13 56.5h-110l63 276h272l-65 -276q-25 -112 -47 -158q-15 -30 -38 -56.5t-74 -51.5t-115 -25q-32 0 -48 2z" />
<glyph unicode="-" horiz-adv-x="768" d="M102 487l56 236h594l-54 -236h-596z" />
<glyph unicode="." horiz-adv-x="512" d="M27 0l63 276h272l-65 -276h-270z" />
<glyph unicode="/" horiz-adv-x="854" d="M-84 0l903 1446h258l-899 -1446h-262z" />
<glyph unicode="0" d="M111 479q1 106 20 221.5t55.5 232.5t99.5 220.5t144 167.5q127 98 301 98q64 0 139 -18q304 -87 304 -506q0 -144 -37 -309q-53 -234 -148 -372.5t-211 -195.5q-88 -45 -211 -45q-68 0 -129 15q-49 12 -92 33.5t-71.5 44.5t-52.5 50.5t-37 48t-23 42.5q-51 104 -51 272z M367 463q0 -141 53.5 -203.5t140.5 -62.5q124 0 207 131q67 106 113 311q1 4 6.5 30t10 52.5t10 62t9 75t3.5 75.5q0 182 -103 242q-48 24 -92 24q-92 0 -164 -80q-86 -93 -140 -298.5t-54 -358.5z" />
<glyph unicode="1" d="M293 973l39 166q205 -3 330 125q57 59 81 129h226l-322 -1393h-252l180 780q23 104 23 131q0 15 -3 26t-11.5 18t-15.5 10.5t-24.5 5.5t-28 2h-36.5h-14h-172z" />
<glyph unicode="2" d="M25 0l49 207q161 114 316.5 239.5t232.5 194.5q124 115 182.5 204.5t58.5 168.5q0 75 -50 125.5t-126 50.5q-42 0 -93 -22t-95 -78q-29 -37 -46 -80.5t-28 -120.5l-250 39q7 92 47 178q28 69 70 123t89 86.5t93.5 54.5t95 32t81 13.5t63.5 3.5q175 0 291 -96 q42 -35 71 -79t40.5 -87t15.5 -71.5t4 -55.5q0 -123 -68 -239q-48 -81 -150.5 -180t-277.5 -236q-105 -84 -203 -152h578l-51 -223h-940z" />
<glyph unicode="3" d="M23 424l264 25q-7 -61 20 -121q8 -19 23 -39.5t40.5 -43t65 -36.5t86.5 -14q50 0 101 18q48 18 82 48.5t49.5 64t21.5 60t6 50.5q0 91 -51 142q-33 31 -90.5 45t-112.5 14q-15 0 -43 -4l50 213q58 -8 121.5 -4t115.5 30q42 21 68 54.5t32.5 59t6.5 50.5q0 44 -23 84 q-25 41 -71 61.5t-97 20.5q-32 0 -59 -6q-53 -13 -90 -43t-52 -55q-27 -38 -38 -92l-248 55q38 107 78 162q70 98 184.5 147t243.5 49q116 0 213.5 -40t158.5 -126q58 -86 58 -184q0 -48 -15 -94q-18 -55 -51.5 -100t-72 -72t-66 -41.5t-51.5 -22.5q-43 -13 -80 -16 q2 -1 17.5 -4t30.5 -6.5t36 -11.5t37 -17q47 -28 83.5 -89.5t36.5 -156.5q0 -34 -6 -70t-22 -86t-53 -101.5t-91 -94.5q-144 -113 -358 -113q-339 0 -446 267q-39 97 -43 184z" />
<glyph unicode="4" d="M70 330l57 239l719 824h303l-197 -852h183l-50 -211h-182l-76 -330h-249l75 330h-583zM354 541h348l146 575z" />
<glyph unicode="5" d="M84 354l266 21q7 -46 33 -86q23 -36 63 -57t65 -25t46 -4q65 0 117 26q54 26 91 69t52.5 89t21 77.5t5.5 55.5q0 94 -60.5 160t-152.5 65q-47 0 -91.5 -19.5t-66 -38t-35.5 -36.5q-23 -28 -39 -61h-223l244 803h764l-51 -226h-551l-90 -284q114 67 237 67q117 0 204 -58 t130 -152t43 -208q0 -109 -41 -213q-67 -168 -205.5 -257t-322.5 -89q-29 0 -56 2t-78.5 13.5t-94.5 31t-91 61t-80 97.5q-44 78 -53 176z" />
<glyph unicode="6" d="M143 510q0 280 131 539q13 26 25 47.5t40 62t56.5 72t73 68.5t92 62t111.5 41.5t133 16.5q230 0 354 -172q52 -71 70 -151l-277 -45q-13 51 -28 77q-16 27 -50.5 48.5t-87.5 21.5q-65 0 -124 -37q-134 -88 -207 -344q6 4 17 12.5t17 12.5q100 69 246 69q84 0 144 -24 q119 -44 183 -153t64 -242q0 -189 -129 -340q-151 -179 -401 -179q-99 0 -180 33q-57 23 -102 60.5t-73 76t-48 89.5t-29.5 87.5t-14.5 83.5t-5.5 64.5t-0.5 42.5zM403 436q9 -135 84 -198q54 -48 134 -48q91 0 153.5 60t83.5 153q10 36 10 74q0 70 -26 117q-19 40 -67 74.5 t-124 33.5q-108 0 -178 -78.5t-70 -187.5z" />
<glyph unicode="7" d="M203 1167l53 226h979l-57 -242q-80 -73 -166 -174q-52 -62 -91.5 -115t-103 -155.5t-121.5 -221.5q-130 -266 -176 -485h-315q26 110 77.5 235t108.5 229t92.5 163.5t59.5 95.5q52 80 172 235q104 133 186 209h-698z" />
<glyph unicode="8" d="M78 389q0 34 6 69t22.5 84.5t56 97t97.5 83.5q52 34 129 51q-20 10 -49 39q-44 42 -69 102t-25 121q0 47 14 96t49 101.5t87 93t135 66.5t186 26q102 0 194 -26q67 -20 118 -53t80.5 -68.5t48 -76.5t24.5 -74.5t6 -65.5q0 -35 -7 -72t-37 -93.5t-81 -98.5 q-64 -56 -150 -78q38 -19 58 -35q46 -35 85.5 -104t39.5 -166q-6 -200 -154 -322q-135 -113 -367 -113q-210 0 -348 105q-149 115 -149 311zM342 410q0 -53 27 -99q67 -108 217 -108q57 0 103 17t73 44t42 53.5t21 53.5q18 78 -23 145t-118 94q-46 15 -102 15q-48 0 -95 -17 q-64 -23 -104 -77t-41 -121zM506 1020q0 -33 12 -68q14 -39 41 -64.5t60 -35t52 -12t38 -2.5q57 0 90 14q105 38 127 141q7 55 -4 90q-19 61 -77 93t-126 32q-47 0 -84 -14q-38 -14 -65.5 -37.5t-40 -49.5t-18 -47t-5.5 -40z" />
<glyph unicode="9" d="M57 297l275 45q13 -52 28 -78q16 -27 50.5 -48t87.5 -21q67 0 125 36q129 82 206 344q-6 -4 -17 -12t-17 -12q-102 -70 -246 -70q-92 0 -164 33q-111 49 -169 154t-58 233q0 185 127 334q150 184 403 184q87 0 168 -26q52 -19 94.5 -48.5t71 -66.5t50.5 -73.5t34.5 -80.5 t20 -75.5t10.5 -71t3.5 -55t0.5 -37.5q0 -91 -17 -187q-23 -138 -79.5 -277t-137.5 -237q-26 -33 -57.5 -62.5t-85 -66.5t-128 -59.5t-157.5 -22.5q-86 0 -170 29q-96 37 -164 116.5t-88 178.5zM416 915q0 -62 26 -114q8 -18 21.5 -35t35.5 -36t57 -30.5t77 -11.5 q46 0 94 21q72 31 112 99t40 148q0 102 -57 174t-158 72q-51 0 -93 -18q-56 -25 -93.5 -78t-51.5 -117q-10 -36 -10 -74z" />
<glyph unicode=":" horiz-adv-x="598" d="M111 0l65 276h270l-63 -276h-272zM289 766l63 276h271l-64 -276h-270z" />
<glyph unicode=";" horiz-adv-x="598" d="M61 -287l31 127q35 5 55 15q15 8 26 19.5t19.5 31t12 28.5t10.5 36.5t8 29.5h-112l65 276h270l-63 -276q-3 -13 -8 -37t-8 -37q0 -1 -3 -12t-4.5 -15.5l-5.5 -16.5t-7.5 -19.5t-9.5 -20t-12.5 -21t-15 -20.5t-18.5 -21t-22.5 -18.5t-26.5 -17.5q-53 -35 -129 -35 q-20 0 -52 4zM289 766l63 276h271l-64 -276h-270z" />
<glyph unicode="&#x3c;" horiz-adv-x="1366" d="M96 614v213l1366 625v-231l-1083 -500l1083 -498v-229z" />
<glyph unicode="=" horiz-adv-x="1366" d="M96 299v211h1366v-211h-1366zM96 684v211h1366v-211h-1366z" />
<glyph unicode="&#x3e;" horiz-adv-x="1366" d="M96 -6v229l1082 498l-1082 500v231l1366 -625v-213z" />
<glyph unicode="?" horiz-adv-x="1110" d="M236 1018q8 36 18 69t31.5 80t48 85.5t69 79t94 68.5t124 46t157.5 18q102 0 185.5 -24.5t136 -63.5t88.5 -89.5t50.5 -99.5t14.5 -97q0 -116 -75 -211q-37 -44 -140 -121l-98 -74q-12 -9 -41.5 -31t-38.5 -29t-26 -21.5t-26 -24.5t-17 -21q-29 -40 -58 -154h-227l24 109 q22 89 35 121q20 44 52.5 77t115.5 101l92 72q5 4 25 18.5t29 22.5q31 26 47.5 43.5t30.5 47t14 64.5q0 38 -25 82q-57 82 -182 82q-58 -1 -106 -20t-78.5 -49t-47.5 -55t-28 -50q-17 -52 -23 -108zM393 0l64 276h270l-63 -276h-271z" />
<glyph unicode="@" horiz-adv-x="1835" d="M238 483q0 53 6.5 110.5t25.5 141t62.5 177t107.5 178.5q33 43 72 84t109 95.5t147 93.5t186.5 67t227.5 28q245 0 405 -129q203 -168 203 -465q0 -163 -59.5 -328.5t-167.5 -275.5q-121 -119 -254 -119q-14 0 -30 2.5t-43 10t-51 28t-38 51.5q-10 22 -17 64 q-1 -1 -8.5 -10.5t-11 -14t-12 -14t-15.5 -16.5t-18 -16.5t-23 -18.5q-89 -66 -186 -66q-57 0 -111 23q-70 33 -117.5 110t-47.5 207q2 140 58.5 278t158.5 222q108 87 221 84q113 0 182 -78q23 -25 45 -69l25 104h162l-68 -317q-57 -273 -57 -345q0 -73 53 -73 q36 2 81 41.5t87 109.5q47 77 76 171t36 150.5t7 100.5q0 113 -41 211q-31 68 -82 118t-99.5 74.5t-107 38.5t-90.5 16.5t-64 2.5q-45 0 -93.5 -7t-116.5 -26t-143 -61.5t-144 -104.5q-135 -122 -211 -290t-76 -349q0 -139 45 -250q36 -89 100.5 -157.5t145 -109.5t170 -62 t184.5 -21q254 0 494 152q109 70 182 147l82 -104q-337 -332 -752 -332q-183 0 -356 70q-214 87 -322 256q-114 172 -114 411zM766 492q0 -120 70 -168q35 -25 79 -25q38 0 86.5 26.5t88.5 82.5q38 52 61.5 122.5t29 112.5t5.5 72q0 43 -10 80q-21 64 -62.5 89t-83.5 25 q-48 0 -102 -35q-74 -53 -118 -166.5t-44 -215.5z" />
<glyph unicode="A" horiz-adv-x="1323" d="M-53 0l829 1446h301l156 -1446h-272l-29 301h-529l-159 -301h-297zM528 528h385l-47 643z" />
<glyph unicode="B" horiz-adv-x="1366" d="M47 0l334 1446h461q165 0 233 -12q140 -25 217 -117q70 -81 70 -193q0 -34 -6.5 -71t-27 -85.5t-53 -88.5t-90.5 -75t-134 -50q52 -5 100 -33q75 -40 116.5 -118.5t41.5 -168.5q0 -76 -29 -147q-68 -184 -266 -248q-63 -22 -144 -29.5t-237 -9.5h-586zM377 238h264h27 h30.5t29 0.5t32.5 1t29.5 2t31.5 3.5t28.5 5t30 7t25.5 9q39 17 66.5 42.5t40 53t17.5 49t5 40.5q0 68 -39 120q-22 30 -51.5 48.5t-69.5 25.5t-65 8.5t-73 1.5h-17h-246zM522 870h207q81 1 112 2.5t69.5 8t66.5 20.5q115 56 115 174q0 64 -37 101q-30 31 -80 39t-156 8 h-215z" />
<glyph unicode="C" horiz-adv-x="1409" d="M156 578q0 36 2.5 76.5t14 112t30.5 139t57 148.5t88 148q210 275 570 275q90 0 167.5 -17.5t130.5 -45.5t96.5 -66t69 -74t43.5 -76q37 -83 45 -209l-264 -45q0 94 -28 162q-18 36 -48 63q-76 76 -212 76q-147 0 -254 -84q-105 -85 -166.5 -244t-61.5 -305 q0 -168 70 -268q28 -42 74 -74q82 -57 188 -57q153 0 264 100q80 75 133 201l238 -98q-76 -213 -246 -330t-401 -117q-175 0 -316 72q-284 145 -284 537z" />
<glyph unicode="D" horiz-adv-x="1492" d="M47 0l334 1446h276q222 0 324 -8t186 -39q88 -33 151.5 -91.5t99.5 -133.5t52.5 -156.5t16.5 -175.5q0 -129 -31 -248q-52 -189 -176 -337.5t-299 -209.5q-41 -15 -79 -24t-83 -13.5t-69.5 -6t-83.5 -2t-80 -1.5h-539zM375 238h57q193 0 291 6q36 3 61.5 7t74.5 19 t87.5 37t84 64t79.5 98q48 76 74 175t26 194q0 53 -6 92q-31 175 -164 235q-60 27 -138 35t-234 8h-68z" />
<glyph unicode="E" horiz-adv-x="1280" d="M47 0l334 1446h983l-53 -236h-717l-80 -342h682l-53 -231h-682l-92 -404h823l-53 -233h-1092z" />
<glyph unicode="F" horiz-adv-x="1110" d="M47 0l334 1446h983l-55 -238h-711l-90 -385h666l-54 -229h-665l-138 -594h-270z" />
<glyph unicode="G" horiz-adv-x="1536" d="M154 561q0 92 16 172q9 50 24.5 102.5t48 133t91 164.5t135.5 153q218 191 504 191q108 0 209 -29q43 -12 79 -27t81.5 -46t80.5 -71.5t68 -106.5t53 -148l-268 -60q-18 90 -49 139q-76 119 -254 119q-64 0 -123.5 -18t-103 -47.5t-69 -52t-46.5 -46.5 q-86 -97 -138.5 -235.5t-52.5 -267.5q0 -82 25 -156q12 -35 33 -68.5t58.5 -71.5t99.5 -61.5t139 -23.5q86 0 151 24q187 64 240 307h-385l53 232h637l-176 -762h-240l33 98q-159 -129 -381 -129q-125 0 -225 39q-67 25 -122 64.5t-90.5 81t-62 92.5t-40 93.5t-21.5 90 t-10 75.5t-2 56z" />
<glyph unicode="H" horiz-adv-x="1449" d="M47 0l334 1446h272l-131 -567h629l131 567h272l-333 -1446h-273l150 647h-629l-150 -647h-272z" />
<glyph unicode="I" horiz-adv-x="555" d="M49 0l334 1446h272l-333 -1446h-273z" />
<glyph unicode="J" horiz-adv-x="811" d="M-49 0l57 244q78 -23 166 -23q77 0 118 21.5t66 60.5q16 24 31 70t23.5 81.5t29.5 125.5l201 866h270l-223 -969q-5 -18 -12.5 -50t-9.5 -42q-23 -93 -46.5 -155t-66.5 -117q-55 -69 -140 -102.5t-239 -33.5q-110 0 -225 23z" />
<glyph unicode="K" horiz-adv-x="1323" d="M47 0l334 1446h268l-153 -664l675 664h353l-629 -578l389 -868h-303l-289 692l-274 -246l-103 -446h-268z" />
<glyph unicode="L" horiz-adv-x="1067" d="M47 0l334 1446h272l-278 -1206h622l-55 -240h-895z" />
<glyph unicode="M" horiz-adv-x="1748" d="M47 0l334 1446h395l72 -1094l606 1094h397l-333 -1446h-263l287 1198l-647 -1198h-233l-89 1198l-262 -1198h-264z" />
<glyph unicode="N" horiz-adv-x="1449" d="M47 0l334 1446h246l440 -1067l227 1067h260l-333 -1446h-240l-444 1061l-226 -1061h-264z" />
<glyph unicode="O" horiz-adv-x="1536" d="M154 588q0 99 24 221q68 309 260 485q203 183 496 183q170 0 293 -62q40 -20 78.5 -49t81 -78t73.5 -108.5t51.5 -144.5t20.5 -181q0 -104 -27 -229q-36 -150 -106 -277q-27 -48 -57.5 -90.5t-88.5 -98.5t-124.5 -95t-166 -67t-212.5 -28q-160 0 -285 58 q-106 49 -178 140.5t-102.5 196.5t-30.5 224zM430 596q0 -233 148 -330q76 -53 194 -53q128 0 223 61q177 111 242 402q25 97 25 192q0 188 -105 289q-86 84 -231 84q-228 0 -355 -184q-63 -92 -102 -221t-39 -240z" />
<glyph unicode="P" horiz-adv-x="1236" d="M47 0l334 1446h395q140 0 200 -4t114 -21q80 -25 159 -104q92 -107 92 -266v-7q0 -36 -6.5 -78t-24 -103.5t-59.5 -125t-104 -112.5q-50 -41 -102 -65t-117.5 -34t-108.5 -12t-127 -2h-254l-119 -512h-272zM492 743h155q88 0 152 5q125 7 198 92q68 85 68 188 q0 107 -84 156q-9 6 -20 10t-19.5 7t-23.5 5.5t-23.5 3.5t-29.5 2t-30 1t-37 0.5t-40 0.5h-158z" />
<glyph unicode="Q" horiz-adv-x="1579" d="M147 594q0 50 7.5 111.5t28.5 154.5t71 194t123 185q40 45 82.5 80t110 74.5t161 61.5t205.5 22q235 0 377 -113q29 -22 56 -50.5t58.5 -74.5t54.5 -98t38.5 -124.5t15.5 -150.5q0 -91 -23.5 -210t-58.5 -203q-20 -49 -55 -105q67 -70 121.5 -112.5t140.5 -92.5 l-141 -233q-105 65 -181 137q-69 66 -96 100q-2 -2 -20 -17t-37 -29t-41 -27q-174 -105 -400 -105q-215 0 -358 99q-123 81 -181.5 222.5t-58.5 303.5zM424 594q0 -150 68 -250q28 -41 77 -78q77 -55 195 -55q128 0 233 68q178 112 244 405q23 96 23 190q0 153 -78 256 q-18 23 -37.5 40t-50 36t-74 29t-96.5 10q-218 0 -344 -164q-72 -92 -116 -228.5t-44 -258.5z" />
<glyph unicode="R" horiz-adv-x="1323" d="M47 0l334 1446h432q136 0 201.5 -4.5t120.5 -22.5q120 -37 182.5 -132t62.5 -224q0 -36 -6 -75t-23 -96.5t-58 -114.5t-101 -101q-83 -59 -178 -74l190 -602h-282l-170 569h-303l-132 -569h-270zM498 782h250q59 0 88 2q28 2 41.5 3.5t51.5 10.5t69 31t55 56 q47 64 47 151q0 102 -78 152q-33 23 -78 29t-141 6h-203z" />
<glyph unicode="S" horiz-adv-x="1280" d="M66 383l256 96q5 -31 14 -55q35 -104 126 -155.5t208 -51.5q64 0 114 16q45 14 77 39t48 53t22.5 52t6.5 47q0 52 -27 84q-23 35 -68.5 59t-133.5 54q-162 54 -218 81q-151 72 -208 187q-35 72 -35 151q0 152 112 269q156 161 435 161q217 0 366 -104q62 -45 99 -92 q27 -33 59 -105l-234 -118q-12 32 -24 53q-85 135 -275 135h-6q-115 0 -179 -49t-64 -113q0 -31 14 -63q19 -37 56.5 -58.5t123.5 -52.5q92 -34 133 -47q13 -5 40.5 -15.5t41.5 -15.5q44 -21 84 -45q47 -26 70 -47q46 -37 87.5 -108.5t41.5 -169.5q0 -95 -41 -180t-113 -148 q-87 -76 -200 -114t-234 -38q-29 0 -63 3t-90 12.5t-116.5 33.5t-111.5 60q-151 108 -194 299z" />
<glyph unicode="T" horiz-adv-x="1110" d="M205 1210l55 236h1063l-55 -236h-375l-279 -1210h-274l278 1210h-413z" />
<glyph unicode="U" horiz-adv-x="1409" d="M141 379q3 86 39 250l191 817h270l-186 -815q-39 -159 -39 -215q0 -90 55 -140q71 -67 211 -67q96 0 174 39q36 18 64 44.5t44 48.5t31.5 63.5t21.5 62t18 72.5q3 13 5 20l205 887h273l-207 -897q-19 -77 -29.5 -116.5t-35 -106t-50.5 -107.5q-42 -64 -124 -128t-206 -97 q-94 -25 -204 -25q-294 0 -431 162q-90 100 -90 248z" />
<glyph unicode="V" horiz-adv-x="1193" d="M244 1446h268l49 -1163l584 1163h293l-766 -1446h-330z" />
<glyph unicode="W" horiz-adv-x="1705" d="M258 0v1446h264l-37 -1127l482 1127h268l-39 -1127l479 1127h273l-658 -1446h-313l31 1012l-435 -1012h-315z" />
<glyph unicode="X" horiz-adv-x="1323" d="M-86 0l690 782l-276 664h293l167 -442l367 442h334l-598 -674l334 -772h-303l-215 553l-467 -553h-326z" />
<glyph unicode="Y" horiz-adv-x="1236" d="M242 1446h280l197 -639l455 639h313l-670 -871l-133 -575h-274l133 575z" />
<glyph unicode="Z" horiz-adv-x="1193" d="M-57 0l55 240l973 974h-735l53 232h1095l-51 -217l-989 -993h813l-53 -236h-1161z" />
<glyph unicode="[" horiz-adv-x="768" d="M82 -223l385 1669h532l-41 -180h-282l-301 -1309h272l-43 -180h-522z" />
<glyph unicode="\" horiz-adv-x="724" d="M127 1446h209l467 -1483h-209z" />
<glyph unicode="]" horiz-adv-x="768" d="M-139 -223l41 180h282l301 1309h-272l43 180h522l-385 -1669h-532z" />
<glyph unicode="^" horiz-adv-x="1492" d="M358 662l400 784h186l383 -784h-242l-237 503l-250 -503h-240z" />
<glyph unicode="_" horiz-adv-x="1024" d="M76 -256h1065v-211h-1065v211z" />
<glyph unicode="`" horiz-adv-x="555" d="M29 1446h305l78 -279h-203z" />
<glyph unicode="a" d="M59 270q0 85 37.5 159.5t106.5 119.5q43 28 99.5 44.5t92.5 21.5t107 12l192 16q80 7 137 27q15 68 15 84q0 108 -189 108q-139 0 -180 -82q-9 -18 -18 -63h-260q5 89 75 174q57 69 150 107t250 38q98 0 180 -18q18 -5 30.5 -8.5t39 -14t45 -22.5t42 -32.5t38.5 -44.5 t25.5 -59.5t10.5 -76.5q0 -59 -38 -234l-46 -198q-38 -165 -39 -230q0 -48 13 -98h-264q-2 32 -2.5 57t2.5 45q-27 -23 -48.5 -39t-61 -38t-91 -33.5t-111.5 -11.5q-78 0 -139.5 19.5t-98.5 49.5t-61 69.5t-33 77.5q-8 34 -8 67v7zM313 305q0 -26 15 -55q38 -76 141 -76 q87 0 182 57q48 29 54 33q26 22 43 43l40 178l-237 -28q-10 -1 -29.5 -3t-29.5 -3q-40 -5 -63 -10t-51.5 -22t-45.5 -46q0 -1 -4.5 -10t-7 -16t-5 -19t-2.5 -23z" />
<glyph unicode="b" horiz-adv-x="1193" d="M39 0l334 1446h248l-115 -496q11 11 26 23q97 74 234 74q183 0 285 -119t102 -305q0 -95 -25 -191q-24 -96 -64.5 -173.5t-88.5 -127t-92 -79.5t-90 -48q-82 -31 -187 -31q-96 0 -163.5 31t-131.5 102l-24 -106h-248zM389 403q0 -65 27 -114q18 -33 44.5 -55t55 -31 t47 -12t35.5 -3q79 0 135 37q42 26 75 70t50.5 89.5t25.5 74t11 45.5q10 56 10 98q0 66 -16 109q-12 28 -30 52t-61 47.5t-100 23.5q-34 0 -68.5 -8.5t-82 -42.5t-78.5 -91q-15 -26 -30.5 -61t-32.5 -101.5t-17 -126.5z" />
<glyph unicode="c" horiz-adv-x="1024" d="M92 412q0 99 31.5 206.5t85.5 188.5q40 59 96 111q146 129 344 129q83 0 158 -23t139 -75.5t96 -129.5q16 -41 21 -84l-232 -78q0 1 -0.5 11t-1 15t-2 16.5t-4 19.5t-6 19.5t-9 21t-12.5 19.5t-16.5 19t-21.5 17q-43 29 -107 29q-75 0 -135.5 -39.5t-97 -102 t-55.5 -132.5t-19 -138q0 -145 82 -209q52 -39 123 -39q45 0 102 23q55 26 88 68t62 108l221 -92q-43 -109 -129 -187q-141 -131 -356 -131q-28 0 -58 3t-83 14.5t-106 41t-93 74.5q-41 45 -73 123t-32 183z" />
<glyph unicode="d" horiz-adv-x="1193" d="M92 389q0 59 10 117q5 31 11 59t25 87t44.5 107.5t71 104.5t102.5 94q128 89 277 89q165 0 258 -107q22 -25 37 -55l129 561h246l-334 -1446h-246l25 106q-22 -25 -41.5 -42.5t-55 -41t-84 -36.5t-106.5 -13q-176 0 -275 119q-94 115 -94 297zM344 410q0 -94 47 -154 q49 -66 146 -66q56 0 94 19q67 25 123 97t82 196q12 54 12 123q0 66 -14 102q-19 56 -67.5 84.5t-111.5 28.5q-49 -1 -92.5 -19.5t-71.5 -44t-51 -57.5t-33 -52.5t-16 -37.5q-47 -117 -47 -219z" />
<glyph unicode="e" horiz-adv-x="1110" d="M94 420q0 29 4 67t15.5 96.5t38 124t65.5 119.5q26 36 58 68.5t84.5 70t128 59.5t163.5 22q122 0 209 -41q36 -17 70 -45t69.5 -72.5t57.5 -113t22 -150.5q0 -77 -16 -148h-711q-6 -42 -6 -71q0 -43 10 -76q6 -24 18.5 -47t36 -49t64.5 -42t94 -16q55 0 101.5 18t78 48.5 t48.5 52.5t33 48q3 5 4 7l206 -127q-80 -123 -208 -186.5t-279 -63.5q-209 0 -334 120t-125 327zM395 657l436 2q1 10 1 20q0 42 -11 73q-5 18 -16 35.5t-29.5 36.5t-50.5 30.5t-72 11.5q-64 0 -119 -30.5t-92 -83.5q-29 -42 -47 -95z" />
<glyph unicode="f" horiz-adv-x="641" d="M76 0l196 842h-163l41 176h161l11 43q15 71 43 162q16 53 32.5 85.5t48.5 61.5q86 82 253 82h4h6q87 0 163 -12l-47 -205q-42 4 -75 4q-19 0 -35 -1q-43 -4 -72 -21q-27 -16 -41 -47.5t-31 -100.5l-12 -51h217l-39 -176h-217l-194 -842h-250z" />
<glyph unicode="g" horiz-adv-x="1193" d="M-8 -45q0 4 1 13.5t1 13.5h254q-2 -28 2 -52q12 -62 64 -91t120 -29q23 0 50 3.5t74 23t79 52.5q11 11 21 25.5t17.5 26t16 31t13 30t12 33.5t10 30.5t10 32.5t8.5 29q-19 -19 -36 -31q-42 -28 -109 -46.5t-123 -18.5q-90 0 -172 43q-35 19 -66.5 48t-63 74t-50.5 112 t-19 147q0 47 7.5 98t39.5 135.5t87 155.5q47 63 106.5 106.5t116.5 62.5t99 26.5t79 7.5q142 0 242 -78q22 -16 47 -47l22 96h250l-178 -778q-15 -64 -33 -129q-46 -179 -100.5 -269t-142.5 -143q-72 -45 -146.5 -61.5t-171.5 -16.5q-189 0 -297 68q-51 32 -84 73 q-57 80 -57 193zM360 461q0 -79 30 -129t69 -74q37 -22 98 -22q115 0 190.5 79t102.5 197q12 58 12 109q0 102 -45 159q-52 66 -147 66q-81 0 -144 -41q-75 -51 -120.5 -150t-45.5 -194z" />
<glyph unicode="h" d="M39 0l334 1446h250l-121 -524q25 22 41 32q118 82 252 82q67 0 130.5 -24.5t102.5 -71.5q57 -62 57 -174q0 -63 -38 -244l-121 -522h-250l112 487q35 146 35 205q0 64 -34.5 98.5t-98.5 34.5q-118 0 -196 -96q-30 -38 -49.5 -90.5t-43.5 -153.5l-112 -485h-250z" />
<glyph unicode="i" horiz-adv-x="512" d="M39 0l237 1018h246l-235 -1018h-248zM317 1198l56 248h248l-58 -248h-246z" />
<glyph unicode="j" horiz-adv-x="512" d="M-199 -346l52 217q60 -10 79 -10q22 0 39 9t27.5 20.5t21.5 40.5t16.5 49.5t16.5 66.5l223 971h246l-235 -1020q-33 -145 -58 -197q-51 -121 -178 -155q-54 -15 -98 -15q-71 0 -152 23zM317 1198l58 248h246l-58 -248h-246z" />
<glyph unicode="k" horiz-adv-x="1110" d="M39 0l334 1446h245l-186 -807l455 379h313l-442 -356l293 -662h-275l-211 508l-198 -160l-82 -348h-246z" />
<glyph unicode="l" horiz-adv-x="512" d="M39 0l334 1446h248l-334 -1446h-248z" />
<glyph unicode="m" horiz-adv-x="1748" d="M39 0l237 1018h244l-24 -109q16 22 39 39q99 88 243 88q134 0 207 -69q34 -32 57 -86q25 27 64 57q131 98 289 98q123 0 208 -71.5t85 -192.5q0 -61 -39 -237l-123 -535h-248l119 512q33 158 33 184q0 33 -11 57.5t-26 37t-35 20.5t-34.5 10t-27.5 2q-44 0 -99 -25.5 t-99 -86.5q-31 -44 -49.5 -98t-47.5 -177l-102 -436h-246l117 500q33 161 33 188q0 40 -13 69t-34 42t-40 18.5t-38 5.5q-68 0 -125 -41q-30 -20 -54 -47.5t-38 -51t-28 -64t-19.5 -61.5t-16.5 -69l-112 -489h-246z" />
<glyph unicode="n" d="M39 0l237 1018h232l-27 -111q34 28 35 29q126 100 283 100q26 0 51.5 -3.5t60.5 -13t64 -29.5t54.5 -49.5t40.5 -77.5t15 -109q0 -73 -30 -209l-125 -545h-250l117 506q28 143 28 178q0 43 -14 76q-28 65 -119 65q-71 0 -141 -49q-64 -47 -96 -118t-68 -228l-100 -430 h-248z" />
<glyph unicode="o" d="M88 412q0 139 61 280t164 228q65 55 172 94q98 33 195 33q88 0 176 -31q69 -25 119.5 -67.5t76 -85t41 -94t18.5 -83.5t3 -65q0 -87 -20 -164q-47 -210 -179 -334q-160 -150 -391 -150q-175 0 -288 93q-71 61 -109.5 154.5t-38.5 191.5zM336 420q0 -102 54 -169t155 -67 q68 0 125 31q48 26 85.5 68.5t57.5 89t29 73.5t14 52q12 69 12 116q0 58 -14 99q-17 49 -62.5 89t-129.5 40q-134 0 -213 -99q-50 -59 -81.5 -149.5t-31.5 -173.5z" />
<glyph unicode="p" horiz-adv-x="1193" d="M-43 -369l322 1387h241l-26 -111q19 29 38 45q41 39 97 62t90 28t63 5q75 0 152 -33q61 -25 105.5 -70.5t65.5 -89t33.5 -97.5t14.5 -82t2 -57q0 -41 -6.5 -91.5t-26 -128t-66 -157.5t-114.5 -141q-138 -127 -326 -127q-163 0 -251 86q-24 22 -50 64l-112 -492h-246z M389 424q0 -65 20.5 -112t47.5 -72q27 -24 68 -38t79 -14q95 0 174.5 75t112.5 235q14 63 14 114q0 62 -16 103q-16 48 -62.5 87.5t-130.5 39.5q-50 0 -93.5 -17t-70.5 -39t-49.5 -53.5t-31.5 -51t-17 -40.5q-7 -16 -16 -45t-19 -80t-10 -92z" />
<glyph unicode="q" d="M92 377q0 43 6 84q4 32 10 67t26 98.5t47.5 118.5t78.5 115.5t115 102.5q128 84 276 84q158 0 246 -97q15 -15 35 -49l26 117h244l-319 -1387h-244l102 447q-121 -105 -282 -105q-164 0 -264 105q-45 47 -70.5 117.5t-29 108.5t-3.5 73zM342 403q0 -51 10 -86 q6 -21 17 -40t31.5 -39.5t54.5 -32.5t77 -12q67 0 123 29t94 78t63.5 105.5t39.5 120.5q10 60 10 92q0 60 -16 97q-38 116 -178 116q-77 0 -136 -36q-91 -55 -140.5 -166t-49.5 -226z" />
<glyph unicode="r" horiz-adv-x="724" d="M39 0l237 1018h246l-53 -174q61 76 124 120t110 56t102 12q6 0 19.5 -1t19.5 -1l-60 -254q-27 3 -53 3q-129 0 -211 -68q-30 -25 -51.5 -54t-37 -70t-22.5 -64.5t-20 -76.5l-102 -446h-248z" />
<glyph unicode="s" horiz-adv-x="1024" d="M18 238l211 129q12 -43 35 -76q31 -46 93 -80.5t157 -34.5q68 0 111 21q40 18 57.5 45.5t17.5 52.5q0 26 -14 49q-13 20 -40 35.5t-40.5 20t-50.5 16.5q-17 6 -51.5 16.5t-55 17.5t-49 17.5t-51.5 21.5q-174 80 -174 234q0 43 19.5 101t70.5 106q46 46 129 81.5t197 35.5 q82 0 172 -23q27 -7 54.5 -18.5t67 -34t78 -61.5t66.5 -89l-192 -114q-19 48 -53 80.5t-72 46t-64.5 18t-50.5 4.5q-36 0 -71.5 -8t-67 -33.5t-31.5 -64.5q0 -25 11 -43t46 -34.5t53 -23t77 -24.5q19 -6 28 -9q167 -50 238 -124q69 -72 69 -181q0 -100 -61 -182 q-115 -156 -385 -156q-31 0 -56.5 1.5t-76 8.5t-94.5 24.5t-93.5 45t-92 75.5t-71.5 110z" />
<glyph unicode="t" horiz-adv-x="641" d="M131 842l41 176h150l81 356h246l-82 -356h189l-41 -176h-189l-102 -441q-21 -88 -21 -118t13 -47q23 -37 104 -37q20 0 66 4l-47 -203q-75 -12 -138 -12q-18 0 -30 0.5t-41 4t-50 10.5t-48 22.5t-44 36.5t-29 55t-12 76q0 20 2 41.5t6.5 48.5t7.5 42t10 47.5t9 39.5 l101 430h-152z" />
<glyph unicode="u" d="M115 248q0 24 5 59.5t10 62.5t13.5 68.5t10.5 53.5l122 526h246l-114 -498q-35 -149 -35 -201q0 -20 6 -38q8 -32 42 -60t93 -28q119 0 195 106q10 14 19 28.5t17 32.5l14 31.5t13 35.5l10.5 33t10 36t8.5 33t8.5 35t7.5 32l98 422h246l-235 -1018h-228l25 109 q-133 -127 -301 -127q-132 0 -219.5 68.5t-87.5 197.5z" />
<glyph unicode="v" horiz-adv-x="937" d="M129 1018h244l20 -797l410 797h254l-559 -1018h-289z" />
<glyph unicode="w" horiz-adv-x="1449" d="M152 1018h241l-10 -748l346 748h240v-748l348 748h260l-524 -1018h-269v692l-333 -692h-261z" />
<glyph unicode="x" horiz-adv-x="1067" d="M-55 0l479 543l-229 475h266l127 -320l243 320h299l-430 -494l256 -524h-272l-147 367l-287 -367h-305z" />
<glyph unicode="y" horiz-adv-x="937" d="M-94 -350l51 219q40 -10 102 -10q28 0 58 6q60 23 94 102l-94 1051h250l26 -793l404 793h260l-580 -1051q-65 -116 -67 -119q-44 -73 -81.5 -116t-98 -72t-140.5 -29q-58 0 -184 19z" />
<glyph unicode="z" horiz-adv-x="980" d="M-18 0l36 164l656 653h-504l45 201h844l-41 -176l-645 -633h557l-49 -209h-899z" />
<glyph unicode="{" horiz-adv-x="724" d="M203 504v14q27 5 55 21t47.5 44t29 53t14 66.5t5 62.5t0.5 63v20v254q0 18 1 56t1 56q5 106 41.5 179t124.5 108q32 13 74.5 19.5t71.5 7.5t123 4v-14q-10 -2 -60 -17q-114 -37 -143 -151q-10 -41 -10 -176v-197q-2 -200 -11 -255q-12 -79 -49 -128q-42 -56 -135 -84 q86 -27 129 -74q45 -53 56 -119t12 -214v-37v-224v-33v-37.5t1 -32.5t4 -37t7.5 -32t11.5 -36t17 -31q7 -11 14.5 -20.5t16.5 -17.5t15.5 -13.5t18.5 -12t18 -9.5t21 -8.5t20 -7t23 -7t23 -7.5v-12q-111 0 -166 6q-113 15 -176 68q-14 12 -26 26.5t-20.5 27t-15.5 33 t-11.5 31t-8 36t-5.5 33.5t-3.5 37t-1.5 34t-0.5 36.5t-0.5 32.5v351q0 65 -10.5 111.5t-44.5 88.5q-22 29 -53 47q-23 11 -45 17z" />
<glyph unicode="|" horiz-adv-x="468" d="M225 -512v2044h211v-2044h-211z" />
<glyph unicode="}" horiz-adv-x="724" d="M127 -500q65 16 103.5 36t68.5 63q29 44 35 88.5t6 156.5v199q2 199 9 251q12 81 50 132q24 32 57 50t81 32q-87 27 -129 76q-46 52 -57.5 118t-12.5 214v36v224q2 99 -5 146.5t-32 88.5q-7 11 -14 21t-16.5 18.5t-16 14t-19.5 12.5t-18.5 10t-22 9t-20.5 7.5t-23.5 7.5 t-23.5 7v14q17 -1 50 -2t50 -2q82 -4 137.5 -17.5t104.5 -54.5q33 -28 53 -63t28 -82.5t9.5 -78t1.5 -85.5v-7v-5.5v-6.5v-262q0 -8 -0.5 -39t0 -42.5t1.5 -38.5t4.5 -42.5t8.5 -37.5t13.5 -39.5t19.5 -34.5q22 -37 64 -60q15 -9 43 -18v-12q-39 -12 -56 -23 q-28 -16 -47.5 -44t-29 -53t-14 -66.5t-5 -62.5t-0.5 -63v-20v-254q0 -139 -8 -188q-25 -155 -158 -209q-13 -5 -26.5 -9.5t-24 -7t-28.5 -5t-28 -3.5t-34.5 -2t-36 -1.5t-44 -1.5t-48.5 -1v12z" />
<glyph unicode="~" horiz-adv-x="1492" d="M330 604q15 23 25 36.5t40 45t59.5 50t76 34.5t96.5 16q46 0 91 -13.5t124 -51.5l73 -33q103 -43 148 -43q35 0 65 12q65 28 138 115l92 -182q-51 -57 -92 -88l-14 -9q-13 -9 -21 -14t-25 -14.5t-32.5 -15.5t-34.5 -12.5t-40 -9.5t-42 -3q-35 0 -75.5 10.5t-64.5 21 t-69 31.5l-62 31q-100 47 -157 47q-36 0 -70 -14q-7 -3 -13.5 -6.5t-14 -9t-12.5 -9t-13.5 -12l-13 -13t-15 -16t-15 -17t-17.5 -20.5t-19 -22z" />
<glyph unicode="&#xa1;" horiz-adv-x="598" d="M29 0l141 608l172 434h129l-37 -421l-143 -621h-262zM299 1169l63 277h273l-64 -277h-272z" />
<glyph unicode="&#xa3;" horiz-adv-x="1280" d="M49 209q0 48 21 104q16 40 41 69.5t50 45t54 25t49 12t39 2.5q84 0 158 -39q17 -9 43 -29q20 45 20 93q0 18 -3 35t-5.5 26t-10.5 30.5t-11 30.5h-279l41 179l184 2q-4 6 -24 41q-41 99 -41 186q0 92 43 176q27 52 68 91.5t88 62t89 37t88 20t67.5 7t43.5 1.5 q187 0 305 -88q140 -109 140 -328q0 -14 -9 -86h-231q23 161 -43 242q-22 27 -60 43t-59 18.5t-39 2.5q-53 0 -98 -19q-62 -28 -97.5 -82t-35.5 -121q0 -42 8 -69q6 -27 26.5 -74t26.5 -63h271l-41 -179l-197 -2q21 -60 21 -125q0 -38 -12.5 -97.5t-43.5 -115.5 q6 -4 36.5 -24t42.5 -26.5t37 -14.5t48 -8q58 0 96 65q12 21 24 55t25.5 79.5t16.5 56.5h246q-5 -23 -17.5 -66t-13.5 -47q-55 -169 -125 -254q-91 -110 -229 -110q-25 0 -49.5 3t-47 9.5t-41 13t-39 17.5t-33 17.5t-30 19.5t-24 17.5t-20.5 16.5t-15 12q-20 -18 -28 -25.5 t-41 -32t-59.5 -37t-69.5 -24.5t-85 -12q-54 0 -109 21q-65 28 -103 85.5t-38 127.5zM236 219q0 -26 21 -41.5t48 -15.5q17 0 35 6q52 22 84 68l-21 14q-61 37 -102 37l-27 -6q-12 -5 -25 -21.5t-13 -40.5z" />
<glyph unicode="&#xa4;" horiz-adv-x="1366" d="M147 221l162 160q-26 38 -43 70.5t-35 100.5t-18 144q0 170 94 312l-157 159l157 158l158 -160q40 27 55 35q114 64 260 64q142 0 254 -62q10 -5 60 -35l157 158l160 -158l-162 -159q30 -43 41 -64q56 -112 56 -250q0 -58 -9 -109t-27.5 -93t-29.5 -61.5t-31 -51.5 l162 -162l-160 -158l-161 164q-40 -28 -62 -39q-124 -57 -250 -57q-149 0 -252 61q-10 4 -61 35l-160 -160zM420 694q0 -79 31 -149q42 -97 133 -155t198 -58q70 0 152 33q95 45 149 134t56 197q0 63 -23 129q-36 105 -130.5 169.5t-207.5 64.5q-77 -3 -141 -29 q-103 -44 -160 -134t-57 -202z" />
<glyph unicode="&#xa6;" horiz-adv-x="468" d="M225 389h211v-780h-211v780zM225 631v780h211v-780h-211z" />
<glyph unicode="&#xa7;" horiz-adv-x="1236" d="M72 -43l155 190q13 -21 33 -41q120 -120 318 -120q33 0 65.5 4.5t69 16t59.5 37t23 62.5q0 24 -21 48q-4 5 -9.5 9.5t-10.5 8t-13 8t-13 7.5t-15.5 7.5t-16.5 7t-19.5 8t-19.5 8t-23 9t-24 9.5l-153 53l-25 10q-26 10 -50.5 20t-58.5 27t-57 33q-20 14 -39.5 33 t-44.5 51.5t-40 78.5t-15 97q0 93 43 167.5t123 115.5q19 10 38 17t37 11.5t21 5.5q-19 16 -27 25q-47 59 -47 139q0 91 62 178q35 50 86 86t95 53.5t96.5 27t78 11t53.5 1.5q253 0 428 -142l-145 -170q-33 36 -80 60.5t-94 34.5t-75 13t-48 3q-92 -1 -148.5 -35t-56.5 -82 q0 -25 15 -42t28 -23q20 -14 111 -45l162 -56q138 -48 190 -80q27 -17 46.5 -33t46 -46.5t41 -75.5t14.5 -101q0 -51 -15 -96q-15 -46 -41.5 -85.5t-55 -64t-51.5 -39.5t-42 -22q-23 -12 -60 -18q16 -14 35 -33q60 -75 60 -162q0 -62 -33.5 -135.5t-116.5 -132.5 q-45 -33 -100.5 -54.5t-108 -30t-83 -11t-56.5 -2.5q-133 0 -263 48.5t-218 137.5zM360 688q0 -23 19 -61q20 -32 57.5 -52t118.5 -49l156 -53q6 -2 19.5 -7t19.5 -7q35 -11 63 -29q68 5 119 47t51 107q0 69 -63 112q-19 14 -56 27l-67 25l-170 59q-80 29 -105 45 q-53 -12 -88 -32.5t-55 -61.5q-19 -38 -19 -70z" />
<glyph unicode="&#xa8;" horiz-adv-x="555" d="M-84 1165l59 254h258l-57 -254h-260zM393 1165l58 254h258l-58 -254h-258z" />
<glyph unicode="&#xa9;" horiz-adv-x="1705" d="M221 725q0 269 168 467q35 42 78 79.5t113 82t166.5 71.5t205.5 27q248 0 437 -141q34 -26 67 -57.5t75.5 -87t73.5 -117t53 -149t21 -181.5q-7 -280 -180 -479q-102 -118 -246 -182t-303 -64q-156 0 -297 61.5t-245 175.5q-60 66 -101 141.5t-58 145t-22.5 116 t-5.5 91.5zM287 723q0 -133 49 -252q75 -187 244 -299.5t372 -112.5q96 0 211 35q203 67 326 239.5t123 387.5q6 220 -131 403q-24 32 -52 61.5t-77.5 68t-104 66t-132.5 47t-163 19.5q-223 0 -393 -126q-41 -29 -81 -70t-86.5 -107t-75.5 -160t-29 -200zM467 725 q0 180 100 311q24 32 54.5 60t79 59.5t117 50.5t147.5 19q63 0 120.5 -13.5t97 -31.5t77.5 -45.5t58 -46.5t42 -44l-148 -139q-58 61 -115 91t-132 30t-140 -33q-74 -37 -112.5 -109.5t-38.5 -158.5q0 -131 82.5 -214t212.5 -83q140 0 243 115l148 -135q-162 -179 -397 -179 q-218 0 -357 139t-139 357z" />
<glyph unicode="&#xab;" horiz-adv-x="894" d="M86 489l53 240l396 254l-66 -287l-197 -102l146 -117l-58 -248zM508 489l53 240l395 254l-65 -287l-197 -102l146 -117l-58 -248z" />
<glyph unicode="&#xac;" horiz-adv-x="1366" d="M96 496v211h1366v-707h-211v496h-1155z" />
<glyph unicode="&#xad;" horiz-adv-x="768" d="M102 487l56 236h594l-54 -236h-596z" />
<glyph unicode="&#xae;" horiz-adv-x="1705" d="M221 725q0 269 168 467q35 42 78 79.5t113 82t166.5 71.5t205.5 27q175 0 328 -76t258 -217q144 -194 141 -440q0 -42 -6 -87t-22 -110t-53 -136.5t-91 -135.5q-68 -80 -152 -135.5t-163.5 -79.5t-135.5 -32.5t-106 -8.5q-249 0 -446 149q-34 27 -66 58t-73.5 85.5 t-71.5 115t-51 146t-21 177.5zM287 723q0 -133 49 -252q75 -187 244 -299.5t372 -112.5q113 0 224 39q198 70 317 241t121 382q0 223 -129 399q-24 32 -52 62t-78 69t-105 67t-134 48t-164 20q-223 0 -393 -126q-41 -29 -81 -70t-86.5 -107t-75.5 -160t-29 -200zM625 266 v928h317q129 0 180 -11q90 -19 140 -79q55 -66 55 -156q0 -80 -53 -141q-23 -26 -58 -47q-16 -9 -65 -29q37 -19 59 -41q13 -13 23 -31t16 -32t11.5 -39t7 -35.5t5.5 -40.5t5 -35q21 -128 65 -211h-223q-2 4 -6 13.5t-6 13.5q-9 21 -16.5 52t-10.5 49t-9 60.5t-7 49.5 q-11 68 -23 96t-41 47q-23 13 -45 16t-78 5h-49v-402h-194zM821 823h117q75 0 112.5 12t55.5 46q16 26 16 57q0 24 -14 55q-14 25 -41.5 37t-45.5 13t-58 1h-142v-221z" />
<glyph unicode="&#xb0;" horiz-adv-x="724" d="M106 1194q0 147 104 249.5t251 102.5q146 -1 248 -104.5t102 -249.5t-103 -249t-249 -103q-147 0 -250 104t-103 250zM311 1192q1 -62 44.5 -105t103.5 -43q61 0 104 44t43 104t-43.5 102.5t-103.5 42.5q-61 0 -104.5 -42.5t-43.5 -102.5z" />
<glyph unicode="&#xb1;" horiz-adv-x="1366" d="M182 0v211h1194v-211h-1194zM182 766v211h494v461h211v-461h489v-211h-489v-463h-211v463h-494z" />
<glyph unicode="&#xb4;" horiz-adv-x="555" d="M150 1167l147 279h338l-266 -279h-219z" />
<glyph unicode="&#xb5;" d="M227 762q0 84 19 129q37 65 94 65q31 0 53 -20q47 -41 47 -131q0 -54 -24 -260.5t-37 -292.5q9 -36 43 -82q60 -82 151 -82q38 0 83.5 24t82.5 81q67 103 78 290q4 43 4 133q0 8 -1 47.5t-0.5 68t2.5 67t8 68t16 46.5q27 43 82 43q43 0 69 -24q47 -44 47 -184 q0 -134 -20 -254t-43 -185q-15 -46 -39 -88q33 -100 102 -100q36 0 60.5 32.5t23.5 92.5q0 29 -4 45l66 2q31 -71 31 -146q0 -73 -37 -121.5t-109 -48.5q-82 0 -139 76q-30 41 -41 86q-34 -52 -78 -88t-87.5 -52.5t-76 -23t-61.5 -6.5q-79 0 -150 45q-36 24 -55 45 q-2 2 -22 27q-7 -76 1 -144.5t30 -123.5t38 -85.5t41 -68.5q28 -44 37.5 -65.5t9.5 -44.5q-1 -39 -29.5 -65t-66.5 -26q-25 0 -55 15q-42 20 -72 86q-51 116 -51 340q0 201 24 354q-18 91 -29 210t-13.5 186.5t-2.5 107.5z" />
<glyph unicode="&#xb6;" horiz-adv-x="1366" d="M270 1022q0 72 19 135q28 93 91 161.5t152 100.5q78 27 197 27h490v-135h-72v-1653h-143v1653h-271v-1653h-143v969q-84 18 -129 43q-33 18 -62 44t-60.5 67.5t-50 103.5t-18.5 137z" />
<glyph unicode="&#xb7;" horiz-adv-x="382" d="M129 596q0 33 14 68q19 41 60.5 67.5t87.5 26.5q64 0 109.5 -47.5t45.5 -112.5q0 -68 -47.5 -115.5t-113.5 -46.5q-66 0 -111 47t-45 113z" />
<glyph unicode="&#xb8;" horiz-adv-x="555" d="M-188 -432l18 82q74 -23 115 -23q57 0 90 27q22 22 22 39q0 47 -96 47q-32 0 -67 -6l12 57l289 293h79l-176 -236q46 0 56 -2q50 -10 84 -43.5t34 -83.5q0 -77 -90 -131q-81 -49 -186 -49q-94 0 -184 29z" />
<glyph unicode="&#xbb;" horiz-adv-x="894" d="M23 229l67 287l197 102l-146 117l58 248l276 -262l-55 -238zM446 229l66 287l197 102l-146 117l58 248l274 -262l-53 -238z" />
<glyph unicode="&#xbf;" horiz-adv-x="1110" d="M-2 358q0 102 61 187q23 35 52.5 61t103.5 82l98 74q12 10 38 29.5t38 29.5q48 35 72 66q32 41 59 155h228l-25 -106q-22 -86 -33 -115q-19 -46 -51.5 -79.5t-118.5 -104.5l-94 -74q-29 -22 -51 -41q-48 -37 -71 -70t-23 -83q0 -48 28 -84q56 -80 178 -80 q60 0 108.5 18.5t79 49t47.5 56t28 52.5q13 38 20 104l248 -55q-32 -139 -96 -233q-146 -215 -449 -215q-269 0 -395 161q-80 98 -80 215zM524 1169l66 277h270l-63 -277h-273z" />
<glyph unicode="&#xc0;" horiz-adv-x="1323" d="M-53 0l829 1446h301l156 -1446h-272l-29 301h-529l-159 -301h-297zM528 528h385l-47 643zM694 1784h305l68 -244h-205z" />
<glyph unicode="&#xc1;" horiz-adv-x="1323" d="M-53 0l829 1446h301l156 -1446h-272l-29 301h-529l-159 -301h-297zM528 528h385l-47 643zM795 1534l135 250h332l-261 -250h-206z" />
<glyph unicode="&#xc2;" horiz-adv-x="1323" d="M-53 0l829 1446h301l156 -1446h-272l-29 301h-529l-159 -301h-297zM528 528h385l-47 643zM586 1540l260 250h270l148 -250h-232l-63 133l-121 -133h-262z" />
<glyph unicode="&#xc3;" horiz-adv-x="1323" d="M-53 0l829 1446h301l156 -1446h-272l-29 301h-529l-159 -301h-297zM528 528h385l-47 643zM571 1532q19 64 33 92q22 49 53 84t64.5 51.5t61.5 23.5t55 7q16 0 33 -2.5t31 -5.5t29.5 -8t24.5 -8.5t19.5 -8t11.5 -4.5q91 -33 119 -33q36 0 58 17.5t38 52.5h152 q-15 -55 -39 -98q-84 -160 -236 -160q-11 0 -21 0.5t-17 1t-18 3.5t-16.5 4t-20 6.5t-21 7.5t-27.5 10t-31 12q-68 22 -94 22q-63 0 -88 -67h-154z" />
<glyph unicode="&#xc4;" horiz-adv-x="1323" d="M-53 0l829 1446h301l156 -1446h-272l-29 301h-529l-159 -301h-297zM528 528h385l-47 643zM569 1538l60 252h258l-60 -252h-258zM1044 1538l60 252h258l-57 -252h-261z" />
<glyph unicode="&#xc5;" horiz-adv-x="1323" d="M-53 0l829 1446h301l156 -1446h-272l-29 301h-529l-159 -301h-297zM528 528h385l-47 643zM788 1706q0 77 55 130.5t134 53.5q84 0 135 -57q66 -71 47 -168q0 -6 -7.5 -27.5t-18.5 -38.5q-25 -39 -67.5 -62.5t-88.5 -23.5q-78 0 -133.5 57.5t-55.5 135.5zM885 1702 q1 -38 28.5 -64t63.5 -26q33 1 56.5 22t29.5 54q9 40 -17.5 73t-68.5 33q-27 0 -51 -14q-41 -28 -41 -78z" />
<glyph unicode="&#xc6;" horiz-adv-x="2004" d="M-43 0l1087 1446h1088l-53 -238h-647l-80 -344h618l-55 -239h-619l-90 -387h756l-55 -238h-1014l76 334h-437l-241 -334h-334zM705 571h319l160 695z" />
<glyph unicode="&#xc7;" horiz-adv-x="1409" d="M156 578q0 36 2.5 76.5t14 112t30.5 139t57 148.5t88 148q210 275 570 275q90 0 167.5 -17.5t130.5 -45.5t96.5 -66t69 -74t43.5 -76q37 -83 45 -209l-264 -45q0 94 -28 162q-18 36 -48 63q-76 76 -212 76q-147 0 -254 -84q-105 -85 -166.5 -244t-61.5 -305 q0 -168 70 -268q28 -42 74 -74q82 -57 188 -57q153 0 264 100q80 75 133 201l238 -98q-76 -213 -246 -330t-401 -117q-175 0 -316 72q-284 145 -284 537zM410 -432l18 82q74 -23 115 -23q57 0 88 27q24 16 24 39q-2 47 -96 47q-33 0 -70 -6l15 57l289 293h79l-176 -236 q44 0 54 -2q51 -10 85.5 -43.5t34.5 -83.5q0 -76 -90 -131q-81 -49 -186 -49q-94 0 -184 29z" />
<glyph unicode="&#xc8;" horiz-adv-x="1280" d="M47 0l334 1446h983l-53 -236h-717l-80 -342h682l-53 -231h-682l-92 -404h823l-53 -233h-1092zM674 1784h305l68 -244h-205z" />
<glyph unicode="&#xc9;" horiz-adv-x="1280" d="M47 0l334 1446h983l-53 -236h-717l-80 -342h682l-53 -231h-682l-92 -404h823l-53 -233h-1092zM774 1534l133 250h332l-258 -250h-207z" />
<glyph unicode="&#xca;" horiz-adv-x="1280" d="M47 0l334 1446h983l-53 -236h-717l-80 -342h682l-53 -231h-682l-92 -404h823l-53 -233h-1092zM563 1540l262 250h271l145 -250h-229l-64 133l-123 -133h-262z" />
<glyph unicode="&#xcb;" horiz-adv-x="1280" d="M47 0l334 1446h983l-53 -236h-717l-80 -342h682l-53 -231h-682l-92 -404h823l-53 -233h-1092zM535 1538l59 252h258l-59 -252h-258zM1010 1538l59 252h258l-57 -252h-260z" />
<glyph unicode="&#xcc;" horiz-adv-x="555" d="M49 0l334 1446h272l-333 -1446h-273zM311 1784h305l68 -244h-207z" />
<glyph unicode="&#xcd;" horiz-adv-x="555" d="M49 0l334 1446h272l-333 -1446h-273zM412 1534l133 250h332l-259 -250h-206z" />
<glyph unicode="&#xce;" horiz-adv-x="555" d="M49 0l334 1446h272l-333 -1446h-273zM201 1540l262 250h270l146 -250h-230l-63 133l-123 -133h-262z" />
<glyph unicode="&#xcf;" horiz-adv-x="555" d="M49 0l334 1446h272l-333 -1446h-273zM172 1538l57 252h260l-59 -252h-258zM647 1538l60 252h258l-60 -252h-258z" />
<glyph unicode="&#xd1;" horiz-adv-x="1449" d="M47 0l334 1446h246l440 -1067l227 1067h260l-333 -1446h-240l-444 1061l-226 -1061h-264zM637 1532q16 61 31 92q22 49 53.5 84t64.5 51.5t61 23.5t54 7q16 0 33.5 -2.5t31 -5.5t29.5 -8t24.5 -8.5t19.5 -8t12 -4.5q5 -2 21 -8t25 -9t23 -7.5t26 -6.5t23 -2 q36 0 58.5 17.5t38.5 52.5h151q-17 -62 -37 -98q-84 -160 -237 -160q-11 0 -21 0.5t-17 1t-18 3.5t-16.5 4t-20 6.5t-21 7.5t-27.5 10t-31 12q-64 22 -94 22q-9 0 -17 -1.5t-14.5 -4t-13 -6.5t-11 -7t-9 -8.5t-7 -9t-6 -9.5t-5 -8t-4.5 -7l-2 -6h-151z" />
<glyph unicode="&#xd2;" horiz-adv-x="1536" d="M154 588q0 99 24 221q68 309 260 485q203 183 496 183q170 0 293 -62q40 -20 78.5 -49t81 -78t73.5 -108.5t51.5 -144.5t20.5 -181q0 -104 -27 -229q-36 -150 -106 -277q-27 -48 -57.5 -90.5t-88.5 -98.5t-124.5 -95t-166 -67t-212.5 -28q-160 0 -285 58 q-106 49 -178 140.5t-102.5 196.5t-30.5 224zM430 596q0 -233 148 -330q76 -53 194 -53q128 0 223 61q177 111 242 402q25 97 25 192q0 188 -105 289q-86 84 -231 84q-228 0 -355 -184q-63 -92 -102 -221t-39 -240zM801 1784h305l68 -244h-205z" />
<glyph unicode="&#xd3;" horiz-adv-x="1536" d="M154 588q0 99 24 221q68 309 260 485q203 183 496 183q170 0 293 -62q40 -20 78.5 -49t81 -78t73.5 -108.5t51.5 -144.5t20.5 -181q0 -104 -27 -229q-36 -150 -106 -277q-27 -48 -57.5 -90.5t-88.5 -98.5t-124.5 -95t-166 -67t-212.5 -28q-160 0 -285 58 q-106 49 -178 140.5t-102.5 196.5t-30.5 224zM430 596q0 -233 148 -330q76 -53 194 -53q128 0 223 61q177 111 242 402q25 97 25 192q0 188 -105 289q-86 84 -231 84q-228 0 -355 -184q-63 -92 -102 -221t-39 -240zM901 1534l135 250h332l-260 -250h-207z" />
<glyph unicode="&#xd4;" horiz-adv-x="1536" d="M154 588q0 99 24 221q68 309 260 485q203 183 496 183q170 0 293 -62q40 -20 78.5 -49t81 -78t73.5 -108.5t51.5 -144.5t20.5 -181q0 -104 -27 -229q-36 -150 -106 -277q-27 -48 -57.5 -90.5t-88.5 -98.5t-124.5 -95t-166 -67t-212.5 -28q-160 0 -285 58 q-106 49 -178 140.5t-102.5 196.5t-30.5 224zM430 596q0 -233 148 -330q76 -53 194 -53q128 0 223 61q177 111 242 402q25 97 25 192q0 188 -105 289q-86 84 -231 84q-228 0 -355 -184q-63 -92 -102 -221t-39 -240zM649 1540l260 250h273l145 -250h-229l-66 133l-121 -133 h-262z" />
<glyph unicode="&#xd5;" horiz-adv-x="1536" d="M154 588q0 99 24 221q68 309 260 485q203 183 496 183q170 0 293 -62q40 -20 78.5 -49t81 -78t73.5 -108.5t51.5 -144.5t20.5 -181q0 -104 -27 -229q-36 -150 -106 -277q-27 -48 -57.5 -90.5t-88.5 -98.5t-124.5 -95t-166 -67t-212.5 -28q-160 0 -285 58 q-106 49 -178 140.5t-102.5 196.5t-30.5 224zM430 596q0 -233 148 -330q76 -53 194 -53q128 0 223 61q177 111 242 402q25 97 25 192q0 188 -105 289q-86 84 -231 84q-228 0 -355 -184q-63 -92 -102 -221t-39 -240zM647 1532q10 40 31 92q22 49 53.5 84t64.5 51.5t61 23.5 t54 7q16 0 33.5 -2.5t31 -5.5t29.5 -8t24.5 -8.5t19.5 -8t12 -4.5q91 -33 119 -33q67 0 96 70h151q-14 -58 -36 -98q-84 -160 -238 -160q-9 0 -16.5 0.5t-14 1t-14.5 2t-12.5 2t-14.5 4t-14.5 4.5t-18 6t-19 7t-23 8.5t-25.5 9.5q-64 22 -94 22q-10 0 -19 -1.5t-16 -5 t-13 -7t-11 -9t-9 -9.5t-7.5 -10.5t-5 -9.5t-4.5 -8.5t-3 -6.5h-152z" />
<glyph unicode="&#xd6;" horiz-adv-x="1536" d="M154 588q0 47 7 107t26.5 152t66.5 192.5t115 181.5q213 256 565 256q201 0 338 -88q46 -30 86.5 -71t82.5 -104.5t66.5 -156.5t24.5 -203q0 -104 -27 -229q-9 -40 -23.5 -84t-45 -117.5t-82 -148t-115.5 -130.5q-201 -176 -485 -176q-244 0 -396 125q-37 30 -69.5 71 t-64.5 101t-51 143.5t-19 178.5zM430 596q0 -233 148 -330q76 -53 194 -53q128 0 223 61q177 111 242 402q25 97 25 192q0 188 -105 289q-86 84 -231 84q-228 0 -355 -184q-63 -92 -102 -221t-39 -240zM637 1538l57 252h258l-57 -252h-258zM1112 1538l57 252h261l-60 -252 h-258z" />
<glyph unicode="&#xd7;" horiz-adv-x="1366" d="M236 205l391 393l-391 393l151 152l393 -393l391 393l152 -152l-393 -393l393 -393l-152 -152l-391 393l-393 -393z" />
<glyph unicode="&#xd8;" horiz-adv-x="1536" d="M123 70l137 139q-6 7 -20 31q-86 148 -86 358q0 43 5 93t19.5 124.5t48 159.5t82.5 162q18 28 37 54t51.5 61.5t68 65t85.5 60t104 51.5t124 34.5t145 13.5q210 0 358 -99q43 -33 68 -57l123 125l83 -84l-133 -133q105 -152 105 -377q0 -147 -49 -305q-12 -40 -28.5 -81 t-48.5 -100.5t-70.5 -111t-97.5 -106t-127.5 -92.5t-162.5 -62.5t-199 -24.5q-251 0 -409 148l-129 -131zM422 618q0 -111 35 -206l719 735l-27 27q-94 79 -227 79q-33 0 -69 -6t-84 -22t-99.5 -52t-94.5 -88q-49 -59 -82.5 -133t-47.5 -143t-18.5 -112.5t-4.5 -78.5z M522 303q13 -18 33 -33q33 -27 87.5 -43t82.5 -18t49 -2q99 0 182 41.5t138.5 109.5t95 155t57 176.5t17.5 176.5q0 94 -25 172z" />
<glyph unicode="&#xd9;" horiz-adv-x="1409" d="M141 379q3 86 39 250l191 817h270l-186 -815q-39 -159 -39 -215q0 -90 55 -140q71 -67 211 -67q96 0 174 39q36 18 64 44.5t44 48.5t31.5 63.5t21.5 62t18 72.5q3 13 5 20l205 887h273l-207 -897q-19 -77 -29.5 -116.5t-35 -106t-50.5 -107.5q-42 -64 -124 -128t-206 -97 q-94 -25 -204 -25q-294 0 -431 162q-90 100 -90 248zM694 1784h305l68 -244h-205z" />
<glyph unicode="&#xda;" horiz-adv-x="1409" d="M141 379q3 86 39 250l191 817h270l-186 -815q-39 -159 -39 -215q0 -90 55 -140q71 -67 211 -67q96 0 174 39q36 18 64 44.5t44 48.5t31.5 63.5t21.5 62t18 72.5q3 13 5 20l205 887h273l-207 -897q-19 -77 -29.5 -116.5t-35 -106t-50.5 -107.5q-42 -64 -124 -128t-206 -97 q-94 -25 -204 -25q-294 0 -431 162q-90 100 -90 248zM838 1534l133 250h334l-261 -250h-206z" />
<glyph unicode="&#xdb;" horiz-adv-x="1409" d="M141 379q3 86 39 250l191 817h270l-186 -815q-39 -159 -39 -215q0 -90 55 -140q71 -67 211 -67q96 0 174 39q36 18 64 44.5t44 48.5t31.5 63.5t21.5 62t18 72.5q3 13 5 20l205 887h273l-207 -897q-19 -77 -29.5 -116.5t-35 -106t-50.5 -107.5q-42 -64 -124 -128t-206 -97 q-94 -25 -204 -25q-294 0 -431 162q-90 100 -90 248zM629 1540l260 250h270l148 -250h-232l-63 133l-121 -133h-262z" />
<glyph unicode="&#xdc;" horiz-adv-x="1409" d="M141 379q3 86 39 250l191 817h270l-186 -815q-39 -159 -39 -215q0 -90 55 -140q71 -67 211 -67q96 0 174 39q36 18 64 44.5t44 48.5t31.5 63.5t21.5 62t18 72.5q3 13 5 20l205 887h273l-207 -897q-19 -77 -29.5 -116.5t-35 -106t-50.5 -107.5q-42 -64 -124 -128t-206 -97 q-94 -25 -204 -25q-294 0 -431 162q-90 100 -90 248zM590 1538l59 252h258l-57 -252h-260zM1067 1538l57 252h258l-57 -252h-258z" />
<glyph unicode="&#xdf;" d="M39 0l233 1008q12 54 18 77.5t20 70t28 74.5t37 62.5t51 61.5q115 110 317 110q23 0 45.5 -1t72.5 -10.5t91.5 -25t88 -49.5t75.5 -80q45 -76 45 -163q0 -55 -14 -109q-43 -149 -191 -190q-51 -15 -139 -15q134 -15 207 -94q74 -78 74 -221q0 -29 -5.5 -70t-21 -104.5 t-52.5 -129.5t-91 -114q-62 -54 -133 -82q-85 -31 -189 -31q-107 0 -217 37l47 207q70 -20 99.5 -26.5t64.5 -6.5q131 0 199 113q28 45 37 98q16 64 16 111q0 108 -66 166q-29 25 -67.5 36t-108.5 11q-32 0 -59 -4l45 186q41 -8 90 -8q123 0 184 68q52 58 52 147 q0 76 -39 119q-13 13 -43 26q-43 19 -86 19q-109 0 -166 -78q-24 -31 -37.5 -71t-35.5 -131q-2 -6 -2.5 -9.5t-2 -9t-2.5 -10.5l-221 -965h-248z" />
<glyph unicode="&#xe0;" d="M59 270q0 85 37.5 159.5t106.5 119.5q43 28 99.5 44.5t92.5 21.5t107 12l192 16q80 7 137 27q15 68 15 84q0 108 -189 108q-139 0 -180 -82q-9 -18 -18 -63h-260q5 89 75 174q57 69 150 107t250 38q98 0 180 -18q18 -5 30.5 -8.5t39 -14t45 -22.5t42 -32.5t38.5 -44.5 t25.5 -59.5t10.5 -76.5q0 -59 -38 -234l-46 -198q-38 -165 -38 -230q0 -48 12 -98h-264q-5 63 0 102q-27 -23 -48.5 -39t-61 -38t-91 -33.5t-111.5 -11.5q-78 0 -139.5 19.5t-98.5 49.5t-61 69.5t-33 77t-8 74.5zM313 305q0 -26 15 -55q38 -76 141 -76q87 0 182 57 q48 29 54 33q26 22 43 43l40 178l-237 -28q-10 -1 -29.5 -3t-29.5 -3q-40 -5 -63 -10t-51.5 -22t-45.5 -46q0 -1 -4.5 -10t-7 -16t-5 -19t-2.5 -23zM498 1446h307l76 -279h-203z" />
<glyph unicode="&#xe1;" d="M59 270q0 85 37.5 159.5t106.5 119.5q43 28 99.5 44.5t92.5 21.5t107 12l192 16q80 7 137 27q15 68 15 84q0 108 -189 108q-139 0 -180 -82q-9 -18 -18 -63h-260q5 89 75 174q57 69 150 107t250 38q98 0 180 -18q18 -5 30.5 -8.5t39 -14t45 -22.5t42 -32.5t38.5 -44.5 t25.5 -59.5t10.5 -76.5q0 -59 -38 -234l-46 -198q-38 -165 -38 -230q0 -48 12 -98h-264q-5 63 0 102q-27 -23 -48.5 -39t-61 -38t-91 -33.5t-111.5 -11.5q-78 0 -139.5 19.5t-98.5 49.5t-61 69.5t-33 77t-8 74.5zM313 305q0 -26 15 -55q38 -76 141 -76q87 0 182 57 q48 29 54 33q26 22 43 43l40 178l-237 -28q-10 -1 -29.5 -3t-29.5 -3q-40 -5 -63 -10t-51.5 -22t-45.5 -46q0 -1 -4.5 -10t-7 -16t-5 -19t-2.5 -23zM618 1167l148 279h338l-266 -279h-220z" />
<glyph unicode="&#xe2;" d="M59 270q0 85 37.5 159.5t106.5 119.5q43 28 99.5 44.5t92.5 21.5t107 12l192 16q80 7 137 27q15 68 15 84q0 108 -189 108q-139 0 -180 -82q-9 -18 -18 -63h-260q5 89 75 174q57 69 150 107t250 38q98 0 180 -18q18 -5 30.5 -8.5t39 -14t45 -22.5t42 -32.5t38.5 -44.5 t25.5 -59.5t10.5 -76.5q0 -59 -38 -234l-46 -198q-38 -165 -38 -230q0 -48 12 -98h-264q-5 63 0 102q-27 -23 -48.5 -39t-61 -38t-91 -33.5t-111.5 -11.5q-78 0 -139.5 19.5t-98.5 49.5t-61 69.5t-33 77t-8 74.5zM313 305q0 -26 15 -55q38 -76 141 -76q87 0 182 57 q48 29 54 33q26 22 43 43l40 178l-237 -28q-10 -1 -29.5 -3t-29.5 -3q-40 -5 -63 -10t-51.5 -22t-45.5 -46q0 -1 -4.5 -10t-7 -16t-5 -19t-2.5 -23zM399 1169l283 277h254l147 -277h-211l-77 158l-136 -158h-260z" />
<glyph unicode="&#xe3;" d="M59 270q0 85 37.5 159.5t106.5 119.5q43 28 99.5 44.5t92.5 21.5t107 12l192 16q80 7 137 27q15 68 15 84q0 108 -189 108q-139 0 -180 -82q-9 -18 -18 -63h-260q5 89 75 174q57 69 150 107t250 38q98 0 180 -18q18 -5 30.5 -8.5t39 -14t45 -22.5t42 -32.5t38.5 -44.5 t25.5 -59.5t10.5 -76.5q0 -59 -38 -234l-46 -198q-38 -165 -38 -230q0 -48 12 -98h-264q-5 63 0 102q-27 -23 -48.5 -39t-61 -38t-91 -33.5t-111.5 -11.5q-78 0 -139.5 19.5t-98.5 49.5t-61 69.5t-33 77t-8 74.5zM313 305q0 -26 15 -55q38 -76 141 -76q87 0 182 57 q48 29 54 33q26 22 43 43l40 178l-237 -28q-10 -1 -29.5 -3t-29.5 -3q-40 -5 -63 -10t-51.5 -22t-45.5 -46q0 -1 -4.5 -10t-7 -16t-5 -19t-2.5 -23zM389 1188q24 100 72 160q76 98 194 98q22 0 48.5 -5.5t43 -10.5t37.5 -13l21 -8q90 -33 119 -31q63 0 96 68h149 q-12 -49 -36 -98q-85 -160 -238 -160q-12 0 -22 0.5t-22 3t-18.5 3.5t-23 6.5t-23 8t-30.5 11t-35 12.5q-62 22 -92 22q-10 0 -19 -1.5t-16 -5t-13 -7t-11 -9t-9 -9.5t-7.5 -10.5t-5 -9.5t-4.5 -8.5t-3 -6.5h-152z" />
<glyph unicode="&#xe4;" d="M59 270q0 85 37.5 159.5t106.5 119.5q43 28 99.5 44.5t92.5 21.5t107 12l192 16q80 7 137 27q15 68 15 84q0 108 -189 108q-139 0 -180 -82q-9 -18 -18 -63h-260q5 89 75 174q57 69 150 107t250 38q98 0 180 -18q18 -5 30.5 -8.5t39 -14t45 -22.5t42 -32.5t38.5 -44.5 t25.5 -59.5t10.5 -76.5q0 -59 -38 -234l-46 -198q-38 -165 -38 -230q0 -48 12 -98h-264q-5 63 0 102q-27 -23 -48.5 -39t-61 -38t-91 -33.5t-111.5 -11.5q-78 0 -139.5 19.5t-98.5 49.5t-61 69.5t-33 77t-8 74.5zM313 305q0 -26 15 -55q38 -76 141 -76q87 0 182 57 q48 29 54 33q26 22 43 43l40 178l-237 -28q-10 -1 -29.5 -3t-29.5 -3q-40 -5 -63 -10t-51.5 -22t-45.5 -46q0 -1 -4.5 -10t-7 -16t-5 -19t-2.5 -23zM389 1161l57 254h261l-60 -254h-258zM864 1161l60 254h258l-60 -254h-258z" />
<glyph unicode="&#xe5;" d="M59 270q0 85 37.5 159.5t106.5 119.5q43 28 99.5 44.5t92.5 21.5t107 12l192 16q80 7 137 27q15 68 15 84q0 108 -189 108q-139 0 -180 -82q-9 -18 -18 -63h-260q5 89 75 174q57 69 150 107t250 38q98 0 180 -18q18 -5 30.5 -8.5t39 -14t45 -22.5t42 -32.5t38.5 -44.5 t25.5 -59.5t10.5 -76.5q0 -59 -38 -234l-46 -198q-38 -165 -38 -230q0 -48 12 -98h-264q-5 63 0 102q-27 -23 -48.5 -39t-61 -38t-91 -33.5t-111.5 -11.5q-78 0 -139.5 19.5t-98.5 49.5t-61 69.5t-33 77t-8 74.5zM313 305q0 -26 15 -55q38 -76 141 -76q87 0 182 57 q48 29 54 33q26 22 43 43l40 178l-237 -28q-10 -1 -29.5 -3t-29.5 -3q-40 -5 -63 -10t-51.5 -22t-45.5 -46q0 -1 -4.5 -10t-7 -16t-5 -19t-2.5 -23zM590 1282q0 39 14 72q16 38 59.5 74t114.5 36q91 0 146.5 -68.5t36.5 -156.5q-14 -65 -65 -107t-118 -42q-79 0 -133.5 56.5 t-54.5 135.5zM686 1276q0 -22 10 -39q13 -27 40 -39t42 -10q32 0 56 21t30 53q9 42 -18 74t-70 32q-38 0 -64 -26t-26 -66z" />
<glyph unicode="&#xe6;" horiz-adv-x="1748" d="M51 272q0 27 5.5 56.5t20.5 68.5t48 77.5t80 68.5q46 29 111 47.5t101 23t122 13.5l270 28q4 32 4 52q0 1 0.5 10.5t0.5 18t-1 21.5t-5 24.5t-10 24t-17 23.5t-25 19q-40 24 -121 24q-109 0 -166 -57q-28 -28 -37 -82h-260q7 32 16 62q23 59 66 106t73 66t60 32 q61 25 123 35q75 13 129 13q28 0 61 -2.5t98.5 -21t108.5 -50.5q29 -20 58 -58q3 3 10 8q32 26 54 41t64.5 37.5t95.5 34t114 11.5q51 0 99.5 -8t108.5 -35.5t104 -72.5t74.5 -127t30.5 -190q0 -60 -12 -133l-702 -2q-9 -49 -9 -80q0 -54 17 -100q24 -59 79 -92t121 -33 q84 0 154.5 48.5t120.5 125.5l199 -121q-63 -78 -91 -102q-157 -152 -391 -152q-78 0 -142 16.5t-107.5 45.5t-70 56t-50.5 61q-1 -1 -8 -8.5t-8.5 -9.5t-8.5 -9t-10 -9.5t-10 -9t-12 -10.5t-13.5 -10t-16 -10.5t-17 -10.5t-19.5 -12q-135 -82 -305 -82q-28 0 -56 3.5 t-78 15t-96.5 43.5t-77.5 80q-49 72 -49 159zM303 297q0 -33 19 -61q42 -68 145 -68q72 0 149 41q43 22 72 49.5t46.5 64t27.5 71.5t18 87l-188 -22q-19 -3 -52 -7.5t-47.5 -6.5t-35.5 -6t-34.5 -8t-25.5 -9q-94 -42 -94 -125zM1044 653l441 2q0 1 -1 13t-2.5 22t-5 27 t-8 31t-13 30t-19.5 29q-1 1 -10.5 9.5t-15.5 13t-18 11.5t-24 11q-24 12 -76 12q-115 0 -186 -84q-42 -53 -62 -127z" />
<glyph unicode="&#xe7;" horiz-adv-x="1024" d="M92 412q0 99 31.5 206.5t85.5 188.5q40 59 96 111q146 129 344 129q83 0 158 -23t139 -75.5t96 -129.5q16 -41 21 -84l-232 -78q0 1 -0.5 11t-1 15t-2 16.5t-4 19.5t-6 19.5t-9 21t-12.5 19.5t-16.5 19t-21.5 17q-43 29 -107 29q-75 0 -135.5 -39.5t-97 -102 t-55.5 -132.5t-19 -138q0 -145 82 -209q52 -39 123 -39q45 0 102 23q55 26 88 68t62 108l221 -92q-43 -109 -129 -187q-141 -131 -356 -131q-28 0 -58 3t-83 14.5t-106 41t-93 74.5q-41 45 -73 123t-32 183zM217 -432l19 82q74 -23 114 -23q57 0 90 27q23 23 23 39 q0 47 -96 47q-33 0 -68 -6l12 57l289 293h80l-176 -236q44 0 55 -2q50 -10 84.5 -43.5t34.5 -83.5q0 -77 -90 -131q-81 -49 -187 -49q-94 0 -184 29z" />
<glyph unicode="&#xe8;" horiz-adv-x="1110" d="M94 420q0 29 4 67t15.5 96.5t38 124t65.5 119.5q26 36 58 68.5t84.5 70t128 59.5t163.5 22q122 0 209 -41q36 -17 70 -45t69.5 -72.5t57.5 -113t22 -150.5q0 -77 -16 -148h-711q-6 -42 -6 -71q0 -43 10 -76q6 -24 18.5 -47t36 -49t64.5 -42t94 -16q55 0 101.5 18t78 48.5 t48.5 52.5t33 48q3 5 4 7l206 -127q-80 -123 -208 -186.5t-279 -63.5q-209 0 -334 120t-125 327zM395 657l436 2q3 55 -10 93q-5 18 -16 35.5t-29.5 36.5t-50.5 30.5t-72 11.5q-64 0 -119 -30.5t-92 -83.5q-29 -42 -47 -95zM477 1446h305l76 -279h-203z" />
<glyph unicode="&#xe9;" horiz-adv-x="1110" d="M94 420q0 29 4 67t15.5 96.5t38 124t65.5 119.5q26 36 58 68.5t84.5 70t128 59.5t163.5 22q122 0 209 -41q36 -17 70 -45t69.5 -72.5t57.5 -113t22 -150.5q0 -77 -16 -148h-711q-6 -42 -6 -71q0 -43 10 -76q6 -24 18.5 -47t36 -49t64.5 -42t94 -16q55 0 101.5 18t78 48.5 t48.5 52.5t33 48q3 5 4 7l206 -127q-80 -123 -208 -186.5t-279 -63.5q-209 0 -334 120t-125 327zM395 657l436 2q3 55 -10 93q-5 18 -16 35.5t-29.5 36.5t-50.5 30.5t-72 11.5q-64 0 -119 -30.5t-92 -83.5q-29 -42 -47 -95zM598 1167l147 279h338l-268 -279h-217z" />
<glyph unicode="&#xea;" horiz-adv-x="1110" d="M94 420q0 29 4 67t15.5 96.5t38 124t65.5 119.5q26 36 58 68.5t84.5 70t128 59.5t163.5 22q122 0 209 -41q36 -17 70 -45t69.5 -72.5t57.5 -113t22 -150.5q0 -77 -16 -148h-711q-6 -42 -6 -71q0 -43 10 -76q6 -24 18.5 -47t36 -49t64.5 -42t94 -16q55 0 101.5 18t78 48.5 t48.5 52.5t33 48q3 5 4 7l206 -127q-80 -123 -208 -186.5t-279 -63.5q-209 0 -334 120t-125 327zM379 1169l283 277h253l146 -277h-211l-76 158l-135 -158h-260zM395 657l436 2q3 55 -10 93q-5 18 -16 35.5t-29.5 36.5t-50.5 30.5t-72 11.5q-64 0 -119 -30.5t-92 -83.5 q-29 -42 -47 -95z" />
<glyph unicode="&#xeb;" horiz-adv-x="1110" d="M94 420q0 29 4 67t15.5 96.5t38 124t65.5 119.5q26 36 58 68.5t84.5 70t128 59.5t163.5 22q122 0 209 -41q36 -17 70 -45t69.5 -72.5t57.5 -113t22 -150.5q0 -77 -16 -148h-711q-6 -42 -6 -71q0 -43 10 -76q6 -24 18.5 -47t36 -49t64.5 -42t94 -16q55 0 101.5 18t78 48.5 t48.5 52.5t33 48q3 5 4 7l206 -127q-80 -123 -208 -186.5t-279 -63.5q-209 0 -334 120t-125 327zM365 1165l59 254h258l-59 -254h-258zM395 657l436 2q3 55 -10 93q-5 18 -16 35.5t-29.5 36.5t-50.5 30.5t-72 11.5q-64 0 -119 -30.5t-92 -83.5q-29 -42 -47 -95zM840 1165 l59 254h258l-57 -254h-260z" />
<glyph unicode="&#xec;" horiz-adv-x="512" d="M39 0l237 1018h246l-235 -1018h-248zM178 1446h305l78 -279h-205z" />
<glyph unicode="&#xed;" horiz-adv-x="512" d="M39 0l237 1018h246l-235 -1018h-248zM299 1167l147 279h338l-268 -279h-217z" />
<glyph unicode="&#xee;" horiz-adv-x="512" d="M39 0l237 1018h246l-235 -1018h-248zM80 1169l282 277h254l148 -277h-211l-78 158l-135 -158h-260z" />
<glyph unicode="&#xef;" horiz-adv-x="512" d="M39 0l237 1018h246l-235 -1018h-248zM66 1165l59 254h258l-57 -254h-260zM543 1165l57 254h258l-57 -254h-258z" />
<glyph unicode="&#xf1;" d="M39 0l237 1018h232l-27 -111q34 28 35 29q126 100 283 100q26 0 51.5 -3.5t60.5 -13t64 -29.5t54.5 -49.5t40.5 -77.5t15 -109q0 -73 -30 -209l-125 -545h-250l117 506q28 143 28 178q0 43 -14 76q-28 65 -119 65q-71 0 -141 -49q-64 -47 -96 -118t-68 -228l-100 -430 h-248zM389 1188q24 100 72 160q76 98 194 98q22 0 48.5 -5.5t43 -10.5t37.5 -13l21 -8q90 -33 119 -31q63 0 96 68h149q-12 -49 -36 -98q-85 -160 -238 -160q-12 0 -22 0.5t-22 3t-18.5 3.5t-23 6.5t-23 8t-30.5 11t-35 12.5q-62 22 -92 22q-10 0 -19 -1.5t-16 -5t-13 -7 t-11 -9t-9 -9.5t-7.5 -10.5t-5 -9.5t-4.5 -8.5t-3 -6.5h-152z" />
<glyph unicode="&#xf2;" d="M88 412q0 139 61 280t164 228q65 55 172 94q98 33 195 33q88 0 176 -31q69 -25 119.5 -67.5t76 -85t41 -94t18.5 -83.5t3 -65q0 -87 -20 -164q-47 -210 -179 -334q-160 -150 -391 -150q-175 0 -288 93q-71 61 -109.5 154.5t-38.5 191.5zM336 420q0 -102 54 -169t155 -67 q68 0 125 31q48 26 85.5 68.5t57.5 89t29 73.5t14 52q12 69 12 116q0 58 -14 99q-17 49 -62.5 89t-129.5 40q-134 0 -213 -99q-50 -59 -81.5 -149.5t-31.5 -173.5zM498 1446h307l76 -279h-203z" />
<glyph unicode="&#xf3;" d="M88 412q0 139 61 280t164 228q65 55 172 94q98 33 195 33q88 0 176 -31q69 -25 119.5 -67.5t76 -85t41 -94t18.5 -83.5t3 -65q0 -87 -20 -164q-47 -210 -179 -334q-160 -150 -391 -150q-175 0 -288 93q-71 61 -109.5 154.5t-38.5 191.5zM336 420q0 -102 54 -169t155 -67 q68 0 125 31q48 26 85.5 68.5t57.5 89t29 73.5t14 52q12 69 12 116q0 58 -14 99q-17 49 -62.5 89t-129.5 40q-134 0 -213 -99q-50 -59 -81.5 -149.5t-31.5 -173.5zM618 1167l148 279h338l-266 -279h-220z" />
<glyph unicode="&#xf4;" d="M88 412q0 139 61 280t164 228q65 55 172 94q98 33 195 33q88 0 176 -31q69 -25 119.5 -67.5t76 -85t41 -94t18.5 -83.5t3 -65q0 -87 -20 -164q-47 -210 -179 -334q-160 -150 -391 -150q-175 0 -288 93q-71 61 -109.5 154.5t-38.5 191.5zM336 420q0 -102 54 -169t155 -67 q68 0 125 31q48 26 85.5 68.5t57.5 89t29 73.5t14 52q12 69 12 116q0 58 -14 99q-17 49 -62.5 89t-129.5 40q-134 0 -213 -99q-50 -59 -81.5 -149.5t-31.5 -173.5zM399 1169l283 277h254l147 -277h-211l-77 158l-136 -158h-260z" />
<glyph unicode="&#xf5;" d="M88 412q0 139 61 280t164 228q65 55 172 94q98 33 195 33q88 0 176 -31q69 -25 119.5 -67.5t76 -85t41 -94t18.5 -83.5t3 -65q0 -87 -20 -164q-47 -210 -179 -334q-160 -150 -391 -150q-175 0 -288 93q-71 61 -109.5 154.5t-38.5 191.5zM336 420q0 -102 54 -169t155 -67 q68 0 125 31q48 26 85.5 68.5t57.5 89t29 73.5t14 52q12 69 12 116q0 58 -14 99q-17 49 -62.5 89t-129.5 40q-134 0 -213 -99q-50 -59 -81.5 -149.5t-31.5 -173.5zM389 1188q24 100 72 160q76 98 194 98q22 0 48.5 -5.5t43 -10.5t37.5 -13l21 -8q90 -33 119 -31q63 0 96 68 h149q-12 -49 -36 -98q-85 -160 -238 -160q-12 0 -22 0.5t-22 3t-18.5 3.5t-23 6.5t-23 8t-30.5 11t-35 12.5q-62 22 -92 22q-10 0 -19 -1.5t-16 -5t-13 -7t-11 -9t-9 -9.5t-7.5 -10.5t-5 -9.5t-4.5 -8.5t-3 -6.5h-152z" />
<glyph unicode="&#xf6;" d="M88 412q0 139 61 280t164 228q65 55 172 94q98 33 195 33q88 0 176 -31q69 -25 119.5 -67.5t76 -85t41 -94t18.5 -83.5t3 -65q0 -87 -20 -164q-47 -210 -179 -334q-160 -150 -391 -150q-175 0 -288 93q-71 61 -109.5 154.5t-38.5 191.5zM336 420q0 -102 54 -169t155 -67 q68 0 125 31q48 26 85.5 68.5t57.5 89t29 73.5t14 52q12 69 12 116q0 58 -14 99q-17 49 -62.5 89t-129.5 40q-134 0 -213 -99q-50 -59 -81.5 -149.5t-31.5 -173.5zM369 1161l59 254h258l-57 -254h-260zM846 1161l57 254h258l-57 -254h-258z" />
<glyph unicode="&#xf7;" horiz-adv-x="1366" d="M96 489v211h1366v-211h-1366zM641 262q0 60 40.5 100.5t98.5 40.5q60 -2 100.5 -42.5t39.5 -100.5q0 -34 -15 -61q-13 -28 -44 -51.5t-81 -22.5q-60 0 -99.5 38.5t-39.5 98.5zM641 926q0 60 40 99.5t99 39.5q60 0 100.5 -40.5t39.5 -100.5q0 -58 -40.5 -98t-99.5 -40 q-60 0 -99.5 40t-39.5 100z" />
<glyph unicode="&#xf8;" d="M43 74l115 100q-10 12 -21 31q-47 92 -47 223q0 35 5.5 76.5t20 101.5t48 127t82.5 125q52 61 115 102t124.5 58t103 23t81.5 6q204 0 325 -127l99 86l69 -84l-106 -95q51 -84 51 -233q0 -90 -21 -174q-38 -147 -134.5 -260.5t-233.5 -159.5q-83 -27 -180 -27 q-156 0 -265 72q-30 20 -51 41l-108 -94zM319 438q0 -52 17 -106l491 438q-22 25 -30 31q-58 45 -140 45q-88 0 -165.5 -54t-122.5 -135q-50 -103 -50 -219zM389 233q3 -6 17 -20q48 -43 129 -43q123 0 213.5 87t119.5 212q13 60 13 131q0 31 -9 64z" />
<glyph unicode="&#xf9;" d="M115 248q0 24 5 59.5t10 62.5t13.5 68.5t10.5 53.5l122 526h246l-114 -498q-35 -149 -35 -201q0 -20 6 -38q8 -32 42 -60t93 -28q119 0 195 106q10 14 19 28.5t17 32.5l14 31.5t13 35.5l10.5 33t10 36t8.5 33t8.5 35t7.5 32l98 422h246l-235 -1018h-228l25 109 q-133 -127 -301 -127q-132 0 -219.5 68.5t-87.5 197.5zM498 1446h307l76 -279h-203z" />
<glyph unicode="&#xfa;" d="M115 248q0 24 5 59.5t10 62.5t13.5 68.5t10.5 53.5l122 526h246l-114 -498q-35 -149 -35 -201q0 -20 6 -38q8 -32 42 -60t93 -28q119 0 195 106q10 14 19 28.5t17 32.5l14 31.5t13 35.5l10.5 33t10 36t8.5 33t8.5 35t7.5 32l98 422h246l-235 -1018h-228l25 109 q-133 -127 -301 -127q-132 0 -219.5 68.5t-87.5 197.5zM618 1167l148 279h338l-266 -279h-220z" />
<glyph unicode="&#xfb;" d="M115 248q0 24 5 59.5t10 62.5t13.5 68.5t10.5 53.5l122 526h246l-114 -498q-35 -149 -35 -201q0 -20 6 -38q8 -32 42 -60t93 -28q119 0 195 106q10 14 19 28.5t17 32.5l14 31.5t13 35.5l10.5 33t10 36t8.5 33t8.5 35t7.5 32l98 422h246l-235 -1018h-228l25 109 q-133 -127 -301 -127q-132 0 -219.5 68.5t-87.5 197.5zM399 1169l283 277h254l147 -277h-211l-77 158l-136 -158h-260z" />
<glyph unicode="&#xfc;" d="M115 248q0 24 5 59.5t10 62.5t13.5 68.5t10.5 53.5l122 526h246l-114 -498q-35 -149 -35 -201q0 -20 6 -38q8 -32 42 -60t93 -28q119 0 195 106q10 14 19 28.5t17 32.5l14 31.5t13 35.5l10.5 33t10 36t8.5 33t8.5 35t7.5 32l98 422h246l-235 -1018h-228l25 109 q-133 -127 -301 -127q-132 0 -219.5 68.5t-87.5 197.5zM369 1161l57 254h258l-57 -254h-258zM844 1161l57 254h260l-59 -254h-258z" />
<glyph unicode="&#xff;" horiz-adv-x="937" d="M-94 -350l51 219q40 -10 102 -10q28 0 58 6q60 23 94 102l-94 1051h250l26 -793l404 793h260l-580 -1051q-65 -116 -67 -119q-44 -73 -81.5 -116t-98 -72t-140.5 -29q-58 0 -184 19zM279 1165l59 254h258l-57 -254h-260zM756 1165l57 254h260l-59 -254h-258z" />
<glyph unicode="&#x152;" horiz-adv-x="2174" d="M156 557q0 134 37 272q31 119 83.5 219t109.5 165.5t124.5 116t122.5 76.5t110 42q92 29 215 29q68 0 140 -11q61 -12 119.5 -38.5t140.5 -86.5l24 105h922l-55 -236h-643l-80 -354h604l-53 -233h-607l-88 -383h750l-55 -240h-1004l19 86q-50 -31 -88 -50t-120 -40 t-173 -21q-137 0 -244 45q-45 19 -85 45t-82.5 71.5t-73 101.5t-50.5 139t-20 180zM436 575q0 -156 72 -251q34 -46 101 -82.5t165 -36.5q189 0 316 147q120 138 174 371q22 99 22 190q0 243 -176 318q-80 34 -149 29q-70 0 -135 -23.5t-108 -54t-82.5 -73t-56.5 -67.5 t-32 -51q-49 -84 -80 -200.5t-31 -215.5z" />
<glyph unicode="&#x153;" horiz-adv-x="1835" d="M92 414q0 49 6 96q4 30 11 62.5t27.5 89t48 105.5t76 103t108.5 91q142 86 288 86q26 0 54 -4t70 -15t86.5 -37.5t80.5 -66.5q28 -30 51 -70q46 57 70 80q129 113 315 113q106 0 195 -37q48 -20 85.5 -49.5t71 -77t52 -121t18.5 -168.5q0 -54 -8 -113l-715 -2 q-8 -43 -8 -82q0 -76 27 -121q28 -49 86 -76.5t117 -27.5q88 1 151 47.5t117 128.5l194 -104q-46 -74 -116 -138q-154 -133 -369 -133q-172 0 -278 90q-58 51 -89 113q-149 -205 -391 -203q-106 0 -186 35q-125 49 -185.5 157t-60.5 249zM330 422q0 -104 52.5 -172 t154.5 -68q70 0 129 31q140 74 182 301q10 50 10 94q0 86 -35.5 140t-79.5 73q-38 19 -90 19q-72 0 -145 -43q-46 -29 -81 -75t-52.5 -89t-28.5 -90.5t-13.5 -74.5t-2.5 -46zM1118 649h449q0 133 -78 180q-45 27 -111 27q-56 0 -112 -25q-105 -47 -148 -182z" />
<glyph unicode="&#x178;" horiz-adv-x="1236" d="M242 1446h280l197 -639l455 639h313l-670 -871l-133 -575h-274l133 575zM514 1538l57 252h258l-57 -252h-258zM989 1538l58 252h260l-60 -252h-258z" />
<glyph unicode="&#x2c6;" horiz-adv-x="555" d="M-70 1169l283 277h254l147 -277h-211l-77 158l-136 -158h-260z" />
<glyph unicode="&#x2dc;" horiz-adv-x="555" d="M-80 1188q15 91 72 160q34 46 84.5 72t107.5 26q16 0 33.5 -2.5t31 -5.5t29.5 -8t24.5 -8.5t19.5 -8t12 -4.5q90 -33 119 -31q66 0 96 68h151q-12 -49 -36 -98q-85 -160 -238 -160q-12 0 -22 0.5t-22 3t-18.5 3.5t-23 6.5t-23 8t-30.5 11t-35 12.5q-65 22 -92 22 q-10 0 -19 -1.5t-16 -5t-13 -7t-11 -9t-9 -9.5t-7.5 -10.5t-5 -9.5t-4.5 -8.5t-3 -6.5h-152z" />
<glyph unicode="&#x2000;" horiz-adv-x="945" />
<glyph unicode="&#x2001;" horiz-adv-x="1890" />
<glyph unicode="&#x2002;" horiz-adv-x="945" />
<glyph unicode="&#x2003;" horiz-adv-x="1890" />
<glyph unicode="&#x2004;" horiz-adv-x="630" />
<glyph unicode="&#x2005;" horiz-adv-x="472" />
<glyph unicode="&#x2006;" horiz-adv-x="315" />
<glyph unicode="&#x2007;" horiz-adv-x="315" />
<glyph unicode="&#x2008;" horiz-adv-x="236" />
<glyph unicode="&#x2009;" horiz-adv-x="378" />
<glyph unicode="&#x200a;" horiz-adv-x="105" />
<glyph unicode="&#x2010;" horiz-adv-x="768" d="M102 487l56 236h594l-54 -236h-596z" />
<glyph unicode="&#x2011;" horiz-adv-x="768" d="M102 487l56 236h594l-54 -236h-596z" />
<glyph unicode="&#x2012;" horiz-adv-x="768" d="M102 487l56 236h594l-54 -236h-596z" />
<glyph unicode="&#x2013;" d="M102 487l56 236h979l-56 -236h-979z" />
<glyph unicode="&#x2014;" horiz-adv-x="1366" d="M96 496v211h1366v-211h-1366z" />
<glyph unicode="&#x2018;" horiz-adv-x="512" d="M233 879l64 278q29 118 45 150q11 22 26.5 42.5t42.5 44t69 38t93 14.5q31 0 45 -2l-28 -129q-28 0 -51 -10q-56 -25 -80 -150h110l-63 -276h-273z" />
<glyph unicode="&#x2019;" horiz-adv-x="512" d="M246 881l30 129l22 4q22 4 34 10q23 12 39.5 41.5t22 47.5t14.5 56h-111l63 277h271l-64 -277q-23 -102 -43 -151q-11 -22 -27 -42.5t-43 -44t-69 -38t-92 -14.5q-31 0 -47 2z" />
<glyph unicode="&#x201a;" horiz-adv-x="512" d="M-25 -289l31 129q2 1 11.5 2t21 4t20.5 7q25 12 42 40t23 50.5t13 56.5h-110l63 276h272l-65 -276q-25 -112 -47 -158q-15 -30 -38 -56.5t-74 -51.5t-115 -25q-32 0 -48 2z" />
<glyph unicode="&#x201c;" horiz-adv-x="894" d="M227 879l64 278q27 115 47 156q71 133 229 133q31 0 47 -2l-30 -129q-35 -3 -54 -12q-18 -9 -31.5 -24.5t-22.5 -40t-13 -39t-10 -44.5h110l-63 -276h-273zM610 879l64 278q22 100 43 150q11 22 27 42.5t43 44t69 38t92 14.5q31 0 47 -2l-30 -129q-34 -2 -50 -10 q-31 -13 -49 -48t-32 -102h112l-65 -276h-271z" />
<glyph unicode="&#x201d;" horiz-adv-x="894" d="M246 881l30 129q40 6 54 12q9 4 16.5 10t13.5 14.5t11 14.5t9.5 17.5t7 17t6.5 20t5 18t5 19t4 16.5h-111l63 277h271l-64 -277q-22 -106 -45 -157q-74 -133 -229 -133q-31 0 -47 2zM629 881l28 129q2 1 12.5 2.5t23 4.5t20.5 7q24 12 40.5 40.5t22 49t12.5 55.5h-110 l63 277h273l-64 -277q-30 -120 -45 -151q-11 -22 -26.5 -42.5t-42.5 -44t-69 -38t-93 -14.5q-31 0 -45 2z" />
<glyph unicode="&#x201e;" horiz-adv-x="894" d="M-23 -289l31 129q1 1 11 2.5t22.5 5t21.5 7.5q23 12 39 40.5t22 49.5t13 55h-110l63 276h272l-63 -276q-23 -104 -43 -152q-74 -139 -233 -139q-32 0 -46 2zM358 -289l31 129q34 3 51 13q9 4 17 9.5t14 14t11 14.5t10 17.5t7.5 17.5t6.5 20t5.5 18.5t4.5 19t4 16.5h-110 l63 276h272l-65 -276q-23 -104 -43 -152q-11 -22 -26.5 -42.5t-42.5 -44t-69 -38t-93 -14.5q-32 0 -48 2z" />
<glyph unicode="&#x2022;" horiz-adv-x="681" d="M147 723q0 64 25 119q12 25 30.5 49.5t50.5 54.5t81.5 49t107.5 19q68 0 123 -27q25 -12 49 -30t52 -49t45.5 -80t17.5 -107q0 -124 -80.5 -207.5t-204.5 -83.5q-126 0 -212 84t-85 209z" />
<glyph unicode="&#x2026;" horiz-adv-x="2048" d="M299 127q0 60 40.5 99.5t100.5 39.5q57 0 97 -39.5t41 -97.5q0 -19 -11 -51q-15 -41 -49.5 -65.5t-77.5 -24.5q-60 0 -100.5 39.5t-40.5 99.5zM981 127q0 59 40.5 99t100.5 40q59 0 98.5 -39.5t39.5 -97.5q0 -59 -39.5 -100t-98.5 -41q-58 0 -99.5 40t-41.5 99zM1665 127 q0 60 40.5 99.5t100.5 39.5q33 0 58 -12q37 -17 57.5 -50.5t20.5 -74.5q0 -59 -39.5 -100t-96.5 -41q-60 0 -100.5 39.5t-40.5 99.5z" />
<glyph unicode="&#x202f;" horiz-adv-x="378" />
<glyph unicode="&#x205f;" horiz-adv-x="472" />
<glyph unicode="&#x2122;" horiz-adv-x="1406" d="M113 1327v119h569v-119h-209v-561h-145v561h-215zM739 766v680h191l162 -514l155 514h191v-680h-142l4 393q0 51 11 137l-16.5 -60.5t-14.5 -51.5l-127 -418h-129l-131 420q-2 5 -13.5 45.5t-17.5 62.5q6 -46 10 -137l9 -391h-142z" />
<glyph unicode="&#xe000;" horiz-adv-x="1013" d="M0 0v1014h1014v-1014h-1014z" />
<glyph unicode="&#xfb01;" horiz-adv-x="1153" d="M76 0l196 842h-163l41 176h161l11 43q15 71 43 162q16 53 32.5 85.5t48.5 61.5q87 83 257 82h6q87 0 163 -12l-47 -205q-67 6 -110 2.5t-72 -20.5q-27 -16 -41 -47.5t-31 -100.5l-12 -51h217l-39 -176h-217l-194 -842h-250zM680 0l238 1018h245l-235 -1018h-248z M958 1198l56 248h248l-58 -248h-246z" />
<glyph unicode="&#xfb02;" horiz-adv-x="1153" d="M76 0l196 842h-163l41 176h161l11 43q15 71 43 162q16 53 32.5 85.5t48.5 61.5q87 83 257 82h6q87 0 163 -12l-47 -205q-67 6 -110 2.5t-72 -20.5q-27 -16 -41 -47.5t-31 -100.5l-12 -51h217l-39 -176h-217l-194 -842h-250zM678 0l334 1446h248l-334 -1446h-248z" />
</font>
</defs>
</svg>
