<?xml version="1.0" standalone="no"?>
<!DOCTYPE svg PUBLIC "-//W3C//DTD SVG 1.1//EN" "http://www.w3.org/Graphics/SVG/1.1/DTD/svg11.dtd" >
<svg xmlns="http://www.w3.org/2000/svg">
<metadata></metadata>
<defs>
<font id="akzidenz-grotesk_bqregular" horiz-adv-x="1067" >
<font-face units-per-em="2048" ascent="1638" descent="-410" />
<missing-glyph horiz-adv-x="555" />
<glyph horiz-adv-x="2048" />
<glyph horiz-adv-x="2048" />
<glyph unicode="&#xd;" horiz-adv-x="2048" />
<glyph unicode=" "  horiz-adv-x="555" />
<glyph unicode="&#x09;" horiz-adv-x="555" />
<glyph unicode="&#xa0;" horiz-adv-x="555" />
<glyph unicode="!" horiz-adv-x="555" d="M236 0v184h161v-184h-161zM236 879v567h161v-590l-49 -555h-63z" />
<glyph unicode="&#x22;" horiz-adv-x="811" d="M109 1391q-4 42 0 65q9 37 40 57.5t70 20.5q32 0 59.5 -17t36.5 -47q7 -26 4 -55l-83 -526h-48zM494 1391q-6 42 0 65q9 37 39 57.5t69 20.5q33 0 61 -17.5t37 -46.5q5 -21 2 -55l-81 -526h-48z" />
<glyph unicode="#" horiz-adv-x="1366" d="M86 469v158h305l33 221h-291v158h311l64 438h164l-64 -438h226l65 438h160l-62 -438h283v-158h-303l-33 -221h285v-158h-307l-68 -469h-162l68 469h-228l-67 -469h-166l72 469h-285zM553 627h229l31 221h-227z" />
<glyph unicode="$" horiz-adv-x="1280" d="M41 418l209 22q12 -59 39 -109t60.5 -83t60 -52t51.5 -32q67 -27 127 -39v518q-1 0 -28 8.5t-55.5 18.5t-65.5 24.5t-75 34t-67 39.5q-166 120 -166 299q0 90 47 174q106 187 397 223q3 1 5 1t4 0.5t4 0.5v226h137l2 -226q24 -7 82 -20q119 -29 211 -103 q19 -13 50.5 -43.5t55.5 -68.5q42 -61 66 -152l-191 -18q-21 66 -66.5 125t-103.5 90q-53 25 -106 33l2 -484q143 -42 229 -84q273 -124 273 -362q-1 -104 -55.5 -192t-145.5 -142q-58 -36 -135 -59t-143 -23h-25v-244h-137v244q-197 27 -324 113q-173 117 -223 342z M338 1090q0 -56 24 -97q16 -26 41.5 -47t63 -37.5t59 -24t62.5 -20.5v451q-62 -6 -109 -25q-64 -27 -102.5 -79.5t-38.5 -120.5zM725 604l2 -485q17 0 45 4q142 16 207 113q37 52 37 116q0 90 -68 146.5t-223 105.5z" />
<glyph unicode="%" horiz-adv-x="1835" d="M53 926q0 110 36 223t108 178q90 72 190 72q73 0 141 -39q47 -26 82.5 -65.5t55.5 -86t33 -87t17.5 -87t5.5 -66t1 -42.5v-4q0 -256 -127 -379q-40 -40 -95 -62t-112 -22q-62 0 -119.5 25.5t-97.5 70.5q-48 54 -83.5 148t-35.5 223zM188 934q0 -186 60 -279 q23 -36 61 -56.5t80 -20.5q91 0 146 79q55 80 55 265q0 176 -49 260q-30 55 -74.5 77.5t-81.5 22.5q-78 0 -131 -70q-66 -85 -66 -278zM508 -6l651 1403l111 -54l-649 -1402zM1071 446q0 121 28 215t75.5 149.5t105.5 83.5t123 28q64 0 122.5 -28.5t108 -85t78 -153 t27.5 -219.5q0 -27 -3 -59.5t-15 -100.5t-46 -131.5t-86 -103.5q-77 -59 -182 -59q-165 0 -256 137q-80 123 -80 327zM1202 451q3 -176 58 -263q30 -50 71.5 -70t77.5 -20q77 0 131 68q61 87 66 270q3 185 -58 281q-30 48 -72 67t-75 17q-43 0 -81 -23t-60 -59 q-58 -88 -58 -268z" />
<glyph unicode="&#x26;" horiz-adv-x="1236" d="M78 379q0 155 104 280q41 48 80 76q25 19 77 48t77 48q-3 7 -14.5 37.5t-14.5 39l-12 34t-11.5 38.5t-7.5 35t-6.5 42t-1.5 41q0 143 90.5 240t233.5 98q125 -2 211 -83t86 -206q0 -56 -23 -117q-43 -102 -174 -196q-12 -8 -117 -70q39 -86 125 -232q77 -129 80 -133 q59 111 96 267h158q-29 -199 -156 -404q15 -21 35 -41.5t66 -42.5t98 -22q17 0 57 6v-170q-44 -8 -77 -8q-60 0 -111 15t-89 42.5t-57 45t-42 44.5q-44 -37 -82 -61q-77 -50 -153 -69t-130 -19q-92 0 -172 38q-26 12 -52 28.5t-58 48t-56 69t-40.5 93.5t-16.5 120zM252 399 q0 -46 18 -92q30 -78 91.5 -122.5t144.5 -43.5q44 0 83.5 11.5t73 34t46 32.5t32.5 29q-24 34 -47.5 72.5t-52.5 88.5t-43 74q-90 152 -115 207q-55 -26 -94 -53q-76 -55 -106.5 -119t-30.5 -119zM512 1133q4 -96 68 -226q116 50 171.5 120t55.5 140q0 32 -12 64 q-15 37 -49 58.5t-76 21.5q-33 0 -70 -19q-29 -15 -48 -38t-27 -48t-10.5 -41.5t-2.5 -31.5z" />
<glyph unicode="'" horiz-adv-x="425" d="M109 1391q-4 42 0 65q9 37 40 57.5t70 20.5q32 0 59.5 -17t36.5 -47q7 -26 4 -55l-83 -526h-48z" />
<glyph unicode="(" horiz-adv-x="641" d="M178 649q0 165 49 352.5t127 344.5q17 34 37.5 70t48.5 82t41 69h133q-84 -136 -159 -334q-111 -306 -111 -578q0 -221 75 -474t195 -439h-135q-63 87 -133 238q-168 352 -168 669z" />
<glyph unicode=")" horiz-adv-x="641" d="M27 -258q92 154 153 315q66 170 91.5 327.5t25.5 266.5q-2 125 -23 246q-30 176 -94 352.5t-153 317.5h133q72 -105 119 -207q24 -48 48.5 -105.5t58 -153.5t54.5 -213.5t21 -230.5q0 -233 -92 -497q-86 -237 -209 -418h-133z" />
<glyph unicode="*" horiz-adv-x="768" d="M53 1157l37 121l232 -74v242h124v-242l234 74l35 -121l-234 -74l154 -190l-100 -82l-146 197l-137 -197l-105 68l146 204z" />
<glyph unicode="+" horiz-adv-x="1366" d="M88 514v164h510v510h164v-510h516v-164h-516v-514h-164v514h-510z" />
<glyph unicode="," horiz-adv-x="468" d="M129 0v223h203v-104q-2 -132 -19.5 -224.5t-64.5 -213.5h-96q58 150 67 319h-90z" />
<glyph unicode="-" horiz-adv-x="598" d="M92 526v156h416v-156h-416z" />
<glyph unicode="." horiz-adv-x="468" d="M131 0v231h203v-231h-203z" />
<glyph unicode="/" horiz-adv-x="681" d="M27 0l477 1438h153l-473 -1438h-157z" />
<glyph unicode="0" horiz-adv-x="1193" d="M100 680q0 24 0.5 42.5t4.5 68.5t11 92t23 101.5t38 108.5t58 102t80 93q118 105 279 105q119 0 225 -64q55 -34 102 -86.5t88 -129t64.5 -186.5t22.5 -239q0 -228 -64 -377t-162 -229q-116 -94 -274 -94q-124 0 -225 61q-54 34 -100 85.5t-85.5 127t-62.5 183t-23 235.5 zM283 688q0 -286 102 -428q80 -115 215 -113q79 0 135 37q51 34 88 96.5t55 137t25.5 140.5t7.5 130q0 292 -108 438q-79 105 -203 105q-110 0 -184 -74q-41 -37 -76 -113q-57 -132 -57 -356z" />
<glyph unicode="1" horiz-adv-x="1193" d="M242 1010v127q128 0 200 30t109 90q34 52 43 123h137v-1380h-192v1010h-297z" />
<glyph unicode="2" horiz-adv-x="1193" d="M158 961q0 208 129 325q122 107 317 107q176 0 297 -103q71 -59 109.5 -148.5t38.5 -185.5q0 -215 -187 -424q-51 -60 -155 -151q-136 -110 -162 -129q-8 -6 -142 -94h662v-158h-903l2 176q6 3 86 47q58 37 152 110.5t188 162.5q59 54 100.5 100t83 106t63 127.5 t21.5 139.5q0 122 -69 193t-191 71q-77 0 -128.5 -25t-78.5 -59q-18 -26 -37 -74q-16 -56 -16 -114q0 -66 24 -164h-180q-24 84 -24 164z" />
<glyph unicode="3" horiz-adv-x="1193" d="M82 457h184q0 -2 1 -15.5t2.5 -26.5t4.5 -30.5t7 -36t10 -35.5q60 -161 299 -161q19 0 34.5 0.5t48.5 5.5t59 13.5t57.5 27t52 44t35 66t14.5 90.5q0 85 -47 144q-69 88 -269 88q-61 0 -122 -6l2 166q223 -17 315 45q88 57 88 172q0 69 -37 122q-38 56 -102.5 83.5 t-138.5 27.5q-150 0 -222 -115q-18 -31 -28.5 -69.5t-13 -64.5t-5.5 -74l-182 8q7 115 27 182q20 64 54 114.5t76 80t82.5 49t85.5 28t72.5 11t55.5 2.5q108 0 204 -33q63 -22 111 -58.5t75 -74.5t43.5 -81.5t21.5 -75.5t5 -62q0 -23 -3 -50.5t-18.5 -77.5t-43.5 -83 q-28 -34 -103 -82q46 -20 84 -49q125 -104 125 -281q0 -158 -106 -264q-129 -133 -377 -133q-26 0 -50 1t-70.5 8t-86 19t-88.5 36.5t-86.5 58t-70.5 87t-50 119.5q-14 56 -16 140z" />
<glyph unicode="4" horiz-adv-x="1193" d="M86 332v166l659 882h144v-893h201v-155h-201v-332h-178v332h-625zM272 487h439l8 619z" />
<glyph unicode="5" horiz-adv-x="1193" d="M96 430l183 12q4 -46 28 -108q49 -126 158 -168q53 -21 117 -21q67 0 125 25q32 14 61 37t56.5 60t44 94.5t16.5 127.5q0 65 -15 115q-17 61 -60 110t-101 72q-66 21 -123 21q-94 0 -158 -43q-16 -8 -39 -31q-54 -52 -76 -104h-166l46 751h784v-161h-645l-19 -363 q135 113 305 111q102 0 189 -37q128 -57 198 -180t70 -267q0 -155 -79.5 -284t-219.5 -181q-82 -30 -188 -30q-88 0 -162.5 22t-123.5 55t-88 77t-59.5 81.5t-33.5 75.5q-18 57 -25 131z" />
<glyph unicode="6" horiz-adv-x="1193" d="M127 674q0 233 66 407q32 91 83 150q77 100 195 137q78 25 152 25q84 0 163 -29q112 -40 167.5 -119t88.5 -209l-178 -24q-29 162 -145 209q-43 16 -94 16q-18 0 -42.5 -3t-65.5 -17.5t-71 -38.5q-63 -54 -102 -166q-7 -21 -12.5 -39.5t-9.5 -40.5t-6.5 -33.5t-5 -38.5 t-3 -34t-2.5 -42t-2 -41l16 21q16 20 27 31q44 44 119.5 80t179.5 36q98 0 176 -34q31 -14 61 -33t67.5 -54.5t64.5 -78t46 -106.5t19 -138q0 -101 -32 -186q-51 -138 -164 -215.5t-262 -77.5q-39 0 -79 7t-94.5 26t-110 63t-99.5 109q-54 82 -82.5 193.5t-28.5 287.5z M332 451q0 -60 20 -117q8 -21 20 -41.5t35.5 -47t52 -46t72 -33.5t93.5 -14q57 0 112 22q80 35 121 112.5t41 168.5q-2 56 -16 102q-19 60 -63 107t-101 67q-45 14 -101 14q-65 0 -112 -20q-82 -33 -128 -108t-46 -166z" />
<glyph unicode="7" horiz-adv-x="1193" d="M197 954v426h845v-198q-1 -54 -14 -85t-65 -118l-72 -125q-70 -125 -117 -223q-7 -15 -76 -166q-49 -111 -73 -186q-23 -72 -39 -148q-18 -76 -25 -131h-217q14 109 57 236t111 261t122 229.5t128 217.5l61 96q46 67 57 96.5t11 80.5h-547v-263h-147z" />
<glyph unicode="8" horiz-adv-x="1193" d="M106 412q0 73 27.5 145.5t77.5 120.5q14 16 84 63q-80 54 -117 122t-37 163q0 117 62 209q113 158 397 158q279 0 387 -152q66 -90 66 -215q0 -154 -103 -246q-25 -22 -53 -39q31 -19 48.5 -31t49.5 -42t50 -61t32.5 -81.5t14.5 -109.5q0 -116 -52 -207 q-23 -42 -56.5 -77.5t-85.5 -69.5t-129.5 -54t-170.5 -20q-29 0 -55.5 1.5t-81.5 12t-100.5 29.5t-98 58.5t-88.5 94.5q-68 105 -68 228zM293 414q0 -82 41 -142q81 -116 268 -116q154 0 234 84q29 30 45 69t18.5 63.5t1.5 45.5q0 110 -74 172q-77 69 -235 69 q-84 0 -145.5 -23t-93 -61t-46 -78t-14.5 -83zM324 1030q0 -61 28 -108q61 -109 246 -109q190 0 246 113q24 43 24 102q0 20 -4 42.5t-22.5 58t-50.5 57.5q-70 49 -201 49q-166 0 -232 -90q-34 -45 -34 -115z" />
<glyph unicode="9" horiz-adv-x="1193" d="M106 909q0 29 3.5 60.5t14.5 82.5t39 104t70 97q128 133 340 133q200 0 324 -118q178 -171 178 -566q0 -367 -155 -557q-44 -63 -121 -106q-92 -51 -236 -51q-75 0 -129 16q-56 17 -120.5 63.5t-112.5 131.5q-30 55 -51 133l178 33q3 -18 16.5 -56.5t34.5 -70.5 q66 -95 196 -95q111 0 189 74q67 65 101 181.5t34 224.5q-24 -30 -46 -52.5t-64.5 -55t-102 -51t-129.5 -18.5q-200 0 -325.5 130.5t-125.5 332.5zM289 899q0 -75 22 -125q11 -26 29.5 -51t49.5 -52.5t80 -44t108 -16.5q62 0 118 21q28 9 54.5 25t58 45t51.5 76.5t21 107.5 q4 52 -17 125q-33 104 -109.5 163.5t-183.5 59.5q-94 0 -163 -51q-41 -29 -67.5 -72.5t-36.5 -90t-12.5 -72t-2.5 -48.5z" />
<glyph unicode=":" horiz-adv-x="555" d="M217 0v231h203v-231h-203zM217 772v229h203v-229h-203z" />
<glyph unicode=";" horiz-adv-x="555" d="M219 0v227h203v-125q0 -104 -12.5 -186.5t-26.5 -125.5t-41 -107l-92 2q51 183 51 315h-82zM219 778v226h203v-226h-203z" />
<glyph unicode="&#x3c;" horiz-adv-x="1366" d="M0 635v176l1366 641v-176l-1161 -553l1161 -553v-176z" />
<glyph unicode="=" horiz-adv-x="1366" d="M0 332v160h1366v-160h-1366zM0 700v162h1366v-162h-1366z" />
<glyph unicode="&#x3e;" horiz-adv-x="1366" d="M0 -6v176l1161 553l-1161 553v176l1366 -641v-176z" />
<glyph unicode="?" horiz-adv-x="1150" d="M145 965q0 211 101 331q21 26 49.5 50t73 51.5t106.5 44t131 16.5q181 0 318 -112q153 -127 153 -330q0 -75 -21.5 -138.5t-56.5 -105.5t-67 -67t-64 -41q-70 -34 -180 -46v-311h-162l2 484h56q128 0 200 38q46 23 76 64q47 62 47 145q0 76 -39 140q-31 47 -100.5 87 t-167.5 40q-139 0 -209 -88q-67 -79 -67 -220v-32h-179zM514 0v199h182v-199h-182z" />
<glyph unicode="@" horiz-adv-x="1835" d="M141 481q0 52 7 108.5t25.5 138.5t61 174.5t105.5 176.5q33 45 71.5 87t108.5 98t147.5 96.5t188.5 69t231 28.5q218 0 371 -104q32 -21 61 -47.5t62 -70.5t57 -94.5t40 -122t16 -151.5q0 -64 -8 -120q-43 -302 -213 -478q-127 -127 -254 -127q-67 0 -104.5 31t-51.5 70 q-12 35 -14 73q-4 -5 -52 -63q-114 -109 -239 -109q-62 0 -113 25q-156 76 -156 307q0 144 60 283.5t168 222.5q100 78 205 76q129 0 202 -109q15 -22 33 -63l31 127h139l-67 -307q-4 -20 -16.5 -79t-20.5 -98.5t-15 -90.5t-6 -83q0 -45 17 -67.5t45 -22.5q50 0 120 70 q29 31 58.5 76.5t61 111.5t51.5 155t20 183q0 129 -43 221q-31 71 -84 124t-103.5 79t-111 41t-94 18t-66.5 3q-167 0 -323 -74q-223 -107 -358.5 -326t-135.5 -467q0 -155 53 -272q52 -117 152.5 -198t217.5 -116.5t247 -35.5q295 0 551 184q55 40 135 115l65 -84 q-74 -76 -164 -137q-278 -191 -585 -191q-131 0 -262 37.5t-236 107.5q-87 61 -151 148q-138 182 -138 442zM651 485q0 -108 49 -157t115 -49q61 0 125 47q53 41 89.5 102.5t51 123t20 99.5t5.5 62q1 58 -15 102.5t-42.5 68t-55 35t-57.5 11.5q-62 -2 -125 -49 q-77 -60 -118.5 -174t-41.5 -222z" />
<glyph unicode="A" horiz-adv-x="1323" d="M20 0l551 1446h201l526 -1446h-202l-158 442h-551l-162 -442h-205zM449 604h432l-211 604z" />
<glyph unicode="B" horiz-adv-x="1409" d="M158 0v1446h680q194 -3 311 -105q119 -101 119 -266q0 -145 -99 -241q-40 -38 -77 -56q-18 -9 -45 -16q60 -18 114 -51q150 -106 150 -307v-5q0 -74 -20.5 -136t-50 -100.5t-70 -69t-72 -44.5t-64.5 -24q-21 -7 -43 -11.5t-37.5 -7t-47.5 -3.5t-46.5 -1.5t-64.5 -1 t-72 -0.5h-565zM340 170h428q130 0 174 12q34 6 74 29q96 60 96 203q0 61 -18 104q-7 18 -19 36t-32 40.5t-52 40.5t-71 27q-23 5 -48 7.5t-41.5 3t-62.5 1t-74 0.5h-354v-504zM340 838h303q211 0 264 14q24 5 48 18t50.5 36t43 64.5t16.5 94.5q0 120 -90 174q-40 25 -82 31 t-141 6h-412v-438z" />
<glyph unicode="C" horiz-adv-x="1536" d="M100 723q0 225 86 396.5t252.5 267.5t392.5 96q37 0 71 -2t100 -14t122 -33t123 -64t117 -102q76 -90 127 -228l-195 -39q-30 83 -65 136q-23 32 -54 61.5t-79.5 61t-118.5 50.5t-150 19q-113 0 -211 -41q-62 -26 -112 -67.5t-81 -84t-54 -96.5t-33.5 -95t-16.5 -90.5 t-7 -72t-1 -49.5q0 -100 19 -187t49 -148t71 -109.5t82.5 -78t86.5 -48.5q98 -37 210 -37q82 0 148 18q27 7 56.5 21t69.5 39t79 67t67 95q39 72 60 184l209 -25q-10 -51 -35 -114q-14 -35 -33.5 -72t-58 -90t-85.5 -97.5t-118 -87.5t-152 -67q-109 -33 -231 -33 q-291 0 -479 174q-41 39 -77 87.5t-72.5 119.5t-57.5 169t-21 210z" />
<glyph unicode="D" horiz-adv-x="1449" d="M160 0v1446h573q45 -1 73.5 -4t86.5 -14.5t116 -41t113 -75.5q226 -191 226 -590q0 -140 -25 -248q-10 -40 -23 -78t-46 -98t-75 -107t-113.5 -93t-158.5 -70q-88 -25 -241 -25q-95 0 -140 -2h-366zM358 168h342q217 8 326 135q125 140 125 420q0 263 -113 403 q-41 48 -71 68q-59 44 -123 59q-49 14 -100.5 18.5t-157.5 4.5h-228v-1108z" />
<glyph unicode="E" horiz-adv-x="1236" d="M162 0v1446h995v-170h-811v-447h705v-167h-705v-494h836v-168h-1020z" />
<glyph unicode="F" horiz-adv-x="1110" d="M160 0v1446h927v-172h-735v-426h684v-168h-684v-680h-192z" />
<glyph unicode="G" horiz-adv-x="1662" d="M102 705q0 326 197 548q210 230 549 230q145 0 266 -43q213 -72 344 -269q34 -52 60 -108l-201 -51q-33 98 -92 162q-44 50 -101 83t-114 45.5t-90.5 16.5t-65.5 4q-248 0 -391 -166q-148 -170 -148 -430q0 -231 113 -391q148 -205 422 -205q181 0 319 94 q181 125 181 359v18h-504v162h672v-764h-168v203q-38 -51 -58 -72q-178 -168 -471 -168q-180 0 -329 70q-50 24 -97 57t-102.5 91.5t-96 129t-67.5 173.5t-27 221z" />
<glyph unicode="H" horiz-adv-x="1492" d="M162 0v1446h190v-615h787v615h194v-1446h-194v662h-787v-662h-190z" />
<glyph unicode="I" horiz-adv-x="468" d="M137 0v1446h195v-1446h-195z" />
<glyph unicode="J" horiz-adv-x="768" d="M18 -16v211l25 -13q63 -28 145 -28q33 0 64 4q90 18 127 71q23 34 28 81.5t5 156.5v979h196v-1063q0 -74 -2.5 -111t-20.5 -88.5t-55 -93.5q-109 -127 -315 -127q-85 0 -197 21z" />
<glyph unicode="K" horiz-adv-x="1280" d="M137 0v1446h193v-707l686 707h237l-585 -598l610 -848h-236l-507 713l-205 -209v-504h-193z" />
<glyph unicode="L" d="M139 0v1446h193v-1274h700v-172h-893z" />
<glyph unicode="M" horiz-adv-x="1662" d="M139 0v1446h250l442 -1186l447 1186h250v-1446h-193l27 1212l-457 -1212h-149l-449 1194l21 -1194h-189z" />
<glyph unicode="N" horiz-adv-x="1449" d="M160 0v1446h182l782 -1159l-8 1159h174v-1446h-174l-792 1176l18 -1176h-182z" />
<glyph unicode="O" horiz-adv-x="1662" d="M104 725q0 325 181 530q99 112 245.5 170t303.5 58q155 0 286 -51q218 -85 329.5 -271t111.5 -426q0 -297 -152 -504q-35 -47 -80.5 -88t-115.5 -84.5t-170 -69.5t-216 -26q-303 0 -497 184q-41 38 -76.5 85.5t-71.5 117.5t-57 167t-21 208zM313 723q0 -226 97 -383 q45 -68 92 -109q66 -57 139 -84q89 -32 197 -32q123 0 219 43q56 26 105.5 69.5t94 111.5t70.5 170q25 98 25 217v9q0 245 -113 402q-141 190 -405 190q-84 -1 -154.5 -20t-119.5 -51t-80.5 -62.5t-55.5 -65.5q-57 -81 -84 -189t-27 -216z" />
<glyph unicode="P" horiz-adv-x="1280" d="M156 0v1446h624h31q82 0 140 -9q69 -11 134 -53q56 -36 94.5 -87.5t53 -105.5t19.5 -88t5 -65q0 -145 -72.5 -257.5t-207.5 -149.5q-69 -19 -217 -19h-418v-612h-186zM342 784h403q109 0 156 11q83 22 124.5 89t41.5 158q0 56 -14 97q-18 50 -57 83.5t-91 47.5 q-43 10 -117 10h-446v-496z" />
<glyph unicode="Q" horiz-adv-x="1662" d="M96 723q0 43 3 86t20 120.5t46 144.5t87 143.5t137 132.5q187 133 447 133q282 0 471 -154q46 -38 86.5 -87.5t80.5 -123.5t63.5 -177.5t23.5 -223.5q0 -133 -31 -236.5t-103 -218.5l224 -192l-123 -144l-230 195q-113 -84 -223 -121t-250 -37q-279 0 -471 158 q-45 37 -85 85.5t-82 121.5t-66.5 175t-24.5 220zM307 729q0 -334 201 -500q130 -110 328 -110q240 0 383 170q135 164 135 434q0 238 -111 401q-146 209 -414 209q-220 0 -364 -151q-158 -168 -158 -453z" />
<glyph unicode="R" horiz-adv-x="1366" d="M160 0v1446h538q15 0 43.5 0.5t51.5 0.5t43 -1q139 -6 221.5 -44t134.5 -102q88 -106 88 -276q0 -25 -2 -50.5t-13 -70.5t-30 -83t-57.5 -78.5t-90.5 -67.5q-62 -32 -147 -47l406 -627h-230l-395 614h-373v-614h-188zM348 776h385q47 0 68.5 0.5t65 5.5t69 14.5t56.5 29 t52 48.5q46 63 46 150q0 151 -115 221q-12 7 -25 13t-28.5 10t-25.5 7.5t-30 5.5t-27 3t-30.5 1.5t-27 0.5h-30.5h-28h-375v-510z" />
<glyph unicode="S" horiz-adv-x="1366" d="M76 463l207 26q8 -166 98 -260q110 -114 317 -114q76 0 133 16q24 6 47.5 15t58 30.5t59.5 49t43.5 74.5t19.5 103q-2 105 -74 164q-59 47 -201 76l-125 27q-79 18 -112.5 26t-97 28.5t-107.5 45.5q-197 106 -197 311q0 164 138 283q145 119 387 119q244 0 387 -109 q78 -59 117 -129q46 -78 67 -207l-194 -12q-3 42 -15 86q-12 42 -35.5 78t-64 70t-107 53.5t-151.5 19.5q-83 0 -160.5 -22t-120.5 -74q-49 -55 -49 -131q0 -61 35 -107q24 -33 69 -57.5t77 -34t89 -22.5q11 -3 17 -4l160 -39q18 -5 56 -14.5t56 -14.5q220 -49 309 -197 q54 -94 54 -200q0 -178 -121 -297q-160 -156 -457 -156q-240 0 -395 100q-67 43 -117 109q-84 113 -100 291z" />
<glyph unicode="T" horiz-adv-x="1110" d="M23 1278v168h1058v-168h-432v-1278h-192v1278h-434z" />
<glyph unicode="U" horiz-adv-x="1409" d="M156 551v895h192v-868q0 -127 6 -168q15 -123 95 -199q52 -49 120 -70q51 -14 125 -14q127 0 215 57q35 22 60.5 50t41.5 62t25.5 64.5t14 73t5.5 72.5t1 76v864h194v-924q0 -100 -12 -168q-41 -195 -211 -303q-140 -88 -336 -88q-128 0 -235 39q-100 39 -174.5 116 t-106.5 177q-14 51 -18 101q-3 33 -3 91q0 29 1 64z" />
<glyph unicode="V" horiz-adv-x="1236" d="M23 1446h204l383 -1208l398 1208h204l-510 -1446h-190z" />
<glyph unicode="W" horiz-adv-x="2091" d="M37 1446h203l342 -1198l366 1198h189l381 -1198l337 1198h199l-442 -1446h-189l-381 1198l-368 -1198h-193z" />
<glyph unicode="X" horiz-adv-x="1280" d="M43 0l481 758l-454 688h229l338 -520l324 520h227l-443 -688l494 -758h-227l-375 588l-371 -588h-223z" />
<glyph unicode="Y" horiz-adv-x="1280" d="M29 1446h227l381 -612l385 612h229l-520 -784v-662h-194v662z" />
<glyph unicode="Z" horiz-adv-x="1236" d="M37 0v188l893 1082h-821v176h1040v-180l-889 -1092h909v-174h-1132z" />
<glyph unicode="[" horiz-adv-x="641" d="M233 -227v1753h385v-127h-212v-1503h212v-123h-385z" />
<glyph unicode="\" horiz-adv-x="724" d="M53 1446h164l455 -1446h-164z" />
<glyph unicode="]" horiz-adv-x="641" d="M23 -100h213v1501h-213v125h383v-1753h-383v127z" />
<glyph unicode="^" horiz-adv-x="1492" d="M291 688l385 758h158l368 -758h-198l-254 533l-263 -533h-196z" />
<glyph unicode="_" horiz-adv-x="1024" d="M-20 -281h1064v-161h-1064v161z" />
<glyph unicode="`" horiz-adv-x="555" d="M-90 1362h182l86 -295h-98z" />
<glyph unicode="a" horiz-adv-x="1024" d="M66 250q0 128 104 209q21 16 47 29.5t47.5 22t47 16t40 10.5t34 6.5t20.5 3.5q102 16 155 20q12 1 66.5 4t81.5 7q0 52 -2 79q-2 29 -4.5 50t-15.5 54.5t-34 54.5t-62 37.5t-97 16.5q-160 0 -199 -116q-10 -31 -10 -86l-170 10q0 39 16 94q10 31 26 59t45 59t66.5 53.5 t93.5 37t123 14.5q74 0 152 -20q22 -6 45 -15t58 -28.5t65.5 -55t46.5 -81.5q13 -36 16.5 -78.5t3.5 -128.5v-316q0 -43 2 -63q1 -15 3 -22.5t8 -22t21.5 -22t39.5 -7.5q13 0 49 8v-137q-55 -18 -104 -18q-67 0 -103 24q-15 11 -32 37q-23 31 -33 82q-21 -22 -34.5 -36 t-47 -40t-65.5 -41.5t-81 -28t-102 -12.5q-67 0 -133 21q-89 30 -141.5 97t-52.5 159zM246 254q0 -43 22 -76q47 -67 160 -67q116 0 188 59q95 75 95 223q0 14 -1 40t-1 38q-22 -4 -68.5 -10t-69.5 -10q-37 -7 -96 -21q-40 -7 -67 -14q-14 -3 -24 -6t-39 -16.5t-47.5 -29.5 t-35 -45.5t-16.5 -64.5z" />
<glyph unicode="b" horiz-adv-x="1150" d="M133 0v1446h164v-615q17 26 45 56q114 108 287 108q199 0 325 -145q119 -143 119 -367q0 -217 -104 -354q-64 -86 -152 -123q-87 -37 -190 -37q-121 0 -221 58q-68 41 -109 98v-125h-164zM293 479q0 -133 45 -213q13 -25 31 -48t48.5 -49.5t78 -43t104.5 -16.5 q94 0 156 43q60 40 101.5 124t41.5 213q0 127 -45 207q-89 150 -254 150q-130 0 -213 -88q-92 -95 -94 -279z" />
<glyph unicode="c" d="M80 475q1 89 20 165.5t48.5 128.5t69 94t77.5 65.5t78 38.5q75 28 176 28q91 0 166 -22.5t123.5 -60t79 -75t49.5 -79.5q17 -38 26 -86l-180 -17q-20 81 -41 113q-71 109 -221 109q-58 0 -108 -21t-92 -64.5t-66.5 -122t-24.5 -184.5q0 -212 111 -319q75 -70 192 -70 q69 0 123 25q72 32 104 92.5t46 151.5l176 -17q-31 -188 -162 -293q-111 -86 -291 -86q-104 0 -182 29q-39 14 -76 36t-78.5 61.5t-72 90t-50.5 126t-20 163.5z" />
<glyph unicode="d" horiz-adv-x="1150" d="M80 485q0 209 98 338q20 28 46 53t68 54.5t101.5 47t128.5 17.5q156 0 275 -96q31 -25 57 -61v608h164v-1446h-164v123q-25 -29 -47.5 -49.5t-63 -47.5t-96.5 -42t-123 -15q-205 0 -325 146q-119 143 -119 370zM256 479q0 -163 74 -260q81 -104 227 -104q92 0 156 41 q63 40 105 120q41 79 40 201v6q0 74 -12 125q-25 106 -101.5 171.5t-183.5 66.5q-139 0 -223 -101q-82 -97 -82 -266z" />
<glyph unicode="e" d="M80 492q0 207 108 337q66 79 160.5 122.5t198.5 43.5q78 0 151 -26q38 -13 75.5 -34t88 -73.5t80.5 -122.5q47 -110 46 -284l-732 -2v-5q0 -112 41 -190q42 -78 98 -117q73 -49 174 -49q98 0 162 60q31 25 53 63q9 15 16.5 32.5t11 29.5t7 25t4.5 15l165 -22 q0 -1 -7 -20.5t-13 -34t-17.5 -37.5t-24.5 -43q-126 -191 -373 -191q-113 0 -203 39q-50 21 -93.5 56t-85.5 91t-66.5 143t-24.5 194zM260 571h551q-5 60 -14 95q-25 90 -96.5 146t-165.5 56q-83 0 -144.5 -43t-92.5 -108t-38 -146z" />
<glyph unicode="f" horiz-adv-x="555" d="M23 829v136h159v84q1 24 2 69t1.5 61.5t3 43.5t7 44.5t11.5 35.5q52 133 229 133q48 0 119 -13l-2 -129q-33 11 -88 11q-75 0 -105 -56q-12 -21 -15 -43.5t-3 -72.5v-168h182v-136h-182v-829h-160v829h-159z" />
<glyph unicode="g" horiz-adv-x="1150" d="M84 477q0 216 100 350q61 79 154 123.5t194 44.5q73 0 132 -24q92 -30 184 -137v131h170v-914q0 -102 -4 -150.5t-19 -99.5q-57 -192 -258 -247q-95 -23 -168 -23q-76 0 -161 23q-66 18 -117 51.5t-78.5 67.5t-47 79.5t-25.5 73.5t-11 63h184q0 -80 41 -133 q69 -92 226 -92q167 0 227 98q27 41 34 95.5t7 171.5l-2 110q-124 -170 -316 -170q-118 0 -202 49q-34 17 -65.5 41.5t-65 64.5t-58 88t-40 117t-15.5 148zM252 481q0 -212 121 -307q74 -57 184 -57q112 0 184 63q113 102 113 316q0 88 -20 147q-30 97 -108.5 151t-180.5 54 q-72 -3 -125 -29q-70 -35 -119 -118.5t-49 -219.5z" />
<glyph unicode="h" d="M135 0v1446h164l2 -578q118 127 291 127q155 0 246 -82q25 -25 41 -49q28 -41 41.5 -94t15.5 -89t2 -104v-18v-559h-166v510q0 6 0.5 40t0 48t-2 41t-5.5 47.5t-11 38.5q-23 63 -75 95t-120 32q-20 0 -43 -4t-55 -15t-63.5 -37.5t-53.5 -64.5q-10 -17 -17.5 -35 t-12 -39.5t-7.5 -35t-4.5 -40t-2 -35.5t-1 -40t-0.5 -37v-469h-164z" />
<glyph unicode="i" horiz-adv-x="425" d="M141 0v965h158v-965h-158zM141 1257v189h158v-189h-158z" />
<glyph unicode="j" horiz-adv-x="425" d="M-47 -315q68 -7 74 -7q43 0 73 21q23 16 28 42t5 91v1133h160v-1178q0 -48 -1.5 -73t-13.5 -60.5t-36 -61.5q-10 -11 -21.5 -20t-24 -15t-23.5 -11t-24 -7.5t-22 -4.5t-22 -2.5t-18 -0.5h-16h-12q-36 0 -106 8v146zM133 1255v191h160v-191h-160z" />
<glyph unicode="k" horiz-adv-x="937" d="M133 0v1446h166v-891l385 410h201l-359 -381l441 -584h-205l-346 463l-117 -123v-340h-166z" />
<glyph unicode="l" horiz-adv-x="425" d="M137 0v1446h156v-1446h-156z" />
<glyph unicode="m" horiz-adv-x="1579" d="M131 0v965h154l2 -129q21 26 61 63q55 48 108 72t119 24q25 0 52 -4.5t72 -26.5t77 -59q24 -26 60 -88q7 6 18.5 18.5t13.5 14.5q145 145 291 145q133 -2 223 -106q13 -15 23 -32.5t16.5 -31.5t11.5 -36t7.5 -34t4 -38.5t2 -35.5t1 -39.5t0.5 -37.5v-604h-162v565 q2 23 2 47v25q-2 38 -7 71.5t-26 63.5t-57 49q-42 21 -88 21q-73 -2 -141.5 -47.5t-89.5 -112.5q-10 -31 -13 -139v-543h-159v543q0 9 0.5 45.5t0 51.5t-4 46.5t-11 49t-22.5 38.5t-37 35q-41 31 -105 31q-29 0 -59 -9q-53 -13 -102.5 -50t-67.5 -85q-11 -28 -14 -123v-573 h-154z" />
<glyph unicode="n" d="M131 0v965h164v-142q23 40 51 68q37 39 100.5 71.5t151.5 32.5q23 0 50.5 -4.5t69 -16.5t83 -41t71.5 -71q18 -25 30.5 -55.5t18 -51.5t8.5 -61.5t3 -55v-63.5v-575h-162v614v10.5v14.5t-0.5 16t-2 19t-4 20.5t-6 21.5t-9.5 21t-13 22t-17 20.5t-22 19.5q-60 43 -145 43 q-105 0 -180 -72q-41 -41 -58 -88q-18 -45 -18 -133v-549h-164z" />
<glyph unicode="o" horiz-adv-x="1110" d="M82 477q0 208 111 350q131 168 370 168q109 0 193 -37q47 -20 91.5 -54.5t87.5 -90.5t69 -142q25 -83 24 -182v-8q0 -208 -113 -350q-136 -162 -358 -162q-211 0 -334 127q-141 141 -141 381zM260 471q0 -42 8 -98q4 -28 11.5 -56t28.5 -69.5t50.5 -72t81.5 -53 t117 -22.5q153 7 229 121q14 22 25.5 50.5t18 53.5t11.5 54.5t6.5 47t2.5 37.5l2 19q0 156 -49 246q-24 46 -60 74q-72 61 -176 61q-63 0 -114 -19.5t-82.5 -48t-54 -71t-33 -76t-16.5 -77.5t-6.5 -61.5t-0.5 -39.5z" />
<glyph unicode="p" horiz-adv-x="1150" d="M133 -459v1424h160l2 -138q44 51 82 80q65 51 137.5 69.5t122.5 18.5q102 0 203 -55q42 -23 79 -58t73 -89.5t57.5 -135.5t21.5 -178q0 -213 -104 -348q-125 -162 -349 -162q-167 0 -278 94q-21 18 -47 50v-572h-160zM293 465q0 -151 76 -252q43 -53 100 -76 q55 -24 127 -24q94 0 147.5 31t87.5 79q72 100 72 262q0 97 -24 162q-9 23 -20.5 45t-36 52t-54 51t-76.5 35q-41 12 -88 12h-14q-87 -3 -152 -47q-61 -40 -103 -121.5t-42 -208.5z" />
<glyph unicode="q" horiz-adv-x="1150" d="M82 469q0 241 115 377q32 41 96 84q110 65 229 65q165 0 277 -108q28 -28 53 -66v144h166v-1426h-166v576q-32 -39 -55 -56q-109 -90 -277 -90q-172 0 -284 99q-154 133 -154 401zM260 479q0 -218 111 -311q80 -66 190 -66q85 0 152 37q151 77 151 310q0 178 -78 282 q-38 54 -98 84q-54 27 -127 27q-11 1 -21 1q-84 0 -155 -50q-125 -91 -125 -314z" />
<glyph unicode="r" horiz-adv-x="641" d="M133 0v965h164v-177q39 73 90 111q92 78 240 78v-176q-36 5 -66.5 5t-54.5 -5q-72 -12 -124 -59t-71 -117q-14 -49 -14 -144v-35v-446h-164z" />
<glyph unicode="s" horiz-adv-x="980" d="M63 311l187 27q0 -56 10.5 -95.5t42.5 -74.5q67 -74 215 -74q118 0 180 56q45 41 45 106q0 45 -18 72q-12 19 -33 34t-52.5 24.5t-48.5 13.5t-48 10l-94 18q-163 36 -228 76q-117 70 -117 205q0 87 52 157q34 45 84 74t104 39.5t81 13t54 2.5q136 0 226 -51.5t135 -118.5 q38 -57 51 -147l-176 -21q-3 63 -15 91q-22 47 -85 84.5t-158 37.5q-92 0 -141.5 -44t-49.5 -97q0 -22 15 -51q22 -35 71.5 -56t147.5 -44l94 -23q15 -4 44 -12.5t44 -12.5q107 -33 170 -93.5t63 -162.5q0 -76 -43 -145q-45 -68 -134.5 -114t-229.5 -46q-178 0 -287 70 q-38 24 -69 61q-68 82 -89 211z" />
<glyph unicode="t" horiz-adv-x="598" d="M33 829v136h155v305h168v-305h174v-136h-174v-553q-2 -27 -2 -49q0 -18 2 -33q2 -33 13 -53q15 -28 59 -28q40 0 102 22v-135q-96 -16 -155 -16q-124 0 -164 59q-17 25 -21 57q-3 21 -3 60q0 19 1 43v626h-155z" />
<glyph unicode="u" d="M133 315.5v44.5v39v566h162v-549v-31.5v-29.5v-24t1 -23t2 -19.5t2.5 -19t3.5 -16t5.5 -17t7.5 -15.5q16 -37 61 -64.5t116 -27.5t132.5 28t96.5 83q12 18 21 39.5t13.5 36.5t7.5 43t3.5 37.5t1 44t0.5 40.5v484h160v-965h-160l-2 147q-19 -25 -45 -55 q-123 -117 -285 -117q-83 0 -153.5 34.5t-108.5 103.5q-10 18 -17.5 37t-12.5 43.5t-7.5 38.5t-4 45t-1.5 38.5z" />
<glyph unicode="v" horiz-adv-x="894" d="M25 965h170l256 -740l254 740h167l-348 -965h-147z" />
<glyph unicode="w" horiz-adv-x="1492" d="M23 965h176l241 -717l238 717h143l228 -717l251 717h173l-355 -965h-143l-232 719l-235 -719h-150z" />
<glyph unicode="x" horiz-adv-x="811" d="M18 0l299 489l-284 476h188l193 -332l194 332h185l-291 -476l291 -489h-185l-205 344l-200 -344h-185z" />
<glyph unicode="y" horiz-adv-x="894" d="M18 -309q65 -17 105 -17q58 0 90 21q14 9 26.5 23.5t20.5 26.5t18 34.5t13.5 31.5t13 35.5t10.5 28.5l41 119l-327 971h174l241 -766l256 766h170l-405 -1141q-40 -113 -62 -152q-42 -82 -94.5 -115.5t-144.5 -33.5q-73 0 -146 20v148z" />
<glyph unicode="z" horiz-adv-x="854" d="M27 0v135l555 688h-502v142h704v-131l-561 -699h574v-135h-770z" />
<glyph unicode="{" horiz-adv-x="724" d="M141 506v12q53 12 84 43q16 16 28 40.5t18 44.5t9.5 54.5t4.5 50t1.5 53.5t0.5 44v344q0 1 0.5 17.5t1 26t3 31t6 37t10.5 38t15.5 40t22 37.5t30.5 35.5t39.5 29.5t49.5 23q13 5 26.5 8.5t24.5 5.5t31.5 4t32.5 2.5t41.5 2t46.5 2.5l-2 -12q-6 -2 -18 -5.5t-22 -6.5 t-18 -7q-100 -34 -131 -131q-4 -13 -6.5 -26t-4 -22.5t-2.5 -29.5t-1.5 -29t-1 -40t-0.5 -45v-201q0 -204 -7 -258q-9 -68 -36 -115q-7 -11 -14.5 -21t-16.5 -18t-16 -14.5t-17.5 -12t-16 -9t-16 -7.5t-14 -5t-13.5 -4l-9 -3q23 -9 33 -13t36 -19t45 -37.5t33 -53.5 q6 -12 10.5 -24t7.5 -28t5.5 -27t4 -32t2 -32t1 -39t0.5 -40v-48v-51v-226q2 -102 8 -146t29 -85q14 -25 30.5 -42.5t42 -30t42 -18.5t53.5 -18l-2 -12q-14 1 -40.5 2t-39.5 2q-101 5 -160 35q-68 36 -102 104q-9 19 -16 42t-10.5 40t-6 46t-3 40.5t-1 46t-0.5 41.5v265 q0 11 0.5 29t0.5 32t-1 27q0 186 -103 247q-29 15 -43 19z" />
<glyph unicode="|" horiz-adv-x="468" d="M152 -512v2044h165v-2044h-165z" />
<glyph unicode="}" horiz-adv-x="724" d="M59 -500q80 19 120 50q55 42 73 116q9 38 12 176v201q0 22 0.5 73.5t1 69t1.5 55t4 54.5l7.5 42.5t11.5 43.5t17 35q38 64 133 94q-73 27 -106 59q-48 50 -59.5 118.5t-12.5 217.5v47v226v24v26t-0.5 24t-1 26t-2 24t-4 25.5t-5.5 23.5t-7.5 25t-10 22t-12.5 23 q-28 43 -62.5 62t-97.5 37v12q46 -4 70 -4l16 -1q16 -1 25.5 -2t28.5 -3.5t34.5 -7t35 -11t37.5 -16.5t34 -23q15 -12 27.5 -26.5t21.5 -27.5t16.5 -33t12.5 -32t8.5 -36.5t5.5 -34.5t3.5 -38t1.5 -35t0.5 -37t0.5 -34v-264q0 -115 2 -137q7 -131 90 -190q23 -14 54 -25v-12 q-49 -12 -80 -41q-13 -12 -23.5 -29.5t-17 -32.5t-11.5 -39.5t-7 -38t-3.5 -42t-1.5 -38v-39.5v-32v-256q-2 -37 -2 -109q-5 -106 -36 -169q-37 -76 -109 -113q-13 -7 -25 -11.5t-28 -8t-25 -5.5t-32 -3.5t-33 -2t-43 -2t-48 -2.5v12z" />
<glyph unicode="~" horiz-adv-x="1492" d="M254 594q49 69 89 103q83 69 183 69q38 -1 82.5 -13.5t69.5 -23t76 -33.5l67 -30q97 -43 144 -43q75 0 165 90q1 1 31 37l78 -148q-52 -59 -90 -88q-93 -74 -191 -74q-45 1 -84.5 14t-121.5 52l-58 29l-14 7q-13 6 -29 12t-36.5 13.5t-43.5 12t-43 4.5t-37 -3.5 t-33.5 -13.5t-28 -17t-27 -24t-22 -24.5t-23 -28.5t-21.5 -27z" />
<glyph unicode="&#xa1;" horiz-adv-x="555" d="M158 0v590l49 555h63l49 -578v-567h-161zM158 1262v184h161v-184h-161z" />
<glyph unicode="&#xa3;" horiz-adv-x="1366" d="M74 575v134l268 2q-71 116 -98 192.5t-27 149.5q0 143 94 250q51 59 120 99t137 55.5t109 20.5t77 5q178 0 307 -86q31 -21 60 -48.5t62 -73t54 -111.5t23 -142l-216 -21q7 48 -2 95q-5 28 -15.5 56.5t-33.5 62.5t-55 59.5t-83.5 43t-115.5 17.5q-58 0 -118 -18 q-22 -8 -41.5 -17t-47 -29.5t-47 -46t-33.5 -65.5t-14 -88q0 -53 16.5 -106t32 -82t55.5 -90t54 -84h428v-134h-354q3 -10 13.5 -39t13 -38.5t8 -31t7 -40t1.5 -41.5q0 -64 -23 -156q17 -9 27 -16q136 -68 227 -68q95 0 148 62.5t55 157.5l190 -13q-8 -109 -60 -206 t-142 -142q-60 -29 -142 -29q-102 0 -213 39q-33 11 -91.5 39t-76.5 35q-7 -5 -32 -25.5t-41 -29.5q-97 -64 -215 -64q-32 0 -74 11q-46 12 -78.5 34t-48.5 48.5t-22.5 50t-6.5 45.5q0 50 27 90q58 88 196 88q98 0 205 -37q6 28 4 45q-4 59 -34 133q-22 47 -56 98h-362z M256 143q0 -18 17.5 -33.5t48.5 -15.5q71 0 143 64q-27 11 -74 22q-26 13 -69 13q-40 0 -58 -25q-8 -8 -8 -25z" />
<glyph unicode="&#xa4;" horiz-adv-x="1366" d="M86 223l156 154q-20 28 -33 51t-32.5 64.5t-29.5 94t-10 111.5q0 137 66 254q26 43 39 60l-154 155l123 123l154 -153q39 27 70 44.5t102 38.5t147 21q134 0 248 -59q13 -7 29 -18t27.5 -18.5t12.5 -8.5l154 153l125 -123l-156 -155q103 -140 103 -318q0 -123 -47 -223 q-15 -33 -58 -96l158 -156l-127 -123l-156 156q-141 -102 -315 -102q-77 0 -147 20.5t-100 38t-70 45.5l-156 -156zM301 694q0 -162 111.5 -272.5t273.5 -110.5q121 0 209 62q27 18 52 42t53.5 63t45.5 95.5t17 122.5q0 137 -78 238q-117 147 -301 145q-77 0 -141 -24 q-114 -42 -178 -140t-64 -221z" />
<glyph unicode="&#xa6;" horiz-adv-x="468" d="M152 389h165v-780h-165v780zM152 631v780h165v-780h-165z" />
<glyph unicode="&#xa7;" horiz-adv-x="1280" d="M76 758q0 194 192 315q-43 47 -63.5 86.5t-20.5 95.5q1 52 25 105.5t71.5 104t133 82.5t194.5 32q80 0 170 -20q128 -31 328 -129l-84 -146q-55 33 -72 43q-184 103 -346 103q-109 0 -171 -42.5t-62 -103.5q0 -26 12 -49q6 -13 14.5 -23.5t21.5 -20t20.5 -15.5t26 -14.5 t24.5 -11t28 -11t25 -9.5l153 -57q53 -17 90 -35q9 -3 97 -43q63 -30 75 -37q248 -131 248 -350q0 -127 -92 -239q-48 -55 -100 -82q28 -25 39 -37q63 -73 63 -170q0 -76 -47 -154q-20 -30 -49.5 -58t-74.5 -56t-109.5 -45t-139.5 -17q-153 0 -368 88q-131 60 -166 78 l82 152q232 -156 458 -156q102 0 156.5 43t54.5 104q0 34 -18 64q-8 15 -21.5 28t-24 21t-31.5 18.5t-29 14t-34 13.5t-30 11l-131 58q-113 45 -232 106q-49 26 -86.5 50t-77 58.5t-65 70.5t-41.5 84t-16 102zM262 778q0 -76 64 -133q14 -14 35.5 -29t50.5 -31.5t53 -29.5 t60 -30.5t54.5 -26t53.5 -24.5t41 -19l176 -80q71 28 124.5 86t53.5 129q-2 114 -147 201q-33 19 -78.5 41t-76.5 35t-88 36.5t-75 30.5l-131 53q-17 -8 -36 -19t-54 -37.5t-57.5 -66.5t-22.5 -86z" />
<glyph unicode="&#xa8;" horiz-adv-x="555" d="M-182 1108v211h178v-211h-178zM219 1108v211h182v-211h-182z" />
<glyph unicode="&#xa9;" horiz-adv-x="1705" d="M125 725q0 264 166 467q28 32 58.5 61.5t84 67.5t112 65.5t140.5 46.5t170 19q247 0 434 -141q35 -26 68 -57.5t76.5 -87t74.5 -117t53 -149t21 -181.5q-7 -280 -180 -479q-102 -118 -246 -182t-303 -64q-156 0 -297.5 61.5t-245.5 175.5q-186 203 -186 494zM190 723 q0 -131 50 -252q75 -187 244 -299.5t372 -112.5q95 0 211 35q203 67 325 239.5t124 387.5q0 227 -132 403q-24 32 -52 61.5t-77 68t-103.5 66t-132.5 47t-163 19.5q-223 0 -393 -126q-32 -23 -63 -51t-70.5 -78.5t-69 -106.5t-50 -135.5t-20.5 -165.5zM383 725 q0 210 138.5 348.5t348.5 138.5q178 0 310 -108q29 -25 75 -76l-114 -108q-18 20 -28 30.5t-38.5 34t-54.5 36.5t-67 24.5t-85 11.5q-76 0 -139 -29q-89 -40 -137.5 -122t-48.5 -181q0 -73 30 -141q38 -87 119.5 -138t179.5 -51q52 0 98.5 14t81.5 39.5t51.5 41t37.5 38.5 l114 -100q-154 -186 -389 -186q-96 0 -184 32q-139 53 -219 175.5t-80 275.5z" />
<glyph unicode="&#xab;" horiz-adv-x="811" d="M86 512v174l276 240v-187l-159 -139l159 -137v-182zM410 520v170l274 238v-183l-164 -145l164 -135v-176z" />
<glyph unicode="&#xac;" horiz-adv-x="1366" d="M0 518v162h1366v-680h-164v518h-1202z" />
<glyph unicode="&#xad;" horiz-adv-x="598" d="M92 526v156h416v-156h-416z" />
<glyph unicode="&#xae;" horiz-adv-x="1705" d="M125 725q0 264 166 467q28 32 58.5 61.5t84 67.5t112 65.5t140.5 46.5t170 19q175 0 328 -76t258 -217q144 -194 141 -440q0 -42 -6 -87t-22 -110t-53.5 -136.5t-92.5 -135.5q-68 -80 -151.5 -135.5t-163 -79.5t-135.5 -32.5t-105 -8.5q-249 0 -446 149q-34 27 -66 58 t-73.5 85.5t-71.5 115t-51 146t-21 177.5zM190 723q0 -131 50 -252q75 -187 244 -299.5t372 -112.5q112 0 223 39q198 70 317.5 241t121.5 382q0 223 -129 399q-24 32 -52 62t-78 69t-105 67t-134 48t-164 20q-223 0 -393 -126q-32 -23 -63 -51t-70.5 -78.5t-69 -106.5 t-50 -135.5t-20.5 -165.5zM545 268v920h299h18q54 0 83.5 -1.5t74.5 -9.5t78 -28t59 -53q49 -61 49 -144q0 -21 -4.5 -43t-16 -51t-38.5 -56t-66 -46q-39 -17 -65 -23q41 -17 55 -28q17 -13 30 -31t20.5 -31.5t14.5 -40t9 -37.5t6.5 -42.5t5.5 -37.5q23 -147 62 -217l-189 2 q-13 28 -22.5 63.5t-13 52.5t-10 67.5t-7.5 58.5q-11 64 -25.5 94.5t-46.5 48.5q-28 17 -52.5 21t-86.5 6h-57v-414h-164zM709 811h137q37 0 55 2q95 7 127 70q14 21 14 57q0 13 -3 28.5t-17 39t-37 36.5q-43 19 -123 19q-7 0 -23 -1t-24 -1h-106v-250z" />
<glyph unicode="&#xb0;" horiz-adv-x="724" d="M33 1217q0 137 96.5 233t232.5 96q138 0 234 -96t96 -233q0 -79 -30 -142q-40 -86 -122 -138t-178 -52q-138 1 -233.5 98t-95.5 234zM201 1221q0 -67 47.5 -114.5t113.5 -47.5q68 0 115 47.5t47 114.5q0 66 -47.5 113.5t-114.5 47.5t-114 -47.5t-47 -113.5z" />
<glyph unicode="&#xb1;" horiz-adv-x="1366" d="M84 0v162h1196v-162h-1196zM84 772v162h520v496h162v-496h514v-162h-514v-496h-162v496h-520z" />
<glyph unicode="&#xb4;" horiz-adv-x="555" d="M49 1069l84 295h176l-176 -295h-84z" />
<glyph unicode="&#xb5;" horiz-adv-x="1150" d="M141 748q0 90 13 131q36 73 90 71q39 0 65 -39q25 -36 25 -108q0 -52 -12 -158q-2 -17 -23 -194q-18 -146 -27 -195q14 -35 39 -80q65 -92 166 -92q61 0 109 37q18 13 34 30.5t28 34.5t22.5 38t17 37t13 35.5t9.5 30.5t6 24t3 14q8 40 12 90.5t5 98t1 85t-1 69.5t-1 33 q0 133 25 172q26 39 74 37q31 0 51 -14q30 -22 41.5 -65.5t11.5 -120.5q0 -40 -2.5 -94t-17 -156t-39.5 -178q-15 -50 -41 -99q40 -104 110 -104q20 0 39 12q49 27 49 111q0 13 -4 45l58 2q28 -70 28 -142q0 -13 -1.5 -27.5t-9 -42.5t-21 -48t-41.5 -36t-66 -16 q-83 0 -139 80q-24 32 -43 90q-35 -53 -77 -90.5t-83 -55.5t-74.5 -25t-64.5 -7q-123 0 -209 99q-15 15 -29 36q-13 -208 62 -364q9 -19 30 -51.5t25 -40.5q1 -2 7.5 -12.5t8.5 -14.5t7 -13t6.5 -14.5t4.5 -13.5t4 -15.5t1 -15.5q0 -37 -25 -61.5t-63 -24.5q-21 0 -47 13 q-41 20 -68 80q-53 112 -53 352q0 211 22 348q-2 14 -6 40.5t-7 48t-5 40.5q-23 180 -23 363z" />
<glyph unicode="&#xb6;" horiz-adv-x="1366" d="M180 1038q0 137 72.5 241.5t202.5 145.5q77 21 178 21h471v-111h-70v-1677h-119v1677h-294v-1677h-119v995q-76 13 -119 35q-100 45 -151.5 139.5t-51.5 210.5z" />
<glyph unicode="&#xb7;" horiz-adv-x="382" d="M55 598q0 39 15 64q12 24 44 49.5t79 25.5q24 0 49 -10q41 -18 64.5 -52t23.5 -77q0 -22 -11 -51q-8 -21 -20.5 -38.5t-43 -34.5t-69.5 -15q-58 1 -94.5 40.5t-36.5 98.5z" />
<glyph unicode="&#xb8;" horiz-adv-x="555" d="M-41 -197l150 230l59 -15l-59 -106q10 -6 31.5 -17.5t31.5 -17.5q35 -26 49.5 -59t14.5 -58q0 -43 -27 -84q-57 -83 -234 -92l2 47q20 -7 48 2q25 6 41 26t16 46q0 27 -12 39q-11 17 -27.5 26.5t-45 18.5t-38.5 14z" />
<glyph unicode="&#xbb;" horiz-adv-x="811" d="M127 274v185l164 143l-164 137v174l274 -231v-170zM446 279v184l162 141l-162 135v183l277 -232v-172z" />
<glyph unicode="&#xbf;" horiz-adv-x="1150" d="M76 430q0 111 55.5 207t153.5 145q75 38 180 45v312h160v-484q-35 3 -66 0q-10 0 -38 -2.5t-76.5 -12t-77.5 -24.5q-48 -22 -74 -61q-49 -63 -49 -145q0 -67 32 -129q33 -54 102 -97t175 -43q89 0 152 35q51 30 87.5 95t36.5 169q0 6 -1 18.5t-1 18.5l181 -2 q0 -211 -109 -338q-133 -149 -350 -149q-126 0 -233.5 54.5t-173.5 157t-66 230.5zM455 1247v199h182v-199h-182z" />
<glyph unicode="&#xc0;" horiz-adv-x="1323" d="M20 0l551 1446h201l526 -1446h-202l-158 442h-551l-162 -442h-205zM446 1833h205l97 -254h-123zM449 604h432l-211 604z" />
<glyph unicode="&#xc1;" horiz-adv-x="1323" d="M20 0l551 1446h201l526 -1446h-202l-158 442h-551l-162 -442h-205zM449 604h432l-211 604zM575 1579l99 254h203l-179 -254h-123z" />
<glyph unicode="&#xc2;" horiz-adv-x="1323" d="M20 0l551 1446h201l526 -1446h-202l-158 442h-551l-162 -442h-205zM385 1579l207 254h133l219 -254h-158l-127 152l-120 -152h-154zM449 604h432l-211 604z" />
<glyph unicode="&#xc3;" horiz-adv-x="1323" d="M20 0l551 1446h201l526 -1446h-202l-158 442h-551l-162 -442h-205zM362 1610q21 127 84 174q38 28 97 28q31 0 61.5 -9.5t67.5 -25t59 -22.5q24 -12 66 -12q21 0 32 8q19 12 35 55h97q-5 -37 -23 -84q-4 -12 -8.5 -23t-17 -30.5t-27.5 -33.5t-40 -25t-54 -11 q-48 2 -170 50q-60 24 -93 24q-12 0 -22 -2q-36 -18 -43 -61h-101zM449 604h432l-211 604z" />
<glyph unicode="&#xc4;" horiz-adv-x="1323" d="M20 0l551 1446h201l526 -1446h-202l-158 442h-551l-162 -442h-205zM377 1599v209h178v-209h-178zM449 604h432l-211 604zM778 1599v209h178v-209h-178z" />
<glyph unicode="&#xc5;" horiz-adv-x="1323" d="M20 0l551 1446h201l526 -1446h-202l-158 442h-551l-162 -442h-205zM449 604h432l-211 604zM475 1739q0 80 57.5 136t139.5 56q80 0 137 -56.5t57 -137.5q-1 -81 -58.5 -138t-137.5 -57q-82 0 -138.5 57.5t-56.5 139.5zM567 1737q0 -43 31 -73t74 -30q41 0 71.5 31 t30.5 74t-30.5 72.5t-73.5 29.5t-73 -30.5t-30 -73.5z" />
<glyph unicode="&#xc6;" horiz-adv-x="2134" d="M-4 0l989 1446h1067v-170h-809v-473h653v-162h-653v-473h834v-168h-1024v475h-516l-316 -475h-225zM649 641h404v619z" />
<glyph unicode="&#xc7;" horiz-adv-x="1536" d="M100 723q0 225 86 396.5t252.5 267.5t392.5 96q37 0 71 -2t100 -14t122 -33t123 -64t117 -102q76 -90 127 -228l-195 -39q-30 83 -65 136q-23 32 -54 61.5t-79.5 61t-118.5 50.5t-150 19q-113 0 -211 -41q-62 -26 -112 -67.5t-81 -84t-54 -96.5t-33.5 -95t-16.5 -90.5 t-7 -72t-1 -49.5q0 -100 19 -187t49 -148t71 -109.5t82.5 -78t86.5 -48.5q98 -37 210 -37q82 0 148 18q27 7 56.5 21t69.5 39t79 67t67 95q39 72 60 184l209 -25q-10 -51 -35 -114q-14 -35 -33.5 -72t-58 -90t-85.5 -97.5t-118 -87.5t-152 -67q-109 -33 -231 -33 q-291 0 -479 174q-41 39 -77 87.5t-72.5 119.5t-57.5 169t-21 210zM653 -197l150 230l59 -15l-59 -106q7 -4 29 -16t32 -19q36 -26 51 -59t15 -58q0 -40 -29 -84q-55 -83 -231 -92v47q22 -5 47 2q25 6 42 26t17 46q0 15 -12 39q-11 17 -28.5 26.5t-44.5 18.5t-38 14z" />
<glyph unicode="&#xc8;" horiz-adv-x="1236" d="M162 0v1446h995v-170h-811v-447h705v-167h-705v-494h836v-168h-1020zM426 1833h203l96 -254h-121z" />
<glyph unicode="&#xc9;" horiz-adv-x="1236" d="M162 0v1446h995v-170h-811v-447h705v-167h-705v-494h836v-168h-1020zM553 1579l98 254h203l-178 -254h-123z" />
<glyph unicode="&#xca;" horiz-adv-x="1236" d="M162 0v1446h995v-170h-811v-447h705v-167h-705v-494h836v-168h-1020zM375 1579l207 254h133l219 -254h-158l-127 152l-121 -152h-153z" />
<glyph unicode="&#xcb;" horiz-adv-x="1236" d="M162 0v1446h995v-170h-811v-447h705v-167h-705v-494h836v-168h-1020zM360 1599v209h179v-209h-179zM762 1599v209h180v-209h-180z" />
<glyph unicode="&#xcc;" horiz-adv-x="468" d="M20 1833h203l96 -254h-120zM137 0v1446h195v-1446h-195z" />
<glyph unicode="&#xcd;" horiz-adv-x="468" d="M137 0v1446h195v-1446h-195zM150 1579l98 254h201l-177 -254h-122z" />
<glyph unicode="&#xce;" horiz-adv-x="468" d="M-41 1579l207 254h133l219 -254h-158l-127 152l-120 -152h-154zM137 0v1446h195v-1446h-195z" />
<glyph unicode="&#xcf;" horiz-adv-x="468" d="M-55 1599v209h178v-209h-178zM137 0v1446h195v-1446h-195zM346 1599v209h178v-209h-178z" />
<glyph unicode="&#xd1;" horiz-adv-x="1449" d="M160 0v1446h182l782 -1159l-8 1159h174v-1446h-174l-792 1176l18 -1176h-182zM428 1610q18 126 82 174q38 28 96 28q31 0 62 -9t69 -25.5t58 -22.5q36 -12 67 -12q20 0 31 8q22 12 35 55h96q-7 -50 -20 -84q-49 -123 -150 -123q-48 2 -170 50q-60 24 -92 24q-13 0 -21 -2 q-38 -16 -45 -61h-98z" />
<glyph unicode="&#xd2;" horiz-adv-x="1662" d="M104 725q0 325 181 530q99 112 245.5 170t303.5 58q155 0 286 -51q218 -85 329.5 -271t111.5 -426q0 -297 -152 -504q-35 -47 -80.5 -88t-115.5 -84.5t-170 -69.5t-216 -26q-303 0 -497 184q-41 38 -76.5 85.5t-71.5 117.5t-57 167t-21 208zM313 723q0 -226 97 -383 q45 -68 92 -109q66 -57 139 -84q89 -32 197 -32q123 0 219 43q56 26 105.5 69.5t94 111.5t70.5 170t25 226q0 245 -113 402q-141 190 -405 190q-84 -1 -154.5 -20t-119.5 -51t-80.5 -62.5t-55.5 -65.5q-57 -81 -84 -189t-27 -216zM618 1833h203l97 -254h-121z" />
<glyph unicode="&#xd3;" horiz-adv-x="1662" d="M104 725q0 325 181 530q99 112 245.5 170t303.5 58q155 0 286 -51q218 -85 329.5 -271t111.5 -426q0 -297 -152 -504q-35 -47 -80.5 -88t-115.5 -84.5t-170 -69.5t-216 -26q-303 0 -497 184q-41 38 -76.5 85.5t-71.5 117.5t-57 167t-21 208zM313 723q0 -226 97 -383 q45 -68 92 -109q66 -57 139 -84q89 -32 197 -32q123 0 219 43q56 26 105.5 69.5t94 111.5t70.5 170t25 226q0 245 -113 402q-141 190 -405 190q-84 -1 -154.5 -20t-119.5 -51t-80.5 -62.5t-55.5 -65.5q-57 -81 -84 -189t-27 -216zM745 1579l99 254h203l-179 -254h-123z" />
<glyph unicode="&#xd4;" horiz-adv-x="1662" d="M104 725q0 325 181 530q99 112 245.5 170t303.5 58q155 0 286 -51q218 -85 329.5 -271t111.5 -426q0 -297 -152 -504q-35 -47 -80.5 -88t-115.5 -84.5t-170 -69.5t-216 -26q-303 0 -497 184q-41 38 -76.5 85.5t-71.5 117.5t-57 167t-21 208zM313 723q0 -226 97 -383 q45 -68 92 -109q66 -57 139 -84q89 -32 197 -32q123 0 219 43q56 26 105.5 69.5t94 111.5t70.5 170t25 226q0 245 -113 402q-141 190 -405 190q-84 -1 -154.5 -20t-119.5 -51t-80.5 -62.5t-55.5 -65.5q-57 -81 -84 -189t-27 -216zM557 1579l205 254h133l221 -254h-158 l-127 152l-122 -152h-152z" />
<glyph unicode="&#xd5;" horiz-adv-x="1662" d="M104 725q0 325 181 530q99 112 245.5 170t303.5 58q155 0 286 -51q218 -85 329.5 -271t111.5 -426q0 -297 -152 -504q-35 -47 -80.5 -88t-115.5 -84.5t-170 -69.5t-216 -26q-303 0 -497 184q-41 38 -76.5 85.5t-71.5 117.5t-57 167t-21 208zM313 723q0 -226 97 -383 q45 -68 92 -109q66 -57 139 -84q89 -32 197 -32q123 0 219 43q56 26 105.5 69.5t94 111.5t70.5 170t25 226q0 245 -113 402q-141 190 -405 190q-84 -1 -154.5 -20t-119.5 -51t-80.5 -62.5t-55.5 -65.5q-57 -81 -84 -189t-27 -216zM535 1610q18 127 81 174q38 28 97 28 q31 0 62 -9t68.5 -25.5t57.5 -22.5q36 -12 68 -12q19 0 30 8q22 12 35 55h96q-7 -50 -20 -84q-8 -20 -14 -31.5t-24 -37.5t-46.5 -40t-64.5 -14q-49 2 -168 50q-63 24 -95 24q-12 0 -20 -2q-38 -16 -45 -61h-98z" />
<glyph unicode="&#xd6;" horiz-adv-x="1662" d="M104 725q0 325 181 530q99 112 245.5 170t303.5 58q155 0 286 -51q218 -85 329.5 -271t111.5 -426q0 -297 -152 -504q-35 -47 -80.5 -88t-115.5 -84.5t-170 -69.5t-216 -26q-303 0 -497 184q-41 38 -76.5 85.5t-71.5 117.5t-57 167t-21 208zM313 723q0 -226 97 -383 q45 -68 92 -109q66 -57 139 -84q89 -32 197 -32q123 0 219 43q56 26 105.5 69.5t94 111.5t70.5 170t25 226q0 245 -113 402q-141 190 -405 190q-84 -1 -154.5 -20t-119.5 -51t-80.5 -62.5t-55.5 -65.5q-57 -81 -84 -189t-27 -216zM551 1599v209h178v-209h-178zM952 1599v209 h178v-209h-178z" />
<glyph unicode="&#xd7;" horiz-adv-x="1366" d="M158 188l411 410l-411 412l112 114l414 -411l410 411l114 -114l-409 -412l409 -410l-114 -114l-410 409l-414 -409z" />
<glyph unicode="&#xd8;" horiz-adv-x="1662" d="M96 121l142 135q-26 45 -42 76.5t-41.5 95t-39 138.5t-13.5 157q0 46 6.5 98.5t25 133t64.5 166t113 155.5q193 207 516 207q90 0 168 -17q75 -14 152.5 -50.5t175.5 -117.5l141 134l99 -105l-144 -139q144 -212 144 -461q0 -159 -62 -315q-88 -216 -267.5 -332.5 t-416.5 -116.5q-147 0 -257.5 42.5t-229.5 139.5l-133 -127zM315 717q0 -167 66 -322l807 774q-144 160 -367 160q-233 0 -370 -168q-69 -84 -102.5 -203.5t-33.5 -240.5zM459 268q84 -82 169.5 -117.5t202.5 -35.5q204 0 343 129q48 45 83 102.5t52 106t27 103.5t12 84 t2 58q0 192 -78 351z" />
<glyph unicode="&#xd9;" horiz-adv-x="1409" d="M156 551v895h192v-868q0 -127 6 -168q15 -123 95 -199q52 -49 120 -70q51 -14 125 -14q127 0 215 57q35 22 60.5 50t41.5 62t25.5 64.5t14 73t5.5 72.5t1 76v864h194v-924q0 -100 -12 -168q-41 -195 -211 -303q-140 -88 -336 -88q-128 0 -235 39q-100 39 -174.5 116 t-106.5 177q-14 51 -18 100.5t-2 155.5zM489 1833h203l99 -254h-123z" />
<glyph unicode="&#xda;" horiz-adv-x="1409" d="M156 551v895h192v-868q0 -127 6 -168q15 -123 95 -199q52 -49 120 -70q51 -14 125 -14q127 0 215 57q35 22 60.5 50t41.5 62t25.5 64.5t14 73t5.5 72.5t1 76v864h194v-924q0 -100 -12 -168q-41 -195 -211 -303q-140 -88 -336 -88q-128 0 -235 39q-100 39 -174.5 116 t-106.5 177q-14 51 -18 100.5t-2 155.5zM618 1579l99 254h203l-179 -254h-123z" />
<glyph unicode="&#xdb;" horiz-adv-x="1409" d="M156 551v895h192v-868q0 -127 6 -168q15 -123 95 -199q52 -49 120 -70q51 -14 125 -14q127 0 215 57q35 22 60.5 50t41.5 62t25.5 64.5t14 73t5.5 72.5t1 76v864h194v-924q0 -100 -12 -168q-41 -195 -211 -303q-140 -88 -336 -88q-128 0 -235 39q-100 39 -174.5 116 t-106.5 177q-14 51 -18 100.5t-2 155.5zM428 1579l207 254h133l219 -254h-158l-127 152l-120 -152h-154z" />
<glyph unicode="&#xdc;" horiz-adv-x="1409" d="M156 551v895h192v-868q0 -127 6 -168q15 -123 95 -199q52 -49 120 -70q51 -14 125 -14q127 0 215 57q35 22 60.5 50t41.5 62t25.5 64.5t14 73t5.5 72.5t1 76v864h194v-924q0 -100 -12 -168q-41 -195 -211 -303q-140 -88 -336 -88q-128 0 -235 39q-100 39 -174.5 116 t-106.5 177q-14 51 -18 100.5t-2 155.5zM412 1599v209h178v-209h-178zM815 1599v209h178v-209h-178z" />
<glyph unicode="&#xdf;" horiz-adv-x="1110" d="M131 0v1018q0 5 0.5 33t0.5 35t1 32.5t2.5 34.5t4 31.5t6 34t8.5 30.5t11.5 32.5t15 29.5t18.5 30q99 142 331 142q163 0 263 -72q129 -92 129 -258q0 -137 -88 -221q-39 -39 -97 -62q57 -8 104 -31.5t76 -51t51 -63t32 -60t16 -48.5q14 -59 14 -141q0 -321 -199 -436 q-107 -62 -245 -62q-84 0 -193 31v172q2 -1 15 -5.5t22 -7.5t25 -8t31 -8.5t33 -7t38 -5t39 -1.5q138 0 207 94q61 85 61 228q0 132 -69 213q-55 64 -139 88t-246 24l2 162q203 -21 290 66q56 56 56 135q0 90 -65 138t-158 46q-92 0 -150 -39q-18 -12 -32.5 -27.5t-24 -29.5 t-16 -36t-10 -35t-5.5 -39.5t-2.5 -37.5t-1 -41t-0.5 -38v-1008h-162z" />
<glyph unicode="&#xe0;" horiz-adv-x="1024" d="M66 250q0 128 104 209q21 16 47 29.5t47.5 22t47 16t40 10.5t34 6.5t20.5 3.5q102 16 155 20q12 1 66.5 4t81.5 7q0 52 -2 79q-2 29 -4.5 50t-15.5 54.5t-34 54.5t-62 37.5t-97 16.5q-160 0 -199 -116q-10 -31 -10 -86l-170 10q0 39 16 94q10 31 26 59t45 59t66.5 53.5 t93.5 37t123 14.5q74 0 152 -20q22 -6 45 -15t58 -28.5t65.5 -55t46.5 -81.5q13 -36 16.5 -78.5t3.5 -128.5v-316q0 -43 2 -63q1 -15 3 -22.5t8 -22t21.5 -22t39.5 -7.5q13 0 49 8v-137q-55 -18 -104 -18q-67 0 -103 24q-15 11 -32 37q-23 31 -33 82q-21 -22 -34.5 -36 t-47 -40t-65.5 -41.5t-81 -28t-102 -12.5q-67 0 -133 21q-89 30 -141.5 97t-52.5 159zM246 254q0 -43 22 -76q47 -67 160 -67q116 0 188 59q95 75 95 223q0 14 -1 40t-1 38q-22 -4 -68.5 -10t-69.5 -10q-37 -7 -96 -21q-40 -7 -67 -14q-14 -3 -24 -6t-39 -16.5t-47.5 -29.5 t-35 -45.5t-16.5 -64.5zM305 1362h182l84 -295h-96z" />
<glyph unicode="&#xe1;" horiz-adv-x="1024" d="M66 250q0 128 104 209q21 16 47 29.5t47.5 22t47 16t40 10.5t34 6.5t20.5 3.5q102 16 155 20q12 1 66.5 4t81.5 7q0 52 -2 79q-2 29 -4.5 50t-15.5 54.5t-34 54.5t-62 37.5t-97 16.5q-160 0 -199 -116q-10 -31 -10 -86l-170 10q0 39 16 94q10 31 26 59t45 59t66.5 53.5 t93.5 37t123 14.5q74 0 152 -20q22 -6 45 -15t58 -28.5t65.5 -55t46.5 -81.5q13 -36 16.5 -78.5t3.5 -128.5v-316q0 -43 2 -63q1 -15 3 -22.5t8 -22t21.5 -22t39.5 -7.5q13 0 49 8v-137q-55 -18 -104 -18q-67 0 -103 24q-15 11 -32 37q-23 31 -33 82q-21 -22 -34.5 -36 t-47 -40t-65.5 -41.5t-81 -28t-102 -12.5q-67 0 -133 21q-89 30 -141.5 97t-52.5 159zM246 254q0 -43 22 -76q47 -67 160 -67q116 0 188 59q95 75 95 223q0 14 -1 40t-1 38q-22 -4 -68.5 -10t-69.5 -10q-37 -7 -96 -21q-40 -7 -67 -14q-14 -3 -24 -6t-39 -16.5t-47.5 -29.5 t-35 -45.5t-16.5 -64.5zM465 1069l84 295h176l-176 -295h-84z" />
<glyph unicode="&#xe2;" horiz-adv-x="1024" d="M66 250q0 128 104 209q21 16 47 29.5t47.5 22t47 16t40 10.5t34 6.5t20.5 3.5q102 16 155 20q12 1 66.5 4t81.5 7q0 52 -2 79q-2 29 -4.5 50t-15.5 54.5t-34 54.5t-62 37.5t-97 16.5q-160 0 -199 -116q-10 -31 -10 -86l-170 10q0 39 16 94q10 31 26 59t45 59t66.5 53.5 t93.5 37t123 14.5q74 0 152 -20q22 -6 45 -15t58 -28.5t65.5 -55t46.5 -81.5q13 -36 16.5 -78.5t3.5 -128.5v-316q0 -43 2 -63q1 -15 3 -22.5t8 -22t21.5 -22t39.5 -7.5q13 0 49 8v-137q-55 -18 -104 -18q-67 0 -103 24q-15 11 -32 37q-23 31 -33 82q-21 -22 -34.5 -36 t-47 -40t-65.5 -41.5t-81 -28t-102 -12.5q-67 0 -133 21q-89 30 -141.5 97t-52.5 159zM246 254q0 -43 22 -76q47 -67 160 -67q116 0 188 59q95 75 95 223q0 14 -1 40t-1 38q-22 -4 -68.5 -10t-69.5 -10q-37 -7 -96 -21q-40 -7 -67 -14q-14 -3 -24 -6t-39 -16.5t-47.5 -29.5 t-35 -45.5t-16.5 -64.5zM248 1071l192 309h138l213 -309h-154l-125 195l-121 -195h-143z" />
<glyph unicode="&#xe3;" horiz-adv-x="1024" d="M66 250q0 128 104 209q21 16 47 29.5t47.5 22t47 16t40 10.5t34 6.5t20.5 3.5q102 16 155 20q12 1 66.5 4t81.5 7q0 52 -2 79q-2 29 -4.5 50t-15.5 54.5t-34 54.5t-62 37.5t-97 16.5q-160 0 -199 -116q-10 -31 -10 -86l-170 10q0 39 16 94q10 31 26 59t45 59t66.5 53.5 t93.5 37t123 14.5q74 0 152 -20q22 -6 45 -15t58 -28.5t65.5 -55t46.5 -81.5q13 -36 16.5 -78.5t3.5 -128.5v-316q0 -43 2 -63q1 -15 3 -22.5t8 -22t21.5 -22t39.5 -7.5q13 0 49 8v-137q-55 -18 -104 -18q-67 0 -103 24q-15 11 -32 37q-23 31 -33 82q-21 -22 -34.5 -36 t-47 -40t-65.5 -41.5t-81 -28t-102 -12.5q-67 0 -133 21q-89 30 -141.5 97t-52.5 159zM213 1104q1 13 4 29.5t15.5 50.5t30 59t51.5 45t77 19q28 0 56.5 -7.5t69.5 -24t54 -20.5q1 -1 13 -5.5t30.5 -8.5t32.5 -4q57 0 66 63h98l-1 -8q-2 -7 -3.5 -16.5t-5.5 -23.5t-9 -28 t-12.5 -29.5t-16.5 -29.5t-21.5 -27t-27 -22.5t-33.5 -14.5t-40 -5q-31 0 -66.5 11t-111.5 40q-56 20 -82 20q-24 0 -40.5 -14.5t-21 -26t-6.5 -22.5h-100zM246 254q0 -43 22 -76q47 -67 160 -67q116 0 188 59q95 75 95 223q0 14 -1 40t-1 38q-22 -4 -68.5 -10t-69.5 -10 q-37 -7 -96 -21q-40 -7 -67 -14q-14 -3 -24 -6t-39 -16.5t-47.5 -29.5t-35 -45.5t-16.5 -64.5z" />
<glyph unicode="&#xe4;" horiz-adv-x="1024" d="M66 250q0 128 104 209q21 16 47 29.5t47.5 22t47 16t40 10.5t34 6.5t20.5 3.5q102 16 155 20q12 1 66.5 4t81.5 7q0 52 -2 79q-2 29 -4.5 50t-15.5 54.5t-34 54.5t-62 37.5t-97 16.5q-160 0 -199 -116q-10 -31 -10 -86l-170 10q0 39 16 94q10 31 26 59t45 59t66.5 53.5 t93.5 37t123 14.5q74 0 152 -20q22 -6 45 -15t58 -28.5t65.5 -55t46.5 -81.5q13 -36 16.5 -78.5t3.5 -128.5v-316q0 -43 2 -63q1 -15 3 -22.5t8 -22t21.5 -22t39.5 -7.5q13 0 49 8v-137q-55 -18 -104 -18q-67 0 -103 24q-15 11 -32 37q-23 31 -33 82q-21 -22 -34.5 -36 t-47 -40t-65.5 -41.5t-81 -28t-102 -12.5q-67 0 -133 21q-89 30 -141.5 97t-52.5 159zM215 1108v211h178v-211h-178zM246 254q0 -43 22 -76q47 -67 160 -67q116 0 188 59q95 75 95 223q0 14 -1 40t-1 38q-22 -4 -68.5 -10t-69.5 -10q-37 -7 -96 -21q-40 -7 -67 -14 q-14 -3 -24 -6t-39 -16.5t-47.5 -29.5t-35 -45.5t-16.5 -64.5zM616 1108v211h183v-211h-183z" />
<glyph unicode="&#xe5;" horiz-adv-x="1024" d="M66 250q0 128 104 209q21 16 47 29.5t47.5 22t47 16t40 10.5t34 6.5t20.5 3.5q102 16 155 20q12 1 66.5 4t81.5 7q0 52 -2 79q-2 29 -4.5 50t-15.5 54.5t-34 54.5t-62 37.5t-97 16.5q-160 0 -199 -116q-10 -31 -10 -86l-170 10q0 39 16 94q10 31 26 59t45 59t66.5 53.5 t93.5 37t123 14.5q74 0 152 -20q22 -6 45 -15t58 -28.5t65.5 -55t46.5 -81.5q13 -36 16.5 -78.5t3.5 -128.5v-316q0 -43 2 -63q1 -15 3 -22.5t8 -22t21.5 -22t39.5 -7.5q13 0 49 8v-137q-55 -18 -104 -18q-67 0 -103 24q-15 11 -32 37q-23 31 -33 82q-21 -22 -34.5 -36 t-47 -40t-65.5 -41.5t-81 -28t-102 -12.5q-67 0 -133 21q-89 30 -141.5 97t-52.5 159zM246 254q0 -43 22 -76q47 -67 160 -67q116 0 188 59q95 75 95 223q0 14 -1 40t-1 38q-22 -4 -68.5 -10t-69.5 -10q-37 -7 -96 -21q-40 -7 -67 -14q-14 -3 -24 -6t-39 -16.5t-47.5 -29.5 t-35 -45.5t-16.5 -64.5zM311 1245q0 80 57 137.5t136 57.5q81 -1 137.5 -58t56.5 -137q-2 -80 -58.5 -137t-135.5 -57q-81 0 -137 57t-56 137zM399 1245q0 -43 30.5 -73.5t74.5 -30.5t74 31.5t30 74.5q0 42 -31 73.5t-73 31.5q-44 0 -74.5 -32t-30.5 -75z" />
<glyph unicode="&#xe6;" horiz-adv-x="1662" d="M68 242q0 89 51.5 159.5t134.5 108.5q17 7 35 13t33.5 10.5t39 8t38 5.5t44.5 4l45 3t53.5 1.5t55.5 0.5t64.5 0.5t68.5 0.5q0 69 -10 121q-23 87 -81.5 139.5t-143.5 52.5q-53 0 -99 -20q-38 -19 -71 -61.5t-37 -112.5l-172 12q9 80 41 139q39 67 121 117.5t213 50.5 q162 0 260 -90q33 -29 65 -82q30 45 66 76q39 37 107 66.5t159 29.5q201 0 326 -157q122 -150 120 -400h-700q0 -150 70 -239q75 -97 206 -97q78 0 137 42.5t87 117.5q9 26 12 45l172 -26q-28 -110 -113 -191q-127 -121 -315 -121q-247 0 -363 203q-158 -203 -391 -203 q-62 0 -127 19q-92 27 -147 93t-55 161zM238 248q0 -54 48 -102t144 -48q127 0 209 86q87 91 92 254h-96q-117 0 -205 -18q-103 -21 -154 -78q-38 -38 -38 -94zM893 557h528q-8 129 -73 207q-88 96 -197 96q-47 0 -103 -25t-100 -90q-55 -82 -55 -188z" />
<glyph unicode="&#xe7;" d="M80 475q1 89 20 165.5t48.5 128.5t69 94t77.5 65.5t78 38.5q75 28 176 28q91 0 166 -22.5t123.5 -60t79 -75t49.5 -79.5q17 -38 26 -86l-180 -17q-20 81 -41 113q-71 109 -221 109q-58 0 -108 -21t-92 -64.5t-66.5 -122t-24.5 -184.5q0 -212 111 -319q75 -70 192 -70 q69 0 123 25q72 32 104 92.5t46 151.5l176 -17q-31 -188 -162 -293q-111 -86 -291 -86q-104 0 -182 29q-39 14 -76 36t-78.5 61.5t-72 90t-50.5 126t-20 163.5zM408 -197l149 230l59 -15l-59 -106q10 -6 32 -17.5t32 -17.5q35 -26 49 -59t14 -58q0 -43 -27 -84 q-34 -50 -94.5 -69t-138.5 -23v47q23 -6 49 2q25 6 41 26t16 46q0 15 -12 39q-11 17 -28 26.5t-44 18.5t-38 14z" />
<glyph unicode="&#xe8;" d="M80 492q0 207 108 337q66 79 160.5 122.5t198.5 43.5q78 0 151 -26q38 -13 75.5 -34t88 -73.5t80.5 -122.5q47 -110 47 -284l-733 -2q-1 -116 41 -194.5t98 -117.5q73 -49 174 -49q98 0 162 60q31 25 53 63q9 15 16.5 32.5t11 29.5t7 25t4.5 15l166 -22q0 -1 -7.5 -20.5 t-13.5 -34t-17.5 -37.5t-24.5 -43q-126 -191 -373 -191q-113 0 -203 39q-50 21 -93.5 56t-85.5 91t-66.5 143t-24.5 194zM260 571h551q-5 60 -14 95q-25 90 -96.5 146t-165.5 56q-83 0 -144.5 -43t-92.5 -108t-38 -146zM338 1362h182l84 -295h-98z" />
<glyph unicode="&#xe9;" d="M80 492q0 207 108 337q66 79 160.5 122.5t198.5 43.5q78 0 151 -26q38 -13 75.5 -34t88 -73.5t80.5 -122.5q47 -110 47 -284l-733 -2q-1 -116 41 -194.5t98 -117.5q73 -49 174 -49q98 0 162 60q31 25 53 63q9 15 16.5 32.5t11 29.5t7 25t4.5 15l166 -22q0 -1 -7.5 -20.5 t-13.5 -34t-17.5 -37.5t-24.5 -43q-126 -191 -373 -191q-113 0 -203 39q-50 21 -93.5 56t-85.5 91t-66.5 143t-24.5 194zM260 571h551q-5 60 -14 95q-25 90 -96.5 146t-165.5 56q-83 0 -144.5 -43t-92.5 -108t-38 -146zM485 1069l86 295h177l-177 -295h-86z" />
<glyph unicode="&#xea;" d="M80 492q0 207 108 337q66 79 160.5 122.5t198.5 43.5q78 0 151 -26q38 -13 75.5 -34t88 -73.5t80.5 -122.5q47 -110 47 -284l-733 -2q-1 -116 41 -194.5t98 -117.5q73 -49 174 -49q98 0 162 60q31 25 53 63q9 15 16.5 32.5t11 29.5t7 25t4.5 15l166 -22q0 -1 -7.5 -20.5 t-13.5 -34t-17.5 -37.5t-24.5 -43q-126 -191 -373 -191q-113 0 -203 39q-50 21 -93.5 56t-85.5 91t-66.5 143t-24.5 194zM260 571h551q-5 60 -14 95q-25 90 -96.5 146t-165.5 56q-83 0 -144.5 -43t-92.5 -108t-38 -146zM268 1071l193 309h139l213 -309h-156l-125 195 l-120 -195h-144z" />
<glyph unicode="&#xeb;" d="M80 492q0 207 108 337q66 79 160.5 122.5t198.5 43.5q78 0 151 -26q38 -13 75.5 -34t88 -73.5t80.5 -122.5q47 -110 47 -284l-733 -2q-1 -116 41 -194.5t98 -117.5q73 -49 174 -49q98 0 162 60q31 25 53 63q9 15 16.5 32.5t11 29.5t7 25t4.5 15l166 -22q0 -1 -7.5 -20.5 t-13.5 -34t-17.5 -37.5t-24.5 -43q-126 -191 -373 -191q-113 0 -203 39q-50 21 -93.5 56t-85.5 91t-66.5 143t-24.5 194zM260 571h551q-5 60 -14 95q-25 90 -96.5 146t-165.5 56q-83 0 -144.5 -43t-92.5 -108t-38 -146zM266 1108v211h178v-211h-178zM668 1108v211h182v-211 h-182z" />
<glyph unicode="&#xec;" horiz-adv-x="425" d="M18 1362h181l86 -295h-99zM137 0v965h158v-965h-158z" />
<glyph unicode="&#xed;" horiz-adv-x="425" d="M137 0v965h158v-965h-158zM156 1069l84 295h176l-176 -295h-84z" />
<glyph unicode="&#xee;" horiz-adv-x="425" d="M-51 1071l192 309h140l211 -309h-154l-125 195l-121 -195h-143zM137 0v965h158v-965h-158z" />
<glyph unicode="&#xef;" horiz-adv-x="425" d="M-76 1108v211h178v-211h-178zM137 0v965h158v-965h-158zM328 1108v211h180v-211h-180z" />
<glyph unicode="&#xf1;" d="M131 0v965h164v-142q23 40 51 68q37 39 100.5 71.5t151.5 32.5q23 0 50.5 -4.5t69 -16.5t83 -41t71.5 -71q18 -25 30.5 -55.5t18 -51.5t8.5 -61.5t3 -55v-63.5v-575h-162v614v10.5v14.5t-0.5 16t-2 19t-4 20.5t-6 21.5t-9.5 21t-13 22t-17 20.5t-22 19.5q-60 43 -145 43 q-105 0 -180 -72q-41 -41 -58 -88q-18 -45 -18 -133v-549h-164zM233 1104q15 77 39 118q49 86 142 85q28 0 56 -7.5t70 -24t52 -20.5q36 -18 78 -18q9 0 16 1.5t13 5t10.5 7t8 8.5t6 9t4.5 9.5t3 8.5t2.5 8t1.5 6h96q0 -6 -3 -24.5t-14.5 -51t-28.5 -60.5t-49.5 -48.5 t-73.5 -19.5q-22 0 -50 7t-50.5 15t-76.5 29q-59 20 -84 20q-10 0 -18 -2.5t-14 -5.5t-11.5 -8.5t-8.5 -10t-6 -11.5t-4 -10l-3 -9l-2 -6h-101z" />
<glyph unicode="&#xf2;" horiz-adv-x="1110" d="M82 477q0 208 111 350q131 168 370 168q109 0 193 -37q47 -20 91.5 -54.5t87.5 -90.5t68.5 -142t24.5 -190q0 -208 -113 -350q-136 -162 -358 -162q-211 0 -334 127q-141 141 -141 381zM260 471q0 -42 8 -98q4 -28 11.5 -56t28.5 -69.5t50.5 -72t81.5 -53t117 -22.5 q153 7 229 121q14 22 25.5 50.5t18 53.5t11.5 54.5t6.5 47t2.5 37.5l2 19q0 156 -49 246q-24 46 -60 74q-72 61 -176 61q-63 0 -114 -19.5t-82.5 -48t-54 -71t-33 -76t-16.5 -77.5t-6.5 -61.5t-0.5 -39.5zM358 1362h183l84 -295h-97z" />
<glyph unicode="&#xf3;" horiz-adv-x="1110" d="M82 477q0 208 111 350q131 168 370 168q109 0 193 -37q47 -20 91.5 -54.5t87.5 -90.5t68.5 -142t24.5 -190q0 -208 -113 -350q-136 -162 -358 -162q-211 0 -334 127q-141 141 -141 381zM260 471q0 -42 8 -98q4 -28 11.5 -56t28.5 -69.5t50.5 -72t81.5 -53t117 -22.5 q153 7 229 121q14 22 25.5 50.5t18 53.5t11.5 54.5t6.5 47t2.5 37.5l2 19q0 156 -49 246q-24 46 -60 74q-72 61 -176 61q-63 0 -114 -19.5t-82.5 -48t-54 -71t-33 -76t-16.5 -77.5t-6.5 -61.5t-0.5 -39.5zM498 1069l84 295h176l-176 -295h-84z" />
<glyph unicode="&#xf4;" horiz-adv-x="1110" d="M82 477q0 208 111 350q131 168 370 168q109 0 193 -37q47 -20 91.5 -54.5t87.5 -90.5t68.5 -142t24.5 -190q0 -208 -113 -350q-136 -162 -358 -162q-211 0 -334 127q-141 141 -141 381zM260 471q0 -42 8 -98q4 -28 11.5 -56t28.5 -69.5t50.5 -72t81.5 -53t117 -22.5 q153 7 229 121q14 22 25.5 50.5t18 53.5t11.5 54.5t6.5 47t2.5 37.5l2 19q0 156 -49 246q-24 46 -60 74q-72 61 -176 61q-63 0 -114 -19.5t-82.5 -48t-54 -71t-33 -76t-16.5 -77.5t-6.5 -61.5t-0.5 -39.5zM291 1071l192 309h138l213 -309h-154l-125 195l-121 -195h-143z" />
<glyph unicode="&#xf5;" horiz-adv-x="1110" d="M82 477q0 208 111 350q131 168 370 168q109 0 193 -37q47 -20 91.5 -54.5t87.5 -90.5t68.5 -142t24.5 -190q0 -208 -113 -350q-136 -162 -358 -162q-211 0 -334 127q-141 141 -141 381zM256 1104q1 13 4 29.5t15.5 50.5t30 59t51.5 45t77 19q28 0 56 -7.5t70 -24 t52 -20.5q3 -2 14.5 -5.5t30.5 -8t33 -4.5q57 0 66 63h98l-2 -8q-1 -7 -2.5 -16.5t-5.5 -23.5t-9 -28t-12.5 -29.5t-16.5 -29.5t-21.5 -27t-27 -22.5t-33.5 -14.5t-40 -5q-22 0 -51 7t-50 15t-77 29q-59 20 -84 20q-9 0 -16.5 -1.5t-13 -5t-10.5 -7t-9 -9t-6.5 -9.5t-5 -9.5 t-3.5 -8.5t-2 -8l-2 -5h-98zM260 471q0 -42 8 -98q4 -28 11.5 -56t28.5 -69.5t50.5 -72t81.5 -53t117 -22.5q153 7 229 121q14 22 25.5 50.5t18 53.5t11.5 54.5t6.5 47t2.5 37.5l2 19q0 156 -49 246q-24 46 -60 74q-72 61 -176 61q-63 0 -114 -19.5t-82.5 -48t-54 -71 t-33 -76t-16.5 -77.5t-6.5 -61.5t-0.5 -39.5z" />
<glyph unicode="&#xf6;" horiz-adv-x="1110" d="M82 477q0 203 108 348q130 170 373 170q109 0 193 -37q47 -20 91.5 -54.5t87.5 -90.5t68.5 -142t24.5 -190q0 -38 -5.5 -79t-23 -107.5t-62 -131.5t-110.5 -112q-110 -82 -270 -82q-203 0 -324 117q-151 146 -151 391zM260 471q4 -150 57 -240q75 -131 236 -131 q153 2 233 121q14 22 25.5 50.5t18 54t11.5 54.5t6.5 47.5t3 36.5t1.5 19q0 152 -45 240q-28 50 -64 80q-72 61 -178 61q-62 0 -112.5 -19.5t-81.5 -48t-54 -70.5t-33.5 -76.5t-16.5 -77.5t-6.5 -61.5t-0.5 -39.5zM272 1108v211h179v-211h-179zM676 1108v211h180v-211h-180z " />
<glyph unicode="&#xf7;" horiz-adv-x="1366" d="M0 514v162h1366v-162h-1366zM569 297q0 49 33.5 83t83.5 34q49 0 82 -33.5t33 -83.5q0 -49 -33.5 -82t-83.5 -31q-47 0 -81 33t-34 80zM569 891q0 49 33.5 83t83.5 34q49 -1 82 -35t33 -84q0 -46 -34 -79.5t-81 -33.5q-50 2 -83.5 34t-33.5 81z" />
<glyph unicode="&#xf8;" horiz-adv-x="1110" d="M78 92l88 86q-82 132 -82 299q0 122 41 223q56 136 172.5 215.5t261.5 79.5q3 0 10 -1t11 -1q159 -5 294 -123l91 88l71 -73l-94 -94q26 -35 37 -64q51 -110 51 -248q0 -104 -31 -194q-13 -36 -31 -71t-55.5 -81.5t-84 -81t-118.5 -58.5t-157 -24q-197 0 -322 131 l-81 -82zM256 496q0 -105 35 -193l473 459q-17 19 -30 30.5t-41 31t-64 30t-78 10.5q-81 0 -145 -43q-62 -39 -106 -119.5t-44 -205.5zM346 211q20 -28 29 -37q79 -74 190 -74q87 3 144 41q62 39 107.5 121.5t45.5 208.5q0 121 -41 201z" />
<glyph unicode="&#xf9;" d="M133 315.5v44.5v39v566h162v-549v-31.5v-29.5v-24t1 -23t2 -19.5t2.5 -19t3.5 -16t5.5 -17t7.5 -15.5q16 -37 61 -64.5t116 -27.5t132.5 28t96.5 83q12 18 21 39.5t13.5 36.5t7.5 43t3.5 37.5t1 44t0.5 40.5v484h160v-965h-160l-2 147q-19 -25 -45 -55 q-123 -117 -285 -117q-83 0 -153.5 34.5t-108.5 103.5q-10 18 -17.5 37t-12.5 43.5t-7.5 38.5t-4 45t-1.5 38.5zM338 1362h182l84 -295h-98z" />
<glyph unicode="&#xfa;" d="M133 315.5v44.5v39v566h162v-549v-31.5v-29.5v-24t1 -23t2 -19.5t2.5 -19t3.5 -16t5.5 -17t7.5 -15.5q16 -37 61 -64.5t116 -27.5t132.5 28t96.5 83q12 18 21 39.5t13.5 36.5t7.5 43t3.5 37.5t1 44t0.5 40.5v484h160v-965h-160l-2 147q-19 -25 -45 -55 q-123 -117 -285 -117q-83 0 -153.5 34.5t-108.5 103.5q-10 18 -17.5 37t-12.5 43.5t-7.5 38.5t-4 45t-1.5 38.5zM475 1069l86 295h176l-176 -295h-86z" />
<glyph unicode="&#xfb;" d="M133 315.5v44.5v39v566h162v-549v-31.5v-29.5v-24t1 -23t2 -19.5t2.5 -19t3.5 -16t5.5 -17t7.5 -15.5q16 -37 61 -64.5t116 -27.5t132.5 28t96.5 83q12 18 21 39.5t13.5 36.5t7.5 43t3.5 37.5t1 44t0.5 40.5v484h160v-965h-160l-2 147q-19 -25 -45 -55 q-123 -117 -285 -117q-83 0 -153.5 34.5t-108.5 103.5q-10 18 -17.5 37t-12.5 43.5t-7.5 38.5t-4 45t-1.5 38.5zM268 1071l193 309h139l213 -309h-156l-125 195l-120 -195h-144z" />
<glyph unicode="&#xfc;" d="M133 322.5v40v36.5v566h162v-549v-31.5v-29.5v-24t1 -23t2 -19.5t2.5 -19t3.5 -16t5.5 -17t7.5 -15.5q16 -37 61 -64.5t116 -27.5q20 0 43 3.5t58 13.5t69.5 34t58.5 60q10 15 18 30.5t12.5 35.5t7.5 32t5 37.5t2.5 33.5t1 38t0.5 34v484h160v-965h-160l-2 147 q-16 -24 -41 -49q-123 -123 -287 -123q-22 0 -46.5 3.5t-66 14t-80.5 39t-65 70.5q-10 17 -18 36t-13 34t-8.5 39t-5.5 35.5t-3 40t-1 36zM238 1108v211h178v-211h-178zM639 1108v211h182v-211h-182z" />
<glyph unicode="&#xff;" horiz-adv-x="894" d="M18 -309q65 -17 105 -17q58 0 90 21q14 9 26.5 23.5t20.5 26.5t18 34.5t13.5 31.5t13 35.5t10.5 28.5l41 119l-327 971h174l241 -766l256 766h170l-405 -1141q-40 -113 -62 -152q-42 -82 -94.5 -115.5t-144.5 -33.5q-73 0 -146 20v148zM160 1108v211h178v-211h-178z M561 1108v211h182v-211h-182z" />
<glyph unicode="&#x152;" horiz-adv-x="2347" d="M102 729q0 310 177 520q195 234 532 234q287 0 455 -189v152h1003v-172h-819v-449h661v-168h-661v-489h842v-168h-1026v168q-189 -205 -475 -205q-279 0 -461 180q-40 39 -75 87t-72 119.5t-59 170t-22 209.5zM307 721q0 -237 111 -397q43 -63 97 -106t107.5 -62 t93.5 -26t79 -7q35 0 73.5 6.5t91.5 24t106.5 58t94.5 99.5q61 89 82 188t23 230q0 127 -19.5 226t-77.5 186q-41 62 -94 103.5t-107 59t-92 23.5t-75 6q-213 0 -348 -155q-146 -172 -146 -457z" />
<glyph unicode="&#x153;" horiz-adv-x="1792" d="M86 481q0 189 82 312q21 33 50 63t76 64t114.5 54.5t146.5 20.5q213 0 350 -178q127 178 352 178q223 0 347 -166q38 -50 63 -113t34.5 -123t12 -92.5t2.5 -62.5h-727q0 -132 70 -223q81 -115 229 -115q106 3 172 72q37 42 53 76q6 12 11.5 25t9 24.5t4.5 13.5l166 -22 q-40 -119 -131 -205q-120 -115 -297 -115q-30 0 -63 4.5t-82 18t-100 46t-91 79.5q-6 6 -20 25t-15 20q-126 -193 -356 -193q-123 0 -230 58q-42 23 -79.5 57.5t-74.5 87.5t-58.5 133t-20.5 176zM260 477q0 -21 0.5 -38t7.5 -61.5t20 -80.5t40.5 -77.5t66.5 -67.5 q66 -46 148 -46q68 0 127 33q44 24 76 66t46.5 80t22.5 86t9 67t1 39q0 119 -34 200.5t-84 123.5q-66 57 -164 57q-56 0 -117 -27q-70 -37 -118 -125.5t-48 -228.5zM989 561l547 2q-7 62 -27 115q-22 56 -54 95t-67.5 57.5t-65.5 26t-60 7.5q-59 0 -107 -24 q-75 -36 -116.5 -112t-49.5 -167z" />
<glyph unicode="&#x178;" horiz-adv-x="1280" d="M29 1446h227l381 -612l385 612h229l-520 -784v-662h-194v662zM350 1599v209h178v-209h-178zM752 1599v209h178v-209h-178z" />
<glyph unicode="&#x2c6;" horiz-adv-x="555" d="M-158 1071l193 309h137l213 -309h-154l-125 195l-120 -195h-144z" />
<glyph unicode="&#x2dc;" horiz-adv-x="555" d="M-193 1104q1 13 4 29.5t15.5 50.5t30.5 59t52 45t77 19q28 0 56.5 -7.5t69.5 -24t54 -20.5q1 -1 13 -5.5t30.5 -8.5t32.5 -4q56 0 65 63h99l-2 -8q-1 -7 -2.5 -16.5t-5.5 -23.5t-9 -28t-12.5 -29.5t-16.5 -29.5t-21.5 -27t-27 -22.5t-33.5 -14.5t-40 -5q-47 0 -177 51 q-59 20 -84 20q-18 0 -32 -7.5t-21 -19.5t-10 -20.5t-4 -15.5h-101z" />
<glyph unicode="&#x2000;" horiz-adv-x="965" />
<glyph unicode="&#x2001;" horiz-adv-x="1931" />
<glyph unicode="&#x2002;" horiz-adv-x="965" />
<glyph unicode="&#x2003;" horiz-adv-x="1931" />
<glyph unicode="&#x2004;" horiz-adv-x="643" />
<glyph unicode="&#x2005;" horiz-adv-x="482" />
<glyph unicode="&#x2006;" horiz-adv-x="321" />
<glyph unicode="&#x2007;" horiz-adv-x="321" />
<glyph unicode="&#x2008;" horiz-adv-x="241" />
<glyph unicode="&#x2009;" horiz-adv-x="386" />
<glyph unicode="&#x200a;" horiz-adv-x="107" />
<glyph unicode="&#x2010;" horiz-adv-x="598" d="M92 526v156h416v-156h-416z" />
<glyph unicode="&#x2011;" horiz-adv-x="598" d="M92 526v156h416v-156h-416z" />
<glyph unicode="&#x2012;" horiz-adv-x="598" d="M92 526v156h416v-156h-416z" />
<glyph unicode="&#x2013;" horiz-adv-x="1193" d="M90 522v160h1018v-160h-1018z" />
<glyph unicode="&#x2014;" horiz-adv-x="1366" d="M0 518v162h1366v-162h-1366z" />
<glyph unicode="&#x2018;" horiz-adv-x="468" d="M129 901v107q4 94 8 143q15 133 78 295h96q-58 -149 -67 -322h88v-223h-203z" />
<glyph unicode="&#x2019;" horiz-adv-x="468" d="M129 1221v225h203v-107q-2 -132 -19.5 -224.5t-64.5 -213.5h-96q56 149 67 320h-90z" />
<glyph unicode="&#x201a;" horiz-adv-x="468" d="M129 0v223h203v-104q-2 -132 -19.5 -224.5t-64.5 -213.5h-96q58 150 67 319h-90z" />
<glyph unicode="&#x201c;" horiz-adv-x="768" d="M129 901v107q3 131 21 224.5t65 213.5h96q-58 -149 -67 -322h88v-223h-203zM434 901v107q1 82 3.5 120.5t22.5 127.5t60 190h94q-27 -71 -41 -135.5t-24 -186.5h88v-223h-203z" />
<glyph unicode="&#x201d;" horiz-adv-x="768" d="M129 1221v225h203v-107q-2 -132 -19.5 -224.5t-64.5 -213.5h-96q56 149 67 320h-90zM434 1221v225h203v-107q0 -6 -1 -36.5t-1.5 -40t-2.5 -38.5t-4.5 -44t-6.5 -44t-10.5 -52t-14.5 -53.5t-19.5 -62.5t-25.5 -67h-94q56 149 65 320h-88z" />
<glyph unicode="&#x201e;" horiz-adv-x="768" d="M129 0v223h203v-104q-2 -132 -19.5 -224.5t-64.5 -213.5h-96q58 150 67 319h-90zM434 0v223h203v-104q0 -6 -1 -37.5t-1.5 -40.5t-2.5 -38.5t-4.5 -44.5t-6.5 -44t-10.5 -51.5t-14.5 -53t-19.5 -62t-25.5 -66.5h-94q56 144 65 319h-88z" />
<glyph unicode="&#x2022;" horiz-adv-x="681" d="M74 723q0 48 20 98q32 78 100 123t152 45q112 0 186 -76.5t76 -189.5q0 -58 -22 -113q-8 -18 -19 -35t-32 -39.5t-45.5 -39t-62.5 -28t-81 -11.5q-112 0 -192 76t-80 190z" />
<glyph unicode="&#x2026;" horiz-adv-x="2048" d="M225 104q0 22 8 43q14 32 44 52t67 20q47 0 80 -34t33 -81q0 -48 -33 -82t-82 -34q-50 0 -83.5 33.5t-33.5 82.5zM909 104q0 26 9 46q13 32 43 50.5t65 18.5q47 0 81 -34t34 -81q0 -48 -33.5 -82t-83.5 -34q-48 0 -81.5 33.5t-33.5 82.5zM1591 104q0 47 35 81t82 34 q49 0 82 -33.5t33 -81.5t-33 -82t-82 -34q-50 0 -83.5 33.5t-33.5 82.5z" />
<glyph unicode="&#x202f;" horiz-adv-x="386" />
<glyph unicode="&#x205f;" horiz-adv-x="482" />
<glyph unicode="&#x2122;" horiz-adv-x="1406" d="M33 1346v100h553v-100h-213v-580h-121v580h-219zM643 766v680h162l170 -537l166 537h162v-680h-117l4 422q0 70 6 137q-9 -34 -35 -115l-137 -444h-104l-140 446q-6 18 -17.5 55t-17.5 56q9 -67 9 -135l6 -422h-117z" />
<glyph unicode="&#xe000;" horiz-adv-x="962" d="M0 0v963h963v-963h-963z" />
<glyph unicode="&#xfb01;" horiz-adv-x="980" d="M23 829v136h159v84q1 24 2 69t1.5 61.5t3 43.5t7 44.5t11.5 35.5q52 133 229 133q48 0 119 -13l-2 -129q-33 11 -88 11q-75 0 -105 -56q-12 -21 -15 -43.5t-3 -72.5v-168h182v-136h-182v-829h-160v829h-159zM694 0v965h158v-965h-158zM694 1257v189h158v-189h-158z" />
<glyph unicode="&#xfb02;" horiz-adv-x="980" d="M23 829v136h159v84q1 24 2 69t1.5 61.5t3 43.5t7 44.5t11.5 35.5q52 133 229 133q48 0 119 -13l-2 -129q-33 11 -88 11q-75 0 -105 -56q-12 -21 -15 -43.5t-3 -72.5v-168h182v-136h-182v-829h-160v829h-159zM692 0v1446h156v-1446h-156z" />
</font>
</defs>
</svg>
